<svg version="1.2" xmlns="http://www.w3.org/2000/svg" viewBox="0 0 500 500" width="500" height="500"><style>.a{fill:#407bff}.b{fill:#fff}.c{fill:#263238}</style><path class="a" d="m481.1 264.7c-8 127.7-117.7 224.4-245.3 216.4-127.7-8-224.4-117.7-216.4-245.3 8-127.7 117.7-224.4 245.3-216.4 127.7 8 224.4 117.7 216.4 245.3z"/><path class="b" d="m426.3 312.6c-34.5 97.4-141.1 148.2-238.5 113.7-97.4-34.5-148.2-141.1-113.7-238.5 34.5-97.3 141.1-148.2 238.5-113.7 97.4 34.5 148.2 141.1 113.7 238.5z"/><path class="c" d="m371.6 218.7c-15.4-20.8-44.9 0-53.8 21.7q-0.9 2.1-1.6 4.2-0.8 2-1.3 4.2-0.6 2.1-1.1 4.3-0.4 2.2-0.6 4.4l-9.8-66.6-7.7-63c-0.8-5.4-3.7-10.3-8.1-13.6-4.3-3.3-9.8-4.8-15.2-4.2-5.5 0.7-10.4 3.5-13.8 7.7-3.5 4.3-5.1 9.7-4.6 15.2l-1.9-15.7c-0.7-5.5-3.5-10.6-7.9-14-4.4-3.4-10-4.9-15.5-4.3-5.5 0.7-10.5 3.6-14 7.9-3.4 4.4-4.9 10-4.2 15.5l2.6 21.9c-0.3-3-1.3-5.8-2.9-8.4-1.5-2.5-3.6-4.7-6.1-6.4-2.4-1.7-5.2-2.8-8.1-3.3-3-0.6-6-0.4-8.9 0.3-2.4 0.6-4.8 1.7-6.8 3.1-2.1 1.5-3.9 3.3-5.3 5.4-1.5 2.1-2.5 4.4-3.1 6.9-0.6 2.5-0.7 5-0.4 7.5l3.3 27.3c-0.4-3-1.3-5.8-2.9-8.4-1.5-2.5-3.6-4.7-6.1-6.4-2.4-1.7-5.2-2.8-8.2-3.3-2.9-0.5-5.9-0.4-8.8 0.3-2.5 0.6-4.8 1.7-6.9 3.2-2 1.4-3.8 3.2-5.2 5.3-1.5 2.1-2.5 4.4-3.1 6.9-0.6 2.4-0.7 5-0.4 7.5l6.7 54.5 4.7 39.1 6.3 51.4c4.5 36.7 18.8 57.4 40.1 66.8 32.6 14.3 92.4 14.4 119.2-7.3 23.5-19.1 38.6-65 42.2-93.4 3.7-28.4 25.4-65.9 19.2-74.2z"/><path class="a" d="m368.7 59.4l38.1 29.8-275.1 352-38.1-29.8z"/></svg>