<svg version="1.2" xmlns="http://www.w3.org/2000/svg" viewBox="0 0 3000 2000" width="500" height="500"><style>.a{fill:#ed7d2b}.b{fill:#78acea}.c{fill:#699dee}.d{fill:#5288d8}.e{fill:#d7e9ff}.f{fill:#f99746}.g{fill:#afcdfb}.h{fill:#fff}</style><path class="a" d="m330.6 282l-296.7 1533.8c-6 31.2 17.9 60.1 49.7 60.1h156.4z"/><path class="b" d="m334.2 275.8l-196.7 1505.9c-6.5 50 32.4 94.2 82.7 94.2h288.5l-162.6-1605.6z"/><path class="c" d="m334.2 275.8l-88 1496.3c-3.4 56.3 41.4 103.8 97.8 103.8h430.3z"/><path class="d" d="m330.9 288l42.8 1484.1c-3.3 56.3 41.5 103.8 97.9 103.8h430.2z"/><path class="e" d="m2390.8 1875.9h-1696.4c-42.4 0-78.7-30.2-86.3-71.9l-258.1-1411.7c-11.8-64.1 37.5-123.1 102.6-123.1h1676.5c42.3 0 78.6 30.3 86.3 71.9l261.7 1431.3c9.8 53.9-31.5 103.5-86.3 103.5z"/><path class="f" d="m383.5 575.7h1875.9l-48.1-266.6c-4.2-23.1-24.3-39.9-47.8-39.9h-1817c-9.9 0-17.4 9-15.6 18.8z"/><path class="b" d="m427.4 189c-44.8 0-81.3 36.5-81.3 81.3h15.6c0-36.2 29.5-65.7 65.7-65.7 36.2 0 65.7 29.5 65.7 65.7 0 7.3-1.2 14.3-3.4 20.8-6.4 19.3-21.6 34.7-40.8 41.3-5.6 2-11.6 3.2-17.8 3.5v15.6c7.3-0.3 14.2-1.5 20.8-3.6 26.4-8.4 47-29.9 54.1-56.8 1.8-6.6 2.7-13.6 2.7-20.8 0-44.8-36.4-81.3-81.3-81.3z"/><path class="b" d="m452.6 343.2c0 1.6-0.3 3.2-0.7 4.7-2 7.4-8.9 12.9-17 12.9-9.7 0-17.6-7.9-17.6-17.6 0-9.8 7.9-17.7 17.6-17.7 5.7 0 10.8 2.7 14 6.9 2.3 3 3.7 6.7 3.7 10.8z"/><path class="b" d="m719 189c-44.9 0-81.3 36.5-81.3 81.3h15.6c0-36.2 29.5-65.7 65.7-65.7 36.2 0 65.7 29.5 65.7 65.7 0 7.3-1.2 14.3-3.4 20.8-6.4 19.3-21.6 34.7-40.8 41.3-5.6 2-11.6 3.2-17.8 3.5v15.6c7.2-0.3 14.2-1.5 20.8-3.6 26.4-8.4 47-29.9 54.1-56.8 1.8-6.6 2.7-13.6 2.7-20.8 0-44.8-36.5-81.3-81.3-81.3z"/><path class="b" d="m744.1 343.2c0 1.6-0.2 3.2-0.6 4.7-2.1 7.4-8.9 12.9-17 12.9-9.7 0-17.6-7.9-17.6-17.6 0-9.8 7.9-17.7 17.6-17.7 5.7 0 10.8 2.7 14 6.9 2.3 3 3.6 6.7 3.6 10.8z"/><path class="b" d="m1010.6 189c-44.9 0-81.3 36.5-81.3 81.3h15.6c0-36.2 29.4-65.7 65.7-65.7 36.2 0 65.7 29.5 65.7 65.7 0 7.3-1.2 14.3-3.4 20.8-6.5 19.3-21.6 34.7-40.8 41.3-5.6 2-11.6 3.2-17.8 3.5v15.6c7.2-0.3 14.2-1.5 20.8-3.6 26.4-8.4 47-29.9 54.1-56.8 1.8-6.6 2.7-13.6 2.7-20.8 0-44.8-36.5-81.3-81.3-81.3z"/><path class="b" d="m1035.7 343.2c0 1.6-0.2 3.2-0.6 4.7-2.1 7.4-8.9 12.9-17 12.9-9.7 0-17.6-7.9-17.6-17.6 0-9.8 7.9-17.7 17.6-17.7 5.7 0 10.7 2.7 14 6.9 2.3 3 3.6 6.7 3.6 10.8z"/><path class="b" d="m1302.2 189c-44.9 0-81.4 36.5-81.4 81.3h15.6c0-36.2 29.5-65.7 65.8-65.7 36.2 0 65.7 29.5 65.7 65.7 0 7.3-1.2 14.3-3.4 20.8-6.5 19.3-21.6 34.7-40.9 41.3-5.6 2-11.5 3.2-17.7 3.5v15.6c7.2-0.3 14.2-1.5 20.8-3.6 26.4-8.4 47-29.9 54.1-56.8 1.7-6.6 2.7-13.6 2.7-20.8 0-44.8-36.5-81.3-81.3-81.3z"/><path class="b" d="m1327.3 343.2c0 1.6-0.2 3.2-0.6 4.7-2.1 7.4-8.9 12.9-17 12.9-9.7 0-17.6-7.9-17.6-17.6 0-9.8 7.9-17.7 17.6-17.7 5.7 0 10.7 2.7 13.9 6.9 2.4 3 3.7 6.7 3.7 10.8z"/><path class="b" d="m1593.7 189c-44.8 0-81.3 36.5-81.3 81.3h15.6c0-36.2 29.5-65.7 65.7-65.7 36.3 0 65.7 29.5 65.7 65.7 0 7.3-1.1 14.3-3.3 20.8-6.5 19.3-21.7 34.7-40.9 41.3-5.6 2-11.5 3.2-17.7 3.5v15.6c7.2-0.3 14.1-1.5 20.7-3.6 26.4-8.4 47.1-29.9 54.2-56.8 1.7-6.6 2.7-13.6 2.7-20.8 0-44.8-36.5-81.3-81.4-81.3z"/><path class="b" d="m1618.9 343.2c0 1.6-0.3 3.2-0.7 4.7-2 7.4-8.8 12.9-16.9 12.9-9.8 0-17.6-7.9-17.6-17.6 0-9.8 7.8-17.7 17.6-17.7 5.7 0 10.7 2.7 13.9 6.9 2.3 3 3.7 6.7 3.7 10.8z"/><path class="b" d="m1885.3 189c-44.8 0-81.3 36.5-81.3 81.3h15.6c0-36.2 29.5-65.7 65.7-65.7 36.3 0 65.7 29.5 65.7 65.7 0 7.3-1.1 14.3-3.3 20.8-6.5 19.3-21.7 34.7-40.9 41.3-5.6 2-11.6 3.2-17.7 3.5v15.6c7.2-0.3 14.1-1.5 20.7-3.6 26.4-8.4 47-29.9 54.1-56.8 1.8-6.6 2.7-13.6 2.7-20.8 0-44.8-36.4-81.3-81.3-81.3z"/><path class="b" d="m1910.5 343.2c0 1.6-0.3 3.2-0.7 4.7-2 7.4-8.8 12.9-16.9 12.9-9.8 0-17.7-7.9-17.7-17.6 0-9.8 7.9-17.7 17.7-17.7 5.6 0 10.7 2.7 13.9 6.9 2.3 3 3.7 6.7 3.7 10.8z"/><path class="b" d="m2176.9 189c-44.8 0-81.3 36.5-81.3 81.3h15.6c0-36.2 29.5-65.7 65.7-65.7 36.2 0 65.7 29.5 65.7 65.7 0 7.3-1.2 14.3-3.4 20.8-6.4 19.3-21.6 34.7-40.8 41.3-5.6 2-11.6 3.2-17.8 3.5v15.6c7.3-0.3 14.2-1.5 20.8-3.6 26.4-8.4 47-29.9 54.1-56.8 1.8-6.6 2.7-13.6 2.7-20.8 0-44.8-36.5-81.3-81.3-81.3z"/><path class="b" d="m2202.1 343.2c0 1.6-0.3 3.2-0.7 4.7-2 7.4-8.9 12.9-17 12.9-9.7 0-17.6-7.9-17.6-17.6 0-9.8 7.9-17.7 17.6-17.7 5.7 0 10.8 2.7 14 6.9 2.3 3 3.7 6.7 3.7 10.8z"/><path class="g" d="m1468.3 1076.4h-94.8c-10.9 0-21.6-9-23.8-20l-18.3-94.8c-2.1-10.9 5.2-19.9 16.1-19.9h94.9c10.9 0 21.6 9 23.7 19.9l18.3 94.8c2.1 11-5.1 20-16.1 20z"/><path class="g" d="m1707.6 1076.4h-94.8c-11 0-21.7-9-23.8-20l-18.3-94.8c-2.1-10.9 5.2-19.9 16.1-19.9h94.9c10.9 0 21.6 9 23.7 19.9l18.3 94.8c2.1 11-5.1 20-16.1 20z"/><path class="b" d="m1946.9 1076.4h-94.8c-11 0-21.7-9-23.8-20l-18.3-94.8c-2.1-10.9 5.2-19.9 16.1-19.9h94.8c11 0 21.7 9 23.8 19.9l18.3 94.8c2.1 11-5.1 20-16.1 20z"/><path class="g" d="m750.5 1076.4h-94.9c-10.9 0-21.6-9-23.7-20l-18.3-94.8c-2.1-10.9 5.1-19.9 16.1-19.9h94.8c11 0 21.7 9 23.8 19.9l18.3 94.8c2.1 11-5.2 20-16.1 20z"/><path class="f" d="m646.5 791.7h-40.7c-4.7 0-9.3-3.9-10.2-8.6l-7.9-40.7c-0.9-4.7 2.2-8.6 6.9-8.6h40.8c4.7 0 9.3 3.9 10.2 8.6l7.9 40.7c0.9 4.7-2.2 8.6-7 8.6z"/><path class="g" d="m989.8 1076.4h-94.9c-10.9 0-21.6-9-23.7-20l-18.3-94.8c-2.1-10.9 5.1-19.9 16.1-19.9h94.8c10.9 0 21.6 9 23.8 19.9l18.3 94.8c2.1 11-5.2 20-16.1 20z"/><path class="g" d="m1229.1 1076.4h-94.9c-10.9 0-21.6-9-23.7-20l-18.3-94.8c-2.2-10.9 5.1-19.9 16-19.9h94.9c10.9 0 21.6 9 23.7 19.9l18.3 94.8c2.2 11-5.1 20-16 20z"/><path class="b" d="m2186.2 1076.4h-94.8c-11 0-21.7-9-23.8-20l-18.3-94.8c-2.1-10.9 5.1-19.9 16.1-19.9h94.8c11 0 21.7 9 23.8 19.9l18.3 94.8c2.1 11-5.1 20-16.1 20z"/><path class="g" d="m1428.6 870.4h-94.8c-11 0-21.7-9-23.8-19.9l-18.3-94.8c-2.1-11 5.1-20 16.1-20h94.8c11 0 21.7 9 23.8 20l18.3 94.8c2.1 10.9-5.1 19.9-16.1 19.9z"/><path class="g" d="m1667.9 870.4h-94.8c-11 0-21.7-9-23.8-19.9l-18.3-94.8c-2.1-11 5.1-20 16.1-20h94.8c11 0 21.7 9 23.8 20l18.3 94.8c2.1 10.9-5.1 19.9-16.1 19.9z"/><path class="b" d="m1907.2 870.4h-94.8c-11 0-21.7-9-23.8-19.9l-18.3-94.8c-2.1-11 5.1-20 16.1-20h94.8c11 0 21.7 9 23.8 20l18.3 94.8c2.1 10.9-5.1 19.9-16.1 19.9z"/><path class="b" d="m2146.5 870.4h-94.8c-11 0-21.7-9-23.8-19.9l-18.3-94.8c-2.1-11 5.1-20 16.1-20h94.8c11 0 21.7 9 23.8 20l18.3 94.8c2.1 10.9-5.2 19.9-16.1 19.9z"/><path class="g" d="m1510.5 1294.7h-94.9c-10.9 0-21.6-9-23.7-20l-18.3-94.8c-2.2-11 5.1-19.9 16-19.9h94.9c10.9 0 21.6 8.9 23.7 19.9l18.3 94.8c2.2 11-5.1 20-16 20z"/><path class="g" d="m1749.7 1294.7h-94.8c-10.9 0-21.6-9-23.8-20l-18.3-94.8c-2.1-11 5.2-19.9 16.1-19.9h94.9c10.9 0 21.6 8.9 23.7 19.9l18.3 94.8c2.1 11-5.1 20-16.1 20z"/><path class="b" d="m1989 1294.7h-94.8c-11 0-21.7-9-23.8-20l-18.3-94.8c-2.1-11 5.2-19.9 16.1-19.9h94.9c10.9 0 21.6 8.9 23.7 19.9l18.3 94.8c2.1 11-5.1 20-16.1 20z"/><path class="g" d="m792.6 1294.7h-94.8c-11 0-21.7-9-23.8-20l-18.3-94.8c-2.1-11 5.1-19.9 16.1-19.9h94.8c11 0 21.7 8.9 23.8 19.9l18.3 94.8c2.1 11-5.2 20-16.1 20z"/><path class="g" d="m1031.9 1294.7h-94.9c-10.9 0-21.6-9-23.7-20l-18.3-94.8c-2.1-11 5.1-19.9 16.1-19.9h94.8c11 0 21.7 8.9 23.8 19.9l18.3 94.8c2.1 11-5.2 20-16.1 20z"/><path class="g" d="m1271.2 1294.7h-94.9c-10.9 0-21.6-9-23.7-20l-18.3-94.8c-2.1-11 5.1-19.9 16.1-19.9h94.8c10.9 0 21.6 8.9 23.8 19.9l18.3 94.8c2.1 11-5.2 20-16.1 20z"/><path class="b" d="m2228.3 1294.7h-94.8c-11 0-21.7-9-23.8-20l-18.3-94.8c-2.1-11 5.2-19.9 16.1-19.9h94.8c11 0 21.7 8.9 23.8 19.9l18.3 94.8c2.1 11-5.1 20-16.1 20z"/><path class="g" d="m1552.6 1513h-94.9c-10.9 0-21.6-9-23.7-20l-18.3-94.8c-2.1-11 5.1-19.9 16.1-19.9h94.8c10.9 0 21.6 8.9 23.8 19.9l18.3 94.8c2.1 11-5.2 20-16.1 20z"/><path class="g" d="m1791.9 1513h-94.9c-10.9 0-21.6-9-23.8-20l-18.2-94.8c-2.2-11 5.1-19.9 16-19.9h94.9c10.9 0 21.6 8.9 23.7 19.9l18.3 94.8c2.2 11-5.1 20-16 20z"/><path class="b" d="m2031.1 1513h-94.8c-10.9 0-21.6-9-23.8-20l-18.3-94.8c-2.1-11 5.2-19.9 16.1-19.9h94.9c10.9 0 21.6 8.9 23.7 19.9l18.3 94.8c2.1 11-5.1 20-16.1 20z"/><path class="g" d="m834.7 1513h-94.8c-11 0-21.7-9-23.8-20l-18.3-94.8c-2.1-11 5.1-19.9 16.1-19.9h94.8c11 0 21.7 8.9 23.8 19.9l18.3 94.8c2.1 11-5.1 20-16.1 20z"/><path class="f" d="m1074 1513h-94.8c-11 0-21.7-9-23.8-20l-18.3-94.8c-2.1-11 5.1-19.9 16.1-19.9h94.8c11 0 21.7 8.9 23.8 19.9l18.3 94.8c2.1 11-5.2 20-16.1 20z"/><path class="g" d="m1313.3 1513h-94.9c-10.9 0-21.6-9-23.7-20l-18.3-94.8c-2.1-11 5.1-19.9 16.1-19.9h94.8c11 0 21.7 8.9 23.8 19.9l18.3 94.8c2.1 11-5.2 20-16.1 20z"/><path class="b" d="m2270.4 1513h-94.8c-11 0-21.7-9-23.8-20l-18.3-94.8c-2.1-11 5.2-19.9 16.1-19.9h94.9c10.9 0 21.6 8.9 23.7 19.9l18.3 94.8c2.1 11-5.1 20-16.1 20z"/><path class="g" d="m1592.3 1718.9h-94.8c-11 0-21.7-8.9-23.8-19.9l-18.3-94.8c-2.1-11 5.1-20 16.1-20h94.8c11 0 21.7 9 23.8 20l18.3 94.8c2.1 11-5.1 19.9-16.1 19.9z"/><path class="g" d="m1831.6 1718.9h-94.8c-11 0-21.7-8.9-23.8-19.9l-18.3-94.8c-2.1-11 5.1-20 16.1-20h94.8c11 0 21.7 9 23.8 20l18.3 94.8c2.1 11-5.2 19.9-16.1 19.9z"/><path class="b" d="m2070.9 1718.9h-94.9c-10.9 0-21.6-8.9-23.7-19.9l-18.3-94.8c-2.1-11 5.1-20 16.1-20h94.8c11 0 21.7 9 23.8 20l18.3 94.8c2.1 11-5.2 19.9-16.1 19.9z"/><path class="g" d="m874.4 1718.9h-94.8c-11 0-21.7-8.9-23.8-19.9l-18.3-94.8c-2.1-11 5.1-20 16.1-20h94.8c11 0 21.7 9 23.8 20l18.3 94.8c2.1 11-5.1 19.9-16.1 19.9z"/><path class="g" d="m1113.7 1718.9h-94.8c-11 0-21.7-8.9-23.8-19.9l-18.3-94.8c-2.1-11 5.1-20 16.1-20h94.8c11 0 21.7 9 23.8 20l18.3 94.8c2.1 11-5.1 19.9-16.1 19.9z"/><path class="g" d="m1353 1718.9h-94.8c-11 0-21.7-8.9-23.8-19.9l-18.3-94.8c-2.1-11 5.1-20 16.1-20h94.8c11 0 21.7 9 23.8 20l18.3 94.8c2.1 11-5.1 19.9-16.1 19.9z"/><path class="g" d="m934 754.3h-251.3c-3.7 0-6.7-3.1-6.7-6.8 0-3.7 3-6.7 6.7-6.7h251.3c3.7 0 6.7 3 6.7 6.7 0 3.7-3 6.8-6.7 6.8z"/><path class="g" d="m941.6 784.7h-251.2c-3.7 0-6.8-3-6.8-6.8 0-3.7 3.1-6.7 6.8-6.7h251.2c3.7 0 6.7 3 6.7 6.7 0 3.8-3 6.8-6.7 6.8z"/><path class="h" d="m664.5 527.7h-86.2c-7.1 0-12.8-5.8-12.8-12.8 0-7.1 5.7-12.9 12.8-12.9h86.2c7.1 0 12.9 5.8 12.9 12.9 0 7-5.8 12.8-12.9 12.8z"/><path class="h" d="m901.1 527.7h-86.2c-7.1 0-12.9-5.8-12.9-12.8 0-7.1 5.8-12.9 12.9-12.9h86.2c7 0 12.8 5.8 12.8 12.9 0 7-5.8 12.8-12.8 12.8z"/><path class="h" d="m1137.6 527.7h-86.2c-7 0-12.8-5.8-12.8-12.8 0-7.1 5.8-12.9 12.8-12.9h86.2c7.1 0 12.9 5.8 12.9 12.9 0 7-5.8 12.8-12.9 12.8z"/><path class="h" d="m1374.2 527.7h-86.2c-7.1 0-12.9-5.8-12.9-12.8 0-7.1 5.8-12.9 12.9-12.9h86.2c7 0 12.8 5.8 12.8 12.9 0 7-5.8 12.8-12.8 12.8z"/><path class="h" d="m1610.7 527.7h-86.2c-7 0-12.8-5.8-12.8-12.8 0-7.1 5.8-12.9 12.8-12.9h86.2c7.1 0 12.9 5.8 12.9 12.9 0 7-5.8 12.8-12.9 12.8z"/><path class="h" d="m1847.3 527.7h-86.2c-7.1 0-12.9-5.8-12.9-12.8 0-7.1 5.8-12.9 12.9-12.9h86.2c7.1 0 12.8 5.8 12.8 12.9 0 7-5.7 12.8-12.8 12.8z"/><path class="h" d="m2083.9 527.7h-86.3c-7 0-12.8-5.8-12.8-12.8 0-7.1 5.8-12.9 12.8-12.9h86.3c7 0 12.8 5.8 12.8 12.9 0 7-5.8 12.8-12.8 12.8z"/></svg>