<svg version="1.2" xmlns="http://www.w3.org/2000/svg" viewBox="0 0 1000 1000" width="500" height="500"><style>tspan{white-space:pre}.a{fill:none;stroke:#011635;stroke-linecap:round;stroke-linejoin:round;stroke-width:2.4}.b{fill:#011635}.c{fill:#ff685b}.d{fill:#f05548}.e{fill:#011635;stroke:#011635;stroke-linecap:round;stroke-linejoin:round;stroke-width:2.4}.f{fill:#32e69e}.g{mix-blend-mode:soft-light;fill:#fff}.h{fill:#fd447d}.i{fill:#fff}.j{font-size: 18px;fill: #011635;font-weight: 700;font-family: "Antonio-Bold", "Antonio"}.k{opacity:.1;mix-blend-mode:multiply;fill:#013532}.l{fill:#dbe1e7}.m{fill:#ffe96b}.n{fill:#ffd666}</style><path class="a" d="m888.1 747.3c-2.8-2.9-8.6-1.5-9.8 2.3-1.2 3.8 2.6 8.3 6.6 7.6 3.9-0.6 6.6-6.5 3.2-9.9z"/><path class="a" d="m173.1 112c-2.9-2.9-8.6-1.5-9.8 2.3-1.3 3.8 2.6 8.3 6.5 7.6 4-0.6 6.7-6.5 3.3-9.9z"/><path class="a" d="m909.5 315c-2.8-2.8-8.5-1.4-9.7 2.4-1.3 3.8 2.6 8.3 6.5 7.6 4-0.7 6.6-6.5 3.2-10z"/><path class="a" d="m82.2 710.3q0.2 9.3 0.3 18.6"/><path class="a" d="m73.6 719.7q8.6-0.1 17.2-0.1"/><path class="a" d="m483 184.9q0.2 9.3 0.3 18.6"/><path class="a" d="m474.5 194.2q8.6 0 17.2 0"/><path class="a" d="m55.2 331.8l10.1 18.9"/><path class="a" d="m868.2 865.7l10.1 19"/><path class="a" d="m434.6 805.3l-16.7 13.5"/><path class="a" d="m567.7 71.7l-21.3 3.1"/><path class="a" d="m99.4 825.7l-21.3 3.1"/><path class="a" d="m944.7 382.7l-2.4 21.3"/><path class="a" d="m252.9 74.8l-2.4 21.4"/><path class="b" d="m464.4 313.1c-2.3 0-4.2-1.9-4.3-4.2 0-2.4 1.9-4.3 4.3-4.3 2.4 0 4.3 1.9 4.3 4.3 0 2.3-1.9 4.2-4.3 4.2z"/><path class="b" d="m857.5 88.6c-2.3 0-4.2-1.9-4.2-4.2-0.1-2.4 1.8-4.3 4.2-4.3 2.4 0 4.3 1.9 4.3 4.3 0 2.3-1.9 4.2-4.3 4.2z"/><path class="b" d="m828.8 745.3c-2.4 0-4.3-1.9-4.3-4.2 0-2.4 1.9-4.3 4.3-4.3 2.3 0 4.3 1.9 4.3 4.3 0 2.3-1.9 4.2-4.3 4.2z"/><path class="b" d="m359.9 939c-2.4 0-4.3-1.9-4.3-4.3 0-2.3 1.9-4.2 4.3-4.2 2.3 0 4.2 1.9 4.2 4.2 0 2.4-1.9 4.3-4.2 4.3z"/><path class="b" d="m208.8 719.4c-2.4 0-4.3-1.9-4.3-4.3 0-2.3 1.9-4.2 4.3-4.2 2.3 0 4.2 1.9 4.3 4.2 0 2.4-1.9 4.3-4.3 4.3z"/><path class="b" d="m81.5 199.2c-2.3 0-4.3-1.9-4.3-4.3 0-2.3 1.9-4.2 4.3-4.2 2.4 0 4.3 1.9 4.3 4.2 0 2.4-1.9 4.3-4.3 4.3z"/><path class="c" d="m558.8 999.9l189-0.4c10.1-70.5 2.2-143.7 19.8-212.9 3.2-12.9 7.4-25.6 12-38.1l-0.2-111.8-162.3 4.2c-12.2 39.2 9.2 80.3 12.1 121.3 5.7 83.2-65.2 155.1-70.4 237.7z"/><path class="d" d="m615.9 692.9c35.7 0.1 106.9-0.9 163.5-9.5v-46.7l-162.3 4.2c-5.3 17-4.3 34.4-1.2 52z"/><path class="e" d="m90.5 509.1c-0.7 47.4 3.4 89.1 14.1 132.2 3.2 12.9 14.5 22.1 27.8 22.6 248.1 10.3 495.2 11.7 743.9 6 14.3-0.4 26.5-10.9 28.8-25 9.4-59.1 16.5-119 14.8-178.7z"/><path class="f" d="m904.5 622.9c12.5-76 14.1-153.7 4.8-230.2-2.1-17.7-16.2-31.6-34-33.5-254.1-27.3-507-23.7-755.4 11.2-18.1 2.6-31.9 17.5-33 35.7-4.6 71.3-1.9 142 9.6 213.5 2.9 18.1 18.2 31.6 36.5 32.2 242.9 8.2 486.1 9.5 734.7 3.2 18.3-0.4 33.9-13.9 36.8-32.1z"/><path class="g" d="m166.2 388.2c-9.3-0.4-18.7-0.8-27.8 1.3-9 2.2-17.8 7.3-22.3 15.4-3.7 7-4 15.2-4 23.1q0.2 13.4 1.4 26.9c0.5 5 1.9 11.2 6.8 12.5 3 0.9 6.4-0.7 8.3-3.1 2-2.5 2.8-5.7 3.1-8.8 1-10.7-3.1-22.5 2.2-31.9 4.8-8.6 15.7-11.7 25.6-12.7 9.9-1 20.4-1 28.7-6.4 3.1-2 6-5.2 5.5-8.8-0.6-4.8-6.2-7.1-10.9-7.2-4.8-0.1-9.7 0-16.6-0.3z"/><path class="g" d="m222.3 403.7c-4.6 0.4-9.2-3.3-9.8-7.9-0.6-4.6 2.9-9.3 7.5-10 4.6-0.8 9.4 2.6 10.3 7.1 0.9 4.5-2.1 10.2-8 10.8z"/><path class="a" d="m909.5 621.9c12.5-76 14.1-153.7 4.8-230.2-2.1-17.7-16.2-31.6-34-33.5-254.1-27.3-507-23.7-755.4 11.2-18.1 2.6-31.9 17.5-33 35.7-4.6 71.3-1.9 142 9.6 213.5 2.9 18.1 18.2 31.6 36.5 32.2 242.9 8.2 486.1 9.5 734.7 3.2 18.3-0.4 33.9-13.9 36.8-32.1z"/><path class="h" d="m505.2 550l-32.6 17.2 6.2-36.3-26.4-25.6 36.4-5.4 16.2-33 16.3 33 36.4 5.2-26.2 25.7 6.2 36.3z"/><path class="i" d="m521.3 499.9l-13.3-26.8 0.2 78.5 29.5 15.5-6.2-36.3 26.2-25.7z"/><path class="a" d="m505.2 550l-32.6 17.2 6.2-36.3-26.4-25.6 36.4-5.4 16.2-33 16.3 33 36.4 5.2-26.2 25.7 6.2 36.3z"/><path class="h" d="m354.9 550.3l-32.5 17.2 6.1-36.3-26.4-25.6 36.4-5.4 16.2-33 16.4 33 36.4 5.2-26.3 25.7 6.3 36.2z"/><path class="a" d="m354.9 550.3l-32.5 17.2 6.1-36.3-26.4-25.6 36.4-5.4 16.2-33 16.4 33 36.4 5.2-26.3 25.7 6.3 36.2z"/><path class="h" d="m204.6 550.6l-32.5 17.1 6.1-36.2-26.3-25.6 36.3-5.4 16.3-33 16.3 32.9 36.4 5.3-26.3 25.7 6.3 36.2z"/><path class="a" d="m204.6 550.6l-32.5 17.1 6.1-36.2-26.3-25.6 36.3-5.4 16.3-33 16.3 32.9 36.4 5.3-26.3 25.7 6.3 36.2z"/><path class="i" d="m655.4 549.7l-32.5 17.2 6.2-36.3-26.4-25.6 36.4-5.3 16.2-33 16.3 32.9 36.4 5.2-26.3 25.7 6.3 36.3z"/><path class="a" d="m655.4 549.7l-32.5 17.2 6.2-36.3-26.4-25.6 36.4-5.3 16.2-33 16.3 32.9 36.4 5.2-26.3 25.7 6.3 36.3z"/><path class="i" d="m805.7 549.4l-32.5 17.2 6.1-36.2-26.3-25.7 36.3-5.3 16.3-33 16.3 32.9 36.4 5.2-26.3 25.8 6.3 36.2z"/><path class="a" d="m805.7 549.4l-32.5 17.2 6.1-36.2-26.3-25.7 36.3-5.3 16.3-33 16.3 32.9 36.4 5.2-26.3 25.8 6.3 36.2z"/><text style="transform:matrix(2,-0.004,.004,2,310.942,397.813)" ><tspan x="8.7" y="15.6" class="j" dx="0" >F</tspan><tspan  y="15.6" class="j" dx="0" >E</tspan><tspan  y="15.6" class="j" dx="0" >E</tspan><tspan  y="15.6" class="j" dx="0" >D</tspan><tspan  y="15.6" class="j" dx="0" >B</tspan><tspan  y="15.6" class="j" dx="0" >A</tspan><tspan  y="15.6" class="j" dx="0" >C</tspan><tspan  y="15.6" class="j" dx="0" >K</tspan><tspan  y="15.6" class="j" dx="0" > </tspan><tspan  y="15.6" class="j" dx="0" >C</tspan><tspan  y="15.6" class="j" dx="0" >O</tspan><tspan  y="15.6" class="j" dx="0" >M</tspan><tspan  y="15.6" class="j" dx="0" >M</tspan><tspan  y="15.6" class="j" dx="0" >I</tspan><tspan  y="15.6" class="j" dx="0" >T</tspan><tspan  y="15.6" class="j" dx="0" >T</tspan><tspan  y="15.6" class="j" dx="0" >E</tspan><tspan  y="15.6" class="j" dx="0 2" >E
</tspan></text><path class="k" d="m872.7 654c18.3-0.4 33.9-13.9 36.8-32.1 7-42.4 10.6-85.4 10.8-128.3-244.4 123.6-741.8 93.8-824 87.9q2.2 18.6 5.2 37.1c2.9 18.1 18.2 31.6 36.5 32.2 242.9 8.2 486.1 9.5 734.7 3.2z"/><path class="c" d="m672.2 710.6c22.3-23.1 57.2-39 88.6-33.6 10.7-20.4 13.4-24.2 27.5-42.4 5.9-7.6 15.6-15.8 24.1-11.1 8.2 4.6 6.7 16.7 3.7 25.7-12.5 37.9-22.7 61.9-36.5 99.3"/><path class="a" d="m672.2 710.6c22.3-23.1 57.2-39 88.6-33.6 10.7-20.4 13.4-24.2 27.5-42.4 5.9-7.6 15.6-15.8 24.1-11.1 8.2 4.6 6.7 16.7 3.7 25.7-12.5 37.9-22.7 61.9-36.5 99.3"/><path class="c" d="m445.5 628.1l-25.7-29.5c-5.8-5-15-9.4-22.6-9.9-7.7-0.5-15.5 1.7-21.7 6.3-7.3-5.8-16.9-7.3-25.9-5.7-9 1.7-17.5 6.6-23.4 13.5-20.3-4-36.9 9.6-45.3 25.6-8.4 16-10.8 34.4-15.3 51.9-23.9 94.7-139.4 196-168.7 320.5l194.6-0.4c17.1-45.7 28.3-102.7 45.6-144.3 20.4-49.4 46.4-97.9 86-133.9 12.3-11.2 26.2-21.6 33.2-36.6 8.9-18.9 4.3-43.2-10.8-57.5z"/><path class="d" d="m417.5 644.2c-0.2 1.2 4.6 37.5 4.6 37.5 17-8.8 29.7-22.5 36.7-31.1-2.4-8.5-6.9-16.4-13.3-22.5l-6.6-7.5c-11.2 11.4-21.2 22.7-21.4 23.6z"/><path class="c" d="m408.9 610c16.5-22.7 43.3-56.9 61.7-78 6.3-7.3 13-14.6 21.7-18.6 4.8-2.1 10.7-3.1 14.9-0.1 4 2.7 5.3 8.1 4.6 12.8-0.8 4.8-3.3 9-5.7 13.1q-42 71.2-84 142.5"/><path class="a" d="m408.9 610c16.5-22.7 43.3-56.9 61.7-78 6.3-7.3 13-14.6 21.7-18.6 4.8-2.1 10.7-3.1 14.9-0.1 4 2.7 5.3 8.1 4.6 12.8-0.8 4.8-3.3 9-5.7 13.1q-42 71.2-84 142.5"/><g style="opacity:.1;mix-blend-mode:multiply"><path class="e" d="m614.8 856.8c-4.6 0-8.2-3.7-8.3-8.3 0-4.5 3.7-8.2 8.3-8.2 4.5-0.1 8.2 3.6 8.2 8.2 0.1 4.6-3.6 8.3-8.2 8.3z"/><path class="e" d="m572.2 856.8c-4.6 0-8.3-3.6-8.3-8.2 0-4.6 3.7-8.3 8.3-8.3 4.5 0 8.2 3.7 8.2 8.3 0 4.5-3.6 8.2-8.2 8.2z"/><path class="e" d="m657.4 856.7c-4.5 0-8.2-3.7-8.2-8.3-0.1-4.5 3.6-8.2 8.2-8.2 4.6 0 8.2 3.6 8.3 8.2 0 4.6-3.7 8.3-8.3 8.3z"/></g><path class="e" d="m615.7 944.5l11.6-217.4c-42.5-12.2-93 3-120.6 37.5-1.2-3.1-2.6-6.2-4.5-8.5-6.4-7.8-18.1-13.5-18.1-13.5-1.9 1.7-2.9 2.6-4.8 4.2 6.8 9.5 13.2 19.3 19.7 28.9-21.2 35.2-21.8 82.4-0.3 117.6 23.5 38.4 72.7 59.1 117 51.2z"/><path class="i" d="m605.4 945.5c46.5-2.2 89.6-36.8 101.9-81.7 12.4-45.3-7.5-97-46.5-122.4-39-25.5-94.2-22.7-130.5 6.5q-4.3 3.5-8.2 7.4c-12.2-4.6-24.4-9.1-38-12.7 7.3 10.8 14.6 21.6 22.5 32.4-17.9 29.2-22.7 66.8-10.5 98.9 16.5 43.5 62.8 73.8 109.3 71.6z"/><path class="l" d="m705.9 868.5c-64.4 49.6-169.6 24.6-206.2 13.7 18.9 39 62.2 65.4 105.7 63.3 44.8-2.1 86.6-34.4 100.5-77z"/><path class="a" d="m605.4 945.5c46.5-2.2 89.6-36.8 101.9-81.7 12.4-45.3-7.5-97-46.5-122.4-39-25.5-94.2-22.7-130.5 6.5q-4.3 3.5-8.2 7.4c-12.2-4.6-24.4-9.1-38-12.7 7.3 10.8 14.6 21.6 22.5 32.4-17.9 29.2-22.7 66.8-10.5 98.9 16.5 43.5 62.8 73.8 109.3 71.6z"/><path class="e" d="m600.8 842.8c-4.6 0-8.3-3.7-8.3-8.3 0-4.5 3.7-8.2 8.3-8.2 4.5 0 8.2 3.7 8.2 8.2 0 4.6-3.7 8.3-8.2 8.3z"/><path class="e" d="m558.2 842.9c-4.6 0-8.3-3.7-8.3-8.3 0-4.5 3.7-8.2 8.2-8.2 4.6 0 8.3 3.6 8.3 8.2 0 4.6-3.7 8.3-8.2 8.3z"/><path class="e" d="m643.4 842.7c-4.6 0-8.3-3.7-8.3-8.2 0-4.6 3.7-8.3 8.3-8.3 4.5 0 8.2 3.7 8.2 8.2 0 4.6-3.6 8.3-8.2 8.3z"/><g style="opacity:.1;mix-blend-mode:multiply"><path class="e" d="m924.1 180.3l-315.3 12.5c-1.8 30.3-0.5 60.8 3.8 90.9 1.3 8.8 8.6 15.6 17.5 16.4q20.2 1.9 40.4 3.3c3.5 8.9 8.8 20.4 14.9 29.3l8.2-2.2-2.1-25.8c71.5 3.9 143.1 2.9 215.6-3.6 10.2-0.9 18-9.3 17.9-19.4z"/><path class="b" d="m921.8 153.2c-1.1-11.1-10.1-19.8-21.3-21-89-8.8-178.2-9.8-266.9-3.5-11.5 0.8-20.6 9.6-22 21-4.8 39.8-4 79.7 0.7 120.8 1.2 11.2 10.2 20.1 21.5 21.1q20.8 1.8 41.6 3.1c5 11.6 10.4 23.3 18.2 35.8 4.8-11.1 8.7-22.5 11.8-34.2 65.9 3 131.9 2.2 197.7-2.5 12.1-0.9 21.6-10.6 22.1-22.7 1.4-39.2 0.7-78.7-3.4-117.9z"/><path class="b" d="m925.2 271.1c0.6-16.3 0.8-32.7 0.5-49-17.7 14.9-57.2 40.9-122.6 48.8-73.3 8.9-158.7-4.9-192-11.3q0.6 5.4 1.2 10.9c1.2 11.2 10.2 20.1 21.5 21.1q20.8 1.8 41.6 3.1c5 11.6 10.4 23.3 18.2 35.8 4.8-11.1 8.7-22.5 11.8-34.2 65.9 3 131.9 2.2 197.7-2.5 12.1-0.9 21.6-10.6 22.1-22.7z"/><path class="a" d="m921.8 153.2c-1.1-11.1-10.1-19.8-21.3-21-89-8.8-178.2-9.8-266.9-3.5-11.5 0.8-20.6 9.6-22 21-4.8 39.8-4 79.7 0.7 120.8 1.2 11.2 10.2 20.1 21.5 21.1q20.8 1.8 41.6 3.1c5 11.6 10.4 23.3 18.2 35.8 4.8-11.1 8.7-22.5 11.8-34.2 65.9 3 131.9 2.2 197.7-2.5 12.1-0.9 21.6-10.6 22.1-22.7 1.4-39.2 0.7-78.7-3.4-117.9z"/><path class="a" d="m745.4 189.7q72.5 0.8 145.1 1.6"/><path class="a" d="m742.9 217.8q74.8 0.4 149.6 0.9"/><path class="a" d="m743.4 246q22.2 0 44.3-0.1"/><path class="b" d="m699.5 178.8c16.4 13.1 19.6 39.8 6.8 56.3-12.9 16.5-39.5 20-56.2 7.3-16.7-12.7-20.4-39.3-7.9-56.1 12.5-16.8 39.6-21.4 57.3-7.5z"/><path class="b" d="m663 191.7c-2.8 8 5.5 17.6 13.8 16 8.4-1.6 12.6-13.6 7-20.1-5.7-6.4-18-4-20.8 4.1z"/><path class="b" d="m650.1 242.4c15.7 12 40.4 9.6 53.9-4.7-4.4-10.1-14.3-17.9-25.3-18.9-13.4-1.3-27 7.3-32 20.7q1.6 1.6 3.4 2.9z"/><path class="a" d="m699.5 178.8c16.4 13.1 19.6 39.8 6.8 56.3-12.9 16.5-39.5 20-56.2 7.3-16.7-12.7-20.4-39.3-7.9-56.1 12.5-16.8 39.6-21.4 57.3-7.5z"/></g><path class="e" d="m910.1 166.3l-315.3 12.5c-1.8 30.3-0.5 60.8 3.8 90.9 1.3 8.8 8.5 15.6 17.5 16.5q20.2 1.9 40.4 3.2c3.5 8.9 8.8 20.4 14.9 29.3l8.2-2.1-2.1-25.9c71.4 4 143.1 2.9 215.6-3.6 10.2-0.9 17.9-9.3 17.9-19.3z"/><path class="m" d="m907.8 139.3c-1.2-11.2-10.1-19.9-21.3-21-89-8.9-178.3-9.9-267-3.6-11.4 0.8-20.6 9.6-21.9 21-4.8 39.8-4 79.7 0.6 120.8 1.3 11.3 10.3 20.1 21.6 21.1q20.8 1.8 41.6 3.1c5 11.6 10.3 23.3 18.2 35.9 4.7-11.1 8.7-22.6 11.8-34.2 65.9 3 131.9 2.1 197.7-2.6 12.1-0.8 21.6-10.6 22-22.7 1.4-39.2 0.8-78.7-3.3-117.8z"/><path class="n" d="m911.1 257.1c0.6-16.3 0.8-32.6 0.6-49-17.8 14.9-57.2 41-122.6 48.8-73.3 8.9-158.7-4.9-192-11.2q0.5 5.4 1.1 10.8c1.3 11.3 10.3 20.1 21.6 21.1q20.8 1.8 41.6 3.1c5 11.6 10.3 23.3 18.2 35.9 4.7-11.1 8.7-22.6 11.8-34.2 65.9 3 131.9 2.1 197.7-2.6 12.1-0.8 21.6-10.6 22-22.7z"/><path class="a" d="m907.8 139.3c-1.2-11.2-10.1-19.9-21.3-21-89-8.9-178.3-9.9-267-3.6-11.4 0.8-20.6 9.6-21.9 21-4.8 39.8-4 79.7 0.6 120.8 1.3 11.3 10.3 20.1 21.6 21.1q20.8 1.8 41.6 3.1c5 11.6 10.3 23.3 18.2 35.9 4.7-11.1 8.7-22.6 11.8-34.2 65.9 3 131.9 2.1 197.7-2.6 12.1-0.8 21.6-10.6 22-22.7 1.4-39.2 0.8-78.7-3.3-117.8z"/><path class="a" d="m731.3 175.7q72.6 0.8 145.2 1.6"/><path class="a" d="m728.9 203.8q74.8 0.5 149.6 0.9"/><path class="a" d="m729.4 232.1q22.1-0.1 44.3-0.2"/><path class="i" d="m685.4 164.9c16.5 13 19.7 39.7 6.8 56.2-12.8 16.6-39.5 20.1-56.1 7.4-16.7-12.7-20.4-39.4-7.9-56.1 12.5-16.8 39.6-21.5 57.2-7.5z"/><path class="b" d="m648.9 177.7c-2.7 8 5.5 17.6 13.9 16 8.4-1.6 12.6-13.6 6.9-20.1-5.6-6.4-18-4-20.8 4.1z"/><path class="b" d="m636.1 228.5c15.7 12 40.4 9.5 53.9-4.8-4.4-10-14.3-17.8-25.3-18.9-13.4-1.3-27 7.4-32 20.7q1.6 1.6 3.4 3z"/><path class="a" d="m685.4 164.9c16.5 13 19.7 39.7 6.8 56.2-12.8 16.6-39.5 20.1-56.1 7.4-16.7-12.7-20.4-39.4-7.9-56.1 12.5-16.8 39.6-21.5 57.2-7.5z"/></svg>