<svg version="1.2" xmlns="http://www.w3.org/2000/svg" viewBox="0 0 1000 1000" width="500" height="500"><defs><linearGradient id="P" gradientUnits="userSpaceOnUse"/><linearGradient id="g1" x2="1" href="#P" gradientTransform="matrix(0,89.523,-182.325,0,613.747,788.078)"><stop stop-color="#fff"/><stop offset="1" stop-color="#d17918"/></linearGradient><linearGradient id="g2" x2="1" href="#P" gradientTransform="matrix(0,89.52,-182.325,0,613.747,743.23)"><stop stop-color="#fff"/><stop offset="1" stop-color="#d17918"/></linearGradient><linearGradient id="g3" x2="1" href="#P" gradientTransform="matrix(0,89.523,-182.325,0,613.747,698.378)"><stop stop-color="#fff"/><stop offset="1" stop-color="#d17918"/></linearGradient><linearGradient id="g4" x2="1" href="#P" gradientTransform="matrix(0,89.523,-182.325,0,900.885,701.955)"><stop stop-color="#fff"/><stop offset="1" stop-color="#d17918"/></linearGradient><linearGradient id="g5" x2="1" href="#P" gradientTransform="matrix(0,89.52,-182.325,0,900.885,657.107)"><stop stop-color="#fff"/><stop offset="1" stop-color="#d17918"/></linearGradient><linearGradient id="g6" x2="1" href="#P" gradientTransform="matrix(0,89.523,-182.325,0,900.885,612.255)"><stop stop-color="#fff"/><stop offset="1" stop-color="#d17918"/></linearGradient><linearGradient id="g7" x2="1" href="#P" gradientTransform="matrix(0,89.522,-182.325,0,900.885,567.407)"><stop stop-color="#fff"/><stop offset="1" stop-color="#d17918"/></linearGradient><linearGradient id="g8" x2="1" href="#P" gradientTransform="matrix(0,89.523,-182.325,0,900.885,522.558)"><stop stop-color="#fff"/><stop offset="1" stop-color="#d17918"/></linearGradient><linearGradient id="g9" x2="1" href="#P" gradientTransform="matrix(0,89.523,-182.325,0,795.48,837.491)"><stop stop-color="#fff"/><stop offset="1" stop-color="#d17918"/></linearGradient><linearGradient id="g10" x2="1" href="#P" gradientTransform="matrix(0,89.52,-182.325,0,795.48,792.643)"><stop stop-color="#fff"/><stop offset="1" stop-color="#d17918"/></linearGradient><linearGradient id="g11" x2="1" href="#P" gradientTransform="matrix(0,89.523,-182.325,0,795.48,747.792)"><stop stop-color="#fff"/><stop offset="1" stop-color="#d17918"/></linearGradient><linearGradient id="g12" x2="1" href="#P" gradientTransform="matrix(0,89.523,-182.325,0,795.48,702.943)"><stop stop-color="#fff"/><stop offset="1" stop-color="#d17918"/></linearGradient><linearGradient id="g13" x2="1" href="#P" gradientTransform="matrix(0,89.523,-182.325,0,795.48,658.094)"><stop stop-color="#fff"/><stop offset="1" stop-color="#d17918"/></linearGradient><linearGradient id="g14" x2="1" href="#P" gradientTransform="matrix(83.226,32.981,-67.172,169.503,400.231,723.275)"><stop stop-color="#fff"/><stop offset="1" stop-color="#d17918"/></linearGradient><linearGradient id="g15" x2="1" href="#P" gradientTransform="matrix(-83.226,32.981,-67.172,-169.503,903.891,792.904)"><stop stop-color="#fff"/><stop offset="1" stop-color="#d17918"/></linearGradient></defs><style>.a{opacity:.6;mix-blend-mode:multiply;fill:#ccc}.b{fill:#e8c47b}.c{fill:#dab873}.d{fill:#ff931e}.e{fill:#d17918}.f{opacity:.4;mix-blend-mode:multiply;fill:url(#g1)}.g{fill:#ffc022}.h{opacity:.4;mix-blend-mode:multiply;fill:url(#g2)}.i{opacity:.4;mix-blend-mode:multiply;fill:url(#g3)}.j{opacity:.4;mix-blend-mode:multiply;fill:url(#g4)}.k{opacity:.4;mix-blend-mode:multiply;fill:url(#g5)}.l{opacity:.4;mix-blend-mode:multiply;fill:url(#g6)}.m{opacity:.4;mix-blend-mode:multiply;fill:url(#g7)}.n{opacity:.4;mix-blend-mode:multiply;fill:url(#g8)}.o{opacity:.4;mix-blend-mode:multiply;fill:url(#g9)}.p{opacity:.4;mix-blend-mode:multiply;fill:url(#g10)}.q{opacity:.4;mix-blend-mode:multiply;fill:url(#g11)}.r{opacity:.4;mix-blend-mode:multiply;fill:url(#g12)}.s{opacity:.4;mix-blend-mode:multiply;fill:url(#g13)}.t{opacity:.4;mix-blend-mode:multiply;fill:url(#g14)}.u{opacity:.4;mix-blend-mode:multiply;fill:url(#g15)}.v{fill:#fff}.w{fill:#534741}.x{fill:#bf6e17}.y{opacity:.8;mix-blend-mode:multiply;fill:#b3b3b3}</style><path class="a" d="m346.1 871.4c-164.9 0-298.1-26.4-298.1-59.1 0-32.7 133.2-59.1 298.1-59.1 164.8 0 298 26.4 298 59.1 0 32.7-133.2 59.1-298 59.1z"/><path class="b" d="m844.8 615.9c0 0-52.1-263.8-248-380.4h-140c-195.9 116.6-247.9 380.4-247.9 380.4-57.3 306.7 298.6 267.7 298.6 267.7h38.6c0 0 356 39 298.7-267.7z"/><path class="c" d="m844.8 615.9c0 0-52.1-263.8-248-380.4h-77.8c133.1 117.1 170.4 306.4 170.4 306.4 52.4 280.2-272.7 244.5-272.7 244.5h-35.3c0 0-84.8 9.3-160.8-18.9 65.5 140.3 286.9 116.1 286.9 116.1h38.6c0 0 356 39 298.7-267.7z"/><path class="b" d="m314.7 64c-7.2-9.6-18.7-30.1-6.2-39.7 16.2-12.4 48.1 0.8 64.6 5.4 21.6 6 45.5 11.4 69.2 9 23.2-2.5 49.6-15.3 70.1-23.7 20.9-8.5 42.8-23.7 67.7-16 26 8.1 36.3 30.9 66.4 33.7 52.8 5 84-42.4 133.6-37.3 25.8 2.6 22.8 18.7 8.4 29.7l-191.7 210.4h-140z"/><path class="a" d="m704.3 963.2c-64.5 0-116.6-20.1-116.6-44.9 0-24.8 52.1-44.8 116.6-44.8 64.5 0 116.6 20 116.6 44.8 0 24.8-52.1 44.9-116.6 44.9z"/><path class="a" d="m826.7 826.5c-64.5 0-116.6-20-116.6-44.8 0-24.8 52.1-44.9 116.6-44.9 64.5 0 116.6 20.1 116.6 44.9 0 24.8-52.1 44.8-116.6 44.8z"/><path class="a" d="m812.4 914.9c-64.3-2.2-117.2 16.1-118 40.9-0.9 24.7 50.6 46.6 115 48.7 64.4 2.2 117.2-16.1 118.1-40.8 0.8-24.8-50.7-46.6-115.1-48.8z"/><path class="a" d="m482.7 840.7c64.4-2.1 117.2 16.2 118.1 40.9 0.8 24.8-50.7 46.6-115.1 48.8-64.4 2.2-117.2-16.2-118.1-40.9-0.8-24.8 50.7-46.6 115.1-48.8z"/><path class="d" d="m431.4 853.9c0 24.8 52.2 44.9 116.6 44.9 64.4 0 116.7-20.1 116.7-44.9v-21.2h-233.3z"/><path class="e" d="m536.9 843.6v55q5.5 0.2 11.1 0.2v-55.2z"/><path class="e" d="m514.5 843.6v53.3q9 1 18.6 1.5v-54.8z"/><path class="e" d="m509.8 896.3v-63.5h-78.4v21.1c0 19.7 32.8 36.3 78.4 42.4z"/><path class="e" d="m589.6 843.6v52.2q1.9-0.2 3.8-0.5v-51.7z"/><path class="e" d="m575.1 897.6q1.9-0.2 3.8-0.4v-53.6h-3.8z"/><path class="e" d="m556.7 843.6v55q2.8 0 5.5-0.2v-54.8z"/><path class="d" d="m548 877.6c-64.4 0-116.6-20-116.6-44.8 0-24.9 52.2-44.9 116.6-44.9 64.5 0 116.7 20 116.7 44.9 0 24.8-52.2 44.8-116.7 44.8z"/><path class="f" d="m613.7 869.8q-4.9 0.2-10 0.2c-64.4 0-116.6-20.1-116.6-44.9 0-15.4 20.2-28.9 50.9-37-59.7 1.9-106.6 21.2-106.6 44.6 0 24.8 52.2 44.9 116.6 44.9 24.4 0 47-2.9 65.7-7.8z"/><path fill-rule="evenodd" class="e" d="m548 877.6c-63.2 0-114.6-19.3-116.5-43.5 1.9-24.1 53.3-43.4 116.5-43.4 63.2 0 114.6 19.3 116.6 43.4-2 24.2-53.4 43.5-116.6 43.5zm95-42.1c0-20.2-42.5-36.5-95-36.5-52.5 0-94.9 16.3-94.9 36.5 0 20.2 42.4 36.5 94.9 36.5 52.5 0 95-16.3 95-36.5z"/><path class="e" d="m537.5 826.5l-45.1 13v9l46.1-14.2c4.6 3.7 11.2 6.4 19.6 8.3q1.1 0.2 2.1 0.4v8h16.8v-6.1c3.6 0.1 7 0.1 10 0.1v6h16.7v-24.1h-16.7v11.7c-2.8 0.1-6.3 0.1-10-0.2v-11.5h-16.8v8.2c-4-1.5-7.4-3.7-9.7-6.8z"/><path fill-rule="evenodd" class="g" d="m548 877.6c-64.4 0-116.6-20-116.6-44.8 0-24.9 52.2-44.9 116.6-44.9 64.5 0 116.7 20 116.7 44.9 0 24.8-52.2 44.8-116.7 44.8zm95-44.9c0-20.1-42.5-36.5-95-36.5-52.5 0-94.9 16.4-94.9 36.5 0 20.2 42.4 36.6 94.9 36.6 52.5 0 95-16.4 95-36.6z"/><path fill-rule="evenodd" class="g" d="m548 864.4c-45.5 0-82.3-14.1-82.3-31.6 0-17.6 36.8-31.7 82.3-31.7 45.6 0 82.4 14.1 82.4 31.7 0 17.5-36.8 31.6-82.4 31.6zm78.8-31.6c0-16.8-35.2-30.3-78.8-30.3-43.5 0-78.7 13.5-78.7 30.3 0 16.7 35.2 30.2 78.7 30.2 43.6 0 78.8-13.5 78.8-30.2z"/><path class="g" d="m537.5 820.5l-45.1 13v9l46.1-14.3c4.6 3.7 11.2 6.5 19.6 8.4q1.1 0.2 2.1 0.4v8h16.8v-6.2c3.6 0.2 7 0.2 10 0.1v6.1h16.7v-24.1h-16.7v11.6c-2.8 0.1-6.3 0.1-10-0.1v-11.5h-16.8v8.2c-4-1.6-7.4-3.8-9.7-6.9z"/><path class="d" d="m431.4 809.1c0 24.8 52.2 44.8 116.6 44.8 64.4 0 116.7-20 116.7-44.8v-21.2h-233.3z"/><path class="e" d="m536.9 798.8v54.9q5.5 0.2 11.1 0.2v-55.1z"/><path class="e" d="m514.5 798.8v53.2q9 1.1 18.6 1.6v-54.8z"/><path class="e" d="m509.8 851.5v-63.5h-78.4v21.1c0 19.6 32.8 36.3 78.4 42.4z"/><path class="e" d="m589.6 798.8v52.2q1.9-0.3 3.8-0.6v-51.6z"/><path class="e" d="m575.1 852.7q1.9-0.2 3.8-0.4v-53.5h-3.8z"/><path class="e" d="m556.7 798.8v55q2.8-0.1 5.5-0.2v-54.8z"/><path class="d" d="m548 832.7c-64.4 0-116.6-20-116.6-44.8 0-24.8 52.2-44.8 116.6-44.8 64.5 0 116.7 20 116.7 44.8 0 24.8-52.2 44.8-116.7 44.8z"/><path class="h" d="m613.7 825q-4.9 0.1-10 0.1c-64.4 0-116.6-20-116.6-44.8 0-15.4 20.2-29 50.9-37.1-59.7 2-106.6 21.2-106.6 44.7 0 24.8 52.2 44.8 116.6 44.8 24.4 0 47-2.8 65.7-7.7z"/><path fill-rule="evenodd" class="e" d="m548 832.7c-63.2 0-114.6-19.3-116.5-43.4 1.9-24.1 53.3-43.5 116.5-43.5 63.2 0 114.6 19.4 116.6 43.5-2 24.1-53.4 43.4-116.6 43.4zm95-42c0-20.2-42.5-36.5-95-36.5-52.5 0-94.9 16.3-94.9 36.5 0 20.2 42.4 36.5 94.9 36.5 52.5 0 95-16.3 95-36.5z"/><path class="e" d="m537.5 781.7l-45.1 12.9v9l46.1-14.2c4.6 3.7 11.2 6.5 19.6 8.3q1.1 0.3 2.1 0.4v8.1h16.8v-6.2c3.6 0.2 7 0.2 10 0.1v6.1h16.7v-24.1h-16.7v11.6c-2.8 0.1-6.3 0.1-10-0.1v-11.5h-16.8v8.2c-4-1.6-7.4-3.8-9.7-6.9z"/><path fill-rule="evenodd" class="g" d="m548 832.7c-64.4 0-116.6-20-116.6-44.8 0-24.8 52.2-44.8 116.6-44.8 64.5 0 116.7 20 116.7 44.8 0 24.8-52.2 44.8-116.7 44.8zm95-44.8c0-20.2-42.5-36.5-95-36.5-52.5 0-94.9 16.3-94.9 36.5 0 20.2 42.4 36.5 94.9 36.5 52.5 0 95-16.3 95-36.5z"/><path fill-rule="evenodd" class="g" d="m548 819.6c-45.5 0-82.3-14.2-82.3-31.7 0-17.5 36.8-31.7 82.3-31.7 45.6 0 82.4 14.2 82.4 31.7 0 17.5-36.8 31.7-82.4 31.7zm78.8-31.7c0-16.8-35.2-30.3-78.8-30.3-43.5 0-78.7 13.5-78.7 30.3 0 16.8 35.2 30.3 78.7 30.3 43.6 0 78.8-13.5 78.8-30.3z"/><path class="g" d="m537.5 775.6l-45.1 13v9l46.1-14.2c4.6 3.7 11.2 6.5 19.6 8.3q1.1 0.2 2.1 0.4v8.1h16.8v-6.2c3.6 0.1 7 0.2 10 0.1v6.1h16.7v-24.2h-16.7v11.7c-2.8 0.1-6.3 0.1-10-0.2v-11.5h-16.8v8.2c-4-1.5-7.4-3.7-9.7-6.8z"/><path class="d" d="m431.4 764.2c0 24.8 52.2 44.9 116.6 44.9 64.4 0 116.7-20.1 116.7-44.9v-21.1h-233.3z"/><path class="e" d="m536.9 753.9v55q5.5 0.2 11.1 0.2v-55.2z"/><path class="e" d="m514.5 753.9v53.3q9 1 18.6 1.5v-54.8z"/><path class="e" d="m509.8 806.6v-63.5h-78.4v21.1c0 19.7 32.8 36.3 78.4 42.4z"/><path class="e" d="m589.6 753.9v52.2q1.9-0.2 3.8-0.5v-51.7z"/><path class="e" d="m575.1 807.9q1.9-0.2 3.8-0.4v-53.6h-3.8z"/><path class="e" d="m556.7 753.9v55q2.8 0 5.5-0.2v-54.8z"/><path class="d" d="m548 787.9c-64.4 0-116.6-20-116.6-44.8 0-24.8 52.2-44.9 116.6-44.9 64.5 0 116.7 20.1 116.7 44.9 0 24.8-52.2 44.8-116.7 44.8z"/><path class="i" d="m613.7 780.1q-4.9 0.2-10 0.2c-64.4 0-116.6-20.1-116.6-44.9 0-15.4 20.2-28.9 50.9-37-59.7 1.9-106.6 21.2-106.6 44.7 0 24.7 52.2 44.8 116.6 44.8 24.4 0 47-2.9 65.7-7.8z"/><path fill-rule="evenodd" class="e" d="m548 787.9c-63.2 0-114.6-19.3-116.5-43.5 1.9-24.1 53.3-43.4 116.5-43.4 63.2 0 114.6 19.3 116.6 43.4-2 24.2-53.4 43.5-116.6 43.5zm95-42.1c0-20.2-42.5-36.5-95-36.5-52.5 0-94.9 16.3-94.9 36.5 0 20.2 42.4 36.5 94.9 36.5 52.5 0 95-16.3 95-36.5z"/><path class="e" d="m537.5 736.8l-45.1 13v9l46.1-14.2c4.6 3.7 11.2 6.4 19.6 8.3q1.1 0.2 2.1 0.4v8h16.8v-6.1c3.6 0.1 7 0.1 10 0.1v6h16.7v-24.1h-16.7v11.7c-2.8 0.1-6.3 0.1-10-0.2v-11.5h-16.8v8.2c-4-1.5-7.4-3.7-9.7-6.8z"/><path fill-rule="evenodd" class="g" d="m548 787.9c-64.4 0-116.6-20-116.6-44.8 0-24.8 52.2-44.9 116.6-44.9 64.5 0 116.7 20.1 116.7 44.9 0 24.8-52.2 44.8-116.7 44.8zm95-44.8c0-20.2-42.5-36.6-95-36.6-52.5 0-94.9 16.4-94.9 36.6 0 20.1 42.4 36.5 94.9 36.5 52.5 0 95-16.4 95-36.5z"/><path fill-rule="evenodd" class="g" d="m548 774.7c-45.5 0-82.3-14.1-82.3-31.6 0-17.6 36.8-31.7 82.3-31.7 45.6 0 82.4 14.1 82.4 31.7 0 17.5-36.8 31.6-82.4 31.6zm78.8-31.6c0-16.8-35.2-30.3-78.8-30.3-43.5 0-78.7 13.5-78.7 30.3 0 16.7 35.2 30.2 78.7 30.2 43.6 0 78.8-13.5 78.8-30.2z"/><path class="g" d="m537.5 730.8l-45.1 13v9l46.1-14.3c4.6 3.7 11.2 6.5 19.6 8.4q1.1 0.2 2.1 0.4v8h16.8v-6.2c3.6 0.2 7 0.2 10 0.1v6.1h16.7v-24.1h-16.7v11.6c-2.8 0.1-6.3 0.1-10-0.1v-11.5h-16.8v8.2c-4-1.6-7.4-3.8-9.7-6.9z"/><path class="d" d="m718.6 767.8c0 24.8 52.2 44.9 116.6 44.9 64.4 0 116.6-20.1 116.6-44.9v-21.2h-233.2z"/><path class="e" d="m824.1 757.5v55q5.5 0.2 11.1 0.2v-55.2z"/><path class="e" d="m801.6 757.5v53.3q9 1 18.6 1.5v-54.8z"/><path class="e" d="m797 810.2v-63.5h-78.4v21.1c0 19.6 32.7 36.3 78.4 42.4z"/><path class="e" d="m876.7 757.5v52.2q1.9-0.3 3.8-0.6v-51.6z"/><path class="e" d="m862.2 811.4q1.9-0.1 3.8-0.3v-53.6h-3.8z"/><path class="e" d="m843.8 757.5v55q2.8-0.1 5.6-0.2v-54.8z"/><path class="d" d="m835.2 791.5c-64.5 0-116.6-20.1-116.6-44.9 0-24.8 52.1-44.8 116.6-44.8 64.5 0 116.6 20 116.6 44.8 0 24.8-52.1 44.9-116.6 44.9z"/><path class="j" d="m900.9 783.7q-5 0.1-10 0.2c-64.5 0-116.7-20.1-116.7-44.9 0-15.4 20.2-29 50.9-37-59.7 1.9-106.5 21.2-106.5 44.6 0 24.8 52.2 44.9 116.6 44.9 24.4 0 47-2.9 65.7-7.8z"/><path fill-rule="evenodd" class="e" d="m835.2 791.5c-63.2 0-114.6-19.4-116.5-43.5 1.9-24.1 53.3-43.4 116.5-43.4 63.2 0 114.6 19.3 116.5 43.4-1.9 24.1-53.3 43.5-116.5 43.5zm94.9-42.1c0-20.2-42.4-36.5-94.9-36.5-52.5 0-94.9 16.3-94.9 36.5 0 20.2 42.4 36.5 94.9 36.5 52.5 0 94.9-16.3 94.9-36.5z"/><path class="e" d="m824.6 740.4l-45.1 13v9l46.2-14.3c4.5 3.7 11.1 6.5 19.6 8.4q1 0.2 2.1 0.4v8h16.7v-6.2c3.7 0.2 7.1 0.2 10 0.2v6h16.8v-24.1h-16.8v11.6c-2.8 0.1-6.3 0.1-10-0.1v-11.5h-16.7v8.2c-4-1.5-7.5-3.8-9.7-6.9z"/><path fill-rule="evenodd" class="g" d="m835.2 791.5c-64.5 0-116.6-20.1-116.6-44.9 0-24.8 52.1-44.8 116.6-44.8 64.5 0 116.6 20 116.6 44.8 0 24.8-52.1 44.9-116.6 44.9zm94.9-44.9c0-20.2-42.4-36.5-94.9-36.5-52.5 0-94.9 16.3-94.9 36.5 0 20.2 42.4 36.5 94.9 36.5 52.5 0 94.9-16.3 94.9-36.5z"/><path fill-rule="evenodd" class="g" d="m835.2 778.3c-45.6 0-82.4-14.2-82.4-31.7 0-17.5 36.8-31.7 82.4-31.7 45.5 0 82.4 14.2 82.4 31.7 0 17.5-36.9 31.7-82.4 31.7zm78.7-31.7c0-16.7-35.2-30.3-78.7-30.3-43.6 0-78.8 13.6-78.8 30.3 0 16.8 35.2 30.3 78.8 30.3 43.5 0 78.7-13.5 78.7-30.3z"/><path class="g" d="m824.6 734.4l-45.1 12.9v9l46.2-14.2c4.5 3.7 11.1 6.5 19.6 8.3q1 0.3 2.1 0.4v8.1h16.7v-6.2c3.7 0.2 7.1 0.2 10 0.1v6.1h16.8v-24.1h-16.8v11.6c-2.8 0.1-6.3 0.1-10-0.1v-11.5h-16.7v8.2c-4-1.6-7.5-3.8-9.7-6.9z"/><path class="d" d="m718.6 723c0 24.7 52.2 44.8 116.6 44.8 64.4 0 116.6-20.1 116.6-44.8v-21.2h-233.2z"/><path class="e" d="m824.1 712.7v54.9q5.5 0.2 11.1 0.2v-55.1z"/><path class="e" d="m801.6 712.7v53.2q9 1.1 18.6 1.5v-54.7z"/><path class="e" d="m797 765.3v-63.4h-78.4v21.1c0 19.6 32.7 36.3 78.4 42.3z"/><path class="e" d="m876.7 712.7v52.2q1.9-0.3 3.8-0.6v-51.6z"/><path class="e" d="m862.2 766.6q1.9-0.2 3.8-0.4v-53.5h-3.8z"/><path class="e" d="m843.8 712.7v55q2.8-0.1 5.6-0.2v-54.8z"/><path class="d" d="m835.2 746.6c-64.5 0-116.6-20-116.6-44.8 0-24.8 52.1-44.9 116.6-44.9 64.5 0 116.6 20.1 116.6 44.9 0 24.8-52.1 44.8-116.6 44.8z"/><path class="k" d="m900.9 738.8q-5 0.2-10 0.2c-64.5 0-116.7-20.1-116.7-44.8 0-15.4 20.2-29 50.9-37.1-59.7 2-106.5 21.2-106.5 44.7 0 24.7 52.2 44.8 116.6 44.8 24.4 0 47-2.9 65.7-7.8z"/><path fill-rule="evenodd" class="e" d="m835.2 746.6c-63.2 0-114.6-19.3-116.5-43.4 1.9-24.2 53.3-43.5 116.5-43.5 63.2 0 114.6 19.3 116.5 43.5-1.9 24.1-53.3 43.4-116.5 43.4zm94.9-42c0-20.2-42.4-36.5-94.9-36.5-52.5 0-94.9 16.3-94.9 36.5 0 20.2 42.4 36.5 94.9 36.5 52.5 0 94.9-16.3 94.9-36.5z"/><path class="e" d="m824.6 695.6l-45.1 12.9v9l46.2-14.2c4.5 3.7 11.1 6.5 19.6 8.3q1 0.2 2.1 0.4v8.1h16.7v-6.2c3.7 0.1 7.1 0.2 10 0.1v6.1h16.8v-24.2h-16.8v11.7c-2.8 0.1-6.3 0.1-10-0.1v-11.6h-16.7v8.3c-4-1.6-7.5-3.8-9.7-6.9z"/><path fill-rule="evenodd" class="g" d="m835.2 746.6c-64.5 0-116.6-20-116.6-44.8 0-24.8 52.1-44.9 116.6-44.9 64.5 0 116.6 20.1 116.6 44.9 0 24.8-52.1 44.8-116.6 44.8zm94.9-44.8c0-20.2-42.4-36.5-94.9-36.5-52.5 0-94.9 16.3-94.9 36.5 0 20.2 42.4 36.5 94.9 36.5 52.5 0 94.9-16.3 94.9-36.5z"/><path fill-rule="evenodd" class="g" d="m835.2 733.5c-45.6 0-82.4-14.2-82.4-31.7 0-17.5 36.8-31.7 82.4-31.7 45.5 0 82.4 14.2 82.4 31.7 0 17.5-36.9 31.7-82.4 31.7zm78.7-31.7c0-16.8-35.2-30.3-78.7-30.3-43.6 0-78.8 13.5-78.8 30.3 0 16.7 35.2 30.3 78.8 30.3 43.5 0 78.7-13.6 78.7-30.3z"/><path class="g" d="m824.6 689.5l-45.1 13v9l46.2-14.2c4.5 3.7 11.1 6.4 19.6 8.3q1 0.2 2.1 0.4v8h16.7v-6.1c3.7 0.1 7.1 0.1 10 0.1v6h16.8v-24.1h-16.8v11.7c-2.8 0.1-6.3 0.1-10-0.2v-11.5h-16.7v8.2c-4-1.5-7.5-3.7-9.7-6.9z"/><path class="d" d="m718.6 678.1c0 24.8 52.2 44.9 116.6 44.9 64.4 0 116.6-20.1 116.6-44.9v-21.2h-233.2z"/><path class="e" d="m824.1 667.8v55q5.5 0.2 11.1 0.2v-55.2z"/><path class="e" d="m801.6 667.8v53.3q9 1 18.6 1.5v-54.8z"/><path class="e" d="m797 720.5v-63.5h-78.4v21.1c0 19.6 32.7 36.3 78.4 42.4z"/><path class="e" d="m876.7 667.8v52.2q1.9-0.3 3.8-0.5v-51.7z"/><path class="e" d="m862.2 721.7q1.9-0.1 3.8-0.3v-53.6h-3.8z"/><path class="e" d="m843.8 667.8v55q2.8-0.1 5.6-0.2v-54.8z"/><path class="d" d="m835.2 701.8c-64.5 0-116.6-20.1-116.6-44.9 0-24.8 52.1-44.8 116.6-44.8 64.5 0 116.6 20 116.6 44.8 0 24.8-52.1 44.9-116.6 44.9z"/><path class="l" d="m900.9 694q-5 0.1-10 0.2c-64.5 0-116.7-20.1-116.7-44.9 0-15.4 20.2-29 50.9-37-59.7 1.9-106.5 21.2-106.5 44.6 0 24.8 52.2 44.9 116.6 44.9 24.4 0 47-2.9 65.7-7.8z"/><path fill-rule="evenodd" class="e" d="m835.2 701.8c-63.2 0-114.6-19.4-116.5-43.5 1.9-24.1 53.3-43.4 116.5-43.4 63.2 0 114.6 19.3 116.5 43.4-1.9 24.1-53.3 43.5-116.5 43.5zm94.9-42.1c0-20.2-42.4-36.5-94.9-36.5-52.5 0-94.9 16.3-94.9 36.5 0 20.2 42.4 36.5 94.9 36.5 52.5 0 94.9-16.3 94.9-36.5z"/><path class="e" d="m824.6 650.7l-45.1 13v9l46.2-14.3c4.5 3.7 11.1 6.5 19.6 8.4q1 0.2 2.1 0.4v8h16.7v-6.2c3.7 0.2 7.1 0.2 10 0.2v6h16.8v-24.1h-16.8v11.6c-2.8 0.1-6.3 0.1-10-0.1v-11.5h-16.7v8.2c-4-1.5-7.5-3.8-9.7-6.9z"/><path fill-rule="evenodd" class="g" d="m835.2 701.8c-64.5 0-116.6-20.1-116.6-44.9 0-24.8 52.1-44.8 116.6-44.8 64.5 0 116.6 20 116.6 44.8 0 24.8-52.1 44.9-116.6 44.9zm94.9-44.9c0-20.2-42.4-36.5-94.9-36.5-52.5 0-94.9 16.3-94.9 36.5 0 20.2 42.4 36.5 94.9 36.5 52.5 0 94.9-16.3 94.9-36.5z"/><path fill-rule="evenodd" class="g" d="m835.2 688.6c-45.6 0-82.4-14.2-82.4-31.7 0-17.5 36.8-31.7 82.4-31.7 45.5 0 82.4 14.2 82.4 31.7 0 17.5-36.9 31.7-82.4 31.7zm78.7-31.7c0-16.7-35.2-30.3-78.7-30.3-43.6 0-78.8 13.6-78.8 30.3 0 16.8 35.2 30.3 78.8 30.3 43.5 0 78.7-13.5 78.7-30.3z"/><path class="g" d="m824.6 644.7l-45.1 12.9v9l46.2-14.2c4.5 3.7 11.1 6.5 19.6 8.3q1 0.2 2.1 0.4v8.1h16.7v-6.2c3.7 0.2 7.1 0.2 10 0.1v6.1h16.8v-24.1h-16.8v11.6c-2.8 0.1-6.3 0.1-10-0.1v-11.5h-16.7v8.2c-4-1.6-7.5-3.8-9.7-6.9z"/><path class="d" d="m718.6 633.3c0 24.7 52.2 44.8 116.6 44.8 64.4 0 116.6-20.1 116.6-44.8v-21.2h-233.2z"/><path class="e" d="m824.1 623v54.9q5.5 0.2 11.1 0.2v-55.1z"/><path class="e" d="m801.6 623v53.2q9 1.1 18.6 1.5v-54.7z"/><path class="e" d="m797 675.6v-63.4h-78.4v21.1c0 19.6 32.7 36.3 78.4 42.3z"/><path class="e" d="m876.7 623v52.2q1.9-0.3 3.8-0.6v-51.6z"/><path class="e" d="m862.2 676.9q1.9-0.2 3.8-0.4v-53.5h-3.8z"/><path class="e" d="m843.8 623v55q2.8-0.1 5.6-0.2v-54.8z"/><path class="d" d="m835.2 656.9c-64.5 0-116.6-20-116.6-44.8 0-24.8 52.1-44.9 116.6-44.9 64.5 0 116.6 20.1 116.6 44.9 0 24.8-52.1 44.8-116.6 44.8z"/><path class="m" d="m900.9 649.1q-5 0.2-10 0.2c-64.5 0-116.7-20.1-116.7-44.8 0-15.4 20.2-29 50.9-37.1-59.7 2-106.5 21.2-106.5 44.7 0 24.7 52.2 44.8 116.6 44.8 24.4 0 47-2.9 65.7-7.8z"/><path fill-rule="evenodd" class="e" d="m835.2 656.9c-63.2 0-114.6-19.3-116.5-43.4 1.9-24.2 53.3-43.5 116.5-43.5 63.2 0 114.6 19.3 116.5 43.5-1.9 24.1-53.3 43.4-116.5 43.4zm94.9-42c0-20.2-42.4-36.5-94.9-36.5-52.5 0-94.9 16.3-94.9 36.5 0 20.2 42.4 36.5 94.9 36.5 52.5 0 94.9-16.3 94.9-36.5z"/><path class="e" d="m824.6 605.9l-45.1 12.9v9l46.2-14.2c4.5 3.7 11.1 6.5 19.6 8.3q1 0.2 2.1 0.4v8.1h16.7v-6.2c3.7 0.1 7.1 0.2 10 0.1v6.1h16.8v-24.2h-16.8v11.7c-2.8 0.1-6.3 0.1-10-0.1v-11.6h-16.7v8.3c-4-1.6-7.5-3.8-9.7-6.9z"/><path fill-rule="evenodd" class="g" d="m835.2 656.9c-64.5 0-116.6-20-116.6-44.8 0-24.8 52.1-44.9 116.6-44.9 64.5 0 116.6 20.1 116.6 44.9 0 24.8-52.1 44.8-116.6 44.8zm94.9-44.8c0-20.2-42.4-36.5-94.9-36.5-52.5 0-94.9 16.3-94.9 36.5 0 20.2 42.4 36.5 94.9 36.5 52.5 0 94.9-16.3 94.9-36.5z"/><path fill-rule="evenodd" class="g" d="m835.2 643.8c-45.6 0-82.4-14.2-82.4-31.7 0-17.5 36.8-31.7 82.4-31.7 45.5 0 82.4 14.2 82.4 31.7 0 17.5-36.9 31.7-82.4 31.7zm78.7-31.7c0-16.8-35.2-30.3-78.7-30.3-43.6 0-78.8 13.5-78.8 30.3 0 16.7 35.2 30.3 78.8 30.3 43.5 0 78.7-13.6 78.7-30.3z"/><path class="g" d="m824.6 599.8l-45.1 13v9l46.2-14.2c4.5 3.7 11.1 6.4 19.6 8.3q1 0.2 2.1 0.4v8h16.7v-6.1c3.7 0.1 7.1 0.1 10 0.1v6h16.8v-24.1h-16.8v11.7c-2.8 0.1-6.3 0.1-10-0.2v-11.5h-16.7v8.2c-4-1.5-7.5-3.7-9.7-6.9z"/><path class="d" d="m718.6 588.4c0 24.8 52.2 44.9 116.6 44.9 64.4 0 116.6-20.1 116.6-44.9v-21.2h-233.2z"/><path class="e" d="m824.1 578.1v55q5.5 0.2 11.1 0.2v-55.2z"/><path class="e" d="m801.6 578.1v53.3q9 1 18.6 1.5v-54.8z"/><path class="e" d="m797 630.8v-63.5h-78.4v21.1c0 19.6 32.7 36.3 78.4 42.4z"/><path class="e" d="m876.7 578.1v52.2q1.9-0.3 3.8-0.5v-51.7z"/><path class="e" d="m862.2 632q1.9-0.1 3.8-0.3v-53.6h-3.8z"/><path class="e" d="m843.8 578.1v55q2.8-0.1 5.6-0.2v-54.8z"/><path class="d" d="m835.2 612.1c-64.5 0-116.6-20.1-116.6-44.9 0-24.8 52.1-44.8 116.6-44.8 64.5 0 116.6 20 116.6 44.8 0 24.8-52.1 44.9-116.6 44.9z"/><path class="n" d="m900.9 604.3q-5 0.2-10 0.2c-64.5 0-116.7-20.1-116.7-44.9 0-15.4 20.2-29 50.9-37-59.7 1.9-106.5 21.2-106.5 44.6 0 24.8 52.2 44.9 116.6 44.9 24.4 0 47-2.9 65.7-7.8z"/><path fill-rule="evenodd" class="e" d="m835.2 612.1c-63.2 0-114.6-19.4-116.5-43.5 1.9-24.1 53.3-43.4 116.5-43.4 63.2 0 114.6 19.3 116.5 43.4-1.9 24.1-53.3 43.5-116.5 43.5zm94.9-42.1c0-20.2-42.4-36.5-94.9-36.5-52.5 0-94.9 16.3-94.9 36.5 0 20.2 42.4 36.5 94.9 36.5 52.5 0 94.9-16.3 94.9-36.5z"/><path class="e" d="m824.6 561l-45.1 13v9l46.2-14.3c4.5 3.7 11.1 6.5 19.6 8.4q1 0.2 2.1 0.4v8h16.7v-6.2c3.7 0.2 7.1 0.2 10 0.2v6h16.8v-24.1h-16.8v11.6c-2.8 0.1-6.3 0.1-10-0.1v-11.5h-16.7v8.2c-4-1.5-7.5-3.8-9.7-6.9z"/><path fill-rule="evenodd" class="g" d="m835.2 612.1c-64.5 0-116.6-20.1-116.6-44.9 0-24.8 52.1-44.8 116.6-44.8 64.5 0 116.6 20 116.6 44.8 0 24.8-52.1 44.9-116.6 44.9zm94.9-44.9c0-20.2-42.4-36.5-94.9-36.5-52.5 0-94.9 16.3-94.9 36.5 0 20.2 42.4 36.5 94.9 36.5 52.5 0 94.9-16.3 94.9-36.5z"/><path fill-rule="evenodd" class="g" d="m835.2 598.9c-45.6 0-82.4-14.1-82.4-31.7 0-17.5 36.8-31.7 82.4-31.7 45.5 0 82.4 14.2 82.4 31.7 0 17.6-36.9 31.7-82.4 31.7zm78.7-31.7c0-16.7-35.2-30.3-78.7-30.3-43.6 0-78.8 13.6-78.8 30.3 0 16.8 35.2 30.3 78.8 30.3 43.5 0 78.7-13.5 78.7-30.3z"/><path class="g" d="m824.6 555l-45.1 12.9v9l46.2-14.2c4.5 3.7 11.1 6.5 19.6 8.3q1 0.3 2.1 0.4v8.1h16.7v-6.2c3.7 0.2 7.1 0.2 10 0.1v6.1h16.8v-24.1h-16.8v11.6c-2.8 0.1-6.3 0.1-10-0.1v-11.5h-16.7v8.2c-4-1.6-7.5-3.8-9.7-6.9z"/><path class="d" d="m613.2 903.4c0 24.7 52.2 44.8 116.6 44.8 64.4 0 116.6-20.1 116.6-44.8v-21.2h-233.2z"/><path class="e" d="m718.7 893.1v54.9q5.5 0.2 11.1 0.2v-55.1z"/><path class="e" d="m696.2 893.1v53.2q9 1 18.6 1.5v-54.7z"/><path class="e" d="m691.6 945.7v-63.4h-78.4v21.1c0 19.6 32.7 36.2 78.4 42.3z"/><path class="e" d="m771.3 893.1v52.2q1.9-0.3 3.8-0.6v-51.6z"/><path class="e" d="m756.8 947q1.9-0.2 3.8-0.4v-53.5h-3.8z"/><path class="e" d="m738.4 893.1v55q2.8-0.1 5.6-0.2v-54.8z"/><path class="d" d="m729.8 927c-64.5 0-116.6-20-116.6-44.8 0-24.8 52.1-44.9 116.6-44.9 64.5 0 116.6 20.1 116.6 44.9 0 24.8-52.1 44.8-116.6 44.8z"/><path class="o" d="m795.5 919.2q-5 0.2-10 0.2c-64.5 0-116.7-20.1-116.7-44.9 0-15.4 20.2-28.9 50.9-37-59.7 1.9-106.5 21.2-106.5 44.7 0 24.7 52.2 44.8 116.6 44.8 24.3 0 47-2.9 65.7-7.8z"/><path fill-rule="evenodd" class="e" d="m729.8 927c-63.2 0-114.6-19.3-116.6-43.4 2-24.2 53.4-43.5 116.6-43.5 63.2 0 114.6 19.3 116.5 43.5-1.9 24.1-53.3 43.4-116.5 43.4zm94.9-42.1c0-20.1-42.4-36.5-94.9-36.5-52.5 0-95 16.4-95 36.5 0 20.2 42.5 36.6 95 36.6 52.5 0 94.9-16.4 94.9-36.6z"/><path class="e" d="m719.2 875.9l-45.1 13v9l46.2-14.2c4.5 3.7 11.1 6.5 19.6 8.3q1 0.2 2.1 0.4v8h16.7v-6.1c3.7 0.1 7.1 0.1 10 0.1v6h16.8v-24.1h-16.8v11.7c-2.8 0.1-6.3 0.1-10-0.2v-11.5h-16.7v8.2c-4-1.5-7.5-3.7-9.7-6.8z"/><path fill-rule="evenodd" class="g" d="m729.8 927c-64.5 0-116.6-20-116.6-44.8 0-24.8 52.1-44.9 116.6-44.9 64.5 0 116.6 20.1 116.6 44.9 0 24.8-52.1 44.8-116.6 44.8zm94.9-44.8c0-20.2-42.4-36.5-94.9-36.5-52.5 0-95 16.3-95 36.5 0 20.2 42.5 36.5 95 36.5 52.5 0 94.9-16.3 94.9-36.5z"/><path fill-rule="evenodd" class="g" d="m729.8 913.8c-45.6 0-82.4-14.1-82.4-31.6 0-17.6 36.8-31.7 82.4-31.7 45.5 0 82.4 14.1 82.4 31.7 0 17.5-36.9 31.6-82.4 31.6zm78.7-31.6c0-16.8-35.2-30.3-78.7-30.3-43.6 0-78.8 13.5-78.8 30.3 0 16.7 35.2 30.3 78.8 30.3 43.5 0 78.7-13.6 78.7-30.3z"/><path class="g" d="m719.2 869.9l-45.1 13v9l46.2-14.3c4.5 3.7 11.1 6.5 19.6 8.4q1 0.2 2.1 0.4v8h16.7v-6.2c3.7 0.2 7.1 0.2 10 0.2v6h16.8v-24.1h-16.8v11.6c-2.8 0.1-6.3 0.1-10-0.1v-11.5h-16.7v8.2c-4-1.5-7.5-3.8-9.7-6.9z"/><path class="d" d="m613.2 858.5c0 24.8 52.2 44.9 116.6 44.9 64.4 0 116.6-20.1 116.6-44.9v-21.2h-233.2z"/><path class="e" d="m718.7 848.2v54.9q5.5 0.2 11.1 0.3v-55.2z"/><path class="e" d="m696.2 848.2v53.2q9 1.1 18.6 1.6v-54.8z"/><path class="e" d="m691.6 900.9v-63.5h-78.4v21.1c0 19.6 32.7 36.3 78.4 42.4z"/><path class="e" d="m771.3 848.2v52.2q1.9-0.3 3.8-0.6v-51.6z"/><path class="e" d="m756.8 902.1q1.9-0.1 3.8-0.3v-53.6h-3.8z"/><path class="e" d="m738.4 848.2v55q2.8-0.1 5.6-0.2v-54.8z"/><path class="d" d="m729.8 882.2c-64.5 0-116.6-20.1-116.6-44.9 0-24.8 52.1-44.8 116.6-44.8 64.5 0 116.6 20 116.6 44.8 0 24.8-52.1 44.9-116.6 44.9z"/><path class="p" d="m795.5 874.4q-5 0.1-10 0.1c-64.5 0-116.7-20-116.7-44.8 0-15.4 20.2-29 50.9-37.1-59.7 2-106.5 21.2-106.5 44.7 0 24.8 52.2 44.9 116.6 44.9 24.3 0 47-2.9 65.7-7.8z"/><path fill-rule="evenodd" class="e" d="m729.8 882.2c-63.2 0-114.6-19.4-116.6-43.5 2-24.1 53.4-43.5 116.6-43.5 63.2 0 114.6 19.4 116.5 43.5-1.9 24.1-53.3 43.5-116.5 43.5zm94.9-42.1c0-20.2-42.4-36.5-94.9-36.5-52.5 0-95 16.3-95 36.5 0 20.2 42.5 36.5 95 36.5 52.5 0 94.9-16.3 94.9-36.5z"/><path class="e" d="m719.2 831.1l-45.1 13v9l46.2-14.3c4.5 3.7 11.1 6.5 19.6 8.4q1 0.2 2.1 0.4v8h16.7v-6.2c3.7 0.2 7.1 0.2 10 0.1v6.1h16.8v-24.1h-16.8v11.6c-2.8 0.1-6.3 0.1-10-0.1v-11.5h-16.7v8.2c-4-1.6-7.5-3.8-9.7-6.9z"/><path fill-rule="evenodd" class="g" d="m729.8 882.2c-64.5 0-116.6-20.1-116.6-44.9 0-24.8 52.1-44.8 116.6-44.8 64.5 0 116.6 20 116.6 44.8 0 24.8-52.1 44.9-116.6 44.9zm94.9-44.9c0-20.2-42.4-36.5-94.9-36.5-52.5 0-95 16.3-95 36.5 0 20.2 42.5 36.5 95 36.5 52.5 0 94.9-16.3 94.9-36.5z"/><path fill-rule="evenodd" class="g" d="m729.8 869c-45.6 0-82.4-14.2-82.4-31.7 0-17.5 36.8-31.7 82.4-31.7 45.5 0 82.4 14.2 82.4 31.7 0 17.5-36.9 31.7-82.4 31.7zm78.7-31.7c0-16.7-35.2-30.3-78.7-30.3-43.6 0-78.8 13.6-78.8 30.3 0 16.8 35.2 30.3 78.8 30.3 43.5 0 78.7-13.5 78.7-30.3z"/><path class="g" d="m719.2 825.1l-45.1 12.9v9l46.2-14.2c4.5 3.7 11.1 6.5 19.6 8.3q1 0.2 2.1 0.4v8.1h16.7v-6.2c3.7 0.1 7.1 0.2 10 0.1v6.1h16.8v-24.2h-16.8v11.7c-2.8 0.1-6.3 0.1-10-0.1v-11.6h-16.7v8.3c-4-1.6-7.5-3.8-9.7-6.9z"/><path class="d" d="m613.2 813.7c0 24.7 52.2 44.8 116.6 44.8 64.4 0 116.6-20.1 116.6-44.8v-21.2h-233.2z"/><path class="e" d="m718.7 803.4v54.9q5.5 0.2 11.1 0.2v-55.1z"/><path class="e" d="m696.2 803.4v53.2q9 1.1 18.6 1.5v-54.7z"/><path class="e" d="m691.6 856v-63.4h-78.4v21.1c0 19.6 32.7 36.2 78.4 42.3z"/><path class="e" d="m771.3 803.4v52.2q1.9-0.3 3.8-0.6v-51.6z"/><path class="e" d="m756.8 857.3q1.9-0.2 3.8-0.4v-53.5h-3.8z"/><path class="e" d="m738.4 803.4v55q2.8-0.1 5.6-0.2v-54.8z"/><path class="d" d="m729.8 837.3c-64.5 0-116.6-20-116.6-44.8 0-24.8 52.1-44.9 116.6-44.9 64.5 0 116.6 20.1 116.6 44.9 0 24.8-52.1 44.8-116.6 44.8z"/><path class="q" d="m795.5 829.5q-5 0.2-10 0.2c-64.5 0-116.7-20.1-116.7-44.9 0-15.4 20.2-28.9 50.9-37-59.7 1.9-106.5 21.2-106.5 44.7 0 24.7 52.2 44.8 116.6 44.8 24.3 0 47-2.9 65.7-7.8z"/><path fill-rule="evenodd" class="e" d="m729.8 837.3c-63.2 0-114.6-19.3-116.6-43.4 2-24.2 53.4-43.5 116.6-43.5 63.2 0 114.6 19.3 116.5 43.5-1.9 24.1-53.3 43.4-116.5 43.4zm94.9-42.1c0-20.1-42.4-36.5-94.9-36.5-52.5 0-95 16.4-95 36.5 0 20.2 42.5 36.6 95 36.6 52.5 0 94.9-16.4 94.9-36.6z"/><path class="e" d="m719.2 786.2l-45.1 13v9l46.2-14.2c4.5 3.7 11.1 6.5 19.6 8.3q1 0.2 2.1 0.4v8h16.7v-6.1c3.7 0.1 7.1 0.1 10 0.1v6h16.8v-24.1h-16.8v11.7c-2.8 0.1-6.3 0.1-10-0.2v-11.5h-16.7v8.2c-4-1.5-7.5-3.7-9.7-6.8z"/><path fill-rule="evenodd" class="g" d="m729.8 837.3c-64.5 0-116.6-20-116.6-44.8 0-24.8 52.1-44.9 116.6-44.9 64.5 0 116.6 20.1 116.6 44.9 0 24.8-52.1 44.8-116.6 44.8zm94.9-44.8c0-20.2-42.4-36.5-94.9-36.5-52.5 0-95 16.3-95 36.5 0 20.2 42.5 36.5 95 36.5 52.5 0 94.9-16.3 94.9-36.5z"/><path fill-rule="evenodd" class="g" d="m729.8 824.1c-45.6 0-82.4-14.1-82.4-31.6 0-17.6 36.8-31.7 82.4-31.7 45.5 0 82.4 14.1 82.4 31.7 0 17.5-36.9 31.6-82.4 31.6zm78.7-31.6c0-16.8-35.2-30.3-78.7-30.3-43.6 0-78.8 13.5-78.8 30.3 0 16.7 35.2 30.3 78.8 30.3 43.5 0 78.7-13.6 78.7-30.3z"/><path class="g" d="m719.2 780.2l-45.1 13v9l46.2-14.3c4.5 3.7 11.1 6.5 19.6 8.4q1 0.2 2.1 0.4v8h16.7v-6.2c3.7 0.2 7.1 0.2 10 0.2v6h16.8v-24.1h-16.8v11.6c-2.8 0.1-6.3 0.1-10-0.1v-11.5h-16.7v8.2c-4-1.5-7.5-3.7-9.7-6.9z"/><path class="d" d="m613.2 768.8c0 24.8 52.2 44.9 116.6 44.9 64.4 0 116.6-20.1 116.6-44.9v-21.2h-233.2z"/><path class="e" d="m718.7 758.5v54.9q5.5 0.2 11.1 0.3v-55.2z"/><path class="e" d="m696.2 758.5v53.3q9 1 18.6 1.5v-54.8z"/><path class="e" d="m691.6 811.2v-63.5h-78.4v21.1c0 19.6 32.7 36.3 78.4 42.4z"/><path class="e" d="m771.3 758.5v52.2q1.9-0.3 3.8-0.6v-51.6z"/><path class="e" d="m756.8 812.4q1.9-0.1 3.8-0.3v-53.6h-3.8z"/><path class="e" d="m738.4 758.5v55q2.8-0.1 5.6-0.2v-54.8z"/><path class="d" d="m729.8 792.5c-64.5 0-116.6-20.1-116.6-44.9 0-24.8 52.1-44.8 116.6-44.8 64.5 0 116.6 20 116.6 44.8 0 24.8-52.1 44.9-116.6 44.9z"/><path class="r" d="m795.5 784.7q-5 0.1-10 0.1c-64.5 0-116.7-20-116.7-44.8 0-15.4 20.2-29 50.9-37.1-59.7 2-106.5 21.2-106.5 44.7 0 24.8 52.2 44.9 116.6 44.9 24.3 0 47-2.9 65.7-7.8z"/><path fill-rule="evenodd" class="e" d="m729.8 792.5c-63.2 0-114.6-19.4-116.6-43.5 2-24.1 53.4-43.5 116.6-43.5 63.2 0 114.6 19.4 116.5 43.5-1.9 24.1-53.3 43.5-116.5 43.5zm94.9-42.1c0-20.2-42.4-36.5-94.9-36.5-52.5 0-95 16.3-95 36.5 0 20.2 42.5 36.5 95 36.5 52.5 0 94.9-16.3 94.9-36.5z"/><path class="e" d="m719.2 741.4l-45.1 13v9l46.2-14.3c4.5 3.7 11.1 6.5 19.6 8.4q1 0.2 2.1 0.4v8h16.7v-6.2c3.7 0.2 7.1 0.2 10 0.1v6.1h16.8v-24.1h-16.8v11.6c-2.8 0.1-6.3 0.1-10-0.1v-11.5h-16.7v8.2c-4-1.6-7.5-3.8-9.7-6.9z"/><path fill-rule="evenodd" class="g" d="m729.8 792.5c-64.5 0-116.6-20.1-116.6-44.9 0-24.8 52.1-44.8 116.6-44.8 64.5 0 116.6 20 116.6 44.8 0 24.8-52.1 44.9-116.6 44.9zm94.9-44.9c0-20.2-42.4-36.5-94.9-36.5-52.5 0-95 16.3-95 36.5 0 20.2 42.5 36.5 95 36.5 52.5 0 94.9-16.3 94.9-36.5z"/><path fill-rule="evenodd" class="g" d="m729.8 779.3c-45.6 0-82.4-14.2-82.4-31.7 0-17.5 36.8-31.7 82.4-31.7 45.5 0 82.4 14.2 82.4 31.7 0 17.5-36.9 31.7-82.4 31.7zm78.7-31.7c0-16.7-35.2-30.3-78.7-30.3-43.6 0-78.8 13.6-78.8 30.3 0 16.8 35.2 30.3 78.8 30.3 43.5 0 78.7-13.5 78.7-30.3z"/><path class="g" d="m719.2 735.4l-45.1 12.9v9l46.2-14.2c4.5 3.7 11.1 6.5 19.6 8.3q1 0.2 2.1 0.4v8.1h16.7v-6.2c3.7 0.1 7.1 0.2 10 0.1v6.1h16.8v-24.2h-16.8v11.7c-2.8 0.1-6.3 0.1-10-0.1v-11.6h-16.7v8.3c-4-1.6-7.5-3.8-9.7-6.9z"/><path class="d" d="m613.2 724c0 24.7 52.2 44.8 116.6 44.8 64.4 0 116.6-20.1 116.6-44.8v-21.2h-233.2z"/><path class="e" d="m718.7 713.7v54.9q5.5 0.2 11.1 0.2v-55.1z"/><path class="e" d="m696.2 713.7v53.2q9 1.1 18.6 1.5v-54.7z"/><path class="e" d="m691.6 766.3v-63.4h-78.4v21.1c0 19.6 32.7 36.2 78.4 42.3z"/><path class="e" d="m771.3 713.7v52.2q1.9-0.3 3.8-0.6v-51.6z"/><path class="e" d="m756.8 767.6q1.9-0.2 3.8-0.4v-53.5h-3.8z"/><path class="e" d="m738.4 713.7v55q2.8-0.1 5.6-0.2v-54.8z"/><path class="d" d="m729.8 747.6c-64.5 0-116.6-20-116.6-44.8 0-24.8 52.1-44.9 116.6-44.9 64.5 0 116.6 20.1 116.6 44.9 0 24.8-52.1 44.8-116.6 44.8z"/><path class="s" d="m795.5 739.8q-5 0.2-10 0.2c-64.5 0-116.7-20.1-116.7-44.9 0-15.4 20.2-28.9 50.9-37-59.7 1.9-106.5 21.2-106.5 44.7 0 24.7 52.2 44.8 116.6 44.8 24.3 0 47-2.9 65.7-7.8z"/><path fill-rule="evenodd" class="e" d="m729.8 747.6c-63.2 0-114.6-19.3-116.6-43.4 2-24.2 53.4-43.5 116.6-43.5 63.2 0 114.6 19.3 116.5 43.5-1.9 24.1-53.3 43.4-116.5 43.4zm94.9-42c0-20.2-42.4-36.6-94.9-36.6-52.5 0-95 16.4-95 36.6 0 20.1 42.5 36.5 95 36.5 52.5 0 94.9-16.4 94.9-36.5z"/><path class="e" d="m719.2 696.5l-45.1 13v9l46.2-14.2c4.5 3.7 11.1 6.5 19.6 8.3q1 0.2 2.1 0.4v8.1h16.7v-6.2c3.7 0.1 7.1 0.1 10 0.1v6.1h16.8v-24.2h-16.8v11.7c-2.8 0.1-6.3 0.1-10-0.2v-11.5h-16.7v8.2c-4-1.5-7.5-3.7-9.7-6.8z"/><path fill-rule="evenodd" class="g" d="m729.8 747.6c-64.5 0-116.6-20-116.6-44.8 0-24.8 52.1-44.9 116.6-44.9 64.5 0 116.6 20.1 116.6 44.9 0 24.8-52.1 44.8-116.6 44.8zm94.9-44.8c0-20.2-42.4-36.5-94.9-36.5-52.5 0-95 16.3-95 36.5 0 20.2 42.5 36.5 95 36.5 52.5 0 94.9-16.3 94.9-36.5z"/><path fill-rule="evenodd" class="g" d="m729.8 734.4c-45.6 0-82.4-14.1-82.4-31.6 0-17.6 36.8-31.7 82.4-31.7 45.5 0 82.4 14.1 82.4 31.7 0 17.5-36.9 31.6-82.4 31.6zm78.7-31.6c0-16.8-35.2-30.3-78.7-30.3-43.6 0-78.8 13.5-78.8 30.3 0 16.7 35.2 30.3 78.8 30.3 43.5 0 78.7-13.6 78.7-30.3z"/><path class="g" d="m719.2 690.5l-45.1 13v9l46.2-14.3c4.5 3.7 11.1 6.5 19.6 8.4q1 0.2 2.1 0.4v8h16.7v-6.2c3.7 0.2 7.1 0.2 10 0.2v6h16.8v-24.1h-16.8v11.6c-2.8 0.1-6.3 0.1-10-0.1v-11.5h-16.7v8.2c-4-1.5-7.5-3.7-9.7-6.9z"/><path class="a" d="m487.7 713.3c-17.5-4.3-39.2 18.8-55.6 55.7q0 0.1 0 0.2 0.2 0.7 0.5 1.4 0.1 0.3 0.2 0.6 0.4 1 1 2 0.1 0.2 0.2 0.4 0.4 0.8 0.9 1.6 0.3 0.4 0.5 0.7 0.1 0.1 0.1 0.2-0.3 0.4-0.6 0.9-0.3 0.5-0.7 1.1-0.3 0.5-0.5 1-0.3 0.6-0.6 1.2-0.2 0.5-0.4 0.9-0.2 0.7-0.4 1.4-0.2 0.4-0.3 0.8-0.2 0.8-0.3 1.5-0.1 0.4-0.1 0.8-0.2 1.1-0.2 2.2v0.1 21.1q0 1 0.2 2.1 0 0.3 0.1 0.6 0.1 0.8 0.2 1.5 0.1 0.4 0.2 0.7 0.2 0.7 0.5 1.5 0.1 0.3 0.2 0.6 0.4 1 1 2 0.1 0.1 0.2 0.3 0.4 0.8 0.9 1.6 0.3 0.4 0.5 0.8 0.1 0 0.1 0.1-0.3 0.5-0.6 0.9-0.3 0.6-0.7 1.2-0.3 0.5-0.5 0.9-0.3 0.6-0.6 1.3-0.2 0.4-0.4 0.9-0.2 0.6-0.4 1.3-0.2 0.4-0.3 0.9-0.2 0.7-0.3 1.5-0.1 0.3-0.1 0.7-0.2 1.1-0.2 2.2v0.1 21.1q0 1.1 0.2 2.1 0 0.4 0.1 0.7 0.1 0.7 0.2 1.5 0.1 0.3 0.2 0.7 0.2 0.7 0.5 1.4 0.1 0.3 0.2 0.6 0.4 1 1 2 0.1 0.2 0.2 0.4 0.4 0.8 0.9 1.6 0.3 0.4 0.5 0.7 0.5 0.6 1 1.3 0.2 0.3 0.6 0.7 0.5 0.6 1.1 1.3 0.3 0.3 0.6 0.6 0.8 0.9 1.8 1.8 0.3 0.3 0.7 0.6 0.7 0.6 1.4 1.2 0.5 0.4 1 0.8 0.6 0.4 1.2 0.9 0.6 0.4 1.2 0.8 0.7 0.5 1.4 1 0.5 0.4 1.2 0.7 1.2 0.8 2.4 1.5 0.8 0.5 1.6 0.9 0.6 0.3 1.3 0.7 0.8 0.4 1.7 0.9 0.6 0.3 1.2 0.6 1 0.4 2 0.9 0.5 0.2 1 0.4 3.7 1.7 7.8 3.2 0.4 0.1 0.8 0.3 1.3 0.5 2.7 0.9 0.4 0.2 0.8 0.3c3.8 1.3 7.9 2.4 12.2 3.5 7.6-15.5 14.3-34 19.3-54.2 15.3-62.5 8.3-118-15.7-123.9z"/><path class="d" d="m394.3 917c23 9.2 60.9-32 84.6-91.9 23.8-59.8 24.3-115.8 1.3-124.9l-19.7-7.8-85.9 216.8z"/><path class="e" d="m423.6 815.1l51.1 20.3q2.2-5 4.2-10.3l-51.2-20.3z"/><path class="e" d="m415.3 836.1l49.5 19.6q4.3-8.1 8.3-16.8l-50.9-20.2z"/><path class="e" d="m462.6 859.7l-59-23.3-28.9 72.9 19.6 7.7c18.2 7.3 45.8-17.1 68.3-57.3z"/><path class="e" d="m443 766.2l48.5 19.2q0.5-1.8 0.9-3.7l-48-19z"/><path class="e" d="m487.8 799.6q0.5-1.9 1-3.7l-49.8-19.7-1.4 3.5z"/><path class="e" d="m430.9 796.8l51.1 20.3q1-2.7 1.9-5.3l-51-20.2z"/><path class="d" d="m459.2 817.3c-23.7 59.9-61.6 101.1-84.6 91.9-23-9.1-22.5-65 1.3-124.9 23.7-59.9 61.6-101 84.6-91.9 23 9.1 22.5 65.1-1.3 124.9z"/><path class="t" d="m476.2 753.4q-1.7 4.7-3.5 9.4c-23.8 59.8-61.7 101-84.7 91.9-14.3-5.7-19.5-29.5-15.7-61-20.2 56.2-19.5 106.9 2.3 115.5 23 9.2 60.9-32 84.6-91.9 9-22.6 14.7-44.7 17-63.9z"/><path fill-rule="evenodd" class="e" d="m459.2 817.3c-23.2 58.8-60.2 99.5-83.3 92.4-21.7-10.7-20.7-65.6 2.5-124.4 23.3-58.7 60.2-99.4 83.4-92.3 21.7 10.7 20.7 65.6-2.6 124.3zm-4.1-103.7c-18.7-7.4-49.6 26.1-68.9 74.8-19.3 48.7-19.7 94.3-1 101.7 18.7 7.4 49.6-26.1 68.9-74.8 19.3-48.7 19.7-94.3 1-101.7z"/><path class="e" d="m407.9 808.4l-4.6 46.7 8.4 3.3 3.8-48.2c5.1-2.9 10.1-7.9 14.9-15.1q0.6-0.9 1.2-1.8l7.4 2.9 6.2-15.5-5.7-2.3c1.5-3.3 2.7-6.5 3.8-9.3l5.6 2.3 6.2-15.6-22.5-8.9-6.1 15.6 10.8 4.3c-0.9 2.6-2.2 5.8-3.8 9.2l-10.7-4.2-6.2 15.5 7.7 3.1c-3 3.1-6.3 5.5-10 6.4z"/><path fill-rule="evenodd" class="g" d="m459.2 817.3c-23.7 59.9-61.6 101.1-84.6 91.9-23-9.1-22.5-65 1.3-124.9 23.7-59.9 61.6-101 84.6-91.9 23 9.1 22.5 65.1-1.3 124.9zm-75.6-29.9c-19.3 48.6-19.7 94.3-1 101.7 18.7 7.4 49.6-26.2 68.9-74.8 19.3-48.7 19.7-94.3 1-101.7-18.7-7.4-49.6 26.1-68.9 74.8z"/><path fill-rule="evenodd" class="g" d="m387.2 877.4c-16.2-6.4-15.8-46 0.9-88.2 16.7-42.3 43.6-71.4 59.8-65 16.2 6.5 15.8 46.1-0.9 88.3-16.7 42.2-43.6 71.3-59.8 64.9zm59.4-149.8c-15.6-6.2-41.2 21.7-57.2 62.1-16 40.3-16.4 78.2-0.9 84.3 15.6 6.2 41.2-21.6 57.2-62 16-40.4 16.4-78.3 0.9-84.4z"/><path class="g" d="m402.3 806.1l-4.6 46.7 8.4 3.4 3.7-48.2c5.2-2.9 10.2-8 15-15.2q0.6-0.9 1.2-1.8l7.4 3 6.2-15.6-5.7-2.2c1.5-3.4 2.7-6.5 3.8-9.3l5.6 2.2 6.2-15.5-22.5-8.9-6.1 15.5 10.8 4.3c-0.9 2.7-2.2 5.9-3.8 9.3l-10.7-4.2-6.2 15.5 7.6 3c-2.9 3.2-6.2 5.6-9.9 6.5z"/><path class="a" d="m775.1 944.7c41.9-6.8 71.3-22.8 71.3-41.3v-21.2c0-4.1-1.5-8.1-4.1-11.9 2.6-3.7 4.1-7.7 4.1-11.8v-21.2c0-4.1-1.5-8-4.1-11.8 2.6-3.8 4.1-7.8 4.1-11.8v-21.2c0-4.1-1.5-8.1-4.1-11.9 2.6-3.7 4.1-7.7 4.1-11.8v-0.3c-23.9-8.4-68.6 27.7-102.7 84-21 34.7-33.3 69.4-35.4 94.9q3.2 0.3 6.5 0.4 0 0 0 0 7.4 0.4 15 0.4 7.1 0 14.1-0.3 0 0 0.1 0c10.1-0.5 19.8-1.5 28.9-2.9q1.1-0.1 2.2-0.3z"/><path class="d" d="m909.8 986.7c-23 9.1-60.9-32-84.6-91.9-23.8-59.9-24.3-115.8-1.3-125l19.7-7.8 85.9 216.9z"/><path class="e" d="m880.5 884.8l-51 20.2q-2.2-5-4.3-10.2l51.2-20.3z"/><path class="e" d="m888.8 905.7l-49.5 19.6q-4.3-8-8.3-16.8l50.9-20.2z"/><path class="e" d="m841.6 929.4l59-23.4 28.9 72.9-19.7 7.8c-18.2 7.2-45.8-17.1-68.2-57.3z"/><path class="e" d="m861.1 835.8l-48.5 19.3q-0.4-1.9-0.9-3.8l48-19z"/><path class="e" d="m816.4 869.2q-0.6-1.8-1.1-3.7l49.8-19.7 1.4 3.5z"/><path class="e" d="m873.3 866.4l-51.2 20.3q-0.9-2.6-1.8-5.2l50.9-20.2z"/><path class="d" d="m844.9 887c23.7 59.8 61.6 101 84.6 91.9 23.1-9.2 22.5-65.1-1.2-125-23.8-59.9-61.7-101-84.7-91.9-23 9.2-22.5 65.1 1.3 125z"/><path class="u" d="m827.9 823q1.7 4.7 3.5 9.4c23.8 59.9 61.7 101 84.7 91.9 14.3-5.7 19.5-29.4 15.7-61 20.2 56.2 19.6 106.9-2.3 115.6-23 9.1-60.9-32.1-84.6-91.9-9-22.7-14.7-44.8-17-64z"/><path fill-rule="evenodd" class="e" d="m842.3 762.6c23.2-7.1 60.1 33.6 83.4 92.3 23.3 58.8 24.2 113.7 2.5 124.4-23.1 7.1-60-33.6-83.3-92.3-23.3-58.8-24.3-113.7-2.6-124.4zm7.7 122.3c19.3 48.7 50.2 82.2 69 74.8 18.7-7.4 18.2-53-1.1-101.7-19.3-48.6-50.2-82.2-68.9-74.8-18.7 7.4-18.2 53.1 1 101.7z"/><path class="e" d="m896.3 878l4.5 46.7-8.4 3.3-3.7-48.1c-5.2-2.9-10.2-8-15-15.2q-0.6-0.9-1.1-1.8l-7.5 3-6.2-15.6 5.8-2.3c-1.5-3.3-2.8-6.5-3.8-9.2l-5.7 2.2-6.1-15.6 22.4-8.9 6.2 15.6-10.9 4.3c1 2.6 2.2 5.9 3.8 9.2l10.7-4.2 6.2 15.6-7.6 3c2.9 3.1 6.2 5.5 9.9 6.5z"/><path fill-rule="evenodd" class="g" d="m928.3 853.9c23.7 59.9 24.3 115.8 1.2 125-23 9.1-60.9-32.1-84.6-91.9-23.8-59.9-24.3-115.8-1.3-125 23-9.1 60.9 32 84.7 91.9zm-75.7 30c19.3 48.7 50.2 82.2 68.9 74.8 18.8-7.4 18.3-53-1-101.7-19.3-48.7-50.2-82.2-68.9-74.8-18.7 7.4-18.3 53 1 101.7z"/><path fill-rule="evenodd" class="g" d="m857.1 882.1c-16.7-42.2-17.1-81.8-0.9-88.2 16.3-6.5 43.1 22.6 59.8 64.9 16.8 42.2 17.2 81.8 0.9 88.2-16.2 6.5-43.1-22.7-59.8-64.9zm1.3-0.5c16 40.4 41.7 68.2 57.2 62.1 15.5-6.2 15.1-44-0.9-84.4-16-40.4-41.6-68.2-57.1-62.1-15.6 6.2-15.2 44 0.8 84.4z"/><path class="g" d="m901.9 875.8l4.5 46.7-8.4 3.3-3.7-48.2c-5.1-2.9-10.2-7.9-15-15.1q-0.6-0.9-1.1-1.8l-7.5 2.9-6.2-15.5 5.8-2.3c-1.5-3.3-2.8-6.5-3.8-9.3l-5.7 2.3-6.1-15.6 22.4-8.9 6.2 15.6-10.9 4.3c1 2.6 2.2 5.8 3.8 9.2l10.7-4.2 6.2 15.5-7.6 3.1c2.9 3.1 6.2 5.5 9.9 6.4z"/><path class="v" d="m477.8 741.5l-4.7-12.1-4.8 12.1-12 4.7 12 4.8 4.8 12 4.7-12 12.1-4.8z"/><path class="v" d="m820.1 728.7l-4.8-12-4.7 12-12.1 4.8 12.1 4.7 4.7 12.1 4.8-12.1 12-4.7z"/><path class="v" d="m932.2 594.3l-4.7-12.1-4.8 12.1-12 4.8 12 4.7 4.8 12.1 4.7-12.1 12.1-4.7z"/><path class="v" d="m644.9 816.2l-4.8-12.1-4.7 12.1-12.1 4.7 12.1 4.8 4.7 12 4.8-12 12-4.8z"/><path class="c" d="m471.5 235.5c0 0-64.5 47.1-84.8 83 0 0 86.2-63.9 132.3-83z"/><path class="c" d="m490.8 235.5c0 0 49.7 26.3 74.1 83 0 0-3.2-47.8-29.1-83z"/><path class="c" d="m589.6 353.9c0 0 43.6 81.9 67.3 171.3 0 0 5.2-101.5-67.3-171.3z"/><path class="b" d="m647.4 364.3c0 0 43.6 81.9 67.3 171.2 0 0 5.2-101.4-67.3-171.2z"/><path class="b" d="m578.9 394.9c0 0 73.3-12 139.8 5.2 0 0-66.7-34.6-139.8-5.2z"/><path class="b" d="m594.9 434.3c0 0 73.3-12 139.8 5.2 0 0-66.7-34.6-139.8-5.2z"/><path class="c" d="m594.9 434.3c0 0 24.6-4 58.2-4q-1.6-3.8-3.2-7.6c-17.2 0.7-35.9 3.9-55 11.6z"/><path class="c" d="m634.9 390.8q-1.8-3.7-3.8-7.5c-16.4 1-34.1 4.3-52.2 11.6 0 0 23.5-3.9 56-4.1z"/><path class="c" d="m397.4 35.7l93.4 174.7v-186.3q-2.6 1.1-5.4 2.2-0.5 0.2-0.9 0.4-2.8 1.1-5.5 2.1-0.1 0.1-0.2 0.1-2.9 1.1-5.7 2.1-0.6 0.2-1.2 0.4-2.2 0.8-4.5 1.5-0.7 0.3-1.5 0.5-2.6 0.8-5.1 1.5-0.3 0.1-0.5 0.2-2.7 0.7-5.5 1.4-0.7 0.1-1.5 0.3-2 0.5-4.1 0.8-0.8 0.2-1.5 0.3-2.7 0.5-5.4 0.8c-15.1 1.5-30.3-0.1-44.9-3z"/><path class="c" d="m373.1 29.7c-2-0.5-4.1-1.2-6.5-1.9l77.5 118.8-56.7-113.1c-4.8-1.2-9.6-2.5-14.3-3.8z"/><path class="c" d="m788.5 25.1c14.4-11 17.4-27.1-8.4-29.7-45.2-4.6-75.1 34.3-120 37.5l-103.4 202.6h40.1z"/><path class="c" d="m569.2 185.5l76.5-152.9c-15.7-1.7-26-8.8-36.1-16.4z"/><path fill-rule="evenodd" class="w" d="m447.5 669.7c-83.8 0-151.6-66.1-151.6-147.9 0-81.8 67.8-148 151.6-148 83.8 0 151.5 66.2 151.5 148 0 81.8-67.7 147.9-151.5 147.9zm132.5-147.9c0-71.3-59.2-129-132.5-129-73.3 0-132.6 57.7-132.6 129 0 71.3 59.3 129 132.6 129 73.3 0 132.5-57.7 132.5-129z"/><path class="w" d="m393.7 539.6l56.9 76.2h39.5l-62.5-77.9c16.2-7.7 28.5-18.8 36.6-33.2 0.6-1.1 1.2-2.3 1.8-3.5h35.3v-28.3h-27.1c0.6-6.1 0.7-11.9 0.4-16.9h26.7v-28.2h-105.9v28.2h51.1c0.4 4.8 0.4 10.6-0.6 16.9h-50.5v28.3h36c-6.8 6.7-16.5 12.6-30.2 16.4z"/><path class="d" d="m634.9 228.2q-1.3 0-2.6-0.3c-70.7-15.6-201.4 0-202.7 0.2-7.4 0.9-14.1-5.2-14.9-13.5-0.8-8.4 4.6-15.9 12-16.9 5.5-0.6 136.1-16.3 210.8 0.2 7.4 1.7 12.2 9.7 10.7 18-1.2 7.2-6.9 12.3-13.3 12.3z"/><path class="x" d="m517.7 190.9q-3.4 0.2-6.7 0.3c-4.1 6.5-9.5 17-12.6 31.2q2.9-0.2 5.7-0.3c3.6-15.3 10-25.9 13.6-31.2z"/><path class="x" d="m479.2 192.9q-3.4 0.3-6.7 0.5c-4.1 7-9 17.7-11.7 31.6q2.7-0.2 5.6-0.5c3.2-14.7 8.9-25.5 12.8-31.6z"/><path class="x" d="m498.5 191.8q-3.4 0.2-6.7 0.3c-4.1 6.8-9.2 17.4-12.2 31.5q2.8-0.2 5.7-0.4c3.4-15.1 9.5-25.8 13.2-31.4z"/><path class="x" d="m459.7 194.4q-3.5 0.3-6.7 0.6c-4.1 7.3-8.7 18-11.1 31.8q2.6-0.3 5.6-0.6c2.8-14.4 8.2-25.2 12.2-31.8z"/><path class="x" d="m433.3 197c-3.8 7.3-7.9 17.4-10.1 30.1 1.7 0.7 3.5 1.1 5.4 1 2.4-14.1 7.4-24.9 11.4-31.8q-3.8 0.4-6.7 0.7z"/><path class="x" d="m626.1 195.7q-2.9-0.5-5.8-0.9c-3.9 6.9-8.2 16.7-10.7 29.3q2.7 0.3 5.3 0.7c2.7-12.9 7.4-22.7 11.2-29.1z"/><path class="x" d="m637.5 197.9q-0.1 0-0.3 0c-3.7 7.1-7.5 16.9-9.6 29q2.4 0.5 4.7 1c0.2 0 0.4 0 0.6 0 2.1-11.6 5.8-21 9.3-27.8-1.4-1-2.9-1.8-4.7-2.2z"/><path class="x" d="m591.4 191.8q-3.1-0.2-6.2-0.4c-4 6.3-9.1 16.5-12.2 30q2.8 0.1 5.5 0.2c3.5-14.2 9.3-24.4 12.9-29.8z"/><path class="x" d="m609 193.4q-3-0.4-6.1-0.7c-3.9 6.6-8.7 16.6-11.6 29.7q2.8 0.2 5.5 0.4c3.1-13.6 8.4-23.6 12.2-29.4z"/><path class="x" d="m573.5 190.8q-3.2-0.1-6.4-0.2c-4 6.3-9.4 16.5-12.6 30.4q2.8 0 5.6 0c3.7-14.7 9.8-25.1 13.4-30.2z"/><path class="x" d="m548.6 190.4c-4 6.2-9.4 16.6-12.7 30.7q2.8-0.1 5.6-0.1c3.8-15.2 10.2-25.7 13.7-30.6q-3.3 0-6.6 0z"/><path class="x" d="m536.6 190.5q-3.4 0-6.7 0.1c-4 6.3-9.5 16.8-12.7 31q2.8-0.1 5.7-0.2c3.7-15.3 10.2-26 13.7-30.9z"/><path class="y" d="m634.9 215.2q-1.3 0-2.6-0.3c-70.7-15.6-201.4 0-202.7 0.2-5.9 0.7-11.3-3-13.7-8.7-1 2.5-1.5 5.3-1.2 8.2 0.8 8.3 7.5 14.4 14.9 13.5 1.3-0.2 132-15.8 202.7-0.2q1.3 0.3 2.6 0.3c6.4 0 12.1-5.1 13.3-12.3 0.6-3.4 0.1-6.6-1.1-9.5-2.2 5.3-6.9 8.8-12.2 8.8z"/><path class="d" d="m634.9 258.8q-1.3 0-2.6-0.3c-70.7-15.6-201.4 0.1-202.7 0.2-7.4 0.9-14.1-5.1-14.9-13.5-0.8-8.4 4.6-15.9 12-16.8 5.5-0.7 136.1-16.3 210.8 0.2 7.4 1.6 12.2 9.6 10.7 17.9-1.2 7.3-6.9 12.3-13.3 12.3z"/><path class="x" d="m517.7 221.6q-3.4 0.1-6.7 0.2c-4.1 6.5-9.5 17.1-12.6 31.2q2.9-0.1 5.7-0.2c3.6-15.3 10-26 13.6-31.2z"/><path class="x" d="m479.2 223.6q-3.4 0.2-6.7 0.5c-4.1 7-9 17.6-11.7 31.5q2.7-0.2 5.6-0.4c3.2-14.8 8.9-25.6 12.8-31.6z"/><path class="x" d="m498.5 222.4q-3.4 0.2-6.7 0.4c-4.1 6.7-9.2 17.3-12.2 31.4q2.8-0.2 5.7-0.4c3.4-15 9.5-25.8 13.2-31.4z"/><path class="x" d="m459.7 225.1q-3.5 0.3-6.7 0.6c-4.1 7.3-8.7 18-11.1 31.7q2.6-0.3 5.6-0.6c2.8-14.4 8.2-25.2 12.2-31.7z"/><path class="x" d="m433.3 227.6c-3.8 7.3-7.9 17.4-10.1 30.2 1.7 0.7 3.5 1.1 5.4 1 2.4-14.1 7.4-24.9 11.4-31.9q-3.8 0.4-6.7 0.7z"/><path class="x" d="m626.1 226.4q-2.9-0.5-5.8-0.9c-3.9 6.8-8.2 16.7-10.7 29.2q2.7 0.4 5.3 0.7c2.7-12.8 7.4-22.6 11.2-29z"/><path class="x" d="m637.5 228.6q-0.1 0-0.3-0.1c-3.7 7.2-7.5 17-9.6 29.1q2.4 0.4 4.7 0.9c0.2 0.1 0.4 0.1 0.6 0.1 2.1-11.6 5.8-21.1 9.3-27.9-1.4-1-2.9-1.7-4.7-2.1z"/><path class="x" d="m591.4 222.4q-3.1-0.2-6.2-0.4c-4 6.4-9.1 16.5-12.2 30q2.8 0.1 5.5 0.2c3.5-14.2 9.3-24.4 12.9-29.8z"/><path class="x" d="m609 224q-3-0.3-6.1-0.6c-3.9 6.5-8.7 16.5-11.6 29.6q2.8 0.2 5.5 0.4c3.1-13.5 8.4-23.5 12.2-29.4z"/><path class="x" d="m573.5 221.5q-3.2-0.1-6.4-0.2c-4 6.2-9.4 16.5-12.6 30.3q2.8 0 5.6 0.1c3.7-14.8 9.8-25.2 13.4-30.2z"/><path class="x" d="m548.6 221c-4 6.2-9.4 16.6-12.7 30.7q2.8 0 5.6-0.1c3.8-15.1 10.2-25.6 13.7-30.5q-3.3 0-6.6-0.1z"/><path class="x" d="m536.6 221.1q-3.4 0.1-6.7 0.1c-4 6.3-9.5 16.8-12.7 31q2.8-0.1 5.7-0.2c3.7-15.3 10.2-25.9 13.7-30.9z"/><path class="y" d="m634.9 245.8q-1.3 0-2.6-0.3c-70.7-15.6-201.4 0.1-202.7 0.2-5.9 0.7-11.3-2.9-13.7-8.6-1 2.4-1.5 5.2-1.2 8.1 0.8 8.4 7.5 14.4 14.9 13.5 1.3-0.1 132-15.8 202.7-0.2q1.3 0.3 2.6 0.3c6.4 0 12.1-5 13.3-12.3 0.6-3.3 0.1-6.6-1.1-9.4-2.2 5.2-6.9 8.7-12.2 8.7z"/></svg>