<svg version="1.2" xmlns="http://www.w3.org/2000/svg" viewBox="0 0 1000 1000" width="500" height="500"><style>tspan{white-space:pre}.a{fill:#f7c01e}.b{fill:#fff}.c{fill:#f15a24}.d{fill:#eda71e}.e{fill:#cedef2}.f{fill:#eda8b0}.g{fill:#feccd1}.h{fill:#7ca8dc}.i{fill:#d14615}.j{font-size: 12px;text-transform: uppercase;fill: #a52a15;font-weight: 700;font-family: "Montserrat-Bold", "Montserrat"}.k{font-size: 12px;text-transform: uppercase;fill: #ffffff;font-weight: 700;font-family: "Montserrat-Bold", "Montserrat"}.l{fill:#e3ecf7}.m{fill:#97bce8}.n{fill:#f2f7fc}</style><path class="a" d="m486 531.2l-171.4 69.3-94.9-234.7 171.5-69.3 58.6 145 14 34.7z"/><path class="b" d="m367.4 350.8l-97.2 39.3-3.8-9.4 97.2-39.3z"/><path class="b" d="m375.8 371.4l-97.2 39.3-3.9-9.5 97.2-39.3z"/><path class="b" d="m384.1 391.9l-97.2 39.3-3.9-9.4 97.2-39.3z"/><path class="b" d="m392.4 412.5l-97.2 39.3-3.8-9.5 97.2-39.3z"/><path class="c" d="m418 503.7c-5.4 2.2-11.5-0.4-13.6-5.7l-13.5-33.3c-2.1-5.3 0.5-11.4 5.8-13.6 5.4-2.2 11.4 0.4 13.6 5.8l13.5 33.2c2.1 5.4-0.5 11.5-5.8 13.6z"/><path class="c" d="m434.3 516.2c2.2 5.4-0.4 11.5-5.8 13.6-5.3 2.2-11.4-0.4-13.6-5.8-2.2-5.3 0.4-11.4 5.8-13.6 5.3-2.1 11.4 0.5 13.6 5.8z"/><path class="d" d="m463.8 476.2c-5.6 3.5-13.9 3.4-17.9-1.9-3-4.1-2.5-9.8-1.5-14.8 0.6-2.5 2.7-10.7 5.4-18z"/><path class="e" d="m651 209l52.2-0.1c-4.6 7.1-12.6 22.1-19.6 47.7-7.8 28.7-5.6 54.4-4.1 65.4l-48.3-2.9q-0.9-2.3-1.5-6.1c-1-5.8-1.6-13.8-1.2-23.5 0.9-19.1 5.6-44.8 18.5-72.4q1.9-4 4-8.1z"/><path class="f" d="m628.3 289.5h0.2c-0.4 9.7 0.2 17.7 1.2 23.5h-0.3c-108.4-8.6-146 63.4-153.7 78.7-7.7 15.3-11.2 37.3-22.4 36.1q-0.7-0.1-1.4-0.2c5.4-1.2 11.8-17.4 16.1-33.3 4.7-17.3 24.1-60.9 73.4-84.8 49.3-23.9 86.9-20 86.9-20z"/><path class="g" d="m396 226.2c5.8-1.5 12-2.6 18.7-3.3-30.3-4-67.3-26.3-88.2-49.8-20.8-23.3-36.3-42.5-31.9-52.3 3.2-2.3 9.5-0.1 16.3 7.3 8.8 9.6 24.6 31.5 51.9 50.3 14.8 10.2 33 19.4 55.2 25.4-22.6-10-58-38.2-69.3-53.7-12.8-17.6-20.5-36.3-17.1-44.3q0 0 0 0c2.6-4.2 7.7-4.1 12 4 5.4 10.3 20.6 42.2 60 65.3 9 5.3 19.4 10.1 31.2 14-29.4-16.2-46.9-35-56.1-49.5-8.3-13.1-12.1-23.5-10.1-28.4 2.3-1.9 6.7 0.5 10.4 6.4 6.3 10.1 46.7 60.6 111.2 81.3 64.5 20.8 156.5 18.1 156.5 18.1l0.3 0.1c-12.9 27.6-17.6 53.3-18.5 72.4h-0.2c0 0-37.6-3.9-86.9 20-49.3 23.9-68.7 67.5-73.4 84.8-4.3 15.9-10.7 32.1-16.1 33.3-15-3.4-14.2-33.9-2.3-60.3 12.3-27.2 30.4-60.4 12.6-85.3-17.9-25-48.6-38.6-83.4-17.6-34.8 21.1-32.9 52.9-31.9 60.8 0.9 8-13.4 16.4-17.1-3.7-4.8-25.6 7-80.1 66.2-95.3z"/><path class="f" d="m294.6 120.8c-4.4 9.8 11.1 29 31.9 52.3 20.9 23.5 57.9 45.8 88.2 49.8-6.7 0.7-12.9 1.8-18.7 3.3-29.9-8-71-31.1-98.8-85-5.8-11.1-5.7-18.1-2.6-20.4z"/><path class="f" d="m367.9 122.3c-1.5-6.1-0.9-9.7 0.7-11.1-2 4.9 1.8 15.3 10.1 28.4 9.2 14.5 26.7 33.3 56.1 49.5-11.8-3.9-22.2-8.7-31.2-14-18.9-14.5-32.1-38-35.7-52.8z"/><path class="f" d="m363 178.2c-28.3-31-31-50.7-32.9-62.4-0.6-4.2 0.1-7.7 1.5-10-3.4 8 4.3 26.7 17.1 44.3 11.3 15.5 46.7 43.7 69.3 53.7-22.2-6-40.4-15.2-55.2-25.4z"/><path class="h" d="m939.6 335.5l-259.1-7.9c0 0-0.5-2-1-5.6-1.5-11-3.7-36.7 4.1-65.4 7-25.6 15-40.6 19.6-47.7 2.2-3.5 3.6-5.1 3.6-5.1l203.4-2.6c8.9-0.1 16.2 7.2 16.2 16.1 0 8.9-7.2 16.1-16 16.1h-6.8c-6 0-10.9 4.9-10.9 10.9 0 6 4.9 10.9 10.9 10.9h74.8c11.9 0 21.6 9.6 21.6 21.5 0 11.9-9.7 21.6-21.6 21.6h-53.6c-5.3 0-9.5 4.3-9.5 9.5 0 5.3 4.2 9.6 9.5 9.6h15.1c5 0 9 4 9 9 0 5.1-4.2 9.2-9.3 9.1z"/><path class="i" d="m572.3 749.3h-432.5v133.3c0 18.8 15.2 34 34 34h364.5c18.8 0 34-15.2 34-34z"/><path class="c" d="m589 694v41.7c0 7.5-6.1 13.6-13.6 13.6h-438.7c-7.5 0-13.6-6.1-13.6-13.6v-41.7c0-7.5 6.1-13.6 13.6-13.6h438.7c7.5 0 13.6 6.1 13.6 13.6z"/><text style="transform:matrix(2.945,0,0,2.945,358.997,844.985)" ><tspan x="-51.6" y="0" class="j">COMPLAIN BOX
</tspan></text><text style="transform:matrix(2.945,0,0,2.945,356.053,842.04)" ><tspan x="-51.6" y="0" class="k">COMPLAIN BOX
</tspan></text><path class="i" d="m441.6 680.4c0 2.4-0.9 4.5-2.5 6.1-1.5 1.5-3.7 2.5-6 2.5h-154.1c-4.7 0-8.5-3.9-8.5-8.6z"/><path class="a" d="m391.2 296.5l-96.3 38.9 113.3 3.1z"/><path class="l" d="m167.2 512.6h-3.3c-1.7 0-3.2-1.5-3.2-3.3v-3.2c0-1.6-1.1-3.1-2.6-3.4-2.1-0.4-3.9 1.2-3.9 3.2v3.4c0 1.8-1.5 3.3-3.3 3.3h-3.2c-1.6 0-3.1 1-3.4 2.6-0.4 2.1 1.2 3.9 3.2 3.9h3.4c1.8 0 3.3 1.5 3.3 3.3v3.2c0 1.6 1 3.1 2.6 3.4 2 0.4 3.9-1.2 3.9-3.2v-3.4c0-1.8 1.5-3.3 3.2-3.3h3.4c2.1 0 3.7-1.8 3.2-3.9-0.3-1.6-1.7-2.6-3.3-2.6z"/><path class="e" d="m148.1 669.9h-2.4c-1.3 0-2.4-1.1-2.4-2.4v-2.4c0-1.1-0.7-2.2-1.9-2.4-1.5-0.3-2.9 0.8-2.9 2.3v2.5c0 1.3-1 2.4-2.4 2.4h-2.3c-1.2 0-2.3 0.8-2.5 1.9-0.3 1.5 0.9 2.9 2.4 2.9h2.4c1.4 0 2.4 1.1 2.4 2.4v2.4c0 1.1 0.8 2.2 2 2.4 1.5 0.3 2.8-0.9 2.8-2.3v-2.5c0-1.3 1.1-2.4 2.4-2.4h2.5c1.5 0 2.7-1.4 2.4-2.9-0.3-1.1-1.3-1.9-2.5-1.9z"/><path class="e" d="m816.2 92.7h-2.9c-1.6 0-2.9-1.3-2.9-2.8v-2.9c0-1.4-0.9-2.7-2.3-2.9-1.8-0.4-3.4 1-3.4 2.8v3c0 1.5-1.3 2.8-2.9 2.8h-2.8c-1.4 0-2.7 1-3 2.3-0.3 1.9 1.1 3.5 2.8 3.5h3c1.6 0 2.9 1.3 2.9 2.8v2.9c0 1.4 0.9 2.7 2.3 2.9 1.8 0.4 3.4-1 3.4-2.8v-3c0-1.5 1.3-2.8 2.9-2.8h3c1.8 0 3.2-1.6 2.8-3.5-0.3-1.3-1.5-2.3-2.9-2.3z"/><path class="e" d="m879.2 525.9h-3.2c-1.7 0-3.1-1.4-3.1-3.1v-3.2c0-1.5-1-2.9-2.5-3.2-2-0.4-3.8 1.2-3.8 3.1v3.3c0 1.7-1.4 3.1-3.1 3.1h-3.1c-1.5 0-2.9 1-3.2 2.5-0.4 2 1.1 3.8 3.1 3.8h3.2c1.7 0 3.1 1.4 3.1 3.1v3.1c0 1.5 1.1 2.9 2.5 3.2 2.1 0.4 3.8-1.1 3.8-3.1v-3.2c0-1.7 1.4-3.1 3.1-3.1h3.3c1.9 0 3.5-1.8 3.1-3.8-0.3-1.5-1.7-2.5-3.2-2.5z"/><path class="m" d="m144.8 404.3c-1.6 0-2.9-1.3-2.9-2.9 0-1.6 1.3-2.9 2.9-2.9 1.7 0 3 1.3 3 2.9 0 1.6-1.3 2.9-3 2.9z"/><path class="m" d="m136.4 189.5c-1.3 0-2.4-1-2.4-2.4 0-1.3 1.1-2.4 2.4-2.4 1.4 0 2.4 1.1 2.4 2.4 0 1.4-1 2.4-2.4 2.4z"/><path class="m" d="m587.1 409c-1.4 0-2.5-1.2-2.5-2.6 0-1.4 1.1-2.5 2.5-2.5 1.4 0 2.5 1.1 2.5 2.5 0 1.4-1.1 2.6-2.5 2.6z"/><path class="e" d="m592.5 154.4c-1.6 0-2.9-1.3-2.9-2.8 0-1.6 1.3-2.8 2.9-2.8 1.5 0 2.8 1.2 2.8 2.8 0 1.5-1.3 2.8-2.8 2.8z"/><path class="e" d="m815.5 536.2c-1.9 0-3.4-1.5-3.4-3.3 0-1.9 1.5-3.4 3.4-3.4 1.8 0 3.4 1.5 3.4 3.4 0 1.8-1.6 3.3-3.4 3.3z"/><path class="e" d="m851 712.5c-1.6 0-2.9-1.3-2.9-2.8 0-1.6 1.3-2.8 2.9-2.8 1.5 0 2.8 1.2 2.8 2.8 0 1.5-1.3 2.8-2.8 2.8z"/><path class="e" d="m3.1 531.2c-1.7 0-3.1-1.4-3.1-3.1 0-1.7 1.4-3.1 3.1-3.1 1.7 0 3.1 1.4 3.1 3.1 0 1.7-1.4 3.1-3.1 3.1z"/><path class="e" d="m159.1 760.3c0 1.4-1.1 2.5-2.5 2.5-1.3 0-2.4-1.1-2.4-2.5 0-1.4 1.1-2.5 2.4-2.5 1.4 0 2.5 1.1 2.5 2.5z"/><path class="n" d="m31.5 719.3c-2.1 0-3.9-1.8-3.9-4 0-2.2 1.8-3.9 3.9-3.9 2.2 0 4 1.7 4 3.9 0 2.2-1.8 4-4 4z"/><path class="n" d="m659.2 639.3c-2 0-3.7-1.6-3.7-3.7 0-2 1.7-3.6 3.7-3.6 2 0 3.7 1.6 3.7 3.6 0 2.1-1.7 3.7-3.7 3.7z"/><path class="n" d="m466 635.9c-2 0-3.6-1.6-3.6-3.6 0-2.1 1.6-3.7 3.6-3.7 2 0 3.7 1.6 3.7 3.7 0 2-1.7 3.6-3.7 3.6z"/><path class="n" d="m592.7 835.8c-2.3 0-4.2-1.9-4.2-4.2 0-2.3 1.9-4.2 4.2-4.2 2.4 0 4.3 1.9 4.3 4.2 0 2.3-1.9 4.2-4.3 4.2z"/><path class="n" d="m64.3 841.6c-1.6 0-2.9-1.3-2.9-2.9 0-1.6 1.3-2.9 2.9-2.9 1.6 0 2.9 1.3 2.9 2.9 0 1.6-1.3 2.9-2.9 2.9z"/><path class="n" d="m228.7 808c0 0.9-0.7 1.7-1.7 1.7-0.9 0-1.6-0.8-1.6-1.7 0-0.9 0.7-1.6 1.6-1.6 1 0 1.7 0.7 1.7 1.6z"/><path class="n" d="m136.1 792.2c0 1.1-0.9 2-2 2-1.1 0-2-0.9-2-2 0-1.1 0.9-2 2-2 1.1 0 2 0.9 2 2z"/><path class="n" d="m142.4 580.3c0 1.8-1.5 3.3-3.3 3.3-1.9 0-3.3-1.5-3.3-3.3 0-1.8 1.4-3.3 3.3-3.3 1.8 0 3.3 1.5 3.3 3.3z"/><path class="l" d="m924 652.9c-3.7 0-6.7-3-6.7-6.8 0-3.8 3-6.8 6.7-6.8 3.8 0 6.8 3 6.8 6.8 0 3.8-3 6.8-6.8 6.8z"/></svg>