<svg version="1.2" xmlns="http://www.w3.org/2000/svg" viewBox="0 0 1000 1000" width="500" height="500"><defs><clipPath clipPathUnits="userSpaceOnUse" id="cp1"><path d="m797.71 379.57h-584.37v-379.57h584.37z"/></clipPath></defs><style>tspan{white-space:pre}.a{opacity:.7;fill:#fff}.b{fill:#fff}.c{fill:#7adeff}.d{font-size: 23px;fill: #1b1c1c;font-weight: 800;font-family: "Gilroy"}.e{fill:#75d8bc}.f{fill:#1b1c1c}.g{fill:#f9cc10}.h{fill:#ef9e0f}.i{fill:#ed2e3b}.j{fill:#f4af9d}.k{fill:#fcd6c8}.l{fill:#4d4c4d}.m{opacity:.5;fill:#fff}.n{fill:#7c0519}.o{fill:#991023}.p{fill:#b71626}</style><path class="a" d="m752.3 737.4h-502.3c-14.7 0-26.5-11.9-26.5-26.5v-338.9c0-14.6 11.8-26.5 26.5-26.5h502.3c14.6 0 26.5 11.9 26.5 26.5v338.9c0 14.6-11.9 26.5-26.5 26.5z"/><path class="b" d="m747.2 716.5h-492.1c-5.4 0-9.8-4.4-9.8-9.7v-307.2c0-5.4 4.4-9.8 9.8-9.8h492.1c5.4 0 9.7 4.4 9.7 9.8v307.2c0 5.3-4.3 9.7-9.7 9.7z"/><path class="c" d="m718.9 578.5h-111.1c-8 0-14.5-6.5-14.5-14.5v-138.4c0-8 6.5-14.5 14.5-14.5h111.1c8 0 14.4 6.5 14.4 14.5v138.4c0 8-6.4 14.5-14.4 14.5z"/><text style="transform:matrix(2,0,0,2,329.906,449.762)" ><tspan x="0" y="0" class="d">ID CARD
</tspan></text><path class="e" d="m408 489.8h-139.1v-24.6h139.1z"/><path class="e" d="m570.6 489.8h-147.9v-24.6h147.9z"/><path class="e" d="m570.6 534.1h-301.7v-24.6h301.7z"/><path class="e" d="m499.7 578.5h-230.8v-24.6h230.8z"/><path class="e" d="m733.3 616.6h-97.5v-24.6h97.5z"/><path class="e" d="m618.3 616.6h-25v-24.6h25z"/><path class="f" d="m572.1 706.2h-13.6v-76.5h13.6z"/><path class="f" d="m620.7 706.2h-6.7v-76.5h6.7z"/><path class="f" d="m591.6 706.2h-6.8v-76.5h6.8z"/><path class="f" d="m632.1 706.2h-6.8v-76.5h6.8z"/><path class="f" d="m643.5 706.2h-6.8v-76.5h6.8z"/><path class="f" d="m654.9 706.2h-6.8v-76.5h6.8z"/><path class="f" d="m666.3 706.2h-6.8v-76.5h6.8z"/><path class="f" d="m684.2 706.2h-6.8v-76.5h6.8z"/><path class="f" d="m700.8 706.2h-6.8v-76.5h6.8z"/><path class="f" d="m580.3 706.2h-3.4v-76.5h3.4z"/><path class="f" d="m674.3 706.2h-3.4v-76.5h3.4z"/><path class="f" d="m691.5 706.2h-3.4v-76.5h3.4z"/><path class="f" d="m706.7 706.2h-3.4v-76.5h3.4z"/><path class="f" d="m714.7 706.2h-3.4v-76.5h3.4z"/><path class="f" d="m609.6 706.2h-13.6v-76.5h13.6z"/><path class="f" d="m733.3 706.2h-13.5v-76.5h13.5z"/><path class="g" d="m333 629.7h-51.7c-6.8 0-12.4 5.6-12.4 12.5v51.6c0 6.9 5.6 12.4 12.4 12.4h51.7c6.8 0 12.4-5.5 12.4-12.4v-51.6c0-6.9-5.6-12.5-12.4-12.5z"/><path class="h" d="m319.6 649.6h-24.9c-3.3 0-6 2.6-6 5.9v24.9c0 3.3 2.7 6 6 6h24.9c3.3 0 6-2.7 6-6v-24.9c0-3.3-2.7-5.9-6-5.9z"/><path class="i" d="m676.9 524.2h-28l-28.3 10.3c-4.6 1.7-7.7 6.1-7.7 11v33.4h100v-33.4c0-4.9-3.1-9.3-7.7-11z"/><path class="j" d="m629.2 492.9h2.8v-18.1h-2.8c-5 0-9.1 4-9.1 9 0 5.1 4.1 9.1 9.1 9.1z"/><path class="j" d="m696.6 492.9h-2.8v-18.1h2.8c5.1 0 9.1 4 9.1 9 0 5.1-4 9.1-9.1 9.1z"/><path class="j" d="m662.9 539.7c-7.7 0-14-6.3-14-14v-19.7h28v19.7c0 7.7-6.3 14-14 14z"/><path class="k" d="m662.9 521c-17.1 0-30.9-13.8-30.9-30.9v-15.3c0-17.1 13.8-30.9 30.9-30.9 17.1 0 30.9 13.8 30.9 30.9v15.3c0 17.1-13.8 30.9-30.9 30.9z"/><path class="l" d="m632 474.8c0 0 6.6-12.3 8.4-21.2 15.1-5.8 36-3.8 45 0 3.6 12.5 8.4 21.2 8.4 21.2h2.8l2.7-18.1c1.4-9-2.8-17.9-10.6-22.7-3.8-2.3-7.1-6.4-11.8-8.5-16.1-7-44.9 15.2-62.8 13.3l12.9 9.3 2.2 26.7z"/><path class="e" d="m435.7 695.6h-79.2v10.6h79.2z"/><path class="e" d="m435.7 680.7h-79.2v10.7h79.2z"/><path class="m" d="m240.4 735.6c3 1.1 6.2 1.8 9.6 1.8h55.8l316.8-391.9h-62.1z"/><path class="m" d="m382.1 737.4h66.8l314.7-389.3c-3.4-1.6-7.3-2.6-11.3-2.6h-48.7z"/><g clip-path="url(#cp1)"><path class="n" d="m253.5-179.7h493l20.2 58.7h-533.4z"/><path class="o" d="m468.8 247.3l277.7-427 53.4 31.1-268.7 395.9z"/><path class="p" d="m531.2 247.3l-277.7-427-53.4 31.1 268.7 395.9z"/><path class="i" d="m500 379.6c-17.2 0-31.2-14-31.2-31.2v-101.1c0-17.2 14-31.2 31.2-31.2 17.2 0 31.2 14 31.2 31.2v101.1c0 17.2-14 31.2-31.2 31.2z"/><path class="b" d="m516.8 297.9c0 9.2-7.5 16.7-16.8 16.7-9.3 0-16.8-7.5-16.8-16.7 0-9.3 7.5-16.8 16.8-16.8 9.3 0 16.8 7.5 16.8 16.8z"/></g></svg>