<svg version="1.2" xmlns="http://www.w3.org/2000/svg" viewBox="0 0 1000 1000" width="500" height="500"><style>.a{fill:#005fa5}.b{fill:#05ff95}.c{fill:#035282}.d{fill:#06c66f}.e{fill:#00b892}.f{fill:#dae6ed}.g{fill:#ffbe9a}.h{fill:#003a6f}.i{fill:#c0d2dd}.j{fill:#033051}.k{fill:#fff}.l{fill:#0066e6}.m{fill:#008d64}.n{fill:#ffd85e}</style><path class="a" d="m802.8 479c0 68.2-24 130.9-64.1 179.8q-8.1 9.9-17.1 19.1c-51.5 52.6-123.4 85.2-202.8 85.2q-0.5 0-1 0c-15.2 0-30.1-1.3-44.7-3.7-135.2-21.8-238.4-139-238.4-280.4q0-13.5 1.2-26.6 0.9-9.5 2.4-18.8c20.4-126.8 124.7-225.5 254.1-237.4q13-1.3 26.4-1.3c37.6 0 73.5 7.4 106.4 20.6 104.2 42.2 177.6 144.3 177.6 263.5z"/><path class="b" d="m502.8 660.8c-12.5-3.4-25.2-7.4-38-12.2-67.4-24.7-115.4-57.8-149.5-91.5-0.8-21.1 0-47.2-4.1-51.3-5.1-5.1-26.4-3.4-32.3-14.4-5.9-11.1-11.1-23.9-16.1-31.5-2.6-3.8-10.4-5.7-17.6-6.7-3-7.4-5.2-14-6.9-19.6 20.4-126.8 124.7-225.5 254.1-237.4-3.4 8.3-11 26.1-13.6 28.1-3.4 2.5-25.5 5.9-32.3 12.7-6.8 6.9-4.3 18.7-11.1 29.8-6.8 11.1-22.1 17-20.4 24.7 1.7 7.6 21.3 35.7 19.5 58.7-1.7 22.9-92.6 108.8-92.6 130.1 0 21.3 67.1 45.1 73.9 58.7 6.8 13.6-15.3 14.4 11.9 26.4 27.3 11.8 68.9 27.2 75.7 56.1 4.7 19.6 2.2 31.1-0.6 39.3z"/><path class="b" d="m802.8 479c0 68.2-24 130.9-64.1 179.8q-6.3 1.9-12.8 3.6c6.9-25.2 15.7-59.5 15.7-69.8 0-17-6.8-31.5-17.9-44.3-11-12.7-10.2-47.6-14.4-47.6-4.3 0-6 11.1-13.6 18.7-7.7 7.7-32.3-3.4-36.6-2.5-4.3 0.8-19.6 41.7-23.8 42.5-4.3 0.9-22.1-8.5-26.4-11.1-4.2-2.5-14.4-60.3-12.8-69.7 1.8-9.4 23.9-70.6 23.9-70.6 0 0 50.1-28.1 55.3-26.4 5 1.7 39.1 12.8 39.1 12.8 0 0 0.8-6.8-4.3-12.8-5.1-5.9-41.6-17.8-55.3-17.8-13.6 0-45 37.4-51 37.4-5.9 0-40.8-3.4-40.8-3.4 0 0-10.2-18.7-10.2-21.3 0-2.5 16.1-12.7 16.1-12.7 0 0-0.8-24.7 8.6-38.3 9.3-13.6 40.8-16.2 39.1-28.9-1.7-12.8-28.9-26.4-34.9-30.7-6-4.2 0-31.4 1.7-35.7 1.4-3.6 32.7-12.2 41.8-14.7 104.2 42.2 177.6 144.3 177.6 263.5z"/><path class="c" d="m725.9 662.4c-1.6 5.8-3 11.1-4.3 15.5-51.5 52.6-123.4 85.2-202.8 85.2q-0.5 0-1 0c-2.6-6.4-7.5-14.5-16.1-18.3-15.3-6.8-33.1-22.1-30.6-36.5 2.6-14.5 25.5-28.1 28.1-37.5 0.8-3 2.2-6.2 3.6-10 89.3 24.5 166.5 16.7 223.1 1.6z"/><path class="d" d="m517.8 763.1c-15.2 0-30.1-1.3-44.7-3.7-3.9-13.6-13.1-38.7-30-47.8-23.9-12.7-61.3-15.3-77.4-30.6-16.2-15.3-35.8-27.2-38.3-50.2-2.6-22.9-8.5-38.2-11.1-59.5-0.5-4.1-0.8-9-1-14.2 34.1 33.7 82.1 66.8 149.5 91.5 12.8 4.8 25.5 8.8 38 12.2-1.4 3.8-2.8 7-3.6 10-2.6 9.4-25.5 23-28.1 37.5-2.5 14.4 15.3 29.7 30.6 36.5 8.6 3.8 13.5 11.9 16.1 18.3z"/><path class="c" d="m473.1 759.4c-135.2-21.8-238.4-139-238.4-280.4q0-13.5 1.2-26.6c2.6 0.1 5.8 0.3 9.3 0.8 10.9 27.5 31.6 66 70.1 103.9 0.2 5.2 0.5 10.1 1 14.2 2.6 21.3 8.5 36.6 11.1 59.5 2.5 23 22.1 34.9 38.3 50.2 16.1 15.3 53.5 17.9 77.4 30.6 16.9 9.1 26.1 34.2 30 47.8z"/><path class="d" d="m245.2 453.2c-3.5-0.5-6.7-0.7-9.3-0.8q0.9-9.5 2.4-18.8c1.7 5.6 3.9 12.2 6.9 19.6z"/><path class="e" d="m314 397.9c0 0-3.7-10.8-5.7-12.8-2-1.9-12-0.1-16.2-6.1-4.2-6.1 11.4-7.7 16.3 0.8 0 0 1.3-19 11-16.6 9.7 2.3-6.6 18.9-6.6 18.9l4.8 13.8z"/><path class="e" d="m362.2 392.8c0 0 0.1-8.6-0.9-10.5-1-1.9-8.7-3.1-10.2-8.5-1.5-5.4 10.1-2.7 11.6 4.7 0 0 5.6-13.4 12-9.4 6.5 4.1-9.4 12.1-9.4 12.1l0.1 11.1z"/><path class="e" d="m367.6 346.2c0 0-1.7-8.5-3.1-10.1-1.3-1.7-9.1-1.3-11.7-6.3-2.6-4.9 9.4-4.6 12.3 2.3 0 0 2.8-14.3 9.9-11.6 7.1 2.7-6.8 13.7-6.8 13.7l2.4 10.9z"/><path class="b" d="m394.2 668.4c0 0-0.1-11.4-1.4-13.9-1.4-2.4-11.5-3.8-13.6-10.9-2.1-7 13.2-3.7 15.3 5.9 0 0 7.1-17.7 15.6-12.5 8.5 5.3-12.1 16-12.1 16l0.3 14.6z"/><path class="e" d="m413.1 601.8c0 0 1-8.6 0.3-10.6-0.8-2-8.3-4-9.3-9.6-0.9-5.5 10.4-1.5 11.1 5.9 0 0 7-12.7 13-7.9 5.9 4.7-10.7 10.9-10.7 10.9l-1.2 11.1z"/><path class="e" d="m722 471.1c0 0 0.7-11.4 2.1-13.8 1.4-2.4 11.6-3.3 14-10.2 2.5-7-13-4.3-15.5 5.2 0 0-6.3-18-15-13.2-8.8 4.8 11.3 16.5 11.3 16.5l-0.9 14.6z"/><path class="e" d="m674.2 479c0 0-2.4-8.3-1.9-10.4 0.4-2.1 7.5-5.3 7.6-10.9 0-5.6-10.5 0.1-10 7.6 0 0-9-11.4-14.1-5.8-5.1 5.7 12.3 9.1 12.3 9.1l2.9 10.8z"/><path class="e" d="m656.6 435.5c0 0-0.6-8.6 0.3-10.6 0.9-1.9 8.4-3.6 9.6-9.1 1.2-5.5-10.2-2-11.2 5.4 0 0-6.5-13-12.7-8.5-6.1 4.5 10.2 11.4 10.2 11.4l0.7 11.1z"/><path class="e" d="m709.5 320.8c0 0 0.6-11.3 2-13.7 1.5-2.4 11.6-3.4 14-10.3 2.5-7-13-4.3-15.5 5.2 0 0-6.3-18-15-13.2-8.8 4.8 11.4 16.5 11.4 16.5l-1 14.6z"/><path class="e" d="m612.5 366.8c0 0 0.6-11.3 2-13.7 1.5-2.4 11.6-3.4 14-10.3 2.5-7-13-4.3-15.5 5.2 0 0-6.3-18-15-13.2-8.8 4.8 11.4 16.5 11.4 16.5l-1 14.6z"/><path class="e" d="m661.6 328.8c0 0-2.4-8.4-1.9-10.5 0.4-2 7.5-5.2 7.6-10.8 0-5.7-10.5 0.1-10 7.6 0 0-9-11.5-14.1-5.8-5.1 5.6 12.3 9 12.3 9l2.9 10.8z"/><path class="e" d="m417.1 244.8c0 0 0.6-11.4 2.1-13.8 1.4-2.4 11.6-3.3 14-10.3 2.4-6.9-13-4.3-15.5 5.2 0 0-6.3-17.9-15.1-13.1-8.7 4.8 11.4 16.5 11.4 16.5l-1 14.5z"/><path class="e" d="m369.3 252.7c0 0-2.4-8.3-2-10.4 0.5-2.1 7.6-5.3 7.6-10.9 0.1-5.6-10.4 0.1-9.9 7.6 0 0-9-11.4-14.1-5.8-5.1 5.6 12.3 9.1 12.3 9.1l2.9 10.8z"/><path class="e" d="m644 285.3c0 0-0.6-8.7 0.3-10.6 0.9-2 8.5-3.6 9.6-9.1 1.2-5.5-10.2-2.1-11.2 5.4 0 0-6.5-13.1-12.7-8.6-6.1 4.5 10.2 11.4 10.2 11.4l0.7 11.1z"/><path class="f" d="m241.3 961.3c-39.8 0-72-6.2-72-14 0-7.7 32.2-14 72-14 39.8 0 72 6.3 72 14 0 7.8-32.2 14-72 14z"/><path class="e" d="m330.3 576.8c0 0-11.3-8.5-12.5-12.6-1.1-4.2 4.3-10.4 0.5-24.5-1.3-5-11.1 9.6-5.6 18.8 0 0-17.4-4.5-17.7 2.7-0.3 7.1 16.5 0.6 19.3 4.3 2.9 3.7 12.9 12.3 15.9 13.5 3 1.2 0.1-2.2 0.1-2.2z"/><path class="g" d="m237.2 583.1c0 0 9.1 15.3 7 24.8-2.1 9.5-9.5 11.1-9.5 11.1l-1.2 15.3-21.1 1.3-15.3-52.1c0 0 26.4-19.4 40.1-0.4z"/><path class="h" d="m234 579l-8.5 9.6c0 0 1.4 5.4 1.7 9.4 0.3 4-7.9-3.9-6 4.7 1.8 8.5 8.3 7.7 8.3 7.7 0 0-1 7.3-4.6 10.7-3.6 3.4-12.1 4.2-16.3 0.6 0 0-15.2-20-15.6-27.6-0.5-7.5 2.8-9.6 2.8-9.6 0 0-0.5-4.8 4.3-10.6 4.8-5.9 29.9-11.4 33.2-7.6 3.2 3.7 2 5.5 2 5.5 0 0 4.5 2.2-1.3 7.2z"/><path class="g" d="m178.6 666.6c-3.3 1.1-6 3.4-7.8 6.3-3.6 5.5-7.2 18.3-9.9 40.1-2.4 19.3 33.6 35.8 57.3 48.1l15-11.6c0 0-36.6-26.7-42.1-37.9-2.2-4.6 1.5-12.8 6.6-20.9 8.1-12.9-4.2-29.2-18.7-24.3q-0.2 0.1-0.4 0.2z"/><path class="e" d="m194.6 636.4c0 0-12.2 0.8-21 19-8.8 18.1-9.6 24.5-9.6 24.5l19.8 5.8z"/><path class="h" d="m173.1 767.5l14.9 156.2h28.1l0.4-124.8 9.9-0.8 22.7 126.4h23.2l-6.2-169z"/><path class="b" d="m182.4 647.9c7.5-16.9 41.8-20.7 63.4-14.7 27.3 7.6 20.7 128.1 20.7 128.1 0 0-27 23.4-100.6 5.6 0 0 9.1-102 16.5-119z"/><path class="g" d="m242.7 656.2c1.7 3.1 4.3 5.4 7.4 6.9 5.9 2.7 17.5 0.5 39.5 0 19.4-0.4 29.6-37.1 38.2-62.4l-10.9-10.5c0 0-14.5 38.4-24.8 45.5-4.2 2.8-19.5 2.1-28.2-1.8-13.9-6.2-28.3 8.3-21.4 21.9q0.1 0.2 0.2 0.4z"/><path class="g" d="m316.5 594c0 0 0.2-7.7 2.6-15.7 2.4-7.9 10.6-8.3 13.6-5.5 3 2.8-3.8 1.3-3.8 1.3l-0.9 1.3c0 0 2.6-1 4.9 0 2.3 0.9 1.4 2.5 1.4 2.5 0 0 2.2 0.9 2.2 2.1 0 1.2-0.8 2.6-0.8 2.6 0 0 1.6 1.5 1 4-0.7 2.5-2.5 3.4-2.5 3.4 0 0-3.2 11.8-8.9 12-5.7 0.1-8.8-8-8.8-8z"/><path class="e" d="m249.8 631.1l29.1 4.7-0.3 35.5-32.3-5.7c-6-1-10.9-5.2-12.8-10.9-2.2-6.3-3.1-14.5 3.2-20.1 3.5-3.1 8.4-4.3 13.1-3.5z"/><path class="g" d="m252.6 924.1l1.1 13 15 0.2-1.2-13.4z"/><path class="g" d="m193.1 923.5l1.3 14h14.8l0.2-13.8z"/><path class="a" d="m253 933.6l15.5 0.2 0.2 3.5c0 0 21.3 8.1 22.8 11.2 1.4 3.1-36.6 2.5-39.7 1.9z"/><path class="a" d="m193.5 933.6l15.9 0.1 0.3 3.5c0 0 20.8 8.2 22.3 11.3 1.4 3.1-36.6 2.5-39.7 1.9z"/><path class="i" d="m226.3 314.6c0.1-2.9 2.4-5.3 5.4-5.3 2.9 0 5.3 2.4 5.4 5.3h4.8c0-5.5-4.5-10-10.1-10-5.6 0-10.1 4.5-10.2 10z"/><path class="i" d="m234.1 0v306.7h-4.7v-306.7z"/><path class="i" d="m248 313v15h-180.3v-15z"/><path class="i" d="m77 314.6c0-2.9 2.4-5.3 5.4-5.3 2.9 0 5.3 2.4 5.4 5.3h4.8c-0.1-5.5-4.6-10-10.1-10-5.6 0-10.1 4.5-10.2 10z"/><path class="i" d="m84.8 0v306.7h-4.7v-306.7z"/><path class="g" d="m265.3 239.7l4.2-0.1c0 0 13.4-3.6 14.1-3.7 0.6 0 5.8 3.6 6.2 6 0.3 2.4-1.1 2.3-1.1 2.3 0 0-2.7 5.9-3.2 6.7-0.5 0.9-8.4 1.6-9.8 1.6-1.4-0.1-5-2.1-5-2.1h-4.7z"/><path class="b" d="m204 191.2l14.3 41.5 50.9 5.7-0.5 13.3c0 0-54.6 0.7-59.7-1.3-4.4-1.8-19.4-39.5-24-51.2-1-2.4-0.9-5.1 0.1-7.5q0.3-0.8 0.8-1.7c3.8-7.8 15.3-7.1 18.1 1.2z"/><path class="g" d="m192.3 399.9l-2.9 21.6 12.2 5.8 9.3-21.7z"/><path class="a" d="m189.5 420.4c0 0-5.3 12.2-5 13.8 0.3 1.6 25.6 15.4 29.4 14.1 3.7-1.2-12.8-21.8-12.8-21.8z"/><path class="g" d="m220.1 388.2l-2.9 21.5 12.2 5.8 9.3-21.7z"/><path class="a" d="m217.3 408.6c0 0-5.3 12.3-5 13.8 0.3 1.6 25.6 15.4 29.3 14.1 3.8-1.2-12.7-21.8-12.7-21.8z"/><path class="j" d="m199 288.1c0 0 39.9 21.2 49 39.7 9.1 18.4-7.4 69.9-7.4 69.9l-20.6-7-0.6-43.5-50.3-55.8z"/><path class="e" d="m159.4 178.3c15.3-5.5 38.2 1.8 44.4 13.3 6.1 11.4-4.8 96.5-4.8 96.5 0 0-36.6 15.3-85.5-10 0 0 30.5-94.2 45.9-99.8z"/><path class="h" d="m113.5 278.1c0 0-6.4 29.7 10.5 41.8 16.9 12 76.9 29.6 76.9 29.6l-11.9 50.1 26.8 9.3c0 0 24.5-61.9 13.2-75.6-11.3-13.8-54.3-41-54.3-41 0 0-50.7-7.8-61.2-14.2z"/><path class="g" d="m214.7 144.1c0 0-3.8 24.1-6.4 29.7-2.5 5.5-13.8 4.2-13.8 4.2l-3.5 9.2-13.9-7.4 2.4-22.2 8.2-19.2z"/><path class="h" d="m214.7 144.1c0 0-13.4 10.6-23.4 6.4 0 0-2.2 8.6-3.8 9.4-1.7 0.9 0.1-7.8-3.9-5.5-3.9 2.2-2.5 11-1.1 11.3 1.5 0.2-2.3 8.8-4.7 7.3-2.5-1.4-13.1-17.1-11.2-25.5 1.9-8.4 10-10.8 10-10.8 0 0-1.8-11.1 10.8-14.1 12.5-3 31.1 11.5 30.4 23.2-0.7 11.7-6.3 13.7-6.3 13.7z"/><path class="h" d="m179.3 133.4c0 0 1.1-15.2-10.8-12.6-12 2.6-9.8 22.5 2.7 23.4 12.5 0.9 8.1-10.8 8.1-10.8z"/><path class="k" d="m336.5 265.1c0 0 14.4-1.9 15.7 4.5 1.7 8.4-15.7-4.5-15.7-4.5z"/><path class="k" d="m328.8 259.7c0 0 10.9-9.6 15.6-5 6 6.1-15.6 5-15.6 5z"/><path class="k" d="m330.8 268.2c0 0 13.4 5.5 11.3 11.7-2.7 8.1-11.3-11.7-11.3-11.7z"/><path fill-rule="evenodd" class="l" d="m320.7 265.1l-25.5 13.3-2.6 16-38.7-7.8 3.9-13.2c0 0-7.3-3.4-6.4-16.2 0 0 0.9-12.2 7-16.5 6-4.3 13.4-3.6 13.4-3.6l4-9.3 26.4 6.9-4.8 30.1 21.6-6.2-0.9-3.6 3.7-1.5 3.7 16.2-3.6 0.3zm-49.2-22.4c0 0-20.6 5.9-7 24z"/><path class="g" d="m242.6 254.1l5 0.2c0 0 16.2-3.1 16.9-3.1 0.8-0.1 6.7 4.7 6.9 7.5 0.3 2.9-1.4 2.7-1.4 2.7 0 0-3.7 6.7-4.3 7.7-0.7 0.9-10.1 1.2-11.8 1.1-1.6-0.2-5.8-2.9-5.8-2.9l-5.5-0.4z"/><path class="b" d="m169.6 187.8l14.4 53.6 63.8 11.5-1.9 16.7c0 0-68.9-3.8-75.2-6.8-5.3-2.5-21-51.4-25.8-66.6-1-3.1-0.7-6.4 0.8-9.3q0.5-1 1.1-2.1c5.5-9.6 19.9-7.7 22.8 3z"/><path class="f" d="m875.3 960.3c-47.9 0-86.6-5.8-86.6-13 0-7.2 38.7-13 86.6-13 48 0 86.7 5.8 86.7 13 0 7.2-38.7 13-86.7 13z"/><path fill-rule="evenodd" class="i" d="m909.7 881.4l-83.6 1.6 14 71h-15.2l-88.5-482.6 8.3-2.8 8.4 43.2 88.7-0.6-7.3-39.8 8.3-2.8 95.4 485.4h-15.2zm-134.3-256.7l8.3 42.6 86.7-0.6-8-43.6zm85.3-11l-7.5-40.5-87.6 1.7 7.7 39.5zm-74.9 63.8l7 35.3 86-0.6-6.7-36.3zm9 45.6l8.4 42.6 85.3-0.7-8-43.6zm10.4 52.9l8.6 43.7 84.6-0.6-8.2-44.7zm-49.9-254l8.4 42.6 87.9-0.7-8-43.6zm152.9 350l-8-43.6-84.3 1.6 8.4 42.6z"/><path class="l" d="m742.8 368.9c0 0 2.6-11.9 5.1-13.8 2.4-1.8-0.1 7.5-0.1 7.5 0 0 6.7-10.6 9.7-10.3 3 0.3-3.2 9.6-3.2 9.6 0 0 12.2-10.9 16.7-9.8 4.5 1.1-7.7 9-7.7 9 0 0 22.2-8.2 26.4-4.1 4.3 4.1-18.5 6.9-18.5 6.9 0 0 9.7 0.9 11.6 5 1.9 4.2-14.6-0.9-14.6-0.9 0 0 5.1 2.7 5 5.7-0.2 3-12.8-3.1-12.8-3.1 0 0 6.3 4.1 2.8 5.5-3.5 1.4-20.4-7.2-20.4-7.2z"/><path class="g" d="m837.9 375.6c0 0-8.9 15.4-6.6 24.9 2.2 9.4 9.6 11 9.6 11l1.5 15.2 21.1 1 14.5-52.3c0 0-26.8-19-40.1 0.2z"/><path class="g" d="m816.5 652.9l0.2 95.7 20.3-0.3 4.9-92.1z"/><path class="g" d="m868.5 656.8l2 91.5 21.5-0.4-0.4-91.5z"/><path class="h" d="m841 371.4l8.6 9.5c0 0-1.3 5.4-1.5 9.5-0.3 4 7.8-4 6.1 4.5-1.7 8.6-8.2 7.9-8.2 7.9 0 0 1.2 7.2 4.8 10.6 3.6 3.4 12.1 4 16.2 0.4 0 0 14.9-20.2 15.3-27.8 0.3-7.6-3-9.6-3-9.6 0 0 0.4-4.8-4.5-10.6-4.9-5.8-30.1-10.9-33.2-7.1-3.2 3.8-2 5.6-2 5.6 0 0-4.4 2.2 1.4 7.1z"/><path class="h" d="m904.8 559l-8.2 97.4-28.1 0.4-6.5-65.7-10-0.7-7.7 67.4-33.1-4.1 0.5-105.3z"/><path class="b" d="m893.6 439.6c-7.7-16.9-42.1-20.1-63.6-13.8-27.1 8-18.6 128.4-18.6 128.4 0 0 27.3 23 100.6 4.1 0 0-10.7-101.9-18.4-118.7z"/><path class="g" d="m833.5 448.8c-1.6 3.1-4.2 5.5-7.3 7-5.9 2.8-17.5 0.8-39.5 0.7-19.4-0.2-30.1-36.8-39.2-61.8l10.8-10.8c0 0 15.1 38.3 25.5 45.1 4.3 2.8 19.5 1.8 28.1-2.2 13.9-6.4 28.5 7.9 21.8 21.6q-0.1 0.2-0.2 0.4z"/><path class="g" d="m758.8 387.8c0 0-0.4-7.8-2.9-15.7-2.5-7.9-10.7-8.1-13.7-5.3-3 2.8 3.9 1.2 3.9 1.2l0.8 1.4c0 0-2.5-1-4.8 0-2.3 0.9-1.4 2.6-1.4 2.6 0 0-2.2 0.8-2.2 2 0 1.2 0.8 2.7 0.8 2.7 0 0-1.5 1.4-0.8 3.9 0.7 2.5 2.5 3.4 2.5 3.4 0 0 3.4 11.8 9.1 11.8 5.6 0.1 8.7-8 8.7-8z"/><path class="e" d="m826 423.8l-29 5.1 0.9 35.6 32.2-6.2c5.9-1.2 10.7-5.4 12.6-11.1 2.1-6.4 2.9-14.6-3.5-20.1-3.6-3.1-8.5-4.2-13.2-3.3z"/><path class="l" d="m812.3 486.2c0 0-2.4-17.8-7.4-20-5.1-2.1-11.7-25.3-16.7-15.8-1.1 2.1 0.6 18.8 7.2 23.1 6.6 4.3 0.7 16.5 5.2 21.8 4.5 5.3 13.9 10.2 11.7-9.1z"/><path class="m" d="m809.6 488.9c0 0-4.3-7.6-7.9-13.6-3.5-5.9 0.1-8.5 4-2.7 3.9 5.8 4.5 2.2 1-7.9-3.4-10.1-0.6-18.1 1.6-15.7 2.2 2.5 3.2 12.3 4.4 13 1.2 0.6-2.4-25.3 5.1-26.1 7.5-0.8-1.4 30.2 1.3 30 2.7-0.2 7.3-10.8 8.6-5.7 1.2 5.2-9.2 17.4-8.4 18.8 0.9 1.5 5.8-4.2 7.2-0.9 1.3 3.3-9.2 13.1-9.2 13.1z"/><path class="n" d="m833.9 423.8c0 0 11.4 24.8 14 58.8l-51.4 6.8c0 0-5.4 75.6 26.8 86.6 32.2 11 41.3-48.2 37.2-82.1-4-33.9-7.9-60.4-26.6-70.1z"/><path class="m" d="m832.9 485.3c0 0-7.6-8.9-4.5-13.9 3.2-5.1 1.2-4 1.3-15.8 0.1-11.7 3.8-12.3 6.7-16.1 3-3.8 9-0.1 8.2 7.6-0.9 7.8-2.4 9.8 0.7 15 3.1 5.2 2.6 20.5 2.6 20.5z"/><path class="l" d="m822.7 485.8c0 0-4.8-2.2-5.5-4.9-0.7-2.6 4.1 0.4 4.1 0.4 0 0-7.7-6.3-6.5-10.4 1.3-4 5.3 2.8 5.3 2.8 0 0-7.4-10.7-5.1-14.1 2.3-3.4 3.9 3.4 3.9 3.4 0 0-2.6-13.4 1.1-14.5 3.6-1 3 10.8 3 10.8 0 0 0.8-4.5 3.2-3.5 2.4 0.9-0.3 15.8-0.3 15.8 0 0 3.2-6.7 5.2-4.6 2.1 2.2-3.1 11.7-3.1 11.7 0 0 2.1-2.5 3.1-0.7 1.1 1.8-3.2 7.6-3.2 7.6z"/><path class="a" d="m816.6 745.3l-15.4 15.1 1.3 6.2 35.5-1.1-1.1-21c0 0-6.5-2.8-20.3 0.8z"/><path class="a" d="m871.3 744.6l-19.7 14.9q-0.6 0.4-0.9 1c-1.3 2.3 0.3 5.1 2.9 5l39.1-0.6-1.1-21.1c0 0-6.5-2.7-20.3 0.8z"/><path class="f" d="m858.3 136.7c0 0-18.6-34.4-50.7-29.2 0 0-15.3-32.6-42.7-33.5-27.5-0.9-44.5 20.8-50.3 34.1 0 0-36.4-3.7-40.7 28.2z"/><path class="f" d="m426.6 128.2c0 0-14.4-26.6-39.2-22.5 0 0-11.8-25.3-33-26-21.2-0.6-34.4 16.1-38.9 26.4 0 0-28.1-2.9-31.4 21.8z"/><path class="f" d="m186.1 510.4c0 0-14.4-26.6-39.2-22.6 0 0-11.8-25.2-33-25.9-21.2-0.7-34.4 16-38.9 26.4 0 0-28.1-3-31.4 21.7z"/><path class="f" d="m976.6 310.2c0 0-14.4-26.6-39.2-22.5 0 0-11.8-25.3-33-26-21.2-0.6-34.4 16.1-38.9 26.4 0 0-28.1-2.9-31.4 21.8z"/></svg>