<svg version="1.2" xmlns="http://www.w3.org/2000/svg" viewBox="0 0 1000 1000" width="500" height="500"><style>tspan{white-space:pre}.a{fill:#ffa583}.b{fill:#d32432}.c{fill:#1e1e47}.d{fill:#e32a30}.e{fill:#e0876c}.f{fill:none;stroke:#fff;stroke-miterlimit:10;stroke-width:2}.g{fill:none;stroke:#b56755;stroke-linecap:round;stroke-linejoin:round;stroke-width:2}.h{fill:none;stroke:#8e1e26;stroke-linecap:round;stroke-miterlimit:10;stroke-width:2}.i{fill:none;stroke:#000;stroke-linecap:round;stroke-linejoin:round;stroke-width:2}.j{fill:#efca44}.k{fill:#df952f}.l{fill:#d3682d}.m{fill:#c86fa8}.n{fill:#fff;stroke:#fff;stroke-miterlimit:10;stroke-width:2}.o{fill:#cecb83}.p{fill:#f5f19d}.q{fill:#e1dd8f}.r{fill:#14142d}.s{fill:#fff}.t{fill:#e2e5e8}.u{fill:#182640}.v{fill:#c4c6c3}.w{fill:#eaeeed}.x{fill:none;stroke:#e04444;stroke-miterlimit:10;stroke-width:6}.y{font-size: 10px;text-transform: uppercase;fill: #333372;font-weight: bold;font-family: "Galano Grotesque DE MO"}</style><path class="a" d="m473.6 329.1c0 0 7.6-14.1 12.3-18.2 4.7-4.1 15.3-25.2 21.2-25.2 5.9 0 0 21.7 0 21.7 0 0 44-15.7 47.6-12.3 3.5 3.5-4.7 8-4.7 8 0 0 13.5-6.3 16.4-2.8 3 3.6-11.7 12.4-11.7 12.4 0 0 11.3-4.7 12.1-1.8 0.8 2.9-19.8 18.2-19.8 18.2 0 0 11.8 0 13.5 2.4 1.8 2.3-27.6 13.5-27.6 13.5l-47 7.2c0 0-14.1-6-12.3-23.1z"/><path class="b" d="m339.1 221.2c2.3 1 35.2-20.1 41.7 10.4 6.5 30.6 1.8 41.1 5.9 53.5 4.1 12.3 17 35.2 18.8 49.9 1.7 14.7 40.5-12.9 68.1-5.9 0 0 5.3 18.7 12.3 23.1 0 0-44 49.8-103.3 49.8h-6.4c0 0-34.8-15.3-37.1-65.2-2.4-50 0-115.6 0-115.6z"/><path class="c" d="m329.4 32.5c0 0 9.1 24.3 1.8 42l-10.5-36z"/><path class="d" d="m365.2 219.6c-10.1-15.5-43.3-46.7-43.3-46.7h-41l-83.5 48.4c0 0 28.6 60.8 23.3 92.1-5.3 31.3-29.5 82.8-7.5 89.9 1.8 0.6 3.9 1.1 6.2 1.7 25.9 6.6 81.3 13.3 113.7 13.3 9.1 0 16.1-2 21.5-4.8 15.5-8.2 17.7-23.9 17.7-23.9 0 0-8-38.3 0-83.2 7.9-45 3.1-71.4-7.1-86.8z"/><path class="a" d="m281.6 132.1c0.3 14.7 0.5 33.3-0.7 40.8 0 0 9 15.8 31.5 15.8 6.4 0 9.2-4.7 9.8-11.4l-2-33c-0.2 0-0.5 0.1-0.8 0.1-23.3 0.2-35.1-9.6-37.8-12.3z"/><path class="e" d="m280.9 111.8c0 0 0.4 9 0.7 20.3 2.7 2.7 14.5 12.5 37.8 12.3 0.3 0 0.6-0.1 0.8-0.1l-1.5-25.3c-2.3 1.8-4.8 2.8-7.2 3.3-10 2.4-30.6-10.5-30.6-10.5z"/><path class="a" d="m330.9 69.5c-2.4-40.6-16.8-46.4-38.8-41.7-21.3 4.5-43.2 21.4-34.7 47.4l4.7 13.7c0 0-10-3.6-10.5 5.2-0.6 8.9 19.3 24.7 29.3 17.7 0 0 20.6 12.9 30.6 10.5 2.4-0.5 4.9-1.5 7.2-3.3 7.6-5.6 13.9-18.7 12.2-49.5z"/><path class="c" d="m281.8 931.8c-80.1-216.3-64.2-506.3-62.4-526.8 25.9 6.6 81.3 13.3 113.7 13.3 9.1 0 22.2-6.1 27.6-8.9 11.2 80.5 29.6 209.3 38.1 261.6 7.5 46.1 41.7 211.7 53.5 264.4l-47 1.2c-65.9-136.5-107.5-458.3-107.5-458.3-35.5 109.3 18.8 400.3 28.1 448.8"/><path class="f" d="m217.9 424.7c1.9 0 93.4 26.5 145.2 2.2"/><path class="f" d="m215.1 486.8c0 0 34.2 13.1 34.2-55.3"/><path class="f" d="m343.3 433.5c0 0 5.3 45.2 26.8 43.1"/><path class="f" d="m297.8 478.3l8.8-15.4 1.5-25.8"/><path class="f" d="m226.3 487.3c0 0 9 271.9 63.8 442.7"/><path class="f" d="m306.6 462.9c0 0 40 363.5 104.7 473.6"/><path class="c" d="m262.1 88.9l7.1 2.5c0 0-6.6-28.7 0-36.2 6.6-7.5 27.7-0.9 40.9-4.4 13.3-3.5 33.5-36.1 25.2-46.7-8.4-10.6-69.7-1.7-83.8 37.9v7.1c0 0-9.2 1.3-10.5 7.9-1.3 6.6 6.1 28 21.1 31.9z"/><path class="g" d="m262.2 97.6c0 0 3.8-0.4 6.7 1.6 0 0-6.6 0.9-1 3.8 5.7 2.9 5.2-0.4 5.2-0.4"/><path class="g" d="m308.9 70.2c0 0.7 0.6 13 4.1 15.5 3.6 2.6 2.7 6.8-4.8 7.4"/><path  d="m295.2 79c-2.1 0-3.8-2.3-3.8-5.3 0-2.9 1.7-5.3 3.8-5.3 2.2 0 3.9 2.4 3.9 5.3 0 3-1.7 5.3-3.9 5.3z"/><path class="c" d="m283.5 68.2q-0.5 0-1-0.3c-0.8-0.5-1-1.6-0.5-2.4 4.9-7.1 12-6.5 15.1-5.3 0.9 0.4 1.4 1.4 1 2.3-0.3 0.9-1.4 1.3-2.3 1-0.2-0.1-6.5-2.4-10.9 4-0.3 0.5-0.8 0.7-1.4 0.7z"/><path  d="m323.3 72.7c-2.1 0-3.9-2.3-3.9-5.2 0-3 1.8-5.3 3.9-5.3 2.2 0 3.9 2.3 3.9 5.3 0 2.9-1.7 5.2-3.9 5.2z"/><path class="c" d="m311.6 61.9q-0.5 0-1-0.3c-0.8-0.5-1-1.6-0.5-2.4 4.8-7 12-6.5 15.1-5.3 0.9 0.4 1.4 1.4 1 2.3-0.3 0.9-1.4 1.3-2.3 1-0.3-0.1-6.5-2.4-10.9 4-0.3 0.5-0.9 0.7-1.4 0.7z"/><path class="g" d="m299.1 96.2c0 0 1.6 8.5 14.1 4.7"/><path class="h" d="m280.8 174.2l4.2 40.8 28.2-17.5 20.3 9.3-10.2-33.9"/><path class="h" d="m313.2 197.5c0 0-10 44.1 2.4 75.8 12.4 31.7 36.4 106 11.7 145"/><path class="i" d="m290 85.4c-8.1 0-14.7-6.6-14.7-14.7 0-8.1 6.6-14.6 14.7-14.6 8.1 0 14.6 6.5 14.6 14.6 0 8.1-6.5 14.7-14.6 14.7z"/><path class="i" d="m326.6 76.8c-8.1 0-14.6-6.5-14.6-14.6 0-8.1 6.5-14.7 14.6-14.7 8.1 0 14.7 6.6 14.7 14.7 0 8.1-6.6 14.6-14.7 14.6z"/><path class="i" d="m312 63.8c0 0-4-2-8 2.7"/><path class="i" d="m276.2 75.5l-25 12.7c0 0-3.2 1.4-0.9 3.8"/><path class="b" d="m262.9 317.5c0 0-36.9-16-65.5-4.2 0 0 12.8-5.9 23.9-7.1 10-1 7.2-22.1 9.7-33.5 5.3-24.6-12.1-53.4-33.6-51.4 0 0 36.5-3.7 40.5 43 4 46.7-4.4 38.8-4.4 38.8 0 0 25.9 0.2 33.7 9.3z"/><path class="j" d="m361.4 268.1l-3.1-3-113.3 115.2 3 3.1z"/><path class="k" d="m358.3 265.1l-5.1-5-113.3 115.2 5.1 5z"/><path class="l" d="m353.2 260.1l-3-3-113.4 115.2 3.1 3z"/><path class="m" d="m243.7 387.7c-2.2 2.3-5.8 2.3-8.1 0.1l-3-3c-2.3-2.3-2.3-5.9-0.1-8.1l2.3-2.3c2.2-2.3 4-0.4 6.2 1.8l3.1 3c2.2 2.2 4.1 4 1.9 6.2z"/><path class="n" d="m248.1 384.7c-0.5 0.5-1.2 0.5-1.6 0l-11.2-11.1c-0.5-0.4-0.5-1.1 0-1.5 0.4-0.5 1.1-0.5 1.5 0l11.3 11.1c0.4 0.4 0.4 1.1 0 1.5z"/><path class="o" d="m362.6 255.4l-0.6-0.6-11.8 2.3 3 3z"/><path class="p" d="m362.9 255.7l1 1-2.5 11.4-3.1-3z"/><path class="q" d="m363.3 256.2l-0.8-0.8-9.3 4.7 5.1 5z"/><path  d="m364.8 253.8l-1.4 5.2-3.7-3.7z"/><path class="a" d="m257.6 324.4c0 0 10.1-12.5 15.5-15.6 5.4-3.2 19.6-22.1 25.4-21 5.8 1.1-4 21.4-4 21.4 0 0 46.2-7.4 49.1-3.3 2.8 4-6.1 6.9-6.1 6.9 0 0 14.4-3.7 16.7 0.3 2.2 4-13.9 10-13.9 10 0 0 12.1-2.6 12.3 0.5 0.2 3-22.8 14.3-22.8 14.3 0 0 11.6 2.1 12.9 4.7 1.3 2.7-29.6 8.3-29.6 8.3l-47.6-1.5c0 0-12.7-8.6-7.9-25z"/><path class="d" d="m262.2 316.2c0 0-19.1-7.7-40.4-7.5q0 0 0 0c10-1 6.7-24.6 9.2-36 5.3-24.6-12.1-53.4-33.6-51.4-21.6 2.1-20.5 48.1-37.5 81.8-17 33.7-22.9 69.5-22.9 69.5 0 0 71.5 38.8 130.6-21.2 0 0-10.7-19.9-5.4-35.2z"/><path class="r" d="m535 980c0 0-2.4-19.2-31.3-24.2-29-5-43.9-23.2-46.5-32.2-2.5-8.9-2-21.3-21.2-21.3-19.1 0-18.3 6.8-18.3 6.8v70.9z"/><path class="s" d="m535 980v20h-156.4v-20z"/><path class="t" d="m535 990v10h-156.4v-10z"/><path class="c" d="m378.6 980c0 0 0-15.9 10.3-28.1 10.3-12.2 1.7-42.8 1.7-42.8h39.1c0 0 16.1-1.1 16.5 13.7 0.5 14.8 8.2 22.2 16.8 27.4 8.6 5.2 40.6 9.8 40.6 29.8z"/><path class="s" d="m507.1 956.5c-6.6 9.2-1.9 23.5-1.9 23.5h29.8c0 0-2.2-17.6-27.9-23.5z"/><path class="s" d="m414 950.5c-8.9 0-16.1-7.3-16.1-16.2 0-8.9 7.2-16.2 16.1-16.2 9 0 16.2 7.3 16.2 16.2 0 8.9-7.2 16.2-16.2 16.2z"/><path class="r" d="m435.3 927.1c-2.5 0-4.5-1.9-4.5-4.4 0-2.4 2-4.4 4.5-4.4 2.4 0 4.4 2 4.4 4.4 0 2.5-2 4.4-4.4 4.4z"/><path class="r" d="m438.9 941.7c-2.4 0-4.4-2-4.4-4.4 0-2.5 2-4.4 4.4-4.4 2.4 0 4.4 1.9 4.4 4.4 0 2.4-2 4.4-4.4 4.4z"/><path class="r" d="m447.3 955.7c-2.4 0-4.4-2-4.4-4.4 0-2.4 2-4.4 4.4-4.4 2.4 0 4.4 2 4.4 4.4 0 2.4-2 4.4-4.4 4.4z"/><path class="r" d="m460.9 964.5c-2.5 0-4.4-2-4.4-4.4 0-2.4 1.9-4.4 4.4-4.4 2.4 0 4.4 2 4.4 4.4 0 2.4-2 4.4-4.4 4.4z"/><path class="r" d="m476.4 968.9c-2.5 0-4.4-1.9-4.4-4.4 0-2.4 1.9-4.4 4.4-4.4 2.4 0 4.4 2 4.4 4.4 0 2.5-2 4.4-4.4 4.4z"/><path class="r" d="m439.5 938.4l-1.2-2.3 19.8-10.1 1.1 2.3z"/><path class="r" d="m448 952.4l-1.5-2.2 19.5-13.5 1.5 2.1z"/><path class="r" d="m461.7 961.1l-1.7-2 16.5-14 1.7 1.9z"/><path class="r" d="m477.2 965.5l-1.7-2 13.9-12.2 1.7 2z"/><path class="u" d="m498 990v2.6h-119.4v-2.6z"/><path class="r" d="m188 980c0 0 2.4-19.2 31.4-24.2 28.9-5 43.9-23.2 46.4-32.2 2.5-8.9 2.1-21.3 21.2-21.3 19.2 0 18.3 6.8 18.3 6.8v70.9z"/><path class="s" d="m188 1000h156.4v-20h-156.4z"/><path class="t" d="m188 1000h156.4v-10h-156.4z"/><path class="c" d="m344.4 980c0 0 0-15.9-10.3-28.1-10.3-12.2-1.7-42.8-1.7-42.8h-39.1c0 0-16.1-1.1-16.5 13.7-0.4 14.8-8.2 22.2-16.8 27.4-8.5 5.2-40.6 9.8-40.6 29.8z"/><path class="s" d="m215.9 956.5c6.6 9.2 1.9 23.5 1.9 23.5h-29.8c0 0 2.2-17.6 27.9-23.5z"/><path class="s" d="m309 950.5c-8.9 0-16.2-7.3-16.2-16.2 0-8.9 7.3-16.2 16.2-16.2 8.9 0 16.1 7.3 16.1 16.2 0 8.9-7.2 16.2-16.1 16.2z"/><path class="r" d="m287.8 927.1c-2.5 0-4.4-1.9-4.4-4.4 0-2.4 1.9-4.4 4.4-4.4 2.4 0 4.4 2 4.4 4.4 0 2.5-2 4.4-4.4 4.4z"/><path class="r" d="m284.1 941.7c-2.4 0-4.4-2-4.4-4.4 0-2.5 2-4.4 4.4-4.4 2.5 0 4.4 1.9 4.4 4.4 0 2.4-1.9 4.4-4.4 4.4z"/><path class="r" d="m275.7 955.7c-2.4 0-4.4-2-4.4-4.4 0-2.4 2-4.4 4.4-4.4 2.5 0 4.4 2 4.4 4.4 0 2.4-1.9 4.4-4.4 4.4z"/><path class="r" d="m262.1 964.5c-2.4 0-4.4-2-4.4-4.4 0-2.4 2-4.4 4.4-4.4 2.5 0 4.5 2 4.5 4.4 0 2.4-2 4.4-4.5 4.4z"/><path class="r" d="m246.7 968.9c-2.5 0-4.4-1.9-4.4-4.4 0-2.4 1.9-4.4 4.4-4.4 2.4 0 4.4 2 4.4 4.4 0 2.5-2 4.4-4.4 4.4z"/><path class="r" d="m283.5 938.4l1.2-2.3-19.7-10.1-1.2 2.3z"/><path class="r" d="m275 952.4l1.5-2.2-19.5-13.5-1.4 2.1z"/><path class="r" d="m261.3 961.1l1.7-2-16.5-14-1.6 1.9z"/><path class="r" d="m245.8 965.5l1.7-2-13.9-12.2-1.7 2z"/><path class="u" d="m225 992.6h119.4v-2.6h-119.4z"/><path class="s" d="m863 694.2h-354.8v-478.2h282l72.8 72.8z"/><path class="v" d="m790.2 288.8l72.8 21.8v-21.8l-72.8-72.8z"/><path class="w" d="m790.2 288.8h72.8l-72.8-72.8z"/><path class="v" d="m830.7 349.9h-184.5c-2.9 0-5.2-2.3-5.2-5.2 0-3 2.3-5.3 5.2-5.3h184.5c2.9 0 5.3 2.3 5.3 5.3 0 2.9-2.4 5.2-5.3 5.2z"/><path class="v" d="m768.4 378.7h-122.2c-2.9 0-5.2-2.4-5.2-5.3 0-2.9 2.3-5.3 5.2-5.3h122.2c2.9 0 5.3 2.4 5.3 5.3 0 2.9-2.4 5.3-5.3 5.3z"/><path class="v" d="m830.7 407.5h-184.5c-2.9 0-5.2-2.4-5.2-5.3 0-2.9 2.3-5.3 5.2-5.3h184.5c2.9 0 5.3 2.4 5.3 5.3 0 2.9-2.4 5.3-5.3 5.3z"/><path class="v" d="m830.7 464.3h-184.5c-2.9 0-5.2-2.4-5.2-5.3 0-2.9 2.3-5.3 5.2-5.3h184.5c2.9 0 5.3 2.4 5.3 5.3 0 2.9-2.4 5.3-5.3 5.3z"/><path class="v" d="m768.4 493.1h-122.2c-2.9 0-5.2-2.4-5.2-5.3 0-2.9 2.3-5.3 5.2-5.3h122.2c2.9 0 5.3 2.4 5.3 5.3 0 2.9-2.4 5.3-5.3 5.3z"/><path class="v" d="m830.7 521.9h-184.5c-2.9 0-5.2-2.4-5.2-5.3 0-2.9 2.3-5.3 5.2-5.3h184.5c2.9 0 5.3 2.4 5.3 5.3 0 2.9-2.4 5.3-5.3 5.3z"/><path class="v" d="m830.7 579.5h-184.5c-2.9 0-5.2-2.4-5.2-5.3 0-2.9 2.3-5.3 5.2-5.3h184.5c2.9 0 5.3 2.4 5.3 5.3 0 2.9-2.4 5.3-5.3 5.3z"/><path class="v" d="m768.4 608.2h-122.2c-2.9 0-5.2-2.3-5.2-5.3 0-2.9 2.3-5.2 5.2-5.2h122.2c2.9 0 5.3 2.3 5.3 5.2 0 3-2.4 5.3-5.3 5.3z"/><path class="v" d="m830.7 637h-184.5c-2.9 0-5.2-2.4-5.2-5.3 0-2.9 2.3-5.3 5.2-5.3h184.5c2.9 0 5.3 2.4 5.3 5.3 0 2.9-2.4 5.3-5.3 5.3z"/><path class="x" d="m608.1 356.9l-33.1 33-14-14"/><path class="x" d="m608.1 471.3l-33.1 33-14-14.1"/><path class="x" d="m608.1 586.4l-33.1 33.1-14-14.1"/><text style="transform:matrix(3.117,0,0,3.117,663.698,247.858)" ><tspan x="-38.3" y="0" class="y">R</tspan><tspan  y="0" class="y">E</tspan><tspan  y="0" class="y">S</tspan><tspan  y="0" class="y">E</tspan><tspan  y="0" class="y">R</tspan><tspan  y="0" class="y">V</tspan><tspan  y="0" class="y">A</tspan><tspan  y="0" class="y">T</tspan><tspan  y="0" class="y">I</tspan><tspan  y="0" class="y">O</tspan><tspan  y="0" class="y">N</tspan><tspan  y="0" class="y">
</tspan><tspan x="-40.6" y="11.8" class="y"> </tspan><tspan  y="11.8" class="y">G</tspan><tspan  y="11.8" class="y">O</tspan><tspan  y="11.8" class="y">V</tspan><tspan  y="11.8" class="y">E</tspan><tspan  y="11.8" class="y">R</tspan><tspan  y="11.8" class="y">N</tspan><tspan  y="11.8" class="y">M</tspan><tspan  y="11.8" class="y">E</tspan><tspan  y="11.8" class="y">N</tspan><tspan  y="11.8" class="y">T</tspan><tspan  y="11.8" class="y">
</tspan><tspan x="-28.5" y="23.6" class="y"> </tspan><tspan  y="23.6" class="y">P</tspan><tspan  y="23.6" class="y">O</tspan><tspan  y="23.6" class="y">L</tspan><tspan  y="23.6" class="y">I</tspan><tspan  y="23.6" class="y">C</tspan><tspan  y="23.6" class="y">I</tspan><tspan  y="23.6" class="y">E</tspan><tspan  y="23.6" class="y">S</tspan><tspan  y="23.6" class="y"> </tspan><tspan  y="23.6" class="y">
</tspan></text></svg>