<svg version="1.2" xmlns="http://www.w3.org/2000/svg" viewBox="0 0 1000 1000" width="500" height="500"><style>.a{fill:#fff}.b{fill:#2e61e5}.c{fill:#39393b}.d{fill:#ebac28}.e{fill:#ee5155}.f{fill:#0061ee}.g{fill:#2d4fc6}.h{fill:#e58563}.i{fill:#262628}.j{fill:#f7a784}.k{fill:#4db971}.l{fill:#90a1d3}.m{fill:#f4c167}.n{fill:#ff8860}</style><path class="a" d="m149.4 582c0 0 8.3 9.3 3 31.8 55.6-0.1 205.5-0.4 213.8-0.4 8.3 0 18.5-5 19.1-18.9 0.7-13.9-18.5-13.8-25.8-14.5-7.3-0.6-210.1 2-210.1 2z"/><path class="b" d="m145.7 583.7c0 0 203.1-0.3 215.2-0.4 12.2 0 19.9 2.5 19.6 11.8-0.3 7.1-2.1 12.5-15.5 12.5-13.4 0.1-215.5 2.5-215.5 2.5l-2.5 7.1c0 0 209.8-0.4 220.3-0.4 10.4 0 23-2.5 23-21.4-0.1-18.8-18.9-20.5-23.9-20.9-5.1-0.4-224.5 0.9-224.5 0.9z"/><path class="c" d="m358.9 590.7c-13-0.7-26.1-0.5-39.1-0.6-13.1-0.1-26.2 0-39.3 0q-39 0.1-78.1 0.5c-14.6 0.2-29.3 1-43.9 1.1-0.7 0-0.6 0.9 0 0.9 13.2 0 26.4 0.7 39.6 0.9 13.1 0.2 26.1 0.2 39.1 0.2q38.9 0.1 77.8 0c14.6-0.1 29.3 0 43.8-0.8 1.4-0.1 1.6-2.1 0.1-2.2z"/><path class="c" d="m325.1 600.6c-19.8-0.7-39.8-0.5-59.6-0.5-19.8 0-39.4 0.2-59.2 0.5q-16.8 0.2-33.7 0.5c-0.7 0-0.8 1.3 0 1.3 39.6 0.4 79.2 0.8 118.9 0.5 11.2-0.2 22.5-0.2 33.7-0.6 1 0 0.9-1.7-0.1-1.7z"/><path class="a" d="m119.1 623.9c0 0 8.3 9.3 3 31.8 55.6-0.1 205.5-0.4 213.8-0.4 8.2 0 18.5-5 19.1-18.9 0.7-13.9-18.5-13.9-25.8-14.5-7.3-0.7-210.1 2-210.1 2z"/><path class="d" d="m115.3 625.6c0 0 203.2-0.4 215.3-0.4 12.2 0 19.9 2.4 19.5 11.7-0.2 7.2-2 12.6-15.4 12.6-13.4 0-215.5 2.5-215.5 2.5l-2.5 7.1c0 0 209.8-0.4 220.3-0.4 10.4 0 23-2.6 23-21.4-0.1-18.9-18.9-20.5-23.9-20.9-5.1-0.4-224.5 0.8-224.5 0.8z"/><path class="c" d="m328.6 632.5c-13-0.7-26.1-0.5-39.1-0.6-13.1-0.1-26.2 0-39.3 0.1q-39.1 0-78.1 0.5c-14.6 0.1-29.3 1-44 1-0.6 0-0.5 1 0.1 1 13.2 0 26.4 0.7 39.6 0.9 13 0.2 26.1 0.2 39.1 0.2q38.9 0.1 77.8 0c14.6-0.1 29.3 0 43.8-0.8 1.4-0.1 1.6-2.2 0.1-2.3z"/><path class="c" d="m294.8 642.4c-19.8-0.6-39.8-0.5-59.7-0.5-19.7 0-39.4 0.3-59.1 0.6q-16.8 0.2-33.7 0.4c-0.7 0-0.8 1.4 0 1.4 39.6 0.4 79.2 0.8 118.9 0.4 11.2-0.1 22.5-0.1 33.7-0.5 1 0 0.9-1.7-0.1-1.8z"/><path class="a" d="m160 665.7c0 0 8.8 9.8 3.2 33.8 59.2-0.1 218.8-0.4 227.6-0.4 8.8 0 19.7-5.3 20.4-20.1 0.7-14.8-19.7-14.8-27.5-15.5-7.7-0.7-223.7 2.2-223.7 2.2z"/><path class="e" d="m156 667.5c0 0 216.3-0.4 229.2-0.4 13-0.1 21.2 2.6 20.8 12.5-0.3 7.6-2.1 13.3-16.4 13.3-14.3 0.1-229.5 2.7-229.5 2.7l-2.7 7.6c0 0 223.4-0.4 234.6-0.5 11.1 0 24.5-2.7 24.5-22.8-0.1-20-20.1-21.8-25.5-22.2-5.3-0.4-239 0.9-239 0.9z"/><path class="c" d="m383.1 674.9c-13.9-0.8-27.8-0.5-41.7-0.7-13.9-0.1-27.9 0-41.8 0.1q-41.6 0.1-83.2 0.5c-15.6 0.2-31.2 1.1-46.8 1.1-0.7 0-0.6 1.1 0.1 1.1 14.1 0 28.1 0.7 42.2 0.9 13.8 0.2 27.7 0.2 41.5 0.2q41.5 0.1 83 0c15.5-0.1 31.1 0.1 46.5-0.9 1.5 0 1.7-2.2 0.2-2.3z"/><path class="c" d="m347.1 685.4c-21.1-0.7-42.4-0.5-63.5-0.5-21 0-42 0.2-63 0.5q-17.9 0.3-35.9 0.5c-0.8 0-0.8 1.5 0 1.5 42.2 0.4 84.4 0.9 126.6 0.5 11.9-0.2 23.9-0.2 35.9-0.6 1 0 1-1.9-0.1-1.9z"/><path class="a" d="m368.2 752.2c0 0-8.3 9.3-2.9 31.8-55.6 0.1-205.5 0.4-213.8 0.4-8.2 0-18.5-4.9-19.2-18.8-0.7-13.9 18.5-14 25.8-14.6 7.3-0.7 210.1 1.2 210.1 1.2z"/><path class="b" d="m371.9 753.9c0 0-203.1 0.4-215.2 0.4-12.2 0-19.9 2.5-19.5 11.8 0.3 7.2 2 12.5 15.4 12.5 13.4 0 215.6 1.7 215.6 1.7l2.5 7.1c0 0-209.8 0.4-220.3 0.4-10.4 0-23-2.5-23-21.3-0.1-18.9 18.8-20.6 23.8-21 5-0.4 224.5 0 224.5 0z"/><path class="c" d="m158.7 761.6c13-0.7 26.1-0.6 39.1-0.7 13.1-0.2 26.2-0.1 39.3-0.1q39.1-0.1 78.1 0.2c14.6 0.1 29.3 0.9 44 0.9 0.6 0 0.5 1-0.1 1-13.2 0-26.4 0.7-39.6 1-13 0.2-26 0.3-39 0.3q-39 0.3-77.9 0.3c-14.6 0-29.2 0.1-43.8-0.7-1.3 0-1.5-2.1-0.1-2.2z"/><path class="c" d="m192.5 771.4c19.9-0.7 39.8-0.7 59.7-0.7 19.7-0.1 39.4 0.1 59.1 0.3q16.9 0.2 33.7 0.3c0.8 0 0.8 1.3 0.1 1.4-39.7 0.5-79.3 1.1-118.9 0.9-11.2-0.1-22.5-0.1-33.7-0.5-1 0-1-1.7 0-1.7z"/><path class="a" d="m398.7 794c0 0-8.3 9.3-3 31.7-55.5 0.1-205.4 0.4-213.7 0.4-8.3 0.1-18.6-4.9-19.2-18.8-0.7-13.9 18.5-13.9 25.7-14.6 7.3-0.7 210.2 1.3 210.2 1.3z"/><path class="d" d="m402.4 795.6c0 0-203.1 0.4-215.3 0.4-12.1 0.1-19.8 2.5-19.5 11.8 0.3 7.2 2.1 12.6 15.5 12.6 13.4-0.1 215.6 1.6 215.6 1.6l2.5 7.2c0 0-209.8 0.3-220.3 0.4-10.5 0-23-2.5-23.1-21.4 0-18.8 18.8-20.5 23.9-20.9 5-0.5 224.5 0 224.5 0z"/><path class="c" d="m189.2 803.4c13-0.8 26.1-0.6 39.1-0.8 13.1-0.1 26.2-0.1 39.3-0.1q39-0.1 78 0.2c14.7 0.1 29.4 0.9 44 0.9 0.7 0 0.6 1-0.1 1-13.1 0.1-26.4 0.8-39.6 1-13 0.3-26 0.3-39 0.4q-38.9 0.2-77.9 0.2c-14.5 0-29.2 0.2-43.7-0.6-1.4-0.1-1.6-2.1-0.1-2.2z"/><path class="c" d="m223 813.1c19.8-0.7 39.8-0.6 59.7-0.7 19.7 0 39.4 0.1 59.1 0.3q16.8 0.2 33.7 0.4c0.7 0 0.8 1.3 0 1.3-39.6 0.6-79.2 1.1-118.8 0.9-11.3-0.1-22.5-0.1-33.8-0.4-1 0-0.9-1.7 0.1-1.8z"/><path class="a" d="m357.9 835.9c0 0-8.8 9.9-3.1 33.8-59.2 0.2-218.8 0.4-227.6 0.5-8.8 0-19.7-5.3-20.5-20.1-0.7-14.8 19.7-14.8 27.5-15.5 7.7-0.8 223.7 1.3 223.7 1.3z"/><path class="e" d="m361.9 837.7c0 0-216.3 0.4-229.2 0.4-13 0-21.2 2.7-20.8 12.6 0.3 7.6 2.2 13.3 16.5 13.3 14.3 0 229.6 1.8 229.6 1.8l2.6 7.6c0 0-223.4 0.4-234.6 0.4-11.1 0-24.5-2.6-24.5-22.7-0.1-20.1 20-21.9 25.3-22.3 5.4-0.5 239.1 0 239.1 0z"/><path class="c" d="m134.9 845.9c13.8-0.8 27.7-0.6 41.6-0.8 14-0.1 27.9-0.1 41.9-0.1q41.5-0.1 83.1 0.2c15.6 0.1 31.2 1 46.8 1 0.7 0 0.6 1-0.1 1-14 0.1-28.1 0.9-42.1 1.1-13.9 0.3-27.8 0.3-41.6 0.4q-41.5 0.2-82.9 0.3c-15.5 0-31.1 0.1-46.6-0.7-1.5-0.1-1.7-2.3-0.1-2.4z"/><path class="c" d="m170.8 856.3c21.2-0.7 42.4-0.7 63.6-0.7 21-0.1 42 0.1 62.9 0.3q18 0.2 36 0.3c0.8 0 0.8 1.5 0 1.5-42.2 0.6-84.4 1.2-126.6 0.9-12 0-23.9 0-35.9-0.4-1.1 0-1-1.8 0-1.9z"/><path class="f" d="m223.2 704.2c0 0 146.7-0.3 154.5-0.3 7.8 0 13.7 7.5 13.8 19.5 0 11.9-8.6 23-21.2 23-12.6 0-146.1 0.1-146.1 0.1z"/><path class="c" d="m354.5 733.1l-84.7 0.2c-4.5 0-8.1-3.6-8.1-8.1 0-4.4 3.6-8.1 8.1-8.1l84.6-0.1c4.5 0 8.1 3.6 8.1 8 0 4.5-3.6 8.1-8 8.1z"/><path class="a" d="m84.6 711.5c0 0 8.3 9.3 3.1 31.8 55.6-0.1 127.1-0.2 135.4-0.3 8.2 0 18.5-5 19.1-18.9 0.6-13.9-18.5-13.8-25.8-14.5-7.3-0.6-131.8 1.9-131.8 1.9z"/><path class="g" d="m80.9 713.2c0 0 124.8-0.2 136.9-0.2 12.2-0.1 19.9 2.4 19.5 11.7-0.2 7.2-2 12.5-15.4 12.6-13.4 0-137.2 2.3-137.2 2.3l-2.5 7.1c0 0 131.5-0.2 142-0.2 10.4-0.1 23-2.6 22.9-21.4 0-18.9-18.8-20.5-23.9-20.9-5-0.5-146.1 0.6-146.1 0.6z"/><path class="c" d="m215.8 720.3c-13-0.7-26.1-0.5-39.2-0.6-13.1-0.1 52.2-0.2 39.1-0.1q-39 0.1-78 0.5c-14.7 0.1-29.3 1-44 1-0.6 0-0.5 1 0.1 1 13.2 0 26.4 0.7 39.6 0.9 13 0.2 26 0.2 39 0.2 26 0.1-26.4 0.2-0.5 0.1 14.6 0 29.2 0.1 43.7-0.8 1.4-0.1 1.6-2.1 0.2-2.2z"/><path class="c" d="m182 730.2c-19.9-0.6 38.6-0.7 18.7-0.6-19.7 0-39.4 0.2-59.1 0.5q-16.9 0.2-33.7 0.4c-0.8 0-0.8 1.4 0 1.4 39.6 0.4 0.8 1 40.4 0.6 11.3-0.1 22.5-0.2 33.8-0.5 1-0.1 0.9-1.8-0.1-1.8z"/><path class="a" d="m826.1 865.3c0 0-8.3-9.3-3.1-31.8-55.6 0.1-205.5 0.4-213.7 0.4-8.3 0-18.6 5-19.2 18.9-0.6 13.9 18.6 13.9 25.8 14.5 7.3 0.7 210.2-2 210.2-2z"/><path class="b" d="m829.8 863.6c0 0-203.1 0.4-215.3 0.4-12.1 0-19.8-2.4-19.5-11.7 0.3-7.2 2-12.6 15.4-12.6 13.4 0 215.6-2.5 215.6-2.5l2.5-7.1c0 0-209.9 0.4-220.3 0.4-10.5 0-23.1 2.5-23 21.4 0 18.8 18.8 20.5 23.9 20.9 5 0.4 224.5-0.8 224.5-0.8z"/><path class="c" d="m616.5 856.6c13 0.8 26.1 0.5 39.2 0.7 13.1 0.1 26.2 0 39.3-0.1q39-0.1 78-0.5c14.7-0.1 29.3-1 44-1 0.6 0 0.5-1-0.1-1-13.2 0-26.4-0.7-39.6-0.9-13-0.2-26-0.2-39-0.2q-39-0.1-77.9 0c-14.6 0.1-29.2 0-43.7 0.8-1.4 0.1-1.6 2.2-0.2 2.2z"/><path class="c" d="m650.3 846.8c19.9 0.6 39.8 0.5 59.7 0.5 19.7-0.1 39.4-0.3 59.1-0.6q16.9-0.2 33.7-0.4c0.8 0 0.8-1.4 0-1.4-39.6-0.4-79.2-0.8-118.8-0.4-11.3 0.1-22.5 0.1-33.8 0.5-1 0-0.9 1.7 0.1 1.8z"/><path class="a" d="m856.4 823.4c0 0-8.3-9.2-3.1-31.8-55.6 0.2-205.5 0.4-213.7 0.4-8.3 0.1-18.6 5-19.2 18.9-0.6 13.9 18.6 13.9 25.8 14.6 7.3 0.6 210.2-2.1 210.2-2.1z"/><path class="d" d="m860.1 821.7c0 0-203.1 0.4-215.3 0.4-12.1 0-19.8-2.4-19.5-11.7 0.3-7.2 2-12.6 15.4-12.6 13.4 0 215.6-2.5 215.6-2.5l2.5-7.1c0 0-209.9 0.4-220.3 0.4-10.5 0-23.1 2.6-23 21.4 0 18.9 18.9 20.5 23.9 20.9 5 0.4 224.5-0.8 224.5-0.8z"/><path class="c" d="m646.8 814.8c13 0.7 26.1 0.5 39.2 0.6 13.1 0.1 26.2 0 39.3 0q39-0.1 78-0.5c14.7-0.2 29.3-1 44-1.1 0.6 0 0.5-1-0.1-1-13.2 0-26.4-0.7-39.6-0.9-13-0.2-26-0.2-39-0.2q-39-0.1-77.9 0.1c-14.5 0-29.2-0.1-43.7 0.8-1.4 0.1-1.6 2.1-0.2 2.2z"/><path class="c" d="m680.6 804.9c19.9 0.6 39.8 0.5 59.7 0.5 19.7 0 39.4-0.2 59.1-0.5q16.9-0.3 33.7-0.5c0.8 0 0.8-1.3 0-1.3-39.6-0.4-79.2-0.9-118.8-0.5-11.3 0.1-22.5 0.1-33.8 0.5-1 0.1-0.9 1.8 0.1 1.8z"/><path class="a" d="m815.5 781.6c0 0-8.9-9.8-3.3-33.8-59.2 0.1-218.8 0.4-227.6 0.4-8.8 0-19.7 5.3-20.4 20.1-0.7 14.8 19.8 14.8 27.5 15.5 7.8 0.7 223.8-2.2 223.8-2.2z"/><path class="e" d="m819.4 779.8c0 0-216.3 0.4-229.2 0.5-12.9 0-21.1-2.6-20.8-12.5 0.3-7.7 2.2-13.4 16.4-13.4 14.3-0.1 229.6-2.7 229.6-2.7l2.6-7.6c0 0-223.4 0.5-234.6 0.5-11.1 0-24.5 2.7-24.4 22.8 0 20 20.1 21.8 25.4 22.2 5.4 0.5 239.1-0.9 239.1-0.9z"/><path class="c" d="m592.4 772.4c13.8 0.8 27.8 0.6 41.6 0.7 14 0.1 27.9 0 41.9 0q41.5-0.1 83.1-0.6c15.6-0.1 31.2-1.1 46.8-1.1 0.7 0 0.6-1.1-0.1-1.1-14 0-28.1-0.7-42.2-0.9-13.8-0.2-27.7-0.2-41.5-0.2q-41.5-0.1-82.9 0c-15.5 0.1-31.1 0-46.6 0.9-1.5 0.1-1.7 2.2-0.1 2.3z"/><path class="c" d="m628.3 761.9c21.2 0.7 42.4 0.5 63.6 0.5 21 0 41.9-0.2 62.9-0.5q18-0.3 35.9-0.5c0.8 0 0.9-1.4 0-1.4-42.1-0.5-84.3-1-126.5-0.5-12 0.1-24 0.1-35.9 0.5-1.1 0.1-1 1.9 0 1.9z"/><path class="a" d="m607.2 695.1c0 0 8.3-9.3 3-31.8 55.5-0.1 205.4-0.4 213.7-0.4 8.3 0 18.6 5 19.2 18.9 0.7 13.9-18.5 13.9-25.7 14.6-7.3 0.6-210.2-1.3-210.2-1.3z"/><path class="b" d="m603.5 693.4c0 0 203.1-0.3 215.3-0.4 12.1 0 19.8-2.5 19.5-11.8-0.3-7.2-2.1-12.5-15.5-12.5-13.4 0-215.6-1.7-215.6-1.7l-2.5-7.1c0 0 209.8-0.4 220.3-0.4 10.5 0 23 2.5 23.1 21.3 0 18.9-18.8 20.6-23.9 21-5 0.4-224.5 0-224.5 0z"/><path class="c" d="m816.7 685.7c-13 0.8-26.1 0.6-39.1 0.7-13.1 0.2-26.2 0.1-39.3 0.2q-39 0-78.1-0.2c-14.6-0.1-29.3-0.9-43.9-0.9-0.7 0-0.6-1 0.1-1 13.1-0.1 26.4-0.8 39.6-1.1 13-0.2 26-0.2 39-0.3q38.9-0.2 77.9-0.3c14.5 0 29.2-0.1 43.7 0.7 1.4 0.1 1.6 2.1 0.1 2.2z"/><path class="c" d="m782.9 675.9c-19.9 0.7-39.8 0.7-59.7 0.7-19.7 0.1-39.4 0-59.1-0.3q-16.8-0.1-33.7-0.3c-0.8 0-0.8-1.3 0-1.3 39.6-0.6 79.2-1.2 118.8-0.9 11.3 0 22.5 0 33.8 0.4 1 0 0.9 1.7-0.1 1.7z"/><path class="a" d="m576.8 653.3c0 0 8.2-9.2 2.9-31.7 55.6-0.1 205.5-0.4 213.8-0.4 8.2 0 18.5 4.9 19.2 18.8 0.7 13.9-18.5 13.9-25.8 14.6-7.3 0.7-210.1-1.3-210.1-1.3z"/><path class="d" d="m573 651.7c0 0 203.2-0.4 215.3-0.4 12.2 0 19.9-2.5 19.5-11.8-0.3-7.2-2.1-12.6-15.5-12.5-13.4 0-215.5-1.7-215.5-1.7l-2.6-7.1c0 0 209.9-0.4 220.3-0.4 10.5-0.1 23.1 2.4 23.1 21.3 0.1 18.8-18.8 20.5-23.8 21-5 0.4-224.5 0-224.5 0z"/><path class="c" d="m786.3 643.9c-13 0.8-26.1 0.6-39.2 0.8-13.1 0.2-26.2 0.1-39.3 0.1q-39 0.1-78-0.2c-14.7-0.1-29.3-0.9-44-0.9-0.6 0-0.5-1 0.1-1 13.2 0 26.4-0.8 39.6-1 13-0.2 26-0.3 39-0.4q39-0.2 77.9-0.2c14.5 0 29.2-0.2 43.7 0.6 1.4 0.1 1.6 2.2 0.2 2.2z"/><path class="c" d="m752.5 634.2c-19.9 0.7-39.8 0.6-59.7 0.7-19.7 0.1-39.4-0.1-59.1-0.3q-16.9-0.2-33.8-0.3c-0.7-0.1-0.7-1.4 0-1.4 39.6-0.5 79.3-1.1 118.9-0.9 11.2 0.1 22.5 0.1 33.7 0.4 1 0.1 1 1.8 0 1.8z"/><path class="a" d="m617.5 611.4c0 0 8.8-9.9 3.1-33.8 59.2-0.1 218.8-0.4 227.6-0.4 8.8-0.1 19.8 5.2 20.5 20 0.7 14.8-19.7 14.8-27.4 15.6-7.8 0.7-223.8-1.4-223.8-1.4z"/><path class="e" d="m613.5 609.6c0 0 216.3-0.4 229.3-0.4 12.9 0 21.1-2.7 20.7-12.6-0.3-7.6-2.2-13.3-16.5-13.3-14.2 0-229.5-1.8-229.5-1.8l-2.7-7.6c0 0 223.4-0.4 234.6-0.4 11.1 0 24.5 2.6 24.6 22.7 0 20.1-20.1 21.9-25.4 22.4-5.4 0.4-239.1 0-239.1 0z"/><path class="c" d="m840.6 601.4c-13.9 0.8-27.8 0.6-41.7 0.8-13.9 0.2-27.9 0.1-41.8 0.1q-41.6 0.1-83.1-0.2c-15.7-0.1-31.3-1-46.9-1-0.7 0-0.6-1 0.1-1 14.1-0.1 28.1-0.8 42.2-1.1 13.8-0.3 27.7-0.3 41.5-0.4q41.5-0.2 83-0.2c15.5 0 31.1-0.2 46.5 0.6 1.5 0.1 1.7 2.3 0.2 2.4z"/><path class="c" d="m804.6 591c-21.2 0.7-42.4 0.7-63.6 0.8-21 0-41.9-0.1-62.9-0.4q-18-0.2-35.9-0.3c-0.8 0-0.9-1.4 0-1.5 42.1-0.5 84.3-1.2 126.5-0.9 12 0.1 24 0.1 35.9 0.4 1.1 0.1 1.1 1.9 0 1.9z"/><path class="f" d="m752.2 743.2c0 0-146.7 0.2-154.5 0.3-7.8 0-13.7-7.6-13.7-19.5-0.1-12 8.6-23.1 21.2-23.1 12.6 0 146.1 0 146.1 0z"/><path class="c" d="m621 714.2l84.6-0.1c4.5 0 8.1 3.6 8.1 8 0 4.5-3.6 8.1-8 8.1l-84.7 0.1c-4.4 0.1-8.1-3.5-8.1-8 0-4.5 3.6-8.1 8.1-8.1z"/><path class="a" d="m890.8 735.8c0 0-8.3-9.3-3-31.8-55.6 0.1-127.1 0.3-135.4 0.3-8.3 0-18.5 5-19.2 18.9-0.6 13.9 18.6 13.8 25.9 14.5 7.2 0.6 131.7-1.9 131.7-1.9z"/><path class="g" d="m894.5 734.1c0 0-124.7 0.2-136.9 0.3-12.1 0-19.8-2.5-19.5-11.8 0.3-7.2 2-12.5 15.4-12.5 13.4-0.1 137.2-2.4 137.2-2.4l2.5-7.1c0 0-131.4 0.2-141.9 0.3-10.5 0-23 2.5-23 21.4 0 18.8 18.9 20.5 23.9 20.9 5 0.4 146.1-0.7 146.1-0.7z"/><path class="c" d="m759.7 727c13 0.7 26.1 0.5 39.1 0.6 13.1 0.1-52.2 0.2-39.1 0.1q39 0 78-0.5c14.7-0.1 29.4-1 44-1 0.7 0 0.6-1-0.1-1-13.2 0-26.4-0.7-39.6-0.9-13-0.2-26-0.2-39-0.2-26 0 26.5-0.2 0.5-0.1-14.5 0.1-29.2-0.1-43.7 0.8-1.4 0.1-1.6 2.1-0.1 2.2z"/><path class="c" d="m793.4 717.1c19.9 0.7-38.6 0.7-18.7 0.7 19.7 0 39.4-0.3 59.1-0.6q16.9-0.2 33.8-0.4c0.7 0 0.7-1.4 0-1.4-39.7-0.4-0.9-1-40.5-0.6-11.2 0.1-22.5 0.2-33.7 0.6-1 0-1 1.7 0 1.7z"/><path class="h" d="m371.4 682.7l-10.5 50.7-4.9 23.9c0 0-2.3 4.1-6.5 10.6-15.7 24.6-57.5 83.8-101 91-15.5-20.7 24-174.4 25.1-176z"/><path class="c" d="m360.9 733.4l-4.9 23.9c0 0-2.3 4.1-6.5 10.6l-85 56.3c0 0 22.7-68 91.4-109.2 2.1 7.3 3.7 13.4 5 18.4z"/><path class="h" d="m721.6 672.2c0 0 21 122.1-2.6 147.3-69.2-46.2-86.2-117.2-86.2-117.2 0 0 64.2-32.9 88.8-30.1z"/><path class="b" d="m740.6 677.8c-23.3 1.3-88.6 32.8-102.9 39.8-1.7 0.8-2.7 1.3-2.7 1.3l0.3 160.4-284.8 0.6-0.3-168.5c0 0-9.1-1.9-26-5.8-20.4-4.7-31.9-3.7-72.4-14.9 8.5-74.7 68.1-195.2 104.7-201.5 27.9-4.7 49.2-0.2 57.8 2.2 2.7 0.7 4.1 1.3 4.1 1.3l20.6 3.7 113.2 20.3c0 0 4.1-0.4 10.6-1 2.6-0.2 5.4-0.5 8.4-0.7 21.8-1.5 52.1-1.8 68.5 6.2 24.3 11.9 74.1 83.8 100.9 156.6z"/><path class="g" d="m571.2 515c-1.5 34.9-16.3 96.7-79.3 94.4-67-2.4-76.4-86.4-77.6-118 2.7 0.7 4.1 1.3 4.1 1.3l20.6 3.7 113.2 20.3c0 0 4.1-0.4 10.6-1 2.6-0.2 5.4-0.5 8.4-0.7z"/><path class="c" d="m583.7 696.7c-8-0.4-16.1 0.3-24 1.2q-11.9 1.4-23.5 3.8c-15.6 3.3-30.9 7.9-45.6 13.7-29.4 11.7-57.1 28.2-81 49-6.8 6-13.4 12.3-19.6 18.9-3 3.2-6 6.5-8.8 9.9q-2.3 2.7-4.5 5.5c-1.4 1.7-2.6 3.7-4 5.4-0.5 0.8 0.6 1.7 1.2 0.9 2.6-3.2 5.5-6.1 8.2-9.2q4-4.4 8.1-8.7 8.2-8.5 17.1-16.2c11.8-10.3 24.5-19.7 37.9-27.9 26.7-16.5 56.2-28.7 86.8-35.7q12.7-2.9 25.6-4.7c8.7-1.1 17.5-1.7 26.3-2.7 2-0.2 1.9-3.1-0.2-3.2z"/><path class="c" d="m622.1 596c-7.6 14.1-18.8 38.8-18.8 61.8 7.3 7.3 13.6 12.7 19 16.7z"/><path class="c" d="m639.3 717.6c-1.8 0.8-2.8 1.3-2.8 1.3l0.2 108.8c-30.3-38.2-40.3-124.2-47.7-141.3-8.2-18.8-26-20.3-26-20.3 0 0-2.6-36.6 24.4-26 18.4 7.3 40 50.8 51.9 77.5z"/><path class="h" d="m562.8 515.7c0.3 22.6-8.8 79.8-67.3 82.5-67.8 3.1-68.3-102.1-68.3-102.1 0 0 4.5 0.1 11.8 0.3l113.2 20.3c0 0 4.1-0.4 10.6-1z"/><path class="c" d="m590 470c-1.4 17.1-5.4 32.4-13.2 39.9-20.1 19.1-99.9 38.7-99.9 38.7 0 0-56.9-32.2-62.5-62.6-0.2-1.3-3.8-9.9-5.6-23.3-2.1-15.1-1.9-36.3 7.9-59.7 18.5-43.9 79.4-51.8 102.4-45.5 22.9 6.3 26.4 27.7 26.4 27.7 0 0 24.7-2.6 35.5 15.9 6.6 11.3 11 42.2 9 68.9z"/><path class="i" d="m590 470c-1.4 17.1-5.4 32.4-13.2 39.9-20.1 19.1-99.9 38.7-99.9 38.7 0 0-56.9-32.2-62.5-62.6-0.2-1.3-3.8-9.9-5.6-23.3 4.1 5.3 9.5 11.7 12.5 12.7-0.1-15.8-0.3-21.7-0.3-21.7l11.5 15.6c0 0 0-16.7-1.3-22.8 22.2 9.7 60.3 9.1 60.3 9.1l-11.3-9.2c0 0 32.2 7.4 64.2 7.1 25.7-0.3 32.6-1.3 34.2-1.7l-24.2 7.3c0 0 10.8 13.2 35.6 10.9z"/><path class="j" d="m435.6 526.3c0.5-0.1 14.5 40.5 49.7 50 7.8 2.1 16 2 23.9 0 36.8-9.2 45.9-44.2 48.3-49.1 10.1 0.6 22.3-4.2 29.7-18.7 7.4-14.6 5.9-25.9-1.6-30.1-7.4-4.1-20.7 8.1-26.1 18.5-0.9-11.7 1.8-22.3 1.8-22.3l-6.9 11.3c0 0-7.1-19-8.9-25.8-10.7 3-42.5-3.5-42.5-3.5l22.6 8.6c0 0-45.5 8.1-85.6-7 5.1 19.3-0.6 30.9-0.6 30.9l-6.5-5.9 0.9 13.4c0 0-5.6-4.2-8.3-11.6-19.4-11.9-24.4-0.3-24.7 3.9-0.3 4.2 7.8 39.5 34.8 37.4z"/><path class="c" d="m456.4 496c0 0 8-4.5 16.5-1.8 8.6 2.6 13.7 11.1 13.7 11.1 0 0-2.6-17.6-15-16.9-10.8 0.6-15.2 7.6-15.2 7.6z"/><path class="c" d="m470.8 512.3c-4.5 0-8.3-3.7-8.3-8.3 0-4.5 3.7-8.3 8.3-8.3 4.6 0 8.3 3.7 8.3 8.3 0 4.6-3.7 8.3-8.3 8.3z"/><path class="c" d="m544.2 495.8c0 0-7.9-4.4-16.5-1.7-8.5 2.7-13.7 11.1-13.7 11.1 0 0 2.6-17.6 15-16.9 10.9 0.5 15.2 7.5 15.2 7.5z"/><path class="c" d="m529.9 512.2c-4.6 0-8.3-3.7-8.3-8.3-0.1-4.6 3.7-8.3 8.2-8.3 4.6 0 8.4 3.7 8.4 8.3 0 4.6-3.7 8.3-8.3 8.3z"/><path class="c" d="m508.3 476.2c0 0 2.6 4.7 5.4 5.9 3.5 1.4 26.4-0.9 32.3 0.9-7.1-12.5-20.4-5-37.7-6.8z"/><path class="c" d="m453.4 478.5c0 0 7.4-4.1 15.1-2 9.3 2.5 16.8 8.5 25.3 10.6-3.1-7.6-4.5-10.5-4.5-10.5 0 0-9.2-4.9-19.6-6.5-10.4-1.9-16.3 8.4-16.3 8.4z"/><path class="h" d="m494.9 489.4c0 0 20.9 20.5-0.7 42.6 5.8-21.8 0.7-42.6 0.7-42.6z"/><path class="h" d="m512.3 525.8c-1.6-3.7-13.5 4.9-13.4 6 5.9 0.6 15.6-1.1 13.4-6z"/><path class="h" d="m491.8 549.9c-0.5 0.5 7.8-2.6 17.7 1.8-2.5-9.3-13-7.4-17.7-1.8z"/><path class="c" d="m431 501.9q-0.6-1-1.2-2-1.2-2-2.6-3.8c-1.8-2.5-4.2-4.9-6.8-6.5-2.4-1.5-5-2.4-7.7-2.8-2.8-0.3-5.4 0.6-7.9 1.7-0.1 0-0.1 0.2 0 0.1 2.7-1.1 6-0.4 8.6 0.5 2.7 1 4.9 2.5 7 4.5 2 1.9 3.6 4.2 5.1 6.5q1.1 1.7 2.2 3.5c0.6 1.2 1.2 2.8 2.7 3 0.6 0.1 1.8-0.2 1.8-1.1 0-1.6-0.4-2.3-1.2-3.6z"/><path class="c" d="m432.7 515.1c-0.7-1.2-2.1-2-3.4-2.5-3.2-1.4-7.3-3.2-9.2-6.4-2.5-4 1.3-7.4 3-10.8 0-0.1-0.1-0.3-0.3-0.2-2.8 1.5-5.1 4.3-5.7 7.4-0.7 3.4 1.1 6.2 3.6 8.3 1.4 1.2 2.9 2.2 4.5 3.1 1.4 0.7 2.9 1.1 4.2 1.9 0.5 0.4 1.1 0.8 0.8 1.5-0.5 0.9-1.7 0.8-2.5 0.6-1.5-0.3-3.1-1-4.4-1.8-1.4-0.8-2.7-1.9-3.8-3.1-0.8-0.9-2.9-3.1-3.7-1-0.7 1.7 1.7 3.6 2.8 4.5 1.2 1 2.5 1.9 3.9 2.6 2.9 1.3 7.4 2.9 9.8-0.1 0.9-1.2 1.1-2.7 0.4-4z"/><path class="c" d="m584.2 483.4c-0.7 0.2-1.4 0.1-2.1 0.3q-1 0.3-2 0.7-2.1 0.9-4 2.1c-2.5 1.5-4.8 3.3-6.9 5.4-2.1 2.1-3.9 4.3-5.5 6.9q-1.1 1.8-1.9 3.8c-0.7 1.6-0.8 3.3-1 5-0.1 0.8 1 1 1.3 0.3 0.6-1.1 1.4-2.1 2-3.2 0.7-1.2 1.2-2.4 1.8-3.5q2-3.4 4.5-6.5c1.6-2 3.5-3.7 5.5-5.4q1.7-1.3 3.4-2.4 0.8-0.5 1.7-1c0.7-0.4 1.5-0.8 2.2-1.4 0.4-0.2 0.7-0.6 1.1-0.8 0.1-0.1 0-0.3-0.1-0.3z"/><path class="c" d="m575 512c-2 1.9-4.2 3.6-6.8 4.7-1 0.4-2.3 1-3.5 0.9-1.5-0.1-1.2-1.5-0.5-2.4 1.5-2 4.2-2.8 6.2-4.3 1.9-1.6 3.5-4 2.6-6.6-0.4-1.2-1.3-2.2-2.1-3.1-0.6-0.5-1.1-0.9-1.6-1.4-0.4-0.5-0.7-1.1-1.2-1.5-0.3-0.1-0.5 0-0.5 0.2-0.4 1 0.5 2.2 1.1 3 0.8 1.2 1.9 2.2 2.1 3.7 0.5 2.9-3.2 4.6-5.2 5.8-2.2 1.3-5.4 3.9-4.2 6.9 1.1 2.8 4.5 2.1 6.7 1.3 3.1-1.3 6.1-3.4 7.9-6.2 0.5-0.6-0.3-1.6-1-1z"/><path class="c" d="m583 487.4c-0.1-0.8-0.2-1.4-0.8-2.1-0.1 0-0.2 0-0.3 0.1-0.6 1.1-0.3 2.6-0.4 3.8-0.1 1.5-0.3 3.1-0.6 4.6q-0.5 2.1-1.3 4.2c-0.6 1.5-1.4 2.8-1.9 4.4-0.2 0.7 0.6 1.5 1.3 0.9 2.3-2.1 3.2-5.7 3.8-8.7 0.2-1.5 0.4-3.1 0.4-4.7q-0.1-1.3-0.2-2.5z"/><path class="c" d="m496.5 576.9c-10.6-2.5-20.5-6.4-29.6-12.3-9.1-5.9-16.9-14-22.9-22.8-1.6-2.3-3-4.8-4.4-7.2q-1.1-2-2-4c-0.7-1.4-1.6-2.7-2-4.1-0.1 0-0.1 0-0.1 0 0.3 1 0.4 1.9 0.6 2.9 0.4 1.4 0.9 2.7 1.4 4q1.5 3.9 3.5 7.5 4 7.3 9.7 13.5c7.4 8.2 16.6 15.1 26.8 19.7 5.7 2.7 11.9 4.8 18.3 5.7 2 0.3 2.7-2.4 0.7-2.9z"/><path class="c" d="m496.2 576.9c10.6-2.5 20.5-6.5 29.6-12.4 9.1-6 16.8-14 22.8-22.9 1.6-2.3 3-4.8 4.3-7.2q1.1-2 2.1-4.1c0.6-1.3 1.5-2.6 2-4 0-0.1 0.1 0 0 0-0.3 0.9-0.3 1.9-0.6 2.9-0.3 1.3-0.8 2.7-1.3 4q-1.5 3.8-3.5 7.5-4 7.3-9.6 13.6c-7.4 8.2-16.6 15.1-26.8 19.8-5.7 2.6-11.9 4.8-18.2 5.7-2 0.4-2.8-2.4-0.8-2.9z"/><path class="h" d="m511.8 652.3c-0.4 1.4 3.6 12.5 13.8 15.1 10.2 2.6 18.4 4.6 29.9 11.1 9.6 2.3 8.5-17.1 2.6-22.7-5.9-5.5-41.4-20.6-46.3-3.5z"/><path class="j" d="m554 590.6c-12.6 4.7-43 38.9-49.4 49.5-6.3 10.7-17.2 34.4-14.7 36.8 2.4 2.5 6 2.8 11.3 0 5.3-2.8 23.6-27.2 23.6-27.2 0 0 1.4 11.6 19.8 5.2 5.7 11.7 16.3 6.4 16.3 6.4 0 0-2.4 7.5 6.7 7.4 9.1-0.2 10.6-2.9 10.6-2.9 0 0 12.4 7.1 18.7 18.9 6.8 12.4 22.9 73 35 102.3 11.3 27.3 30.4 54 57.6 53.9 27.2 0 39.9-31.2 35.6-51.3-4.3-20.1-96-145.1-115.9-165.5-19.8-20.5-45.4-37.2-55.2-33.5z"/><path class="c" d="m721 780.9c-1-2-1.6-4.1-2.5-6.1q-1.4-3.4-3.2-6.6c-2.5-4.2-5-8.4-7.6-12.6-5.1-8.4-10.3-16.7-15.9-24.8-11.3-16.2-22.5-32.5-34.5-48.2-3.4-4.5-6.8-8.9-10.3-13.2-3.4-4.2-7.1-8-10.8-12 0 0-0.1 0 0 0.1 2.7 3.9 5.2 7.8 8.1 11.6q4.4 5.9 8.9 11.9 8.7 11.7 17.1 23.7c11.3 16.1 21.7 32.7 32 49.5q4.3 7 8.5 14.1c1.3 2.3 2.7 4.5 4.2 6.7 1.6 2.2 3.5 4.2 4.9 6.4 0.4 0.6 1.4 0.1 1.1-0.5z"/><path class="c" d="m549.6 615.9c-3.9 2.3-7.6 5.1-10.9 8.3-3.3 3.2-6 7-8.7 10.8-6.2 8.7-11.4 18-16.9 27.2-0.7 1.2 1 2.2 1.8 1.1 6.4-8.6 13.2-16.9 18.9-26.1 4.7-7.4 9-15.6 15.8-21.3q0 0 0 0z"/><path class="c" d="m560.1 632.2c-3.9 3.6-7.8 7.3-11.2 11.4-3.4 4-6.9 8.4-8.7 13.4-0.5 1.6 1.9 2.5 2.9 1.4 3.4-3.9 5.7-8.7 8.4-13 2.7-4.5 5.5-9 8.7-13.1 0-0.1-0.1-0.1-0.1-0.1z"/><path class="c" d="m575.5 644.6c-1.3 1.2-2.5 2.3-3.9 3.3-1.4 1-2.7 2.2-4.1 3.3-2.9 2.2-5.7 4.5-8.4 7-1.3 1.2-3.7 2.8-3.2 4.8 0.3 1.2 1.6 1.8 2.7 1.2 0.2-0.1 0.3-0.3 0.5-0.4q0 0.1 0 0.3 0.2-0.2 0.5-0.3c0.3-0.3 0.6-0.7 1-1 1.4-1.6 2.9-3.1 4.2-4.7 1.2-1.5 2.4-2.9 3.5-4.4 1.1-1.5 2.3-2.9 3.5-4.4 1.2-1.6 2.3-3.2 3.8-4.6 0-0.1-0.1-0.2-0.1-0.1z"/><path class="c" d="m593.5 649.6c-0.9 0.8-2.1 1.4-3 2.2q-1.1 0.9-2.2 1.7-2.5 1.9-4.9 4c-3 2.6-6.1 5-9.1 7.6-2.4 2-5.4 4.6-8.8 3.5-1.6-0.4-2.9-1.5-4.1-2.5-1.2-1.1-2.2-2.6-3.9-3.1-1-0.3-2.1 0.7-2 1.7 0.3 1.9 1.9 3.3 3.3 4.5 1.4 1.3 2.9 2.4 4.7 3.1 3.9 1.5 7.8 0.3 11-2.2 3.5-2.6 6.5-6 9.5-9.2 1.6-1.6 3.1-3.2 4.5-4.9 0.7-0.9 1.4-1.8 2.1-2.6 1-1.2 1.8-2.7 2.9-3.8 0.1 0 0-0.1 0 0z"/><path class="c" d="m601.1 664.3c-3.1-0.1-6.1-0.1-9.2-0.7-1.3-0.3-2.6-0.7-3.9-1.2-1.5-0.6-3.1-1.1-4.5-1.9-0.1 0-0.2 0.1-0.1 0.1 1 1.3 2.1 2.5 3.4 3.5 1.5 1 3.2 1.7 4.8 2.3 1.6 0.6 3.2 0.8 4.9 0.9 1.8 0.1 3.4-0.1 5.1-0.8 1.1-0.4 0.6-2.1-0.5-2.2z"/><path class="c" d="m541.5 654.7c-0.9 0.3-1.6 0.9-2.5 1.3-0.8 0.3-1.5 0.4-2.4 0.5-1.5 0.1-3.2-0.2-4.6-0.9-1.4-0.8-2.4-1.9-3.4-3.2-1.1-1.6-1.5-3.6-2.5-5.3-0.2-0.3-0.6-0.2-0.8 0-1.6 2-1 4.9 0 7 1.1 2.2 2.9 4 5 5.2 2.1 1.1 4.5 1.5 6.9 1.3 1.2-0.1 2.3-0.4 3.4-0.8 1.1-0.4 2.5-1.1 3.2-2.1 1-1.7-0.4-3.5-2.3-3z"/><path class="c" d="m559.8 661.6c-0.6-1.1-1.7-1.5-2.9-1.1-2.4 1-5.1 1-7.3 0-0.9-0.4-1.7-0.9-2.6-1.7q-0.6-0.5-1.2-1.1c-0.6-0.7-1.1-1.4-1.9-1.8-0.4-0.2-0.9 0.1-1 0.4-0.7 1.6 0.4 3.6 1.4 4.8 1 1.4 2.3 2.4 3.8 3.2 3.2 1.8 7.3 1.8 10.6 0.2 1-0.5 1.6-1.8 1.1-2.9z"/><path class="c" d="m350 576.9l0.2 134.5c0 0-9.1-1.9-26-5.8 2.1-41.4 25.8-128.7 25.8-128.7z"/><path class="c" d="m350 707.5c-3.2-1-6.6-1.3-9.9-1.7q-4.9-0.5-9.7-1.2-9.5-1.2-19-2.8c-12.8-2.1-25.6-4.5-38.4-7.2q-5.2-1.1-10.5-2.3-2.5-0.6-5-1.1c-2-0.5-4.1-0.5-6.1-1-0.8-0.2-1.2 1.3-0.4 1.6 1.6 0.4 3.1 1.3 4.7 1.8q2.4 0.7 4.8 1.4c3.1 0.9 6.3 1.7 9.5 2.5q9.4 2.4 18.9 4.4c12.8 2.7 25.7 4.9 38.6 6.7q5.4 0.7 10.8 1.4c3.7 0.4 7.7 1.1 11.4 0.7 1.9-0.2 2-2.7 0.3-3.2z"/><path class="c" d="m693.7 643c-7.9-0.5-15.7-1.2-23.5-3.2-3.6-0.9-7.2-2.2-10.7-3.6-3.8-1.5-7.7-3.2-11.3-5.2-0.6-0.4-1.2 0.7-0.6 1.1 3.4 2.4 6.8 4.5 10.6 6.3 3.6 1.7 7.5 3 11.3 4.1 7.8 2.1 16.2 3.1 24.3 2.1 0.9-0.2 0.9-1.6-0.1-1.6z"/><path class="c" d="m315.6 625.5c-13.8 3.3-26.2 13.2-34.3 24.5-0.5 0.7 0.5 1.5 1 0.8 4.3-5.5 9.4-10.3 15.1-14.2 5.9-4 12.3-6.7 18.9-9.1 1.1-0.4 0.4-2.2-0.7-2z"/><path class="b" d="m579.1 451.6c-0.1 0-0.2 0.1-0.5 0.2z"/><path class="i" d="m537.7 405.2c-0.8-0.7-1.9-1.2-2.8-1.8q-1.2-0.8-2.6-1.4c-1.8-0.9-3.7-1.6-5.7-2.1-1.9-0.5-3.8-0.8-5.8-0.7-2.1 0-4.1 0.5-6.2 0.7-0.1 0-0.1 0.2 0 0.2 2-0.2 3.9 0.2 5.9 0.6 1.8 0.4 3.7 0.9 5.4 1.6 1.8 0.6 3.4 1.5 5 2.4q1.2 0.8 2.3 1.6c0.8 0.6 1.4 1.4 2.1 2 2 1.6 4.2-1.4 2.4-3.1z"/><path class="i" d="m537.7 400c-0.8-2-1.9-3.9-3.2-5.7-2.5-3.4-6.1-5.9-10.1-7.6-0.1 0-0.2 0.2-0.1 0.3 3.2 2.3 5.6 5.5 7.6 8.9 0.9 1.6 1.7 3.5 2.2 5.3 0.3 0.9 0.5 1.9 0.7 2.8 0.2 1.1 0.2 2.1 0.6 3.1 0.8 1.8 3.3 1.4 3.7-0.5 0.4-2.1-0.6-4.7-1.4-6.6z"/><path class="i" d="m558.6 398.2c-4-1.3-8.6-1-12.7 0.2-2.1 0.6-4.1 1.4-6 2.4-1.7 1-4.7 2.4-5.1 4.5-0.2 0.9 0.5 2 1.5 1.9 1.2-0.1 2-0.8 2.9-1.5q1.1-0.9 2.3-1.7c1.8-1.1 3.6-2.1 5.6-2.9 3.7-1.4 7.6-2.1 11.5-2.6 0.1 0 0.2-0.2 0-0.3z"/><path class="i" d="m555.5 405.7c-3-0.7-6.1-1.4-9.2-1.5q-2.3-0.1-4.6 0c-1.6 0-3.5 0-5 0.7-2.2 0.9-1.2 4 1 3.8 0.8 0 1.7-0.4 2.5-0.6q1.1-0.3 2.2-0.6 2-0.5 4.1-0.9c3-0.4 6-0.8 9-0.7 0.1 0 0.1-0.2 0-0.2z"/><path class="d" d="m351.1 850.6l-16.4 8.7h10.9c0 0 38.1-23.1 73.6-24.5 35.5-1.5 54.3 18.1 65.7 17.7 11.3-0.5 32.9-21.5 60.3-19.4 27.5 2 73.5 22.2 73.5 22.2 0 0 15.8 2 14.8 1.7-1.1-0.4-47.4-42.3-97-39.8-49.7 2.4-53.8 20.1-53.8 20.1 0 0-27.2-25-63.7-24.6-36.6 0.5-67.9 37.9-67.9 37.9z"/><path class="a" d="m486.5 814.9c-0.2 13.3-3.8 22.4-3.8 22.4l-35.7-30.9c0 0 0.5-3.9-3-10.7-3.7-6.9-11.6-16.9-28.9-28.8-22.1-33.2-3.9-39.5-3.9-39.5 0 0 39.8 11.8 62.2 44 10.8 15.5 13.4 31.3 13.1 43.5z"/><path class="c" d="m486.5 814.9c-0.2 13.3-3.8 22.4-3.8 22.4l-35.7-30.9c0 0 0.5-3.9-3-10.7 11.2 1.8 30 6.5 42.5 19.2z"/><path class="a" d="m485.3 823.7c0 0-32.3-32.5-72.4-26-40.2 6.4-85.1 50-106.9 53.3 14.9 6.2 34.9 3.2 45.1-0.4 10.2-3.7 51.6-25.2 75.3-27.1 23.6-1.9 58.6 25.4 58.6 25.4z"/><path class="c" d="m480 823.9c-7.3-6-16.9-9.8-26-12.4-9.3-2.7-19.1-4.1-28.9-3.9-9.8 0.1-19.6 1.7-28.9 4.9-9.9 3.4-19 8.6-27.9 13.9-10.2 6.2-20.1 13-31.1 17.6q0 0 0 0c9.9-3.4 19.2-8.3 28.2-13.6 8.8-5.1 17.6-10.4 27.2-14.2 17.8-7 38-8 56.5-3.5 5.3 1.3 10.6 3.1 15.6 5.3 4.9 2.2 9.5 5 14.2 7.6 1.2 0.6 2.2-0.9 1.1-1.7z"/><path class="c" d="m480.5 834.7c-3.9-4.4-8.7-7.5-13.8-10.2-5.1-2.7-10.6-4.8-16.2-6.3-5.6-1.6-11.5-2.4-17.4-2.6-5.8-0.2-11.3 0.8-17.1 1.7-0.1 0 0 0.1 0 0.1 5.6-0.9 11.7-0.5 17.2 0 5.6 0.5 11 1.5 16.3 3.1 5.5 1.5 10.8 3.7 15.9 6.3 4.9 2.6 9.4 5.9 14.2 8.8 0.5 0.3 1.4-0.3 0.9-0.9z"/><path class="c" d="m327.9 846.2c-1.5 0.5-2.8 1.2-4.1 1.9q-2 1.1-4.1 2.3-3.8 2.2-7.7 4.4c-0.1 0-0.1 0.1 0 0.1q4.2-1.9 8.4-3.7 2-0.9 4.1-1.8c1.3-0.7 2.7-1.3 3.9-2.2 0.6-0.4 0.1-1.1-0.5-1z"/><path class="c" d="m336.7 848.1c-3.4 1.3-6.7 2.9-10.1 4.3-3.4 1.4-6.7 2.8-10.2 4-0.1 0-0.1 0.1 0 0.1 7.1-1.7 14.6-3.6 21-7.3 0.7-0.3 0-1.3-0.7-1.1z"/><path class="c" d="m400.5 818.8c-6.1 3.2-12.3 6.3-18.4 9.4-6 3-11.9 6.3-17.9 9.3-6 3-11.8 6.2-17.6 9.6-5.8 3.3-11.4 7.2-17.3 10.4-0.1 0 0 0.1 0.1 0.1 6-3.3 12.5-6 18.7-9.1 6-3.1 12-6.3 17.9-9.8 5.6-3.3 11.4-6.2 17-9.5 5.9-3.5 11.7-6.9 17.7-10.2 0.1-0.1 0-0.3-0.2-0.2z"/><path class="a" d="m484.4 823.7c0 0 32.2-32.6 72.4-26.3 40.1 6.3 85.2 49.7 107 52.9-14.9 6.3-34.9 3.4-45.1-0.2-10.2-3.7-51.7-25-75.3-26.8-23.7-1.8-58.6 25.6-58.6 25.6z"/><path class="c" d="m489.7 823.9c7.3-6.1 16.9-9.9 26-12.5 9.3-2.8 19.1-4.2 28.8-4.1 9.9 0.1 19.7 1.7 29 4.9 9.9 3.3 19 8.5 27.9 13.8 10.2 6.1 20.2 12.9 31.2 17.5q0 0 0 0c-9.9-3.4-19.2-8.2-28.2-13.5-8.9-5.1-17.7-10.4-27.3-14.1-17.9-7-38-7.9-56.5-3.3-5.4 1.3-10.6 3.1-15.6 5.4-4.9 2.2-9.5 5-14.2 7.6-1.1 0.6-2.1-0.9-1.1-1.7z"/><path class="c" d="m489.3 834.7c3.8-4.4 8.6-7.5 13.7-10.3 5.1-2.7 10.6-4.8 16.2-6.4 5.6-1.5 11.5-2.4 17.4-2.6 5.8-0.2 11.3 0.8 17.1 1.7 0.1 0 0 0.1 0 0-5.6-0.8-11.6-0.4-17.2 0.1-5.6 0.5-11 1.6-16.3 3.1-5.5 1.6-10.8 3.8-15.8 6.5-4.9 2.6-9.5 5.8-14.2 8.8-0.5 0.3-1.4-0.3-0.9-0.9z"/><path class="c" d="m641.9 845.7c1.5 0.4 2.8 1.1 4.1 1.8q2.1 1.1 4.1 2.3 3.9 2.2 7.8 4.4c0 0 0 0 0 0q-4.2-1.8-8.4-3.6-2.1-0.9-4.2-1.8c-1.3-0.7-2.7-1.3-3.9-2.2-0.5-0.4-0.1-1.1 0.5-0.9z"/><path class="c" d="m633.1 847.6c3.4 1.2 6.7 2.8 10.1 4.2 3.4 1.4 6.8 2.8 10.3 4 0 0 0 0.1 0 0.1-7.2-1.7-14.6-3.5-21.1-7.2-0.6-0.4 0-1.4 0.7-1.1z"/><path class="c" d="m569.2 818.5c6.1 3.2 12.3 6.2 18.5 9.3 6 3 11.8 6.3 17.9 9.3 6 2.9 11.8 6.2 17.6 9.5 5.9 3.3 11.4 7.1 17.3 10.3 0.1 0 0.1 0.1 0 0.1-6.1-3.3-12.6-5.9-18.7-9-6.1-3.1-12.1-6.3-18-9.7-5.6-3.3-11.4-6.2-17.1-9.5-5.8-3.4-11.7-6.8-17.7-10.1-0.1-0.1 0-0.3 0.2-0.2z"/><path class="j" d="m477.3 754.2c3.8-2 3.8-7.6 0.2-10-13.2-8.6-52.9-33.3-73.3-31.7-24.8 2-55.7 20.1-79 44.5-23.3 24.3-62.8 50.6-71.8 64.9-9 14.3-13.7 35.5 3.1 51.5 11 10.5 47.5 9.6 66.3-12.5 16.5-19.5 29-41.2 49.1-78.8 35.2 5.2 45.3 2.8 51.9-3.9 17.1-0.5 16.2-7.6 16.2-7.6 0 0 11.7-4.8 10.4-7.2-1.2-2.4-32.9-11.2-42.4-29.9 24.8 2.8 61.9 21.8 67.2 21.3q1.2-0.1 2.1-0.6z"/><path class="c" d="m441.2 768.6c-4.8-0.4-9.5-0.4-14.2-1.2q-6.8-1.2-13.2-3.9c-4.2-1.8-8.2-4-12-6.5-3.8-2.4-7.7-5.2-11-8.3-0.1-0.2-0.4 0.1-0.3 0.3 2.9 4.1 5.8 7.6 9.7 10.8 3.7 3.1 8 5.5 12.3 7.4 4.4 2 8.9 3.4 13.5 4.3 4.8 1 10.2 1.6 15 0.8 2-0.3 2.4-3.6 0.2-3.7z"/><path class="c" d="m425.2 776c-4.1-0.8-8.6-0.3-12.8-0.5-4.4-0.2-8.7-0.6-13-1.4-4.1-0.7-8.2-1.7-12.2-2.9-4.3-1.4-8.9-3-13.1-5-0.9-0.4-1.7 1.1-0.8 1.6 2 1.3 4 2.7 6.1 3.7q3 1.5 6.2 2.7 6.3 2.5 13 4c4.4 0.9 8.9 1.5 13.4 1.7 4.4 0.1 9.4 0.3 13.5-1.5 1.1-0.4 0.8-2.2-0.3-2.4z"/><path class="c" d="m375.8 782.5c-2.2-0.2-4.3-0.2-6.5-0.2q-3.5-0.1-7-0.5c-0.4 0-0.5 0.5-0.1 0.6 2.2 0.2 4.4 0.6 6.7 1 2.2 0.5 4.5 1 6.7 1.2 1.4 0.2 1.5-1.9 0.2-2.1z"/><path class="e" d="m704.5 642.1c0 0-23.8-21.3-16.8-28.1 6.9-6.7 17.4 15.7 17.4 15.7 0 0-8.3-27.9 3.4-31.2 11.8-3.2 6.4 31.6 6.4 31.6 0 0 3-17.9 14.6-15.5 11.5 2.4-14.8 30-14.8 30z"/><path class="k" d="m747.3 685.4c0 0 15.7-22 41.7-16.9 26.1 5.1 17.6 53.4-38.8 56.7-29.7-3.1-2.9-39.8-2.9-39.8z"/><path class="k" d="m753.3 728.4c-1.5 18.3-4 33.3-4 33.3l-73.4 0.1c0 0-1.3-8.7-2.8-20.8-2.3-18.5-4.9-45.2-3.7-61.5 1.9-27 24.4-44.3 43.3-45.2 25.3-1.1 33.9 16.7 39.8 44.2 2.9 13.2 2.2 33 0.8 49.9z"/><path class="c" d="m753.3 728.4c-1.5 18.3-4 33.3-4 33.3l-73.4 0.1c0 0-1.3-8.7-2.8-20.8 17.3 1.2 56.4 2.1 80.2-12.6z"/><path class="c" d="m754.1 692.9c-0.3-4.6-0.9-9.2-1.5-13.7-0.1-0.3-0.5-0.3-0.5 0 0.1 8.9 0.1 17.8 0 26.7q-0.1 6.6-0.5 13.1-0.1 3.3-0.4 6.6c-0.1 2.3-0.5 4.7-0.5 7.1 0.1 1.1 1.8 1.5 2.1 0.3 0.9-4.3 0.9-9 1.1-13.4q0.4-6.7 0.5-13.4c0-4.4 0-8.9-0.3-13.3z"/><path class="c" d="m696.7 669c-0.4-1-1.1-1.8-1.6-2.7q-0.9-1.5-1.8-2.9-0.8-1.5-1.7-2.9c-0.6-1-1.4-1.8-1.8-2.8-0.1 0-0.1 0-0.1 0 0.5 1.1 0.7 2.2 1.1 3.3q0.7 1.5 1.5 3 0.8 1.4 1.6 2.8c0.6 0.9 1.1 1.9 1.9 2.7 0.4 0.5 1.2 0.1 0.9-0.5z"/><path class="c" d="m688.6 686.1c-0.9-1.9-2.1-3.5-3.4-5.2-1.3-1.7-2.8-3.3-4-5.1 0 0-0.1 0-0.1 0.1 1.1 1.7 1.9 3.7 2.9 5.5 1 1.9 2.1 3.8 3.5 5.4 0.5 0.6 1.5 0 1.1-0.7z"/><path class="c" d="m714.5 663.1q-0.1-0.7-0.2-1.5c-0.1-1-0.2-1.9-0.3-2.9-0.3-2.1-0.8-4.3-0.9-6.4 0-0.1-0.1-0.1-0.1 0 0.1 2-0.1 4.1-0.2 6.2 0 1 0 2 0 3q0 0.8 0 1.6c0 0.6 0.1 0.9 0.3 1.5 0.2 0.4 1 0.5 1.2 0 0.1-0.6 0.2-0.9 0.2-1.5z"/><path class="c" d="m733.8 662c-1 1.9-2 3.7-3 5.7-0.9 1.9-2 3.7-2.6 5.8-0.2 0.8 1 1.6 1.4 0.7 1.1-1.9 1.7-4 2.4-6.1 0.6-2 1.3-4 1.9-6.1 0-0.1-0.1-0.1-0.1 0z"/><path class="c" d="m714.5 682.8c0-0.1-0.2-0.2-0.2-0.1-0.4 2.2-0.7 4.4-1.1 6.5q-0.3 1.6-0.6 3.3c-0.2 1.1-0.6 2.2-0.4 3.3 0.1 0.9 1.5 0.9 1.8 0 0.3-1 0.2-2.1 0.2-3.2q0-1.7 0.1-3.4c0-2.1 0.1-4.3 0.2-6.4z"/><path class="c" d="m692.7 703.4q-0.9-1.6-1.9-3.1-1-1.4-2-2.8c-0.4-0.4-0.7-0.8-1-1.2-0.5-0.5-1.1-0.9-1.5-1.5-0.1 0-0.2 0-0.1 0.1 0.4 0.5 0.5 1.1 0.8 1.7 0.2 0.5 0.5 1 0.8 1.5q0.8 1.5 1.6 3 0.7 1.5 1.4 3.1c0.5 1 0.8 2.3 1.7 3 0.5 0.5 1.6 0.3 1.5-0.5 0-1.2-0.7-2.3-1.3-3.3z"/><path class="c" d="m682.5 725.1c-0.2-0.9-1.1-1.8-1.7-2.5q-0.9-1.1-1.8-2.2-0.9-1.2-1.8-2.3c-0.7-0.8-1.5-1.7-2.1-2.6-0.1 0-0.2 0-0.1 0.1 0.6 0.8 1 1.8 1.6 2.7q0.7 1.2 1.5 2.5 0.7 1.2 1.5 2.5 0.4 0.7 0.8 1.4c0.3 0.4 0.5 0.9 0.9 1.2 0.5 0.3 1.4-0.1 1.2-0.8z"/><path class="c" d="m707.9 722.5q-0.1-0.6-0.3-1.2-0.4-1.6-1-3.1c-0.6-1.8-1.2-3.5-1.8-5.2-0.1-0.1-0.2-0.1-0.2 0 0.3 1.8 0.5 3.7 0.8 5.6q0.1 1.3 0.4 2.7 0.2 0.7 0.3 1.4 0.1 0.3 0.2 0.6c0.1 0.4 0.2 0.5 0.5 0.9 0.3 0.3 1 0.3 1.1-0.2 0.1-0.3 0.2-0.5 0.2-0.8 0-0.2-0.1-0.5-0.2-0.7z"/><path class="c" d="m735.1 711.6c-1 1.8-2.3 3.5-3.5 5.3q-0.8 1.3-1.7 2.6c-0.4 0.7-1.4 1.7-0.9 2.7 0.1 0.3 0.4 0.4 0.7 0.4 0.8-0.1 1.1-0.8 1.4-1.5q0.3-0.6 0.6-1.2 0.5-1.4 1.1-2.7c0.8-1.8 1.5-3.7 2.4-5.5 0.1-0.1-0.1-0.2-0.1-0.1z"/><path class="c" d="m735.3 686c-1.5 1.7-2.9 3.6-4.1 5.6q-0.9 1.4-1.8 3-0.4 0.7-0.8 1.5c-0.3 0.7-0.4 1.1-0.3 1.9 0 0.5 0.8 0.7 1.2 0.4 0.6-0.5 0.8-1 1.1-1.7q0.3-0.7 0.6-1.5 0.7-1.6 1.4-3c0.9-2.1 1.8-4.1 2.8-6.1 0.1-0.1 0-0.2-0.1-0.1z"/><path class="c" d="m746.8 683.7c-0.2 0.4-0.5 0.8-0.7 1.2q-0.3 0.7-0.5 1.3-0.5 1.3-1 2.5-0.5 1.2-1 2.5c-0.3 0.8-0.7 1.7-0.7 2.7-0.1 0.6 0.8 1 1.2 0.4 0.4-0.7 0.7-1.6 0.9-2.4q0.4-1.5 0.7-3 0.4-1.3 0.6-2.5 0.2-0.7 0.3-1.3c0.1-0.4 0.1-1 0.2-1.4 0 0 0-0.1 0 0z"/><path class="c" d="m729.1 643c-0.1 0.2-0.2 0.4-0.3 0.5-0.1 0.2-0.3 0.3-0.4 0.4-0.3 0.3-0.5 0.5-0.7 0.7q-0.5 0.8-1 1.7-0.6 0.9-1.1 1.8-0.2 0.5-0.5 0.9-0.1 0.2-0.2 0.4c-0.1 0.3-0.2 0.5-0.2 0.8-0.2 0.8 0.9 1.3 1.4 0.8 0.2-0.2 0.3-0.4 0.5-0.6 0.2-0.2 0.2-0.5 0.4-0.8q0.2-0.5 0.4-0.9 0.3-0.9 0.7-1.7 0.4-0.9 0.6-1.8c0.1-0.3 0.2-0.6 0.2-0.9 0.1-0.4 0.2-0.8 0.4-1.2 0-0.1-0.2-0.2-0.2-0.1z"/><path class="c" d="m688.3 647.7c-0.1-0.2-0.2-0.6-0.3-0.8-0.1-0.3-0.2-0.4-0.4-0.6q-0.3-0.5-0.7-1-0.7-1-1.5-2c-1-1.4-2-2.7-3.1-4-0.1 0-0.2 0-0.1 0.1 0.7 1.5 1.4 3 2.2 4.5q0.7 1.2 1.3 2.4 0.3 0.5 0.6 1.1c0.2 0.4 0.6 0.6 0.9 1 0.5 0.5 1.4 0 1.1-0.7z"/><path class="c" d="m678.6 660.3c-0.2-0.4-0.4-0.9-0.7-1.3q-0.4-0.4-0.8-0.9-0.8-0.9-1.5-1.8c-0.5-0.6-1-1.2-1.6-1.8-0.6-0.5-1.1-1-1.7-1.6 0-0.1-0.1 0-0.1 0.1 0.4 0.7 0.7 1.4 1 2.1 0.3 0.8 0.8 1.4 1.2 2.1q0.6 1 1.2 2 0.4 0.6 0.7 1.1c0.3 0.4 0.6 0.7 0.9 1 0.7 0.7 1.9 0 1.4-1z"/><path class="c" d="m674.9 686.6c-0.7-1-1.3-1.9-2.1-2.7q-1.3-1.2-2.7-2.3-1.2-1.1-2.5-2c-0.6-0.3-1.1-0.6-1.6-1q-0.6-0.5-1.3-0.9c0-0.1-0.1 0 0 0.1 0.4 0.4 1 0.7 1.4 1.1 0.4 0.4 0.7 0.8 1.1 1.2q1.1 1.2 2.3 2.4 1.1 1.2 2.2 2.4c0.7 0.9 1.6 1.7 2.4 2.5 0.5 0.5 1.2-0.3 0.8-0.8z"/><path class="c" d="m674.4 706.6c-0.6-0.8-1.3-1.7-2-2.4q-1.1-1.1-2.2-2.1c-0.8-0.6-1.5-1.2-2.3-1.8-0.9-0.6-1.7-1.2-2.7-1.6 0 0-0.1 0 0 0.1 0.5 0.8 1.3 1.4 2 2.1 0.8 0.7 1.5 1.4 2.3 2.1q1 1 2 2c0.7 0.8 1.5 1.4 2.3 2.1 0.3 0.4 0.9-0.1 0.6-0.5z"/><path class="c" d="m747 649.4c-0.2 0.3-0.4 0.7-0.7 0.9-0.3 0.3-0.5 0.5-0.8 0.8q-0.7 0.7-1.4 1.5-0.6 0.8-1.3 1.7c-0.4 0.5-0.9 1.1-1.3 1.8-0.3 0.7 0.7 1.4 1.2 0.8 0.6-0.5 0.9-1.1 1.3-1.8q0.6-0.9 1.1-1.8c0.4-0.6 0.8-1.3 1-1.9 0.2-0.4 0.3-0.7 0.5-1 0.1-0.3 0.4-0.6 0.6-0.9 0.1-0.1-0.1-0.2-0.2-0.1z"/><path class="c" d="m752.9 661.1c-0.3 0.6-0.8 1.1-1.2 1.6q-0.5 0.7-1 1.4-1 1.4-1.9 2.7c-1.3 1.9-2.6 3.8-3.7 5.8-0.4 0.8 0.6 1.6 1.1 0.8 1.4-1.9 2.5-4 3.7-6.1q0.8-1.4 1.5-2.8 0.4-0.7 0.8-1.5c0.3-0.6 0.5-1.2 0.9-1.8 0-0.1-0.1-0.1-0.2-0.1z"/><path class="c" d="m772.4 678.7c-0.3 0.4-0.6 0.7-0.9 1q-0.4 0.4-0.9 0.8-0.8 0.8-1.6 1.7-0.7 0.8-1.4 1.6l-0.8 0.9c-0.4 0.4-0.6 0.8-0.7 1.4-0.1 0.6 0.6 1 1 0.8 0.4-0.3 0.8-0.5 1.1-0.9 0.2-0.3 0.4-0.6 0.6-1q0.6-1 1.3-2 0.6-1 1.2-2.1 0.3-0.5 0.5-1c0.2-0.4 0.5-0.7 0.7-1.1 0.1-0.1-0.1-0.1-0.1-0.1z"/><path class="c" d="m777.6 692.8q-2 0.7-3.9 1.4c-1.4 0.4-2.7 0.9-4 1.4-0.8 0.3-0.3 1.5 0.5 1.2 1.3-0.6 2.6-1.3 3.8-2q1.8-1 3.6-1.9c0.1 0 0.1-0.1 0-0.1z"/><path class="c" d="m782.5 701.2c-2.3 0.6-4.7 1-7 1.5q-1.6 0.4-3.3 0.8-0.9 0.2-1.8 0.4c-0.5 0.1-1.1 0.2-1.5 0.6-0.3 0.2-0.2 0.7 0.2 0.8 0.6 0.1 1.1-0.1 1.6-0.2l1.8-0.6q1.6-0.4 3.2-1c2.3-0.7 4.5-1.5 6.8-2.1 0.1-0.1 0.1-0.2 0-0.2z"/><path class="c" d="m768 717.5c-0.6-0.6-1.1-1.3-1.7-1.8q-1-0.9-2.1-1.6-1.1-0.8-2.2-1.4-0.5-0.3-1-0.6c-0.3-0.2-0.5-0.3-0.8-0.4q-0.3-0.1-0.6-0.1c-0.6 0-1.1 0.7-0.7 1.2 0.4 0.3 0.6 0.6 1.1 0.8q0.5 0.3 1.1 0.6 1.1 0.6 2.3 1.2 1 0.6 2.1 1.1c0.8 0.4 1.6 0.7 2.4 1.1 0 0 0.1-0.1 0.1-0.1z"/><path class="c" d="m759.1 681.8q-0.7 0.7-1.3 1.4-0.4 0.4-0.7 0.7-0.3 0.4-0.5 0.8c-0.1 0.2-0.2 0.4 0 0.5 0.1 0.1 0.3 0.1 0.4-0.1q0.4-0.3 0.7-0.7 0.2-0.4 0.5-0.8 0.5-0.9 1-1.7c0-0.1-0.1-0.1-0.1-0.1z"/><path class="c" d="m777.8 661.6q-1.1 1.6-2.3 3-1.2 1.4-2.3 2.8-1.1 1.5-2.2 2.9c-0.7 0.9-1.5 1.9-2.1 2.9-0.6 1 0.8 1.9 1.4 1 0.8-1 1.3-2.1 1.9-3.1q1-1.6 2-3.2 0.9-1.5 1.7-3.1c0.7-1.1 1.3-2.1 2-3.1 0-0.1-0.1-0.2-0.1-0.1z"/><path class="c" d="m792.5 679.4c-0.4-0.6-1.9 0.1-2.4 0.3q-1.7 0.5-3.4 1c-2.3 0.7-4.7 1.3-6.9 2.2-0.8 0.4-0.4 1.7 0.5 1.5 2.4-0.5 4.6-1.5 6.9-2.4q1.7-0.6 3.3-1.3c0.4-0.1 2.3-0.7 2-1.3z"/><path class="c" d="m794 691.2q-3 0.6-5.9 1.1c-1.9 0.3-3.8 0.6-5.6 1.3-0.5 0.2-0.3 1 0.3 1 1.9-0.2 3.7-0.9 5.6-1.5q2.8-0.9 5.6-1.8c0.1 0 0-0.1 0-0.1z"/><path class="c" d="m796.1 711.2c-2.1-0.1-4.1-0.6-6.1-1-2.1-0.4-4.2-0.6-6.3-0.6-0.8 0-0.7 1.2 0 1.3 2 0.4 4.1 0.4 6.2 0.4 2 0 4.1-0.2 6.2 0 0 0 0-0.1 0-0.1z"/><path class="c" d="m805.2 684.6q-2.1-0.1-4.3 0.2-1.1 0.1-2.2 0.3c-0.7 0.1-1.3 0.4-2 0.7-0.5 0.2-0.2 0.9 0.2 0.7 0.7-0.1 1.4-0.2 2.1-0.5q0.9-0.3 1.9-0.6 2.1-0.6 4.3-0.7c0.1 0 0.1-0.1 0-0.1z"/><path class="c" d="m802.1 670.3q-2.8 0.7-5.6 1.4c-1.8 0.4-3.6 1-5.5 1.6-0.4 0.2-0.2 0.8 0.3 0.7 1.8-0.5 3.7-1 5.5-1.7q2.7-1 5.4-1.9c0 0 0-0.2-0.1-0.1z"/><path class="l" d="m778.3 759.6c-0.5 3.2-1.2 7-1.8 11q-0.3 1.7-0.7 3.5c-2.6 15.4-6 33.5-8.8 44.1-5.4 21-19.7 23.8-19.7 23.8l1.8 7.6 1.2 5-78.7 0.1 2.2-9.1 0.8-3.4c0 0-14.3-2.8-19.9-23.8-2.7-10.3-6-27.7-8.7-42.7q-0.2-1.3-0.5-2.5c-0.8-4.9-1.6-9.5-2.3-13.4-1.1-6.8 4.1-13.1 11.1-13.1l112.9-0.2c6.9 0 12.3 6.2 11.1 13.1z"/><path class="c" d="m749.1 849.6l-75.3-4 0.8-3.4c1.9 0.9 72.7-0.2 72.7-0.2z"/><path class="c" d="m776.5 770.6q-0.3 1.7-0.7 3.5-0.3-0.2-0.6-0.5c-2.8-2.1-5.9-3.8-9.4-4.3-3.4-0.5-6.7 0.3-9.4 2.4-2.3 1.7-4.1 3.7-6.2 5.5-1.9 1.6-4.1 3-6.5 3.6-3 0.8-6.1 0.2-8.9-0.9-5.8-2.4-9.9-7.2-15.5-9.9-9.6-4.4-18.2 3.7-26.5 7.3-4.4 1.9-9.1 2.8-13.7 1.2-5.3-1.8-9.1-6.2-14.2-8.3-5.5-2.4-11.9-0.3-16.5 3.3q-1.3 1-2.4 2.2-0.2-1.3-0.5-2.5 1.7-1.7 3.6-3.1c5.2-3.8 11.9-5.3 17.9-2.7 5.1 2.3 9.2 7 14.7 8 4.7 0.9 9.2-1.2 13.2-3.3 4.4-2.3 8.6-5.1 13.5-6.4 5.4-1.6 10.6-0.4 15.3 2.6 5.3 3.3 10.1 8.8 16.6 9.2 5.7 0.4 9.3-4.8 13.4-8 7.2-5.6 15.8-3.7 22.8 1.1z"/><path class="c" d="m71.4 683.9c-9 0-21 5.3-18.5 21.5 2.4 16.2 26.4 129.4 27.4 138.4 1 9.1 3.8 22.4 13.9 22.9 10 0.4 222-0.5 230.6-0.5 8.6 0 12.4-6.7 11.9-13.8-0.5-7.2-28.9-146.1-30.8-158-2-11.9-11.5-12.8-27.7-11.8-13.4 0.8-206.8 1.3-206.8 1.3z"/><path  d="m336.7 852.4c-0.5-7.2-28.9-146.1-30.9-158-1.9-11.8-11.3-12.8-27.3-11.9 8 0.9 12.8 3.9 14.1 11.9 1.9 11.9 30.3 150.9 30.8 158 0.4 6.8-3 13.1-10.7 13.8v0.1c6.7-0.1 11-0.1 12.1-0.1 8.6 0 12.3-6.7 11.9-13.8z"/><path class="a" d="m65.1 705.1l3 21c0.6 3.5 3.5 5.9 6.9 5.7l29.9 0.1c4.2-0.2 7.4-4.2 6.9-8.4l-2.7-21.7c-0.5-3.5-3.3-6-6.8-5.9l-30.2 0.7c-4.3 0.1-7.7 4.2-7 8.5z"/><path class="c" d="m77.1 717.5c-4.6 0-8.4-3.7-8.4-8.3 0-4.6 3.7-8.4 8.4-8.4 4.6 0 8.3 3.7 8.3 8.4 0 4.6-3.7 8.3-8.3 8.3z"/><path class="i" d="m77.1 713.9c-2.6 0-4.8-2.1-4.8-4.7 0-2.6 2.1-4.8 4.8-4.8 2.6 0 4.7 2.1 4.7 4.8 0 2.6-2.1 4.7-4.7 4.7z"/><path class="c" d="m98.1 729.3c-4.7 0-8.4-3.7-8.4-8.4 0-4.6 3.7-8.3 8.3-8.3 4.6 0 8.4 3.7 8.4 8.3 0 4.6-3.7 8.4-8.3 8.4z"/><path class="i" d="m98 725.7c-2.6 0-4.7-2.1-4.7-4.8 0-2.6 2.1-4.7 4.7-4.7 2.7 0 4.8 2.1 4.8 4.7 0 2.6-2.1 4.8-4.8 4.8z"/><path  d="m330.2 863.6c-4.6-0.4-9.2-0.8-13.8-1.1-4.6-0.2-9.3-0.3-13.9-0.4-8.9-0.2-17.7-0.2-26.6-0.2-18 0-36.1-0.1-54.1-0.1q-54.3 0.1-108.6 0.2h-30.4c-10.1 0-20.2-0.2-30.3 0.3-2.5 0.1-2.4 4.3 0.1 4.5 9.2 0.4 18.4 0.1 27.5 0.1q13.4 0 26.7 0 27-0.1 54.1-0.2c36 0 72-0.1 108-0.4 10.6 0 21.2 0 31.7-0.2 4.9-0.1 9.8-0.2 14.7-0.5 5-0.3 9.9-0.7 14.8-1.1 0.5-0.1 0.6-0.9 0.1-0.9z"/><path  d="m52.5 862.3l23-50.2 243.6-1.1c0 0-13.7 54.9-15 54-1.4-0.9-251.6-2.7-251.6-2.7z"/><path class="i" d="m908.9 660.9c2.5 3.1 2.8 7.4 0.7 10.8l-36.1 58c-10 16.1-15.3 34.6-15.3 53.6l0.1 35.6h-20.9l-0.1-38.9c-0.1-19.4 5.5-38.4 15.9-54.7l40.7-63.5c3.4-5.3 11-5.7 15-0.9z"/><path class="c" d="m807.4 574.7c0.5 1.7 68.1 97.4 90.8 129.5 3.9 5.5 11.7 6.3 16.6 1.8 4.3-4 4.8-10.5 1.2-15.1l-100.2-126.5z"/><path class="d" d="m698.1 502.9c0 0-2.5 76.8 77.1 124.3 2.2-85.8-50.5-119.4-77.1-124.3z"/><path class="a" d="m734.8 528.1c0 0-15.2 52.4 36.1 60.6-6.4-43.2-36.1-60.6-36.1-60.6z"/><path class="c" d="m775.2 627.2c-1.4-11.3-3.8-21.8-7-31.6-20.1-61.8-70.1-92.7-70.1-92.7 88.8-16 140.8-4.1 147.7 11 6.8 15.2-36.9 77.9-70.6 113.3z"/><path class="i" d="m778.5 585.5c-0.9-5.5-2-10.8-4.1-16-1.9-5.1-4.2-10-6.8-14.7-5.2-9.5-11.6-18.3-19.2-26q-3.2-3.2-6.7-6.2-1.7-1.5-3.6-2.9c-1.2-1-2.6-1.7-3.8-2.8-0.1 0-0.2 0.1-0.1 0.1 1.7 1.5 3.2 3.4 4.9 5.1 1.9 2 3.7 4.1 5.6 6.2q5.3 6 10 12.7c6.1 8.7 11.3 18.1 15.3 28 2.3 5.6 4.6 11.3 6.7 17.1 0.4 1 1.9 0.4 1.8-0.6z"/><path class="i" d="m783.9 562c-0.7-2.4-1.1-4.6-2.1-6.8-1-2.1-2.1-4.2-3.2-6.2-2.2-4-4.6-8-7.4-11.7-2.8-3.6-5.6-7.2-8.8-10.6q-2.4-2.5-5-4.9c-1.8-1.6-3.8-3.1-5.6-4.7-0.1-0.1-0.2 0-0.1 0.1 3.4 3.2 6.2 7.3 9.1 11.1 2.7 3.5 5.3 7.1 7.7 10.9 2.4 3.9 4.7 7.8 6.8 11.9 1.1 2 2.1 4.1 3.1 6.2 1 1.9 2.2 3.7 3.3 5.6 0.6 1.1 2.6 0.4 2.2-0.9z"/><path class="i" d="m782.5 532.5c-4-5.2-9-9.3-14-13.4-0.1-0.1-0.2 0-0.1 0.1 4.2 4.8 8.5 9.8 11.8 15.3q2.1 3.6 3.6 7.4c1 2.6 1.4 5.3 2.1 8 0.4 1.5 3 1.4 3.1-0.2 0.6-6.1-2.9-12.5-6.5-17.2z"/><path class="i" d="m775.2 627.2c-1.4-11.3-3.8-21.8-7-31.6 45.9-23.3 77.6-81.7 77.6-81.7 6.8 15.2-36.9 77.9-70.6 113.3z"/><path class="i" d="m893.2 684c-2.9 0-5.2-2.3-5.2-5.3 0-2.9 2.3-5.2 5.2-5.2 2.9 0 5.3 2.3 5.3 5.2 0 2.9-2.4 5.3-5.3 5.3z"/><path class="l" d="m792.9 829.1v-21.6l113-0.2 0.1 43.2z"/><path class="a" d="m755.6 856.1l182.1-0.3c0 0 0.7-21.8-19-26.9-50.9 0.1-131 0.2-136.2 0.2-5.1 0-28.2 1.9-26.9 27z"/><path class="i" d="m905.5 826.2c-3.8-1.1-8-0.9-12-0.9-3.8-0.1-7.6-0.2-11.4-0.2q-11.7-0.1-23.4-0.1c-15.9 0.1-31.7 0.4-47.6 1.5q-6.5 0.4-13.1 0.9c-4.5 0.3-8.9 1.2-13.4 1.4-0.1 0-0.1 0.1 0 0.1 3.9-0.2 7.8 0.4 11.7 0.3q6 0 11.9 0.1c7.9 0 15.7 0.1 23.6 0.1 15.8-0.1 31.5-0.2 47.3-0.1q6.5 0.1 12.9 0.2c4.4 0.1 9.2 0.5 13.6-0.5 1.5-0.3 1.2-2.4-0.1-2.8z"/><path class="a" d="m494.1 354.5c-2.3 3.4-7 4.3-11.9 3.7q-2.1-0.3-4.1-0.6c-17.3-2.8-33.8-7.9-50.6-12.1q-4.3-1-8.7-2c-10.2-2.2-20.4-4.8-30.9-6.2-5.3-0.8-10.7-1.4-15.9-2.4q-4-0.8-8-1.7-2.6-0.5-5.3-1.1-7.2-1-12.6-4.9c-4.5-1.7-5.9-7.1-5-10.2 1.1-3.9 4.9-6.7 10-8.1 8.2-2.3 15 0 22.5 2.3 13.4 4 26 9.2 39.5 13.1 5 1.4 10.2 2.8 15.3 4.1 18.7 4.7 38 8.9 55.7 15q3.4 1.1 6.6 2.3c4.3 1.7 5.4 5.9 3.4 8.8z"/><path class="l" d="m484.1 343.4c-1.4 6.3-4.7 12.1-6 14.2-17.3-2.8-33.8-7.9-50.6-12.1-0.6-6.8 0.1-12.9 0.9-17.1 18.7 4.7 38 8.9 55.7 15z"/><path class="a" d="m472.8 311.7c-7.9-9.1-14.5-21.1-20.5-34-4.4-9.3-8.3-19.2-12.1-28.7-4.9-12.1-9.3-24.6-13.4-37.4q0-0.1-0.1-0.1c-3.7-11.7-8.7-24.7-9.5-38.1-0.3-4.4 3-7.5 5-4.5 5.9 8.3 9.6 21.3 13.8 32 0.7 2.1 1.6 4.1 2.4 6.2 3.8 9.6 7.7 19.2 11.5 28.7 4.5 11.2 9.4 22.2 14 33.5 5 12 9.6 24.2 13.2 37.3 1.2 4.6-2.3 7.5-4.3 5.1z"/><path class="l" d="m477.1 306.6c1.2 4.6-2.3 7.5-4.3 5.1-7.9-9.1-14.5-21.1-20.5-34 2.5-2.6 6.2-5.5 11.6-8.4 5 12 9.6 24.2 13.2 37.3z"/><path class="l" d="m436 200.9q1.2 3.1 2.4 6.2c-4.5 2.4-8.5 3.6-11.7 4.4-3.7-11.7-8.7-24.7-9.5-38.1-0.3-4.4 3-7.4 5-4.5 5.9 8.3 9.6 21.3 13.8 32z"/><path class="a" d="m400.8 180.3c-6.8 9.3-14.7 16.3-23.3 23.6q-2.8 2.3-5.6 4.8-2.2 1.9-4.5 4c-7.9 7.3-16.7 16.2-26.3 19.2-3 1-6.6-1.5-5.8-4.9 2.1-8.7 8.9-16.8 16-23.9 3.3-3.2 6.6-6.2 9.5-9q1.4-1.3 2.9-2.6c9.4-8.6 18.5-15.4 30.9-19.6 5.2-1.8 9.3 4 6.2 8.4z"/><path class="l" d="m400.8 180.3c-6.8 9.3-14.7 16.3-23.3 23.6-6.7-4.2-11.1-8.7-13.8-12.4 9.4-8.6 18.5-15.4 30.9-19.6 5.2-1.8 9.3 4 6.2 8.4z"/><path class="l" d="m367.4 212.7c-7.9 7.3-16.7 16.2-26.3 19.2-3 1-6.6-1.5-5.8-4.9 2.1-8.7 8.9-16.8 16-23.9 4.5 2.2 10.3 5.4 16.1 9.6z"/><path class="a" d="m544.7 160.5c-3.1 3-7.6 3.8-12.4 3.9-4.6 0-9.4-0.6-13.3-0.8q-10-0.3-19.9-0.6-3.4-0.1-6.7-0.3c-7.3-0.2-14.7-0.4-22-0.7q-3-0.1-6-0.3c-9-0.5-19.3-0.5-27.6-4.1-5.6-2.5-7.5-12.4-0.5-14.6 9.6-3.1 20.5-2.3 30.5-1.7 1.3 0.1 2.5 0.2 3.7 0.2q12.3 0.8 24.5 1.6 4.9 0.4 9.9 0.7 9.8 0.7 19.6 1.4c4.1 0.3 8.2 0.2 12.1 1 3.5 0.7 6.7 2.2 9.3 5.1 2.4 2.9 1.3 6.9-1.2 9.2z"/><path class="l" d="m536.6 146.2l-3.5 17c0 0-0.3 0.5-0.8 1.2-4.6 0-9.4-0.6-13.3-0.8q-10-0.3-19.9-0.6c0.6-7.1 3.2-13.9 5.8-19.2q9.8 0.7 19.6 1.4c4.1 0.3 8.2 0.2 12.1 1z"/><path class="l" d="m470.4 162q-3-0.2-6-0.3c-9-0.5-19.3-0.5-27.6-4.1-5.6-2.5-7.5-12.4-0.5-14.6 9.6-3.1 20.5-2.3 30.5-1.7q1.9 0.1 3.7 0.2c0.9 5.9 1 13.1-0.1 20.5z"/><path class="a" d="m577.1 231.9c-2.4 12.6-8.2 24.5-13.7 36.1q-0.9 1.8-1.8 3.7-2.4 5.1-4.9 10.2c-2.5 5.1-5 10-7.9 14.8-4.2 7.2-8.9 11.3-15.6 16.1-4 2.9-8.6-0.6-8.3-5.1 0.4-8.5 1.7-14.6 5.8-22.3 2.8-5.3 5.8-10.5 9-15.5q1.3-2.2 2.6-4.3 1.6-2.3 3.1-4.8c7.2-11.4 14.5-23.4 24.4-32.4 2.9-2.7 8.1-1 7.3 3.5z"/><path class="l" d="m533.2 312.8c-4 2.9-8.6-0.6-8.3-5.1 0.4-8.5 1.7-14.6 5.8-22.3 2.8-5.3 5.8-10.5 9-15.5 6 3.1 11.8 7.1 17 12-2.5 5.1-5 10-7.9 14.8-4.2 7.2-8.9 11.3-15.6 16.1z"/><path class="l" d="m577.1 231.9c-2 10.7-6.5 20.9-11.3 30.9-8.7-2.5-13.8-5.5-16.8-7.7 6.1-9.6 12.5-19.2 20.8-26.7 2.9-2.7 8.1-1 7.3 3.5z"/><path class="a" d="m664.7 319.3c-3.3 8.9-19 10.4-27 12.5q-7 1.9-14 3.7c-6.9 1.8-13.7 3.6-20.5 5.2-8.8 2.1-17.5 4.3-26.3 6.2q-4.2 0.9-8.5 1.8c-11.9 2.4-23.9 4-35.8 6.2-1.3 0.3-1.8-1.5-0.6-1.9 12.4-4.7 24.5-10 37-14.5q4.4-1.6 8.8-3.1c7.7-2.6 15.5-5.1 23.3-7.6q9.2-2.9 18.5-5.7 7-2.1 14.1-4.1c8.2-2.4 22.1-9.4 30.1-3.2 1.4 1.1 1.5 3 0.9 4.5z"/><path class="l" d="m577.8 335.4c-0.1 4.2-0.5 8.1-0.9 11.5q-4.2 0.9-8.5 1.8c-11.9 2.4-23.9 4-35.8 6.2-1.3 0.3-1.8-1.5-0.6-1.9 12.4-4.7 24.5-10 37-14.5q4.4-1.6 8.8-3.1z"/><path class="l" d="m664.7 319.3c-3.3 8.9-19 10.4-27 12.5q-7 1.9-14 3.7c-2.2-4.8-3.4-9.5-4.1-13.4q7.1-2.1 14.1-4.1c8.2-2.4 22.1-9.4 30.1-3.2 1.4 1.1 1.5 3 0.9 4.5z"/><path class="a" d="m678.5 296.3c-0.1 0.9-0.3 1.8-0.6 2.7-0.1 0.7-0.4 1.4-0.7 2q0 0.2-0.1 0.3-0.4 0.8-1 1.4-1.1 1.1-1 0.7c-1.7 1.2-4 1.6-6.4 0.9-7.5-2.2-12.1-10.6-16.4-16.5-4.9-6.8-9-14-13.2-21.3q-0.9-1.5-1.8-3c-3.8-6.8-7.3-13.7-11.1-20.5-3.6-6.7-8-14.5-8.4-22.2-0.2-3.2 3-5.3 5.9-4.1 8.3 3.7 14.6 12.5 20.1 19.4 4.4 5.7 8.8 11.3 13 17.2q1.7 2.3 3.3 4.7c5.5 8.2 10.8 16.4 14.6 25.5 1.7 4 4 8.4 3.8 12.8z"/><path class="l" d="m656.8 253.3c-5.3 3.9-11.8 7.4-19.5 10.2-3.8-6.8-7.3-13.7-11.1-20.5-3.6-6.7-8-14.5-8.4-22.2-0.2-3.2 3-5.3 5.9-4.1 8.3 3.7 14.6 12.5 20.1 19.4 4.4 5.7 8.8 11.3 13 17.2z"/><path class="a" d="m309.8 374.7c-48.5 0.1-87.8-39.1-87.8-87.5-0.1-48.5 39-87.8 87.5-87.9 48.5-0.1 87.7 39 87.8 87.5 0.1 48.5-39 87.8-87.5 87.9z"/><path class="a" d="m501.9 403.3c-37.8 0-68.5-30.5-68.6-68.4 0-37.9 30.5-68.5 68.4-68.6 37.8-0.1 68.5 30.5 68.6 68.4 0.1 37.8-30.5 68.5-68.4 68.6z"/><path class="a" d="m409.6 207.2c-30.6 0.1-55.3-24.6-55.4-55.2 0-30.6 24.6-55.4 55.2-55.4 30.6-0.1 55.4 24.6 55.5 55.2 0 30.6-24.7 55.4-55.3 55.4z"/><path class="a" d="m673.1 361.7c-24.6 0.1-44.5-19.8-44.5-44.3-0.1-24.6 19.8-44.5 44.3-44.5 24.6 0 44.5 19.8 44.5 44.3 0 24.6-19.8 44.5-44.3 44.5z"/><path class="a" d="m595.8 262.3c-48.8 0.1-88.3-39.3-88.4-88.1-0.1-48.8 39.3-88.3 88.1-88.4 48.8-0.1 88.3 39.3 88.4 88.1 0.1 48.8-39.3 88.3-88.1 88.4z"/><path class="e" d="m324.8 242.7v13.1c0 0 9.4-3.6 9.9 3 0.5 6.6-10.7 2.4-10.7 2.4l-0.5 12.1 15.4 15.1 15.2-14.8c0 0 0-22.8 0-25.1 0-2.2 0.5-5.7-3.6-5.7-4 0-25.7-0.1-25.7-0.1z"/><path class="b" d="m323.5 273.3h11.8c0 0-2.8 9.4 2.6 9.4 5.4 0 4.8-6.2 3.7-9.1 12.5 0 12.5 0 12.5 0l0.7 28.5-16.4 8.4-19.1-9.3-11.2-12.1z"/><path class="d" d="m296 273.6l9.9-0.2c0 0-2.2 9.6 3.9 9.2 6.2-0.3 2.9-9.3 2.9-9.3h10.8l0.5 12.5c0 0-8.7-3.8-8.2 2.8 0.1 4.7 7.5 2.1 7.5 2.1l0.3 11.8-11.3 16.9-22.2-12.8c0 0-28.8-10.8-13.7-21.1 15-10.4 15-10.4 15-10.4z"/><path class="d" d="m323.6 328.6c0 0 24 0 26.6 0 2.5 0 4.2-1.8 4.4-5.9 0.2-4.1 0.2-20.6 0.2-20.6l-12.3 0.1c0 0 1.7-9.5-4.4-8.4-6.1 1.2-2.9 8.7-2.9 8.7h-11.6l-12.8 12.5z"/><path class="b" d="m295.9 302.2h10.6c0 0-3.1 7.4 1.3 8.9 4.5 1.5 7.9-4 5.2-8.6 9.1 0 10.6 0 10.6 0v10.5c0 0-3.7-2-7.2 0.1-3.6 2.1-0.6 7.3 7.2 5.1 0 10.4 0 10.4 0 10.4l-28 0.6-15.6-12.3z"/><path class="d" d="m268.4 302.2c0 0 0 15.9 0 19.3 0 3.5 0.6 7.7 4.4 7.7 3.8 0 22.8 0 22.8 0v-11c0 0-6.4 1.4-8.6-1-2.3-2.3 0.6-6.1 3.4-5.8 2.8 0.3 5.2 1.4 5.2 1.4l0.3-10.6c0 0-6.9-12-14.3-11-7.5 0.9-13.2 11-13.2 11z"/><path class="b" d="m268.3 273.4l0.1 28.8 9.6-0.1c0 0-4.8-6.8 2.2-8.4 7-1.6 6.2 6.7 4.6 8.6 6.4-0.1 11.1-0.1 11.1-0.1v-11c0 0-8.7 2.9-8.8-2.6-0.2-5.5 8.7-2.9 8.7-2.9l0.2-12.1-13.2-13.5z"/><path class="e" d="m273.9 243.1l21.8-0.3v11.8c0 0 6.8-2.7 8.8 1.2 2 3.6-1.7 8.2-8.6 5.6 0 6.5 0.1 12.2 0.1 12.2l-11.3-0.4c0 0 2.4-8.7-3.3-8-5.7 0.7-3.1 8.2-3.1 8.2h-10c0 0 0-24.3 0-25.7 0-1.4 0.4-4.7 5.6-4.6z"/><path class="b" d="m313.9 259.2c0 0-7.6 4.2-3.7 9.3 3.9 5 8.3-4.8 8.3-4.8l7.1 7.1 8.7-8c0 0 3.2 7.7 8.1 6 4.9-1.6 2.6-5.5 1.5-6.2-1.1-0.8-5-3.6-5-3.6l9.2-9.8-20.9-19.2-8.6 8.4c0 0 7.2 5.2 4.9 8-2.4 2.7-6.6-0.5-7.8-3.8-5 4.6-9 9.4-9 9.4z"/><path class="c" d="m277.6 302.2c-0.3-0.2-0.7-0.2-1.1-0.2q-0.6-0.1-1.3-0.1-1.1 0.1-2.3 0.1-1.3 0.1-2.6 0.2-0.6 0.1-1.2 0.1c-0.3 0-0.6 0-0.9 0.2q0 0.1 0 0.1c0.3 0.1 0.5 0.1 0.9 0.2q0.6 0 1.2 0 1.3 0.1 2.6 0.2 1.2 0 2.5-0.1c0.6 0 1.6 0.2 2.2-0.2 0.1-0.1 0.1-0.4 0-0.5z"/><path class="c" d="m286.6 296.6c-0.2-1.9-1.4-3.2-3.2-3.6-3.2-0.6-7.1 1.1-7.8 4.5-0.3 1.8 0.3 3.7 1.8 4.8 0 0 0.1-0.1 0-0.1-1.5-2.2-1-5.7 1.2-7.3 2.1-1.5 6.7-1.6 6.8 1.8 0.1 0.9-0.1 1.7-0.4 2.6q-0.2 0.7-0.3 1.4c-0.1 0.6-0.2 1.1 0.1 1.5 0.2 0.2 0.6 0.3 0.7 0.1 0.4-0.4 0.3-0.9 0.5-1.4q0.1-0.8 0.3-1.5c0.2-0.9 0.4-1.9 0.3-2.8z"/><path class="c" d="m306 301.7c-3.4-0.5-7-0.4-10.5-0.3-1.7 0-3.4 0.1-5.1 0.2q-1.4 0.1-2.7 0.2c-0.9 0-1.8 0.2-2.6 0.2-0.1 0-0.1 0.1 0 0.1 0.5 0 1 0.1 1.5 0.2q0.6 0 1.3 0 1.3 0.1 2.7 0.2c1.7 0.1 3.5 0.2 5.3 0.2 3.3 0 6.8 0.1 10.1-0.4 0.3-0.1 0.3-0.5 0-0.6z"/><path class="c" d="m334.5 302.3c-3.6 0-7.2-0.2-10.8-0.3-1.7 0-3.5 0.1-5.2 0.2-0.9 0-1.8 0-2.7 0.1-1 0.2-1.9 0.3-2.9 0.3 0 0 0 0 0 0 1 0 2 0.2 3 0.3 0.8 0.1 1.7 0.1 2.5 0.2 1.8 0 3.7 0.2 5.5 0.2 3.5 0 7-0.1 10.6-0.1 0.5 0 0.6-0.9 0-0.9z"/><path class="c" d="m341.4 294.1c-1.4-0.8-3.2-0.7-4.6-0.2-1.5 0.6-2.6 1.7-2.9 3.3-0.2 0.8-0.2 1.7-0.1 2.5q0.1 0.8 0.2 1.6 0.1 0.4 0.2 0.8c0.1 0.2 0.2 0.5 0.2 0.8q0 0 0 0c0-0.4 0.3-0.8 0.4-1.2q0.1-0.5 0.2-1.1c0-0.7 0-1.4 0-2.1 0.2-1.2 0.6-2.5 1.7-3.1 1.1-0.6 2.6-0.9 3.7-0.3 1 0.5 1.5 1.5 1.8 2.5 0.3 1.6-0.1 3.2-0.3 4.8-0.1 0.9 1.1 1.2 1.3 0.3 0.9-2.9 1.1-6.8-1.8-8.6z"/><path class="c" d="m354.3 302.2c-2.1-0.4-4.1-0.4-6.2-0.5q-1.4 0-2.9 0.1c-0.9 0.1-2.2 0-2.8 0.6-0.2 0.2-0.1 0.5 0.1 0.6 0.6 0.5 1.7 0.2 2.5 0.2q1.4-0.1 2.8-0.3c2.1-0.2 4.3-0.2 6.5-0.6 0 0 0-0.1 0-0.1z"/><path class="c" d="m326.3 270.8c-0.2-0.4-0.7-0.8-1-1.1q-0.5-0.4-0.9-0.9-1-0.9-1.9-1.7c-1.4-1.2-2.8-2.3-4.1-3.6 0 0 0 0 0 0.1 1.1 1.4 2.1 2.9 3.3 4.2q0.8 1 1.8 2 0.4 0.5 0.9 1c0.3 0.3 0.7 0.7 1.1 0.9 0.5 0.2 1.1-0.3 0.8-0.9z"/><path class="c" d="m333.8 262.4c-1.6 1.3-3 2.7-4.4 4.1q-1.1 1-2 2.1c-0.6 0.8-1.2 1.6-1.8 2.3-0.1 0.2 0.1 0.5 0.2 0.3 0.8-0.6 1.6-1.2 2.4-1.8q1.1-1 2.1-2c1.4-1.4 2.8-2.9 4.1-4.4 0.3-0.4-0.3-0.9-0.6-0.6z"/><path class="c" d="m343.9 262.4c-1.4-1.1-3.6-1.6-4.5-3.3-0.3-0.8-1.5-0.2-1.2 0.5 0.5 1.4 1.7 2.2 3 2.9 1 0.6 2.5 1.2 2.9 2.5 0.4 1.5-1.1 2.7-2.5 2.7-1.4 0.1-2.8-0.4-4-1.1-1.3-0.8-2.6-2.2-3-3.7-0.1-0.3-0.5-0.1-0.4 0.1 0.2 0.8 0.3 1.6 0.7 2.4 0.4 0.7 0.9 1.4 1.4 1.9 1.3 1.3 2.9 2 4.6 2 1.7 0 3.6-0.9 4.3-2.5 0.7-1.6 0-3.3-1.3-4.4z"/><path class="c" d="m347.7 248.8c-0.5 0.3-0.9 0.8-1.3 1.2q-0.5 0.5-1.1 1.1-1.2 1.3-2.3 2.6c-1.6 1.7-3 3.4-4.5 5.1-0.2 0.3 0.1 0.6 0.3 0.4 1.7-1.6 3.3-3.1 4.9-4.7q1.2-1.2 2.4-2.4 0.6-0.6 1.2-1.2c0.4-0.4 0.9-0.9 1.1-1.5 0.2-0.4-0.3-0.8-0.7-0.6z"/><path class="c" d="m269.2 266.2c0-2.6-0.1-5.2-0.2-7.8-0.1-2.7-0.3-5.4-0.4-8.2 0-0.2-0.3-0.2-0.3 0.1 0 4.8-0.4 9.6-0.5 14.4-0.1 4.8-0.1 9.7-0.1 14.5 0 9.5-0.1 19 0.2 28.4 0.2 5.4 0.1 10.8 0.4 16.1 0 0.4 0.7 0.4 0.7 0 0.2-4.8 0.1-9.6 0.2-14.5 0.1-4.8 0.2-9.5 0.2-14.3 0-9.6 0.1-19.1-0.2-28.7z"/><path class="c" d="m272.9 328.9q-0.4 0-0.8-0.2c-0.3-0.1-0.5-0.1-0.7-0.3-0.5-0.2-1-0.5-1.3-0.9-0.5-0.3-0.8-0.8-1.1-1.3-0.2-0.5-0.3-1.1-0.3-1.7q0 0 0 0c-0.6 1.3-0.2 2.8 0.6 3.8 0.8 1.1 2.3 1.8 3.7 1.4 0.4-0.1 0.4-0.8-0.1-0.8z"/><path class="c" d="m348.6 328.5c-19.7-0.2-39.3-0.5-59-0.2-2.8 0-5.5 0-8.3 0.2-3 0.1-6 0.3-9 0.4-0.3 0-0.2 0.4 0 0.4 5.1 0 10.1 0.5 15.1 0.5 5 0.1 9.9 0 14.8 0 9.9 0 19.8 0 29.8-0.1 5.5-0.1 11-0.2 16.6-0.3 0.6 0 0.6-0.9 0-0.9z"/><path class="l" d="m650.2 182.8c0 0-20.6 20.7-53.9 21.6-33.2 0.8-52.4-24.3-52.4-24.3 0 0 11.2-14.3 31.4-21.4 6.2-2.1 13.3-3.6 21.2-3.8 8.9-0.3 16.9 1.6 23.8 4.5 19.1 7.9 29.9 23.4 29.9 23.4z"/><path class="b" d="m623 170.6c0 14-11.3 25.4-25.3 25.4-14 0.1-25.4-11.3-25.4-25.3 0-4.3 1.1-8.4 3-12 6.2-2.1 13.3-3.6 21.2-3.8 8.9-0.3 16.9 1.6 23.8 4.5 1.7 3.4 2.7 7.2 2.7 11.2z"/><path class="c" d="m597.7 182.8c-6.7 0-12.2-5.4-12.2-12.1 0-6.7 5.4-12.1 12.1-12.1 6.7 0 12.2 5.4 12.2 12.1 0 6.7-5.4 12.1-12.1 12.1z"/><path class="c" d="m652.7 180.2c-9.4-13.1-24.7-22-40.2-25.6-16.2-3.7-33.4-1.3-48 6.5q-6 3.3-11.2 7.6c-3.6 2.9-6.7 6.5-9.4 10.2-0.7 0.9 0.5 1.8 1.2 1 5.4-5.5 12.1-10.2 18.9-13.9 6.6-3.6 14.1-6.2 21.5-7.4 15-2.6 30.4 0.2 43.7 7.6 7.6 4.2 14.1 10 19.9 16.5 1.8 2 5.3-0.2 3.6-2.5z"/><path class="c" d="m565 160.5c-0.5-0.6-1.2-1-1.9-1.5q-0.9-0.8-1.7-1.6c-1.2-1.2-2.1-2.4-3-3.8-1.6-2.7-2.8-6.2-2.4-9.3 0.1-0.6-0.8-0.8-0.9-0.2-0.2 1.7-0.4 3.6-0.4 5.3 0 1.9 0.6 3.8 1.2 5.5 0.7 1.7 1.7 3.3 2.9 4.7 1.2 1.4 2.8 3.1 4.6 3.5 1.6 0.4 2.7-1.4 1.6-2.6z"/><path class="c" d="m601.1 144.8q-0.2-2.6-0.5-5.2c-0.2-1.7-0.5-3.3-0.5-5 0-0.7-1.2-0.6-1.2 0.1 0 1.7-0.3 3.4-0.5 5.1q-0.2 2.5-0.4 5c-0.3 3.2-0.5 6.5-0.3 9.8 0.2 2.3 3.5 2.3 3.7-0.1 0.2-3.2 0-6.5-0.3-9.7z"/><path class="c" d="m649 152.2c-0.7 1.2-1.6 2.3-2.6 3.2-1 0.9-2 1.8-3 2.6-2.1 1.7-4.3 3-6.5 4.2-1.1 0.6-3.5 1.2-3.2 2.8 0.4 1.9 3.2 0.6 4.4 0.1 2.5-1 4.9-2.6 6.8-4.5 1.1-1.1 2.1-2.2 2.9-3.6q1.2-2.1 2.4-4.2c0.4-0.7-0.8-1.3-1.2-0.6z"/><path class="c" d="m580.2 156.2c-0.3-0.8-1-1.3-1.6-2q-0.9-1-1.5-2.1c-0.8-1.5-1.3-3.1-1.2-4.8 0-0.7-1-0.9-1.1-0.2-0.2 1.9-0.1 3.8 0.5 5.7 0.3 0.9 0.7 1.8 1.2 2.6 0.6 0.9 1.2 2 2.4 2.3 0.8 0.2 1.7-0.5 1.3-1.5z"/><path class="c" d="m555.1 168.5c-0.2-0.3-0.4-0.5-0.7-0.6q-0.3-0.2-0.6-0.3-0.5-0.2-1-0.4 0 0 0 0 0 0-0.1 0-0.2-0.2-0.5-0.3-0.2-0.1-0.4-0.2-0.4-0.2-0.9-0.5c-0.5-0.4-1-0.8-1.5-1.3q-0.4-0.3-0.8-0.7c-0.2-0.3-0.4-0.6-0.5-0.9-0.3-0.6-1.1-0.3-0.9 0.3 0.1 0.3 0.3 0.7 0.4 1.1q0.2 0.5 0.5 1.1c0.3 0.8 0.9 1.5 1.5 2.1 0.6 0.7 1.2 1.3 2 1.7 0.8 0.5 1.9 1 2.9 0.7 0.4-0.1 0.7-0.3 0.8-0.7 0.2-0.4 0.1-0.8-0.2-1.1z"/><path class="c" d="m621.5 149.5c-0.4 0.7-0.9 1.3-1.4 1.9q-0.8 0.8-1.6 1.7-0.8 0.8-1.5 1.6-0.4 0.5-0.8 0.9c-0.4 0.4-0.8 0.8-0.9 1.3-0.1 0.5 0 1 0.4 1.3 0.5 0.3 1 0.2 1.4-0.1 0.7-0.4 1.1-1.4 1.5-2q0.6-1.1 1.2-2.1 0.5-1 1-1.9c0.4-0.7 0.9-1.3 1.4-2 0.3-0.4-0.3-1-0.7-0.6z"/><path class="c" d="m650.7 167.9c-1 0.9-2.1 1.7-3.4 2.3q-0.5 0.2-1 0.3-0.2 0.1-0.5 0.2 0 0 0 0-0.2 0.1-0.3 0.1c-0.5 0.2-1 0.4-1.3 0.9q-0.1 0.2 0 0.1 0-0.1-0.1-0.1c0 0.1-0.1 0.2-0.1 0.2q-0.2 0.2-0.3 0.4c-0.1 0.2 0 0.5 0.2 0.6q0.3 0.2 0.6 0.2c0.2 0.1 0.3 0.1 0.4 0.1 0.5 0.2 1 0 1.4-0.2q1.1-0.7 2.1-1.4c1.2-0.9 2.2-1.9 3.1-3 0.5-0.6-0.3-1.1-0.8-0.7z"/><path class="c" d="m645.4 184.9c-2.8 2.4-5.5 4.8-8.6 6.8-3 1.8-6 3.5-9.2 4.9-6.4 2.7-13.1 5-20 6-14 2.1-28.1-0.1-40.8-6.5-3.4-1.7-6.7-3.6-9.8-5.8-1.9-1.3-3.7-2.7-5.6-4-1.6-1.2-3.2-2.1-4.6-3.5-0.4-0.4-1.1 0.2-0.8 0.6 1.2 1.4 2.1 3 3.2 4.4 1.2 1.6 2.6 2.9 4.1 4.2q4.5 3.9 9.5 6.9c6.4 3.6 13.3 6.3 20.5 7.8 14.7 3.1 30.9 1.4 44.2-5.8 3.5-1.8 6.8-4 10-6.5 3.2-2.5 6.5-5.2 9.1-8.3 0.6-0.7-0.5-1.8-1.2-1.2z"/><path class="c" d="m562.7 195.7c-0.7 0.3-1.2 1-1.6 1.5q-0.6 0.7-1.1 1.3c-0.8 0.9-1.5 1.9-2.1 2.9q-2.1 3-3.7 6.2c-0.4 0.7 0.7 1.4 1.1 0.8q2-3 4.3-5.7c0.7-0.8 1.4-1.6 2.2-2.4q0.6-0.7 1.2-1.4c0.5-0.5 1.1-1 1.3-1.7 0.4-1-0.7-1.9-1.6-1.5z"/><path class="c" d="m596.2 212.4c0.1-1.9 0.3-3.9 0.4-5.9 0-0.9-0.8-1.6-1.6-1.6-1 0-1.6 0.7-1.7 1.6-0.2 2.1 0.1 4.3 0.3 6.5 0.3 2 0.8 3.9 1.4 5.9 0.2 0.7 1.3 0.4 1.3-0.3-0.1-2.1-0.1-4.1-0.1-6.2z"/><path class="c" d="m638.6 203.4c-0.6-1-1.2-2-1.7-3-0.5-1.1-0.9-2.3-1.6-3.4-0.5-0.7-1.4-1.6-2.4-1-0.3 0.2-0.5 0.6-0.5 0.9q-0.1 0.3 0 0.5c0.1 0.2 0.1 0.3 0.2 0.4-0.1-0.2-0.3-0.4-0.1-0.1q0 0.2 0.1 0.3 0.1 0.3 0.3 0.5c0.6 1 1.5 1.7 2.3 2.6 0.8 0.9 1.6 2 2.4 3 0.5 0.6 1.4 0 1-0.7z"/><path class="c" d="m574.9 203.3c-0.4-0.2-1 0-1.2 0.5q-0.5 1.4-0.9 2.8c-0.2 0.9-0.4 1.8-0.8 2.7-0.1 0.2 0 0.5 0.3 0.7 0.2 0.1 0.6 0 0.7-0.3q0.2-0.7 0.6-1.3 0.3-0.7 0.6-1.3 0.6-1.3 1.2-2.6c0.2-0.5 0-1.1-0.5-1.2z"/><path class="c" d="m620.9 207.3c-0.1-0.4-0.3-0.8-0.4-1.2 0-0.4-0.1-0.9-0.1-1.3-0.1-0.5-0.2-0.9-0.3-1.3-0.1-0.5-0.3-1-0.4-1.4-0.1-0.5-0.8-0.7-1.2-0.5-0.5 0.2-0.6 0.7-0.5 1.2 0.3 0.8 0.6 1.7 1.1 2.4 0.3 0.4 0.4 0.8 0.6 1.1 0.2 0.4 0.4 0.9 0.5 1.3 0.2 0.4 0.9 0.2 0.7-0.3z"/><path class="a" d="m612.4 179.1c-5.3 0-9.5-1.7-9.5-3.7 0-2.1 4.2-3.8 9.5-3.8 5.3 0 9.5 1.7 9.5 3.7 0 2.1-4.2 3.7-9.5 3.8z"/><path class="c" d="m432.7 192l-43.8 0.1c-3.1 0-5.6-2.5-5.6-5.7l-0.2-70.7c0-3.1 2.6-5.6 5.7-5.6l43.7-0.1c3.2 0 5.7 2.5 5.7 5.6l0.1 70.7c0 3.2-2.5 5.7-5.6 5.7z"/><path class="b" d="m430.5 189.5h-41.3c-2.9 0-5.3-2.3-5.3-5.3l-0.2-66.7c0-3 2.4-5.4 5.4-5.4l41.3-0.1c2.9 0 5.3 2.4 5.3 5.4l0.2 66.7c0 3-2.4 5.4-5.4 5.4z"/><path class="a" d="m428.8 118.5v14.7l-37.8 0.1v-14.8z"/><path class="a" d="m399.1 151.5h-6.9c-0.8 0-1.5-0.7-1.5-1.6l-0.1-8.3c0-0.9 0.7-1.6 1.6-1.6h6.9c0.8 0 1.6 0.7 1.6 1.6v8.3c0 0.8-0.7 1.5-1.6 1.6z"/><path class="a" d="m399.1 167.1h-6.8c-0.9 0-1.6-0.7-1.6-1.6v-8.3c0-0.9 0.7-1.6 1.5-1.6h6.9c0.9 0 1.6 0.7 1.6 1.6v8.3c0 0.9-0.7 1.6-1.6 1.6z"/><path class="a" d="m399.2 182.7h-6.9c-0.9 0-1.6-0.7-1.6-1.6v-8.3c0-0.9 0.7-1.6 1.6-1.6h6.8c0.9 0 1.6 0.7 1.6 1.6v8.3c0 0.9-0.7 1.6-1.5 1.6z"/><path class="a" d="m413.2 151.4h-6.8c-0.9 0-1.6-0.7-1.6-1.5v-8.4c0-0.8 0.7-1.5 1.5-1.5h6.9c0.9 0 1.6 0.7 1.6 1.5v8.4c0 0.8-0.7 1.5-1.6 1.5z"/><path class="a" d="m413.3 167l-6.9 0.1c-0.9 0-1.6-0.7-1.6-1.6v-8.3c0-0.9 0.7-1.6 1.6-1.6h6.9c0.8 0 1.5 0.7 1.5 1.5v8.4c0 0.8-0.7 1.5-1.5 1.5z"/><path class="a" d="m413.3 182.7h-6.9c-0.8 0-1.5-0.7-1.5-1.6l-0.1-8.3c0-0.9 0.7-1.6 1.6-1.6h6.9c0.8 0 1.6 0.7 1.6 1.6v8.3c0 0.9-0.7 1.6-1.6 1.6z"/><path class="a" d="m427.4 151.4h-6.9c-0.9 0-1.6-0.7-1.6-1.6v-8.3c0-0.8 0.7-1.5 1.6-1.5l6.9-0.1c0.8 0 1.5 0.7 1.5 1.6l0.1 8.3c0 0.9-0.7 1.6-1.6 1.6z"/><path class="a" d="m420.5 155.6c-0.9 0-1.6 0.7-1.6 1.5l0.1 14.1v5.7 4.2c0 0.8 0.7 1.5 1.6 1.5h6.8c0.9 0 1.6-0.7 1.6-1.5v-4.2-5.7-14.1c0-0.8-0.7-1.5-1.6-1.5z"/><path class="c" d="m399.3 175.9v2.1h-6.9v-2.1z"/><path class="c" d="m396.8 173.5v6.9h-2v-6.9z"/><path class="c" d="m413.5 176.2v2.1h-6.9v-2.1z"/><path class="c" d="m426.5 170.6v2.1h-4.9v-2.1z"/><path class="c" d="m426.5 167.5v2.1h-4.9v-2.1z"/><path class="c" d="m428.2 132.8c-6.3-0.1-12.6-0.1-18.8-0.1-3.2 0-6.3 0-9.4 0.1-3 0-6.1 0-9 0.7q-0.1 0 0 0c3 0.7 6.2 0.6 9.4 0.7 3 0 6.1 0 9.2 0 6.2 0 12.3-0.1 18.5-0.2 0.8 0 0.8-1.2 0.1-1.2z"/><path class="c" d="m429.8 125.9q-0.1-1.7-0.2-3.4c-0.1-1.3-0.4-2.7-0.4-4 0 0-0.1 0-0.1 0 0 1.2-0.2 2.4-0.4 3.6q-0.1 1.8-0.2 3.5c-0.2 2.4-0.2 4.8-0.1 7.2 0 1 1.5 1 1.5 0 0.1-2.3 0.1-4.6-0.1-6.9z"/><path class="c" d="m405.7 163.9q0-1.1-0.1-2.2 0-1.1-0.2-2.2c-0.1-0.9-0.4-1.7-0.4-2.6 0 0 0 0 0 0 0 0.9-0.3 1.6-0.4 2.5q-0.1 1.1-0.2 2.3 0 1.1 0 2.3c0 0.7-0.1 1.5 0.2 2.2 0.2 0.4 0.7 0.3 0.9-0.1 0.3-0.6 0.2-1.5 0.2-2.2z"/><path class="c" d="m391.2 164.2q0-1.1 0-2.3 0-1.1-0.1-2.2c-0.1-0.8-0.3-1.6-0.5-2.3 0-0.1 0-0.1 0 0-0.2 0.7-0.4 1.4-0.5 2.2 0 0.8-0.1 1.5-0.1 2.3q0 1.1 0 2.3c0 0.7-0.1 1.5 0.1 2.2 0.1 0.5 0.9 0.6 1 0.1 0.2-0.8 0.1-1.5 0.1-2.3z"/><path class="c" d="m391.3 179.2q0-1.1-0.1-2.2 0-1.2-0.1-2.3-0.1-0.5-0.2-1c-0.1-0.5-0.3-1-0.3-1.4q0 0 0 0c0 0.4-0.1 0.9-0.2 1.3q-0.1 0.5-0.2 1.1-0.1 1.1-0.1 2.2-0.1 1.1 0 2.2c0 0.8-0.1 1.6 0 2.4 0.2 0.7 1 0.5 1.1 0 0.1-0.8 0.1-1.5 0.1-2.3z"/><path class="c" d="m405.2 177c-0.1-1.4-0.4-2.8-0.5-4.2q-0.1-0.1-0.1 0c-0.1 1.4-0.4 2.7-0.5 4.1q-0.1 2 0.1 4c0.1 0.4 0.8 0.4 0.9-0.1 0-0.3 0.1-0.6 0.1-0.9q0-0.5 0-1 0.1-1 0-1.9z"/><path class="c" d="m419.5 174.8q0-3 0-5.9 0-2.9 0-5.8 0-1.4-0.2-2.8c-0.1-1.1-0.4-2.2-0.6-3.3q0 0 0 0c-0.1 1.1-0.5 2.1-0.6 3.2-0.1 1-0.1 2-0.1 2.9q-0.1 3-0.1 6 0.1 2.9 0.1 5.8c0 1.9-0.1 3.9 0 5.9 0.1 0.9 1.4 0.9 1.5 0 0.1-2 0-4 0-6z"/><path class="c" d="m421.8 182.8q-0.1 0-0.1-0.1-0.1 0-0.1 0 0 0 0 0-0.1 0-0.2 0 0 0 0 0 0.1 0-0.1 0-0.2-0.1-0.4-0.1-0.2-0.1-0.4-0.2c0 0-0.1-0.1 0 0q-0.1 0-0.1 0-0.1-0.1-0.2-0.1 0 0-0.1-0.1c-0.2-0.1-0.5-0.2-0.8-0.4-0.2-0.3-0.5-0.4-0.6-0.7 0-0.1-0.1-0.1-0.1 0 0.1 0.4 0 0.8 0.2 1.1q0.2 0.6 0.8 1c0.3 0.2 0.7 0.4 1.1 0.4 0.2 0.1 0.4 0 0.6 0q0.2 0 0.3-0.1 0.1 0 0.1-0.1 0 0.1 0 0.1 0.1-0.1 0.2-0.1c0.3-0.1 0.2-0.6-0.1-0.6z"/><path class="k" d="m661.6 300.6l0.1 32.8h-8.5l-0.1-32.8z"/><path class="e" d="m693.2 308.3l0.1 25h-8.5l-0.1-25z"/><path class="d" d="m677 290.3l0.1 43-8.5 0.1-0.1-43.1z"/><path class="c" d="m645.4 316.1q0-4.5 0-8.9 0-2.1-0.1-4.3c0-1.5 0.1-3.1-0.2-4.6-0.2-0.8-1.4-0.6-1.6 0.1-0.3 1.4-0.1 2.9-0.1 4.2q-0.1 2.2 0 4.4 0 4.3 0 8.6c0 6-0.1 11.9 0.1 17.8 0.1 1.1 2 1.1 2 0 0.2-5.8 0-11.6-0.1-17.3z"/><path class="c" d="m703 333.1c-15.2-0.3-30.5-0.4-45.7-0.5q-3.2-0.1-6.4-0.1c-2.1 0-4.3-0.2-6.4 0.1-1.1 0.1-1.1 1.8 0 2 1.9 0.2 3.9 0.1 5.8 0.1q2.8 0.1 5.6 0.1 5.6 0 11.3 0 11.2 0.1 22.4 0.2 6.7 0 13.3 0c1.2 0 1.2-1.9 0.1-1.9z"/><path class="c" d="m518.3 349.1c-5.1 10.1-4.7 17-4.7 17h-23.3c0 0 0.3-5.1-2.9-13 8.4 1.5 19.5 2 31.3-4.7q-0.2 0.3-0.4 0.7z"/><path class="d" d="m533.9 321c-2.7 18.3-10.1 18-15.2 27.4q-0.2 0.3-0.4 0.7c-5.1 10.1-4.7 17-4.7 17h-23.3c0 0 0.3-5.1-2.9-13q-0.8-1.8-1.8-3.9c-5.2-10.1-13.8-16.6-15.3-29.4-1.1-9 0.8-15.2 5.2-21.2 6.6-8.7 16.4-12.8 26.3-12.6 9.9-0.3 19.8 3.8 26.4 12.5 4.5 5.9 6.9 13.5 5.7 22.5z"/><path class="c" d="m481.6 295.1c5.1-4.3 11.5-7.4 18-9 0 0 0-0.1 0-0.1-6.1 0.8-11.9 2.7-16.9 6.2-5.1 3.6-9.2 8.5-11.5 14.3-2.3 5.8-2.8 12.3-1.1 18.3 0.9 3.1 2.4 6 4.3 8.5 2.1 2.9 4.6 5.4 6.7 8.3 4.6 6.5 7.2 14 7.9 21.9 0 0.5 0.8 0.5 0.8 0-0.1-6.5-1.9-12.9-4.9-18.7-1.6-2.9-3.6-5.6-5.7-8.2-2.2-2.6-4.4-5.2-6-8.3-2.7-5.5-3-11.9-1.5-17.8 1.5-6.1 5.1-11.4 9.9-15.4z"/><path class="m" d="m524 322.6c-1.8 12.6-6.9 12.4-10.5 18.9q-0.1 0.2-0.2 0.5c-3.6 7-3.3 11.7-3.3 11.7l-16.1 0.1c0 0 0.2-3.6-2-9q-0.6-1.3-1.3-2.8c-3.6-6.9-8.9-6.4-10.8-19.4-0.9-6.2 0.8-11.4 3.9-15.6 4.5-6 11.3-8.8 18.2-8.7 6.8-0.2 13.6 2.7 18.2 8.7 3.1 4.1 4.8 9.3 3.9 15.6z"/><path class="a" d="m500.3 344.3c-0.1-1.9-0.3-3.7-0.4-5.6-0.2-1.9-0.2-3.8-0.6-5.7-0.3-1.5-2-0.9-2.1 0.5-0.1 1.7 0.2 3.6 0.3 5.4 0.1 1.9 0.2 3.7 0.3 5.6 0.3 6.1 1.1 12.5 2 11.8 0.1-0.1 0.1-0.1 0.1-0.1 0.7 0.3 0.5-7.9 0.4-11.9z"/><path class="a" d="m519.9 321.9c-0.6-3.8-4.1-4.2-6.6-4.2-2.6-0.1-20 0-22.8 0-2.5 0-6 0.4-6.6 4.3-0.5 3.8 2.8 5.8 5.1 7.2 2.9 1.9 5.9 3.7 8.8 5.4 1.4 0.8 2.3-1.5 1.1-2.4q-3.7-2.6-7.4-5c-1.2-0.7-2.3-1.4-3.4-2.2-0.8-0.5-1.8-1.4-1.7-2.7 0.1-1.3 1.5-1.7 2.4-1.9 1.3-0.1 24.9-0.2 26.2 0 0.9 0.1 2.3 0.5 2.5 1.9 0.1 1.2-0.9 2.1-1.7 2.7-1.1 0.8-2.3 1.5-3.4 2.2q-3.7 2.4-7.4 5c-1.3 0.9-0.3 3.2 1 2.4 3-1.7 5.9-3.5 8.9-5.4 2.2-1.5 5.6-3.5 5-7.3z"/><path class="a" d="m503.7 344.3c0-1.9 0.2-3.7 0.3-5.6 0.2-1.9 0.2-3.8 0.6-5.7 0.3-1.5 2-0.9 2.1 0.4 0.1 1.8-0.2 3.7-0.2 5.5-0.1 1.8-0.2 3.7-0.4 5.6-0.4 4-0.9 13-1.9 13.6-0.1 0-0.1-1.9-0.2-1.9-1 0.5-0.5-7.9-0.3-11.9z"/><path class="c" d="m492.8 381c0 0 2.7 5.4 9 5.1 4.6-0.2 7.2-2.2 8.1-5.2-7.7-0.8-17.1 0.1-17.1 0.1z"/><path class="l" d="m504.9 382.8h-5.9c-6.3 0-11.4-5.1-11.4-11.3v-7.6c0-1.8 1.5-3.3 3.3-3.3h22c1.8 0 3.3 1.4 3.3 3.3v7.5c0 6.3-5 11.3-11.3 11.4z"/><path class="c" d="m517.1 365.6c-2.4-0.5-4.9-0.3-7.3-0.3q-3.6 0-7.2-0.1-3.6-0.1-7.2-0.2c-2.5-0.1-5-0.4-7.5-0.3-1.7 0.1-1.8 2.8-0.1 3 2.4 0.4 4.9 0.3 7.3 0.4q3.5 0.1 7.1 0.1 3.6 0 7.2-0.1c2.5 0 5.2 0.2 7.6-0.5 1-0.2 1.2-1.8 0.1-2z"/><path class="c" d="m517.1 370.9c-2.4-0.5-4.9-0.3-7.3-0.3q-3.6 0-7.2-0.1-3.6-0.1-7.2-0.2c-2.5-0.1-5-0.4-7.5-0.3-1.7 0.1-1.8 2.8-0.1 3 2.4 0.4 4.9 0.3 7.3 0.4q3.6 0.1 7.1 0.1 3.6 0 7.2-0.1c2.5 0 5.2 0.2 7.6-0.4 1-0.3 1.2-1.9 0.1-2.1z"/><path class="c" d="m517.1 376.2c-2.4-0.5-4.9-0.3-7.3-0.3q-3.6 0-7.2-0.1-3.6-0.1-7.2-0.2c-2.5-0.1-5-0.4-7.4-0.3-1.8 0.1-1.9 2.8-0.2 3 2.4 0.4 4.9 0.3 7.3 0.4q3.6 0.1 7.1 0.1 3.6 0 7.2 0c2.5-0.1 5.2 0.1 7.6-0.5 1-0.3 1.2-1.9 0.1-2.1z"/><path class="n" d="m1000.6 862.1l0.3 137-1000 1.8-0.3-136.9z"/><path class="c" d="m999.8 908.2c-130.7-1.2-261.5 0.1-392.2 0.2-130.6 0.2-261.3 0.4-392 0.7-73.6 0.2-147.3 0.1-221 1.6 0 0 0 0.1 0 0.1 130.7 2.2 261.5 0.8 392.2 0.6 130.6-0.3 261.2-0.7 391.8-1 73.7-0.2 147.4 0.2 221.1-0.8 0.9 0 1-1.4 0.1-1.4z"/><path class="c" d="m999.9 953.9c-130.7-1.2-261.5 0.1-392.2 0.2-130.6 0.2-261.3 0.4-392 0.7-73.6 0.2-147.3 0.1-221 1.6 0 0 0 0.1 0 0.1 130.7 2.2 261.5 0.8 392.1 0.6 130.7-0.3 261.3-0.7 391.9-1 73.7-0.2 147.4 0.2 221-0.8 1 0 1.1-1.4 0.2-1.4z"/><path class="c" d="m978.1 861.4c-126.9-0.3-253.9-1.5-380.8-1.7-125.8-0.2-251.7 0.1-377.5 0.2q-52 0-104 0c-37.5 0.1-74.7-0.1-111.9 4.8-0.4 0.1-0.4 0.7 0 0.8 62.2 7.9 125.9 4.3 188.5 4.1q92.4-0.3 184.8-0.6c124.5-0.3 249 0.3 373.5-1.4 75.9-1.1 151.8-1.9 227.7-2.4 2.4 0 2.1-3.8-0.3-3.8z"/><path class="a" d="m284.9 421c-1.7-3.8-10.8-28.6-10.8-28.6l19.9 21.9 7.1-11.6 0.5 16.6 28.2-11.2-23.6 18.7 16.9 2.5-18.1 2.5 9.3 26.4-19.5-21.7-5.6 19.7-1.1-20.5-29.6 11.8 23.8-18.9-12.8-7.3z"/><path class="a" d="m488.3 64.2c1.2-3 9.9-21.4 9.9-21.4l-1.3 22.9 10.2-2.4-8.9 9.3 21.4 9.5-23-3 7.7 10.7-11.2-8.6-9.5 19.3 1.5-22.4-13.9 7.5 10.7-11.7-22.5-9.9 23.3 2.9-2.9-11z"/><path class="a" d="m251.7 119c0.1 12.9-10.3 23.3-23.2 23.3 12.9 0 23.3 10.4 23.3 23.2 0-12.8 10.4-23.3 23.2-23.3-12.8 0-23.2-10.3-23.3-23.2z"/><path class="a" d="m648 400.6c0.1 8.2-6.6 14.8-14.7 14.8 8.1 0 14.8 6.6 14.8 14.8 0-8.2 6.6-14.8 14.8-14.8-8.2 0-14.8-6.6-14.9-14.8z"/><path class="a" d="m719.5 179.1c0 12.9-10.4 23.3-23.2 23.3 12.8 0 23.3 10.4 23.3 23.2 0-12.8 10.4-23.3 23.2-23.3-12.8 0-23.3-10.3-23.3-23.2z"/></svg>