<svg version="1.2" xmlns="http://www.w3.org/2000/svg" viewBox="0 0 1000 1000" width="500" height="500"><style>.a{opacity:.5;mix-blend-mode:multiply;fill:#b4b4b4}.b{fill:#ffcc60}.c{fill:#e8e8e8}.d{fill:#32404d}.e{fill:#f8f8f8}.f{fill:#808080}.g{fill:#ff787b}.h{fill:#6da3b8}.i{fill:#b2e2f6}.j{fill:#b4b4b4}.k{fill:#e0e3e6}.l{fill:#fc7c70}.m{opacity:.5;mix-blend-mode:multiply;fill:#808080}.n{mix-blend-mode:multiply;fill:#e0e3e6}.o{opacity:.5;mix-blend-mode:multiply;fill:#32404d}.p{mix-blend-mode:multiply;fill:#e8e8e8}.q{fill:none;stroke:#000;stroke-miterlimit:10;stroke-width:2}.r{fill:none;stroke:#000;stroke-linecap:round;stroke-miterlimit:10;stroke-width:2;stroke-dasharray:14.06500053405762,14.06500053405762}.s{opacity:.5;mix-blend-mode:multiply;fill:#ffcc60}.t{fill:none;stroke:#000;stroke-linecap:round;stroke-miterlimit:10;stroke-width:2}.u{opacity:.5;mix-blend-mode:multiply;fill:#fc7c70}.v{fill:#ffe5b6}.w{fill:#fc7c70;stroke:#000;stroke-miterlimit:10;stroke-width:2}</style><path class="a" d="m499.9 779.9c-274.3 0-496.1-16.8-496.1-37.6 0-20.8 221.8-37.6 496.1-37.6 274.4 0 496.1 16.8 496.1 37.6 0 20.8-221.7 37.6-496.1 37.6z"/><path class="b" d="m257.1 749c-0.1-0.5-0.1-1.1-0.4-1.6-0.1-0.2-0.4-0.2-0.5 0-0.3 0.5-0.3 1.1-0.3 1.6-0.1 0.8 1.2 0.8 1.2 0z"/><path fill-rule="evenodd" class="c" d="m759.2 601.3v11.6c0 18.6-15.1 33.6-33.7 33.6h-450.8c-18.6 0-33.7-15-33.7-33.6v-11.6zm-247.1 23.2c0-6.4-5.2-11.6-11.6-11.6-6.4 0-11.5 5.2-11.5 11.6 0 6.4 5.1 11.5 11.5 11.5 6.4 0 11.6-5.1 11.6-11.5z"/><path fill-rule="evenodd" class="d" d="m759.2 254.6v346.7h-518.2v-346.7c0-18.5 15.1-33.6 33.7-33.6h450.8c18.6 0 33.7 15.1 33.7 33.6zm-19.9 290v-268.7c0-18.5-15-33.6-33.6-33.6h-411.2c-18.6 0-33.6 15.1-33.6 33.6v268.7c0 18.5 15 33.6 33.6 33.6h411.2c18.6 0 33.6-15.1 33.6-33.6z"/><path fill-rule="evenodd" class="e" d="m739.3 279.4v265.2c0 18.5-15 33.6-33.6 33.6h-291.6v-23.5c0-7.4-6.1-13.5-13.5-13.5h-54c-7.5 0-13.5 6.1-13.5 13.5v23.5h-38.6c-18.6 0-33.6-15.1-33.6-33.6v-265.2zm-71.9 267v-70.6c0-10.4-8.5-18.9-18.9-18.9h-195.7c-10.4 0-18.9 8.5-18.9 18.9v70.6c0 10.4 8.5 18.9 18.9 18.9h195.7c10.4 0 18.9-8.5 18.9-18.9zm0-124.8v-108c0-9.4-7.7-17.1-17.1-17.1h-300.2c-9.4 0-17.1 7.7-17.1 17.1v108c0 9.5 7.7 17.1 17.1 17.1h300.2c9.4 0 17.1-7.6 17.1-17.1zm-253.4 88.3v-39.5c0-7.4-6-13.5-13.4-13.5h-54c-7.5 0-13.6 6.1-13.6 13.5v39.5c0 7.5 6.1 13.5 13.6 13.5h54c7.4 0 13.4-6 13.4-13.5z"/><path fill-rule="evenodd" class="f" d="m739.3 275.9v3.5h-478.4v-3.5c0-18.5 15-33.6 33.6-33.6h411.2c18.6 0 33.6 15.1 33.6 33.6zm-29.6-15c0-5.8-4.6-10.4-10.4-10.4-5.7 0-10.3 4.6-10.3 10.4 0 5.7 4.6 10.4 10.3 10.4 5.8 0 10.4-4.7 10.4-10.4zm-27.4 0c0-5.8-4.7-10.4-10.4-10.4-5.8 0-10.4 4.6-10.4 10.4 0 5.7 4.6 10.4 10.4 10.4 5.7 0 10.4-4.7 10.4-10.4zm-27.5 0c0-5.8-4.7-10.4-10.4-10.4-5.8 0-10.4 4.6-10.4 10.4 0 5.7 4.6 10.4 10.4 10.4 5.7 0 10.4-4.7 10.4-10.4z"/><path class="g" d="m699.3 271.3c-5.7 0-10.3-4.7-10.3-10.4 0-5.8 4.6-10.4 10.3-10.4 5.8 0 10.4 4.6 10.4 10.4 0 5.7-4.6 10.4-10.4 10.4z"/><path class="h" d="m671.9 271.3c-5.8 0-10.4-4.7-10.4-10.4 0-5.8 4.6-10.4 10.4-10.4 5.7 0 10.4 4.6 10.4 10.4 0 5.7-4.7 10.4-10.4 10.4z"/><path class="f" d="m667.4 475.8v70.6c0 10.4-8.5 18.9-18.9 18.9h-195.6c-10.5 0-19-8.5-19-18.9v-70.6c0-10.4 8.5-18.9 19-18.9h195.6c10.4 0 18.9 8.5 18.9 18.9z"/><path fill-rule="evenodd" class="i" d="m667.4 313.6v108c0 9.5-7.6 17.1-17.1 17.1h-300.1c-9.5 0-17.1-7.6-17.1-17.1v-108c0-9.4 7.6-17.1 17.1-17.1h300.1c9.5 0 17.1 7.7 17.1 17.1zm-245 92.7v-77.4c0-8.8-7.1-15.9-15.9-15.9h-39.7c-8.7 0-15.8 7.1-15.8 15.9v77.4c0 8.8 7.1 15.9 15.8 15.9h39.7c8.8 0 15.9-7.1 15.9-15.9z"/><path class="b" d="m644.4 271.3c-5.8 0-10.4-4.7-10.4-10.4 0-5.8 4.6-10.4 10.4-10.4 5.7 0 10.4 4.6 10.4 10.4 0 5.7-4.7 10.4-10.4 10.4z"/><path class="c" d="m580.6 736.2c1.5 2.2 0.2 5.5-2.3 5.5h-77.8-77.8c-2.5 0-3.9-3.3-2.4-5.5 7.5-10.6 21-16.9 21-16.9 0 0 41 0 59.2 0 16.9 0 53.7 0 58.5 0q0.6 0 0.6 0c0 0 13.5 6.3 21 16.9z"/><path class="j" d="m559 646.5v72.8c-4.8 0-41.6 0-58.5 0-18.2 0-59.2 0-59.2 0h-0.5v-72.8z"/><path class="d" d="m500.5 636c-6.4 0-11.6-5.1-11.6-11.5 0-6.4 5.2-11.6 11.6-11.6 6.4 0 11.5 5.2 11.5 11.6 0 6.4-5.1 11.5-11.5 11.5z"/><path class="k" d="m422.4 328.9v77.4c0 8.8-7.1 15.9-15.9 15.9 0 0-1.2-37.2-9.4-45.4 3.8-3.1 6.2-7.7 6.2-13 0-9.2-7.4-16.6-16.6-16.6-9.2 0-16.7 7.4-16.7 16.6 0 6 3.2 11.3 7.9 14.2-7.6 3.9-9.5 34.3-9.3 44.2h-1.8c-8.7 0-15.8-7.1-15.8-15.9v-77.4c0-8.8 7.1-15.9 15.8-15.9h39.7c8.8 0 15.9 7.1 15.9 15.9z"/><path class="b" d="m414.1 554.7v23.5h-81v-23.5c0-7.4 6-13.5 13.5-13.5h54c7.4 0 13.5 6.1 13.5 13.5z"/><path class="l" d="m414.1 470.4v39.5c0 7.5-6.1 13.5-13.5 13.5h-54c-7.5 0-13.5-6-13.5-13.5v-39.5c0-7.4 6-13.5 13.5-13.5h54c7.4 0 13.5 6.1 13.5 13.5z"/><path class="b" d="m406.5 422.2h-37.9c-0.2-9.9 1.7-40.3 9.3-44.2 2.6 1.6 5.6 2.5 8.8 2.5 3.9 0 7.6-1.4 10.4-3.7 8.2 8.2 9.4 45.4 9.4 45.4z"/><path class="b" d="m386.7 347.2c9.2 0 16.6 7.4 16.6 16.6 0 5.3-2.4 9.9-6.2 13-2.8 2.3-6.5 3.7-10.4 3.7-3.2 0-6.2-0.9-8.8-2.5-4.7-2.9-7.9-8.2-7.9-14.2 0-9.2 7.5-16.6 16.7-16.6z"/><path class="m" d="m309.4 242.3c-3.5 0-5.6 2.4-6.9 5.8-4.2 11.3 4.6 23.3 16.7 23.6l303 7.7h-361.3v-12.8l8.5-13.1 7-5.9 15.9-5.3z"/><path class="n" d="m292.8 278.9c0 33 0 299.3 0 299.3l-6.4-1c0 0-7-7.1-10-6.7-2.9 0.3-11.9-10.8-11.9-10.8l-3.6-15.1v-265.2z"/><path class="o" d="m255 227.3c0 29.5 0 411.6 0 411.6l-7.3-5.9-5.9-12.7-0.8-19v-354.8l3.8-7.4z"/><path class="a" d="m536.7 646.5c-16.2 3.1-86.2 40.2-95.9 48.3-1.1 0.9 0-48.3 0-48.3z"/><path class="p" d="m468.9 719.3c-7.7 0-20.9 16.6-20.3 21.7 0.1 1.3-27.8 0-27.8 0l-1-1.6 0.5-3.2 10.2-10.2 10.3-6.7z"/><path class="q" d="m759.2 254.6c0-18.5-15.1-33.6-33.7-33.6h-450.8c-18.6 0-33.7 15.1-33.7 33.6v346.7h518.2z"/><path class="q" d="m241 601.3v11.6c0 18.6 15.1 33.6 33.7 33.6h450.8c18.6 0 33.7-15 33.7-33.6v-11.6z"/><path class="q" d="m559 646.5v72.8h-118.2v-72.8z"/><path class="q" d="m559.6 719.3c0 0-40.9 0-59.1 0-18.2 0-59.2 0-59.2 0 0 0-13.5 6.3-21 16.9-1.5 2.2-0.1 5.5 2.3 5.5h77.9 77.8c2.5 0 3.8-3.3 2.3-5.5-7.5-10.6-21-16.9-21-16.9z"/><path class="q" d="m500.5 636c-6.4 0-11.6-5.1-11.6-11.5 0-6.4 5.2-11.6 11.6-11.6 6.4 0 11.5 5.2 11.5 11.6 0 6.4-5.1 11.5-11.5 11.5z"/><path class="q" d="m260.9 279.4v265.2c0 18.5 15 33.6 33.6 33.6h411.2c18.6 0 33.6-15.1 33.6-33.6v-265.2z"/><path class="q" d="m739.3 275.9c0-18.5-15-33.6-33.6-33.6h-411.2c-18.6 0-33.6 15.1-33.6 33.6v3.5h478.4z"/><path class="q" d="m699.3 271.3c-5.7 0-10.4-4.7-10.4-10.4 0-5.8 4.7-10.4 10.4-10.4 5.8 0 10.4 4.6 10.4 10.4 0 5.7-4.6 10.4-10.4 10.4z"/><path class="q" d="m671.9 271.3c-5.8 0-10.4-4.7-10.4-10.4 0-5.8 4.6-10.4 10.4-10.4 5.7 0 10.4 4.6 10.4 10.4 0 5.7-4.7 10.4-10.4 10.4z"/><path class="q" d="m644.4 271.3c-5.8 0-10.4-4.7-10.4-10.4 0-5.8 4.6-10.4 10.4-10.4 5.7 0 10.4 4.6 10.4 10.4 0 5.7-4.7 10.4-10.4 10.4z"/><path class="q" d="m650.3 438.7h-300.1c-9.5 0-17.1-7.6-17.1-17.1v-108c0-9.4 7.6-17.1 17.1-17.1h300.1c9.5 0 17.1 7.7 17.1 17.1v108c0 9.5-7.6 17.1-17.1 17.1z"/><path class="q" d="m406.5 422.2h-39.7c-8.7 0-15.8-7.1-15.8-15.9v-77.4c0-8.8 7.1-15.9 15.8-15.9h39.7c8.8 0 15.9 7.1 15.9 15.9v77.4c0 8.8-7.1 15.9-15.9 15.9z"/><path class="q" d="m386.7 380.5c-9.2 0-16.7-7.5-16.7-16.7 0-9.2 7.5-16.6 16.7-16.6 9.2 0 16.7 7.4 16.7 16.6 0 9.2-7.5 16.7-16.7 16.7z"/><path class="q" d="m377.9 378c-7.6 3.9-9.5 34.3-9.3 44.2"/><path class="q" d="m397.1 376.8c8.2 8.2 9.4 45.4 9.4 45.4"/><path class="q" d="m400.6 523.4h-54c-7.5 0-13.5-6-13.5-13.5v-39.5c0-7.4 6-13.5 13.5-13.5h54c7.4 0 13.5 6.1 13.5 13.5v39.5c0 7.5-6.1 13.5-13.5 13.5z"/><path class="q" d="m414.1 578.2h-81v-23.5c0-7.4 6-13.5 13.5-13.5h54c7.4 0 13.5 6.1 13.5 13.5z"/><path class="r" d="m648.5 565.3h-195.6c-10.5 0-19-8.5-19-18.9v-70.6c0-10.4 8.5-18.9 19-18.9h195.6c10.4 0 18.9 8.5 18.9 18.9v70.6c0 10.4-8.5 18.9-18.9 18.9z"/><path  d="m445 468.3c57.7 26.6 116 51.9 174.7 76.3 10.6 4.4 21.2 8.8 31.9 12.8 1.9 0.6 2.7-2.3 0.8-3-23.5-8.6-46.5-18.9-69.6-28.7-32.1-13.5-64-27.4-96-41.1-13.7-5.9-27.4-11.7-41-17.6-0.9-0.4-1.7 0.8-0.8 1.3z"/><path  d="m653.8 469.2c-14.2 3.5-28.1 9.8-41.7 15.2-15.1 5.9-30 12.1-44.9 18.3q-42 17.8-83.5 36.7c-11.3 5.2-22.6 10.4-33.8 15.7-1.9 1-0.2 3.8 1.7 2.9 51.7-24.8 104.5-47.6 157.6-69.2 15-6.1 30.7-11 45.3-17.9 1-0.5 0.3-2-0.7-1.7z"/><path  d="m372.3 385.1c-5.2 2-10.8-6.4-12.3-10.3-2.4-6-1.5-12-0.3-18.1 0.2-0.9-0.9-1.1-1.2-0.4-3 7.4-2.8 16.2 1.6 22.9 2 3.1 8.5 10 12.6 6.8 0.4-0.3 0.2-1.1-0.4-0.9z"/><path  d="m359.9 356.8c0.8-0.9 1.5-1.9 2.3-2.9 0.7-0.8 1.8-1.7 2.2-2.7 0.3-0.4-0.2-0.9-0.6-0.7-1.1 0.5-1.9 1.7-2.5 2.7-0.8 1-1.5 2.1-1.9 3.3-0.1 0.3 0.3 0.5 0.5 0.3z"/><path  d="m359.4 356.6c-0.1-1.7-0.1-3.8-0.8-5.4-0.2-0.3-0.8-0.3-0.9 0.1-0.3 1.8 0.3 3.8 0.7 5.4 0.1 0.6 1 0.5 1-0.1z"/><path  d="m358.6 355.2q-1-0.6-2-1.3c-0.5-0.4-0.9-0.8-1.6-1-0.2 0-0.6 0.1-0.5 0.4 0.2 1.7 2.2 2.6 3.6 3.2 0.7 0.3 1.3-1 0.5-1.3z"/><path class="b" d="m646.6 309.9v7.1h-201.2v-7.1z"/><path class="i" d="m408.2 468.5v7h-67.2v-7z"/><path class="i" d="m408.2 485v7.1h-67.2v-7.1z"/><path class="c" d="m408.2 551.3v7.1h-67.2v-7.1z"/><path class="c" d="m408.2 567.9v7h-67.2v-7z"/><path class="i" d="m408.2 501.6v7h-67.2v-7z"/><path class="b" d="m646.6 330.7v7h-201.2v-7z"/><path class="b" d="m646.6 351.4v7h-201.2v-7z"/><path class="b" d="m646.6 372.1v7.1h-201.2v-7.1z"/><path class="b" d="m646.6 392.8v7.1h-201.2v-7.1z"/><path class="b" d="m646.6 413.6v7h-201.2v-7z"/><path class="j" d="m312.8 516.5c1 5.8-0.5 11.9-3.3 17.1-7 13-22.8 20.3-37.3 18.3q-4-0.5-7.7-2.1c-5-2-9.3-5.2-12.8-9.2-8-9-11.6-22-8.3-33.6 0.8-3.1 2.1-6.1 3.9-8.6 5.6-8 17.3-15.1 27.8-10.6q0.1 0 0 0 0.2 0.1 0.4 0.3l-0.1 0.1c-3.4 0-6.6 1.6-8.9 4.1-2.3 2.4-3.7 5.6-4.4 8.8-1.1 4.6-0.6 9.8 2.3 13.6 1.7 2.1 4 3.6 6.5 4.9q4.1 2.1 8.6 3.3c3.6 0.9 7.4 1.4 11 0.5 4.4-1 8.1-3.9 10.8-7.5 1.4-1.9 2.6-4.1 3-6.4 0.4-2.3 0-4.7-1.3-6.6q0.4 0.2 0.8 0.5c4.8 2.6 8 7.7 9 13.1z"/><path class="c" d="m303 502.9c1.3 1.9 1.7 4.3 1.3 6.6-0.4 2.3-1.6 4.5-3 6.4-2.7 3.6-6.4 6.5-10.8 7.5-3.6 0.9-7.4 0.4-11-0.5q-4.5-1.2-8.6-3.3c-2.5-1.3-4.8-2.8-6.5-4.9-2.9-3.8-3.4-9-2.3-13.6 0.7-3.2 2.1-6.4 4.4-8.8 2.3-2.5 5.5-4.1 8.9-4.1l0.1-0.1c1 1 1.9 2.4 1.6 3.1-0.4 1.1-1.3 1.7-2.2 2.4-2.2 1.8-4.1 4.1-5 6.9-0.8 2.7-0.6 5.9 0.9 8.3 1.1 1.8 2.8 3.1 4.5 4.4 1.6 1.1 3.3 2.2 5.2 2.9 2.7 0.9 5.7 0.9 8.5 0.5 2.1-0.3 4.3-0.8 6-2.1 3-2.3 3.9-6.3 4.6-10 0.1-0.6 0.4-1.1 0.7-1.7 0.7-1.1 3.3 0 3.5 0.6q-0.4-0.3-0.8-0.5z"/><path class="f" d="m272.2 551.9l-32 67.8-3.8-1.8q0.6-1.1 0.8-2.3c0.9-4.6-2.1-8.9-6.6-9.8-3.6-0.7-7.2 1.1-8.9 4.3l-2.8-1.4 32.8-68.1c3.5 4 7.8 7.2 12.8 9.2q3.7 1.6 7.7 2.1z"/><path class="f" d="m240.2 619.7l-35 74.2c-3.5-3.8-7.7-6.8-12.5-8.7-3.1-1.3-6.3-2-9.6-2.3l35.8-74.2 2.8 1.4q-0.6 1.1-0.8 2.3c-0.9 4.6 2.1 8.9 6.6 9.8 3.7 0.7 7.2-1.2 8.9-4.3z"/><path class="l" d="m237.2 615.6q-0.2 1.2-0.8 2.3c-1.7 3.1-5.2 5-8.9 4.3-4.5-0.9-7.5-5.2-6.6-9.8q0.2-1.2 0.8-2.3c1.7-3.2 5.3-5 8.9-4.3 4.5 0.9 7.5 5.2 6.6 9.8z"/><path class="j" d="m205.2 694c8.2 9 12 22.1 8.7 33.9-0.8 3.1-2 6.1-3.8 8.7-5.6 7.9-17.3 15.1-27.9 10.6q-0.1-0.2-0.3-0.3l0.1-0.1c3.4 0 6.6-1.6 8.9-4.1 2.3-2.4 3.7-5.6 4.4-8.8 1-4.7 0.5-9.9-2.4-13.6-1.7-2.1-4.1-3.6-6.5-4.9-2.8-1.3-5.6-2.4-8.6-3.2-3.6-0.9-7.4-1.4-11.1-0.5-4.3 1-8 4-10.7 7.6-1.4 1.9-2.6 4-3 6.3-0.4 2.3 0 4.8 1.4 6.6q-0.5-0.2-0.9-0.4c-4.8-2.6-8-7.7-9-13.1-1-5.8 0.5-11.9 3.3-17.1 6.6-12.5 21.3-19.8 35.3-18.7 3.3 0.3 6.5 1 9.6 2.3 4.8 1.9 9 4.9 12.5 8.7z"/><path class="c" d="m154.4 732.2c-1.4-1.8-1.8-4.3-1.4-6.6 0.4-2.3 1.6-4.4 3-6.3 2.7-3.6 6.4-6.6 10.7-7.6 3.7-0.9 7.5-0.4 11.1 0.5 3 0.8 5.8 1.9 8.6 3.2 2.4 1.3 4.8 2.8 6.5 4.9 2.9 3.7 3.4 8.9 2.4 13.6-0.7 3.2-2.1 6.4-4.4 8.8-2.3 2.5-5.5 4.1-8.9 4.1l-0.1 0.1c-1-1-1.9-2.4-1.6-3.1 0.3-1 1.3-1.7 2.2-2.4 2.2-1.7 4.1-4.1 4.9-6.9 0.9-2.7 0.7-5.9-0.8-8.3-1.2-1.8-2.9-3.1-4.6-4.3-1.6-1.2-3.3-2.3-5.2-3-2.7-0.9-5.7-0.8-8.6-0.4-2.1 0.3-4.2 0.9-5.9 2.1-3 2.3-3.9 6.3-4.6 10-0.1 0.6-0.3 1.1-0.7 1.7-0.7 1.2-3.2 0.1-3.5-0.5q0.4 0.2 0.9 0.4z"/><path class="a" d="m272.4 486.9c-10.8-0.2-30.6 54.4 8.5 65.2-7.1 0.1-12.9-1.1-12.9-1.1l-14-7.9-7.1-9.3-3.6-9.3-0.8-13.3 4.8-12.8 4.8-4.9 7.7-5.3 5-1.5z"/><path class="m" d="m256.7 545.4l-64 139.7-9.6-2.2 69.1-142.2z"/><path class="a" d="m207.1 696.3c-13.4-13.5-60.8-0.5-53.6 35.5-4.1-3.2-7.7-8.8-7.7-8.8l-1.6-10.4 3.6-11 6.6-8.7 11.6-7.3 14.3-3.4 12.4 2.9z"/><path  d="m276 487.7c-11.3-5.9-25.5 2.3-31.2 12.5-6.2 11.2-4.7 25.4 1.8 36.1 13.6 22.2 46.5 23 61.7 1.8 7.8-10.9 9.4-30.2-5.6-35.8-0.5-0.2-0.8 0.6-0.3 0.8 15.7 10 9.2 30.8-3.4 40.3-10.5 7.8-25.4 9.9-37.1 3.5-11.3-6.2-18.5-19-18.3-31.9 0.2-16.6 14.9-31.8 32-26.5 0.5 0.2 0.8-0.6 0.4-0.8z"/><path  d="m274.3 487.3c3.8 4.2-1.8 6.5-3.8 9.5-1.4 2.1-2.3 4.6-2.3 7.1 0 5.6 4.3 9.6 8.9 12.2 4.7 2.6 10.6 2.7 15.6 0.6 2-0.9 3.8-2.3 5-4.2 0.9-1.5 2.9-10.9 6-8.9 0.2 0.1 0.5-0.2 0.3-0.4-1.5-1.8-3.3-1.4-4.4 0.3-1.9 2.8-1.2 6.7-3.9 9.4-3.4 3.4-10.5 3.3-14.8 1.8-4-1.4-8.4-4.7-9.6-8.7-1.8-6.2 2.1-8.6 5.5-12.9 2.2-2.8 0.4-4.5-2.4-5.9-0.1-0.1-0.2 0-0.1 0.1z"/><path  d="m275.4 487.9c-8.1 0.4-13.3 7-14.5 14.6-1.5 9 3.1 15.3 11 18.9 8 3.7 17.4 5.3 25-0.1 5.8-4.2 10.5-11.9 6.3-18.7-0.3-0.5-0.9-0.1-0.7 0.4 4.6 6.9-2.9 15.7-9.2 18.5-6.2 2.9-14.1 0.5-20.1-2.2-5.8-2.6-10.5-6.7-10.6-13.5-0.3-7.9 4.3-16.3 12.8-17.3 0.4 0 0.4-0.6 0-0.6z"/><path  d="m181.5 747.4c11.3 5.8 25.4-2.5 31.1-12.7 6.1-11.2 4.6-25.4-2-36.1-13.7-22.1-46.6-22.8-61.7-1.6-7.8 10.9-9.2 30.3 5.7 35.8 0.6 0.2 0.8-0.5 0.4-0.8-15.3-9.6-9.8-29.9 2.3-39.6 10.5-8.3 25.9-10.9 37.9-4.3 11.4 6.1 18.6 18.9 18.5 31.8-0.1 16.6-14.8 31.9-31.9 26.6-0.5-0.1-0.8 0.6-0.3 0.9z"/><path  d="m183.1 747.7c-3.8-4.1 1.8-6.4 3.8-9.5 1.4-2.1 2.3-4.6 2.3-7.1-0.1-5.6-4.4-9.5-9-12.1-4.7-2.7-10.6-2.8-15.6-0.6-2.1 0.9-3.8 2.3-5 4.2-0.9 1.5-2.8 11-6 9-0.2-0.1-0.4 0.2-0.2 0.4 1.5 1.7 3.2 1.4 4.4-0.3 1.9-2.9 1.1-6.8 3.8-9.5 3.4-3.4 10.5-3.3 14.8-1.9 4 1.4 8.4 4.7 9.7 8.7 1.8 6.1-2.2 8.6-5.5 12.9-2.2 2.8-0.3 4.5 2.4 6 0.1 0 0.2-0.1 0.1-0.2z"/><path  d="m182 747.1c8.1-0.4 13.3-7.1 14.5-14.7 1.4-9-3.2-15.2-11.2-18.8-8-3.7-17.4-5.2-24.9 0.3-5.8 4.1-10.4 11.9-6.2 18.7 0.2 0.4 0.9 0 0.6-0.4-4.6-7 2.9-15.7 9.1-18.6 6.3-2.9 14.2-0.6 20.2 2.1 5.8 2.6 10.5 6.7 10.7 13.4 0.3 8-4.2 16.4-12.8 17.4-0.3 0.1-0.4 0.7 0 0.6z"/><path class="q" d="m183.1 682.9l68.6-142.3"/><path class="q" d="m272.3 551.9l-67.1 142.1"/><path class="q" d="m237.3 615.6c-0.9 4.5-5.3 7.4-9.8 6.6-4.5-0.9-7.5-5.2-6.6-9.8 0.8-4.5 5.2-7.4 9.7-6.6 4.5 0.9 7.5 5.2 6.7 9.8z"/><path fill-rule="evenodd" class="b" d="m349 624.6l19.1 20.4 19.2 20.4 19.1 20.4 19.1 20.5 17.3 18.4c8 8.6 1.9 22.7-9.9 22.6l-209.9-1.2c-12.2 0-18-14.9-9.2-23.2l111.3-104.2c5.4-5.1 13.9-4.8 19 0.6zm36.7 98c6.5 0.1 9.9-7.7 5.5-12.4l-54.3-57.9c-2.8-3-7.4-3.2-10.4-0.4l-61.2 57.3c-4.9 4.5-1.6 12.7 5 12.8z"/><path class="s" d="m346.5 621.9c-51.9 51.9-124.5 124.6-124.5 124.6l-5.4-2-5.3-5.3-2.9-7.9 5.4-8.4 111.3-104.2 7.2-3.5h8.5z"/><path fill-rule="evenodd" class="q" d="m213.8 722.9l111.3-104.2c5.4-5.1 13.9-4.8 19 0.6l98.7 105.4c8.1 8.6 1.9 22.7-9.9 22.6l-209.9-1.2c-12.2 0-18-14.9-9.2-23.2zm56.6-1l115.4 0.7c6.4 0 9.8-7.7 5.4-12.5l-54.2-57.9c-2.8-3-7.5-3.1-10.5-0.3l-61.2 57.2c-4.8 4.6-1.6 12.8 5.1 12.8z"/><path class="t" d="m349 624.6l-11.5 10.7"/><path class="t" d="m368.2 645l-11.5 10.8"/><path class="t" d="m387.3 665.4l-11.5 10.8"/><path class="t" d="m406.4 685.8l-11.5 10.8"/><path class="t" d="m425.5 706.3l-11.5 10.7"/><path class="l" d="m700.8 626.7l12.7 22.7 25.2 45.4 7 12.6c2.2 3.9 0.8 9-3.2 11.2l-18.3 10.2c-4 2.2-9 0.7-11.2-3.2l-92.2-165.9c-2.2-4-0.8-9 3.2-11.2l18.3-10.2c3.9-2.2 9-0.8 11.2 3.2l9.5 17.1 12.6 22.7 12.6 22.7z"/><path class="u" d="m630.4 544.9l98.7 181.1-4.9 2.8-6.3 0.4-4.9-3.6-92.7-167v-5.9l1.9-2.9z"/><path class="q" d="m742.5 718.6l-18.3 10.2c-4 2.2-9 0.7-11.2-3.2l-92.2-165.9c-2.3-4-0.8-9 3.1-11.2l18.4-10.2c3.9-2.2 8.9-0.8 11.2 3.2l92.2 165.9c2.2 4 0.8 9-3.2 11.2z"/><path class="t" d="m722.4 703.9l16.3-9.1"/><path class="t" d="m709.7 681.2l16.4-9.1"/><path class="t" d="m697.1 658.5l16.4-9.1"/><path class="t" d="m684.5 635.8l16.3-9.1"/><path class="t" d="m671.9 613.1l16.3-9.1"/><path class="t" d="m659.2 590.4l16.4-9.1"/><path class="t" d="m646.6 567.7l16.4-9.1"/><path class="l" d="m791.8 716.2c2 8.3 2.4 16.8 1.2 25.2-0.4 3.3-1.6 7.1-4.7 8.2l-2.2 0.9c-4 1-8.4 0.3-12-1.7l-0.2-0.1c2-5.3 2.3-11.4 2.1-17.2-0.1-4.8-0.4-9.7-1.6-14.3-0.6-2.1-1.4-4.3-2.4-6.2 2.5-0.9 5-2 7.6-2.7 2.7-0.8 5.7-1.1 8.4-0.2l0.7 0.7c1.7 2.1 2.5 4.8 3.1 7.4z"/><path class="c" d="m772 711c1 1.9 1.8 4.1 2.4 6.2 1.2 4.6 1.5 9.5 1.6 14.3 0.2 5.8-0.1 11.9-2.1 17.2-0.8 2.2-1.8 4.3-3.3 6.1l-0.6-0.5q-7.3 0.2-14.6 0.4c1.4-3.7 2.9-7.7 3.5-13.5 0.2-2.9 0.3-6.2 0.1-10.2-0.3-3.8-0.7-6.9-1.3-9.7-1.3-6-3.3-10-5.3-13.6l-0.1-0.4q0.9-0.1 1.7-0.2 6.7-0.9 13.3-1.7l0.4-0.4c1.8 1.7 3.2 3.8 4.3 6z"/><path class="d" d="m759 731c0.2 4 0.1 7.3-0.1 10.2-22.1 1.4-133.5 3.7-168.6 5.8-0.4-1.6-0.6-3.5-0.8-5.6-0.2-3.5 0-6.3 0.5-8.6 31.4-1.9 154.5-9.5 167.6-11.5h0.1c0.6 2.8 1 5.9 1.3 9.7z"/><path class="b" d="m757.7 721.3h-0.1c-13.1 2-136.2 9.6-167.6 11.5 0.8-4.2 2.3-6.3 2.8-6.9q0.2-0.2 0.2-0.2c0 0 134.4-14.9 159.4-18 2 3.6 4 7.6 5.3 13.6z"/><path class="b" d="m755.4 754.7q-0.1 0.1-0.1 0.3c-25.2-0.1-160.4 1.5-160.4 1.5 0 0-3.1-2.4-4.6-9.5 35.1-2.1 146.5-4.4 168.6-5.8-0.6 5.8-2.1 9.8-3.5 13.5z"/><path class="v" d="m590 732.8c-0.5 2.3-0.7 5.1-0.5 8.6 0.2 2.1 0.4 4 0.8 5.6 1.5 7.1 4.6 9.5 4.6 9.5l-0.1 0.3c-7.8-0.6-15.6-1.9-23.2-3.8-3.1-0.8-6.4-3-8.4-5.5h-0.1c-0.3-1.9-0.4-4.1-0.1-5.7 0 0 0 0 0 0q0 0 0 0c7.6-8.7 18.3-14.6 29.7-16.6l0.1 0.7c-0.5 0.6-2 2.7-2.8 6.9z"/><path class="d" d="m562.8 742q0.1-0.1 0.2-0.2c-0.3 1.6-0.2 3.8 0.1 5.7q0.1 1.1 0.4 2.1c-2.1-0.7-4.6-1.7-6-2.2q2.4-2.9 5.3-5.4z"/><path class="v" d="m563 741.8c0 0 0 0 0 0q-0.1 0.1-0.2 0.2 0.1-0.1 0.2-0.2z"/><path class="o" d="m672.4 716.9c-37.7 1.7-104.9 34.1-104.9 34.1l-4.3-3.5c0 0-0.3-5.6 0-5.8 0.2-0.2 5.9-5.7 5.9-5.7l12.3-7.4 13.6-3.4z"/><path class="q" d="m759 731c-0.8-12.1-3.7-18-6.6-23.3-25 3.1-159.4 18-159.4 18 0 0-4.2 4.1-3.5 15.7 0.7 11.5 5.4 15.1 5.4 15.1 0 0 135.2-1.6 160.4-1.5 2.2-5.7 4.4-11.9 3.7-24z"/><path  d="m589.9 733.6c22.4-0.5 44.9-2.7 67.3-4.1 26.2-1.7 52.5-3.1 78.8-4.9 7.3-0.6 14.7-0.9 22-2 1.7-0.2 1-2.8-0.7-2.6-17.7 2.7-36 3.2-53.9 4.5q-40.8 3-81.6 5.5c-10.6 0.7-21.3 1-31.9 2.1-0.9 0.1-1 1.5 0 1.5z"/><path  d="m589.7 747.6c9.1 0.6 18.6-0.5 27.8-0.8q19-0.7 38.1-1.2 38.6-1.1 77.2-2.1c8.7-0.3 17.4-0.5 26-1 1.7-0.1 1.7-2.7 0-2.6-45.8 2.8-91.9 3-137.9 4.7-10.2 0.4-21.3-0.2-31.4 1.8-0.7 0.2-0.5 1.1 0.2 1.2z"/><path  d="m751.5 707.8c2.4 0.4 4.9-0.2 7.4-0.5q4.2-0.5 8.4-1.1c1.1-0.1 1.1-1.8 0-1.7q-4 0.5-8.1 1.1c-2.6 0.3-5.4 0.4-7.8 1.4-0.3 0.2-0.2 0.7 0.1 0.8z"/><path  d="m767 705.2c10.3 12.5 11.3 35.6 2.8 49.3-0.6 0.8 0.7 1.8 1.3 1 5.8-6.8 6.2-16.5 5.9-25-0.3-9.4-1.8-19.6-9-26.2-0.7-0.6-1.5 0.2-1 0.9z"/><path  d="m755.3 755.3c4.9 0.1 9.8 0.1 14.7 0.1 1.3 0 1.3-2.2 0-2.1-4.9 0.2-9.8 0.5-14.7 0.8-0.7 0.1-0.8 1.1 0 1.2z"/><path  d="m771.5 711.5c2.7-0.2 5.1-1.6 7.7-2.3 3-0.9 5.7-0.7 8.8-0.8 0.3 0 0.4-0.4 0.1-0.6-4.4-2.9-12.9 0.5-16.8 3-0.3 0.2-0.2 0.8 0.2 0.7z"/><path  d="m788.4 709c3.3 5.7 4 13.2 4.3 19.8 0.2 6.1 0.9 16.3-4.6 20.5-0.3 0.2-0.1 0.8 0.3 0.7 6.3-2 6.1-10.9 6.2-16.3 0.2-8.1-0.5-18.5-5.6-25.1-0.3-0.4-0.9-0.1-0.6 0.4z"/><path  d="m786.1 750.2c-4.2 0.3-7.8 0-11.4-2.4-1.3-0.9-2.6 1.4-1.2 2 4 1.7 8.6 2.6 12.7 1.1 0.4-0.1 0.4-0.7-0.1-0.7z"/><path  d="m592.9 724.6c-6.1 0.6-11.9 2.6-17.2 5.6-4.9 2.7-11.2 6.7-13.6 11.8-0.3 0.5 0.2 1.1 0.7 0.8 4.7-3 8.3-7.4 13.3-10.3 5.3-3.2 11.1-5.1 17-6.7 0.6-0.2 0.5-1.3-0.2-1.2z"/><path  d="m595.1 756.5c-10.4-3.7-21.8-2.3-31.6-8.4-0.6-0.4-1.3 0.3-1 0.9 2.6 4.5 9 5.2 13.6 6.2 6 1.3 13 3 19 2 0.4 0 0.4-0.6 0-0.7z"/><path  d="m562.8 741.5c-1.5 2.1-1.1 5.5-0.1 7.7 0.5 1 2.2 0.3 1.8-0.8-0.3-1.2-0.7-2.4-0.8-3.7-0.1-1 0-2.1-0.2-3.1 0-0.4-0.5-0.3-0.7-0.1z"/><path  d="m563.2 741.1c-1.1 0.9-2.3 1.6-3.3 2.5-1.1 1-2 2.1-3.1 3.2-0.5 0.5-0.2 1.3 0.4 1.5 2 0.7 4 1.5 6.1 1.8 0.9 0.1 1.7-1.2 0.6-1.7-1.9-0.8-4.1-1.3-6.2-1.8q0.3 0.6 0.6 1.3c1.6-2.1 3.5-4.2 5.4-6.1 0.3-0.3-0.1-1-0.5-0.7z"/><path class="q" d="m716.7 294.9l20.2 22.7 31.9-34.9 43.1 47.8 25.3-59.2 32.4 69.5"/><path class="q" d="m716.7 312.1l20.2-22.8 34.6 35.7 36.3-45.6 29.1 53.3 32.7-66.1"/><path class="q" d="m654.9 304.5v38.2"/><path fill-rule="evenodd" class="j" d="m654.9 308.4c-4.4-2.5-3.7-9.8 1.9-10.9l213.8-44.2c3.7-0.7 7.1 2.1 7.1 5.9v471.3h-17.1v-379.3l-203.8-42.1q-1.1-0.2-1.9-0.7zm64.8 0.4l10.8 1.6 6.4 7.2 5.1-5.5 19.8 2.9 9.7 10 6-7.6 26 3.8 8.4 9.3 3.2-7.6 17.9 2.7 3.9 7.1 3-6.1 20.7 3.1v-52.7l-19.4 2.8-4-8.5-4.1 9.7-22.6 3.4-2.7-5-4.8 6.1-28 4.1-6.2-6.9-8.3 9.1-18.6 2.7-5-5.2-6 6.9-11.5 1.7-12.9 1.9c-4.1 0.6-4.1 6.4 0 7z"/><path class="j" d="m837.2 271.3l4 8.5-8.1 1.2z"/><path class="j" d="m839.9 326.6l-3 6.1-3.9-7.1z"/><path class="j" d="m803.5 321.2l11.6 1.7-3.2 7.6z"/><path class="j" d="m807.8 279.4l2.7 5-7.5 1.1z"/><path class="j" d="m777.5 317.4l-6 7.6-9.7-10z"/><path class="j" d="m768.8 282.7l6.2 6.9-14.5 2.2z"/><path class="i" d="m771.5 479v21.6c0 10.5-8.4 19-18.9 19h-41.2c4.2-7.1 9.3-13.5 14.8-18.9 13.5-13.6 30-21.7 45.3-21.7z"/><path fill-rule="evenodd" class="b" d="m771.5 430.1v48.9c-15.3 0-31.8 8.1-45.3 21.7l-0.1-0.1c-23.8-19.7-92.2-19.4-103.9-6.4-27.4-15.5-63.7-20.9-84.1-15.2v-48.9c0-10.5 8.4-18.9 18.9-18.9h195.6c10.5 0 18.9 8.4 18.9 18.9zm-26.7 23.7c0-10.1-8.1-18.2-18.2-18.2-10 0-18.2 8.1-18.2 18.2 0 10 8.2 18.2 18.2 18.2 10.1 0 18.2-8.2 18.2-18.2z"/><path class="j" d="m742 312.1l-5.1 5.5-6.4-7.2z"/><path class="j" d="m736.9 289.3l5 5.2-11 1.7z"/><path class="l" d="m726.6 472c-10 0-18.2-8.2-18.2-18.2 0-10.1 8.2-18.2 18.2-18.2 10.1 0 18.2 8.1 18.2 18.2 0 10-8.1 18.2-18.2 18.2z"/><path class="i" d="m726.1 500.6l0.1 0.1c-5.5 5.4-10.6 11.8-14.8 18.9h-60.7c-6.5-10.3-16.7-18.8-28.5-25.4 11.7-13 80.1-13.3 103.9 6.4z"/><path class="i" d="m650.7 519.6h-93.7c-10.5 0-18.9-8.5-18.9-19v-21.6c20.4-5.7 56.7-0.3 84.1 15.2 11.8 6.6 22 15.1 28.5 25.4z"/><path class="a" d="m569.3 411.2v108.4h-6.4-12.2l-7.8-6.3-4.7-10.5v-80.6l8-7.6 10.8-3.4z"/><path class="a" d="m680 292.7c-3.5 4.9 12.7 23.8 12.7 23.8l-35.9-7.4c-3.5-2-4.8-5.8-4.8-5.8v-3.7l7.2-3.1z"/><path class="a" d="m860.6 351.2c3.8 14.8 13.2 380 13.2 380l-13.2-0.7z"/><path class="t" d="m752.6 519.6h-195.6c-10.5 0-18.9-8.5-18.9-19v-70.5c0-10.5 8.4-18.9 18.9-18.9h195.6c10.4 0 18.9 8.4 18.9 18.9v70.5c0 10.5-8.5 19-18.9 19z"/><path class="t" d="m538.1 479c29.2-8.1 90.9 6.4 112.7 40.6"/><path class="t" d="m622.2 494.1c11.6-12.9 80.1-13.2 104 6.5"/><path class="t" d="m771.5 479c-21.5 0-45.4 16.1-60.1 40.6"/><path class="t" d="m726.6 472c-10 0-18.2-8.2-18.2-18.2 0-10.1 8.2-18.2 18.2-18.2 10.1 0 18.2 8.1 18.2 18.2 0 10-8.1 18.2-18.2 18.2z"/><path class="q" d="m557 411.2l92.6-66.9c3.1-2.2 7.3-2.2 10.3 0l92.7 66.9"/><path fill-rule="evenodd" class="q" d="m877.7 259.2v471.3h-17.1v-379.3l-203.8-42.1c-6.3-1.3-6.3-10.3 0-11.6l213.8-44.2c3.7-0.7 7.1 2.1 7.1 5.9zm-17.1 70.5v-52.7l-154.2 22.8c-4 0.6-4 6.4 0 7z"/><path  d="m744.1 438.2q2-1.1 4-2.2c1.3-0.6 2.2-1.1 3.1-2.2 0.2-0.3-0.1-0.7-0.4-0.7-1.4 0.2-2.3 0.7-3.6 1.4q-2 1.1-4 2.3c-0.9 0.5-0.1 1.9 0.9 1.4z"/><path  d="m748.7 442.9c1.9 0.1 4.4 0.5 6.2-0.2 0.7-0.3 0.7-1.1 0-1.4-1.8-0.7-4.3-0.2-6.2-0.1-1.1 0-1.1 1.7 0 1.7z"/><path  d="m746.6 459.9c1.5 0.9 3.2 2.3 4.9 2.5 0.5 0.1 0.9-0.6 0.6-1-1-1.4-3.1-2.2-4.6-3.1-1-0.6-1.9 1-0.9 1.6z"/><path  d="m738.4 473.4c-0.1 2 0.7 4 2.4 5.1 0.9 0.5 1.7-0.7 1.1-1.5-0.9-1-1.7-2.1-1.7-3.6-0.1-1.1-1.7-1.1-1.8 0z"/><path  d="m727.4 477.9c-0.1 1.4-0.6 3.7 0.4 4.8 0.3 0.3 0.7 0.3 0.9 0 1.1-1.1 0.5-3.5 0.4-4.8 0-1.1-1.6-1.1-1.7 0z"/><path  d="m718.3 473.9q-1.4 1.5-2.7 2.9c-0.7 0.8-1.7 1.6-1.8 2.7 0 0.5 0.5 0.8 0.9 0.7 1.1-0.3 1.7-1.4 2.4-2.2q1.2-1.4 2.4-2.9c0.7-0.8-0.5-2-1.2-1.2z"/><path  d="m702.1 471.6q2.4-0.4 4.7-0.8c1.4-0.3 3-0.3 4.2-1.1 0.4-0.3 0.4-1.1-0.2-1.2-1.4-0.4-2.7 0.1-4.1 0.4q-2.5 0.6-5.1 1.1c-1 0.2-0.6 1.8 0.5 1.6z"/><path  d="m697.7 458.3q1.7-0.4 3.5-0.9c1.1-0.2 2.3-0.4 3.2-1 0.7-0.5 0.4-1.4-0.4-1.6-1.1-0.1-2.3 0.4-3.3 0.7q-1.8 0.5-3.5 1c-1.2 0.4-0.7 2.1 0.5 1.8z"/><path  d="m696.9 445.1c3.4 0.4 6.3 1.5 9.6 2.4 1 0.3 1.7-1.3 0.7-1.8-3.1-1.6-6.9-2.1-10.3-2.4-1.2 0-1.2 1.7 0 1.8z"/><path  d="m706.2 431.6q2 1.8 4 3.6c1.2 1 2.4 2.5 3.9 3.1 0.6 0.3 1.5-0.3 1.1-1.1-0.9-1.3-2.5-2.3-3.8-3.3q-2.1-1.6-4.2-3.3c-0.7-0.6-1.7 0.3-1 1z"/><path  d="m723.7 432.4q0.6-2.6 1.1-5.1c0.2-1.4 0.7-2.9 0.2-4.2-0.2-0.5-0.8-0.8-1.2-0.4-1 1.3-1 2.9-1.2 4.4q-0.4 2.5-0.6 5c0 1 1.5 1.2 1.7 0.3z"/><path  d="m735.4 432.9c1.2-0.9 2.2-2.3 3.2-3.5 0.9-1.1 2.1-2.3 2.6-3.7 0.2-0.8-0.6-1.3-1.3-1-1.3 0.7-2.2 2.1-3.1 3.3-0.9 1.1-2.1 2.3-2.7 3.6-0.4 0.8 0.4 1.9 1.3 1.3z"/><path class="w" d="m909.1 676.8v48.5c0 4.2-3.3 7.5-7.5 7.5h-20.4c-4.1 0-7.4-3.3-7.4-7.5v-48.5c0-4.1 3.3-7.4 7.4-7.4h20.4c4.2 0 7.5 3.3 7.5 7.4z"/><path class="w" d="m933.7 753.5h-48.5c-4.1 0-7.5-3.4-7.5-7.5v-20.4c0-4.1 3.4-7.4 7.5-7.4h48.5c4.1 0 7.4 3.3 7.4 7.4v20.4c0 4.1-3.3 7.5-7.4 7.5z"/><path class="w" d="m877.9 753.5h-48.5c-4.1 0-7.4-3.4-7.4-7.5v-20.4c0-4.1 3.3-7.4 7.4-7.4h48.5c4.1 0 7.5 3.3 7.5 7.4v20.4c0 4.1-3.4 7.5-7.5 7.5z"/></svg>