<svg version="1.2" xmlns="http://www.w3.org/2000/svg" viewBox="0 0 1000 1000" width="1000" height="1000">
	<title>24487823_6951807-ai</title>
	<style>
		.s0 { fill: #407bff } 
		.s1 { opacity: .3;fill: #000000 } 
		.s2 { fill: #ffffff } 
		.s3 { fill: #263238 } 
	</style>
	<g id="Target">
		<g id="&lt;Group&gt;">
			<g id="&lt;Group&gt;">
				<path id="&lt;Path&gt;" class="s0" d="m969.1 556.3c-53.4 190.4-227.6 314.2-416.3 311.9v0.1h-52.8v-4q-28.8-3.9-57.6-11.9c-227.2-63.8-359.7-299.5-296-526.7 47.4-169 190-285.7 353.6-308v-4h52.8v0.1c39.7-0.5 80.2 4.6 120.3 15.9 227.2 63.7 359.7 299.5 296 526.6z"/>
				<path id="&lt;Path&gt;" class="s1" d="m969.1 556.3c-53.4 190.4-227.6 314.2-416.3 311.9v0.1h-52.8v-4q-28.8-3.9-57.6-11.9c-227.2-63.8-359.7-299.5-296-526.7 47.4-169 190-285.7 353.6-308v-4h52.8v0.1c39.7-0.5 80.2 4.6 120.3 15.9 227.2 63.7 359.7 299.5 296 526.6z"/>
				<path id="&lt;Path&gt;" class="s0" d="m92.1 325.7c-63.7 227.1 68.8 462.9 296 526.7 227.1 63.7 462.9-68.9 526.6-296.1 63.7-227.1-68.8-462.9-296-526.6-227.1-63.7-462.9 68.8-526.6 296z"/>
				<path id="&lt;Path&gt;" class="s2" d="m412.2 766.1c179.3 50.3 366-54.7 416.3-233.9 50.3-179.3-54.7-366-233.9-416.3-179.3-50.3-366.1 54.7-416.3 233.9-50.3 179.3 54.7 366.1 233.9 416.3z"/>
				<path id="&lt;Path&gt;" class="s0" d="m436.4 679.9c131.7 36.9 269-40.2 305.9-171.9 36.9-131.7-40.2-268.9-171.9-305.9-131.7-36.9-269 40.2-305.9 171.9-36.9 131.7 40.2 269 171.9 305.9z"/>
				<path id="&lt;Path&gt;" class="s2" d="m460.6 593.7c84.2 23.6 171.9-25.7 195.5-109.9 23.6-84.2-25.7-171.9-109.9-195.5-84.2-23.6-171.9 25.7-195.5 109.9-23.6 84.2 25.7 171.9 109.9 195.5z"/>
				<path id="&lt;Path&gt;" class="s0" d="m484.8 507.4c36.6 10.3 74.8-11.1 85-47.8 10.3-36.6-11.1-74.8-47.8-85-36.6-10.3-74.8 11.1-85 47.8-10.3 36.6 11.1 74.8 47.8 85z"/>
			</g>
			<path id="&lt;Path&gt;" class="s3" d="m25.3 177.9l103.1-15.7-15.7-103.2c-0.9-5.9 3.2-11.5 9.2-12.4 6-0.9 11.5 3.2 12.4 9.2l17 111.4 39.6 29.1-13.7-89.8c-0.9-6 3.2-11.5 9.2-12.4 6-0.9 11.6 3.2 12.5 9.1l16.9 111.5 50 36.8-13.6-89.9c-0.9-5.9 3.2-11.5 9.1-12.4 6-0.9 11.6 3.2 12.5 9.2l16.9 111.4 217.4 160c13.7 11.2 4.7 25.4-6.5 22.3l-226.1-166.4-107.5 16.4c-6 0.9-11.5-3.2-12.4-9.2-0.9-5.9 3.2-11.5 9.1-12.4l85.9-13.1-50-36.8-107.5 16.4c-6 0.9-11.6-3.2-12.5-9.2-0.9-6 3.2-11.5 9.2-12.4l85.9-13.1-39.6-29.2-107.5 16.4c-6 0.9-11.6-3.2-12.5-9.2-0.9-5.9 3.2-11.5 9.2-12.4z"/>
		</g>
	</g>
</svg>