<svg version="1.2" xmlns="http://www.w3.org/2000/svg" viewBox="0 0 1000 1000" width="500" height="500"><style>.a{fill:#4d4d4d}</style><path class="a" d="m433.9 963.9l25.8-154.2-19-60.7 70.4-50.1 70.4 50.1-19 60.7 25.8 154.2h411.7l-68.2-198.6c-22.8-66.3-76.6-117.3-144.1-136.4-72.7-20.6-150-34.9-172.9-39 0.4 0.5 0.9 0.9 1.3 1.3l-109.2 90.3-115.4-90.3q0.7-0.7 1.4-1.5c-21.9 3.7-104.4 18.4-180.6 39.6-67.7 18.9-121.5 70.1-144.3 136.6l-68 198z"/><path class="a" d="m623.1 584c-16.6-16.1-25.9-65.8-28.8-103.4l-0.2-3.3-16.4 34.5c3.7 25.3 10.9 58.1 24.4 78l-95.3 78.9-101.1-79.1c16.2-24.2 23.2-67.1 26.1-92.7l-17.9-24.7-0.7 8.4c-2.9 37.6-12.1 87.3-28.7 103.4l-8.3 8 130.9 102.4 124-102.6z"/><path class="a" d="m695.2 236.2l-34 46.3v-43.2c0 0-54.6-47.3-65.3-70.2-29.2 9.4-59.4 14.1-89.7 14.1-30.3 0-60.5-4.7-89.7-14.1-5.2 11.1-21.4 28.6-36.3 43.4-14.8 14.7-28.4 26.7-28.4 26.7v0.1q0 0-0.1 0v52.9l-41-56c0 0-4-152.5 73.5-158.8 0 0 35.5-35.7 108.3-40v-0.3c3.6-0.1 7-0.1 10.4-0.1q5.1 0 10.5 0.1v0.3c72.8 4.3 108.2 40 108.2 40 77.6 6.3 73.6 158.8 73.6 158.8z"/><path fill-rule="evenodd" class="a" d="m507.6 525.6h-2.8c-76.8-6.6-117.1-46.6-137.4-79-21.8-35-25.5-68.3-25.6-69.7l-0.1-1v-142.1l3.7-2.3c14.9-13.2 54.3-50.1 62.1-66.7l3.7-7.9 8.4 2.7c56.7 18.2 116.5 18.2 173.2 0l8.4-2.7 3.8 7.9c8 17.2 48.1 54.1 62.8 66.9l3.5 3-0.2 142.2c-0.2 1.4-3.8 34.7-25.7 69.7-20.2 32.4-60.5 72.4-137.3 79zm-1.6-20.1h0.7c127.3-11 143.2-120.9 144.3-130.2l0.1-131.5c-11.6-10.3-45.5-41-60-62.8-55.8 16.4-114.2 16.4-170 0-14.3 21.4-48 52.4-59.4 62.7v131.6c1.1 9.2 17 119.2 144.3 130.2z"/><path class="a" d="m351.8 361.9c-30.6-2-34.4-16.4-33.7-32.5 0.6-16.7-5.4-34.1-15.5-73.6-10.1-39.6 44.5-19.2 44.5-19.2l4.6 11.6z"/><path class="a" d="m704.6 255.8c-10.1 39.5-16.2 56.9-15.5 73.6 0.6 15-2.6 28.6-27.9 32l0.2-122.1c0 0-0.6-0.5-1.7-1.4l0.5-1.3c0 0 54.4-20.4 44.4 19.2z"/><path class="a" d="m587.1 497.7c0 0-38.4 66.9-135.4 58.5l-22.5 77.7-37.7-42.7 30.2-99.4c0 0 91 40.2 165.4 5.9z"/><path class="a" d=""/></svg>