<svg version="1.2" xmlns="http://www.w3.org/2000/svg" viewBox="0 0 1120 900" width="1120" height="900">
	<title>10722609_2263-ai</title>
	<g id="_Artboards_">
	</g>
	<g id="227353356351_1">
		<g id="&lt;Group&gt;">
		</g>
		<g id="&lt;Group&gt;">
		</g>
		<g id="&lt;Group&gt;">
		</g>
		<g id="&lt;Group&gt;">
		</g>
		<g id="&lt;Group&gt;">
			<path id="&lt;Compound Path&gt;" fill-rule="evenodd"   d="m204.5 488.4c-1.3-1.3-2.8-2.7-4.6-4.1 8.6 6.5-7.4-10.4 4.8 1.4-2.4-2.9-1.5-6.6 1.2-10.6 0 0 0.5-0.4 0.4-0.5 6.1-8.6 20.4-19.1 30.1-28.5-0.1-0.7 0-1.4 0.4-1.3 0.2 0.1 0.3 0.3 0.4 0.5 2.8-2.8 5.2-5.5 7.6-7.8 1.9-0.2 6.4-1.7 10.5-3.5-22.6-17.4-44.3-35.8-63.1-57.5-14.7-16.8-0.6-14.4 13.7-9.1 1.4-2.7 3.9-5.6 6-10.2-4.5 9.8 8.9-9.1-0.2 5.2 2.3-2.9 6.4-2.3 11.5 0.2 10.4 5.2 24.7 18.5 36.5 27.1 0.7-0.1 1.4-0.1 1.3 0.3 0 0.2-0.2 0.3-0.3 0.5 3.6 2.5 6.9 4.6 9.8 6.6 0.8 2.4 5.1 9.5 9 13.6 8.4-8.5 17.8-17.7 27.3-26.2-0.5-1.3-0.2-3 1.6-1.4 18.6-16.3 37.3-28.9 49.5-25 36.9 11.6-21.8 56.5-48.2 76.2 15.2 7.1 33 15 47 23.6 2 0.3 3.9 0.8 0.8 0.5 0.7 0.4 1.4 0.9 2.1 1.4 0.1-0.4 0.1-0.6 0.2-1 0.4-0.7 17.7 6.6 15.5 11.5q-1.2 0.2-2.3 0.2 2.1 2.2 3.7 4.5c1.5 0.6 2.6 1.1 2.4 1.1-0.5 0.1-0.9 0.1-1.4 0.2q1.3 2.2 2 4.5c10.7 35.5-83.2-16.7-88.5-20.5q-3.1-2.2-6.1-4.4c-21.9 21.7-49.2 49.2-78.1 48.3-9.1-0.2-8.2-6.9-2.5-15.8zm7.4-131.3q0 0.1 0 0.1 0 0 0-0.1zm-12 127.2q0 0 0 0 0 0 0 0zm50.9-90.6c-0.9 0.5-1.5 1-2.1 1.6q0.4 0.3 0.8 0.6 0.9-0.9 1.3-2.2zm-3.8 0.2c0.2 0.1 0.3 0.2 0.8 0.1 0-0.3-0.4-0.2-0.8-0.1zm-15.7-19.6c-0.3 0.3-3.7 5.1 1.3-0.4-0.1-0.3-0.5-0.2-1.3 0.4zm-1.7 5.3q0.5 0.4 1 0.8c0.5-1.1 0.2-2.6-1-0.8zm-17.5-13.1c3 0 0.2-2 0.2-2.1q-2.7 3-0.2 2.1zm8.2 102q0.4-0.3 0.8-0.8c-0.2-0.4-0.3-0.8-0.6-1.5-3.1-2.2-1.5 0.8-0.2 2.3zm-2 1.1c0 0 0.3 0.3 0.5 0.6q0.2-0.2 0.4-0.4c-0.3-0.5-0.6-0.9-1-1.5q-0.5 0.1 0.1 1.3zm-2.5 0.9q0.9 0.8 1.6 1.2 0.3-0.3 0.6-0.6c-1.3-1.1-2.9-2.1-2.9-1.1 0.5 0.4 0.7 0.5 0.7 0.5z"/>
			<path id="&lt;Compound Path&gt;" fill-rule="evenodd"  d="m580.1 488.4c0.5-0.4 0.9-0.9 1.3-1.4q0.5-0.5 1-1c-1.6-1.8-3.6-3.6 0.6-0.6 0.3-0.3 0.6-0.7 0.9-0.9-0.7-2.2-0.3-4.7 1.1-7.4 0 0 0.7-0.7 0.5-1 4.8-9.1 17.5-20.4 25.9-30.6-0.2-0.7-0.1-1.4 0.2-1.3 0.2 0.1 0.4 0.3 0.5 0.4 2.4-3 4.4-5.8 6.5-8.3 3.9-0.8 19.3-8.4 16-11.5-0.5-0.5 0.5-0.3 2-0.1-13.7-12.1-27.5-24.3-42.1-35.4-9.9-7.6-1.8-26.2 10.8-18.6 1 0.6 1.8 1.2 2.8 1.8 0.5-1.3 1-2.7 1.4-4.2-2.8 10.4 7.2-10.6 0.3 4.9 2.1-3.7 5.5-4.3 9.5-3 0 0 0.9 0.6 1.2 0.2 9.3 3.2 21.9 14.4 32.4 21.6 0.8-0.3 1.6-0.4 1.4 0 0 0.3-0.2 0.5-0.4 0.7 2.3 1.6 4.6 3 6.6 4 4.4-5.4 9.1-10.8 13.3-16.1-1.8-0.3-3.2-6.1 1.7-1.3 14.7-16.3 30-29.5 41.1-28.5 40.2 3.7-21.8 55.7-27.2 61.7q-3.5 3.9-7 7.8c3.9 1.7 2.7 4 0.9 5.3 10.8 6.2 22.1 12.2 32.8 18.2 0.1-1.7 5-4.8 1.4 1.1q5.9 3.5 11.3 7.1c1.6 0.2 3 0.8 1.4 1 0.2 0.2 0.5 0.4 0.8 0.3 0.4-0.9 13.6 5.5 12.1 10 1.5 1.4 3.1 2.7 4.4 4.1 24.9 26.6-54.9 3.4-63.6-3.1-8.1-6-15.9-12.4-23.6-18.9-19.3 21.8-39.1 43.1-62 61.2-11.9 9.4-30.5-5.8-18.2-18.2zm0.8-1.7q0 0 0 0 0 0 0 0zm0.5 0.3c-0.2-0.1-0.3-0.2-0.5-0.3 0.2 0.1 0.3 0.2 0.5 0.3zm63.4-90.8c-0.6 0.4-1 0.8-1.4 1.2q0.2 0.1 0.5 0.3c0.3-0.5 0.7-0.9 0.9-1.5zm-16.6-16c-0.4 0.3-3.5 5.3 1.1-0.5q-0.1-0.5-1.1 0.5zm-1.5 4.8q0.4 0.3 0.8 0.6c0.2-0.9 0-1.6-0.8-0.6zm-28.1 84q0.3-0.3 0.6-0.6c-0.2-0.5-0.5-1.1-1.1-2.1-3.4-2-1 1.5 0.5 2.7zm-2.2 0.8c0.1 0.1 0.4 0.4 1.1 0.3q-0.5-0.6-1.4-1.5c-0.3 0.1-0.2 0.4 0.3 1.2zm-2.3 1.2q0.9 0.6 1.6 1 0.3-0.3 0.6-0.7c-1.3-0.9-3-1.7-2.9-0.7 0.5 0.3 0.7 0.4 0.7 0.4z"/>
			<path id="&lt;Compound Path&gt;" fill-rule="evenodd"  d="m460.8 624c3.8 1.3 10.4 5 11.8 6q0.3-0.1 0.7 0c5-4.4 17.3-8.4 10.7-1.2 0.4 0.1 13.6-0.4 14 2.6 2.3 0.2 4.6 0.3 7.1 0.4q0.6 0 1.2 0.1c0-0.2 0-0.5-0.1-0.6 5.8-1.9 13.3-2.3 18.5-1.5-1.3-0.6-2.6-1.3-3.9-1.8 0-1.1 8.6 1.1 18 2.6-2.5 0.9-3 4.1 1.9 0.3 8.7 1.2 17.6 1.6 20.8-1.8q-3.5 0.8-4.2-3.2c-0.1-0.9 19.4-2.6 19.9 2.4q-2.2 1.9-4.8 2.7c2.1-0.2 4.2-0.3 6.3-0.6 13.8-2 27.9 12.3 21 26.1-8.8 17.3-48.8 15.9-63.9 16.5-53.7 2-107.5-9.9-161.2-2.9-14 1.8-18.4-14-13-23.9 1.4-2.7 3.7-5 6.5-6.8-1.1-1.6-2.3-3.3-4-5.1 7.3 7.5-3.5-11.9 5.1 2.4-2.2-4.4 0.3-7.6 5.4-10 0 0 1.4-0.3 1.4-0.5 11.7-4.8 34.4-6.2 50.7-7.7 0.5-0.9 1.4-1.6 1.6-1.2 0.1 0.3 0.1 0.7 0 1.1 5.3-0.5 9.7-1 12.7-1.4 2.9 2.1 13.9 6.5 19.8 7zm-96.8 10.3q0 0 0.1 0-0.1 0-0.1 0zm31.2-3.1q0.8-0.1 1.5-0.2c-0.5-1-2.1-1.9-1.5 0.2zm29.9-2.4c0 0.2 0 0.3 0.3 0.5zm-3.6 0.6c0.4 0 0.7 0 1.1 0 0-0.9 0-1.8-0.4-2.8-0.5 1.1-0.7 2-0.7 2.8zm-2.5 0.1q0.3 0 0.6 0l0.3-0.7c-0.3-0.2-0.6 0.2-0.9 0.7zm-10.3-0.2c-0.2 0.3-0.2 0.5 0.2 0.7-0.1-0.2-0.1-0.5-0.2-0.7zm-16.5-2.9c0 0.5 1.5 6.2 0.6-1.2q-0.5-0.2-0.6 1.2zm-19.1 10.2c-0.6 0-1.7 0.4-1.7 0.4 0.7 0.1 1.2-0.2 1.7-0.4zm193.5-5q0.6-0.1 1.2-0.1c-0.5 0-0.9 0-1.2 0.1zm-55.9 0.5q1.4 0.1 2.7 0.1c-0.4-0.5-1.9-0.4-2.7-0.1zm-15.9-0.9q0.7 0.1 1.4 0.1c-0.4-0.3-0.9-0.3-1.4-0.1zm-1.8-0.1q0.6 0 1.2 0.1c-0.6-1.4-1.4-0.4-1.9-0.6-0.7-0.3 0 0.2 0.7 0.5z"/>
			<path id="&lt;Compound Path&gt;" fill-rule="evenodd"  d="m760 773.7c-140.4 130.2-371.4 142.9-529.8 38.2 1.1 0.9 2.1 1.6 3.3 2.5-7.7-5.9-30.3-5-36.2-15.8-5.7-10.5-11.7-19-18-26.9-17.9-16.6-33.9-34.3-48.1-53-14-16.4-29.3-37.1-34.5-53.9-22.7-42.6-37.4-88.3-44.8-135-0.8 0.7-1.6 1.4-2.6 2.1-0.7-3.6-0.9-14-0.7-28.1-4.1-41.2-2.5-82.9 4.3-123.8-2.1 5-4 8.9-3.8 9.1-11.2-14.1 19.9-96 26-112.8 11.6-32.8 33.5-61 54.3-86.5 9.3-13.5 19.4-26.5 30.1-38.8 3.8-5.4 7.2-10.7 10-16 0.5 1.2 1.2 2.1 1.8 3.1 0.6-0.6 1.2-1.2 1.8-1.8-1.1-0.8-2.2-1.5-3.4-2.3 3.7-17 46.6-40.9 72-54.7q2.6-1.7 5.2-3.3-5.7 2.8-11.5 5.6c-1.8-1.2 46.4-30 56-35-0.9 2.7-0.3 4 0.8 4.9 13.8-6.3 28.1-11.9 42.9-16.6 5.9-4.8 11.4-9.5 18-13.6 0.4 0.7 0.9 1.3 1.4 1.8 3.4 3.5 8.7 2.2 16-4.1q-7.2 0.3-14.5 0.7c8-4.3 17.8-7.5 32-8.7 3.3-0.3 30.8 2.1 47.8 5.7 4.8-0.2 9.7-0.5 14.6-0.6-4.5 0.1-9 0.4-13.6 0.9 10 2.2 15.9 4.8 9.7 7.8-44.2 19.4-92 18.7-137 41.9 0-1.7-0.3-3.1-0.7-4.5-1.9 1.1-3.7 2.2-5.5 3.3q1.5 1.4 3.1 2.8c-3.7 2.2-7.3 4.3-10.9 6.4 0.4-1.9 0.1-3.1-0.5-4.1-2.8 1.8-5.6 3.6-8.3 5.4-6 10.7-20.9 16.4-34.9 27.6q-0.5-0.8-0.9-1.6-3.2 2.5-6.3 5c2.4 9.1-15.3 14.5-30.4 26.9-1.2 1-2.3 2-3.4 2.8-35.1 33.3-64.7 69.7-85.1 103.7-20.9 35.2-36 73.2-45.6 112.4-0.1 1.8-0.3 3.4-0.4 5.2-0.5 8.6-5.8 39.1-10.6 63.7-0.9 12.2-1.2 24.3-1 36.5 2.7 2.2 2.1 4.7 0.1 7 1.8 64.8 18.5 129.2 50.6 186.8 3.6 6.5 7.4 12.7 11.3 18.9 3.3 2.8 6.3 5.7 8.6 9.1-1.5-0.9-2.9-1.7-4.3-2.4q4.9 7.4 10 14.4c7 1.3 11.2 3.5 5.5 7.3 18 23.4 38.1 44 60 61.9q2.8 1.8 6 4.8c30 23.5 63.1 42 98 55.7 4.6-1.8 8.6 0.3 11.7 4.3 75 26.7 157.4 31.6 235.3 16 6.5-1.5 13.9-3 17.7-3.9 26.5-5.9 52-15.1 76.6-26.2-0.2-0.4-0.5-0.7-0.7-1.1 31.4-16.2 58.1-34 85.8-55.9-1.5 2.8-2.8 5.8-4 8.8q7.8-6 15.2-12.3c-0.3-2-0.6-3.7-1-4.5 17.9-14.9 30.9-36 45.2-54.2 2.6 4.1 3.5 7.3 3.2 10.1 5.2-6.4 10.2-13.1 15-19.9q-3.4 0.1-7-0.9 20.9-10.5 23.5-33.6c1.3 0.8 2.4 1.6 3.4 2.4q1.5-2.6 3-5.4c-2.3-1.2-4.9-2.6-7.9-4.3 9.3-17 16.4-31.6 28.3-41.8 3.1-8.7 5.9-17.7 8.4-26.8-3.1 0.5-5.8 1.9-8 4.5-6.3-15.1 2.8-18.8 12.2-21 1.5-6.7 2.9-13.4 4.1-20.3-4.4-6.3-6.1-14.5 3.7-26.3-16 4.6-6.9-23.6-7.1-32.5 3.7 1.9 6.8 3.8 9.2 5.5 0.2-4.4 0.2-8.9 0.3-13.3-0.7 0.2-1.5 0.2-2.3 0.1q-19.9 13.8-8.3-24.9c3.5 1 6.9 0.8 10.2-0.6-0.1-1.3-0.2-2.6-0.2-3.9-2.5-2.6-5.9-2.6-10.4 0.1q-0.6-15.3-3.2-30.4c4.5 0 8.1 1.3 11.2 3.6-0.6-5.2-1.3-10.2-2.1-15.3-3.1 2.9-6.2 5.8-9.3 8.8 2.5-13.2-13.7-33.9 3.7-38.3q-0.1-0.3-0.2-0.7c-7-1-2.9-6.7-13-2-5.5-19.1 5.7-28.7-1.2-43.8-26.1 7.7-33.3-87.6-42-86.2-5-4.5-21-18.1-20.5-26.6 0.1-2.5-0.1-4.8-0.5-7-6.7-8.8-13.7-17.3-21-25.5-10.1-7-21.4-13.8-28.2-24.8 0 0 1.4-0.5 2.9-1.2q-8.5-8-17.5-15.5c-13.1-4.7-25.6-10.2-20.9-16.4q-14.5-10.6-30-19.9c-0.2 0.1-0.5 0.2-0.9 0.2-34.8 0.9-40.3-18.7-64.5-24.5-5.8 11.2-54.5-18.5-76.9-31.6-4.7-1.3-9.3-2.6-14-3.9-13.3-3.7-6.5-21.6 5.4-19.7 46.7 7.5 92.5 21 135.4 40.9 86.3 40.2 149.1 107.3 189.6 192.9 84.8 178.8 55.6 384.4-91.3 520.7zm-613.7-79.1q0.3 0.5 0.7 1c-0.2-0.4-0.5-0.7-0.7-1zm176-640c-1.5 0.7-2.9 1.5-4.3 2.3 0.4 0.3 0.6 0.5 1.1 0.9 1.4 1 2.2 1.6 2.8 2-0.7-0.9 0.4-0.6 0.5 0.2 2.2 1.2-2.1-3.6 1.4-5q-0.7-0.2-1.5-0.4zm511.9 215.5q-1.7-3.4-3.4-6.8c-1.1 1.4-2.5 3.3-4.4 5.9 2.8-0.3 5.3 0 7.8 0.9zm-57.9 454.1c1.5-0.2 2.8-0.3 4.2-0.3q4.4-4.7 8.6-9.6c-4.1 2.9-8.8 5.9-12.8 9.9z"/>
		</g>
		<g id="&lt;Group&gt;">
		</g>
		<g id="&lt;Group&gt;">
		</g>
	</g>
</svg>