<svg version="1.2" xmlns="http://www.w3.org/2000/svg" viewBox="0 0 1000 1000" width="1000" height="1000">
	<title>38687249_2942491-ai</title>
	<style>
		.s0 { fill: #7d8ea0 } 
		.s1 { fill: #6db6c6 } 
		.s2 { fill: #fec130 } 
		.s3 { fill: #8bd2e7 } 
		.s4 { fill: #f69c00 } 
		.s5 { fill: #c6209a } 
		.s6 { fill: #ffffff } 
		.s7 { fill: #fff2a9 } 
		.s8 { fill: #d98490 } 
		.s9 { fill: #2b6b87 } 
		.s10 { fill: #fdafb3;stroke: #ffffff;stroke-linecap: round;stroke-linejoin: round;stroke-width: 18 } 
		.s11 { fill: #fdafb3 } 
		.s12 { fill: #a81a8a } 
		.s13 { fill: #e52cbd } 
	</style>
	<g id="BACKGROUND">
	</g>
	<g id="OBJECTS">
		<g id="&lt;Group&gt;">
			<g id="&lt;Group&gt;">
				<g id="&lt;Group&gt;">
					<path id="&lt;Path&gt;" class="s0" d="m733.3 16.9l-12.9-13c-2.1-2-5.4-2-7.4 0l-79.7 79.7 16.7 16.6z"/>
				</g>
				<g id="&lt;Group&gt;">
					<path id="&lt;Path&gt;" class="s1" d="m713.5 149.7l-67.7-67.7 76.3-76.3 67.8 67.7z"/>
				</g>
				<g id="&lt;Group&gt;">
					<path id="&lt;Path&gt;" class="s2" d="m702.5 152.7c-1.9 1.9-2.9 4.4-2.9 6.9l-64.7-64.7c-1.7-1.7-2.2-4.4-1.1-6.6 0.5-0.9 1.1-1.7 1.8-2.4q1.2-1.2 2.5-1.9c2.2-1.1 4.9-0.6 6.6 1.1l64.7 64.7c-2.5 0-5 1-6.9 2.9z"/>
				</g>
				<g id="&lt;Group&gt;">
					<path id="&lt;Path&gt;" class="s3" d="m644.8 85.1c-1.8-1.7-4.5-2.2-6.7-1.1q-1.3 0.7-2.5 1.9-1.1 1.1-1.8 2.4c-1.1 2.2-0.6 4.9 1.1 6.6l66.7 66.7-2.1 2.1-66.1-66.2c-2-1.9-3-4.5-3-7.1 0.1-2.5 1-4.9 2.9-6.8 2-2 4.4-2.9 6.9-3 0.1 0 0.1 0 0.1 0 2.6 0.1 5.1 1 7 3l66.2 66.1-2.1 2.1z"/>
				</g>
				<g id="&lt;Group&gt;">
					<path id="&lt;Path&gt;" class="s4" d="m695.7 147.6l-56-56c-0.5-0.5-0.5-1.3 0-1.7 0.4-0.5 1.2-0.5 1.7 0l56 56c0.5 0.5 0.5 1.3 0 1.7-0.4 0.5-1.2 0.5-1.7 0z"/>
				</g>
				<g id="&lt;Group&gt;">
					<path id="&lt;Path&gt;" class="s5" d="m636.8 118.2l-0.4-5-4.9-0.4 15.5-15.6 5.4 5.4z"/>
				</g>
				<g id="&lt;Group&gt;">
					<path id="&lt;Path&gt;" class="s6" d="m738.8 94.6l-37.9-37.8 9.6-9.6 37.8 37.9z"/>
				</g>
			</g>
			<path id="&lt;Path&gt;" class="s7" d="m168.2 279c-16.5 27.2-21 63.4-5 90.9 10 17.1 27 30 33.9 48.6 10.2 27.6-4.8 57.4-16.7 84.5-26.4 60.3-36.5 134.7 0.5 189.2 19.1 28.3 49.4 48.2 82.1 58.1 74.4 22.5 181.7-69.4 199.5-81.7 24.1-16.7 65.9-26.1 94.6-31.9 29.5-5.9 60.3-5.1 89.9 0.2 107 19.1 158.2-44.6 167.3-61.7 10.2-19 7.8-43-2.3-62-10.2-18.9-27.1-33.5-45.4-44.8-13.5-8.4-28.4-15.6-38.2-28.1-15.6-20.1-14.2-47.9-16.9-73.1-4.7-43.9-24-85-47.2-122.6-10.7-17.4-22.5-34.5-37.9-47.9-23.3-20.3-53.5-31.1-83.8-36.9-55.1-10.4-111.7-5.3-165.9 7.5-47.4 11.2-102.9 25.1-144.1 51.9-24.5 15.9-49.1 34.4-64.4 59.8z"/>
			<path id="&lt;Compound Path&gt;" fill-rule="evenodd" class="s2" d="m633 713v5.8c0 1.2-1 2.2-2.2 2.2h-5.6c-0.6 2.4-1.5 4.6-2.8 6.7l4 3.9c0.8 0.9 0.8 2.3 0 3.1l-4.1 4.1c-0.9 0.9-2.3 0.9-3.2 0l-3.9-3.9c-2 1.3-4.3 2.2-6.7 2.8v5.5c0 1.3-1 2.3-2.2 2.3h-5.8c-1.2 0-2.2-1-2.2-2.3v-5.5c-2.4-0.6-4.6-1.5-6.6-2.8l-4 3.9c-0.9 0.9-2.3 0.9-3.1 0l-4.1-4.1c-0.9-0.8-0.9-2.2 0-3.1l3.9-3.9c-1.2-2.1-2.2-4.3-2.7-6.7h-5.6c-1.2 0-2.2-1-2.2-2.2v-5.8c0-1.2 1-2.2 2.2-2.2h5.6c0.5-2.4 1.5-4.7 2.7-6.7l-3.9-3.9c-0.9-0.9-0.9-2.3 0-3.2l4.1-4.1c0.8-0.8 2.2-0.8 3.1 0l4 4c2-1.3 4.2-2.2 6.6-2.8v-5.6c0-1.2 1-2.2 2.2-2.2h5.8c1.2 0 2.2 1 2.2 2.2v5.6c2.4 0.6 4.7 1.5 6.7 2.8l3.9-4c0.9-0.8 2.3-0.8 3.2 0l4.1 4.1c0.8 0.9 0.8 2.3 0 3.2l-4 3.9c1.3 2 2.2 4.3 2.8 6.7h5.6c1.2 0 2.2 1 2.2 2.2zm-17.8 2.9q0-2.1-0.6-3.9-0.2-0.6-0.5-1.2c-1.2-2.4-3.1-4.4-5.6-5.6q-0.5-0.2-1.2-0.5-1.8-0.6-3.9-0.6-2 0-3.9 0.6-0.6 0.3-1.2 0.5c-2.4 1.2-4.4 3.2-5.5 5.6q-0.3 0.6-0.5 1.2-0.7 1.8-0.7 3.9 0 2.1 0.7 3.9 0.2 0.6 0.5 1.2c1.1 2.4 3.1 4.4 5.5 5.5q0.6 0.3 1.2 0.5 1.9 0.7 3.9 0.7 2.1 0 4-0.7 0.6-0.2 1.1-0.5c2.5-1.1 4.4-3.1 5.6-5.5q0.3-0.6 0.5-1.2 0.6-1.8 0.6-3.9z"/>
			<g id="&lt;Group&gt;">
				<path id="&lt;Path&gt;" class="s4" d="m831.5 515.8c-26.5 26.5-69.6 26.5-96.1 0-26.5-26.6-26.5-69.6 0-96.1 26.5-26.6 69.6-26.6 96.1 0 26.5 26.5 26.5 69.5 0 96.1z"/>
				<path id="&lt;Path&gt;" class="s2" d="m825.2 509.5c-23.1 23-60.4 23-83.5 0-23-23.1-23-60.4 0-83.5 23.1-23 60.4-23 83.5 0 23 23.1 23 60.4 0 83.5z"/>
				<path id="&lt;Path&gt;" class="s6" d="m790.3 492.8c6.1-6 6.1-13.9 0.6-25.1-4.1-8.3-5.5-12.2-2.8-14.9 2.3-2.3 6.4-1.9 11.1 2.7 2.2 2.2 3.9 4.4 5.1 6.5 1.8 2.9 5.5 4.1 8.3 2.6 2.8-1.5 3.7-5.2 1.8-8.1-1.5-2.5-3.6-5.3-6.4-8.1l8.5-8.4c1.5-1.5 1.5-3.9 0-5.3-1.5-1.5-3.8-1.5-5.3 0l-8.8 8.8c-9.7-7.1-19.7-7-26-0.8-6.2 6.3-5.1 15.4 0.4 25.8 3.8 7.6 4.5 11.4 1.8 14-2.8 2.9-7.2 2.1-12.2-2.8-2.6-2.7-4.8-5.7-6.4-8.7-1.8-3.1-5.7-4.3-8.5-2.6h-0.2c-2.7 1.6-3.5 5.1-1.7 8 2 3.4 4.8 7.2 8.2 10.6q0.3 0.3 0.5 0.5l-7.9 8c-1.5 1.5-1.5 3.8 0 5.3 1.5 1.4 3.8 1.4 5.3 0l8.4-8.4c10.6 7.5 20.2 6.5 26.2 0.4z"/>
			</g>
			<g id="&lt;Group&gt;">
				<g id="&lt;Group&gt;">
					<path id="&lt;Path&gt;" class="s3" d="m56.5 140.1l48.9-2.1 77.9-54.9-61 59.2 42.7 29.6 32-102.8z"/>
					<path id="&lt;Path&gt;" class="s1" d="m105.4 138l13.5 40.3 3.4-36 61-59.2z"/>
					<path id="&lt;Path&gt;" class="s0" d="m118.9 178.3l18.7-25.4-15.3-10.6z"/>
				</g>
				<g id="&lt;Group&gt;">
					<g id="&lt;Group&gt;">
						<path id="&lt;Path&gt;" class="s8" d="m104.7 191.2c-0.5 0-1-0.2-1.4-0.6-0.8-0.7-0.8-2 0-2.8l0.7-0.7c0.7-0.8 2-0.8 2.8-0.1 0.8 0.8 0.8 2.1 0 2.9l-0.7 0.7c-0.4 0.4-0.9 0.6-1.4 0.6z"/>
					</g>
					<g id="&lt;Group&gt;">
						<path id="&lt;Compound Path&gt;" class="s8" d="m289.8 531c-1.1 0-2-0.9-2-1.9 0-1.2 0.9-2.1 2-2.1q1 0 2 0 0 0 0 0c1.1 0 2 0.9 2 2 0 1.1-0.8 2-1.9 2q-1.1 0-2.1 0 0 0 0 0zm-8-0.1q0 0-0.1 0l-2-0.1c-1.1 0-1.9-0.9-1.9-2 0.1-1.1 1-2 2.1-2l2 0.1c1.1 0.1 2 1 1.9 2.1 0 1.1-0.9 1.9-2 1.9zm18-0.2c-1 0-1.9-0.8-2-1.9 0-1.1 0.8-2 1.9-2.1l2-0.1c1.1-0.1 2 0.7 2.1 1.8 0.1 1.1-0.7 2.1-1.8 2.2l-2.1 0.1q0 0-0.1 0zm-28-0.4q-0.1 0-0.2-0.1-1-0.1-2-0.2c-1.1-0.1-1.9-1.1-1.7-2.2 0.1-1.1 1.1-1.9 2.2-1.7q1 0.1 1.9 0.2c1.1 0.1 1.9 1.1 1.8 2.2-0.1 1-0.9 1.8-2 1.8zm-9.8-1.4q-0.2 0-0.4-0.1-1-0.1-2-0.3c-1.1-0.2-1.8-1.3-1.6-2.4 0.2-1.1 1.3-1.8 2.4-1.6q0.9 0.2 1.9 0.4c1.1 0.2 1.8 1.3 1.6 2.3-0.2 1-1 1.7-1.9 1.7zm-9.8-2.2q-0.2 0-0.5-0.1-1-0.3-2-0.5c-1-0.4-1.6-1.5-1.3-2.5 0.3-1.1 1.4-1.7 2.5-1.4q0.9 0.3 1.9 0.6c1 0.2 1.6 1.3 1.4 2.4-0.3 0.9-1.1 1.5-2 1.5zm-9.4-3.1q-0.4 0-0.8-0.2-0.9-0.3-1.9-0.7c-1-0.4-1.5-1.6-1.1-2.6 0.5-1.1 1.6-1.5 2.7-1.1q0.9 0.3 1.8 0.7c1 0.4 1.5 1.6 1.1 2.6-0.3 0.8-1 1.3-1.8 1.3zm-9.1-4.2q-0.5 0-1-0.2-0.9-0.5-1.8-1c-0.9-0.5-1.3-1.7-0.7-2.7 0.5-1 1.7-1.3 2.7-0.8q0.8 0.5 1.7 1c1 0.5 1.4 1.7 0.9 2.7-0.4 0.7-1.1 1-1.8 1zm-8.5-5.1q-0.6 0-1.2-0.4-0.8-0.6-1.7-1.2c-0.8-0.6-1-1.9-0.4-2.8 0.7-0.9 1.9-1.1 2.8-0.4q0.8 0.6 1.6 1.1c0.9 0.7 1.1 1.9 0.5 2.8-0.4 0.6-1 0.9-1.6 0.9zm-7.9-6.2c-0.4 0-0.9-0.2-1.3-0.5q-0.8-0.7-1.5-1.4c-0.8-0.7-0.9-2-0.1-2.8 0.8-0.8 2-0.9 2.8-0.1q0.7 0.7 1.5 1.3c0.8 0.8 0.9 2 0.1 2.8-0.4 0.5-0.9 0.7-1.5 0.7zm-7-7.1c-0.6 0-1.1-0.2-1.5-0.6q-0.7-0.8-1.3-1.6c-0.8-0.8-0.7-2.1 0.2-2.8 0.8-0.7 2.1-0.6 2.8 0.2q0.6 0.8 1.3 1.5c0.7 0.8 0.6 2.1-0.2 2.8-0.4 0.4-0.8 0.5-1.3 0.5zm-6.2-7.8c-0.7 0-1.3-0.3-1.7-0.8q-0.6-0.8-1.1-1.7c-0.7-0.9-0.4-2.1 0.5-2.8 0.9-0.6 2.1-0.4 2.7 0.5q0.6 0.9 1.2 1.7c0.6 0.9 0.4 2.1-0.5 2.7q-0.5 0.4-1.1 0.4zm-5.5-8.3c-0.7 0-1.4-0.4-1.7-1q-0.5-0.9-1.1-1.8c-0.5-0.9-0.2-2.2 0.8-2.7 0.9-0.6 2.2-0.2 2.7 0.7q0.5 0.9 1 1.7c0.6 1 0.3 2.2-0.7 2.8q-0.5 0.3-1 0.3zm-4.8-8.8c-0.7 0-1.4-0.4-1.8-1.1q-0.4-0.9-0.9-1.9c-0.5-0.9 0-2.1 1-2.6 0.9-0.5 2.1-0.1 2.6 0.9q0.5 0.9 0.9 1.8c0.5 1 0.1 2.2-0.9 2.7q-0.4 0.2-0.9 0.2zm-4.2-9.1c-0.8 0-1.5-0.4-1.8-1.2q-0.4-0.9-0.8-1.9c-0.5-1 0-2.2 1-2.6 1.1-0.4 2.2 0.1 2.7 1.1q0.3 0.9 0.7 1.8c0.5 1 0 2.2-1 2.6q-0.4 0.2-0.8 0.2zm-3.7-9.3c-0.9 0-1.6-0.5-1.9-1.3l-0.7-1.9c-0.4-1 0.1-2.1 1.2-2.5 1-0.4 2.1 0.1 2.5 1.1l0.7 1.9c0.4 1-0.1 2.2-1.1 2.6q-0.4 0.1-0.7 0.1zm-3.4-9.4c-0.9 0-1.6-0.5-1.9-1.3l-0.7-2c-0.3-1 0.2-2.1 1.3-2.5 1-0.4 2.2 0.2 2.5 1.3l0.7 1.9c0.3 1-0.2 2.1-1.3 2.5q-0.3 0.1-0.6 0.1zm-3.2-9.5c-0.8 0-1.6-0.5-1.9-1.4l-0.6-1.9c-0.3-1.1 0.3-2.2 1.3-2.5 1.1-0.4 2.2 0.2 2.5 1.3l0.6 1.9c0.4 1-0.2 2.2-1.3 2.5q-0.3 0.1-0.6 0.1zm-2.9-9.6c-0.9 0-1.7-0.5-2-1.4l-0.5-1.9c-0.4-1.1 0.2-2.2 1.3-2.5 1.1-0.3 2.2 0.3 2.5 1.3l0.6 2c0.3 1-0.3 2.1-1.4 2.4q-0.3 0.1-0.5 0.1zm-2.9-9.6c-0.9 0-1.7-0.5-1.9-1.4l-0.6-1.9c-0.3-1.1 0.3-2.2 1.3-2.5 1.1-0.3 2.2 0.3 2.5 1.3l0.6 2c0.3 1-0.3 2.1-1.3 2.5q-0.3 0-0.6 0zm-2.9-9.6c-0.8 0-1.6-0.5-1.9-1.4l-0.6-1.9c-0.3-1.1 0.3-2.2 1.4-2.5 1-0.3 2.1 0.3 2.5 1.3l0.5 2c0.4 1-0.2 2.1-1.3 2.5q-0.3 0-0.6 0zm-2.9-9.5c-0.8 0-1.6-0.6-1.9-1.5l-0.6-1.9c-0.3-1 0.3-2.1 1.3-2.5 1.1-0.3 2.2 0.3 2.5 1.3l0.6 2c0.4 1-0.2 2.1-1.3 2.5q-0.3 0.1-0.6 0.1zm-3-9.6c-0.9 0-1.6-0.5-1.9-1.4l-0.6-1.9c-0.4-1.1 0.2-2.2 1.2-2.5 1.1-0.4 2.2 0.2 2.6 1.2l0.6 2c0.3 1-0.2 2.1-1.3 2.5q-0.3 0.1-0.6 0.1zm-3.2-9.5c-0.9 0-1.6-0.5-1.9-1.4l-0.7-1.8c-0.4-1.1 0.2-2.2 1.2-2.6 1.1-0.4 2.2 0.2 2.6 1.2l0.7 1.9c0.3 1.1-0.2 2.2-1.3 2.6q-0.3 0.1-0.6 0.1zm-3.5-9.4c-0.8 0-1.6-0.5-1.9-1.3l-0.7-1.9c-0.4-1 0.1-2.2 1.1-2.6 1.1-0.4 2.2 0.1 2.6 1.2l0.8 1.9c0.4 1-0.1 2.1-1.2 2.5q-0.3 0.2-0.7 0.2zm-3.8-9.3c-0.7 0-1.5-0.5-1.8-1.2l-0.8-1.8c-0.4-1.1 0-2.2 1-2.7 1.1-0.4 2.2 0 2.7 1.1l0.8 1.8c0.4 1 0 2.2-1.1 2.6q-0.4 0.2-0.8 0.2zm-4.1-9.1c-0.7 0-1.4-0.4-1.8-1.1l-0.9-1.8c-0.4-1 0-2.2 1-2.7 0.9-0.5 2.1-0.1 2.6 0.9l0.9 1.8c0.5 1 0.1 2.2-0.9 2.7q-0.4 0.2-0.9 0.2zm-4.5-8.9c-0.7 0-1.4-0.4-1.8-1.1q-0.5-0.8-1-1.7c-0.5-1-0.1-2.2 0.8-2.7 1-0.6 2.2-0.2 2.7 0.7q0.5 0.9 1 1.8c0.5 1 0.2 2.2-0.8 2.7q-0.4 0.3-0.9 0.3zm-81.7-1.5q-0.9 0-1.9-0.1c-1.1-0.1-1.9-1.1-1.8-2.2 0.1-1.1 1.1-1.9 2.2-1.8q0.7 0.1 1.5 0.1h0.3q0 0 0 0c1.1 0 2 0.8 2 1.9 0 1.1-0.9 2-2 2.1zm8.2-1.4c-0.9 0-1.7-0.6-1.9-1.4-0.4-1.1 0.2-2.2 1.3-2.5q0.9-0.3 1.8-0.6c1-0.4 2.2 0.1 2.6 1.2 0.3 1-0.2 2.1-1.2 2.5q-1 0.4-2 0.7-0.3 0.1-0.6 0.1zm-17.3-1.4q-0.6 0-1.2-0.4-0.9-0.7-1.7-1.5c-0.8-0.7-0.8-2-0.1-2.8 0.8-0.8 2.1-0.8 2.9 0q0.6 0.6 1.3 1.1c0.9 0.6 1.1 1.9 0.4 2.8-0.4 0.5-1 0.8-1.6 0.8zm26.4-2.6c-0.7 0-1.3-0.4-1.7-1-0.5-1-0.2-2.2 0.7-2.7q0.9-0.5 1.6-1c0.9-0.6 2.2-0.4 2.8 0.5 0.6 0.9 0.4 2.2-0.5 2.8q-0.9 0.6-1.9 1.1-0.4 0.3-1 0.3zm59.3-1.8c-0.6 0-1.3-0.3-1.7-0.9q-0.5-0.9-1-1.7c-0.6-0.9-0.3-2.2 0.6-2.8 0.9-0.6 2.1-0.3 2.7 0.6q0.6 0.9 1.1 1.8c0.6 0.9 0.3 2.1-0.6 2.7q-0.5 0.3-1.1 0.3zm-91.3-3.7c-0.9 0-1.6-0.5-1.9-1.4q-0.4-1-0.6-2.1c-0.3-1 0.4-2.1 1.5-2.4 1-0.2 2.1 0.4 2.4 1.5q0.2 0.9 0.5 1.8c0.3 1-0.2 2.2-1.3 2.5q-0.3 0.1-0.6 0.1zm39.5-1.1q-0.6 0-1.2-0.3c-0.9-0.7-1.1-1.9-0.5-2.8q0.6-0.8 1-1.5c0.5-1 1.7-1.4 2.7-0.8 1 0.5 1.3 1.7 0.8 2.7q-0.5 1-1.2 1.9c-0.4 0.5-1 0.8-1.6 0.8zm46.3-3.5c-0.7 0-1.3-0.3-1.7-0.9q-0.5-0.8-1.1-1.6c-0.7-0.9-0.5-2.1 0.4-2.8 0.9-0.6 2.1-0.4 2.8 0.5q0.6 0.8 1.2 1.6c0.6 0.9 0.4 2.2-0.5 2.8q-0.5 0.4-1.1 0.4zm-87.1-5.3q0 0-0.1 0c-1.1 0-1.9-0.9-1.9-2q0.1-1.1 0.2-2.2c0.1-1.1 1.1-1.9 2.2-1.8 1.1 0.1 1.9 1.1 1.8 2.2q-0.1 1-0.2 1.9c0 1.1-0.9 1.9-2 1.9zm44.3-0.4q-0.1 0-0.3 0c-1.1-0.2-1.8-1.2-1.7-2.3q0.2-0.9 0.3-1.9c0-1.1 1-1.9 2.1-1.8 1.1 0.1 1.9 1 1.8 2.1q0 1.1-0.2 2.2c-0.2 1-1 1.7-2 1.7zm36.7-2.2c-0.6 0-1.2-0.3-1.6-0.8q-0.6-0.7-1.2-1.5c-0.8-0.8-0.7-2.1 0.2-2.8 0.8-0.7 2.1-0.6 2.8 0.2q0.7 0.8 1.3 1.6c0.7 0.8 0.6 2.1-0.3 2.8-0.3 0.3-0.8 0.5-1.2 0.5zm-79.3-7.2q-0.3 0-0.5-0.1c-1.1-0.3-1.7-1.4-1.4-2.5q0.3-1 0.7-2c0.4-1 1.5-1.6 2.6-1.2 1 0.4 1.5 1.5 1.2 2.6q-0.4 0.9-0.6 1.8c-0.3 0.8-1.1 1.4-2 1.4zm72.6-0.3c-0.5 0-1-0.2-1.4-0.7q-0.7-0.7-1.4-1.4c-0.8-0.8-0.7-2.1 0.1-2.8 0.8-0.8 2-0.8 2.8 0q0.7 0.7 1.4 1.5c0.8 0.8 0.7 2.1-0.1 2.8-0.4 0.4-0.9 0.6-1.4 0.6zm-29.9-0.3c-1 0-1.9-0.8-2-1.8q-0.1-1-0.2-2c-0.1-1 0.6-2 1.7-2.2 1.1-0.1 2.1 0.6 2.3 1.7q0.1 1.1 0.2 2.1c0.1 1.1-0.7 2.1-1.8 2.2q-0.1 0-0.2 0zm22.8-6.8c-0.5 0-0.9-0.1-1.3-0.5q-0.8-0.7-1.5-1.3c-0.8-0.7-0.9-2-0.2-2.8 0.7-0.8 2-0.9 2.8-0.2q0.8 0.7 1.6 1.4c0.8 0.7 0.8 2 0.1 2.8-0.4 0.4-0.9 0.6-1.5 0.6zm-61.4-1.7q-0.5 0-1-0.3c-1-0.6-1.3-1.8-0.7-2.8q0.5-0.9 1.1-1.7c0.6-1 1.9-1.2 2.8-0.6 0.9 0.6 1.2 1.9 0.5 2.8q-0.5 0.8-1 1.6c-0.4 0.6-1 1-1.7 1zm37-1.4c-0.9 0-1.7-0.6-1.9-1.6q-0.2-0.9-0.4-1.9c-0.3-1.1 0.4-2.2 1.5-2.4 1.1-0.2 2.1 0.4 2.4 1.5q0.2 1 0.4 2c0.2 1.1-0.5 2.1-1.6 2.4q-0.2 0-0.4 0zm16.7-3.2q-0.6 0-1.2-0.4-0.8-0.6-1.6-1.2c-0.9-0.6-1.1-1.8-0.5-2.8 0.7-0.9 1.9-1.1 2.8-0.4q0.8 0.5 1.7 1.2c0.9 0.6 1.1 1.9 0.4 2.8-0.4 0.5-1 0.8-1.6 0.8zm-47.4-3.2c-0.6 0-1.1-0.2-1.5-0.6-0.8-0.8-0.7-2.1 0.1-2.9q0.8-0.7 1.6-1.4c0.9-0.7 2.1-0.5 2.8 0.3 0.7 0.9 0.6 2.1-0.3 2.8q-0.7 0.6-1.4 1.3c-0.4 0.3-0.9 0.5-1.3 0.5zm39-2.2q-0.5 0-1-0.3-0.8-0.4-1.7-0.9c-1-0.5-1.4-1.7-0.9-2.7 0.5-0.9 1.7-1.3 2.7-0.8q0.9 0.4 1.8 0.9c1 0.5 1.4 1.8 0.8 2.7-0.3 0.7-1 1.1-1.7 1.1zm-10.5-1.1c-0.9 0-1.7-0.7-2-1.6l-0.4-1.9q-0.1-0.5 0-1c-0.2-0.4-0.3-0.9-0.2-1.4 0.3-1.1 1.4-1.7 2.5-1.4q1 0.2 2 0.5c1 0.4 1.6 1.5 1.3 2.5-0.2 0.7-0.7 1.2-1.4 1.4l0.1 0.4c0.3 1.1-0.4 2.1-1.4 2.4q-0.3 0.1-0.5 0.1zm-20.2-2.2c-0.8 0-1.5-0.4-1.9-1.2-0.4-1 0.1-2.2 1.1-2.6q0.9-0.4 2-0.8c1-0.4 2.2 0.2 2.5 1.2 0.4 1.1-0.2 2.2-1.2 2.6q-0.9 0.3-1.7 0.7-0.4 0.1-0.8 0.1zm9.7-2.2c-1.1 0-2-0.9-2-1.9-0.1-1.1 0.7-2.1 1.8-2.1q0.9-0.1 1.7-0.1h0.5c1.1 0 2 1 2 2.1-0.1 1.1-1 1.9-2 1.9q-0.1 0-0.1 0h-0.4q-0.7 0-1.4 0.1-0.1 0-0.1 0zm8.1-5.4c-0.9 0-1.7-0.6-1.9-1.5l-0.5-2c-0.2-1.1 0.4-2.1 1.5-2.4 1.1-0.2 2.2 0.4 2.4 1.5l0.5 2c0.2 1-0.4 2.1-1.5 2.4q-0.2 0-0.5 0zm-2.1-9.8c-1 0-1.8-0.6-2-1.6q-0.2-1-0.4-2c-0.2-1 0.5-2.1 1.6-2.3 1.1-0.2 2.2 0.5 2.4 1.6q0.1 1 0.3 2c0.3 1-0.4 2.1-1.5 2.3q-0.2 0-0.4 0zm-1.7-9.8c-1 0-1.8-0.7-2-1.8q-0.1-1-0.2-2c-0.2-1.1 0.6-2.1 1.7-2.2 1.1-0.1 2.1 0.6 2.2 1.7q0.2 1 0.3 2c0.1 1.1-0.6 2.1-1.7 2.3q-0.2 0-0.3 0zm-0.9-10c-1.1 0-2-0.8-2-1.9q-0.1-1-0.1-2c0-1.1 0.8-2.1 1.9-2.1 1.1-0.1 2.1 0.8 2.1 1.9q0 1 0.1 2c0 1.1-0.8 2.1-1.9 2.1q-0.1 0-0.1 0zm0-10q-0.1 0-0.1 0c-1.1-0.1-2-1-1.9-2.1q0-1 0.1-2.1c0.1-1.1 1.1-1.9 2.2-1.8 1.1 0.1 1.9 1 1.8 2.1q-0.1 1-0.1 2c-0.1 1.1-1 1.9-2 1.9zm1.1-9.9q-0.1 0-0.3-0.1c-1.1-0.2-1.8-1.2-1.6-2.3q0.1-1 0.4-2c0.2-1.1 1.2-1.8 2.3-1.6 1.1 0.2 1.8 1.3 1.6 2.4q-0.2 0.9-0.4 1.9c-0.2 1-1 1.7-2 1.7zm2.5-9.8q-0.3 0.1-0.7 0c-1-0.4-1.6-1.5-1.3-2.6q0.4-0.9 0.7-1.9c0.4-1.1 1.5-1.6 2.6-1.2 1 0.3 1.5 1.5 1.2 2.5q-0.3 0.9-0.6 1.9c-0.3 0.8-1.1 1.3-1.9 1.3zm3.6-9.2q-0.4 0-0.8-0.2c-1-0.5-1.4-1.7-1-2.7q0.5-0.9 1-1.9c0.5-0.9 1.7-1.3 2.6-0.8 1 0.5 1.4 1.7 0.9 2.7q-0.4 0.8-0.8 1.7c-0.4 0.7-1.1 1.2-1.9 1.2zm4.9-8.8q-0.6 0-1.1-0.3c-0.9-0.6-1.2-1.8-0.6-2.8q0.6-0.8 1.2-1.7c0.6-0.9 1.8-1.1 2.7-0.5 0.9 0.6 1.2 1.8 0.6 2.8q-0.6 0.8-1.1 1.6c-0.4 0.6-1 0.9-1.7 0.9zm5.9-8.1c-0.5 0-0.9-0.1-1.3-0.4-0.8-0.7-1-2-0.3-2.8q0.7-0.8 1.3-1.6c0.7-0.9 2-1 2.9-0.3 0.8 0.8 0.9 2 0.2 2.9q-0.7 0.7-1.3 1.5c-0.4 0.5-0.9 0.7-1.5 0.7z"/>
					</g>
					<g id="&lt;Group&gt;">
						<path id="&lt;Path&gt;" class="s8" d="m305.6 530.3c-1 0-1.9-0.8-2-1.9-0.1-1.1 0.7-2 1.8-2.1l1-0.1c1.1-0.1 2.1 0.7 2.2 1.8 0.1 1.1-0.7 2.1-1.8 2.2l-1 0.1q-0.1 0-0.2 0z"/>
					</g>
				</g>
			</g>
			<g id="&lt;Group&gt;">
				<path id="&lt;Compound Path&gt;" fill-rule="evenodd" class="s0" d="m236.7 611.7v10.2c0 2.2-1.8 4-4 4h-9.9c-0.9 4.2-2.6 8.2-4.8 11.8l6.9 6.9c1.6 1.6 1.6 4.1 0 5.6l-7.2 7.3c-1.5 1.5-4 1.5-5.6 0l-7-7c-3.6 2.2-7.5 3.9-11.8 4.9v9.8c0 2.2-1.7 4-3.9 4h-10.2c-2.2 0-4-1.8-4-4v-9.8c-4.2-1-8.2-2.7-11.8-4.9l-7 7c-1.5 1.5-4 1.5-5.5 0l-7.3-7.3c-1.5-1.5-1.5-4 0-5.6l7-6.9c-2.2-3.6-3.9-7.6-4.9-11.8h-9.9c-2.1 0-3.9-1.8-3.9-4v-10.2c0-2.2 1.8-4 3.9-4h9.9c1-4.2 2.7-8.2 4.9-11.8l-7-6.9c-1.5-1.6-1.5-4.1 0-5.6l7.3-7.3c1.5-1.5 4-1.5 5.5 0l7 7c3.6-2.2 7.6-3.9 11.8-4.9v-9.8c0-2.2 1.8-4 4-4h10.2c2.2 0 3.9 1.8 3.9 4v9.8c4.3 1 8.2 2.7 11.8 4.9l7-7c1.6-1.5 4.1-1.5 5.6 0l7.2 7.3c1.6 1.5 1.6 4 0 5.6l-6.9 6.9c2.2 3.6 3.9 7.6 4.8 11.8h9.9c2.2 0 4 1.8 4 4zm-31.5 5.1c0-2.4-0.4-4.8-1.2-6.9q-0.3-1.1-0.9-2.2c-2-4.2-5.5-7.7-9.8-9.8q-1-0.5-2.1-0.9c-2.2-0.7-4.5-1.1-6.9-1.1-2.5 0-4.8 0.4-7 1.1q-1.1 0.4-2.1 0.9c-4.3 2.1-7.7 5.6-9.8 9.8q-0.5 1.1-0.9 2.2c-0.8 2.1-1.2 4.5-1.2 6.9 0 2.4 0.4 4.8 1.2 6.9q0.4 1.1 0.9 2.2c2 4.2 5.5 7.7 9.8 9.8q1.1 0.5 2.1 0.9c2.2 0.7 4.5 1.1 7 1.1 2.4 0 4.7-0.4 6.9-1.1q1.1-0.4 2.1-0.9c4.3-2.1 7.8-5.6 9.9-9.8q0.5-1.1 0.8-2.2c0.8-2.1 1.2-4.5 1.2-6.9z"/>
				<path id="&lt;Compound Path&gt;" fill-rule="evenodd" class="s3" d="m143.3 690.6v6.2c0 1.3-1.1 2.4-2.4 2.4h-6c-0.6 2.6-1.7 5-3 7.2l4.2 4.2c1 0.9 1 2.5 0 3.4l-4.4 4.4c-0.9 0.9-2.4 0.9-3.4 0l-4.2-4.3c-2.2 1.4-4.6 2.4-7.2 3v6c0 1.4-1 2.4-2.4 2.4h-6.2c-1.3 0-2.4-1-2.4-2.4v-6c-2.6-0.6-5-1.6-7.2-3l-4.2 4.3c-0.9 0.9-2.5 0.9-3.4 0l-4.4-4.4c-0.9-0.9-0.9-2.5 0-3.4l4.3-4.2c-1.4-2.2-2.4-4.6-3-7.2h-6c-1.3 0-2.4-1.1-2.4-2.4v-6.2c0-1.4 1.1-2.4 2.4-2.4h6c0.6-2.6 1.6-5 3-7.2l-4.3-4.2c-0.9-1-0.9-2.5 0-3.4l4.4-4.4c0.9-1 2.5-1 3.4 0l4.2 4.2c2.2-1.4 4.6-2.4 7.2-3v-6c0-1.3 1.1-2.4 2.4-2.4h6.2c1.4 0 2.4 1.1 2.4 2.4v6c2.6 0.6 5 1.6 7.2 3l4.2-4.2c1-1 2.5-1 3.4 0l4.4 4.4c1 0.9 1 2.4 0 3.4l-4.2 4.2c1.3 2.2 2.4 4.6 3 7.2h6c1.3 0 2.4 1 2.4 2.4zm-19.2 3.1q0-2.2-0.7-4.2-0.2-0.7-0.5-1.3c-1.3-2.6-3.4-4.7-6-6q-0.6-0.3-1.3-0.5-2-0.7-4.2-0.7-2.2 0-4.2 0.7-0.7 0.2-1.3 0.5c-2.6 1.3-4.7 3.4-5.9 6q-0.4 0.6-0.6 1.3-0.7 2-0.7 4.2 0 2.2 0.7 4.2 0.2 0.7 0.5 1.3c1.3 2.6 3.4 4.7 6 6q0.6 0.3 1.3 0.5 2 0.7 4.2 0.7 2.3 0 4.2-0.7 0.7-0.2 1.3-0.5c2.6-1.3 4.8-3.4 6-6q0.3-0.6 0.5-1.3 0.7-2 0.7-4.2z"/>
				<path id="&lt;Compound Path&gt;" fill-rule="evenodd" class="s9" d="m285.1 690.9c-0.6 1.5-3.1 2-4 3.3-0.9 1.3-0.4 3.8-1.5 4.9-1.2 1.2-3.6 0.7-5 1.6-1.3 0.9-1.8 3.3-3.3 3.9-1.5 0.7-3.6-0.7-5.2-0.4-1.5 0.3-2.9 2.4-4.5 2.4-1.7 0-3.1-2.1-4.6-2.4-1.6-0.3-3.7 1.1-5.2 0.4-1.5-0.6-2-3-3.3-3.9-1.3-0.9-3.8-0.4-4.9-1.6-1.2-1.1-0.7-3.6-1.6-4.9-0.9-1.3-3.3-1.8-4-3.3-0.6-1.5 0.8-3.6 0.5-5.2-0.3-1.5-2.4-2.9-2.4-4.6 0-1.6 2.1-3 2.4-4.6 0.3-1.5-1.1-3.7-0.5-5.1 0.7-1.5 3.1-2 4-3.3 0.9-1.4 0.4-3.8 1.6-5 1.1-1.1 3.6-0.6 4.9-1.5 1.3-0.9 1.8-3.4 3.3-4 1.5-0.6 3.6 0.8 5.2 0.5 1.5-0.3 2.9-2.4 4.6-2.4 1.6 0 3 2.1 4.5 2.4 1.6 0.3 3.7-1.1 5.2-0.5 1.5 0.6 2 3.1 3.3 4 1.4 0.9 3.8 0.4 5 1.5 1.1 1.2 0.6 3.6 1.5 5 0.9 1.3 3.4 1.8 4 3.3 0.6 1.4-0.8 3.6-0.5 5.1 0.3 1.6 2.4 3 2.4 4.6 0 1.7-2.1 3.1-2.4 4.6-0.3 1.6 1.1 3.7 0.5 5.2zm-10.3-9.8c0-7.3-5.9-13.2-13.2-13.2-7.3 0-13.2 5.9-13.2 13.2 0 7.3 5.9 13.2 13.2 13.2 7.3 0 13.2-5.9 13.2-13.2z"/>
			</g>
			<g id="&lt;Group&gt;">
				<path id="&lt;Compound Path&gt;" fill-rule="evenodd" class="s5" d="m567.6 74.5v5.1c0 1.1-0.9 2-2 2h-4.9c-0.5 2.1-1.3 4.1-2.4 5.9l3.5 3.5c0.7 0.7 0.7 2 0 2.7l-3.6 3.6c-0.8 0.8-2.1 0.8-2.8 0l-3.5-3.4c-1.8 1.1-3.8 1.9-5.9 2.4v4.9c0 1.1-0.9 2-1.9 2h-5.1c-1.1 0-2-0.9-2-2v-4.9c-2.1-0.5-4.1-1.3-5.9-2.4l-3.4 3.4c-0.8 0.8-2 0.8-2.8 0l-3.6-3.6c-0.8-0.7-0.8-2 0-2.7l3.5-3.5c-1.2-1.8-2-3.8-2.5-5.9h-4.9c-1.1 0-2-0.9-2-2v-5.1c0-1 0.9-1.9 2-1.9h4.9c0.5-2.1 1.3-4.1 2.5-5.9l-3.5-3.5c-0.8-0.7-0.8-2 0-2.7l3.6-3.7c0.8-0.7 2-0.7 2.8 0l3.4 3.5c1.8-1.1 3.8-1.9 5.9-2.4v-4.9c0-1.1 0.9-2 2-2h5.1c1 0 1.9 0.9 1.9 2v4.9c2.1 0.5 4.1 1.3 5.9 2.4l3.5-3.5c0.7-0.7 2-0.7 2.8 0l3.6 3.7c0.7 0.7 0.7 2 0 2.7l-3.5 3.5c1.1 1.8 1.9 3.8 2.4 5.9h4.9c1.1 0 2 0.9 2 1.9zm-15.7 2.6q0-1.8-0.5-3.5-0.2-0.5-0.5-1c-1-2.2-2.7-3.9-4.9-4.9q-0.5-0.3-1-0.4-1.7-0.6-3.5-0.6-1.8 0-3.4 0.6-0.6 0.1-1.1 0.4c-2.1 1-3.9 2.7-4.9 4.9q-0.2 0.5-0.4 1-0.6 1.7-0.6 3.5 0 1.8 0.6 3.4 0.2 0.6 0.4 1.1c1 2.1 2.8 3.9 4.9 4.9q0.5 0.2 1.1 0.4 1.6 0.6 3.4 0.6 1.8 0 3.5-0.6 0.5-0.2 1-0.4c2.2-1 3.9-2.8 4.9-4.9q0.3-0.5 0.5-1.1 0.5-1.6 0.5-3.4z"/>
				<path id="&lt;Compound Path&gt;" fill-rule="evenodd" class="s0" d="m499.2 70c-0.9 2.1-4.4 2.8-5.7 4.6-1.2 1.9-0.5 5.4-2.1 7-1.6 1.6-5.1 0.9-7 2.2-1.9 1.2-2.5 4.7-4.7 5.6-2 0.8-5-1.1-7.2-0.7-2.2 0.5-4.2 3.4-6.5 3.4-2.3 0-4.3-2.9-6.4-3.4-2.3-0.4-5.2 1.5-7.3 0.7-2.1-0.9-2.8-4.4-4.7-5.6-1.8-1.3-5.3-0.6-6.9-2.2-1.6-1.6-1-5.1-2.2-7-1.2-1.8-4.8-2.5-5.6-4.6-0.9-2.1 1.1-5 0.6-7.3-0.4-2.2-3.3-4.1-3.3-6.5 0-2.3 2.9-4.2 3.3-6.4 0.5-2.3-1.5-5.2-0.6-7.3 0.8-2.1 4.4-2.8 5.6-4.7 1.2-1.8 0.6-5.3 2.2-6.9 1.6-1.6 5.1-0.9 6.9-2.2 1.9-1.2 2.6-4.7 4.7-5.6 2.1-0.9 5 1.1 7.3 0.7 2.1-0.5 4.1-3.4 6.4-3.4 2.3 0 4.3 2.9 6.5 3.4 2.2 0.4 5.2-1.6 7.2-0.7 2.2 0.9 2.8 4.4 4.7 5.6 1.9 1.3 5.4 0.6 7 2.2 1.6 1.6 0.9 5.1 2.1 6.9 1.3 1.9 4.8 2.6 5.7 4.7 0.8 2.1-1.2 5-0.7 7.3 0.4 2.2 3.4 4.1 3.4 6.4 0 2.4-3 4.3-3.4 6.5-0.5 2.3 1.5 5.2 0.7 7.3zm-14.6-13.8c0-10.2-8.3-18.6-18.6-18.6-10.2 0-18.6 8.4-18.6 18.6 0 10.3 8.4 18.7 18.6 18.7 10.3 0 18.6-8.4 18.6-18.7z"/>
			</g>
			<g id="&lt;Group&gt;">
				<g id="&lt;Group&gt;">
					<path id="&lt;Path&gt;" class="s2" d="m675.6 548.3h-28v-13.3h28z"/>
				</g>
				<g id="&lt;Group&gt;">
					<path id="&lt;Path&gt;" class="s5" d="m677.2 523.6h-31.1c-2 0-3.6 1.4-3.6 3.1v5.2c0 1.7 1.6 3.1 3.6 3.1h31.1c1.9 0 3.5-1.4 3.5-3.1v-5.2c0-1.7-1.6-3.1-3.5-3.1z"/>
				</g>
				<g id="&lt;Group&gt;">
					<path id="&lt;Path&gt;" class="s5" d="m729.8 613.7c0 37.7-30.5 68.3-68.2 68.3-37.7 0-68.2-30.6-68.2-68.3 0-37.6 30.5-68.2 68.2-68.2 37.7 0 68.2 30.6 68.2 68.2z"/>
				</g>
				<g id="&lt;Group&gt;">
					<path id="&lt;Path&gt;" class="s2" d="m710.2 613.7c0 26.9-21.8 48.6-48.6 48.6-26.8 0-48.5-21.7-48.5-48.6 0-26.8 21.7-48.5 48.5-48.5 26.8 0 48.6 21.7 48.6 48.5z"/>
				</g>
				<g id="&lt;Group&gt;">
					<path id="&lt;Path&gt;" class="s5" d="m673.6 613.7c0 6.7-5.3 12.1-12 12.1-6.6 0-12-5.4-12-12.1 0-6.6 5.4-12 12-12 6.7 0 12 5.4 12 12z"/>
				</g>
				<g id="&lt;Group&gt;">
					<path id="&lt;Path&gt;" class="s5" d="m661.6 616.7q-0.6 0-1.3-0.2c-1.5-0.7-2.1-2.5-1.4-4l16.5-35c0.7-1.5 2.4-2.1 3.9-1.4 1.5 0.7 2.2 2.4 1.5 3.9l-16.5 35c-0.5 1.1-1.6 1.7-2.7 1.7z"/>
				</g>
				<g id="&lt;Group&gt;">
					<g id="&lt;Group&gt;">
						<g id="&lt;Group&gt;">
							<path id="&lt;Path&gt;" class="s5" d="m661.6 573.4c-1.1 0-2-0.9-2-2v-12.4c0-1.1 0.9-2 2-2 1.1 0 2 0.9 2 2v12.4c0 1.1-0.9 2-2 2z"/>
						</g>
						<g id="&lt;Group&gt;">
							<path id="&lt;Path&gt;" class="s5" d="m661.6 670.4c-1.1 0-2-0.9-2-2v-12.3c0-1.1 0.9-2 2-2 1.1 0 2 0.9 2 2v12.3c0 1.1-0.9 2-2 2z"/>
						</g>
					</g>
					<g id="&lt;Group&gt;">
						<g id="&lt;Group&gt;">
							<path id="&lt;Path&gt;" class="s5" d="m716.3 615.7h-12.3c-1.1 0-2-0.9-2-2 0-1.1 0.9-2 2-2h12.3c1.1 0 2 0.9 2 2 0 1.1-0.9 2-2 2z"/>
						</g>
						<g id="&lt;Group&gt;">
							<path id="&lt;Path&gt;" class="s5" d="m619.2 615.7h-12.3c-1.1 0-2-0.9-2-2 0-1.1 0.9-2 2-2h12.3c1.2 0 2 0.9 2 2 0 1.1-0.8 2-2 2z"/>
						</g>
					</g>
				</g>
				<g id="&lt;Group&gt;">
					<g id="&lt;Group&gt;">
						<g id="&lt;Group&gt;">
							<path id="&lt;Path&gt;" class="s5" d="m691.6 585.3c-0.4 0-0.8-0.2-1.1-0.5-0.6-0.5-0.6-1.5 0-2.1l8.7-8.7c0.6-0.6 1.6-0.6 2.2 0 0.5 0.6 0.5 1.5 0 2.1l-8.8 8.7c-0.3 0.3-0.6 0.5-1 0.5z"/>
						</g>
						<g id="&lt;Group&gt;">
							<path id="&lt;Path&gt;" class="s5" d="m622.9 653.9c-0.3 0-0.7-0.1-1-0.4-0.6-0.6-0.6-1.6 0-2.1l8.7-8.8c0.6-0.5 1.5-0.5 2.1 0 0.6 0.6 0.6 1.6 0 2.2l-8.7 8.7c-0.3 0.3-0.7 0.4-1.1 0.4z"/>
						</g>
					</g>
					<g id="&lt;Group&gt;">
						<g id="&lt;Group&gt;">
							<path id="&lt;Path&gt;" class="s5" d="m700.3 653.9c-0.4 0-0.8-0.1-1.1-0.4l-8.7-8.7c-0.6-0.6-0.6-1.6 0-2.2 0.6-0.5 1.6-0.5 2.1 0l8.8 8.8c0.5 0.5 0.5 1.5 0 2.1-0.3 0.3-0.7 0.4-1.1 0.4z"/>
						</g>
						<g id="&lt;Group&gt;">
							<path id="&lt;Path&gt;" class="s5" d="m631.7 585.3c-0.4 0-0.8-0.2-1.1-0.5l-8.7-8.7c-0.6-0.6-0.6-1.5 0-2.1 0.6-0.6 1.5-0.6 2.1 0l8.7 8.7c0.6 0.6 0.6 1.6 0 2.1-0.3 0.3-0.7 0.5-1 0.5z"/>
						</g>
					</g>
				</g>
			</g>
			<g id="&lt;Group&gt;">
				<path id="&lt;Path&gt;" class="s2" d="m826.3 271.2l-7.4 7.3-23.3-23.2 7.4-7.4z"/>
				<path id="&lt;Path&gt;" class="s5" d="m808.2 272l28.5 28.5c3.2 3.1 8.3 3.1 11.5 0 3.2-3.2 3.2-8.4 0-11.5l-28.5-28.5z"/>
				<path id="&lt;Path&gt;" class="s0" d="m803.4 191.4c17.7 17.8 17.7 46.5 0 64.2-17.7 17.8-46.5 17.8-64.2 0-17.7-17.7-17.7-46.4 0-64.2 17.7-17.7 46.5-17.7 64.2 0z"/>
				<path id="&lt;Path&gt;" class="s3" d="m794 200.8c12.5 12.6 12.5 32.9 0 45.4-12.5 12.6-32.9 12.6-45.4 0-12.5-12.5-12.5-32.8 0-45.4 12.5-12.5 32.9-12.5 45.4 0z"/>
				<path id="&lt;Path&gt;" class="s6" d="m766.2 200.7c1.8 1.8 1.8 4.9 0 6.7-1.9 1.9-4.9 1.9-6.8 0-1.9-1.8-1.9-4.9 0-6.7 1.9-1.9 4.9-1.9 6.8 0z"/>
				<path id="&lt;Path&gt;" class="s6" d="m780 201c1.4 1.4 1.4 3.5 0 4.8-1.3 1.4-3.4 1.4-4.8 0-1.3-1.3-1.3-3.4 0-4.8 1.4-1.3 3.5-1.3 4.8 0z"/>
			</g>
			<path id="&lt;Path&gt;" class="s2" d="m722.2 274.5l-66.7 62.8 42.4 11.3-29.4 53.3 73-66.5-44.8-11.9z"/>
			<path id="&lt;Path&gt;" class="s2" d="m68.5 385.2l30.8 65.4 18.7-29.1 32.8 35-32-70.9-19.9 30.7z"/>
			<g id="&lt;Group&gt;">
				<path id="&lt;Path&gt;" class="s2" d="m352.4 4.5l22 59.9c1.3 3.6-0.5 7.6-4.1 8.9l-105.8 38.8c-3.6 1.3-7.6-0.5-8.9-4.1l-22-59.9c-0.6-1.7-0.5-3.5 0.2-5.1 0.7-1.7 2.1-3.1 4-3.8l105.7-38.8c1.9-0.7 3.9-0.5 5.6 0.3 1.5 0.8 2.7 2.1 3.3 3.8z"/>
				<path id="&lt;Path&gt;" class="s4" d="m349.1 0.7l-10.8 30c-0.9 2.5-2.8 4.4-5.3 5.4l-64.1 23.5c-2.5 0.9-5.3 0.6-7.6-0.7l-27.5-15.9c0.7-1.7 2.1-3.1 4-3.8l105.7-38.8c1.9-0.7 3.9-0.5 5.6 0.3z"/>
			</g>
			<g id="&lt;Group&gt;">
				<g id="&lt;Group&gt;">
					<g id="&lt;Group&gt;">
						<path id="&lt;Path&gt;" class="s2" d="m630.5 315.3c1.5 45.5-12.7 87.7-37.6 121.5-29.1 39.6-51.1 83.9-66.7 130.5l-7.7 23.1h-164.9l-6.4-19.3c-16.1-48.2-38.7-94.1-68.6-135.1-23.3-32.1-37.1-71.6-37.1-114.3 0-108.3 88.5-195.9 197.2-194.5 103.4 1.3 188.5 84.7 191.8 188.1z"/>
						<path id="&lt;Path&gt;" class="s3" d="m518.5 698.9h-164.9v-108.5h164.9z"/>
						<path id="&lt;Path&gt;" class="s0" d="m479.4 732.9h-86.7l-39.1-34h164.9z"/>
						<path id="&lt;Path&gt;" class="s9" d="m449.5 762.8h-26.9c-16.5 0-29.9-13.4-29.9-29.9h86.7c0 16.5-13.4 29.9-29.9 29.9z"/>
						<path id="&lt;Path&gt;" class="s0" d="m515.1 623.6h-158c-6.2 0-11.1-5-11.1-11.1 0-6.1 4.9-11 11.1-11h158c6.1 0 11 4.9 11 11 0 6.1-4.9 11.1-11 11.1z"/>
						<path id="&lt;Path&gt;" class="s0" d="m515.1 656h-158c-6.2 0-11.1-4.9-11.1-11 0-6.1 4.9-11.1 11.1-11.1h158c6.1 0 11 5 11 11.1 0 6.1-4.9 11-11 11z"/>
						<path id="&lt;Path&gt;" class="s0" d="m515.1 688.5h-158c-6.2 0-11.1-5-11.1-11.1 0-6.1 4.9-11 11.1-11h158c6.1 0 11 4.9 11 11 0 6.1-4.9 11.1-11 11.1z"/>
					</g>
					<path id="&lt;Path&gt;" class="s6" d="m550.9 196.9c-5.6 11.4-29.8 11-54-0.8-24.3-11.8-39.4-30.7-33.9-42.1 5.6-11.4 29.8-11.1 54 0.8 24.3 11.8 39.5 30.6 33.9 42.1z"/>
					<path id="&lt;Path&gt;" class="s6" d="m593.1 233.2c0 8.3-6.6 14.9-14.9 14.9-8.2 0-14.9-6.6-14.9-14.9 0-8.2 6.7-14.9 14.9-14.9 8.3 0 14.9 6.7 14.9 14.9z"/>
				</g>
				<g id="&lt;Group&gt;">
					<g id="&lt;Group&gt;">
						<path id="&lt;Path&gt;" class="s10" d="m547.3 363c0-9-3.7-17.1-9.5-23 3-5.9 4.7-12.5 4.7-19.6 0-23.5-19-42.5-42.5-42.5q-2 0-3.9 0.2c-5.5-10.2-16.3-17.2-28.7-17.2-7.8 0-15.1 2.8-20.7 7.5-5.9-7.9-15.4-13-26-13-8.8 0-16.7 3.4-22.5 9.1-4.5-2.3-9.5-3.6-14.8-3.6-13.8 0-25.5 8.6-30.3 20.7-22.7 0-41.1 18.5-41.1 41.2 0 20.3 14.6 37.2 33.9 40.6 7.4 14 24.5 23.7 44.4 23.7q5.1 0 10-0.8c5.7 9.1 18.8 16.5 35.4 19.9 5.8 11.9 20.8 20.6 38.9 21.7q0.5 1.8 1.4 3.5c1 2.3 2.7 4.1 4.3 6 6.7 8.1 12.5 17.9 11.8 28.4q4.4-1.4 8.8-2.9c0.9-0.3 1.8-0.6 2.5-1.2 2.6-2.1 1.1-6.2 0.1-9.4-2.9-9.5 0.4-19.7-0.3-29.5 12.4-5.8 20.5-15.9 20.5-27.3q0-0.6 0-1.2c13.6-3.9 23.6-16.5 23.6-31.3z"/>
						<g id="&lt;Group&gt;">
							<path id="&lt;Path&gt;" class="s8" d="m523.7 395.5c0-17.9-20.2-32.5-45.2-32.5-25 0-45.3 14.6-45.3 32.5 0 17.1 18.2 31 41.4 32.4q0.5 1.8 1.4 3.5c1 2.3 2.7 4.1 4.3 6 6.7 8.1 12.5 17.9 11.8 28.4q4.4-1.4 8.8-2.9c0.9-0.3 1.8-0.6 2.5-1.2 2.6-2.1 1.1-6.2 0.1-9.4-2.9-9.5 0.4-19.7-0.3-29.5 12.4-5.8 20.5-15.9 20.5-27.3z"/>
							<path id="&lt;Path&gt;" class="s5" d="m537.8 340c3-5.9 4.7-12.5 4.7-19.6 0-23.5-19-42.5-42.5-42.5q-2 0-3.9 0.2c-5.5-10.2-16.3-17.2-28.7-17.2-7.8 0-15.1 2.8-20.7 7.5-5.9-7.9-15.4-13-26-13-8.8 0-16.7 3.4-22.5 9.1-4.5-2.3-9.5-3.6-14.8-3.6-13.8 0-25.5 8.6-30.3 20.7-22.7 0-41.1 18.5-41.1 41.2 0 20.3 14.6 37.2 33.9 40.6 7.4 14 24.5 23.7 44.4 23.7q5.1 0 10-0.8c8 12.8 30.3 22 56.6 22 20.3 0 38.2-5.5 49-14 2.8 0.8 5.8 1.2 8.8 1.2 18 0 32.6-14.5 32.6-32.5 0-9-3.7-17.1-9.5-23z"/>
							<g id="&lt;Group&gt;">
								<path id="&lt;Path&gt;" class="s8" d="m354 336.7c-5.2-10.6 3.6-15.6 12.1-18 3.4-1 6.6-2.1 8.7-5.1 2.2-3.2 1.7-6 1.5-9.6-0.3-6.5-0.9-9.9 4.8-14.3 4.4-3.3 10.2-3.9 15.5-4.5 3.7-0.5 3.7-6.4 0-5.9-8.1 1-16.6 2.3-22.4 8.6-2.1 2.3-3.6 5-4.1 8.1-0.8 4.5 2.4 12.6-1.8 15.8-2.9 2.2-8.2 1.8-11.6 3.4-2.7 1.2-4.9 3.1-6.7 5.5-4.1 5.7-4.1 12.8-1 18.9 1.7 3.4 6.7 0.4 5-2.9z"/>
							</g>
							<g id="&lt;Group&gt;">
								<path id="&lt;Path&gt;" class="s8" d="m438.5 284.7c-3.9 5.9-4.7 14.3-3 21.2 1.9 7.8 5.7 6.6 11.7 9.2 7.8 3.6 6.3 14.4 13.7 19.4 7.5 5.2 17 3.8 25.4 2.4 3.7-0.6 2.2-6.3-1.5-5.6-9.5 1.5-21.3 2.7-25.4-8.3-1.2-3.4-1-7.5-3.7-10.4-2.7-2.8-5.3-2.1-8.5-3.3-8.6-3.2-8-15-3.6-21.7 2-3.1-3-6.1-5.1-2.9z"/>
							</g>
							<g id="&lt;Group&gt;">
								<path id="&lt;Path&gt;" class="s8" d="m372.1 366.8c-5.1-5.1-6.6-12-1.8-17.9 3.3-4.3 6.4-3.3 11.2-2.4 7.7 1.5 15.5 2.8 23-0.4 5.3-2.2 6.4-5.8 9.8-10 6.8-8.6 18.4-11.3 26.1-2.2 2.4 2.9 6.5-1.3 4.1-4.1-4.9-5.9-14.3-9.3-21.7-7-5.2 1.6-10.2 5.8-13.4 10.1-1.3 1.6-2.1 3.8-3.5 5.2-3.9 4.1-10.4 4.5-15.8 4-8.5-0.8-17.4-5.7-23.7 2.1-7 8.8-6.3 18.8 1.5 26.7 2.7 2.6 6.8-1.5 4.2-4.1z"/>
							</g>
							<g id="&lt;Group&gt;">
								<path id="&lt;Path&gt;" class="s8" d="m432.7 350.2c-2.4 15.5 11.3 34.4 28.1 29.2 2.6-0.8 4.4-2.6 6.8-3.7 9.4-4.6 15.2 0.5 22.2 5.7 9.7 7 14.3-0.5 23.8-3.6 3.5-1.2 2-6.8-1.6-5.6-3 1-5.4 2.9-8.3 4.1-8 3.5-10.2-0.3-16-4.4-4.9-3.4-11-4.4-16.8-3.4-4.8 0.8-8 4.3-12.5 5.5-11.7 3.1-21.7-11.5-20-22.2 0.6-3.7-5.1-5.3-5.7-1.6z"/>
							</g>
							<g id="&lt;Group&gt;">
								<path id="&lt;Path&gt;" class="s8" d="m488.8 289.5c-1.3 5.1-1.1 11.5 3.8 14.8 2.4 1.5 5 1.7 7.8 1.8 4 0.1 7.4-1.5 9.1 5.2 0.5 1.8-0.2 5.2-0.4 6.8-0.6 4.4-2.2 9 1.2 12.7 3.7 4.1 10 4.2 14.2 1.1 3-2.2 0.1-7.2-2.9-5q-3.7 3.4-7.6-1.6 0-1.9 0.4-3.8c0.2-1.5 0.5-3 0.7-4.5 0.4-3.5 0.6-7.3-0.8-10.7-1.3-3-3.6-5-6.9-5.9-1.6-0.4-3.3 0-4.9-0.2-6.6-0.8-9.7-2.7-8.1-9.2 0.9-3.6-4.7-5.2-5.6-1.5z"/>
							</g>
							<g id="&lt;Group&gt;">
								<path id="&lt;Path&gt;" class="s8" d="m391.2 320.9q0.9-5.1 1.8-10.2 2.1-1.3 4.1-2.7c2.3-0.5 2.9 0.1 4.8 0.5 1.8 0.3 3.4 1.3 5.2 1.4 4.5 0.3 8.4-2.1 11.1-5.5 2.4-3.1 3.5-6.6 3-10.5-1-7.1-5.5-11.2 3.2-15.6 3.4-1.6 0.5-6.7-2.9-5-5.1 2.5-9.5 5.8-8.8 12 0.2 2.9 2 5.4 2.5 8.3 0.9 6.4-3.6 10.9-9.8 9.9-6-0.9-9.1-2.5-14.6 1.5-6.5 4.6-8.9 11.8-4.6 18.8 1.9 3.2 7 0.3 5-2.9z"/>
							</g>
							<g id="&lt;Group&gt;">
								<path id="&lt;Path&gt;" class="s8" d="m388.8 372.8c5.9-4.1 17-10.4 21.4-0.6 1.6 3.6 1.5 6.9 4.2 10.2 4.9 5.8 11.9 7.8 19.1 6.7 3.7-0.5 2.2-6.1-1.5-5.6-9.7 1.4-13.7-5-16.2-12.8-1.1-3.7-1.7-6.6-5.5-8.5-7.6-3.9-18.2 1.3-24.5 5.6-3 2.1-0.1 7.2 3 5z"/>
							</g>
							<g id="&lt;Group&gt;">
								<path id="&lt;Path&gt;" class="s8" d="m332.9 335.5c-3.6-5.3-5.9-12.2-2.3-18.2 3.7-6 9.9-4.5 15.4-7.1 5.5-2.7 7.3-8.6 5.8-14.3-1-3.6-6.6-2-5.6 1.6 2.4 9.3-10.1 8.1-14.6 10.8-3.1 1.8-5.5 4.6-7 7.9-3.4 7.5-1.2 15.7 3.2 22.3 2.1 3.1 7.2 0.2 5.1-3z"/>
							</g>
							<g id="&lt;Group&gt;">
								<path id="&lt;Path&gt;" class="s8" d="m454.5 347.5c5.3 9.2 18.1 12.2 28 12.8 5.5 0.3 10-1.1 14.9-3.5 3.1-1.5 6.3-3.9 9.7-4.8 7.9-2 15.3 5.3 12.7 13.5-1.2 3.6 4.5 5.1 5.6 1.5 3.2-10.1-5.6-23.8-17.1-21.5-8.1 1.6-14.3 8.5-22.7 9.1-8.2 0.5-21.7-2.5-26-10.1-1.9-3.3-7-0.3-5.1 3z"/>
							</g>
							<g id="&lt;Group&gt;">
								<path id="&lt;Path&gt;" class="s8" d="m478.6 310.9c-5-3.1-10.1-7.7-9.4-14.2 0.6-6.3 5.6-6.4 8.8-10.4 3.2-4 2.9-9.3 0.2-13.4-2.1-3.1-7.2-0.2-5 2.9 4.2 6.3-4.6 8.9-7.5 13.2-1.8 2.7-2.6 6-2.5 9.2 0.2 8 6.1 13.8 12.5 17.7 3.2 2 6.1-3.1 2.9-5z"/>
							</g>
							<g id="&lt;Group&gt;">
								<path id="&lt;Path&gt;" class="s11" d="m458.7 417.8c16.9 1.2 35.6-3.6 49.8-13 3.1-2 0.2-7.1-3-5-13.3 8.8-30.9 13.3-46.8 12.2-3.7-0.3-3.7 5.6 0 5.8z"/>
							</g>
							<g id="&lt;Group&gt;">
								<path id="&lt;Path&gt;" class="s11" d="m483.6 426.1c5.5-1 10.4-2.6 15.4-5.1 3.3-1.7 0.4-6.7-3-5-4.5 2.2-8.9 3.6-13.9 4.5-3.7 0.6-2.1 6.3 1.5 5.6z"/>
							</g>
						</g>
					</g>
					<g id="&lt;Group&gt;">
						<g id="&lt;Group&gt;">
							<g id="&lt;Group&gt;">
								<path id="&lt;Path&gt;" class="s4" d="m288.5 323.4h-28.3c-2.1 0-3.8-1.7-3.8-3.8 0-2.2 1.7-3.9 3.8-3.9h28.3c2.1 0 3.9 1.7 3.9 3.9 0 2.1-1.8 3.8-3.9 3.8z"/>
							</g>
							<g id="&lt;Group&gt;">
								<path id="&lt;Path&gt;" class="s4" d="m602.5 323.4h-28.2c-2.2 0-3.9-1.7-3.9-3.8 0-2.2 1.7-3.9 3.9-3.9h28.2c2.1 0 3.9 1.7 3.9 3.9 0 2.1-1.8 3.8-3.9 3.8z"/>
							</g>
						</g>
						<g id="&lt;Group&gt;">
							<g id="&lt;Group&gt;">
								<path id="&lt;Path&gt;" class="s4" d="m340.5 231.3c-1 0-2-0.4-2.8-1.2l-19.9-19.9c-1.5-1.6-1.5-4 0-5.5 1.5-1.6 4-1.6 5.5 0l19.9 19.9c1.6 1.5 1.6 4 0 5.5-0.7 0.8-1.7 1.2-2.7 1.2z"/>
							</g>
							<g id="&lt;Group&gt;">
								<path id="&lt;Path&gt;" class="s4" d="m562.5 453.3c-1 0-2-0.4-2.7-1.1l-20-20c-1.5-1.5-1.5-4 0-5.5 1.6-1.5 4-1.5 5.5 0l20 20c1.5 1.5 1.5 3.9 0 5.5-0.8 0.7-1.8 1.1-2.8 1.1z"/>
							</g>
						</g>
						<g id="&lt;Group&gt;">
							<g id="&lt;Group&gt;">
								<path id="&lt;Path&gt;" class="s4" d="m434.4 196.3c-2.2 0-3.9-1.7-3.9-3.9v-28.2c0-2.1 1.7-3.9 3.9-3.9 2.1 0 3.8 1.8 3.8 3.9v28.2c0 2.2-1.7 3.9-3.8 3.9z"/>
							</g>
							<g id="&lt;Group&gt;">
								<path id="&lt;Path&gt;" class="s4" d="m434.4 510.3c-2.2 0-3.9-1.7-3.9-3.9v-28.2c0-2.1 1.7-3.9 3.9-3.9 2.1 0 3.8 1.8 3.8 3.9v28.2c0 2.2-1.7 3.9-3.8 3.9z"/>
							</g>
						</g>
						<g id="&lt;Group&gt;">
							<g id="&lt;Group&gt;">
								<path id="&lt;Path&gt;" class="s4" d="m542.6 235.3c-1 0-2-0.3-2.8-1.1-1.5-1.5-1.5-4 0-5.5l20-20c1.5-1.5 4-1.5 5.5 0 1.5 1.6 1.5 4 0 5.6l-20 19.9c-0.7 0.8-1.7 1.1-2.7 1.1z"/>
							</g>
							<g id="&lt;Group&gt;">
								<path id="&lt;Path&gt;" class="s4" d="m320.5 457.4c-0.9 0-1.9-0.4-2.7-1.2-1.5-1.5-1.5-3.9 0-5.5l19.9-19.9c1.6-1.5 4-1.5 5.5 0 1.6 1.5 1.6 4 0 5.5l-19.9 19.9c-0.8 0.8-1.8 1.2-2.8 1.2z"/>
							</g>
						</g>
					</g>
				</g>
			</g>
			<g id="&lt;Group&gt;">
				<g id="&lt;Group&gt;">
					<path id="&lt;Path&gt;" class="s12" d="m12.7 503.3l-10.9 10.9c-2.1 2-2.1 5.4 0 7.4l69.5 69.5 14.6-14.6z"/>
				</g>
				<g id="&lt;Group&gt;">
					<path id="&lt;Path&gt;" class="s5" d="m129.4 520.7l-59.5 59.5-67-67.1 59.5-59.5z"/>
				</g>
				<g id="&lt;Group&gt;">
					<path id="&lt;Path&gt;" class="s2" d="m132.1 530.3c1.6 1.7 3.8 2.6 6 2.6l-56.8 56.8c-1.5 1.5-3.9 2-5.8 1-0.8-0.4-1.5-1-2.2-1.6q-1-1-1.6-2.2c-1-1.9-0.5-4.3 1-5.8l56.8-56.8c0 2.2 0.9 4.3 2.6 6z"/>
				</g>
				<g id="&lt;Group&gt;">
					<path id="&lt;Path&gt;" class="s13" d="m72.7 581.1c-1.5 1.5-2 3.9-1 5.8q0.6 1.2 1.6 2.2 1 1 2.2 1.6c1.9 1 4.3 0.5 5.8-1l58.6-58.6 1.8 1.8-58.1 58.2c-1.7 1.7-4 2.5-6.3 2.5-2.2 0-4.3-0.8-6-2.5-1.7-1.7-2.5-3.9-2.6-6.1 0 0 0 0 0 0 0.1-2.3 0.9-4.5 2.6-6.2l58.1-58.1 1.9 1.8z"/>
				</g>
				<g id="&lt;Group&gt;">
					<path id="&lt;Path&gt;" class="s4" d="m127.6 536.3l-49.2 49.2c-0.5 0.5-1.1 0.5-1.6 0-0.4-0.4-0.4-1.1 0-1.5l49.3-49.2c0.4-0.4 1.1-0.4 1.5 0 0.4 0.4 0.4 1.1 0 1.5z"/>
				</g>
				<g id="&lt;Group&gt;">
					<path id="&lt;Path&gt;" class="s0" d="m101.7 588.1l-4.4 0.3-0.3 4.4-13.7-13.7 4.7-4.7z"/>
				</g>
				<g id="&lt;Group&gt;">
					<path id="&lt;Path&gt;" class="s6" d="m81 498.5l-33.2 33.3-8.4-8.5 33.2-33.2z"/>
				</g>
			</g>
		</g>
	</g>
	<g id="DESIGNED BY FREEPIK">
		<g id="&lt;Group&gt;">
			<g id="&lt;Group&gt;">
			</g>
		</g>
	</g>
</svg>