<svg version="1.2" xmlns="http://www.w3.org/2000/svg" viewBox="0 0 1000 1000" width="500" height="500"><style>.a{fill:#4d4d4d}</style><path class="a" d="m309.4 690.6c-10-19.4-16.8-40.6-19.4-63 47.9-10.7 88.7-18 103.2-20.4 19-20.7 26.9-72.9 29.6-100.6-63.3-40.8-70.7-112.8-70.7-112.8v-136.3q0 0 0 0c0 0 77.8-36.1 147.8-108.6l161.1 105.1-0.3 139.8c0 0-7.8 75.7-75.6 115.9 3 28.5 11 77.9 29.5 97.7 0.4 0.4 0.7 0.7 1.1 1.1 17.2 2.7 48.1 8 81.2 15.3-2.3 23.8-9.2 46.3-19.7 66.8h95.8c-2.9-16-5.8-32.9-8.7-50.6-18.4-111-35.5-209.9-38.5-322.9-9.3-351.6-181.5-311.5-239.3-283.7-26.7-12.5-203.9-73.5-220.8 240.4-6.5 121.3-28.7 247.5-51.9 372.7q-4.3 23-8.4 44.1z"/><path class="a" d="m1000 983.7l-69.1-201.3c-22.7-66.1-76.4-117-143.7-136.1-7.6-2.2-15.3-4.2-22.9-6.3-23.3-6.1-46.4-11.5-67.4-16.2-9.3 98.5-97 175.8-203.7 175.8-105.3 0-192-75.3-203.2-172-24.4 5.4-50.7 11.8-76.2 18.9q-0.7 0.2-1.3 0.4c-67.3 18.8-120.8 69.9-143.5 136l-69 200.8z"/><path class="a" d="m426.8 652.1l-120.5 32.7c-8.4-17.8-14-37.1-16.3-57.2 47.9-10.7 88.7-18 103.2-20.4q0.4-0.5 0.7-0.9l2.4 0.8z"/><path class="a" d=""/><path class="a" d="m352.1 379.9c-30.5-2.1-34.3-16.4-33.6-32.5 0.6-16.6-5.4-33.9-15.5-73.4-10.1-39.5 44.4-19.1 44.4-19.1l4.7 11.5z"/><path class="a" d="m704.1 274c-10.1 39.5-16.1 56.8-15.4 73.4 0.5 15-2.6 28.5-27.8 32l0.1-121.9c0 0-0.6-0.4-1.7-1.3l0.5-1.3c0 0 54.3-20.4 44.3 19.1z"/><path fill-rule="evenodd" class="a" d="m507.6 543.2h-2.8c-76.7-6.5-116.9-46.5-137.1-78.9-21.8-34.9-25.4-68.1-25.6-69.5v-1-141.4-1.7l6.4-2.6c0.8-0.3 89-35.4 138.3-103.8l5.5-7.6 178.7 111.7-0.3 146.4c-0.2 1.4-3.8 34.6-25.6 69.5-20.2 32.4-60.4 72.4-137.1 78.9zm-1.5-20h0.7c54.7-4.8 95.5-28.2 121.4-69.5 18.1-29 22.1-56.7 22.5-60.5l0.3-133.7-153.6-96c-45.6 58.3-114.1 91.4-135.3 100.6v129.1c1.1 9.3 17 118.9 144 130z"/><path class="a" d="m628.5 610.5l-5.7-9c-15.8-15.4-24.9-61.1-28.2-97.9-3 2.1-6.2 4.2-9.5 6.1q-4.6 2.7-9.5 5.2 0.3 2.3 0.6 4.8c-56.7 20.5-119.9 2.4-144.1-6.2 0-0.4 0.1-0.9 0.1-1.3q-4.9-2.6-9.4-5.6-5-3.2-9.5-6.6c-3 37.3-12.3 85.6-28.6 101.5l-5.7 5.6h13.2l-0.5 1.6 34.8 43.6 25.3-78.6c69.5 6 108.8-26.7 125.5-45.6 3.7 25.3 10.8 58.7 24.4 79z"/><path class="a" d="m426.8 652.1l-120.5 32.7c-8.4-17.8-14-37.1-16.3-57.2 47.9-10.7 81.7-19.4 96.1-21.9 0.3-0.3 7.6 0.9 7.8 0.6l2.4 0.8z"/></svg>