<svg version="1.2" xmlns="http://www.w3.org/2000/svg" viewBox="0 0 1000 1000" width="500" height="500"><style>.a{fill:#4d4d4d}</style><path class="a" d="m723.6 493.5c-10.5-32.1-15.4-69.7-5.7-109.5 20.2-83-0.5-196-0.5-196-24-194.8-131.1-148-131.1-148-13.7-23.8-60-25.1-60-25.1-178.9-16.2-228.9 173.1-228.9 173.1 0 0-20.6 113-0.4 196 9.7 39.8 4.8 77.4-5.7 109.5-15.7 48.2 27.1 95.5 82.5 90.7l34.1-3c8.7-24 12.9-54.4 14.8-73.4-63.3-40.8-70.7-112.8-70.7-112.8v-136.3q0 0 0 0v-0.1c0 0 138-34.8 208.1-107.3l100.9 103.8-0.3 139.9c0 0-7.8 75.7-75.6 115.9 1.9 18.9 6.1 47 14.1 69.6l41.9 3.7c55.4 4.8 98.2-42.5 82.5-90.7z"/><path class="a" d="m1000 985l-69.7-202.9c-22.3-65-74.6-115.2-140.5-135.2-72.6-22-150.4-38.1-173.4-42.1 0.4 0.4-1 4.7-0.6 5.1l-109 283.6-115.2-283.6c0.5-0.5-3.7-3.7-3.2-4.2-22.1 3.7-103.1 19.6-178.1 41.8-66.1 19.5-118.6 70.1-141 135.3l-69.4 202.2z"/><path class="a" d="m622.8 602.7c-15.8-15.4-25-61.2-28.3-97.9-5.8 4.1-12.1 7.9-19 11.3 6.3 58 20.5 84.8 28.8 95.8l-97.7 258.8-103.5-258.9c8.5-11.3 23-38.6 29.1-98.3-6.9-3.8-13.2-7.9-19-12.3-3 37.3-12.2 85.6-28.6 101.5l-4.8 4.7 127.3 318.6 120.4-318.7z"/><path class="a" d="m586.9 516.6c0 0-38.4 66.7-135.1 58.3l-26.8 90.1-33.4-55.1 30.2-99.2c0 0 90.9 40.1 165.1 5.9z"/><path class="a" d="m352 381.1c-30.5-2.1-34.3-16.4-33.6-32.5 0.6-16.7-5.4-34-15.5-73.5-10.1-39.4 44.4-19.1 44.4-19.1l4.7 11.5z"/><path class="a" d="m704.1 275.1c-10.1 39.5-16.2 56.8-15.5 73.5 0.6 15-2.6 28.5-27.8 31.9l0.2-121.8c0 0-0.7-0.5-1.7-1.4l0.5-1.3c0 0 54.3-20.3 44.3 19.1z"/><path fill-rule="evenodd" class="a" d="m507.6 544.4h-2.9c-76.7-6.5-116.9-46.5-137.1-78.9-21.8-34.9-25.4-68.1-25.6-69.5v-1-141.6-2.5l7.6-2c0.3-0.1 34.5-8.8 76.6-26.1 55.2-22.7 99-49.8 126.7-78.5l7.1-7.4 111 114.2-0.4 144.9c-0.1 1.4-3.7 34.6-25.5 69.5-20.3 32.4-60.5 72.4-137.1 78.9zm-1.6-20h0.7c127-11.1 142.9-120.7 144-130l0.3-135.3-91.1-93.6c-63.6 60.1-168.7 92.6-197.9 100.8v128.1c1.1 9.2 17 118.9 144 130z"/><path class="a" d=""/></svg>