<svg version="1.2" xmlns="http://www.w3.org/2000/svg" viewBox="0 0 1000 1000" width="1000" height="1000">
	<title>8703118_3974103-ai</title>
	<style>
		.s0 { fill: #7b70ee } 
		.s1 { fill: #d5cbfb } 
		.s2 { fill: #1c1c84 } 
		.s3 { fill: #2525ad } 
		.s4 { fill: #f0c64b } 
		.s5 { fill: #d8a32b } 
		.s6 { fill: #0c0c5b } 
		.s7 { fill: #fff6dc } 
		.s8 { fill: #ffffff } 
		.s9 { fill: #f4e7bd } 
	</style>
	<g id="Background">
	</g>
	<g id="Objects">
		<g id="&lt;Group&gt;">
			<g id="&lt;Group&gt;">
				<g id="&lt;Group&gt;">
				</g>
				<g id="&lt;Group&gt;">
				</g>
				<g id="&lt;Group&gt;">
				</g>
			</g>
			<g id="&lt;Group&gt;">
				<g id="&lt;Group&gt;">
					<path id="&lt;Path&gt;" class="s0" d="m131.2 40.2c0-4 3.3-7.2 7.3-7.2h748.5c4 0 7.2 3.2 7.2 7.2v484.2c0 4-3.2 7.2-7.2 7.2h-748.5c-4 0-7.3-3.2-7.3-7.2z"/>
					<path id="&lt;Path&gt;" class="s1" d="m150.1 69.3h725.3v414h-725.3z"/>
					<path id="&lt;Path&gt;" class="s1" d="m512.7 54.2c-2.5 0-4.5-2-4.5-4.6 0-2.5 2-4.5 4.5-4.5 2.6 0 4.6 2 4.6 4.5 0 2.6-2 4.6-4.6 4.6z"/>
					<g id="&lt;Group&gt;">
						<path id="&lt;Path&gt;" class="s1" d="m996.9 694.3l-93.7-149.2c-5.3-8.4-14.5-13.5-24.5-13.5h-382.3-21.1-328.6c-9.9 0-19.1 5.1-24.4 13.5l-93.8 149.2c-2.6 4.2-3.6 9.2-2.7 14.1h973.9c0.8-4.9-0.1-9.9-2.8-14.1z"/>
						<path id="&lt;Path&gt;" class="s0" d="m25.8 708.4q0.2 1.5 0.7 3l1.5 4.4c2.7 8.2 10.4 13.7 19 13.7h428.3 21.1 482c8.7 0 16.4-5.5 19.1-13.7l1.5-4.4q0.5-1.5 0.7-3z"/>
					</g>
					<g id="&lt;Group&gt;">
						<path id="&lt;Path&gt;" class="s0" d="m182 605.2l4.6-10h-22.6l-4.9 10z"/>
						<path id="&lt;Path&gt;" class="s0" d="m221.8 576.6l2.2-5.2 2.1-4.8h-21.9l-4.5 10z"/>
						<path id="&lt;Path&gt;" class="s0" d="m191.2 595.2l-4.5 10h22.9l4.3-10z"/>
						<path id="&lt;Path&gt;" class="s0" d="m188.5 590.9l4.6-10h-22.2l-4.9 10z"/>
						<path id="&lt;Path&gt;" class="s0" d="m648.3 566.6l2.5 10h19.5l-2.8-10z"/>
						<path id="&lt;Path&gt;" class="s0" d="m299.9 595.2l-3.1 10h23.1l2.9-10z"/>
						<path id="&lt;Path&gt;" class="s0" d="m272.9 595.2l-3.6 10h23.1l3-10z"/>
						<path id="&lt;Path&gt;" class="s0" d="m245.7 595.2l-4 10h23l3.6-10z"/>
						<path id="&lt;Path&gt;" class="s0" d="m218.5 595.2l-4.3 10h22.9l4.1-10z"/>
						<path id="&lt;Path&gt;" class="s0" d="m671.9 566.6l2.8 10h18.1l-2.9-10z"/>
						<path id="&lt;Path&gt;" class="s0" d="m378 580.9l-2.6 10h18.3l2.2-10z"/>
						<path id="&lt;Path&gt;" class="s0" d="m576.1 566.6l1.7 10h21l-1.9-10z"/>
						<path id="&lt;Path&gt;" class="s0" d="m374.6 576.6l2.6-10h-19.2l-2.8 10z"/>
						<path id="&lt;Path&gt;" class="s0" d="m350.8 576.6l2.8-10h-18l-2.9 10z"/>
						<path id="&lt;Path&gt;" class="s0" d="m396.9 576.6l2.3-10h-17.6l-2.6 10z"/>
						<path id="&lt;Path&gt;" class="s0" d="m694.3 566.6l2.9 10h22.7l-3-10z"/>
						<path id="&lt;Path&gt;" class="s0" d="m283.1 566.6l-3.6 10h21.6l1.6-5.1 1.5-4.9z"/>
						<path id="&lt;Path&gt;" class="s0" d="m275 576.6l3.6-10h-21.4l-4 10z"/>
						<path id="&lt;Path&gt;" class="s0" d="m230.7 566.6l-4.3 10h22.2l2.1-5.2 1.9-4.8z"/>
						<path id="&lt;Path&gt;" class="s0" d="m626.3 566.6l2.3 10h17.9l-2.6-10z"/>
						<path id="&lt;Path&gt;" class="s0" d="m601.2 566.6l2 10h21l-2.2-10z"/>
						<path id="&lt;Path&gt;" class="s0" d="m328.2 576.6l3-10h-22.6l-3.1 10z"/>
						<path id="&lt;Path&gt;" class="s0" d="m354.8 562.3l2.6-9.3h-17.8l-2.8 9.3z"/>
						<path id="&lt;Path&gt;" class="s0" d="m332.4 562.3l2.7-9.3h-22.3l-2.9 9.3z"/>
						<path id="&lt;Path&gt;" class="s0" d="m551.2 566.6l1.2 10h21.1l-1.7-10z"/>
						<path id="&lt;Path&gt;" class="s0" d="m425.1 562.3l1.9-9.3h-20.4l-2.1 9.3z"/>
						<path id="&lt;Path&gt;" class="s0" d="m400.1 562.3l2.1-9.3h-17.2l-2.4 9.3z"/>
						<path id="&lt;Path&gt;" class="s0" d="m378.2 562.3l2.4-9.3h-18.8l-2.6 9.3z"/>
						<path id="&lt;Path&gt;" class="s0" d="m799.4 566.6l4.3 10h22.1l-4.5-10z"/>
						<path id="&lt;Path&gt;" class="s0" d="m227.9 562.3l4-9.3h-21.5l-4.2 9.3z"/>
						<path id="&lt;Path&gt;" class="s0" d="m254.3 562.3l3.7-9.3h-21.5l-4 9.3z"/>
						<path id="&lt;Path&gt;" class="s0" d="m305.5 562.3l2.8-9.3h-20.3l-3.3 9.3z"/>
						<path id="&lt;Path&gt;" class="s0" d="m825.9 566.6l4.6 10h22.1l-4.9-10z"/>
						<path id="&lt;Path&gt;" class="s0" d="m280.2 562.3l3.3-9.3h-20.9l-3.7 9.3z"/>
						<path id="&lt;Path&gt;" class="s0" d="m721.3 566.6l3.1 10h21.5l-3.6-10z"/>
						<path id="&lt;Path&gt;" class="s0" d="m423 595.2l-2 10h21.8l1.7-10z"/>
						<path id="&lt;Path&gt;" class="s0" d="m327.3 595.2l-3 10h18.5l2.8-10z"/>
						<path id="&lt;Path&gt;" class="s0" d="m397.1 595.2l-2.3 10h21.9l1.9-10z"/>
						<path id="&lt;Path&gt;" class="s0" d="m350.1 595.2l-2.8 10h20.2l2.5-10z"/>
						<path id="&lt;Path&gt;" class="s0" d="m374.4 595.2l-2.6 10h18.7l2.2-10z"/>
						<path id="&lt;Path&gt;" class="s0" d="m453.7 566.6l-1.7 10h21.1l1.1-10z"/>
						<path id="&lt;Path&gt;" class="s0" d="m450.1 562.3l1.6-9.3h-20.4l-1.8 9.3z"/>
						<path id="&lt;Path&gt;" class="s0" d="m425.8 580.9l-2 10h21.5l1.7-10z"/>
						<path id="&lt;Path&gt;" class="s0" d="m772.9 566.6l4 10h22.2l-4.3-10z"/>
						<path id="&lt;Path&gt;" class="s0" d="m471.4 590.9l1.2-10h-21.3l-1.7 10z"/>
						<path id="&lt;Path&gt;" class="s0" d="m746.8 566.6l3.7 10h21.8l-4-10z"/>
						<path id="&lt;Path&gt;" class="s0" d="m195 576.6l4.6-10h-21.9l-4.8 10z"/>
						<path id="&lt;Path&gt;" class="s0" d="m678.2 605.2l-2.8-10h-19.9l2.5 10z"/>
						<path id="&lt;Path&gt;" class="s0" d="m354 580.9l-2.8 10h19.8l2.6-10z"/>
						<path id="&lt;Path&gt;" class="s0" d="m715.6 562.3l-2.9-9.3h-22.4l2.8 9.3z"/>
						<path id="&lt;Path&gt;" class="s0" d="m766.6 562.3l-3.7-9.3h-20.9l3.3 9.3z"/>
						<path id="&lt;Path&gt;" class="s0" d="m740.8 562.3l-3.4-9.3h-20.2l2.8 9.3z"/>
						<path id="&lt;Path&gt;" class="s0" d="m621 562.3l-2.1-9.3h-20.4l1.9 9.3z"/>
						<path id="&lt;Path&gt;" class="s0" d="m596 562.3l-1.8-9.3h-20.5l1.6 9.3z"/>
						<path id="&lt;Path&gt;" class="s0" d="m793 562.3l-4-9.3h-21.6l3.8 9.3z"/>
						<path id="&lt;Path&gt;" class="s0" d="m666.3 562.3l-2.6-9.3h-18.8l2.3 9.3z"/>
						<path id="&lt;Path&gt;" class="s0" d="m642.9 562.3l-2.4-9.3h-17.2l2.1 9.3z"/>
						<path id="&lt;Path&gt;" class="s0" d="m653.6 605.2l-2.5-10h-18.4l2.3 10z"/>
						<path id="&lt;Path&gt;" class="s0" d="m811.3 605.2l-4.3-10h-22.7l4 10z"/>
						<path id="&lt;Path&gt;" class="s0" d="m756.2 605.2l-3.6-10h-22.5l3 10z"/>
						<path id="&lt;Path&gt;" class="s0" d="m866.3 605.2l-4.8-10h-22.6l4.6 10z"/>
						<path id="&lt;Path&gt;" class="s0" d="m838.8 605.2l-4.6-10h-22.6l4.3 10z"/>
						<path id="&lt;Path&gt;" class="s0" d="m783.8 605.2l-4.1-10h-22.6l3.6 10z"/>
						<path id="&lt;Path&gt;" class="s0" d="m630.6 605.2l-2.2-10h-21.6l2 10z"/>
						<path id="&lt;Path&gt;" class="s0" d="m819.3 562.3l-4.2-9.3h-21.5l4 9.3z"/>
						<path id="&lt;Path&gt;" class="s0" d="m857.3 576.6h20.4l-5.7-10h-19.6z"/>
						<path id="&lt;Path&gt;" class="s0" d="m701.2 605.2l-3-10h-18.4l2.8 10z"/>
						<path id="&lt;Path&gt;" class="s0" d="m845.7 562.3l-4.5-9.3h-21.5l4.3 9.3z"/>
						<path id="&lt;Path&gt;" class="s0" d="m728.7 605.2l-3.1-10h-22.9l2.9 10z"/>
						<path id="&lt;Path&gt;" class="s0" d="m869.6 562.3l-5.3-9.3h-18.4l4.5 9.3z"/>
						<path id="&lt;Path&gt;" class="s0" d="m688.6 562.3l-2.7-9.3h-17.8l2.6 9.3z"/>
						<path id="&lt;Path&gt;" class="s0" d="m551.5 605.2l-1.2-10h-22l0.4 10z"/>
						<path id="&lt;Path&gt;" class="s0" d="m224.6 580.9l-2.2 5.2-2.1 4.8h22.6l4-10z"/>
						<path id="&lt;Path&gt;" class="s0" d="m575.9 590.9l-1.7-10h-21.3l1.2 10z"/>
						<path id="&lt;Path&gt;" class="s0" d="m215.7 590.9l4.3-10h-22.3l-2.4 5.2-2.1 4.8z"/>
						<path id="&lt;Path&gt;" class="s0" d="m403.5 566.6l-2.2 10h21l2-10z"/>
						<path id="&lt;Path&gt;" class="s0" d="m428.6 566.6l-2 10h21.1l1.7-10z"/>
						<path id="&lt;Path&gt;" class="s0" d="m304.2 580.9l-3 10h22.9l2.9-10z"/>
						<path id="&lt;Path&gt;" class="s0" d="m251.5 580.9l-4.1 10h22.5l3.6-10z"/>
						<path id="&lt;Path&gt;" class="s0" d="m331.4 580.9l-2.9 10h18.3l2.8-10z"/>
						<path id="&lt;Path&gt;" class="s0" d="m527.7 580.9l0.4 10h21.7l-1.2-10z"/>
						<path id="&lt;Path&gt;" class="s0" d="m278 580.9l-3.6 10h22.3l3.1-10z"/>
						<path id="&lt;Path&gt;" class="s0" d="m546.5 562.3l-1.1-9.3h-18.8l0.3 9.3z"/>
						<path id="&lt;Path&gt;" class="s0" d="m604.5 605.2l-2-10h-21.6l1.7 10z"/>
						<path id="&lt;Path&gt;" class="s0" d="m503.2 553l-0.4 9.3h19.9l-0.4-9.3z"/>
						<path id="&lt;Path&gt;" class="s0" d="m502.6 566.6l-0.4 10h21.1l-0.4-10z"/>
						<path id="&lt;Path&gt;" class="s0" d="m548.1 576.6l-1.1-10h-19.9l0.4 10z"/>
						<path id="&lt;Path&gt;" class="s0" d="m571 562.3l-1.6-9.3h-19.7l1.1 9.3z"/>
						<path id="&lt;Path&gt;" class="s0" d="m502 580.9l-0.4 10h22.2l-0.4-10z"/>
						<path id="&lt;Path&gt;" class="s0" d="m501.5 595.2l-0.4 10h23.3l-0.4-10z"/>
						<path id="&lt;Path&gt;" class="s0" d="m498.5 562.3l0.4-9.3h-18.8l-1.1 9.3z"/>
						<path id="&lt;Path&gt;" class="s0" d="m454.5 562.3h20.2l1.1-9.3h-19.7z"/>
						<path id="&lt;Path&gt;" class="s0" d="m601.7 590.9l-2-10h-21.2l1.7 10z"/>
						<path id="&lt;Path&gt;" class="s0" d="m400.3 580.9l-2.3 10h21.5l2-10z"/>
						<path id="&lt;Path&gt;" class="s0" d="m129.3 609.5l-5 8.7h23.9l4.2-8.7z"/>
						<path id="&lt;Path&gt;" class="s0" d="m697 590.9l-2.9-10h-18.2l2.8 10z"/>
						<path id="&lt;Path&gt;" class="s0" d="m683.8 609.5l2.5 8.7h18.7l-2.6-8.7z"/>
						<path id="&lt;Path&gt;" class="s0" d="m650.1 590.9l-2.6-10h-18l2.3 10z"/>
						<path id="&lt;Path&gt;" class="s0" d="m496.8 605.2l0.4-10h-22l-1.2 10z"/>
						<path id="&lt;Path&gt;" class="s0" d="m762.3 609.5l3.1 8.7h23.6l-3.5-8.7z"/>
						<path id="&lt;Path&gt;" class="s0" d="m832.3 590.9l-4.5-10h-22.3l4.3 10z"/>
						<path id="&lt;Path&gt;" class="s0" d="m790 609.5l3.6 8.7h23.3l-3.8-8.7z"/>
						<path id="&lt;Path&gt;" class="s0" d="m448.9 595.2l-1.8 10h22.6l1.2-10z"/>
						<path id="&lt;Path&gt;" class="s0" d="m137.3 595.2l-5.6 10h22.7l4.9-10z"/>
						<path id="&lt;Path&gt;" class="s0" d="m556.2 609.5l1.1 8.7h23.3l-1.5-8.7z"/>
						<path id="&lt;Path&gt;" class="s0" d="m212.4 609.5l-3.8 8.7h23.3l3.5-8.7z"/>
						<path id="&lt;Path&gt;" class="s0" d="m496.6 609.5h-23.1l-1 8.7h23.8z"/>
						<path id="&lt;Path&gt;" class="s0" d="m805.2 590.9l-4.3-10h-22.3l4 10z"/>
						<path id="&lt;Path&gt;" class="s0" d="m157.1 609.5l-4.2 8.7h23.2l4-8.7z"/>
						<path id="&lt;Path&gt;" class="s0" d="m604 580.9l2 10h21.4l-2.2-10z"/>
						<path id="&lt;Path&gt;" class="s0" d="m706.8 609.5l2.6 8.7h23.3l-2.7-8.7z"/>
						<path id="&lt;Path&gt;" class="s0" d="m609.7 609.5l1.7 8.7h22.2l-2-8.7z"/>
						<path id="&lt;Path&gt;" class="s0" d="m724.3 590.9l-3.1-10h-22.7l2.9 10z"/>
						<path id="&lt;Path&gt;" class="s0" d="m751.1 590.9l-3.6-10h-21.8l3.1 10z"/>
						<path id="&lt;Path&gt;" class="s0" d="m583.4 609.5l1.5 8.7h22.2l-1.8-8.7z"/>
						<path id="&lt;Path&gt;" class="s0" d="m734.4 609.5l2.7 8.7h23.8l-3.1-8.7z"/>
						<path id="&lt;Path&gt;" class="s0" d="m153.5 566.6l-5.7 10h20.4l4.8-10z"/>
						<path id="&lt;Path&gt;" class="s0" d="m845.4 609.5l4 8.7h23.2l-4.2-8.7z"/>
						<path id="&lt;Path&gt;" class="s0" d="m161.2 553l-5.3 9.3h19.2l4.5-9.3z"/>
						<path id="&lt;Path&gt;" class="s0" d="m778 590.9l-4-10h-22l3.6 10z"/>
						<path id="&lt;Path&gt;" class="s0" d="m440.6 618.2l1.5-8.7h-202.1l-3.5 8.7z"/>
						<path id="&lt;Path&gt;" class="s0" d="m636 609.5l1.9 8.7h19l-2.2-8.7z"/>
						<path id="&lt;Path&gt;" class="s0" d="m477.3 576.6h20.7l0.4-10h-19.9z"/>
						<path id="&lt;Path&gt;" class="s0" d="m888.1 595.2h-21.9l11.1 23h23.9z"/>
						<path id="&lt;Path&gt;" class="s0" d="m864.2 590.9h21.5l-5.6-10h-20.8z"/>
						<path id="&lt;Path&gt;" class="s0" d="m859.4 590.9l-4.8-10h-22.2l4.6 10z"/>
						<path id="&lt;Path&gt;" class="s0" d="m468.2 618.2l1-8.7h-22.8l-1.5 8.7z"/>
						<path id="&lt;Path&gt;" class="s0" d="m500.9 609.5l-0.4 8.7h52.5l-1-8.7z"/>
						<path id="&lt;Path&gt;" class="s0" d="m817.7 609.5l3.8 8.7h23.2l-4-8.7z"/>
						<path id="&lt;Path&gt;" class="s0" d="m674.2 590.9l-2.8-10h-19.5l2.5 10z"/>
						<path id="&lt;Path&gt;" class="s0" d="m659.1 609.5l2.2 8.7h20.6l-2.5-8.7z"/>
						<path id="&lt;Path&gt;" class="s0" d="m145.4 580.9l-5.7 10h21.6l4.9-10z"/>
						<path id="&lt;Path&gt;" class="s0" d="m201.5 562.3l4.2-9.3h-21.4l-4.5 9.3z"/>
						<path id="&lt;Path&gt;" class="s0" d="m184.7 609.5l-4 8.7h23.3l3.8-8.7z"/>
						<path id="&lt;Path&gt;" class="s0" d="m497.4 590.9l0.4-10h-21l-1.1 10z"/>
						<path id="&lt;Path&gt;" class="s0" d="m576.6 595.2h-22l1.1 10h22.6z"/>
					</g>
					<path id="&lt;Compound Path&gt;" fill-rule="evenodd" class="s0" d="m645.9 693.1h-266.3c-1.1 0-2.2-0.5-2.8-1.4-0.7-1-0.9-2.1-0.6-3.2l17-55c0.4-1.5 1.8-2.5 3.3-2.5h232.5c1.5 0 2.9 1 3.3 2.5l17 55c0.3 1.1 0.1 2.2-0.6 3.2-0.7 0.9-1.7 1.4-2.8 1.4zm-249.4-58.9c-0.1 0-0.3 0.1-0.3 0.2l-17 55c0 0.2 0 0.3 0.1 0.4 0 0.1 0.1 0.1 0.3 0.1h266.3c0.1 0 0.2 0 0.3-0.1 0-0.1 0.1-0.2 0-0.4l-16.9-55c0-0.1-0.2-0.2-0.3-0.2z"/>
				</g>
				<g id="&lt;Group&gt;">
					<g id="&lt;Group&gt;">
						<g id="&lt;Group&gt;">
							<path id="&lt;Path&gt;" class="s2" d="m642.1 132.7l-289.3 45.6 278.1 139.2 288.1-42.9z"/>
							<path id="&lt;Path&gt;" class="s3" d="m352.8 178.3v6.6l278.3 145.5 287.9-49.4v-6.4l-288.1 42.9z"/>
							<path id="&lt;Path&gt;" class="s3" d="m460.4 334.9l-4.4 29.4c0 0 118.7 95.3 286.2 48.5l2.6-23c-148.1 24.7-241.3-23.2-284.4-54.9z"/>
							<g id="&lt;Group&gt;">
								<path id="&lt;Path&gt;" class="s4" d="m813 489.7c-15.5-12.3-26.5-30.4-31.7-49.5-0.4-1.4-2.3-0.9-2.5 0.3-0.3-0.4-1-0.5-1.6-0.2-0.3-1-1.9-1.5-2.5-0.3-10.6 20.6-2.4 43.9 4.7 64.3 0.6 1.6 2.3 0.7 1.8-0.9-5.6-15.9-11.6-33.8-8.2-50.6-1.9 21.3 5.2 43 18.2 59.9 0.9 1.2 2.4-0.3 1.4-1.5-11.7-15.3-17.8-34.7-17.2-54 0.4 7.6 1.6 15.2 4 22.3 3.7 11 9.9 21.5 16.2 31.2 0.9 1.4 2.3 0 1.4-1.5-6-9.3-11.1-19.3-14.9-29.8-1.6-4.5-2.6-9.2-3.3-14 3.6 15.4 11 30 21.8 41.8 1.1 1.2 2.6 0.1 1.5-1.2-11.8-12.9-18.9-29.4-21.8-46.5 4.3 16 12.3 31.1 22.8 44.1 1.1 1.3 2.2-0.1 1.1-1.4-10.3-12.7-17.1-27.5-21.3-43.1 5.7 16 13.1 31.6 26.2 43 1.3 1.1 2.7-0.2 1.4-1.3-9-7.8-14.9-18.5-19.7-29.1 5.2 9.3 11.5 18 18.8 25.9 1.2 1.2 2.2-0.8 1-2-6.4-6.9-11.4-14.6-16.1-22.7 4.9 6.6 10.6 12.6 17.1 17.8 1.3 1 2.8 0.1 1.4-1z"/>
								<path id="&lt;Path&gt;" class="s4" d="m785.8 267c-6.1-7.2-14.2-11.9-22.6-16-16.6-8-35.1-11.5-53.1-14.9-25.4-4.9-51.5-9.3-72.6-25.4-0.9-0.6-1.7-0.3-2.1 0.4q-0.1 0-0.1 0.1-0.1 0-0.1 0c-0.5 0.7-0.6 1.6 0.1 2.3 15.5 14.8 36.3 22.2 56.7 27.3 20.6 5.3 41.7 8.8 61.4 17q1 0.4 1.9 0.8c0.1 0 0.8 0.3 0.8 0.3q1.5 0.8 3 1.5c3.7 1.9 7.3 3.8 10.7 6.2 4 2.8 7.8 6.3 10.4 10.6 2.8 4.6 3.8 9.8 3.7 15.2-0.1 5.6-1.1 11.2-2.1 16.7-0.9 5.8-1.8 11.5-2.6 17.3-1.9 11.8-3.6 23.7-4.8 35.7-2.9 26.2-3.6 53 1.1 79.2 0.4 1.9 3.6 1.5 3.5-0.5-1.9-24.8 0.1-49.7 3.6-74.2 1.8-12.2 3.9-24.4 6-36.6 2-11.4 4.6-22.9 5.6-34.4 0.8-10.5-1.6-20.4-8.4-28.6z"/>
								<path id="&lt;Path&gt;" class="s5" d="m774.2 443.1q0.4-0.2 0.9-0.4 0.3-0.1 0 0 0.1 0 0.2-0.1 0.2 0 0.4-0.1 1-0.3 2.1-0.4 0.2-0.1 0.5-0.1c-0.5 0 0 0 0.1 0q0.5 0 1 0 0.5 0 1 0 0.3 0 0.5 0.1 0.2 0 0.3 0-0.4 0 0 0c0.4 0.1 0.9 0.1 1.3-0.1 0.4-0.2 0.7-0.6 0.9-1 0.2-0.9-0.2-2.1-1.2-2.2-3.3-0.7-6.6-0.3-9.7 1.2-0.8 0.4-1.2 1.6-0.7 2.4 0.5 0.8 1.5 1.2 2.4 0.7z"/>
								<path id="&lt;Path&gt;" class="s5" d="m773.8 439.7q0.5-0.2 1-0.4 0.2-0.1-0.1 0 0.2-0.1 0.3-0.1 0.2-0.1 0.4-0.1 1-0.3 2-0.5 0.3 0 0.5 0c-0.5 0 0.1 0 0.2-0.1q0.5 0 1 0 0.5 0 1 0.1 0.2 0 0.5 0 0.1 0.1 0.2 0.1-0.3-0.1 0 0c0.5 0.1 0.9 0.1 1.4-0.1 0.3-0.2 0.7-0.7 0.8-1.1 0.2-0.8-0.2-2-1.1-2.2-3.3-0.6-6.7-0.2-9.7 1.3-0.8 0.4-1.2 1.6-0.7 2.4 0.5 0.8 1.5 1.1 2.3 0.7z"/>
							</g>
						</g>
						<g id="&lt;Group&gt;">
							<path id="&lt;Path&gt;" class="s6" d="m753.5 320.6l1.4-11.5-123.8 21.3-155.8-81.4-3.3 19.2 156 78.6z"/>
							<path id="&lt;Path&gt;" class="s2" d="m628 346.8l-156-78.6-11.6 66.7c43.1 31.7 136.3 79.6 284.4 54.9l8.7-69.2z"/>
						</g>
					</g>
					<g id="&lt;Group&gt;">
						<g id="&lt;Group&gt;">
							<path id="&lt;Path&gt;" class="s7" d="m438.8 437.2c6.9 18.6-7.9 41.3-33.1 50.7-25.2 9.3-39.6-2.5-49.7-19.6-14.7-25-0.5-38.5 24.7-47.8 25.2-9.4 51.2-1.9 58.1 16.7z"/>
							<path id="&lt;Path&gt;" class="s8" d="m187.1 232.3c0 0 62.5 64.5 113.8 180.1 0 0 24.3 62.8 40.3 78.5 0 0-12.9-14.6 6.8-37.8 14.5-17.1 35.6-27.5 58-28.3 12.4-0.5 25.5 2.2 32.9 12.7 0 0-83.4-98.3-137.9-183.1-21.8-33.9-32.1-61.9-36.6-83.3 0 0-4.2-4.9-12.3-8.9-30.1-14.9-65.6 5.1-70.9 38.3q-0.7 4.6-0.8 9.9c0 0-0.5 14.7 6.7 21.9z"/>
							<path id="&lt;Path&gt;" class="s9" d="m341.2 490.9c0 0 27.4 33 89.4-6.6 0 0 38.4-25.6 19.2-70.2 0 0-39.8-29.7-71.2-67.3-31.4-37.7-70.2-88.9-102.4-156.6l-8.2-5c0 0 5.9 32.1 44.2 86.3 38.4 54.1 109.1 144.7 109.1 144.7l10.8 13.1c6.2 7.4 8.4 17.7 4.9 26.8-4.9 13-19.2 28.3-59.2 30.6l-25-38.8c0 0-24.3 20.1-11.6 43z"/>
							<path id="&lt;Path&gt;" class="s8" d="m401.8 371.9c0 0-71.9-74.9-122.3-193.6 0 0-9.1-14.4-14.9-21.1 0 0 43.8 135.4 137.2 214.7z"/>
						</g>
						<path id="&lt;Path&gt;" class="s4" d="m269.6 350.2c15.1-27.3 47.8-45.3 78.9-43.8 11 0.6 11-13.2 0-13.8-36.9-1.8-73.5 16.6-91.4 48.9 0 0 7.1 18.4 12.5 8.7z"/>
					</g>
				</g>
			</g>
			<g id="&lt;Group&gt;">
			</g>
			<g id="&lt;Group&gt;">
				<g id="&lt;Group&gt;">
					<g id="&lt;Group&gt;">
					</g>
				</g>
				<g id="&lt;Group&gt;">
				</g>
			</g>
			<g id="&lt;Group&gt;">
				<g id="&lt;Group&gt;">
					<g id="&lt;Group&gt;">
					</g>
					<g id="&lt;Group&gt;">
						<g id="&lt;Group&gt;">
						</g>
					</g>
				</g>
				<g id="&lt;Group&gt;">
					<g id="&lt;Group&gt;">
					</g>
					<g id="&lt;Group&gt;">
					</g>
				</g>
				<g id="&lt;Group&gt;">
					<g id="&lt;Group&gt;">
					</g>
				</g>
			</g>
			<g id="&lt;Group&gt;">
				<g id="&lt;Group&gt;">
					<g id="&lt;Group&gt;">
						<g id="&lt;Group&gt;">
						</g>
						<g id="&lt;Group&gt;">
						</g>
					</g>
					<g id="&lt;Group&gt;">
						<g id="&lt;Group&gt;">
						</g>
						<g id="&lt;Group&gt;">
						</g>
					</g>
				</g>
				<g id="&lt;Group&gt;">
				</g>
			</g>
			<g id="&lt;Group&gt;">
				<g id="&lt;Group&gt;">
					<g id="&lt;Group&gt;">
					</g>
				</g>
				<g id="&lt;Group&gt;">
					<g id="&lt;Group&gt;">
					</g>
				</g>
			</g>
			<g id="&lt;Group&gt;">
				<g id="&lt;Group&gt;">
				</g>
				<g id="&lt;Group&gt;">
				</g>
				<g id="&lt;Group&gt;">
				</g>
			</g>
			<g id="&lt;Group&gt;">
				<g id="&lt;Group&gt;">
				</g>
			</g>
			<g id="&lt;Group&gt;">
			</g>
			<g id="&lt;Group&gt;">
			</g>
		</g>
	</g>
</svg>