<svg version="1.2" xmlns="http://www.w3.org/2000/svg" viewBox="0 0 1000 1000" width="500" height="500"><style>.a{fill:#4d4d4d}</style><path class="a" d="m698.6 170c-10.6 12.3-15.5 28.6-14.4 44.9l3.6 51.5h-30.9v-24.5l-1-74.2c-21.7 7-92.6 13.5-137 13.1-71.8-0.7-143.2-7.4-143.2-7.4-10.2 21.6-20.9 68.4-20.9 68.4v0.1 24.5h-30.5l-17.6-8.4c0 0-41.8-157.4 52.5-170.2 0 0 27.5-41 75.2-40.4 59.4 0.7 212.6 36.5 276.2-9.4 0 0 25.3 88.8-12 132z"/><path class="a" d="m992 961.1l-71.2-209.4c-22.1-64.8-74.4-114.8-140.2-133.6-76.5-21.9-158.5-36.6-173.2-39.2q2.5 3.7 5.4 6.6l-106.5 88.1-112.8-88.1c2-2 3.9-4.2 5.6-6.8-11.8 2-98.9 16.9-179.3 39.5-66.5 18.6-119.6 68.6-141.8 134l-71 208.9z"/><path class="a" d="m619.7 578.4c-15.5-15-24.4-59.8-27.7-95.8-5.6 4-11.8 7.7-18.5 11.1 2.8 25 9.7 66.9 25.6 90.4l-93 77-98.7-77.2c16.4-24.3 23.1-68.2 25.8-92.8-6.7-3.6-12.9-7.7-18.5-12-3 36.5-12 83.8-28 99.3l-8 7.9 127.7 99.9 121.1-100.2z"/><path fill-rule="evenodd" class="a" d="m507 521.4h-2.8c-75-6.4-114.4-45.5-134.1-77.2-21.4-34.1-24.9-66.6-25.1-68v-1-138.4l1.1-0.8c2.8-11.6 11.8-47.8 20.7-66.8l3-6.2 6.8 0.6c0.7 0.1 71.9 6.7 142.4 7.4 44.7 0.4 113.6-6.1 133.9-12.6l12.7-4.1 1.1 87.6-0.1 133.8-0.1 0.5c-0.1 1.4-3.7 33.9-25 68-19.8 31.7-59.1 70.8-134.1 77.2zm-1.6-19.6h0.7c124.3-10.8 139.8-118 140.9-127.2l0.1-132.7-0.8-61.8c-31.1 6.3-90.5 10.8-127.5 10.4-58.3-0.5-117-5.1-136.9-6.8-8 20.1-15.8 52.9-17.3 59.2v131.7c1.1 9.1 16.6 116.4 140.8 127.2z"/><path class="a" d="m354.8 361.6c-29.9-2-33.5-16-32.9-31.8 0.6-16.3-5.3-33.2-15.1-71.8-9.9-38.7 43.4-18.7 43.4-18.7l4.6 11.2z"/><path class="a" d="m699.2 258c-9.9 38.6-15.8 55.5-15.1 71.8 0.6 14.7-2.6 27.9-27.2 31.3l0.1-119.2c0 0-0.6-0.5-1.6-1.4l0.5-1.2c0 0 53.1-20 43.3 18.7z"/><path class="a" d="m584.6 494.1c0 0-37.6 65.3-132.2 57.2l-22 75.8-36.9-41.6 29.5-97.1c0 0 88.9 39.2 161.6 5.7z"/><path fill-rule="evenodd" class="a" d="m505 511.3v0.3c-0.8 0-1.5-0.1-2.3-0.2-0.8 0.1-1.6 0.2-2.3 0.2v-0.3c-161.5-12.5-143.9-188.6-143.9-188.6 0 62.8 55.5 99.6 55.5 99.6 16.5-43.7 76.3-45.3 90.7-45 14.4-0.3 74.2 1.3 90.7 45 0 0 55.4-36.8 55.4-99.6 0 0 17.6 176.1-143.8 188.6zm69.6-55.5l-8.7-23.2c-9.3-24.7-52.3-26-60.8-26-0.7 0-2.4 0.1-2.4 0.1 0 0-1.7-0.1-2.4-0.1-8.5 0-51.5 1.3-60.8 26l-8.8 23.2c18.4 15.3 42.1 23.9 71.9 26.2h0.1 0.1c29.8-2.3 53.5-10.9 71.8-26.2z"/><path class="a" d=""/></svg>