<svg version="1.2" xmlns="http://www.w3.org/2000/svg" viewBox="0 0 3200 2000" width="500" height="313"><style>.a{fill:#2e3552}.b{fill:#ffb27d}.c{fill:#233862}.d{fill:#efcbab}.e{fill:#d8a987}.f{fill:#ed985f}.g{fill:#132644}.h{fill:#fff}.i{fill:#d2e3fc}.j{fill:#ee9849}.k{fill:#1c468a}.l{fill:#bc3f3f}.m{fill:#fff0e6}.n{fill:#fcecdb}.o{fill:#932424}.p{fill:#ef9e67}.q{fill:#a53d38}.r{fill:#c45446}.s{fill:#912f2f}.t{fill:#9b2323}.u{fill:#c94c43}.v{fill:#ed975d}.w{fill:#f99746}.x{fill:#ddb08e}.y{fill:#b56f40}.z{fill:#99592e}.A{fill:#2c3a64}.B{fill:#82b378}.C{fill:#ef7e29}.D{fill:#aa443e}.E{fill:#6bb7bf}.F{fill:#86d1cd}.G{fill:#5685d8}.H{fill:#739af0}.I{fill:#ed7d2b}</style><path class="a" d="m3059.2 1651.5h-2843.7c-1.8 0-3.3-1.5-3.3-3.3v-1.1c0-1.7 1.5-3.2 3.3-3.2h2843.7c1.8 0 3.3 1.5 3.3 3.2v1.1c0 1.8-1.5 3.3-3.3 3.3z"/><path class="b" d="m597.2 1123.5l-9.5 104.2 14.1 2.2 40.2-92.7z"/><path class="b" d="m603.7 1219.2c0 0-3.3 10.9-1.3 19.1 1.4 5.4-7 12.8-16.3 23.1-1 1.1-2.7 0-2.5-1.4 0.1-0.7 0.3-1.5 0.7-2.5 1.7-4 6.6-10.8 6.6-10.8-0.4-1.5-10.4 3.9-16 7.6-3.2 2.1-12.6 12.3-15.2 10.8-2.5-1.5 1.6-11.3 6-18.5 4.3-7.2 20-13.3 22-18.9 1.9-5.5 16-8.5 16-8.5z"/><path class="c" d="m649.5 745.3l103.8-44.3 95.7 45.6-95.7 48.6z"/><path class="d" d="m666.3 796.1l1.5-1.9c-21-15.8-16.9-42-15.6-48.1 0.1-0.7-0.2-1.5-0.8-2-0.7-0.4-1.6-0.1-1.7 0.7-1.4 7-5.2 34.9 16.6 51.3z"/><path class="e" d="m667.8 794.2l3.1 1.1-2.6 3.4-2-2.6z"/><path class="d" d="m670.9 795.3c0 0 3.9 2.9 5.2 2 0 0-1.3 3.7-3.1 4.1 0 0-3.6-1.2-4.7-2.7z"/><path class="b" d="m716.6 1536.6l-7.1 29.7-9.3 39.3h-29.2l-1.8-37.7-1.3-29z"/><path class="c" d="m659.4 1648.7c0 0 0-14.3 2.1-19 2-4.8 9.5-24.1 9.5-24.1h29.2c0 0 5.4 17.6 5.8 23.4 0.3 5.8 0 19.7 0 19.7z"/><path class="c" d="m844.9 1648.7c0 0 0-14.3-2-19-2.1-4.8-9.6-24.1-9.6-24.1h-29.2c0 0-5.4 17.6-5.7 23.4-0.4 5.8 0 19.7 0 19.7z"/><path class="b" d="m727.9 846.1c0 0-1.1 31.8-5.1 46.1l-32.3 69.5 71.4 98.9 50-127.7-28.9-40c0 0-8.8-42.7-4.2-58.5 4.6-15.8-50.9 11.7-50.9 11.7z"/><path class="f" d="m727.7 850.5c0 0 9.6 23.1 27.7 22.6 18.1-0.5 22.2-21 22.2-21z"/><path class="g" d="m716.9 831.8c0 0-5.8-29.2-9.9-38-4.1-8.8-7.5-48.2 37.7-50.3 0 0 17.3 2.1 26.8-3.7 0 0 0 5.8-2.4 7.8 0 0 11.8-7.4 24 6.2 12.3 13.6-4.3 64.8-3.2 76z"/><path class="b" d="m753.3 864.2c-13.1-0.3-37.2-17.7-37.2-39.3v-33.7c0-7.9 5.5-14.4 12.2-14.4h50c6.7 0 12.2 6.5 12.2 14.4v31.8c0 22.6-22.2 41.4-37.2 41.2z"/><path class="g" d="m716.1 809.2c0 0 0-20.3 16.1-23.4 16-3.1 52 9.9 57.1-4.9 5.1-14.8-69.5-14.5-73.2-5.1-3.8 9.4 0 33.4 0 33.4z"/><path class="h" d="m722.8 892.2c0 0 29.8 6.7 29.8 6.7l30.2-7.3 7.7 46.4-33.9 115.3-37-138.2z"/><path class="i" d="m721.3 901.7l23.7 17.7 7.8-12.7 7.2 12.7 25.3-22-5-5.8-27.7 7.3-29.8-1.3z"/><path class="j" d="m845.6 1153.2l-71.1 4.5c-0.4-0.7-0.9-0.7-1.4 0.1l-20.9 1.3-89.1-5.6c0 0-22.4 102.3-13.6 238.7 2.8 43.5 9.1 172.3 15 217.8l61.1 0.7c8-51.5 17.1-180.1 22-202.2q3.4-15 6.3-29.8c1.8 11.2 2.9 20.3 2.9 26-0.1 9 2.6 23.5 6.2 40.8 5.2 24.5 20.3 137.4 24.8 166.8h64.1c0.8-40.5 4.2-178.4 5-220.1 1.9-111.2-11.3-239-11.3-239z"/><path class="k" d="m894.7 1512.7c-32.7 17.1-255.3 37.4-295.2-9.6-6.7-8 88.1-604.2 88.1-604.2 0 0 6.1-1.8 16.4-3.7 5.3-1 11.6-2 18.8-2.9 0.1 2.2 15.4 99.1 36.3 136.8 0 0 23.7-52.1 23.9-136.2 0-0.5-0.1-0.9-0.2-1.3 4.5 0.5 9.1 1.1 13.6 1.9q2.9 0.5 5.8 1.1c7.3 1.5 14.7 3.4 22.1 5.8 0 0 77.2 608.7 70.4 612.3z"/><path class="k" d="m713.4 893.4c0 0-34.1 261.6-47.1 281.2-5.5 8.2-13.5 9.6-22.9 7.7q-2.7-0.5-5.6-1.3l-26.1-10.1h-0.1c-4.2-1.7-8.5-3.3-12.7-4.6-26.9-8.3-24.8-30.9-17.6-61.7 7.3-30.8 54.6-179 70.5-189.5 28.2-18.5 61.6-21.7 61.6-21.7z"/><path class="b" d="m782.8 891.6c-22.4-2.4-43.4-1.3-60 0.7q0-0.1 0-0.1c0 0 55.6-34.4 60-0.6z"/><path class="l" d="m763.3 1053.3c-34.4-25.3-59.3-158.1-59.3-158.1 5.3-1 11.6-2 18.8-2.9 0.1 2.2 14.6 93.7 35.5 131.5 0 0 24.5-46.8 24.7-130.9 0-0.5-0.1-0.9-0.2-1.3 4.5 0.5 9.1 1.1 13.6 1.9q2.9 0.5 5.8 1.1c0.1 70.9-38.9 158.7-38.9 158.7z"/><path class="m" d="m741.7 839.2c0 0 15.7-1.6 23 0.2 0 0-4 6.3-10.3 6.2-6.4 0-11.2-2.4-12.7-6.4z"/><path class="k" d="m703.8 760.7l1 15.3c0 0 35.1-23.5 92.9-2l-0.8-22c-0.9-4.3-3.6-8.1-7.4-10.3-10.8-6.2-36.1-17.7-76.2 1.6-5.6 2.7-9.1 11.2-9.5 17.4z"/><path class="h" d="m725.4 878.2l-12 15.2 31.7 21.7 7.5-16.2z"/><path class="h" d="m780.4 878.2l-27.8 20.7 8 16.2 27.3-22.9z"/><path class="i" d="m751.7 934.7c0.9-0.9 2.3-0.9 3.1 0 0.9 0.9 0.9 2.2 0 3.1-0.8 0.9-2.2 0.9-3.1 0-0.8-0.9-0.8-2.2 0-3.1z"/><path class="i" d="m751.7 958.3c0.9-0.9 2.3-0.9 3.1 0 0.9 0.8 0.9 2.2 0 3.1-0.8 0.8-2.2 0.8-3.1 0-0.8-0.9-0.8-2.3 0-3.1z"/><path class="i" d="m751.7 982.5c0.9-0.8 2.3-0.8 3.1 0 0.9 0.9 0.9 2.3 0 3.1-0.8 0.9-2.2 0.9-3.1 0-0.8-0.8-0.8-2.2 0-3.1z"/><path class="k" d="m824.2 900.4c0 0 21.4 8.9 32.9 35.1 11.4 26.2 58.9 97.8 57.5 131.3-1.4 33.5-7.8 64-39.7 65-21.9 0.7-44.2-20.7-44.2-52.7 0-32.1-6.5-178.7-6.5-178.7z"/><path class="c" d="m892.2 1113c-0.9 9.1-4.3 16.4-12.3 18.4-25.6 6.4-36.9-18.3-31.6-42.5q0.3-1.2 0.7-2.3c5.4-17.7 25.1-20.4 32.3-20.8 1.7-0.1 2.7-0.1 2.7-0.1 0 0 0.2 0.4 0.4 1.2 1.9 5.4 9.4 28.9 7.8 46.1z"/><path class="b" d="m892.2 1113c0 0-74.6-33.5-104.1-72.1-2.2-2.8 3.4-6.3 3.4-6.3l89.8 31.2 3.1 1.1c1.9 5.4 9.4 28.9 7.8 46.1z"/><path class="n" d="m804.5 1166.3h-98.6v-129.9h98.6z"/><path class="o" d="m746.4 1128l-11.1 18.5 7-1 3 5.6 9.4-17.1z"/><path class="o" d="m761.1 1126.8l11.1 18.5-7-1-3 5.6-9.5-17z"/><path class="l" d="m742.5 1123.9c1.2-8.1 5.6-11.3 12.3-12.3 8.8-1.3 12.3 5.5 12.3 12.3 0 6.8-5.5 12.3-12.3 12.3-6.8 0-13.3-5.6-12.3-12.3z"/><path fill-rule="evenodd" class="o" d="m754.8 1133.7c-3 0-6-1.4-7.9-3.6-1.6-1.9-2.3-4.1-1.9-6.3 0.9-5.9 3.9-8.9 9.7-9.7q4.1-0.7 6.7 1.6c2 1.7 3.2 4.7 3.2 8.2 0 5.4-4.4 9.8-9.8 9.8zm1.6-18.6q-0.7 0-1.5 0.1c-5.4 0.8-8 3.4-8.8 8.8-0.3 1.8 0.3 3.8 1.7 5.3 1.7 2 4.3 3.2 7 3.2 4.8 0 8.7-3.9 8.7-8.6 0-3.2-1.1-5.8-2.8-7.4q-1.7-1.4-4.3-1.4z"/><path class="k" d="m768.9 1052.1h-27.4c-0.5 0-0.9-0.4-0.9-0.9 0-0.4 0.4-0.8 0.9-0.8h27.4c0.4 0 0.8 0.4 0.8 0.8 0 0.5-0.4 0.9-0.8 0.9z"/><path class="k" d="m774.2 1055.5h-38.1c-0.4 0-0.8-0.4-0.8-0.8 0-0.5 0.4-0.8 0.8-0.8h38.1c0.5 0 0.8 0.3 0.8 0.8 0 0.4-0.3 0.8-0.8 0.8z"/><path class="k" d="m783.3 1084.2h-56.2c-0.5 0-0.9-0.4-0.9-1 0-0.5 0.4-0.9 0.9-0.9h56.2c0.5 0 0.9 0.4 0.9 0.9 0 0.6-0.4 1-0.9 1z"/><path class="k" d="m783.3 1088.9h-56.2c-0.5 0-0.9-0.4-0.9-0.9 0-0.6 0.4-1 0.9-1h56.2c0.5 0 0.9 0.4 0.9 1 0 0.5-0.4 0.9-0.9 0.9z"/><path class="k" d="m783.3 1093h-56.2c-0.5 0-0.9-0.4-0.9-0.9 0-0.5 0.4-1 0.9-1h56.2c0.5 0 0.9 0.5 0.9 1 0 0.5-0.4 0.9-0.9 0.9z"/><path class="k" d="m783.3 1097.6h-56.2c-0.5 0-0.9-0.5-0.9-1 0-0.5 0.4-0.9 0.9-0.9h56.2c0.5 0 0.9 0.4 0.9 0.9 0 0.5-0.4 1-0.9 1z"/><path fill-rule="evenodd" class="k" d="m788.4 1124.9q-2.1 1.8-4.5 3.2c-0.6 0.4-1.3 0.7-1.9 1q0 0.1 0 0.1-0.5 1.5-1.1 2.9c0 0.2-0.3 0.3-0.5 0.2-0.6-0.4-0.8-1.2-0.6-1.9 0.2-0.8 0.9-1.3 1.6-1.7 0.2-0.5 0.3-1 0.4-1.5 0.1-0.4 0.2-0.7-0.1-1-0.2-0.1-0.4-0.2-0.6-0.3-0.2-0.1-0.5-0.3-0.6-0.5q-0.1 0-0.1 0c-0.3 0.1-0.6-0.1-0.8-0.3q-0.7 1.1-1.4 2.1 0.1 0.3 0.1 0.5c0.1 0.8-0.9 1.2-1.4 0.6-0.1-0.1-0.1-0.3 0-0.4q0.3-0.3 0.5-0.7-0.1-0.1-0.3-0.2-0.1-0.1-0.2-0.2 0 0 0 0 0.1 0.1 0 0.2c-0.3 1.4-0.9 3.3-2.4 3.7-1.6 0.4-2.1-1.2-2.2-2.5-0.1-1.5-0.4-3.5 0.4-5 0.2-0.4 0.7-0.8 1.2-0.5 0.5 0.3 0.3 1.4 0.3 1.9-0.1 0.5-0.8 0.4-0.7 0 0-0.3 0.1-0.7 0-0.9-0.1-0.5-0.3-0.1-0.4 0.2-0.1 0.5-0.2 1-0.2 1.5 0 1 0 2.1 0.1 3.1 0.1 0.4 0.1 1 0.4 1.3 0.5 0.5 1.3 0.2 1.7-0.3 0.5-0.5 0.8-1.2 1-1.9-0.2-0.1-0.3-0.3-0.1-0.5q0.3-0.5 0.5-0.9-0.2-0.3-0.2-0.7c-0.1-0.7 0.2-1.3 0.9-1.6 0.2-0.1 0.5 0.1 0.5 0.3q-0.1 1-0.4 1.9 0.2 0.2 0.4 0.4 0 0.1 0.1 0.2 0.7-1.1 1.4-2.2-0.1-0.1-0.1-0.2c-0.2-0.6-0.3-1.4 0.1-1.9 0.4-0.5 1-0.6 1.5-0.2 0.1 0.1 0.2 0.2 0.2 0.4q-0.5 0.9-1 1.9 0.1 0.1 0.2 0.1 0.1-0.1 0.1-0.2c0.2-0.5 0.9-0.6 1.1-0.1 0.1 0.3 0 0.6-0.2 0.8q0.2 0.1 0.4 0.2c0.5 0.3 1.1 0.6 1.1 1.3 0 0.5-0.1 1-0.3 1.6 2-1.2 3.9-2.4 5.7-3.9 0.3-0.2 0.8 0.3 0.4 0.6zm-8.8-1.3q0.3-0.5 0.5-0.9c-0.3-0.1-0.5 0.5-0.5 0.7q0 0.1 0 0.2zm1.5 6.1c-0.5 0.5-0.9 1.2-0.6 1.7q0.3-0.8 0.6-1.7z"/><path fill-rule="evenodd" class="k" d="m800.6 1162.6h-90.1v-121.7h90.1zm-89.1-1h88v-119.6h-88z"/><path class="b" d="m769.7 1026.5c0 0-18.1 15.6-11.6 18 6.5 2.3 24.1-8.1 27.5-8.1 3.5 0 11.4 0 11.4 0 0 0-11.2-12.9-17.2-12.6-5.9 0.3-10.1 2.7-10.1 2.7z"/><path class="c" d="m666.3 998.9l-22.9 183.4q-2.7-0.5-5.6-1.3l-26.1-10.1h-0.1c0 0 8.1-8.3 19-37.2 10.9-28.9 35.7-134.8 35.7-134.8z"/><path class="b" d="m1231.7 1205.9c0 0 9.7 20.8 9.2 26.5-0.6 5.7-9.2 23.7-9.2 23.7l-10.3-47.8z"/><path class="b" d="m1224.2 1116.5l7.5 89.4-10.3 2.4-27.5-81.1z"/><path class="c" d="m1000.6 829.2l103.3-61 70.9 49.7-98.3 57.3z"/><path class="g" d="m1053.6 857.3c0 0-2.6 15-17 22.7-14.5 7.8-26.9 10-23.8 34.9 3.1 25-13.9 30.6-17 47.1-3.1 16.6-2.7 46.7 38.7 37.7 41.4-9 136.2-2.6 146.5-16 10.3-13.4 3.1-41.3-14.4-62.4-17.6-21.2 5.6-35-2.6-53.6-8.3-18.6-24.1-37.8-24.1-37.8 0 0-68.1-12.9-86.3 27.4z"/><path class="b" d="m1073.2 1543.4l14 58.8 20.9-0.1 0.8-58.7z"/><path class="b" d="m1249.3 1545.9l39.7 56.3 15.5-19.9-23.9-44.2z"/><path class="b" d="m1128.2 950.3c0.1 0.1-2.6 65.5-13.8 65.7-2.3 0-19.7-45.9-21.9-46.5-12-3.2-13.7-32.6-13.5-32.6 5.1-1.1 6.5-8 6.4-38l2.3 0.4 38.6 7.7c0 0-0.8 12.1-0.9 23.6 0 9.6 0.6 18.7 2.8 19.7z"/><path class="d" d="m972.2 884.7l-1.3-2.7c28.1-13.4 29.6-45 29.6-52.3 0-0.9 0.5-1.7 1.4-2.1 0.8-0.4 1.8 0.2 1.8 1.2-0.1 8.5-2.2 41.9-31.5 55.9z"/><path class="e" d="m970.9 882l-3.9 0.6 2.2 4.6 3-2.5z"/><path class="d" d="m967 882.6c0 0-5.2 2.4-6.6 1.1 0 0 0.6 4.6 2.7 5.5 0 0 4.4-0.6 6.1-2z"/><path class="p" d="m1126.3 907c0 0-0.8 12.1-0.9 23.6-21.6-0.6-33-20.4-37.7-31.3z"/><path class="g" d="m1079.8 900.7c0 0-14.7-15.3-20.4-29.8-4-10.3-6.6-51.1 34.5-53.4 0 0 11.8-1.2 24.2 3.9 9.8 4.1 24.8 14.2 17.8 51.7l-1.2 12.4z"/><path class="q" d="m1300.8 1569.5c0 0-10.3 1.7-18.7 2.4-1.9 0.1-3.7 0.2-5.2 0.2-4.1 0-11.4-1.5-16.3-2.7l-0.4-0.1c-2.1-0.5-3.8-0.9-4.4-1l-0.2-0.1c0 0-51.2-57-79.9-148.3q-1-3.2-2.2-6.5c-15.7-45.8-48.3-103.3-65.4-155.4q-4.1-12.4-7.4-23.5-1.1-3.5-2-6.9c-12.7-44-16.4-72.9-19.7-103.7l103.2 26.3c0 0 43.3 187.8 118.6 419.3z"/><path class="b" d="m1133.1 913.1c0 0-50 10.9-56.3-20.3-6.3-31.2-17-50.8 14.6-59.1 31.6-8.3 40.3 2.3 44.9 12.2 4.7 9.9 9.6 63.5-3.2 67.2z"/><path class="g" d="m1114.1 828.3c0 0-6.4 39.4-26.3 49-20 9.7-30.3 5.9-30.3 5.9 0 0 13.6-16.1 12.4-39.2 0 0 30.3-31.1 44.2-15.7z"/><path class="g" d="m1111.3 831.9c0 0 11.9 6.2 16 13.6 4.1 7.5 12.6 10.1 13.2 22.1 0 0 5.3-27-9.2-38.8-15.3-12.4-20 3.1-20 3.1z"/><path class="b" d="m1086.5 1598.9c0 0 1.7 11.7-2.7 24.2 0 0-3.4 15.6 12 15.9 15.3 0.3 19.1-1.2 17.4-10.8-1.8-9.5-5.1-26.1-5.1-26.1z"/><path class="r" d="m1083.8 1623.1c0 0-2.8 14.7-1.1 22.5 0 0 4.6 3.5 15.8 3.5 10.6 0 16.1-3.5 16.1-3.5 0 0 0.3-16.1-2.5-22.9 0 0-10.9 16.3-28.3 0.4z"/><path class="b" d="m1341.5 1629.8c0 0-28.3-31.5-37-47.5l-21.1 10.8 47.1 44.3 11.1-1.5z"/><path class="r" d="m1359.6 1648.2c0 0-30.5 0-35.7-0.5-5.2-0.6-9.4-8.2-15.1-19.5-2.3-4.6-7.5-7.2-12.8-8.6v26.2h-8.1l-7.6-27.8c-5-9.2-0.4-17.6 3.1-24.9 4.1 0 15.2 2.8 36.1 26.4 6.9 7.8 14.5 10.5 22 10.3q0.2 0.1 0.4 0.2c17.4 7.8 17.7 18.2 17.7 18.2z"/><path class="s" d="m1282.1 1571.9c-1.9 0.1-3.7 0.2-5.2 0.2-4.1 0-11.4-1.5-16.3-2.7l-0.4-0.1-4.4-1-0.2-0.1c0 0-51.2-57-79.9-148.3q-1-3.2-2.2-6.5c-15.7-45.8-48.3-103.3-65.4-155.4q-4.1-12.4-7.4-23.5-1.1-3.5-2-6.9l18.2-13.9c0 0 54.8 88.7 71.8 172.3 14 69.2 74.6 158.9 93.4 185.9z"/><path class="q" d="m1118.8 1393.7c0.3 40.7-1.7 134-7 172.7 0 0-5 4.4-17.5 4.5-12.7 0-18.4-4.7-18.4-4.7-13.3-67.2-22.7-122.8-29.6-170.7-5.6-39.3-10.6-73.1-14.5-102.1-3.4-25.7 18.2-95.4 18.2-95.4l81-7.9c-1.4 71.2-12.4 180-12.2 203.6z"/><path class="s" d="m1094.3 1570.9c-10.8 0.6-18.4-4.7-18.4-4.7-13.3-67.2-22.7-122.8-29.6-170.7-5.6-39.3-10.6-73.1-14.5-102.1-3.4-25.7 18.2-95.4 18.2-95.4l27.4 17.6c0 0-38.9 35.4-29.3 102.4 9.5 67 32.9 243.4 46.2 252.9z"/><path class="k" d="m1221.9 1141.9c-5 1.7-10.7 2.7-16.4 3.6-8.9 1.3-17.7 2.1-23.3 4.7-16.6 7.5-56.7-214.2-56.7-214.2 0 0 29.2 0.3 42.6 21.4 13.4 21.2 65.6 125.6 70.3 159.1 2.1 15-5.7 21.8-16.5 25.4z"/><path class="k" d="m1282.1 1440.9c0 0-2.7 6.7-10.1 16.1-3.6 4.7-8.5 10.1-14.7 15.6-16.4 14.5-42.6 30.2-83 38q-3.2 0.7-6.5 1.2c-12.2 2-23.9 3.5-35.1 4.5-22.6 1.9-43 2-60.3 1.2-11.9-0.5-22.3-1.5-31.1-2.6-19.8-2.4-31.1-5.5-31.1-5.5 0 0 0-200.3 16.6-319.3 9.1-65.8 39.8-253.2 39.8-253.2l15.2-2.3 36.5 81.4 7.2-80 16.6 5.3c8.2 2.6 14.4 9.3 16.5 17.6z"/><path class="l" d="m1164.3 1133.2l-84.8-8.6 13.8-122.8 84.8 8.6z"/><path class="t" d="m1093.3 1001.8l-5.5-0.4-12.7 122.7 4.4 0.5z"/><path class="b" d="m1022.2 1065.1c0 0 59.5 18.2 116.4 26.3 0 0 18.7 8.1 9.9 10.3-2.2 0.6-116.1 25.4-133 9.3z"/><path class="k" d="m1081.6 934.6c0 0-44.5 5.3-52 14.3-23.7 28.5-45.2 149.9-26.6 177.9 22.2 33.5 56.4-19.1 67.1-50 5.5-16.1 14.6-113.1 11.5-142.2z"/><path class="b" d="m1133 1090.6c0 0 7-0.7 8.3-2.9 2.6-4.5 6.8-4.4 10.3-5 3.5-0.6 7.5-4.4 8.2-3.7 0.7 0.8-2.6 5-4.4 6.6 0 0 3.7 0.2 6.2-1 2.5-1.1 11.2-11.1 11.2-6.8 0.1 10.3-0.7 12-9.5 19.2-7.3 6-31.9 8.3-31.9 8.3z"/><path class="c" d="m1081.5 1062.4l-1.7 17.4c-2.8-0.6-6-1.5-9.7-3-24.4-9.8-14.8-58.3-14.8-58.3 3.8 19.4 16.1 34.4 26.2 43.9z"/><path class="k" d="m1139.9 829.9c0 0-36.1-13.7-86.3 27.4l1.1-9.4c0.9-8.4 5.2-16.1 12-21.1 7.6-5.7 19.8-11.9 38.1-14.5 12.6-1.8 25.1 3.6 32.5 13.9z"/><path class="c" d="m1221.9 1141.9c-5 1.7-10.7 2.7-16.4 3.6l-23.4-103.4c0 0 39.4 79.4 39.8 99.8z"/><path class="h" d="m1115.2 895.9c0 0 2.3 4.5 5.7 4.5 3.4 0 12-0.9 12.6-1.6 0.6-0.8 2.3-5.5 2.3-5.5 0 0-14.2-0.3-20.6 2.6z"/><path class="b" d="m2277 1027.4c0 0-3.7-5.3-8-8.6-4.3-3.2-8.8-9.4-7.4-11.4 1.3-2 14.1-11.4 14.1-11.4l6.8 16.9z"/><path class="c" d="m2387.5 830.4l111.5-44.2 62.4 60.1-106 41.4z"/><path class="b" d="m2326.7 1068.7l-44.4-57.1-5.3 15.8c0 0 45.5 103.4 66.3 93.8 9.7-4.5-16.6-52.5-16.6-52.5z"/><path class="u" d="m2465.5 882.7c0 0-21.7 12.8-8.4 37.5 0 0-19-3.5-23.1-9.2 0 0 0.5 2.4 1.2 3.6 0 0-22.2-2.8-26.3-11.1-8.5-17.1 12-16 20.9-33.8 11.6-23.1 29.7-41.3 55.4-28.6 0 0 35.9-1.9 19.7 44.1-16.2 46-0.9 50.1-0.9 50.1 0 0-4.8 1-6.9 0.4 0 0-2.7-1.9-2.8-3.8 0 0-0.1 2.8 0.4 3.9 0 0-17-2.9-23.6-11.3-6.6-8.4-10.6-32.7-5.6-41.8z"/><path class="b" d="m2434.2 956.8q0 0-0.1 0-0.2 0 0.1 0z"/><path class="b" d="m2486.8 941.6c0.7 5.7 1.4 10.8 1.8 13.3 0.2 1.7 4.2 32.8-3.1 33.2-7.2 0.3-25.1 37.1-33.1 36.8-9-0.3-17-68.1-18.2-68.1 2.3-1 9.3-23.3 11.6-31.8 2.7-10.4 4.8-21.5 4.8-21.5l36.6 2.3 2.2 0.1c-1.4 5-2.4 9.7-3 14.1q-0.1 0.9-0.3 1.8c-0.6 4.8 0 12.8 0.7 19.8z"/><path class="u" d="m2445.5 899.8c0 0-5.9-18.8-4.7-33.3 0.8-10.3 17.3-39.5 52.5-24.5 0 0 8.7-2.1 16.9 7.3 6.5 7.5 14.9 22.1-6.3 50.6l-6.2 9.8z"/><path class="v" d="m2486.8 941.6c-25.6-7.5-36.4-37.1-36.4-37.1 10.8 0.3 24.9 7.9 36 15.5q-0.1 0.9-0.3 1.8c-0.6 4.8 0 12.8 0.7 19.8z"/><path class="b" d="m2488.7 931.2c0 0-46.3-11.4-38.7-40.1 7.5-28.7 6.6-49.5 36.5-43.4 29.9 6 32.7 18.5 32.5 28.7-0.2 10.2-18.1 57.1-30.3 54.8z"/><path class="u" d="m2507.7 852.5c0 0-21.6 30.3-42.2 30.2-20.7-0.2-27.7-7.6-27.7-7.6 0 0 17.9-7.8 26.5-27.6 0 0 38.1-13.5 43.4 5z"/><path class="u" d="m2503.8 854.4c0 0 7.5 10 7.8 17.9 0.4 8-2.6 23.3 1.9 23.9 0 0 15.6-20.3 8.4-36.1-7.7-16.7-18.1-5.7-18.1-5.7z"/><path class="u" d="m2505.3 856c0 0-18.3 32.9-45.8 37.7 0 0 30.2-15.2 38.4-37.9 8.3-22.7 7.4 0.2 7.4 0.2z"/><path class="h" d="m2481.4 912.8c0 0 0.6 4.4 3.4 5.4 2.8 1.1 10.2 2.9 10.9 2.5 0.8-0.5 3.6-3.9 3.6-3.9 0 0-11.7-4.5-17.9-4z"/><path class="b" d="m2464.2 1351.9q-0.9 3.7-1.8 7.3c-3.5 14.5-6.7 27.9-8.8 39.2-2.6 14.6-3.3 25.5 0.2 30.1 9 11.8 6.7 74.9 3.8 120.4-1.8 27.1-3.8 47.9-3.8 47.9l-16.3 16.9c0 0-5.2-26.9-11.7-59.5-8.8-43.8-20-98-24.5-111.3-3.5-10.5-8.6-55.4-13.1-101.2q-0.3-3.5-0.7-6.9c-0.7-8-1.5-16-2.2-23.8-4.1-43.4 1.8-84.2 1.8-84.2 0 0 21.3-17.5 48.7-19.9 16.1-1.4 31.3 3.7 38.8 23.6 10.9 28.8-0.2 78.6-10.4 121.4z"/><path class="v" d="m2464.2 1351.9c-22.4-16.2-54-45-65.4-92.2-2.2-23.5 16.3-45.8 37-52.8 16.1-1.4 31.3 3.7 38.8 23.6 10.9 28.8-0.2 78.6-10.4 121.4z"/><path class="b" d="m2545.9 1066.8l110.1 28.4v12.9c0 0-109.6-1.3-116.7-13.5-7-12.2 6.6-27.8 6.6-27.8z"/><path class="b" d="m2656 1490.6l-5.2 21.2c0 0-22.7-11.7-51.6-26.9-45-23.7-104.8-55.8-116.6-64.8-7.7-5.9-17.9-38.2-27.4-74.6-14.1-54.4-26.6-118.1-26.6-118.1 0 0 20.9-80.3 76.8-31.2 33.5 29.4 28.3 86.1 24.6 130.2-2.4 29.6-4.2 53.5 6.9 59.7 15.9 8.9 54.5 41.3 81.8 73.1 9.8 11.4 18.1 22.7 23.4 32.8z"/><path class="b" d="m2656 1095.2c0 0 20.2-9.9 28.2-10.9 8-0.9 21.5-1.3 21.5 0 0 1.3-14.4 10.3-18.3 10.9-3.8 0.7-11.2 6.1-9 6.8 2.3 0.6 14.2-2.1 14.3 0 0.2 2.1-7.2 3.4-8.5 5-1.3 1.6-5.8 3.5-13 2.5-7.2-0.9-15.2-1.4-15.2-1.4z"/><path class="k" d="m2656 1398c-71.1 102.3-254.6 113.8-254.6 113.8-29.7-108.7-17.5-383.5-10.7-485.7-0.4-17.8 0.3-32.9 3.2-38.7 4.5-9.1 29.3-24.8 38.2-32.5 0 0 2.1-0.9 3.9-1 1.3 4.7 17.8 60.8 19.5 59.6 1.6-1.2 29.5-54.5 32.4-60.8 3 0.1 5.1 0.2 5.7 0.2 4.9 0.3 31.4 5.6 33.6 9.9 0.8 1.5 8.4 21.6 18 48.4q0 0 0 0c17.9 50.2 44.2 40.7 54.7 55.6 6.6 9.3 3.7 26.7-8.4 41.8q-1.6 1.9-3.3 3.7c-9.3 9.8-21.9 15.6-42.3 12.6-5.1-0.7-15.4-5.6-23.8-12.9 20.1 75.6 133.9 286 133.9 286z"/><path class="w" d="m2437.2 951.3l-9.6 5.5c0 0 26.3 74.3 27.6 74 1.3-0.3 40.7-77.6 40.7-77.6l-8-3.4-32.4 63.7z"/><path class="k" d="m2519.2 855.4c0 0-33.7-18.9-89.4 14.3l2.4-9.1c2.1-8.2 7.6-15.1 15-19.1 8.4-4.4 21.4-8.8 39.8-8.7 12.7 0.1 24.3 7.3 30.1 18.6z"/><path class="d" d="m2351.3 879.6l-0.9-2.8c29.9-8.8 36.3-39.8 37.4-47 0.1-1 0.8-1.7 1.7-1.9 0.9-0.3 1.7 0.5 1.6 1.4-1.4 8.4-8.7 41.1-39.8 50.3z"/><path class="e" d="m2350.4 876.8h-3.9l1.5 4.8 3.3-2z"/><path class="d" d="m2346.5 876.8c0 0-5.5 1.6-6.7 0 0 0-0.1 4.7 1.8 5.9 0 0 4.5 0.1 6.4-1.1z"/><path class="h" d="m2439.2 958c0 0 8.8 16.1 43.8 1.4l-27.5 54.1z"/><path class="k" d="m2427.6 956.8c0 0-4.6 153.9-42.6 183.7-2.6 2.1-5.5 3.6-8.5 4.4-19.2 4.9-33.1-6.6-42.5-22.4-13.2-22-17.6-52.5-15.4-59.5 4.3-13.4 14 10.3 34.5 3.8 20.5-6.5 26-89 40.3-101 3.7-3.1 34.2-9 34.2-9z"/><path class="d" d="m2242.3 1066.3c0 0-5.7-3.1-11.1-7.1-2.5-1.8-5-3.8-6.8-5.8-1-1.2-1.8-2.3-2.3-3.4 0 0 46.3-55.7 50-62.3 3.7-6.6 38.7-60.7 38.7-60.7 0 0 4.2 2 9.4 5.4 1.9 1.2 3.9 2.6 5.9 4.2 3.6 2.9 7 6.3 9.1 10 0 0-50.9 51.6-54.5 59-3.6 7.5-38.4 60.7-38.4 60.7z"/><path class="x" d="m2231.2 1059.2c-2.5-1.8-5-3.8-6.8-5.8-1-1.2-1.8-2.3-2.3-3.4 0 0 46.3-55.7 50-62.3 3.7-6.6 38.7-60.7 38.7-60.7 0 0 4.2 2 9.4 5.4 1.9 1.2 3.9 2.6 5.9 4.2-14.3 14.6-52.9 54.3-56.2 61.2-3.2 6.6-28.3 45.4-38.7 61.4z"/><path class="u" d="m2278.8 976.8c0 0-13.6 13.3-15.2 22.3l14.3 11.5c0 0 12.5-12.3 16.5-21.3z"/><path class="b" d="m2282.3 1011.6c0 0 1-9-1.1-12.1-2.1-3.2-2.3-11.9-4.2-11-1.9 0.9-0.7 8.1-1.9 11.5-1.2 3.5-3 19.6 1.9 22.6 4.9 3.1 5.3-11 5.3-11z"/><path class="b" d="m2268.4 989c0 0-5.7-0.8-7.7 2.9-2.1 3.8-4.7 10-0.8 12.4 3.9 2.4 8.5-15.3 8.5-15.3z"/><path class="h" d="m2457.6 1548.9c-1.8 27.1-3.8 47.9-3.8 47.9l-16.3 16.9c0 0-5.2-26.9-11.7-59.5 0 0 18.3 6.4 31.8-5.3z"/><path class="c" d="m2470.3 1621.1l-8.9 4.8c-3.2 1.2-5.8 1.5-9.1 2.7-4.9 1.9-8.4 5.6-8.5 6.3-2.5 10.1-6 9.5-6 9.5l-35.5 0.3c-1.7-0.8 1.2-8 2.5-9.3 3.4-3.3 13.4-1.7 17.1-12 2-5.9 12.2-24 12.2-24l0.1-0.1c0.3-0.1 2.2-0.5 12.4 1.6 5.3 1.1 7.5-9.6 7.5-9.6 0 0 1.7 0.3 3.6 1.6 1.4 1.1 3 2.7 3.9 5.3 1.2 3.7 6.4 9 10.2 12.5 2.3 2.1 4 3.5 4 3.5 0 0 1.5 1.9-5.5 6.9z"/><path class="h" d="m2656 1490.6l-5.2 21.2c0 0-22.7-11.7-51.6-26.9 11.2-7.1 16.8-17.7 19.5-25.7 9.8 11.4 18.1 22.7 23.4 32.8z"/><path class="c" d="m2685.4 1498.8q0 0-0.1 0c-0.7-0.2-3.8-1.2-5.8-6.1-1.3-3.2-1.7-5.8-2.9-9l-5.1-8.7c-5.2-6.9-7.1-5.3-7.1-5.3 0 0-1.4 1.8-3.4 4.1-3.3 3.9-8.5 9.2-12.1 10.6-2.6 1-4.2 2.6-5.2 4.1-1.3 1.8-1.6 3.5-1.6 3.5 0 0 10.8 1.9 9.9 7.2-1.9 10.3-1.4 12.2-1.2 12.5v0.1c0 0 18.4 9.7 24.3 11.5 10.5 3.4 16 10.5 19.4 13.8 1.4 1.3 3.3 1.9 5.1 1.6 2.8-0.4 6.4-1.3 7.2-3z"/><path class="c" d="m2448.2 1061c0-3 2.4-5.3 5.3-5.3 3 0 5.3 2.3 5.3 5.3 0 2.9-2.3 5.3-5.3 5.3-2.9 0-5.3-2.4-5.3-5.3z"/><path class="c" d="m2448.2 1100.5c0-3 2.4-5.4 5.3-5.4 3 0 5.3 2.4 5.3 5.4 0 2.9-2.3 5.3-5.3 5.3-2.9 0-5.3-2.4-5.3-5.3z"/><path class="c" d="m2591.5 1108.6q-1.6 1.9-3.3 3.7c-9.3 9.8-21.9 15.6-42.3 12.6-5.1-0.7-15.4-5.6-23.8-12.9 0 0-16.9-46.1-14.6-52.6 2.3-6.5 34.8 44 61.7 46.4 10.6 0.9 17.7 1.8 22.3 2.8z"/><path class="c" d="m2393.1 1072.7l-8.1 67.8c-2.6 2.1-5.5 3.6-8.5 4.4-19.2 4.9-33.1-6.6-42.5-22.4 9.8 1.4 33.6 3.5 38.8-6.9 6.6-13.1 20.3-42.9 20.3-42.9z"/><path class="y" d="m1927.6 703.5c0 0 9.5-8.6 11.8-14.6 2.4-6.1 2.1-16.2 2.1-22.8 0 0-2.9-1-3.6 2.1-0.7 3.2-2 10.4-4.6 11.9-2.7 1.4-8.6 1.3-10 8.8-1.4 7.5 4.3 14.6 4.3 14.6z"/><path class="y" d="m1905.7 705c0 0-8.7-17.8-6.9-23.6 1.7-5.8 28.4-12.1 31.9-9.4 3.6 2.7 0 36 0 36z"/><path class="y" d="m2186.6 1240.9c0 0-1.3 14.6 3.9 21.7 5.1 7 7.8 13.4 9.5 10.2 1.7-3.2-2.7-14.3-1.2-14.1 1.4 0.3 5.6 13.2 7.7 17.3 2 4 6.5 10.4 9.5 7.2 3-3.2-2.8-33.4-5.1-37.2-2.4-3.9-7.3-12.4-7.3-12.4z"/><path class="c" d="m2003.1 798.2l101.6-57.1 68.2 84.6-93 45.1z"/><path class="u" d="m2045.7 825.2c0 0-2.1 9.1-8.1 12.3-5.9 3.3 3.5 12 1.1 18.5-2.3 6.5 7.1 14.8 7.1 14.8l65.7 7.5c0 0 9.6-4.1 10.4-15.4 0.9-11.3 1.9-25.4 1.9-25.4l-28.7-21.9-41.3 2z"/><path class="d" d="m1825.2 715.7c0 0-3-7.1-5.1-14.8-1-3.6-1.8-7.3-2-10.5-0.1-1.8 0-3.5 0.3-4.9 0 0 84.6-17.4 92.9-20.8 8.3-3.4 81.1-27.8 81.1-27.8 0 0 2.5 5.1 4.8 12 0.9 2.6 1.7 5.4 2.4 8.3 1.2 5.4 1.8 11.2 1 16.1 0 0-85.7 10.2-94.6 14.5-8.9 4.2-80.8 27.9-80.8 27.9z"/><path class="x" d="m1820.1 700.9c-1-3.6-1.8-7.3-2-10.5-0.1-1.8 0-3.5 0.3-4.9 0 0 84.6-17.4 92.9-20.8 8.3-3.4 81.1-27.8 81.1-27.8 0 0 2.5 5.1 4.8 12 0.9 2.6 1.7 5.4 2.4 8.3-24.2 3-89.7 11.3-97.8 15.2-7.9 3.8-60.1 21.3-81.7 28.5z"/><path class="u" d="m1925.7 659.6c0 0-22.6 2.1-30.8 9.4l4.8 21.3c0 0 20.8-2.1 31.2-7.6z"/><path class="c" d="m1946.2 1644.7c0 0 0-13.6 2-18.1 1.9-4.5 9-22.9 9-22.9h27.7c0 0 5.2 16.8 5.5 22.3 0.4 5.4 0 18.7 0 18.7z"/><path class="c" d="m2122.4 1644.7c0 0 0-13.6-1.9-18.1-1.9-4.5-9-22.9-9-22.9h-27.8c0 0-5.2 16.8-5.5 22.3-0.3 5.4 0 18.7 0 18.7z"/><path class="y" d="m2053 879.9c0 0-5.6 29.8-11.4 42.6l-33.6 16.4 47 92.8 64.4-58.2-21.4-41.7c0 0-2-41.4 4.5-55.5 6.6-14.2-49.5 3.6-49.5 3.6z"/><path class="z" d="m2052.2 884c0 0 5.7 23.1 22.7 25.2 17.1 2.2 23.9-16.4 23.9-16.4z"/><path class="y" d="m2074.3 900.5c-12.3-2.1-32.4-21.9-29.3-42.2l4.9-31.7c1.1-7.4 7.2-12.7 13.5-11.7l47 7.2c6.3 1 10.5 7.9 9.4 15.3l-4.6 29.8c-3.3 21.3-26.8 35.8-40.9 33.3z"/><path class="w" d="m1949.7 1174.2c-0.1-3.7 4.8 147.2-2.4 232.9-7.1 84.6 0 202.3 0 202.3 0 0 23.3 12.8 48.4 0 0 0 27.6-163.4 27.5-202.3-0.2-41.5 30-226.4 30-226.4z"/><path class="w" d="m2121.4 1609.4c0 0-23.2 12.8-48.4 0 0 0-27.6-163.4-27.4-202.3 0.1-17.5-5.3-60.6-11.5-104.6-8.4-60.1-18.5-121.8-18.5-121.8l107.5-6.8c0 0-8.9 148.6-1.6 233.2 7.2 84.6-0.1 202.3-0.1 202.3z"/><path fill-rule="evenodd" class="A" d="m2064.2 860.4c-4.6-0.7-13.6-3.1-14-11.3-0.1-2.5 0.7-4.6 2.3-6 1.8-1.6 4.4-2.3 7.2-1.8l14 2.1q4.1 0.6 5.3 3.2c1.3 2.8-0.6 6.4-1.5 7.9-3 4.9-6.4 6.8-10.7 6.2-0.2 0-1.2-0.1-2.6-0.3zm-4.7-18.2c-2.5-0.4-4.8 0.2-6.4 1.6-1.3 1.2-2 3-1.9 5.2 0.2 4.2 2.8 7.3 7.9 9.2 3.9 1.4 7.7 1.6 7.8 1.6 3.9 0.6 7-1.3 9.8-5.8 0.6-1 2.6-4.6 1.4-7q-1-2.1-4.5-2.6z"/><path fill-rule="evenodd" class="A" d="m2096.7 865.4c-1.4-0.2-2.4-0.4-2.5-0.5-4.3-0.7-7-3.6-8.4-9.2-0.4-1.6-1.1-5.6 1-7.9q1.9-2.1 5.9-1.5l14.1 2.2c2.8 0.4 5.1 1.9 6.3 3.9 1.1 1.8 1.2 4.1 0.4 6.4-2.9 7.7-12.2 7.3-16.8 6.6zm-4.1-18.1q-3.5-0.6-5.1 1.1c-1.8 2-1 6-0.7 7.1 1.2 5.2 3.7 7.9 7.5 8.5h0.1c0 0 3.8 1 7.9 0.8 5.4-0.2 8.8-2.4 10.3-6.3 0.7-2.1 0.6-4-0.3-5.6-1.1-1.8-3.1-3.1-5.6-3.5z"/><path class="A" d="m2077.2 850.6c-0.2 0-0.4-0.2-0.5-0.4 0-0.3 0.1-0.6 0.4-0.7 0.3 0 6.2-1.7 10.7 1.7 0.2 0.2 0.3 0.5 0.1 0.8-0.2 0.2-0.5 0.3-0.8 0.1-4.1-3-9.6-1.5-9.7-1.5q-0.1 0-0.2 0z"/><path class="h" d="m2064.8 938.9l-31.8-13.8c0 0-16.4 130.6 5.5 138.7 0 0 62.6-111.1 58.3-125.4z"/><path class="i" d="m2044.7 916.8c0 0-9 1.6-13.7 6 0 0 6.9 22.2 24.9 28.8l7.8-12.7c0 0-14.7-7-19-22.1z"/><path class="i" d="m2063.7 938.9c0 0 29.6-1.2 34-15.4 0 0 5.9 6.1 5.7 16.1 0 0-9.4 14.2-32.8 14.4z"/><path class="m" d="m2066.2 878.3c0 0 15.7 0.7 22.7 3.5 0 0-4.8 5.7-11.1 4.8-6.3-1-10.7-4-11.6-8.3z"/><path class="y" d="m1954.7 832c-14.3 9-33.8 21.2-49.7 30.8q-1.2-4.1-1.7-7.3c-5.3-33.6 2.4-150.5 2.4-150.5 0 0 5.3-2.7 10.8-3.1 10.3-0.9 14.2 6.1 14.2 6.1 0 0 18.1 102.8 24 124z"/><path class="k" d="m2207.6 1238.5l-10.8 4.5c-17.2 6.1-35.8-2.2-41.4-19.6-7.6-23.4-8.4-48.6-11.2-69.4-1.4-10.2-3-31.3-9.2-47.7q0-0.1 0-0.1l10.8 363.4c-162.1 11.5-241.2-81.8-241.2-81.8-4.2-98.3 35.1-319.9 49.4-396.7-6.9-15.7-56-60.4-64.2-104.4-3.8-20.4 8.2-34.9 22.6-44.6 18.3-12.3 40.6-17.2 40.6-17.2l52.4 70.1c2.2 2.5 3.8 4.5 4.4 5.7 4 8.3 25 21.9 25 21.9-0.1 0.5 2.3 118.1 6.5 121.9 6.2-2.3 47.6-85.1 56.7-112.7 13.2 3.6 27.4 8.5 42.4 15.1 0 0 28.3 15.2 32.4 81.2 3.4 56 37.6 127.4 45.3 192.4 1 7.7-3.4 15-10.5 18z"/><path class="u" d="m2028.9 918.6c0 0 3.9 114.1 8.7 142.6l72.8-125.7-10-3.7-57.5 104.2-5.7-113.4z"/><path class="h" d="m2044.7 914.1c0 0-9 1.6-13.7 6 0 0 6.9 22.2 24.9 28.8l7.8-10c0 0-14.7-9.7-19-24.8z"/><path class="h" d="m2063.7 938.9c0 0 29.6-3.9 34-18.1 0 0 5.9 6.2 5.7 16.2 0 0-9.4 14.1-32.8 14.3z"/><path class="c" d="m2020.3 1073.4c0-2.9 2.4-5.3 5.4-5.3 2.9 0 5.3 2.4 5.3 5.3 0 3-2.4 5.4-5.3 5.4-3 0-5.4-2.4-5.4-5.4z"/><path class="c" d="m2010.2 1121.8c0-2.9 2.4-5.3 5.4-5.3 2.9 0 5.3 2.4 5.3 5.3 0 3-2.4 5.4-5.3 5.4-3 0-5.4-2.4-5.4-5.4z"/><path class="d" d="m2010.4 851.8l1.8-1.7c-18-19-9.6-44.3-7.4-50 0.3-0.7 0.1-1.5-0.4-2.1-0.6-0.6-1.6-0.4-1.8 0.4-2.6 6.7-11 33.6 7.8 53.4z"/><path class="e" d="m2012.2 850.1l2.9 1.6-3.1 2.9-1.6-2.8z"/><path class="d" d="m2015.1 851.7c0 0 3.3 3.5 4.8 2.8 0 0-1.8 3.5-3.8 3.5 0 0-3.2-1.7-4.1-3.4z"/><path class="u" d="m2047.4 832c0 0 12.6 0.9 16.3-5.5 0 0 10.2 2.6 14.8-1.3 0 0 15.8 3.2 16.2-3.2 0 0 12.1 24.2 25.3 19.1 13.2-5-21.2-29.5-21.2-29.5l-45 6z"/><path class="k" d="m2048.3 813.9l-2.6 11.3c0 0 35.2-12.5 78.1 12.3l-0.5-18.1c-0.1-3.5-1.7-6.8-4.5-9-7.7-6.4-26.3-19-60.6-9-4.8 1.4-8.8 7.7-9.9 12.5z"/><path class="y" d="m1894.7 675.6c-0.1-0.7-2.4-5.6 0.7-10 3.2-4.5 24-11.4 26-7.8 1.9 3.7 0.7 16.3-6 19-6.7 2.8-20.2 1.6-20.7-1.2z"/><path class="c" d="m1954 991.1c-6.9-15.7-56-60.4-64.2-104.4-3.8-20.4 8.2-34.9 22.6-44.6 0 0-6.7 30.8 12.5 58.7 19.3 27.9 29.1 90.3 29.1 90.3z"/><path class="c" d="m2196.8 1243c-17.2 6.1-35.8-2.2-41.4-19.6-7.6-23.4-8.4-48.6-11.2-69.4-1.4-10.2-3-31.3-9.2-47.7 0.6 0.9 19.3 30.4 36 78.1 17 48.5 11.7 55.6 25.8 58.6z"/><path class="B" d="m2855 1643.9h-91.5c-4.9-4.1 3.4-13.6 12.1-14.2 3.7-0.3 8.5 0.5 13.9 1.6 1.3-16.7 8.5-91.8 35.6-88.8 30.4 3.4 0 33.1-8.6 50.7-6.4 13-13.1 31.7-16.2 40.5q3.7 0.8 7.6 1.5c4.1-12.3 19.1-54 38.2-51.6 22.4 2.8 13.4 19.6-2.5 29.5-11.7 7.3-26 17.6-32.8 22.7 5.8 0.9 11.8 1.5 17.9 1.4 15.7-0.4 23.3 4.2 26.3 6.7z"/><path class="B" d="m535.3 1643.9c0 0-42.2-115.8-71.8-105.9-29.6 9.8 71.8 105.9 71.8 105.9z"/><path class="B" d="m519.1 1643.9c-3.6 0-70.9-69.8-75.4-51.5-4.4 18.2 75.4 51.5 75.4 51.5z"/><path class="B" d="m590.9 1643.9c0 0-27.8-25.5-63.1-18.9-35.2 6.7-50.3 14-72.4 8.9-22.1-5-33.4 10-33.4 10z"/><path class="b" d="m1561.2 1355.3c6.5-10.1-48.2-122.6-18.8-185.2 3.6-7.8 71.8 3.9 71.8 3.9 0 0 13.9 158.1 6.1 199.9-5.5 29.6-16.4 116.8-22.3 165.5q0 0.2 0 0.5c-1.4 11.5-2.5 20.9-3.2 26.7-0.5 4.4 0 8.8 1.5 13 4.3 11.9 13.8 36.5 18.5 39.9 0 0-25.8 7.4-30.7 4.5-5-2.9-17.6-48.3-17.6-48.3 2.2-4.3 3-9.1 2.2-13.8-0.9-6.2-2.4-15.9-4.1-27.8q0 0 0 0 0 0 0 0c-22.2-90-18.9-154.5-3.4-178.8z"/><path class="b" d="m1415.5 1557.1c3.6-3.1 6-7.4 7-12 1.3-6.2 3.3-15.8 6-27.5 11-92.1 36.9-151.2 60-168.4 9.6-7.3-1.8-131.8 47.8-180 6.2-6 65.8 29 65.8 29 0 0-42.8 152.8-65 189.2-15.6 25.7-56.5 103.5-79.2 147q0 0 0 0 0 0 0 0c-5.5 10.5-10 19-12.7 24.2-2 4-3.1 8.3-3.2 12.7-0.1 12.7-1.8 46.6 3.2 49.6 3.1 1.9 5.8 3.9 8 5.9 0 0-23.5-2-26.4-2.1-2.8-0.2-20.8-56.6-21.2-57.7q0 0 0 0c3.6-3.9 7.3-7.5 9.9-9.9z"/><path class="c" d="m1393.9 1587.8l-5.9 34.6 3.2 2.3 18.5-26.7z"/><path class="k" d="m1394.6 1590.4c20.2 10.6 23.2 45.9 26.4 53.5l36.9 0.1c5.5-1.9 3.4-9.8-4.7-17.2 0 0-23.5-2-26.4-2.1-2.8-0.2-20.8-56.6-21.2-57.7-8.5 9.2-16.7 20.4-11 23.4z"/><path class="w" d="m1426.8 1473.4c1.7 44.2 89.6 35.7 89.6 35.7l11.6-56.2 7.7-37.3 2.5-12.4-3.8-1.8-55.9-26.6-17.5-8.3-0.7 2.2-30.2 94.4v0.1z"/><path class="C" d="m1430.1 1463.2c25.4-26.1 97.9-10.3 97.9-10.3l7.7-37.3-1.3-14.2-55.9-26.6-18.2-6.1-30.2 94.4z"/><path class="c" d="m1559.8 1610.9l4.9 33h5.3l2.5-25.6z"/><path class="k" d="m1559.8 1610.9c11.2 5.2 23.5 27 29.2 33l46.6 0.3c5.8-4.7-14.6-20.2-20.8-24.7 0 0-25.8 7.4-30.7 4.5-5-2.9-17.6-48.3-17.6-48.3-5.5 10.6-14.9 31.4-6.7 35.2z"/><path class="w" d="m1538.2 1386.9l11.6 126.9c21.5 27.3 78.2 10.5 78.2 10.5 0 0 4.3-104.8 6.5-108.9l-8.2-2.5z"/><path class="C" d="m1538.2 1386.9l11.6 126.9c0.6-62.4 81.4-56.1 81.4-56.1l-4.9-44.8z"/><path class="c" d="m1637.2 790.9l-118.5-47-66.3 63.9 112.6 44z"/><path class="g" d="m1581.7 812.5c0 0 0.2 14.1 10.6 18.5 21.5 9.1 1 19.7 22.1 34.6 4.8 3.4 8.3 24.7-25.2 27.9-33.5 3.1-37.7 6-37.7 6 0 0-24.8 15.9-52.4-0.5-16-9.5 4.1-35.9-3.2-42.7-9.9-9.1-11.2-38.8 3.2-51.1 14.4-12.2 37.3-19.4 37.3-19.4z"/><path class="d" d="m1675.7 843.2l0.9-2.9c-31.7-9.4-38.5-42.4-39.7-50.1-0.1-0.9-0.8-1.7-1.8-2-1-0.3-1.9 0.6-1.7 1.6 1.5 8.9 9.3 43.6 42.3 53.4z"/><path class="e" d="m1676.6 840.3h4.2l-1.6 5.1-3.5-2.2z"/><path class="d" d="m1680.8 840.3c0 0 5.9 1.6 7.1 0 0 0 0.1 4.9-2 6.2 0 0-4.6 0.1-6.7-1.1z"/><path class="b" d="m1588.9 902.2c-2.3-0.3-9.4-6-12.6-14.7-3.9-10.4-7.3-21.8-7.3-21.8l-10.3 1.7-27.5 4.5-2.2 0.3c2.2 5.8 3.8 11.3 5 16.4 2.2 9.1 2.9 16.8 2.6 22.6-0.3 5.8-3.4 7.4-5 8.5-0.8 0.5 29 98.2 43.4 93.3 12.5-4.2 15.2-111.1 13.9-110.8z"/><path class="v" d="m1536.6 911.2c16.5-6.7 32.4-45.5 32.4-45.5-3.2-0.4-6.7 0.2-10.3 1.7-9.1 3.6-18.4 12.4-24.7 21.2 2.2 9.1 2.9 16.8 2.6 22.6z"/><path class="b" d="m1526 895.4c0 0 49.2-8 43.7-38.5-5.4-30.5-2.7-52.1-34.3-48.3-31.6 3.8-35.6 16.5-36.3 27.1-0.7 10.7 14 61 26.9 59.7z"/><path class="b" d="m1521.7 923.7c0 0-82.9-24.9-88.8-31.9-5.9-6.9-20.3-99-20.3-112.3l-12 1.8c0 0-9 104.7 1.4 128.5 10.3 23.8 114.9 61.2 114.9 61.2z"/><path class="w" d="m1586.5 901c0 0-10.2 31.8-50.1 11.8l41.9 92.1 10.9-82.4z"/><path class="b" d="m1620.3 910.4c0 0-5 16.5 91 68.8l70.8-48.5 8.5 7.2c0 0-67.9 81.8-78.5 80-10.6-1.7-83.5-49.7-83.5-49.7z"/><path class="k" d="m1359.4 1319.6c0 0 2.6 8.2 8.5 20.1 10.2 20.4 30.3 51.7 63.8 70.5 38.1 21.2 161.4 61.9 246.1 42.2 0 0-8-268-25.8-378.2q-0.6-3.8-1.3-7.4c5.2 19.8 31.7 26.3 42.6 22.6 23.8-8 32.1-26.5 33.3-46.2 1.7-30.2-13.5-63-15.3-64-39.1-22.2-46.4-57.5-65.4-70.1-17-11.2-57.5-8.3-59.4-8.1l-8.9 88.1-41.2-76.3c0 0-66.4-5.8-103.5-21 0 0-111.1 153.6 26.4 151.6 0 35.4-16.5 67.6-32.5 115.4-15.8 47.4-67.4 160.8-67.4 160.8z"/><path class="h" d="m1536.7 873.1c0 0-0.5 5-3.7 6.2-3.1 1.3-11.5 3.6-12.3 3.1-0.9-0.5-4.1-4.3-4.1-4.3 0 0 13.1-5.4 20.1-5z"/><path class="b" d="m1412.9 779.6c0 0 5.1-3.5 2.4-13.2-1.8-6.5-0.6-11.8-1.9-11.6-1.5 0.1-2.6 8.5-3.5 10.6-0.7 1.8-11.8-19.1-14.6-17.5-2.8 1.7-8.3 9.9 4.9 38.4z"/><path class="b" d="m1782.1 930.7c0 0 7.6-17.9 10.1-21.5 4.9-7.3 19.1-11.9 20-8.7 0.9 3.2-9.1 8-9.5 15.5-0.1 2 4.1-2 6.7-3.5 1.6-1 2.5-0.2 1.7 1-4.1 6-6.4 12.3-10.4 14.6-4 2.3-10.1 9.8-10.1 9.8z"/><path class="D" d="m1586.5 901l-8.9 88.1-41-77.9h-14.9l60.3 109.8 15.5-120.4z"/><path class="g" d="m1505.7 809.7c0 0-14.4 17 31 25.3 14.6 2.6 21.9 16.7 17.9 28.6-5.9 17.7 9 36.7 31 29.8 17.4-5.4-11-86.9-26.5-88.2-15.5-1.2-53.4 4.5-53.4 4.5z"/><path class="g" d="m1521.7 813.6c0 0-14.6 10.5-15.8 18.9-1.3 8.3-4.7 20.3-10.3 11.9-5.5-8.5-6.5-20 0-27.7 6.5-7.7 21.1-11.2 24.2-8.6 3.1 2.7 1.9 5.5 1.9 5.5z"/><path class="k" d="m1495.9 808.7c0 0 27.9-23.9 87 11.4l0.8-14.6c-2.3-8.7-5.1-8.6-13-12.8-8.9-4.8-22.7-9.5-42.3-9.3-13.5 0.1-21.4-1.6-27.5 10.4z"/><path class="d" d="m1864.5 976.2c0 0 5.3-5.7 9.8-12.3 2.1-3 4.1-6.2 5.4-9.2 0.7-1.7 1.2-3.2 1.3-4.6 0 0-73.9-44.8-80.6-50.8-6.7-5.9-67.1-53.2-67.1-53.2 0 0-4.1 3.9-8.5 9.6-1.7 2.2-3.4 4.6-5 7.1-3 4.7-5.5 9.9-6.4 14.9 0 0 77.4 38.2 84.3 45.2 7 7 66.8 53.3 66.8 53.3z"/><path class="x" d="m1874.3 963.9c2.1-3 4.1-6.2 5.4-9.2 0.7-1.7 1.2-3.2 1.3-4.6 0 0-73.9-44.8-80.6-50.8-6.7-5.9-67.1-53.2-67.1-53.2 0 0-4.1 3.9-8.5 9.6-1.7 2.2-3.4 4.6-5 7.1 21.7 10.9 80.6 40.6 87 47 6.2 6.2 49.6 40.2 67.5 54.1z"/><path class="u" d="m1788.6 889.7c0 0 20.5 9.6 25.8 19.2l-11.6 18.5c0 0-18.8-9-26.8-17.6z"/><path class="b" d="m1800.7 928.1c0 0 5.2-2.2 8.3-6 3.1-3.9 7.3-10.2 2.1-8.6-5.2 1.6-14.5 8.1-18 8.7-3.5 0.6-2.2 3.4-2.5 4.1-0.2 0.8 10.1 1.8 10.1 1.8z"/><path class="c" d="m1359.4 1319.6c0 0 2.6 8.2 8.5 20.1 22.3-23.5 53.3-61 74.9-106.1 37.3-77.7 16.5-190.2 16.5-190.2 0 35.4-16.5 67.6-32.5 115.4-15.8 47.4-67.4 160.8-67.4 160.8z"/><path class="c" d="m1589.2 1052.7c0-2-1.6-3.7-3.7-3.7-2 0-3.7 1.7-3.7 3.7 0 2.1 1.7 3.8 3.7 3.8 2.1 0 3.7-1.7 3.7-3.8z"/><path class="c" d="m1589.2 1120.2c0-2.1-1.6-3.7-3.7-3.7-2 0-3.7 1.6-3.7 3.7 0 2 1.7 3.7 3.7 3.7 2.1 0 3.7-1.7 3.7-3.7z"/><path class="c" d="m1652 1074.2q-0.6-3.8-1.3-7.4c5.2 19.8 31.7 26.3 42.6 22.6 23.8-8 32.1-26.5 33.3-46.2-2.6 1.4-41.3 21.2-59.3 9.5-18.4-11.8-29.8-38.6-30.1-39.5z"/><path class="E" d="m2432.3 712.2c0 0-10.9 8.2-23.4 7.5-9.4-0.5-18.9-8.6-19.3-9.2l-6.8 13.2c0 0 17.4 9.5 31.8 6 4.4-1 11.4-5.8 14.5-9.3 3.4-3.8 3.2-8.2 3.2-8.2z"/><path class="F" d="m2430.8 685.4l18.2-8.5c0 0-0.7 38.7-32.1 52 0 0 18.9-27.4 13.9-43.5z"/><path class="E" d="m497.8 1065c0 0-10.9 8.2-23.5 7.5-9.3-0.5-18.9-8.7-19.3-9.2l-6.8 13.2c0 0 17.4 9.5 31.8 6 4.4-1.1 11.4-5.8 14.5-9.3 3.4-3.8 3.3-8.2 3.3-8.2z"/><path class="F" d="m496.2 1038.2l18.2-8.6c0 0-0.7 38.8-32.1 52.1 0 0 18.9-27.4 13.9-43.5z"/><path class="G" d="m1965.1 460c0 0 26.5-18.4 46.4 9l21.8-9.4c0 0-10.7-17-53.1-9.5-27.7 5-15.1 9.9-15.1 9.9z"/><path class="H" d="m1939 478c0 0 7.2-29.8 61.6-29.8 0 0-20.4 1.9-36.3 28.4z"/><path class="I" d="m1791.3 579.6c0 0-14.6-9.2-16.2-20.4 0 0-14.2 0.8-17.3 5.4 0 0 6.6 18.5 14.3 22 0 0 17.3 1.1 19.2-7z"/><path class="I" d="m2761.9 1358.6c0 0-14.7-9.2-16.2-20.4 0 0-14.3 0.8-17.4 5.4 0 0 6.6 18.5 14.3 21.9 0 0 17.3 1.2 19.3-6.9z"/><path class="I" d="m372.2 1332.7c0 0-14.6-9.2-16.1-20.4 0 0-14.3 0.8-17.4 5.4 0 0 6.6 18.5 14.3 22 0 0 17.3 1.1 19.2-7z"/></svg>