<svg version="1.2" xmlns="http://www.w3.org/2000/svg" viewBox="0 0 500 500" width="500" height="500"><style>.a{fill:#0c186e}.b{fill:#37474f}.c{fill:#263238}.d{opacity:.1}.e{fill:#eb9481}.f{fill:#455a64}.g{fill:#ebebeb}.h{fill:#c7c7c7}.i{fill:#ff9bbc}</style><path class="a" d="m330.7 307v149.6h-53.3v-149.6z"/><g style="opacity:.1"><path  d="m330.7 307v149.6h-12.2v-149.6z"/></g><path class="a" d="m401 250.4v206.2h-53.3v-206.2z"/><g style="opacity:.1"><path  d="m401 250.4v206.2h-12.2v-206.2z"/></g><path class="a" d="m260.6 340.7v115.9h-53.3v-115.9z"/><g style="opacity:.1"><path  d="m260.6 340.7v115.9h-12.2v-115.9z"/></g><path class="a" d="m471.3 175.1v281.5h-53.3v-281.5z"/><g style="opacity:.1"><path  d="m471.3 175.1v281.5h-12.2v-281.5z"/></g><path class="b" d="m188.4 411.7v-28.9c0 0 194.3-16.5 272.8-231.8l7.8 2.1c0 0-52.2 220.6-280.6 258.6z"/><path class="b" d="m476.3 160.3l-24.6-8.1 20.3-20.3 4.3 28.4z"/><path class="c" d="m4 456.6l61.4-0.3h61.4l122.7-0.2 122.8 0.1 61.3 0.1 61.4 0.3-61.4 0.3-61.3 0.1-122.8 0.2-122.7-0.2-61.4-0.1-61.4-0.3z"/><path class="c" d="m303.5 58.9c3.5 19.8-8.1 41.3-33.6 49.2-23.1 7.3-49.2-4.7-54.9-19.9-6.1-16.2 4.2-31.6 17.2-33 12.6-1.3 22.5 5.6 31.8 1.8 4.4-1.8 9.4-8.1 15.8-11.1 7.2-3.3 21.5 0.3 23.7 13z"/><path class="c" d="m224.4 101.7q2.5 1.9 5.1 3.5 2.7 1.6 5.5 2.8 2.8 1.2 5.8 2.1 3 0.8 6 1.3 3.1 0.5 6.2 0.6 3.1 0.1 6.2-0.1 3-0.2 6.1-0.8 3-0.6 6-1.5 2.9-0.9 5.8-2.2 2.8-1.2 5.5-2.9 2.6-1.6 5-3.6 2.4-2 4.5-4.2 2.1-2.3 3.8-4.9 1.8-2.5 3.1-5.3 1.4-2.8 2.4-5.7 1-2.9 1.6-6-0.7 3-1.8 5.9-1.1 2.8-2.5 5.5-1.5 2.7-3.2 5.2-1.8 2.5-3.9 4.7-1 1.1-2.2 2.2-1.1 1-2.3 1.9-1.1 1-2.4 1.9-1.2 0.8-2.6 1.6-1.3 0.8-2.6 1.5-1.4 0.7-2.8 1.3-1.4 0.6-2.8 1.1-1.4 0.5-2.9 1-1.4 0.4-2.9 0.8-1.5 0.4-3 0.6-1.5 0.3-3 0.6-1.5 0.2-3 0.3-3 0.3-6.1 0.2-3-0.1-6.1-0.5-3-0.5-5.9-1.3-3-0.8-5.8-1.9-1.5-0.5-2.8-1.1-1.4-0.7-2.8-1.4-1.3-0.7-2.6-1.5-1.3-0.8-2.6-1.7z"/><path class="c" d="m228.8 54.9q0.9-0.3 1.8-0.5 0.9-0.2 1.9-0.4 0.9-0.1 1.9-0.2 0.9 0 1.8 0 1 0 1.9 0 1 0.1 1.9 0.2 0.9 0.1 1.9 0.3 0.9 0.2 1.8 0.4c2.5 0.6 5 1.1 7.5 1.6q0.9 0.2 1.9 0.3 1 0.1 1.9 0.2 1 0.1 1.9 0.1 1 0 2-0.1 0.5 0 1 0 0.4-0.1 0.9-0.1 0.5-0.1 1-0.2 0.5-0.1 0.9-0.2 0.5-0.1 1-0.3 0.4-0.2 0.9-0.4 0.4-0.2 0.9-0.4 0.4-0.2 0.8-0.4 0.9-0.6 1.7-1.1 0.8-0.5 1.5-1.1 0.8-0.5 1.6-1.1 0.7-0.6 1.5-1.2 0.7-0.6 1.5-1.1 0.8-0.6 1.6-1.1 0.8-0.4 1.6-0.9 0.9-0.4 1.7-0.8 0.9-0.4 1.8-0.6 0.9-0.3 1.8-0.5 1-0.2 1.9-0.4 0.9-0.1 1.9-0.1-1 0-1.9 0-1 0.1-1.9 0.2-1 0.2-1.9 0.4-1 0.2-1.9 0.6-0.9 0.3-1.7 0.7-0.9 0.4-1.7 0.9-0.9 0.5-1.7 1-0.8 0.5-1.6 1.1c-2.1 1.4-4 3-6.2 4.3q-0.4 0.2-0.8 0.4-0.4 0.2-0.9 0.4-0.4 0.2-0.8 0.3-0.5 0.2-0.9 0.3-0.5 0.1-0.9 0.2-0.5 0.1-0.9 0.1-0.5 0.1-1 0.1-0.4 0.1-0.9 0.1c-5 0.3-10-1-14.9-1.9q-1-0.2-1.9-0.4-1-0.1-1.9-0.2-1-0.1-1.9-0.1-1 0-2 0-0.9 0.1-1.9 0.2-0.9 0.1-1.9 0.3-0.9 0.2-1.8 0.5-0.9 0.2-1.8 0.6z"/><path class="a" d="m49 95.6c2.5-5.7 78.6-8.5 143.4-9.3h0.1c29.2-0.4 57.3-3.1 75-2.1 11.2 0.6 17.2 4.6 18.6 6.2 4.3 5.2 12.3 22-17.7 43.1-22.6 16-48.6 30.2-67.9 54.7-19.3 24.4-30.1 55.2-28.8 76.2 1.4 21 16.7 41 15.2 38.8-0.5-0.6-6.2-0.3-14.1-4.9-9.7-5.6-21-17.5-28.6-21-15.6-7.2-36.7-6-53.2-22.7-17.4-17.5-21.7-48.5-30-73.1-10-29.8-33.2-36.8-12-85.9z"/><g style="opacity:.2"><path  d="m49 95.6c2.5-5.7 78.6-8.5 143.4-9.3h0.1c29.2-0.4 57.3-3.1 75-2.1 11.2 0.6 17.2 4.6 18.6 6.2 4.3 5.2 12.3 22-17.7 43.1-22.6 16-48.6 30.2-67.9 54.7-19.3 24.4-30.1 55.2-28.8 76.2 1.4 21 16.7 41 15.2 38.8-0.5-0.6-6.2-0.3-14.1-4.9-9.7-5.6-21-17.5-28.6-21-15.6-7.2-36.7-6-53.2-22.7-17.4-17.5-21.7-48.5-30-73.1-10-29.8-33.2-36.8-12-85.9z"/></g><path class="d" d="m64.5 192.6c-1.1-3.8-2.2-7.5-3.5-11.1q-0.9-2.6-2-5.1-1-2.5-2.2-5-1.2-2.5-2.5-4.9-1.3-2.4-2.8-4.8c-1-1.5 68.3-16.9 88.2-8.7 10.9 4.5-21.1 7.4-75.2 39.6z"/><path class="d" d="m156.2 285.8c-4.5-3.6-8.7-6.9-12.1-8.5q-1.5-0.6-3-1.2-1.6-0.6-3.1-1.1-1.6-0.5-3.2-1-1.5-0.5-3.1-0.8c4.4-28.4 9.3-48 21.6-61 7.8-8.3-11.9 39.5 2.9 73.6z"/><path class="d" d="m70.4 213.8q-1.5-5.1-2.9-10.3c22-8.9 40.7-21.8 40.8-18.8 0.3 3.3-23.4 19.6-37.9 29.1z"/><path class="a" d="m28.8 157.8c0 0-6.3-27.9 12.9-61.7 1.8-3.3 34.3-17.1 56-18.9 21.7-1.9 38.2 4.6 64 8.3 25.8 3.8 94.4-4.5 111-1 11.4 2.4 13.2 6 13.2 6 0 0-13.3-4.2-21.3-4.1-31.7 0.5-87.9 17.3-102.7 17.1-18-0.3-38.1-1.9-52.7 1.6-16.3 3.8-70.9 42.4-80.4 52.7z"/><path class="e" d="m207.1 368c-1.8-1.9-29.8-66.3-29.3-69.5 0.1-1.1 60.2-19.6 60.2-19.6l16.5 41.8-38 8.2c0 0-0.3 29.5-1.2 32.8-0.8 3.4-6.5 8.2-8.2 6.3z"/><path class="c" d="m207.1 368c-0.8-0.9-6.6-13.8-12.9-28.2q-0.6-1.5-1.2-2.9-1.7-3.7-3.2-7.5-0.7-1.4-1.2-2.9c-0.4-0.9-0.8-1.9-1.2-2.8-0.6-1.4-1.1-2.9-1.7-4.2q-0.6-1.4-1.1-2.7l-1.1-2.6q-0.7-1.9-1.4-3.6-0.5-1.1-0.9-2.2-0.9-2.2-1.5-3.9c-0.2-0.6-0.4-1.2-0.6-1.7-0.4-1.3-0.8-2.3-1-3q0-0.1-0.1-0.3 0-0.1 0-0.3 0-0.1-0.1-0.3 0-0.1 0-0.3c0-0.4 7.1-3.3 16.3-6.9 1.3 6.9 4.1 19.2 9.3 37.7 8.6 30.3 12.5 18.4 12.9 12.4q0-0.1 0-0.2 0 0.6 0 1.1v0.1q0 1 0 2c-0.1 0.7 0 1.5 0 2.2 0 1.2-0.1 2.4-0.1 3.6-0.1 1.2-0.1 2.3-0.2 3.3 0 0.7 0 1.3-0.1 1.9q0 0.4 0 0.9c0 0.3 0 0.7 0 1.1 0 0.8-0.1 1.5-0.2 2.1q0 0.1 0 0.1 0 0.1 0 0.1 0 0.1 0 0.1 0 0.1 0 0.1 0 0.2 0 0.4 0 0.2-0.1 0.4 0 0.2 0 0.3-0.1 0.2-0.1 0.4c-1.2 3.3-6.8 8.1-8.5 6.2z"/><path class="c" d="m229.6 332.5l-16.4-48.5c0 0 62.1-24.1 63.1-28.2 0.4-1.6-40.2-61.1-47.8-84-5-15.3 7.4-32.2 7.4-32.2l44.8 12c0 0-2.3 12.8-0.8 15.3 14.1 23.5 53.8 88.4 50.1 110.9-3.6 21.6-100.4 54.7-100.4 54.7z"/><path class="b" d="m239.2 326.2c-1.7-5.6-9.3-28.4-11.4-34-0.6-1.7-1.2-3.3-1.8-4.9q-0.2-0.6-0.5-1.2-0.2-0.6-0.4-1.2-0.3-0.6-0.6-1.2-0.2-0.6-0.5-1.2 0 0-0.1 0 0 0 0 0 0 0-0.1 0 0 0.1 0 0.1 0.1 0.6 0.3 1.1 0.1 0.6 0.3 1.1 0.1 0.6 0.3 1.1 0.2 0.6 0.4 1.1 0.6 2.2 1.3 4.4c0.9 2.9 1.9 5.9 2.8 8.7 1.9 5.6 8 23.3 9.6 26.3 0.1 0.2 0.5 0.1 0.4-0.2z"/><path class="b" d="m283.2 257.1c-5.3-6.5-43.4-73.3-45.3-77.2q-0.8-1.4-1.5-2.8-0.6-1.3-1.2-2.8-0.6-1.4-1-2.8-0.5-1.5-0.9-3c-1.8-8.7 0.9-17.8 4.7-25.6q0 0 0-0.1-0.1-0.1-0.1-0.1-0.1-0.1-0.2 0-0.1 0-0.1 0c-3.7 6.8-6.4 14.5-5.8 22.4q0.1 1.5 0.4 3 0.2 1.4 0.6 2.9 0.4 1.4 1 2.8 0.5 1.4 1.2 2.8c1.8 3.9 3.9 7.7 5.8 11.6 4 8 38.6 65.4 41.5 69.1-6.7 3.6-13.4 7.1-20.2 10.5-7 3.4-14.1 6.7-21.2 9.9q-6 2.7-12.2 5.3c-0.1 0-0.1 0.3 0.1 0.3q5.5-2.1 10.9-4.3 5.4-2.3 10.8-4.6 5.3-2.4 10.6-5 5.3-2.6 10.4-5.3c4-2 7.9-4.1 11.7-6.3q0.1-0.1 0.1-0.2 0.1-0.1 0.1-0.2 0-0.1-0.1-0.2 0-0.1-0.1-0.1z"/><path class="b" d="m270.3 245.6c-11.5-18.4-36.1-56.5-41.8-73.8-5-15.3 7.4-32.2 7.4-32.2l17.3 4.6z"/><path class="e" d="m159.9 411.2c-2.4-0.9-57-45.2-58-48.2-0.4-1.2 5.6-9.4 13.1-19.3l0.3-0.3c1.5-2 31.4-34 31.4-34l35.1 29.7-31 32.5-0.5 0.5c0 0 13.3 26.3 14 29.8 0.8 3.4-2.1 10.2-4.4 9.3z"/><path class="c" d="m111.3 348.6c-5.7 7.6-9.8 13.5-9.4 14.4 1 3.1 55.5 47.3 58 48.2 2.5 0.9 5.2-5.9 4.4-9.3-0.4-2.1-5.5-12.7-9.5-20.6 2.5 5.6 4.4 16.9-17.4-4.9-13.6-13.4-21.7-22.5-26.1-27.8z"/><path class="c" d="m280.7 151.6c0 0-10.4 24.1-18.9 29.6 0 0-30.9 75.9-40.7 95.8-12.9 26.3-57.7 86.9-57.7 86.9l-42.7-32.5c0 0 56.2-69.5 56.9-71.3 4.1-9.9 36.4-83 36.3-84.9-1.2-19.8 12.8-38.1 12.8-38.1z"/><path class="b" d="m261.6 181.3q-0.2 0.2-0.3 0.4-0.2 0.2-0.3 0.4-0.1 0.3-0.2 0.5-0.1 0.2-0.2 0.5c-0.3 0.6-0.5 1.1-0.8 1.8-0.5 1.2-1 2.4-1.5 3.7q-1.6 3.8-3.2 7.6-1.6 3.8-3.1 7.7c-1 2.5-2 5-2.8 7.5 0 0.1 0.1 0.2 0.2 0 1.3-2.3 2.5-4.9 3.6-7.3q1.8-3.8 3.3-7.6 1.6-3.8 3.1-7.7c0.5-1.1 1-2.4 1.4-3.6q0.4-0.9 0.7-1.8 0.1-0.3 0.2-0.5 0.1-0.3 0.1-0.5 0.1-0.3 0.2-0.5 0-0.3 0-0.5 0-0.1-0.1-0.1 0-0.1-0.1-0.1 0 0-0.1 0-0.1 0-0.1 0.1z"/><path class="b" d="m280.2 155.2c-3.4 5.6-6.7 11.3-10.4 16.8-0.8 1.1-1.6 2.8-2.9 3.5q-0.2 0.1-0.4 0.1-0.2 0.1-0.5 0.1-0.2 0-0.4-0.1-0.2 0-0.4-0.1c-0.7-0.5-0.4-1.5-0.1-2.2 0.7-1.5 1.7-2.9 2.5-4.4 0.8-1.4 1.6-3.1 2.5-4.6 1.9-3.5 3.6-7 5.5-10.5 0-0.1-0.1-0.2-0.2-0.1-2 3.4-4.1 6.7-6.1 10.1l-3.1 5.2-1.4 2.5q-0.1 0.3-0.3 0.5-0.2 0.3-0.3 0.6-0.1 0.3-0.3 0.6-0.1 0.2-0.2 0.5-0.1 0.5-0.1 1 0 0.4 0.2 0.9 0.3 0.4 0.6 0.7 0.4 0.3 0.9 0.4 0.4 0.1 0.9 0 0.5 0 1-0.2 0.4-0.2 0.8-0.5 0.4-0.3 0.7-0.7 0.4-0.5 0.7-1 0.4-0.5 0.8-1.1 0.4-0.5 0.7-1 0.4-0.6 0.7-1.1 1.5-2.3 3-4.7 0.8-1.3 1.5-2.7 0.8-1.4 1.5-2.8 0.8-1.4 1.4-2.8 0.7-1.4 1.3-2.9c0 0 0-0.1-0.1 0z"/><path class="b" d="m265 176c-0.9 0.7-4.1 4.9-4.3 5.2-0.2 0.2 0.5 0.5 0.6 0.4q0.5-0.6 1.1-1.3 0.5-0.7 1-1.4 0.5-0.7 1-1.4 0.5-0.7 1-1.4c0-0.1-0.3-0.2-0.4-0.1z"/><path class="b" d="m268.5 179.7q-1.1 0.1-2.2 0.2-1.1 0.2-2.1 0.3-1.1 0.2-2.2 0.4-1.1 0.2-2.1 0.5-2.1 0.5-4.2 1-0.6 0.1-1.1 0.2-0.6 0.2-1.1 0.3-0.6 0.2-1.1 0.4-0.6 0.1-1.1 0.3-0.1 0-0.1 0.1 0 0 0 0 0 0 0 0.1 0 0 0.1 0 0.5 0 1.1-0.1 0.6 0 1.1-0.1 0.6-0.1 1.2-0.2 0.5-0.1 1.1-0.2 2-0.3 4.1-0.7 1.1-0.1 2.2-0.4 1.1-0.2 2.1-0.4 1.1-0.3 2.2-0.6 1.1-0.3 2.1-0.7 0.1 0 0.2 0 0-0.1 0-0.2 0-0.1-0.1-0.1 0-0.1-0.1-0.1z"/><path class="b" d="m166.9 353.2c-4.7-3.7-23.8-18.1-28.7-21.6-1.5-1-2.9-2-4.3-2.9q-0.5-0.4-1.1-0.8-0.5-0.4-1-0.7-0.6-0.4-1.1-0.7-0.6-0.3-1.1-0.7-0.1 0-0.1 0 0 0-0.1 0.1 0 0 0 0 0 0.1 0 0.1 0.5 0.4 0.9 0.8 0.4 0.3 0.9 0.7 0.4 0.4 0.8 0.7 0.5 0.4 0.9 0.7c1.2 1 2.5 1.9 3.7 2.9 2.3 1.9 4.8 3.7 7.2 5.5 4.7 3.6 19.8 14.7 22.8 16.3 0.3 0.1 0.6-0.2 0.3-0.4z"/><path class="b" d="m232.2 141.2q-1.3 1.8-2.5 3.7-1.2 1.9-2.2 3.9-1 2-1.8 4.1-0.8 2.1-1.5 4.3-0.3 1-0.5 2.1-0.3 1.1-0.5 2.2-0.2 1-0.4 2.1-0.1 1.1-0.2 2.2c-0.4 3.3-0.2 6.7-1.2 9.9q-0.5 1.2-0.9 2.4-0.5 1.2-1 2.4-0.5 1.2-1 2.4-0.6 1.2-1.1 2.4l-4.3 9.7-8.4 19.4-17 39c-1.3 3.1-2.6 6.3-4.2 9.3q-0.6 1.1-1.2 2.2-0.6 1.1-1.3 2.1-0.7 1.1-1.4 2.1-0.7 1-1.4 2c-4.2 5.6-8.6 11-12.9 16.6-8.6 11-17.3 22.1-25.8 33.3l-3.2 4.3c0 0.1 0 0.2 0.2 0.1 8.9-10.9 17.6-22 26.3-33.1q6.6-8.3 13.1-16.6c1.9-2.5 3.9-5.1 5.6-7.8q0.7-1 1.3-2.1 0.6-1.1 1.2-2.2 0.6-1.1 1.2-2.2 0.5-1.2 1.1-2.3c5.8-12.8 11.2-25.9 16.8-38.8 5.7-12.9 11.3-26 16.9-39q0.6-1 1-2.1 0.5-1.1 0.9-2.3 0.3-1.1 0.6-2.3 0.3-1.1 0.5-2.3c0.3-3.2 0.3-6.5 0.9-9.7q0.4-2.2 1-4.5 0.6-2.2 1.4-4.4 0.7-2.2 1.7-4.3 0.9-2.1 2.1-4.1 1.1-2 2.4-3.9c0.1-0.2-0.2-0.4-0.3-0.2z"/><path class="f" d="m116 232.9l18.4-51.7 85.2 30.4-18.4 51.7z"/><path class="b" d="m125.7 205.5l8.7-24.3 85.3 30.4-8.7 24.4z"/><path class="f" d="m215.8 228.8l-89.3-31.8 8.6-24.1 89.3 31.9z"/><path class="c" d="m165.9 168.4l-5 13.7 6.5 2.3 2.8-7.8 24.7 8.8-2.8 7.8 6.4 2.3 4.9-13.7-37.5-13.4z"/><path class="c" d="m201.5 230.2l-5.8-2.1 4.1-11.5 5.8 2.1z"/><path class="c" d="m142.5 209.2l-5.8-2.1 4.1-11.5 5.8 2.1z"/><path class="e" d="m278.7 103.5c14.7 23.8 33.3 45.7 41.9 45.9 11.5 0.2 36-11.6 48.2-19 3.6-2.2-13.8-29.7-17.6-27.4-4.7 2.8-28.3 17.6-28.8 17.7-1.2 0.3-27.8-17.9-34.1-22.4-10.4-7.5-16.1-5.4-9.6 5.2z"/><path class="e" d="m386.5 118.4c-4.4 5.4-17.7 12.8-21.6 13.4-3.9 0.5-17.3-21.7-15.9-25.5 1.5-3.8 17.8-20.7 24.7-22.1 6.9-1.4 17.4 28.6 12.8 34.2z"/><path class="e" d="m363.5 88.6c-0.5 3.6 4.1 2.1 4.1 2.1 0 0-6.1 3.7-5.2 7.7 0.9 4 6.4 1.9 6.8 1.7-0.4 0.2-5.9 3.8-4.6 7.7 1.3 3.8 6.6 1.1 6.9 0.9-0.2 0.3-3.4 4.1-1.7 6.8 2.8 4.7 11.2-4.8 15.7-4.9 0 0 1 7.6 1.1 7.8 0 0 8.1-8.9 7.7-14.9q-0.1-0.6-0.3-1.2-0.3-0.6-0.7-1.1-0.5-0.5-1-0.8-0.6-0.3-1.3-0.4c-0.4-0.1 3-2.6 2-5.7-0.4-1.6-3.4-2.2-3.4-2.2q0.4-0.5 0.8-1 0.3-0.6 0.5-1.3 0.1-0.6 0.1-1.3 0-0.6-0.2-1.3c-0.8-2.1-3.6-2.4-3.6-2.4 0 0 1.2-3.1-0.4-5-3-4-22.1 1-23.3 8.8z"/><path class="c" d="m386.7 84.7c0.1 0 0.1-0.1 0-0.1q-2.6 0-5.1 0.4-2.6 0.4-5.1 1.2-2.4 0.8-4.8 1.9-2.3 1.2-4.4 2.7c-0.2 0.1 0 0.5 0.2 0.4q2.2-1.2 4.6-2.2 2.3-1 4.8-1.8 2.4-0.8 4.8-1.4 2.5-0.7 5-1.1z"/><path class="c" d="m389.6 92c0.1 0 0.1-0.1 0-0.1q-2.8 0-5.6 0.6-2.8 0.6-5.5 1.6-2.6 1-5.1 2.5-2.4 1.5-4.5 3.4c-0.2 0.2-0.2 0.6 0 0.4 4.1-3.3 14.4-7.3 20.7-8.4z"/><path class="c" d="m371.2 109.2c5.6-4.9 12.3-7.5 19.5-9.3 0.1 0 0-0.1 0-0.1-3.7-0.2-8.2 1.4-11.6 2.9q-1.2 0.5-2.3 1.2-1.1 0.6-2.1 1.4-1 0.8-1.9 1.7-0.9 0.9-1.7 2c-0.2 0.1 0 0.3 0.1 0.2z"/><path class="c" d="m367.5 90.7q-0.4 0.3-0.8 0.7-0.4 0.3-0.7 0.6-0.4 0.4-0.8 0.7-0.4 0.4-0.7 0.8-0.4 0.3-0.7 0.7-0.3 0.4-0.5 0.8-0.3 0.5-0.5 0.9-0.2 0.5-0.3 1 0 0.2-0.1 0.4 0 0.2 0.1 0.5 0 0.2 0.1 0.4 0.1 0.2 0.2 0.4 0.1 0.2 0.2 0.4 0.2 0.2 0.3 0.4 0.2 0.1 0.4 0.3 0.2 0.1 0.4 0.2 0.4 0.2 0.8 0.3 0.5 0.1 1 0.1 0.4 0 0.9 0 0.4-0.1 0.9-0.3l2.8-1.1-2.3 2q-0.4 0.3-0.8 0.7-0.3 0.3-0.7 0.7-0.3 0.4-0.6 0.8-0.3 0.4-0.5 0.9-0.3 0.3-0.5 0.8-0.2 0.4-0.2 0.9-0.1 0.4-0.1 0.9 0 0.5 0.1 0.9 0.1 0.4 0.4 0.8 0.2 0.3 0.6 0.6 0.3 0.3 0.7 0.4 0.4 0.1 0.9 0.1 0.5 0 0.9-0.1 0.5-0.1 1-0.3 0.4-0.1 0.9-0.3 0.4-0.2 0.8-0.5l3.1-1.8-2.3 2.7q-0.3 0.3-0.5 0.6-0.2 0.3-0.4 0.6-0.2 0.3-0.4 0.7-0.2 0.3-0.4 0.6-0.1 0.3-0.2 0.7-0.2 0.3-0.2 0.6-0.1 0.4-0.1 0.7 0 0.4 0 0.7 0.1 0.3 0.2 0.6 0.1 0.3 0.3 0.6 0.2 0.2 0.5 0.4 0.3 0.2 0.5 0.3 0.4 0 0.8 0 0.3 0 0.7 0 0.3 0 0.7-0.1 0.3-0.1 0.6-0.3 0.8-0.2 1.5-0.6 0.7-0.3 1.4-0.6 0.7-0.4 1.4-0.7 0.6-0.4 1.3-0.8 1.4-0.8 2.8-1.5 0.3-0.2 0.7-0.3 0.4-0.2 0.7-0.3 0.4-0.1 0.8-0.2 0.4-0.1 0.8-0.1-0.4 0.1-0.8 0.2-0.4 0.1-0.7 0.2-0.4 0.2-0.7 0.4-0.4 0.1-0.7 0.3c-0.9 0.6-1.8 1.2-2.6 1.7q-0.7 0.5-1.4 0.9-0.6 0.4-1.3 0.8-0.7 0.4-1.4 0.8-0.7 0.3-1.5 0.6-0.3 0.2-0.8 0.3-0.4 0.2-0.8 0.2-0.4 0.1-0.8 0.1-0.5 0-0.9-0.1-0.4-0.1-0.8-0.4-0.4-0.2-0.7-0.5-0.4-0.4-0.6-0.8-0.1-0.4-0.2-0.9-0.1-0.4-0.1-0.9 0-0.4 0.1-0.8 0.1-0.5 0.2-0.9 0.2-0.4 0.3-0.8 0.2-0.4 0.4-0.7 0.2-0.4 0.4-0.7 0.3-0.4 0.5-0.7 0.2-0.4 0.5-0.7l0.8 0.9q-0.5 0.3-1 0.6-0.5 0.2-1.1 0.4-0.5 0.2-1.1 0.3-0.5 0.1-1.1 0.2-0.3 0-0.6-0.1-0.3 0-0.6-0.1-0.3-0.1-0.6-0.2-0.3-0.2-0.5-0.4-0.3-0.2-0.5-0.4-0.2-0.2-0.4-0.5-0.1-0.3-0.3-0.5-0.1-0.3-0.2-0.6-0.1-0.6-0.1-1.2-0.1-0.6 0-1.1 0.1-0.6 0.4-1.2 0.2-0.5 0.5-1 0.3-0.5 0.6-0.9 0.4-0.5 0.7-0.9 0.4-0.4 0.8-0.8 0.4-0.4 0.8-0.7l0.6 0.9q-0.6 0.2-1.1 0.3-0.6 0.1-1.2 0-0.6 0-1.1-0.2-0.6-0.1-1.1-0.4-0.2-0.2-0.4-0.4-0.2-0.2-0.4-0.4-0.2-0.2-0.4-0.4-0.1-0.2-0.3-0.5-0.1-0.3-0.2-0.5-0.1-0.3-0.1-0.6 0-0.3 0-0.6 0-0.3 0.1-0.5 0.1-0.6 0.4-1 0.2-0.5 0.5-0.9 0.3-0.5 0.6-0.9 0.4-0.4 0.8-0.7 0.4-0.4 0.8-0.7 0.4-0.4 0.8-0.7 0.4-0.3 0.9-0.6 0.4-0.3 0.8-0.6z"/><path class="e" d="m351.3 102.9c0 0 8.3-28.3 17.8-19.6 2.8 2.6 11.3 16.5 8.5 18.2-3.6 2.4-8.2-2.8-10.6-6.5 0 0-1.5 10-8.7 11.1q-1 0.1-2-0.1-1-0.1-1.9-0.5-1-0.4-1.7-1.1-0.8-0.6-1.4-1.5z"/><path class="c" d="m368.2 82.6q0.4 0.4 0.9 0.7 0.4 0.4 0.8 0.8 0.4 0.4 0.8 0.8 0.4 0.4 0.7 0.8 0.4 0.5 0.7 0.9 0.3 0.5 0.7 0.9 0.3 0.5 0.6 1 0.3 0.4 0.6 0.9 0.6 1 1.2 2 0.5 0.9 1.1 2 0.5 1 1 2 0.4 1 0.9 2.1 0.1 0.2 0.2 0.5 0.1 0.3 0.1 0.6 0.1 0.3 0.2 0.6 0 0.3 0 0.6 0.1 0.2 0.1 0.3 0 0.2-0.1 0.4 0 0.2 0 0.3-0.1 0.2-0.1 0.4-0.1 0.1-0.2 0.3-0.1 0.2-0.2 0.3-0.1 0.2-0.2 0.3-0.2 0.1-0.4 0.2-0.2 0.2-0.5 0.3-0.4 0.1-0.7 0.2-0.3 0.1-0.7 0.1-0.3 0-0.6-0.1-0.3 0-0.6-0.1-0.3-0.1-0.6-0.2-0.3-0.1-0.6-0.2-0.3-0.2-0.5-0.3-0.5-0.3-1-0.7-0.5-0.3-0.9-0.7-0.5-0.4-0.9-0.8-0.4-0.4-0.7-0.9-0.4-0.4-0.8-0.8-0.3-0.5-0.7-0.9-0.3-0.5-0.6-1-0.3-0.4-0.6-0.9l0.9-0.2q-0.1 0.4-0.2 0.8-0.1 0.4-0.2 0.8-0.1 0.5-0.2 0.9-0.2 0.4-0.3 0.8-0.2 0.4-0.4 0.8-0.1 0.4-0.3 0.8-0.2 0.3-0.4 0.7-0.2 0.4-0.5 0.8-0.2 0.3-0.5 0.7-0.2 0.3-0.5 0.6-0.3 0.3-0.6 0.6-0.3 0.3-0.6 0.6-0.3 0.3-0.7 0.5-0.3 0.3-0.7 0.5-0.4 0.2-0.8 0.4-0.4 0.1-0.8 0.3 0.4-0.2 0.8-0.4 0.3-0.2 0.7-0.5 0.3-0.2 0.6-0.5 0.3-0.2 0.6-0.5 0.3-0.3 0.6-0.7 0.2-0.3 0.5-0.6 0.2-0.3 0.4-0.7 0.3-0.3 0.5-0.7 0.2-0.4 0.3-0.7 0.2-0.4 0.4-0.8 0.2-0.3 0.3-0.7 0.1-0.4 0.3-0.8 0.1-0.4 0.2-0.8 0.1-0.4 0.2-0.8 0.1-0.4 0.2-0.8 0-0.4 0.1-0.8l0.1-1.3 0.8 1.2q0.3 0.4 0.7 0.9 0.3 0.4 0.6 0.8 0.4 0.5 0.7 0.9 0.4 0.4 0.7 0.8 0.4 0.5 0.8 0.8 0.3 0.4 0.8 0.7 0.4 0.4 0.8 0.7 0.4 0.3 0.9 0.6 0.4 0.3 0.8 0.4 0.5 0.2 0.9 0.2 0.5 0.1 1 0 0.5 0 0.9-0.2c0.9-0.5 0.5-2.1 0.1-3.4q-0.2-0.6-0.4-1.1-0.2-0.5-0.4-1-0.3-0.5-0.5-1-0.2-0.5-0.4-1c-0.7-1.3-1.3-2.7-2-4q-0.5-1-1.1-1.9-0.6-1-1.2-1.9-0.7-0.9-1.4-1.8-0.7-0.9-1.5-1.7z"/><path class="g" d="m334.1 112.9l13.8 31c0 0-22.4 7.9-29.7 5.3-7.3-2.5-27.9-24.3-37.7-41.2-9.9-16.9-4.1-19.1 12.2-7.7 16.2 11.4 29 19.4 29.5 19.2 0.5-0.2 11.9-6.6 11.9-6.6z"/><path class="c" d="m329.6 117.5c0-0.1-0.2 0-0.2 0.1q1.1 3.4 2.3 6.8 1.2 3.4 2.4 6.8 1.3 3.4 2.7 6.7 1.4 3.4 2.8 6.7c0 0.1 0.2 0 0.2-0.1q-1.1-3.4-2.3-6.8-1.2-3.4-2.4-6.8-1.3-3.4-2.7-6.8-1.4-3.3-2.8-6.6z"/><path class="h" d="m305.8 139.7c-8.7-8.5-19.2-21.1-25.3-31.7-8-13.7-5.7-17.7 4.1-12.7z"/><path class="g" d="m282.9 143.4l-2.3 18.1c0 0-38.1-3.8-57.7-20.5 0 0 21-42 42.2-51 10.6-4.5 18.8-0.1 21.6 7.7 0.8 2 8.9 24.2 6.9 33.1-1.7 7.8-10.7 12.6-10.7 12.6z"/><path class="c" d="m282.1 101.5l-0.1-0.3v-0.2c0 0 0.1 0 0.1 0l0.1 0.2q0.1 0.3 0.2 0.6 0.2 0.6 0.4 1.3 0.3 1.3 0.6 2.6c0.4 1.7 0.7 3.5 0.9 5.2q0.2 1.4 0.3 2.7 0.1 1.3 0.2 2.6 0.1 1.4 0.1 2.7 0 1.4-0.1 2.7 0 1.3-0.2 2.7-0.1 1.3-0.4 2.6-0.2 1.3-0.5 2.6-0.4 1.4-0.8 2.6-0.4 1.3-1 2.5-0.6 1.3-1.3 2.4-0.7 1.2-1.6 2.2-0.8 1-1.8 2l0.1-0.2q-1.7 4.8-3.4 9.6l-1.7 4.7c-0.6 1.6-1.1 3.2-1.9 4.7 0.7-1.6 1.2-3.2 1.7-4.8l1.6-4.7 3.1-9.7v-0.1q0.9-0.9 1.7-2 0.8-1 1.4-2.2 0.7-1.1 1.2-2.3 0.5-1.2 0.9-2.4 0.4-1.3 0.7-2.5 0.3-1.3 0.5-2.6 0.2-1.3 0.4-2.6 0.1-1.3 0.2-2.6 0-1.3 0.1-2.6 0-1.3 0-2.6-0.1-1.3-0.1-2.7-0.1-1.3-0.2-2.6c-0.1-1.7-0.4-3.5-0.6-5.2q-0.2-1.3-0.4-2.6l-0.3-1.3c0-0.2-0.1-0.4-0.1-0.7q0 0 0 0 0 0 0 0 0 0 0-0.1 0 0 0 0c0 0 0 0.1 0 0.1z"/><path class="c" d="m293 117.3l-0.1-0.6q0-0.3 0-0.5 0-0.3 0-0.6 0-0.3 0-0.5-0.1-0.3-0.1-0.6-0.1-0.3-0.1-0.7-0.1-0.3-0.2-0.6 0-0.4-0.1-0.7-0.1-0.3-0.2-0.6c0-0.1-0.1 0-0.1 0q0.1 0.4 0.2 0.9 0.1 0.5 0.1 0.9 0.1 0.5 0.2 1 0 0.5 0 0.9-0.2-0.9-0.4-1.9-0.3-1-0.6-1.9-0.3-0.9-0.6-1.9-0.4-0.9-0.7-1.8 0-0.1-0.1-0.1 0 0 0 0 0 0 0 0-0.1 0-0.1 0.1c0.8 3 1.6 6.1 2.3 9.2 0.6 3.1 1.1 6.2 1.7 9.3 0 0.1 0.2 0.1 0.2 0q-0.1-1.2-0.2-2.3-0.1-1.2-0.2-2.4-0.2-1.1-0.4-2.3-0.2-1.2-0.5-2.3z"/><path class="c" d="m281.8 110.3c0 0.5-0.2 1-0.7 1.2-0.4 0.2-0.9 0.1-1.3-0.3-0.3-0.3-0.4-0.8-0.2-1.2 0.1-0.5 0.6-0.8 1-0.8q0.3 0 0.5 0.1 0.2 0.1 0.3 0.3 0.2 0.1 0.3 0.3 0.1 0.2 0.1 0.4z"/><path class="c" d="m280.9 122.1c-0.6 0-1.1-0.5-1.1-1.1 0-0.6 0.5-1.1 1.1-1.1 0.7 0 1.2 0.5 1.2 1.1 0 0.6-0.5 1.1-1.2 1.1z"/><path class="c" d="m274.7 140.7c-0.6 0-1.1-0.5-1.1-1.1 0-0.6 0.5-1.1 1.1-1.1 0.7 0 1.2 0.5 1.2 1.1 0 0.6-0.5 1.1-1.2 1.1z"/><path class="c" d="m271.4 150.5c-0.6 0-1.1-0.5-1.1-1.1 0-0.6 0.5-1.1 1.1-1.1 0.6 0 1.1 0.5 1.1 1.1 0 0.6-0.5 1.1-1.1 1.1z"/><path class="c" d="m279.6 131.6c-0.7 0-1.2-0.5-1.2-1.1 0-0.6 0.5-1.1 1.2-1.1 0.6 0 1.1 0.5 1.1 1.1 0 0.6-0.5 1.1-1.1 1.1z"/><path class="e" d="m259.7 88c-27.6 0.1-49.3 6-54.3 12.3-4.2 5.1-17.1 27.9-22.5 41.7-1.5 3.9 29.5 17.8 30.6 13.5 1.7-6.7 15.8-39.2 16-39.7 0.3-1.1 28.1-12.5 35.2-15.1 13-4.9 9.7-12.8-5-12.7z"/><path class="e" d="m193.3 191.8q-0.8-0.1-1.4-0.4-0.7-0.4-1.3-0.9-0.5-0.5-0.9-1.2-0.4-0.6-0.6-1.4-0.5 0.3-1.2 0.5-0.6 0.2-1.2 0.2-0.6 0.1-1.3 0.1-0.6-0.1-1.3-0.2c-2.9-0.9-2.8-5.9-2.8-5.9q-0.7 0.2-1.3 0.3-0.7 0-1.4 0-0.7 0-1.3-0.2-0.7-0.1-1.4-0.3c-2.7-1.1-3.3-6.1-3.3-6.1q-0.7-0.2-1.3-0.5-0.7-0.3-1.3-0.7-0.6-0.4-1.1-0.9-0.5-0.5-0.9-1.1c-2.7-4.4 0.7-11.4 2.8-15.9 2.1-4.5 12.4-15.3 14.1-17.6l29.1 13.4c0 0-3.8 22.9-7 27.8-2.8 4.2-9.9 11.4-13.7 11z"/><path class="c" d="m189.7 187.9c4-3.7 6.6-8.4 9.5-12.9 0.1-0.1-0.1-0.2-0.1-0.1-2.9 4.5-6.6 8.5-9.6 12.9q0 0 0 0.1 0 0 0 0.1 0.1 0 0.1 0 0.1 0 0.1-0.1z"/><path class="c" d="m181.7 182.7q0.3-0.3 0.6-0.7 0.3-0.3 0.6-0.7 0.2-0.4 0.4-0.8 0.3-0.4 0.5-0.8 1-1.8 1.9-3.5c1.2-2.4 2.4-4.7 3.5-7.1 0-0.1-0.1-0.2-0.2-0.1-1.2 2.3-2.5 4.7-3.8 6.9-0.7 1.1-1.4 2.2-2 3.4q-0.3 0.3-0.5 0.7-0.3 0.4-0.5 0.8-0.2 0.4-0.4 0.9-0.2 0.4-0.4 0.8 0 0.1 0 0.2 0 0 0.1 0.1 0 0 0.1 0 0.1 0 0.1-0.1z"/><path class="c" d="m172.6 176.2q0.3-0.3 0.6-0.7 0.2-0.3 0.4-0.7 0.2-0.3 0.4-0.7 0.2-0.4 0.3-0.8 0.9-1.6 1.7-3.2c1.2-2.1 2.2-4.3 3.4-6.3q0-0.1 0-0.1 0-0.1-0.1-0.1 0 0 0 0-0.1 0-0.1 0.1c-1.2 2.1-2.4 4.2-3.6 6.3q-0.9 1.6-1.8 3.2-0.2 0.3-0.4 0.7-0.2 0.3-0.3 0.7-0.2 0.4-0.3 0.8-0.2 0.3-0.3 0.7c0 0.3 0.1 0.1 0.1 0.1z"/><path class="g" d="m220.7 140.2l-31.2-15.4c0 0 10.4-23.4 16.6-27.9 6.3-4.6 33.1-9.3 52.6-9.2 19.9 0.2 20.7 8.1 2.1 14.9-18.7 6.7-30.7 12.9-30.8 13.4-0.1 0.6-9.3 24.2-9.3 24.2z"/><path class="c" d="m222.5 136.6c1.3-3.3 7.7-20.4 7.9-20.5 0.4-0.3 7.6-3.8 9.7-4.8q2.7-1.3 5.4-2.5c1.6-0.4 3.1-0.7 4.6-1.2q0 0 0 0 0.1-0.1 0.1-0.1 0 0-0.1 0 0-0.1 0-0.1-0.4 0.1-0.8 0.1-0.4 0.1-0.8 0.2-0.4 0.1-0.8 0.2-0.4 0.1-0.8 0.2l6-2.8c0 0 0-0.1 0 0-4.5 1.5-22.9 9.7-23 10 0 0.3-7.5 20.5-7.6 20.9-0.1 0.3 0.1 0.5 0.2 0.4z"/><path class="c" d="m220.7 131.7c0.1 0 0.2-0.1 0.1-0.1q-3.2-1.8-6.4-3.4-3.2-1.6-6.5-3.2-3.3-1.5-6.6-3-3.3-1.4-6.6-2.8c-0.1 0-0.2 0.2-0.1 0.2q3.2 1.7 6.4 3.4 3.2 1.6 6.5 3.1 3.3 1.6 6.6 3 3.3 1.5 6.6 2.8z"/><path class="e" d="m274.4 89.8c0 1.1 3.5 9.8 8.6 10.8 1.7 0.4 4-8.7 4-8.7l0.3-0.7 4.5-8.8-9.3-9.9-1.3-1.4c0 0-1.1 2.5-2.4 5.7q-0.1 0.2-0.2 0.4-0.1 0.3-0.2 0.5-0.3 0.7-0.6 1.5c-0.2 0.4-0.3 0.7-0.4 1.1l-0.4 1.2q-0.4 1-0.8 2-0.4 1.1-0.7 2.1-0.3 1-0.6 2.1-0.3 1-0.5 2.1z"/><path class="c" d="m278.8 76.8q0.2 2.1 0.9 4.2 0.6 2.1 1.7 3.9 1.1 1.9 2.6 3.5 1.5 1.6 3.3 2.8l4.5-8.8-9.3-9.9-1.3-1.4c0 0-1.1 2.5-2.4 5.7z"/><path class="e" d="m307.6 64.9c3.5 17.1-6.3 21.2-10 21.9-3.4 0.7-14.9 2.6-20.1-14.1-5.3-16.6 1.6-23.6 9.2-25.6 7.5-1.9 17.4 0.8 20.9 17.8z"/><path class="c" d="m301.9 74.5q-0.2 0.3-0.3 0.6-0.2 0.2-0.4 0.5-0.2 0.2-0.4 0.5-0.2 0.2-0.5 0.4-0.1 0.1-0.3 0.2-0.1 0.1-0.3 0.1-0.2 0.1-0.3 0.1-0.2 0-0.4 0.1c-1 0-1.3-0.9-1.3-1.7q0-0.2 0-0.3 0-0.2 0-0.4 0-0.1 0.1-0.3 0-0.1 0-0.3 0.5 0.2 1 0.4 0.5 0.1 1 0.2 0.5 0 1 0 0.5 0 1.1-0.1z"/><path class="i" d="m300.3 76.5q-0.1 0.1-0.3 0.2-0.1 0.1-0.3 0.1-0.2 0.1-0.3 0.1-0.2 0-0.4 0.1c-1 0-1.3-0.9-1.3-1.7q0.4-0.1 0.8-0.1 0.4 0.1 0.7 0.2 0.4 0.2 0.7 0.5 0.3 0.3 0.4 0.6z"/><path class="c" d="m303.5 60.8q-0.1 0-0.3 0-0.1 0-0.3 0-0.1 0-0.3 0-0.1 0-0.3 0-0.1 0-0.3 0-0.1 0-0.3-0.1-0.2 0-0.3 0-0.1-0.1-0.3-0.2-0.1 0-0.1-0.1-0.1-0.1-0.1-0.2 0-0.1 0-0.2 0-0.1 0.1-0.2 0.1-0.2 0.2-0.3 0.2-0.2 0.4-0.2 0.2-0.1 0.4-0.2 0.2 0 0.4 0 0.2 0 0.4 0 0.2 0.1 0.4 0.1 0.2 0.1 0.4 0.2 0.2 0.1 0.3 0.2 0.2 0.2 0.2 0.4 0 0.2 0 0.3-0.1 0.2-0.3 0.3-0.1 0.2-0.3 0.2z"/><path class="c" d="m292.5 64.6q0.2 0 0.3 0 0.2 0 0.3 0 0.2 0 0.3 0 0.2-0.1 0.3-0.1 0.2 0 0.3 0 0.2 0 0.3-0.1 0.2 0 0.3-0.1 0.2-0.1 0.3-0.2 0 0 0.1-0.1 0-0.1 0-0.2 0-0.1 0-0.2 0-0.1-0.1-0.2-0.1-0.2-0.3-0.3-0.1-0.1-0.3-0.2-0.2 0-0.4-0.1-0.2 0-0.4 0.1-0.2 0-0.4 0-0.2 0.1-0.4 0.2-0.2 0.1-0.4 0.2-0.2 0.1-0.3 0.2-0.2 0.2-0.2 0.4 0 0.2 0.1 0.4 0.1 0.2 0.3 0.3 0.1 0.1 0.3 0z"/><path class="c" d="m295.8 68c0 0-0.1 0 0 0.1 0.3 1.2 0.4 2.5-0.6 3.1 0 0 0 0.1 0 0.1 1.3-0.5 1.1-2.3 0.6-3.3z"/><path class="c" d="m294.5 67c-1.9 0.3-1.1 4.1 0.6 3.8 1.7-0.2 1-4.1-0.6-3.8z"/><path class="c" d="m293.8 67.3c-0.3 0.3-0.5 0.7-0.9 0.9-0.4 0.1-0.9-0.2-1.3-0.6 0.1 0.8 0.6 1.4 1.4 1.4 0.8 0 1.1-0.8 1.1-1.5 0-0.1-0.2-0.3-0.3-0.2z"/><path class="c" d="m302.2 66.3c0 0 0.1 0 0.1 0.1 0.1 1.2 0.5 2.5 1.7 2.7-1.4 0.1-1.9-1.6-1.8-2.8z"/><path class="c" d="m303 64.9c1.9-0.5 2.7 3.3 1 3.7-1.7 0.5-2.6-3.3-1-3.7z"/><path class="c" d="m303.8 65c0.4 0.1 0.7 0.4 1.1 0.4 0.4-0.1 0.6-0.6 0.8-1 0 0 0 0 0.1 0 0.1 0.7 0.1 1.5-0.6 1.8-0.7 0.3-1.2-0.3-1.5-0.9-0.1-0.1 0-0.4 0.1-0.3z"/><path class="c" d="m297.3 77.5c0.3 0.2 0.6 0.6 1.1 0.6q0.1-0.1 0.3-0.1 0.2-0.1 0.3-0.1 0.2-0.1 0.3-0.2 0.2 0 0.3-0.1h0.1q-0.2 0.2-0.4 0.3-0.1 0.2-0.3 0.3-0.2 0.1-0.4 0.2-0.2 0-0.4 0-0.2 0-0.3-0.1-0.2-0.1-0.3-0.2-0.2-0.1-0.3-0.3 0-0.1-0.1-0.3 0 0 0 0 0 0 0 0 0.1 0 0.1 0 0 0 0 0z"/><path class="c" d="m301.6 72c0 0 0.6 1.7 0.8 2.5 0 0.1-0.2 0.1-0.5 0.2q-0.5 0.2-1 0.3-0.6 0-1.1-0.1-0.5 0-1-0.3-0.5-0.2-0.9-0.6-0.1 0-0.1 0 0-0.1 0-0.1 0.1 0 0.1 0 0 0 0 0 0.5 0.2 1 0.3 0.4 0.1 0.9 0.1 0.5 0.1 1 0 0.5 0 0.9-0.1c0-0.2-1.1-2.9-1-2.9q0.3 0 0.5-0.1 0.3 0 0.5 0 0.3 0 0.5 0 0.2 0.1 0.5 0.1c-1.2-3.5-2.8-6.9-3.9-10.5 0-0.1 0.1-0.2 0.2-0.1q0.7 1.3 1.4 2.7 0.6 1.4 1.2 2.7 0.6 1.4 1.1 2.9 0.5 1.4 1 2.8c0.1 0.5-1.7 0.3-2.1 0.2z"/><path class="c" d="m279 74.8c2.9-0.5 2-6.6 2-6.6 0 0 5.7-1.5 5.4-10.2q0.2 0.9 0.2 1.9 0.1 0.9 0 1.9-0.1 0.9-0.3 1.9-0.3 0.9-0.6 1.8c-0.3 0.6 9.8-3.8 11.8-13.4 0 0-0.5 4.8-1.7 6.7q0.8-0.5 1.6-1.2 0.8-0.7 1.4-1.5 0.7-0.8 1.2-1.7 0.5-0.9 0.8-1.8c0.3-0.7 3.1 4.4 4.8 5.3 0 0-0.5-9.1-5.4-12.6-10.3-7.2-20.3 4.6-20.3 4.6 0 0-6.6 3.1-7.5 9-1.5 9.1 6.6 15.9 6.6 15.9z"/><path class="e" d="m281 73.2c0 0-4.1-5.2-6.5-3.7-2.4 1.6 1 9.3 4 10.1q0.5 0.2 1.1 0.2 0.6 0 1.2-0.3 0.5-0.2 0.9-0.7 0.4-0.4 0.6-1z"/><path class="c" d="m275.5 71.7v0.1c2.1 0.6 3.3 2.4 4.2 4.3q-0.2-0.3-0.5-0.5-0.3-0.2-0.7-0.2-0.4-0.1-0.7 0.1-0.3 0.1-0.6 0.3 0 0 0 0 0 0.1 0 0.1 0 0 0 0 0.1 0 0.1 0 0.2-0.1 0.5-0.1 0.3 0 0.6 0 0.2 0.1 0.5 0.3 0.2 0.1 0.4 0.3 0.2 0.2 0.3 0.4 0.1 0.2 0.3 0.4 0.1 0.2 0.2 0.4 0.2 0.2 0.3 0.4c0.1 0.1 0.4 0 0.3-0.2-0.1-2.5-2.4-6-5.2-6.1z"/><path class="g" d="m286.9 92l-4.8 6.8-7-11.8-3.4 2.4c0 0 5.5 17.4 5.7 16.7l4.6-5.7 3.4 5.6 2.4-11.4z"/><path class="c" d="m286.9 100.4c0.3-1.9 0.7-3.8 1-5.7 0 0-0.1-0.1-0.2 0-0.8 1.7-2 9-2.4 10.7-0.2-0.3-3.2-5-3.3-5-0.9 0.9-4.3 5.1-4.6 5.5-0.8-2.8-4.2-12.8-5.4-15.5 0-0.1-0.1 0-0.1 0 0.6 2.8 5.1 16.3 5.2 16.3q0.7-0.7 1.3-1.4 0.6-0.8 1.3-1.5 0.6-0.8 1.2-1.6 0.6-0.7 1.1-1.5 0.4 0.7 0.8 1.5 0.4 0.7 0.9 1.5 0.4 0.7 0.9 1.5 0.4 0.7 0.9 1.4 0.2-0.8 0.4-1.5 0.2-0.8 0.4-1.6 0.2-0.8 0.3-1.5 0.2-0.8 0.3-1.6z"/><path class="a" d="m275.6 87.1c-0.8-2-3.1 2.2-1.3 4.6 2.6 3.6 7.7 7.9 8.8 7.9 1.1 0 4.6-4.4 5.1-5.4 0.4-1-0.6-3.1-0.9-2.9-0.4 0.2-3.4 4.9-3.9 5.1-0.4 0.3-6-5.1-7.8-9.3z"/></svg>