<svg version="1.2" xmlns="http://www.w3.org/2000/svg" viewBox="0 0 1500 1000" width="500" height="333"><defs><clipPath clipPathUnits="userSpaceOnUse" id="cp1"><path d="m350.79 747.41c0 0 4.26 72.4-29.16 112.29h-108.66c-33.42-39.89-29.16-112.29-29.16-112.29z"/></clipPath></defs><style>.a{fill:none;stroke:#a0b3ea;stroke-linejoin:round;stroke-width:3}.b{fill:#e3cdc5}.c{fill:none;stroke:#b28c80;stroke-miterlimit:10;stroke-width:2}.d{fill:none;stroke:#d8b6af;stroke-miterlimit:10;stroke-width:6}.e{fill:none;stroke:#b28c80;stroke-miterlimit:10;stroke-width:6}.f{fill:none;stroke:#a0b3ea;stroke-miterlimit:10;stroke-width:3}.g{fill:#361e14}.h{fill:none;stroke:#000;stroke-linejoin:round;stroke-width:2}.i{fill:#d37f59}.j{fill:#d1b0a1}.k{fill:none;stroke:#9e796a;stroke-linejoin:round;stroke-width:2}.l{fill:none;stroke:#5b392d;stroke-linejoin:round;stroke-width:2}.m{fill:#ffeadf}.n{fill:#ce9989}.o{fill:none;stroke:#aa7265;stroke-linejoin:round;stroke-width:2}.p{fill:none;stroke:#fff;stroke-miterlimit:10;stroke-width:2}.q{fill:#ce9989;stroke:#aa7265;stroke-linejoin:round;stroke-width:2}.r{fill:#fff}.s{fill:#272224}.t{fill:none;stroke:#473f42;stroke-linejoin:round;stroke-width:2}.u{fill:#628e6a}.v{fill:#7ea882}.w{fill:#fff8dc}.x{fill:none;stroke:#f2e3b3;stroke-miterlimit:10;stroke-width:3}.y{fill:#9ab79c}.z{fill:#c67761}.A{fill:#1e1a1c}.B{fill:#1b1b38}.C{fill:none;stroke:#252549;stroke-miterlimit:10;stroke-width:2}.D{fill:#efa084}.E{fill:#42393d}.F{fill:none;stroke:#1e1a1c;stroke-miterlimit:10;stroke-width:2}.G{fill:#252549}.H{fill:none;stroke:#434360;stroke-miterlimit:10;stroke-width:2}.I{fill:#643021}.J{fill:none;stroke:#3d1d18;stroke-miterlimit:10;stroke-width:2}.K{fill:#efa084;stroke:#000;stroke-linejoin:round;stroke-width:2}.L{fill:#efa084;stroke:#000;stroke-miterlimit:10;stroke-width:2}.M{fill:#8696db}.N{fill:none;stroke:#e8ecf9;stroke-miterlimit:10;stroke-width:2}.O{fill:#3f3b63}.P{fill:none;stroke:#c6a497;stroke-linejoin:round;stroke-width:6}.Q{fill:#ffd18d}.R{fill:none;stroke:#e8a656;stroke-linejoin:round;stroke-width:2}.S{fill:none;stroke:#8c614d;stroke-linejoin:round;stroke-width:6}.T{fill:#f4aa78}.U{fill:#ffeac5}.V{fill:none;stroke:#fff;stroke-linejoin:round;stroke-width:2}.W{fill:none;stroke:#c5cfea;stroke-linejoin:round;stroke-width:3}.X{fill:#f9baaf}.Y{fill:#e89287}.Z{fill:none;stroke:#c16861;stroke-miterlimit:10;stroke-width:3}.a0{fill:#c16861}.a1{fill:#eff2f9}.a2{fill:#9b9bce}.a3{fill:#c6d4f4}</style><path class="a" d="m1378.2 739.3l14.1 14.2"/><path class="a" d="m1392.3 739.3l-14.1 14.2"/><path class="a" d="m397.7 721.3l14.2 14.1"/><path class="a" d="m411.9 721.3l-14.2 14.1"/><path class="a" d="m1011.8 78.2l14.2 14.2"/><path class="a" d="m1026 78.2l-14.2 14.2"/><path class="a" d="m784.3 164.4l14.2 14.2"/><path class="a" d="m798.5 164.4l-14.2 14.2"/><path class="a" d="m653.1 95h58.9"/><path class="a" d="m728.5 95h45.7"/><path class="a" d="m726.7 468.5h-64.9c-9.1 0-16.5-7.3-16.5-16.4 0-9.1 7.4-16.5 16.5-16.5h64.9c9.1 0 16.5 7.4 16.5 16.5 0 9.1-7.4 16.4-16.5 16.4z"/><path class="a" d="m1305 228.5h-32.1c-6.4 0-11.6 5.1-11.6 11.5 0 6.3 5.2 11.5 11.6 11.5h32.1c6.4 0 11.6-5.2 11.6-11.5 0-6.4-5.2-11.5-11.6-11.5z"/><path class="a" d="m870.6 291.9h-29.6c-11.7 0-21.2 9.5-21.2 21.2 0 11.7 9.5 21.2 21.2 21.2h29.6c11.7 0 21.2-9.5 21.2-21.2 0-11.7-9.5-21.2-21.2-21.2z"/><path class="a" d="m1229 132.6h36"/><path class="a" d="m155.4 255h73"/><path class="b" d="m707.6 681.8h-464c-15.7 0-29.2-11.5-31.9-27.3l-45.4-264.4c-3.3-19.4 11.4-37.1 30.8-37.1h451.3c17.4 0 32.3 12.7 35.3 30l46.5 271.6c2.5 14.2-8.3 27.2-22.6 27.2z"/><path class="c" d="m249.7 637.3l-42-244.7c-1.7-9.9 5.9-19 15.8-19h426.5c9.4 0 17.4 6.8 19 16.2l42.4 247.6"/><path class="b" d="m870.2 681.8h-232.5c-7.1 0-13.2-5.2-14.4-12.3l-20-116.9c-1.7-9.6 5.7-18.5 15.4-18.5h205.9c18.8 0 34.9 13.7 38.1 32.4l17.6 103.1c1.1 6.3-3.7 12.2-10.1 12.2z"/><path class="c" d="m830.9 669.6l-17.7-103.1c-3.2-18.7-19.2-32.4-38-32.4h-115.3"/><path class="c" d="m833 681.8h-564.3v-39.4h548c5.5 0 10.2 4 11.1 9.4z"/><path class="d" d="m603.3 818.3l29.9-117.7c2.9-11.2 10.8-18.8 19.7-18.8h201.7c9.4 0 17.6 8.3 20.1 20.3l24 116.2"/><path class="d" d="m840.2 681.8h-596.6"/><path class="b" d="m438 681.8h-232.5c-7.1 0-13.2-5.2-14.4-12.3l-20-116.9c-1.7-9.6 5.7-18.5 15.4-18.5h205.9c18.8 0 34.9 13.7 38.1 32.4l17.6 103.1c1.1 6.3-3.7 12.2-10.1 12.2z"/><path class="c" d="m438 681.8h-232.5c-7.1 0-13.2-5.2-14.4-12.3l-20-116.9c-1.7-9.6 5.7-18.5 15.4-18.5h205.9c18.8 0 34.9 13.7 38.1 32.4l17.6 103.1c1.1 6.3-3.7 12.2-10.1 12.2z"/><path class="c" d="m388.5 681.8c6.4 0 11.3-5.9 10.2-12.2l-17.7-103.1c-3.2-18.7-19.2-32.4-38-32.4h-151.7"/><path class="e" d="m170.8 818.3l29.9-117.7c2.8-11.2 10.8-18.8 19.7-18.8h201.7c9.4 0 17.6 8.3 20.1 20.3l24 116.2"/><path class="f" d="m118.6 818.3h832.9"/><path class="g" d="m581 499.4l22 21.8c0 0 103.7 22.1 123.2 28.2 29.3 9 55.4 26.7 49.5 78.3-7.7 67-24 161.3-24 161.3l-79.6-21.7 12.5-131.7c0 0-122-17.2-146.9-31.5-24.8-14.4-33.3-82.9-33.3-82.9"/><path class="h" d="m685.3 635.3c11.7-5.1 23.2-11.1 34.1-18"/><path class="i" d="m749.5 784.6l15.7 31.4c0 0 26.4 14.1 35.6 19.1-4.4 1.1-130.8 2.6-130.7 1.8 0.2-6.5 1.5-10.3 1.2-18.8-0.1-4-7.2-29.2-7.2-29.2"/><path class="j" d="m670.5 818.1l93.8-3.8c0 0 41.1 22.9 47.4 27.8 6.3 4.9 10.9 11.4 11.1 17.6-7.4 0-155.1 0-155.1 0 0 0 1.3-25.8 2.8-41.6z"/><path class="k" d="m668.4 848.2h149.5"/><path class="k" d="m669.8 827c0 0 16.8 3.9 24.4 21.2"/><path class="k" d="m771.2 818.1l-17.6 8.9"/><path class="k" d="m783 824.3l-17.6 8.8"/><path class="g" d="m450 546.5c0 0 11.5 97.7 59.8 97.7 48.3 0 93.2 0 93.2 0l55.5 165.7 97-14.3c0 0-55-171-66.1-199.9-6.4-16.5-19.8-32-60-39.8-40.1-7.7-67.9-9.4-67.9-9.4l-31.4-40.8"/><path class="h" d="m603 644.2h25"/><path class="l" d="m650.1 784.6l96.9-15.2"/><path class="h" d="m676 616.4c0.6 16.8-0.7 33.8-3.9 50.4"/><path class="h" d="m684.7 635.8q0.1 13.7 1.5 27.3"/><path class="h" d="m751.9 784.6c-16.6-51.3-54.5-168.1-62.5-188.9-6.4-16.5-19.8-32-60-39.8-40.1-7.7-61.8-9.4-61.8-9.4l-26.7-40.8"/><path class="f" d="m593.9 859.7h243.5"/><path class="i" d="m701.9 354.8c0 0 11.3-19.4 12.2-19.9 0.7-0.5 43.6-14.4 50.9-17.1q2-0.8 3.9-1.6c0.9-0.4 2.3-0.7 3-1.6 1.2-1.8 0.6-2.6-0.6-3.6-4.1-3.6-13.3-0.4-18.1-0.1-4.3 0.3-8.7-0.5-8.7-0.5 0 0 18.7-0.8 27.8-4.1 2.2-0.8 10.4-2.6 8.9-6.4-0.3-0.7-0.7-1.7-2.9-2.8-1.7-0.7-2.8-0.7-2.8-0.7 0 0 5.2-1.2 5.1-2.7-0.1-3-5.4-4.9-7-4.9-8.9 0.2-22.4 0.9-22.4 0.9 0 0 8-2.1 10.8-3.3 1.7-0.8 4.2-1.4 5.5-2.8 0.2-0.3 0.5-0.5 0.6-0.9 0.8-2.8-4.1-3.8-5.7-3.6-6.1 0.7-12 2.3-17.9 3.7-6.7 1.6-21.6-0.5-21.6-0.5 0 0 3.4-4.1 4.7-5.4 1.3-1.3 2.6-2.6 3.5-4.2 2-3.5 0.4-7.4-3-5.9-9.1 4.2-19 7.8-28 12.3-7.8 3.9-15.4 8.6-22 14.5-6.9 6-11.9 13.7-17 21.2q-4.1 6-8 12.2"/><path class="h" d="m752.6 289.4c-4.3 0.6-16.2 1.7-16.2 1.7"/><path class="h" d="m776.1 296.4c-4.4 0.6-10.3 2.2-16.3 2.7-9.4 0.8-18.3 0-18.3 0"/><path class="h" d="m744.9 310.2c-6.2 0.2-12.1-0.9-18.3-1.6q-7-0.8-14.1-0.5c-3.4 0.2-9.1-0.1-12 2.1"/><path class="m" d="m653.4 321.8l12.2-17 54.4 29.4-16.9 26.8"/><path class="n" d="m492.7 313.8c0 0 27.8-5.6 39.1-2.7 11.3 3 27.6 16.6 45.2 31.1 17.5 14.5 37 31.4 37 31.4l44.5-61.2 58.2 31.6c0 0-46.4 85.3-56.6 98-8.4 10.4-28.8 33.7-58.9 13.3-30.1-20.4-62.3-47.4-62.3-47.4"/><path class="o" d="m706.8 346.6c0 1.4-1.1 2.6-2.5 2.6-1.4 0-2.6-1.2-2.6-2.6 0-1.4 1.2-2.6 2.6-2.6 1.4 0 2.5 1.2 2.5 2.6z"/><path class="o" d="m702.6 336.4l-11.4 17.7"/><path class="m" d="m386.4 335.7l44-19.5c0 0 10.9 7.6 36.6 9.1 17 1 21.7-7 24.1-9.1 2.4-2 24.2 9.3 24.2 9.3l94.2 190.4c-9.2 31.7-159.7 33.5-159.7 33.5z"/><path class="h" d="m414.9 323.5c16.2 12.1 41.1 16.6 59.9 15.2 12.9-1 21.9-5.1 25.9-18.1"/><path class="p" d="m381.2 363.7c56.3 0.2 115.7 3.8 168.7-14.2"/><path class="p" d="m395.1 407.4c56.3 0.2 115.7 3.8 168.7-14.2"/><path class="p" d="m409.7 450.4c56.3 0.1 115.7 3.8 168.7-14.3"/><path class="p" d="m420.1 486c56.3 0.2 115.7 3.8 168.7-14.2"/><path class="p" d="m438.2 519.8c57.8 0.2 118.8 5.9 173.2-22.4"/><path class="n" d="m483.4 314.4c15.1 19.7 26.4 42 37.3 64.4 24.3 50.2 67.4 161.4 70.4 162.6 2.8 1.1 39.5-9.1 53.2-13.7 0 0-10.5-16.5-26.1-44.3-15.7-27.8-59.7-121.2-68.3-133.9-8.6-12.8-35.7-37.1-35.7-37.1z"/><path class="o" d="m520.3 357.2c3.3 6.5 6.5 13 9.7 19.5 24.2 50.2 70.3 162.6 70.3 162.6"/><path class="o" d="m510.8 359c2.6-0.9 29.6-4.1 28-11.9-1.4-6.8-24-31-27.5-34.7"/><path class="h" d="m614 373.6l-17.2 24.3"/><path class="o" d="m569.5 386.8c-1 0.5-21.3 7.4-21.3 7.4 0 0 9.7 13.9 13.4 14.5 3.6 0.6 16.6-4.4 16.6-4.4"/><path class="o" d="m548.2 394.2c0 0 18.3 39.5 23.3 40.1 5.1 0.6 19.3-4.9 19.3-4.9"/><path class="h" d="m605.4 457.9c0 0-43.9-84-46.5-98.4"/><path class="o" d="m644.3 331.8l62.5 30.8"/><path class="n" d="m389.8 326.9l31.9-7.1c0 0 32.3 47 59 105.8 20.4 45.1 52 130.7 51.1 135.7-0.9 4.9-70.9 20.2-79.3 17.8-4.5-1.4-33.2-83.3-38.6-92.5-5.4-9.1-47.8-96-47.8-96z"/><path class="o" d="m392.2 326.4c0 0 12.7 44.5 20.3 47.2 7.6 2.7 38.6-5.9 38.6-5.9"/><path class="o" d="m438.1 370.9c0 0 40.2 82.6 53 113.3 12.8 30.8 29.5 79.9 29.5 79.9"/><path class="q" d="m478.1 453.2c-2.1 3.6-39.4 14.8-43.1 13.5-5.4-2-19.4-42.9-19.4-42.9l49.9-13.3c0 0 14.6 39.1 12.6 42.7z"/><path class="q" d="m465.5 410.5l-49.9 13.3c0 0 9.9 18.6 13.7 19.6 4.1 1 41.8-8.4 43.7-11.2 1.8-2.8-7.5-21.7-7.5-21.7z"/><path class="i" d="m447.7 304.8c-12.2-7-23.5-18.4-27.8-32.2-5.6-17.9 2.8-36.6 19-45.1 12.2-6.4 25.6-7.8 37.8-1.2 9.1 4.9 14 14.6 17.5 23.8 2.8 7.4 5.6 14.8 8.1 22.3 3.9 11.9 3.3 27.7-8.3 35.3-13.6 8.9-31.4 5.5-46.3-2.9z"/><path  d="m469.6 267c0.6 2.1-0.1 4.1-1.6 4.5-1.4 0.4-3-0.9-3.6-3-0.6-2 0.1-4 1.5-4.4 1.5-0.4 3.1 0.9 3.7 2.9z"/><path  d="m493.7 261.7c0.5 2.1-0.1 4.1-1.6 4.5-1.4 0.4-3-0.9-3.6-3-0.6-2 0.1-4 1.5-4.4 1.5-0.4 3.1 0.9 3.7 2.9z"/><path class="h" d="m454.8 263.4c3.3-4.5 8.7-7.3 14.2-7.4"/><path class="h" d="m482.7 253c3.6-1.5 7.7-2.6 11.3-1.3"/><path class="i" d="m431.2 283.6l-6.5 35.9c0 0 14 8.5 36.6 11.3 18.3 2.3 26.1-3.4 26.1-3.4l2.6-23.5"/><path class="h" d="m479.5 254.8c1.9 4.3 4.4 8.5 7.3 12.6 1.2 1.6 2.5 3.3 2 5.1-0.3 1.3-1.8 2.4-3.5 3.1-1.6 0.7-3.6 1-5.5 1.4"/><path class="r" d="m478.1 284.6c2.2 9 18.7 13.6 15.3-3z"/><path class="h" d="m459.5 309c10.3 4.1 21 4.5 30.7 0.7"/><path class="s" d="m496.3 231.7q-0.3-0.3-0.5-0.6c-0.6-1.3-0.1-3 0.7-4.3 0.8-1.2 1.8-2.4 2-3.9 0.3-2.9-2.4-5.2-5-6.2-2.7-1-5.6-1.4-7.7-3.3-2.5-2.2-3-5.8-4.6-8.7-1.6-3.2-4.6-5.5-8-6.4-3.7-0.9-7.6-0.1-11.3 1-4.4 1.4-8.6 3.2-12.6 5.5-3.5 2-6.9 4.4-10.8 5.2-2.4 0.6-5 0.6-7.4 1.2-2.8 0.7-5.4 2.3-7.8 3.8-7.6 4.9-11.6 12.2-14.4 20.7-0.5 1.4-1 2.8-1.8 4.1-0.9 1.5-2.2 2.6-3.4 3.8-6 6.5-7.9 20.3-4.7 28.6 1.1 2.7 2.8 5.2 4.7 7.4 3.6 4.3 8.2 7.6 12.5 11.2 4.5 3.9 7.3 8.6 11 13.1 0.2 0.2 0.3 0.4 0.5 0.4 0.3 0 0.4-0.2 0.6-0.4 2.7-3.6 4.1-8 4.7-12.5 0.9-5.9-0.4-12.1 1.4-17.8 1.7-5.3 3.7-10.6 5-16 0.3-1.4 0.6-2.8 1.4-4 2.9-4.9 11.1-4.5 13.5-9.6 0.5-1.1 0.8-2.4 1.9-3 0.5-0.2 1.2-0.2 1.8-0.2 5.3-0.1 10.5-2.6 13.9-6.6 2.7 1.6 5.8 2.3 8.9 2 1.6-0.2 3.6-0.8 5.1 0.2 1.2 0.8 2.2 2.8 3 4 0.7 1 5.8 7.9 5.1 9 1.9-2.9 3.9-5.9 4.8-9.2 0.7-2.4 0.7-5.2-0.9-7-0.5-0.5-1.1-1-1.6-1.5z"/><path class="t" d="m455.5 240.9c1-0.7 1.2-1.9 1.5-3 0.8-2.6 2.2-5.1 4.1-7"/><path class="t" d="m472 234.2c1.7-2.8 3.2-5.8 4.4-9"/><path class="t" d="m485 235.4c2.8-0.2 5.6-1.3 7.7-3.2"/><path class="t" d="m471.7 213.6c0 3.3-1.9 6.6-4.7 8.3-1.8 1-2.4 2.8-3.3 4.7"/><path class="t" d="m406.8 240.3c8.1-1.7 16.9-0.4 24.3 3.4"/><path class="t" d="m417.5 251.5c-1.2 3-2.1 6.1-2.2 9.4-0.3 4.8 1.3 9.7 3.7 13.9 2.3 4.3 5.4 8.1 8.5 11.8"/><path class="t" d="m408 273.4c1.6 4.4 5.1 8 9.3 9.8"/><path class="i" d="m425.8 273.1c-6 3.1-5.8 12.7-3 17.8 1.8 3.2 5 5.7 8.1 7.5 3.8 2.2 6.9 2.6 11.2 1.3 1.2-0.3 2.4-0.7 3.5-1.5 5.8-4.3-2.6-14.5-5.2-18.4-1.5-2.2-3.1-4.4-5.3-6-3-2.1-6.1-2.3-9.3-0.7z"/><path class="h" d="m427.8 283.3c5.6 0.8 8.9 2.7 14.3 4.4"/><path class="h" d="m424 274.1c2-1.9 4.9-2.5 7.5-2 2.6 0.5 5 2.1 6.6 4.3"/><path class="h" d="m433.4 299.7c1.5 0.7 3 1 4.6 1.1 2.2 0.1 4.6-0.3 6.4-1.6 1.9-1.2 3.3-3.3 3.8-5.5"/><path class="i" d="m441.4 505.7c18 7.5 38.3 15.7 48.8 26.3 6.1 6.2 11.9 13.7 13.9 22.4 1.7 6.8 2.1 10.4 2.9 17.3 0.1 1.6 0.1 5.3-0.6 6.8-0.7 1.4-3 0.5-3 0.5 0 0 0.3 7.5-1.4 8-3.1 1.1-5-1-5.9-1.9-4 1.4-5.9 2.6-9-0.9 0.2 0.9-1.4 1.8-2.4 1.8-0.9-0.1-5-0.3-5.7-0.9-4.3-3.4-7.7-8.1-12.1-11.4-3.3-2.5-6.9-5.3-10.5-7.1-3.8-1.8-8-2.6-12.1-3.7-7.7-2-15.3-5.6-20.7-11.8-1.7-2-3.2-4.2-5.1-5.9-2-1.8-4.3-3-6.6-4.1"/><path class="h" d="m487.1 584.2c0.1-1.2-6.4-11.1-8.8-14-4.1-5.2-12.8-11.8-12.8-11.8"/><path class="h" d="m496.1 585.1c0 0-5.3-15.3-9-21.9-3.6-6.6-12-13.8-12-13.8"/><path class="h" d="m503.4 579c0 0-2.6-16.3-5.2-21.5-2.7-5.2-14.9-19.5-14.9-19.5"/><path class="m" d="m413.5 554l15.4 8.7 32.6-48.4-23.4-11.8"/><path class="n" d="m389.8 326.9c0 0-2.8 0.5-9 2.4-20.6 6.4-33 28.5-41.5 48.9-8.6 20.3-16.7 40.9-23.7 61.8-9 26.8-25.2 62.5 2.3 84.1 7.8 6 18.9 10.8 30.2 14.5 27.3 8.8 68.1 22.7 68.1 22.7l36.3-52.4-60.3-29.5 24-80.7"/><path class="o" d="m426.4 546.5l-21.6-7.9"/><path class="o" d="m415.1 549.8c0 1.5-1.2 2.6-2.6 2.6-1.4 0-2.6-1.1-2.6-2.6 0-1.4 1.2-2.5 2.6-2.5 1.4 0 2.6 1.1 2.6 2.5z"/><path class="o" d="m431.8 499.4l-37.5 54.3"/><path class="h" d="m398.6 457.9l13.3-44.7"/><path class="h" d="m415.1 490.6l37.4 18.3"/><path class="h" d="m392.2 479.1c-8.2-1.9-20.6-4.5-29-4-4.7 0.3-9.4 1-13.8 2.9"/><path class="h" d="m512.1 252.7l33.7-20.9"/><path class="h" d="m520.2 269.9l41-11.4"/><path class="h" d="m523 286.6l38.1 4.8"/><path class="u" d="m268.3 764.4c-0.4-45.9-12.5-91.2-11.7-137 0.9-50.1 17.7-99.8 47.3-139.9 1.1-1.4 2.7-3.1 4.4-2.6 1.1 0.3 1.7 1.3 2.3 2.2 3.1 5.1 4.6 11.1 5.7 17.1 5.1 28.3 2.7 58-6.8 85 9.9 5.2 16.4 15.9 18 27.2 1.6 11.2-1.3 22.8-6.7 32.7-1.3 2.4-2.8 5.1-2.3 7.8 0.4 1.9 1.7 3.5 2.8 5.1 4.6 7 5.4 16.1 3.6 24.3-1.9 8.2-6 15.6-10.6 22.6-9.3 14.3-20.7 27.2-33.5 38.3"/><path class="v" d="m277.1 756.4c-2.1-9.2 2.8-18.3 7.7-26.3 12.2-19.6 25.8-38.5 43.2-53.5 17.3-15 38.7-26 61.4-27.9 2.7-0.2 5.8-0.1 7.8 1.8 3 3 1.5 8.2-0.6 11.9-4.8 8.6-11.7 16-19.8 21.5-1.9 1.2-3.9 2.5-4.8 4.6-0.7 1.6-0.7 3.4-0.7 5.2-0.6 13.7-13 25.9-26.6 25.9 1.9 7.7-5.1 14.5-11.6 19-10.9 7.5-22.5 13.9-34.5 19.2"/><path class="h" d="m305.9 722.2c19.7-26 46.7-46.1 77-57.4"/><path class="v" d="m210.9 755.9c-8.5-15.9-28.6-31.9-37.1-42.1-8.5-10.3-14.6-26.2 3.4-29.7-23.9-4.8-43.5-24.4-47-47-0.7-4.7-0.8-9.5 1.3-13.8 2-4.2 6.5-7.7 11.5-7.5-5.9-12.7-9.3-26.3-10.2-40.2-0.2-4 0-8.7 3.3-11.4 2.6-2.1 6.5-2.4 9.9-1.7 4.3 1 8.2 3.2 11.8 5.6 31.7 20.6 54.4 51.7 68.3 85.2 13.9 33.6 19.6 69.8 21.8 105.7"/><path class="h" d="m159.2 590.8c29.9 42.1 53.7 88.5 70.4 137.5"/><path class="u" d="m259.1 769.8c-12.4-9.8-23-22.4-31.2-36.8-1.5-2.6-2.9-5.3-3.6-8.3-0.7-3-0.6-6.4 0.8-9.1 1.4-2.6 4.3-4.4 7-3.7q-2.6-5.2-5.9-9.8c-3.1-4.4-6.6-8.4-9-13.3-4.3-8.8-6.7-21.2-1.4-30.2 1.3-2.2 3.1-4.1 3.8-6.6 0.6-2.5 0.1-5.2-0.5-7.7-4.3-19.3-10.4-38-14.5-57.4-4-19.3-6-39.7-2-59 0.6-2.9 1.3-5.8 3-8 1.7-2.2 4.4-3.7 6.9-2.7 1.3 0.5 2.4 1.6 3.4 2.7 29.3 32.1 46.4 76.4 54.3 121.6 7.8 45.2 7.1 91.7 5 137.8"/><path class="h" d="m259.5 594.2c10 40.4 17.3 98.8 18.9 131.1"/><path class="v" d="m261.3 759c-8.7-6.2-16.9-13.7-22.5-23-5.6-9.2-8.5-20.5-6.5-31.2 1.5-7.6 7.6-15.8 15.1-14.5 0.7 0.2 1.4 0.4 2.1 0.2 1.3-0.4 1.8-2 2.1-3.4 3-12.9 10.6-24.7 21.1-32.7 6.5-5 16.2-8.4 22.5-3.1 13.3 11.1 7.4 36 6.5 50.7 3.3-2 14.2-3 17.2-0.6 3 2.4 5 6 5.7 9.8 3.3 15.9-8.8 36.8-22.9 45.5"/><path class="h" d="m304.2 700.8c3.1-0.6 6.2-1.1 9.3-0.9 3.2 0.2 6.3 1.4 8.4 3.8 2.7 3.1 3 7.6 2.8 11.7-0.7 12.9-5.7 25.5-14 35.3"/><path class="h" d="m249.4 690.5c7.2-0.6 14.2 3.1 19.2 8.3 5.1 5.3 8.5 11.8 11.9 18.3"/><path class="h" d="m285.7 728.3c2.6 6.4 4.2 13.3 4.8 20.4"/><path class="h" d="m309.4 588.6c-5.6 2.7-10.2 7.3-13.7 12.4-3.6 5.2-6.2 10.9-8.8 16.5"/><path class="w" d="m350.8 747.4c0 0 4.3 72.4-29.2 112.3h-108.6c-33.5-39.9-29.2-112.3-29.2-112.3z"/><g clip-path="url(#cp1)"><path class="x" d="m160.3 762.9c10.3-2.9 21.6 0.1 29.9 8.1 5 4.8 6.8 10.8 14 11.5 4.4 0.4 8.8-0.6 13.1-0.3 4.4 0.2 9.1 2.2 11.1 6.8 1.3 2.9 1.3 6.4 2.4 9.4 2.2 5.8 7.9 8.1 12.4 11.6 4.9 3.8 9 10.1 10.2 17.2 0.9 5.7-1.7 11.1-5.8 13.9-8.1 5.5-27.5 2.9-39.9 0.4-9.7-2-21-3.7-28.8 5"/><path class="x" d="m206.6 731.2c3.7 7.1 7.5 14.3 12.1 20.4 4.7 6.1 10.4 11.3 16.9 13.5 9.8 3.2 20.6-0.2 29.8 4.8 7.2 3.9 12.1 12.2 18.1 18.6 4.5 4.7 9.8 8.5 15.6 9.5 5.8 1 12.1-1 16.1-6.4 7.4-9.6 5.6-26.7 13.1-36.2 4-5 10.3-7.3 13.1-13.6 1.2-2.8 1.5-6.2 1.8-9.4 0.9-9.4 1.7-19.2-0.8-28.1"/><path class="x" d="m362.3 767.9c-9.1-0.1-18.1 7.6-22.1 18.9-1.9 5.3-2.7 11.2-4.7 16.5-4.5 12-14.2 18.6-23.7 22.1-15.2 5.7-32.6 7.5-43 23.9-13.3 20.8 6.9 41.9 22.9 47.6 9.8 3.4 20.1 3.3 30.1 1.9 9.4-1.3 18.9-3.6 27.6-8.9 8.6-5.2 16.5-13.5 21.4-24.6"/></g><path class="f" d="m361.6 859.7h-170.3"/><path class="f" d="m420.1 859.7h-34.8"/><path class="y" d="m1112.7 897.7c-11.9-54.8-12.2-127-10.2-182.3 1.1-30.1 1.7-65.6 28.6-88 3.3-2.7 7-5.3 11.6-6.1 7.4-1.2 15.1 2.6 19.7 7.8 4.5 5.2 6.4 11.6 8.3 17.7 18.4-28.9 35.7-60.1 57.8-85.4 24.8-28.6 55.3-53.3 91-72.4 4.3-2.3 9.2-4.6 14.3-3.7 7.9 1.4 12.4 9.1 12.5 15.8 0.6 48.5-37.2 114.9-82.5 161.6 14 8.1 19.1 23.8 16.8 37.6-2.3 13.7-10.6 25.9-18.8 37.8q-49.3 71.7-98.6 143.4"/><path class="h" d="m1333.4 506.5c-92.3 101.8-164.9 221.5-212.6 350.5"/><path class="y" d="m1127.7 887.8c42.3-87.1 109.7-164.8 194.2-223.8 8.6-6 17.6-11.9 27.4-16 4.4-1.8 11.2-5.1 16.1-4.8 18.5 1 1.1 47.6-2.9 56-11.7 24.3-30.3 45.3-48.9 65.3 11.2-1.4 18.5 10.9 17.4 20.7-1.6 15.2-14 28.1-28.9 35.8-15 7.8-32.2 11.3-49.1 14.6 2.4 17.4-10.7 34.1-27.5 43.4-16.8 9.3-36.9 12.8-56.5 16.1"/><path class="u" d="m1083.5 889.1c-28.1-57.6-28.4-124.4-24.9-188.3 1-17.2 2.2-34.5 6.5-51.2 4.2-16.7 11.7-32.9 23.8-45.2 1.4-1.4 3.1-2.9 5.2-3.1 4.1-0.3 6.5 4.4 7.7 8.3 5.5 18.1 9.9 37 11.1 55.9 1.4 21 1.2 42.1-0.4 63.1 1.9-2.7 5.7-3.5 8.8-2.7 3.1 0.9 5.7 3.2 7.6 5.9 6.2 8.4 8.1 19.4 9.2 29.6 1.2 11.2 2.1 22.6 2.5 33.9 0.7 16.4-0.4 32.8-3.3 48.9-2.9 16.2-8.3 31.5-12.6 47.3"/><path class="h" d="m1263.8 709.7c-62.4 66.3-108.9 145-135.3 229"/><path class="h" d="m1313.9 764.1c-8 0.2-15.9 3-22 7.7"/><path class="h" d="m1252.6 835.4c-4.3-6.8-14.8-5-20.8-1.8-5.1 2.8-9.1 7.1-12.7 11.6"/><path class="h" d="m1350.6 661.9c-77.9 53.2-134.6 128.9-178.8 207.1"/><path class="h" d="m1080.1 660c-6.9 80.4 4.2 161.1 15.3 241"/><path class="w" d="m1247.5 951.3h-213.5v-68.7h213.5z"/><path class="z" d="m871 876.7c-11 25.7-35.5 39.3-51.9 49.2 4.4 1.1 128 2.6 127.9 1.8-1.1-6.5-2.1-12-2.9-20.5-0.4-4.1 2.4-27.6 2.4-27.6"/><path class="A" d="m945.5 916.1c0 0-47.9-0.2-77.3-3.1-13.3-1.3-16.7-12.2-20.8-8-13.2 13.5-36.1 23.4-41.7 28.3-5.5 4.9-7.2 17.3-4.9 17.3 7.3 0 84.4 0 88.6 0 5.3-2.6 11.5-7.4 11.5-7.4h13.5l0.6 7.4c20.5 0 33.4 0 33.4 0 0 0 0.6-18.7-2.9-34.5z"/><path class="B" d="m1120.1 673.3c0 0-133.1-0.4-171.1 0-26.4 0.2-55.8 9.7-66.1 61-10.3 51.4-22.6 161.6-22.6 161.6l89.3 6.5 29.6-116.6c0 0 83.1 12.4 130.6 8.8 30.5-2.4 50.8-52 46-86.4"/><path class="h" d="m979.2 785.8h-16.4"/><path class="C" d="m863.8 866l92.4 10.1"/><path class="D" d="m802.4 876.7c-14.8 25.7-42.8 39.3-61.7 49.2 4.6 1.1 137.1 2.6 137.1 1.8-0.4-6.5-0.8-12-0.6-20.5 0-4.1 6-27.6 6-27.6"/><path class="E" d="m877.6 916.1c0 0-51.4-0.2-82.6-3.1-14.1-1.3-16.4-12.2-21.4-8-15.7 13.5-41.6 23.4-48.1 28.3-6.5 4.9-9.9 17.3-7.4 17.3 7.8 0 90.6 0 95 0 6.1-2.6 13.3-7.4 13.3-7.4h14.5l-0.3 7.4c22 0 40 0 40 0 0 0-1.2-18.7-3-34.5z"/><path class="F" d="m880.1 943.2l-160.5-1.5"/><path class="G" d="m1071.4 673.3c0 0-133.1-0.4-171.2 0-26.4 0.2-57 9.7-73.6 61-16.6 51.4-42.4 161.6-42.4 161.6l95.6 10.2 36.8-120.3c0 0 163.5 12.4 211.4 8.8 30.8-2.4 66.2-73.6 65.7-108"/><path class="h" d="m916.6 785.8h-16.4"/><path class="H" d="m801.1 897.7c0 0 39.5-151 44.9-163.4 5.3-12.4 23.7-47.8 57-44.8 33.4 3.1 169.8 2.8 169.8 2.8l26.7-19"/><path class="H" d="m791.4 866l97.4 10.7"/><path class="D" d="m1136.4 444.6l-2.7 35.7 70.3 2.6-2.4-48.1"/><path class="D" d="m1122.3 395.1c-5.8 9.7-12.7 20.6-13.3 32.3-0.5 12.3 8.4 20.2 19.9 22.6 18.6 3.8 39-1.7 53.3-14.1 19.6-17 24.6-53.2-0.3-68.4-9.8-6.1-21.9-5.7-32.7-2.6-10.5 3-16.9 12.5-21.8 21.6-1.4 2.6-3.2 5.5-5.1 8.6z"/><path class="I" d="m1211.8 363.7c-2.4-2.6-5.2-4.9-8.4-6.5-3.2-1.7-6.8-2.7-9.6-4.9-2.9-2.3-4.9-6.5-8.3-8-2.1-0.9-5.1-0.7-7.3-0.9-6-0.5-12.1 0.7-14.4 7-0.2 0.5-0.5 1.1-1 1.3-0.5 0.2-1 0-1.5-0.3-6.9-3.7-15-5.2-22.7-4.1-1.2 0.1-2.5 0.4-3.6 1-3.2 2.1-2.7 6.9-1.9 10.7-3.9-1.7-9 0.7-10.3 4.8-0.9 3.3 0.5 7 3 9.5 2.4 2.5 5.7 4 8.9 5.2 8.8 3.3 18.1 5.2 27.4 5.5-3.9 4.3-5.9 10.3-5.4 16.1 0.6 5.9 3.7 11.4 8.4 14.9 1.6 1.2 3.4 2.2 4.5 3.9 1.3 2.3 1 5.1 0.6 7.7q-1.1 6.7-2.1 13.5c-0.2 1.5-0.4 3.1 0.2 4.5 1.2 2.4 4.3 2.9 6.9 3.1 10.1 0.7 20.2 1.3 30.1-0.7 3.5-0.7 7-2.5 8.6-5.7 0.7-1.3 0.9-2.7 1.2-4.1 1-6 1.4-12.3 4-17.7 1.1-2.4 2.6-4.6 3.4-7.1 2.2-6.6 1.3-16.2 0.2-22.9-1.4-9-4.7-18.9-10.9-25.8z"/><path class="J" d="m1133.7 359.7c4.7 1.5 9.5 2.3 14.4 2.2"/><path class="J" d="m1162.4 351.5c5.7 2.3 11.8 3.3 17.9 3"/><path class="J" d="m1158.9 362.2c10.6 1.6 21.6 3.4 30.4 9.5"/><path class="J" d="m1214.3 399c0.4 4.6 0.7 9.2-0.7 13.5-1.1 3.3-3.2 6.2-4.7 9.3-1.9 4.1-2.8 8.7-2.5 13.1"/><path class="J" d="m1199.3 393.4c0.3 3.8 0.5 7.6-0.9 11.2-1.6 4.2-5.3 7.5-7 11.7-1.4 3.6-1.4 7.6-1.2 11.5"/><path class="J" d="m1167.8 392.3c-2.1 7.7-0.1 16.4 5.3 22.4"/><path class="J" d="m1162.2 383.9c14-8 30.9-8.4 46.9-7.9"/><path class="D" d="m1166 406.4c6.3 1.4 8.6 10.4 7.3 15.8-0.9 3.4-3.1 6.4-5.5 8.8-3 2.9-5.8 4-10.1 3.8-1.2 0-2.5-0.1-3.6-0.6-6.5-2.7-1.3-14 0-18.3 0.8-2.4 1.8-4.8 3.4-6.7 2.3-2.7 5.1-3.6 8.5-2.8z"/><path class="h" d="m1166.7 416.2c-4.9 2.1-7.6 4.6-12.1 7.4"/><path class="h" d="m1160.4 406.7c-2.3 1.1-4 3.1-5 5.5"/><path class="h" d="m1167.8 431c-1.2 0.9-4.6 3.4-6.1 3.9-2 0.6-4.3 0.7-6.3 0-2.1-0.8-3.9-2.3-4.9-4.3"/><path class="h" d="m1135.7 451.6c5.2-0.3 10.5-1.3 15.5-2.9"/><path class="K" d="m1126.1 390.8c-2.8 5.1-9.1 10.4-12.4 12-2.5 1.3-3.5 2.3-2.4 5.1 0.9 2.3 2.8 4.2 5.2 5"/><path class="r" d="m1124.7 419.9h-11.3c0 0-0.5 9.6 5 8.8 5.4-0.9 6.3-8.8 6.3-8.8z"/><path class="h" d="m1135.7 387.9c3 0.7 5.6 2.4 7.7 4.6 2.1 2.2 3.6 4.9 4.5 7.8"/><path  d="m1136.8 402.1c-0.9 1.9-2.8 3-4.2 2.3-1.4-0.7-1.7-2.8-0.7-4.8 0.9-1.9 2.8-2.9 4.2-2.3 1.4 0.7 1.7 2.8 0.7 4.8z"/><path class="D" d="m1088 477.7c0 0-14.9-29.3-26-42.8-6.9-8.3-13.4-14.3-21.8-21.2-4.1-3.3-8.2-7.1-12.7-10-2.1-1.3-2.8-2.2-4.6 0.1-1.3 1.6-1.1 4.3-0.5 6.1 2.3 7.2 14.1 17.7 14.1 17.7-3.1 1-9.3 3.8-11.2 5.7-1.9 1.8-2.6 5-2.3 7.6-2.6 0.4-4.8 1.6-5.8 4-0.5 1.1-0.8 2.3-0.7 3.6 0 0.4 0.4 3.1 1.1 3.1-2.3 0-4.3 1.8-4.9 3.9-0.6 2-0.2 4.2 0.4 6.3 1.6 6 6 10.5 10.9 12.4 1.4 0.6 3 0.8 4.4 0.3 1.4-0.4 2.5-1.7 2.4-3.1 4.1 9 5.6 21.1 13.5 27.4 3.9 3.1 11.9 5.1 13.7 9.5"/><path class="h" d="m1023 440.9c0 0 2.4 10.9 5 14 2.5 3 7.8 5 11.4 3.9 3.6-1.1 5.3-8.2 5.3-8.2 0 0-5.4-3.7-5.5-4 0-0.4-3-10.6-3-10.6"/><path class="h" d="m1035.8 427.7c3.8 2.8 6.9 6.5 8.9 10.6"/><path class="h" d="m1017.2 451.2c1.7 4.9 8.1 23.4 16.2 16.1 2.3-2.1 3.9-5.3 4.9-8.2"/><path class="L" d="m1067.3 448.3c-3.6-4.6-9.4-7.6-15.5-9.2-6-1.5-12.4-1.9-18.8-2.2-0.5-0.1-1-0.1-1.4 0.1-0.5 0.3-0.8 0.8-0.9 1.3-1 3.6 2.9 6.7 6.7 8.4q4 1.9 8.4 3.1c0.9 0.2 1.9 0.5 2.5 1.1 0.5 0.4 0.8 1.1 1.1 1.7 1.8 4.8 2.4 9.8 3.7 14.6 1.3 4.9 3.3 9.7 7.3 13.2"/><path class="D" d="m1047.1 496.5c0 0 46.9 113.7 68.7 126.9 24.9 15 55.7-16.6 55.7-16.6l-25.8-65.2-12.5 2-50.6-76.1"/><path class="r" d="m1141.3 482.8h68.4c0 0 10.6 41.2 9.2 88.7-2.2 73.4-48.1 166.9-48.1 166.9 0 0-150.9-65-150.9-65.1 0-0.1 60.5-112 66.1-129.3 5.6-17.3 55.3-61.2 55.3-61.2z"/><path class="D" d="m1058.6 541l-33.6 28.4-53.9-41-35 26c0 0 42.2 51.1 61 65.5 18.4 14.2 39 23 60.8 13.7 22.5-9.7 49.4-40.8 49.4-40.8"/><path class="D" d="m949.1 569.4c-9.6-12.9-23.9-22.6-31.2-36.9-3.3-6.5-5-13.7-6.7-20.8-0.9-3.8-1.8-7.7-1.7-11.6 0.1-2.8 0.8-5.6 1.4-8.3q2-8.4 4.1-16.8c0.3-1.2 0.6-2.5 1.4-3.4 1.1-1.1 3-1.4 4.4-0.7 1.5 0.8 2.4 2.5 2.1 4.1q1.5-2.9 3-5.8c0.5-1 1.4-2.2 2.5-1.9 0.6 0.2 1 0.6 1.3 1.1 1.6 2 2.7 4.3 3.4 6.8 2.4-0.2 4.7 1.7 5.7 4 1 2.3 1 4.8 1.1 7.2 2.5-0.7 4.8 2.1 5.8 4.7 0.9 2.8 1.1 5.8 2.5 8.5 2.9 5.4 8.7 8.2 13.7 11.7 4.7 3.2 9.4 7.1 12.6 12.1 3.1 5 3.6 11.6 8.4 15.5"/><path class="M" d="m1027.7 512.7l-88 17.4-72.1-107.2 88-17.4z"/><path class="r" d="m1015.5 505.1l-73.3 14.5-63.9-94.2 73.3-14.5z"/><path class="N" d="m1002.6 494.8l-29 5.7"/><path class="N" d="m993.5 482l-57.9 11.5"/><path class="N" d="m984.4 469.3l-57.8 11.4"/><path class="N" d="m975.3 456.5l-57.8 11.5"/><path class="N" d="m966.3 443.8l-57.9 11.5"/><path class="N" d="m957.2 431.1l-57.9 11.4"/><path class="N" d="m942.2 423.2l-31.5 6.2"/><path class="O" d="m945.9 406c-1.3-1.9-3.6-2.9-5.8-2.5l-7.1 1.4-1-1.5c-0.8-1.3-2.3-1.9-3.7-1.6l-37.8 7.5c-1.5 0.3-2.2 2.1-1.3 3.4l0.5 0.8-8.9 1.8c-2.4 0.5-3.5 3.3-2.1 5.4l4.8 7.2 68-13.5z"/><path class="r" d="m1146.6 483c-18.1-1.5-36.7 5.8-51.4 17.5-17.8 14.1-66.2 64.3-66.2 64.3l63.5 62 40.4-45"/><path class="r" d="m1119.8 485.7c0 0 11.8-15.3 23.7-16.1 9.6-0.6 62.4-3.2 62.4-3.2l7.2 31.2"/><path class="h" d="m1192.8 482.8l-45.4 1.1q-7.8 0.2-15.5 1.8l-9.7 2"/><path class="h" d="m1092.5 626.8l40.4-45"/><path class="L" d="m923.5 521.1c-0.1-2.6-0.2-5.2-0.3-7.8 0-2 0.7-3.4 1.3-5.3 1.2-4.6 2.2-9.2 3.8-13.6 0.4-1.3 0.9-2.7 1.9-3.6 2.1-2 4.5 0.1 5.5 2.5 0.8 1.8 0.9 3.8 1 5.8 0.2 4-1.3 9 0 11.9 0.8 1.6 2.5 2.8 3.6 4 2.5 2.4 4.9 4.9 7 7.6 4.7 6.1 8 12.3 9.1 19.9"/><path class="h" d="m1047.7 545.7l65 58.6"/><path class="h" d="m1108.7 384.6l-16.8-26.4"/><path class="h" d="m1097.2 395.9l-25.2-20.9"/><path class="h" d="m1089.6 408.4l-28.7-7.3"/><path class="P" d="m1311.5 950.7l-31.4-122.1c-3-11.7-11.3-19.6-20.7-19.6h-212.1c-9.9 0-18.5 8.7-21.1 21.1l-25.3 120.6"/><path class="Q" d="m1135.4 806.4h99.6c16.5 0 30.7-11.9 33.6-28.3l47.6-274.3c3.5-20.1-11.9-38.5-32.3-38.5h-86.3c-18.3 0-33.9 13.1-37.1 31.2l-48.9 281.6c-2.6 14.8 8.8 28.3 23.8 28.3z"/><path class="R" d="m1289 466.4h-65.7c-17.4 0-32.2 12.4-35.2 29.5l-46.4 267.4"/><path class="Q" d="m970.2 806.4h252.4v-40.9h-232.3c-6.8 0-12.7 4.8-14 11.4z"/><path class="S" d="m1237.5 950.7l-31.4-122.1c-3-11.7-11.4-19.6-20.7-19.6h-212.2c-9.8 0-18.4 8.7-21.1 21.1l-25.2 120.6"/><path class="Q" d="m967.2 806.4h244.5c7.5 0 13.9-5.4 15.1-12.7l21.1-121.3c1.8-10-6-19.3-16.2-19.3h-216.6c-19.7 0-36.6 14.2-39.9 33.7l-18.6 106.9c-1.2 6.6 3.9 12.7 10.6 12.7z"/><path class="R" d="m1133.3 653.1h28"/><path class="f" d="m650.6 951.3h675"/><path class="T" d="m733.2 168.2h-154.6c-8 0-14.4 6.5-14.4 14.4v52.2c0 8 6.4 14.4 14.4 14.4h16.1l-9.4 18.9c-0.9 1.9 1 3.9 2.9 3l46.5-21.9h98.5c7.9 0 14.3-6.4 14.3-14.4v-52.2c0-7.9-6.4-14.4-14.3-14.4z"/><path class="Q" d="m636.7 170.2c0 29.6-24.1 53.7-53.7 53.7-29.7 0-53.7-24.1-53.7-53.7 0-29.6 24-53.7 53.7-53.7 29.6 0 53.7 24.1 53.7 53.7z"/><path class="U" d="m610 158.5c0-14.5-12.1-26.2-27-26.2-14.9 0-27 11.7-27 26.2 0 6 2.1 11.6 5.6 16 1.8 2.5 10.9 15.3 10.9 17v2.3c0 1.4 1.2 2.5 2.6 2.5h6.7 2.4 6.6c1.5 0 2.6-1.1 2.6-2.5v-2.3c0-1.7 9.1-14.5 11-17 3.5-4.4 5.6-10 5.6-16z"/><path class="p" d="m587.9 196.3c0.1-8.7-0.1-18 4.4-25.8 0.7-1.2 2.4-3.4 4-2.4 0.5 0.4 0.8 0.9 1 1.5 0.9 3.2-0.3 6.6-2 9.3-1.4 2.4-4.2 6.3-7.4 5.8-2.5-0.4-4.4-2.9-5.5-5.7-1.9-5-3.2-11.3-3.4-16.8-0.1-5.4 1.3-10.5 4-10.5h-0.1c2.8 0 4.1 5.1 4 10.5-0.1 5.5-1.4 11.8-3.3 16.8-1.2 3.1-4.3 7-8.2 5-4.3-2.4-7-8.3-7.1-12.8 0-1.4 0.4-3.6 2.3-3.2 0.9 0.2 1.5 0.9 2.1 1.5 5.7 7 5.3 16.5 5.3 24.9q0 1 0.1 1.9"/><path class="p" d="m591.9 202.2h-17.8c-1.6 0-2.9-1.3-2.9-2.9 0-1.7 1.3-3 2.9-3h17.8c1.6 0 2.9 1.3 2.9 3 0 1.6-1.3 2.9-2.9 2.9z"/><path class="p" d="m591.9 208.1h-17.8c-1.6 0-2.9-1.3-2.9-3 0-1.6 1.3-2.9 2.9-2.9h17.8c1.6 0 2.9 1.3 2.9 2.9 0 1.7-1.3 3-2.9 3z"/><path class="V" d="m726.1 186.7h-65.7"/><path class="V" d="m726.1 205.1h-65.7"/><path class="V" d="m726.1 223.6h-97.5"/><path class="r" d="m883.8 272.9h104.1c6.8 0 12.2 5.4 12.2 12.1v53.9c0 6.7-5.4 12.2-12.2 12.2h-13.5l7.9 15.9c0.7 1.6-0.9 3.3-2.5 2.5l-39.3-18.4h-56.7c-6.7 0-12.1-5.5-12.1-12.2v-53.9c0-6.7 5.4-12.1 12.1-12.1z"/><path class="W" d="m887.2 294.2h52.7"/><path class="W" d="m887.2 312.7h65.6"/><path class="W" d="m887.2 331.2h97.4"/><path class="X" d="m1123.9 244.3c0 45.8-37.2 83-83 83-45.9 0-83-37.2-83-83 0-45.9 37.1-83 83-83 45.8 0 83 37.1 83 83z"/><path fill-rule="evenodd" class="Y" d="m1040.9 312.7c-37.7 0-68.4-30.7-68.4-68.4 0-37.8 30.7-68.5 68.4-68.5 37.7 0 68.4 30.7 68.4 68.5 0 37.7-30.7 68.4-68.4 68.4zm0-126.3c-31.9 0-57.9 26-57.9 57.9 0 31.9 26 57.8 57.9 57.8 31.9 0 57.8-25.9 57.8-57.8 0-31.9-25.9-57.9-57.8-57.9z"/><path fill-rule="evenodd" class="Y" d="m1040.9 286c-23 0-41.8-18.7-41.8-41.7 0-23.1 18.8-41.8 41.8-41.8 23 0 41.8 18.7 41.8 41.8 0 23-18.8 41.7-41.8 41.7zm0-72.9c-17.2 0-31.2 14-31.2 31.2 0 17.2 14 31.2 31.2 31.2 17.2 0 31.2-14 31.2-31.2 0-17.2-14-31.2-31.2-31.2z"/><path fill-rule="evenodd" class="Y" d="m1040.9 262.7c-10.2 0-18.5-8.2-18.5-18.4 0-10.2 8.3-18.5 18.5-18.5 10.2 0 18.4 8.3 18.4 18.5 0 10.2-8.2 18.4-18.4 18.4zm0-26.3c-4.4 0-7.9 3.5-7.9 7.9 0 4.3 3.5 7.8 7.9 7.8 4.3 0 7.9-3.5 7.9-7.8 0-4.4-3.6-7.9-7.9-7.9z"/><path class="Z" d="m1151.3 133.9l-105 104.9"/><path class="a0" d="m1043.6 225.2l-2.7 19.1 19-2.7z"/><path class="Z" d="m1152.3 121.9l-0.9 11.9 11.9-0.9"/><path class="a1" d="m1283.1 153.7h-94.9c-5.5 0-9.9 4.4-9.9 9.9v36.2c0 5.5 4.4 10 9.9 10h11.2l-6.5 13.1c-0.7 1.3 0.7 2.7 2 2l32.2-15.1h56c5.5 0 10-4.5 10-10v-36.2c0-5.5-4.5-9.9-10-9.9z"/><path class="a2" d="m1264.8 182.9c0 2.3 1.9 4.2 4.2 4.2 2.3 0 4.1-1.9 4.1-4.2 0-2.3-1.8-4.2-4.1-4.2-2.3 0-4.2 1.9-4.2 4.2z"/><path class="a2" d="m1231.5 182.9c0 2.3 1.9 4.2 4.2 4.2 2.3 0 4.1-1.9 4.1-4.2 0-2.3-1.8-4.2-4.1-4.2-2.3 0-4.2 1.9-4.2 4.2z"/><path class="a2" d="m1198.2 182.9c0 2.3 1.9 4.2 4.2 4.2 2.2 0 4.1-1.9 4.1-4.2 0-2.3-1.9-4.2-4.1-4.2-2.3 0-4.2 1.9-4.2 4.2z"/><path class="a3" d="m1383.6 324.6h-133.7c-7.8 0-14.1 6.3-14.1 14.1v51c0 7.7 6.3 14 14.1 14h15.7l-9.2 18.5c-0.9 1.8 1 3.8 2.9 2.9l45.4-21.4h78.9c7.8 0 14.1-6.3 14.1-14v-51c0-7.8-6.3-14.1-14.1-14.1z"/><path class="r" d="m1337 365c0 2.3 1.8 4.1 4.1 4.1 2.3 0 4.2-1.8 4.2-4.1 0-2.3-1.9-4.2-4.2-4.2-2.3 0-4.1 1.9-4.1 4.2z"/><path class="r" d="m1303.7 365c0 2.3 1.8 4.1 4.1 4.1 2.3 0 4.2-1.8 4.2-4.1 0-2.3-1.9-4.2-4.2-4.2-2.3 0-4.1 1.9-4.1 4.2z"/><path class="r" d="m1270.4 365c0 2.3 1.8 4.1 4.1 4.1 2.3 0 4.2-1.8 4.2-4.1 0-2.3-1.9-4.2-4.2-4.2-2.3 0-4.1 1.9-4.1 4.2z"/><path class="a3" d="m195.7 152.5h142.3c7.1 0 12.9 5.8 12.9 12.9v46.7c0 7.1-5.8 12.9-12.9 12.9h-14.4l8.4 16.9c0.8 1.6-0.9 3.4-2.6 2.6l-41.6-19.5h-92.1c-7.1 0-12.8-5.8-12.8-12.9v-46.7c0-7.1 5.7-12.9 12.8-12.9z"/><path class="a2" d="m245.4 189.4c0 2.3-1.8 4.1-4.1 4.1-2.3 0-4.2-1.8-4.2-4.1 0-2.3 1.9-4.2 4.2-4.2 2.3 0 4.1 1.9 4.1 4.2z"/><path class="a2" d="m278.7 189.4c0 2.3-1.8 4.1-4.1 4.1-2.3 0-4.2-1.8-4.2-4.1 0-2.3 1.9-4.2 4.2-4.2 2.3 0 4.1 1.9 4.1 4.2z"/><path class="a2" d="m312.1 189.4c0 2.3-1.9 4.1-4.2 4.1-2.3 0-4.2-1.8-4.2-4.1 0-2.3 1.9-4.2 4.2-4.2 2.3 0 4.2 1.9 4.2 4.2z"/></svg>