<svg version="1.2" xmlns="http://www.w3.org/2000/svg" viewBox="0 0 800 800" width="500" height="500"><style>.a{fill:#eaeaea}.b{fill:#f4f4f4}.c{fill:#fff}.d{fill:#f99841}.e{fill:#edea77}.f{opacity:.6;fill:#ea9344}.g{fill:#20b7b7}.h{fill:#eae244}.i{fill:#e6e8e7}.j{fill:#f9913d}.k{fill:#e58741}</style><path class="a" d="m760.1 648.7c-22.8 0-43.8 8.1-60.2 21.5-8.9-38.1-42.4-66.5-82.4-66.5-13.7 0-26.6 3.3-38 9.2-8.6-36.4-42.5-63.7-83-63.7-11.4 0-22.2 2.2-32.1 6.1-16.5-14.5-38.2-23.3-61.9-23.3-30.1 0-56.9 14.1-74.1 36.1-7.7-1.6-15.7-2.4-23.9-2.4-40 0-75.3 19.9-96.6 50.4-14.1-7.9-30.3-12.4-47.6-12.4-28.5 0-54.1 12.1-72 31.5-8.2-2.5-17-3.9-26-3.9-33.8 0-63.2 18.9-78.2 46.8-13.2-7.9-28.6-12.4-45.2-12.4-11.7 0-23 2.3-33.3 6.5-16.3-13.9-37.5-22.3-60.7-22.3-12.7 0-24.8 2.6-35.9 7.1v35.4 59h991v-59-34.9c-12.1-5.6-25.6-8.8-39.9-8.8z"/><path class="b" d="m761.2 678.8c-22.2 0.3-42.5 8.4-58.3 21.7-9.2-37-42.1-64.2-81-63.7-13.3 0.1-25.9 3.6-36.9 9.4-8.9-35.4-42.2-61.5-81.6-61-11.1 0.2-21.6 2.4-31.2 6.3-16.3-13.9-37.5-22.2-60.5-21.9-29.3 0.3-55.2 14.4-71.7 36.1-7.5-1.5-15.3-2.2-23.3-2.1-38.9 0.5-73.1 20.3-93.4 50.2-13.9-7.5-29.7-11.6-46.6-11.4-27.6 0.3-52.4 12.5-69.6 31.5-8.1-2.3-16.6-3.6-25.4-3.4-32.9 0.4-61.3 19.2-75.5 46.4-13-7.5-28.1-11.7-44.1-11.5-11.5 0.2-22.4 2.6-32.4 6.7-16.1-13.3-36.8-21.2-59.3-20.9-12.4 0.2-24.2 2.8-34.9 7.4l0.4 34.4 0.7 57.5 964.7-12.2-0.7-57.4-0.4-34c-11.9-5.3-25.1-8.2-39-8.1z"/><path class="c" d="m758.2 714.3c-23.9 0-45.9 8.4-63.1 22.5-9.3-40-44.4-69.7-86.2-69.7-14.4 0-27.9 3.5-39.8 9.7-9.1-38.2-44.6-66.7-87-66.7-11.9 0-23.2 2.2-33.6 6.3-17.3-15.2-40-24.4-64.9-24.4-31.5 0-59.5 14.8-77.5 37.8-8.1-1.6-16.5-2.5-25.1-2.5-41.9 0-78.9 20.9-101.2 52.8-14.8-8.3-31.8-13-49.9-13-29.8 0-56.6 12.7-75.3 33-8.7-2.6-17.8-4-27.3-4-35.4 0-66.2 19.8-81.9 48.9-13.8-8.2-30-13-47.3-13-12.3 0-24.1 2.5-34.9 6.8-17.1-14.5-39.3-23.3-63.6-23.3-13.3 0-26 2.7-37.6 7.5v37 61.9h1038v-61.9-36.5c-12.7-5.9-26.9-9.2-41.8-9.2z"/><path class="c" d="m385.7 381.4l-10 418.6h47.7l-10-418.6-0.9-40.2h-25.9z"/><path class="d" d="m374.8 330.3l24.8 93 24.7-93z"/><path class="e" d="m382.7 338.8l16.9 63.6 16.9-63.6z"/><path class="f" d="m399.6 386.1c-3.5 0-6.4-10.3-6.4-23 0-12.7 2.9-23 6.4-23 3.5 0 6.3 10.3 6.3 23 0 12.7-2.8 23-6.3 23z"/><path class="g" d="m387.6 278.7c0-0.5 0.8-0.9 1.7-0.9h20.5c0.9 0 1.7 0.4 1.7 0.9v11.9c0 0.5-0.8 0.9-1.7 0.9h-20.5c-0.9 0-1.7-0.4-1.7-0.9z"/><path class="g" d="m401.8 269.3h-4.5c-5.3 0-9.7 4.6-9.7 10.3h23.9c0-5.7-4.3-10.3-9.7-10.3z"/><path class="h" d="m373.7 322.2c0 15.9 11.6 28.7 25.9 28.7 14.3 0 25.9-12.8 25.9-28.7 0-5.8-1.6-11.3-4.4-15.9h0.1l-9.1-17.1h-25l-9.2 17.1h0.1c-2.7 4.6-4.3 10.1-4.3 15.9z"/><path class="i" d="m406 289.2l2.2 30.3-2.3-3.3c-0.1-0.3-0.4-0.4-0.6-0.4-0.2 0.1-0.5 0.2-0.6 0.4l-2.4 4.5-2.5-4.7c-0.1-0.3-0.4-0.4-0.6-0.4-0.3 0-0.5 0.1-0.6 0.3l-2.6 4.6-1.7-4.2c-0.1-0.2-0.4-0.4-0.6-0.4-0.3 0-0.5 0.1-0.7 0.3l-2 3.2 2.4-30.2h-1.5l-2.6 32.9c0 0.3 0.2 0.7 0.5 0.8 0.3 0.1 0.6 0 0.8-0.3l2.9-4.4 1.8 4.3c0.1 0.2 0.3 0.4 0.6 0.4 0.3 0.1 0.5-0.1 0.7-0.3l2.6-4.7 2.5 4.7c0.1 0.2 0.3 0.3 0.6 0.4 0.3 0 0.5-0.2 0.6-0.4l2.5-4.6 3.1 4.6c0.2 0.3 0.5 0.4 0.8 0.3 0.4-0.1 0.5-0.4 0.5-0.8l-2.3-32.9z"/><path class="j" d="m399.6 68.3l-78.6 231 78.6-23.4 78.5 23.4z"/><path class="k" d="m399.6 68.3l-14.7 212 14.7-4.4 14.6 4.4-14.6-212z"/></svg>