<svg version="1.2" xmlns="http://www.w3.org/2000/svg" viewBox="0 0 1000 1000" width="500" height="500"><style>.a{fill:#5a341e}.b{fill:#4b2610}.c{fill:#68432e}</style><g style="mix-blend-mode:multiply"></g><path class="a" d="m601.6 279.8l40.4 76.8 197.6-103.9-40.4-76.8z"/><path class="a" d="m642 356.6l8.3 4.8c36.8 20.9 59.3 63.6 55.7 105.9l-0.8 9.5 197.1-103.7-17.4-13.1c-26.6-20-43.5-52-44.9-85.3l-0.9-21.7z"/><path class="b" d="m840 274.7c0.1 0.8 0.2 1.6 0.2 2.5l-176.8 93q-6.2-4.9-13.1-8.8l-8.3-4.8 197.1-103.6z"/><path class="c" d="m697.4 492.9c-2.7-5.2-0.7-11.7 4.5-14.4l203.7-107.1c5.2-2.8 11.7-0.8 14.4 4.4 2.8 5.3 0.8 11.7-4.4 14.5l-203.8 107.1c-5.2 2.8-11.6 0.8-14.4-4.5z"/><path class="a" d="m721.3 499.8l-3-5.8 190.8-100.3 3.1 5.7c3.8 7.3 1 16.3-6.3 20.1l-164.5 86.5c-7.3 3.9-16.3 1.1-20.1-6.2z"/><path class="a" d="m601.6 279.8l0.8-9.5c3.6-42.3-18.9-85-55.7-105.9l-8.3-4.8 197.1-103.6 0.9 21.7c1.4 33.3 18.3 65.3 44.9 85.3l17.4 13.1z"/><path class="b" d="m902.3 373.1l-16.3-12.2-179.7 94.4c0.1 4 0 8-0.3 12l-0.8 9.5z"/><path class="b" d="m736.3 74.3l-0.8-18.3-197.1 103.6 8.3 4.8c2.8 1.6 5.5 3.3 8.2 5.2z"/><path class="b" d="m781.3 163c-0.6-0.5-1.3-1-1.9-1.5l-176.9 93q0.6 7.9-0.1 15.8l-0.8 9.5 197.1-103.7z"/><path class="c" d="m520.7 156.9c2.7 5.2 9.2 7.2 14.4 4.5l203.7-107.2c5.3-2.7 7.3-9.2 4.5-14.4-2.7-5.2-9.2-7.2-14.4-4.5l-203.7 107.2c-5.3 2.7-7.3 9.2-4.5 14.4z"/><path class="a" d="m528.6 133.4l3 5.7 190.9-100.4-3-5.7c-3.9-7.3-12.9-10.1-20.2-6.3l-164.5 86.5c-7.3 3.9-10.1 12.9-6.2 20.2z"/><path class="b" d="m801.5 180.3l35.7 68c6.8-3.6 9.4-12 5.9-18.8l-22.8-43.3c-3.6-6.8-12-9.4-18.8-5.9z"/><path class="b" d="m639.7 352.2l-35.7-68-12.4 6.5 35.8 67.9z"/><path class="c" d="m629.7 363.1l-40.4-76.9-9.9 5.2c-4.9 2.6-6.8 8.7-4.2 13.6l31.1 59.1c2.6 4.9 8.6 6.8 13.5 4.2z"/><path class="a" d="m536.3 406.3l69.1-44-29.3-55.6-75.2 32.2z"/><path class="b" d="m551.2 319.9l29.2 55.6 25-13.2-29.3-55.6z"/><path class="c" d="m120.7 666.9c8.6-4.8 11.9-15.6 7.3-24.4l-53.1-101c-4.6-8.8-15.4-12.2-24.2-7.9z"/><path class="a" d="m80.6 552.4l41.6 79.1 381.8-208.2-35.4-67.4z"/><path class="b" d="m475.4 439.2l28.6-15.9-35.4-67.4-29.3 14.6z"/><path class="c" d="m504.8 339.9l33 62.6c5.4 10.4 1.4 23.3-8.9 28.8-10.4 5.4-23.3 1.4-28.8-9l-32.9-62.6c-5.5-10.4-1.5-23.3 8.9-28.7 10.4-5.5 23.3-1.5 28.7 8.9z"/><path class="b" d="m83 686.7l-70-133.3 37.7-19.8 70 133.3z"/><path class="a" d="m950.8 673.7h-629.6c-19.7 0-35.6-15.9-35.6-35.6v-24.8c0-61.3 49.7-110.9 110.9-110.9h479c61.2 0 110.9 49.6 110.9 110.9v24.8c0 19.7-15.9 35.6-35.6 35.6z"/><path class="b" d="m285.9 642.8c2.4 17.5 17.2 30.9 35.3 30.9h629.6c18 0 32.9-13.4 35.3-30.9z"/></svg>