<svg version="1.2" xmlns="http://www.w3.org/2000/svg" viewBox="0 0 900 900" width="500" height="500"><style>.a{fill:#787878}.b{fill:#eb904a}.c{fill:#3c505a}.d{fill:#ffd7af}.e{fill:#f0f0f0}.f{fill:#f5cda5}.g{fill:#fed9ae}.h{fill:#ffe1b9}.i{fill:#8b5e3c}.j{fill:#70a9be}.k{fill:#cc5525}.l{fill:#e6e6e6}.m{fill:#c8c8c8}.n{fill:#dcdcdc}.o{fill:#eaa888}.p{fill:#b0b0b0}.q{fill:#f4c19a}.r{fill:#ede3d6}.s{opacity:.6;mix-blend-mode:multiply;fill:#bababa}</style><path fill-rule="evenodd" class="a" d="m295.2 557.2c-14.8 0-26.5-4.1-34.7-12.3-18.9-19-15.8-57 8.8-107 23.8-48.4 64.8-103 115.7-153.8 81.8-81.8 172.7-136.8 226.1-136.8 14.9 0 26.5 4.2 34.7 12.4 18.9 18.9 15.8 56.9-8.8 107-23.7 48.3-64.8 102.9-115.6 153.8-81.8 81.7-172.7 136.7-226.2 136.7zm315.9-399.1c-50.8 0-138.6 53.7-218.5 133.6-50 50-90.4 103.6-113.6 150.9-22.1 45-26.1 79.5-10.8 94.7 6 6 15.1 9.1 27 9.1 50.8 0 138.6-53.7 218.5-133.6 50.1-50 90.4-103.6 113.7-150.9 22-44.9 26-79.4 10.8-94.6-6.1-6.1-15.2-9.2-27.1-9.2z"/><path fill-rule="evenodd" class="a" d="m611.1 557.2c-53.4 0-144.3-55-226.1-136.7-50.9-50.9-91.9-105.5-115.7-153.8-24.6-50.1-27.7-88.1-8.8-107.1 8.2-8.1 19.9-12.3 34.7-12.3 53.5 0 144.4 55 226.2 136.8 50.8 50.8 91.9 105.4 115.6 153.8 24.6 50 27.7 88 8.8 107-8.2 8.2-19.8 12.3-34.7 12.3zm-315.9-399.1c-11.9 0-21 3.1-27 9.2-15.3 15.2-11.3 49.7 10.8 94.6 23.2 47.3 63.6 100.9 113.6 150.9 79.9 79.9 167.7 133.6 218.5 133.6 11.9 0 21-3.1 27.1-9.1 15.2-15.2 11.2-49.7-10.8-94.7-23.3-47.3-63.6-100.9-113.7-150.9-79.9-79.9-167.7-133.6-218.5-133.6z"/><path class="b" d="m259.7 225.5c-36.1 0-65.3-29.2-65.3-65.3 0-36.1 29.2-65.3 65.3-65.3 36.1 0 65.4 29.2 65.4 65.3 0 36.1-29.3 65.3-65.4 65.3z"/><path class="c" d="m224.6 199.5l4.5-17.4c0.4-1.6 1.4-2.9 2.8-3.7l14-8.8 1.3 11.8 9.7 18.1z"/><path class="c" d="m295.3 199.5l-4.6-17.4c-0.4-1.6-1.4-2.9-2.7-3.7l-14.1-8.8-1.2 11.8-9.8 18.1z"/><path class="d" d="m243.6 150.9c0 0-2.7 2.9-4-4-1.4-7.3-1.4-11.3 1.1-12.1 1.6-0.6 2.1 0.8 2.1 0.8z"/><path class="e" d="m273.9 169.3v8.6c0 2.3-0.6 4.5-1.8 6.5l-8.3 13.6-0.9 1.5h-3.2v-32.1h0.1 0.1l10.6-2.4 1.8 1.3c1 0.7 1.6 1.8 1.6 3z"/><path class="e" d="m259.9 167.4v32.1h-3.2l-0.7-1.3-8.4-13.8c-1.2-1.9-1.8-4.2-1.8-6.5v-8.6c0-1.2 0.5-2.3 1.5-3l1.8-1.3 10.8 2.4z"/><path class="d" d="m249.1 161.2v5.2c0 1.9 0.9 3.7 2.3 4.9l4.5 3.6c2.3 1.9 5.6 1.9 7.9 0.1l4.6-3.7c1.5-1.2 2.4-3 2.4-4.9v-5.7z"/><path class="f" d="m249.1 165c2.9 3.2 6.6 5 10.6 5 4.3 0 8.1-1.9 11.1-5.4v-3.9l-21.7 0.5z"/><path class="g" d="m259.7 167.4c9.9 0 17.5-10.3 17.5-27.5 0-21.4-6.3-26.4-17.5-26.4-11.2 0-17.5 5-17.5 26.4 0 17.2 7.6 27.5 17.5 27.5z"/><path class="d" d="m276.1 150.9c0 0 2.7 2.9 4-4 1.4-7.3 1.3-11.3-1.2-12.1-1.6-0.6-2 0.8-2 0.8z"/><path class="h" d="m259.9 113.5v53.9c9.8-0.1 17.3-10.5 17.3-27.5 0-21.3-6.2-26.3-17.3-26.4z"/><path class="c" d="m263.8 198l-0.9 1.5h-6.2l-0.7-1.3 1.8-10.8h4.2z"/><path class="c" d="m259.9 188.9l3.2-2c1-0.7 1.4-1.9 1-3l-1.5-3.9c-0.4-1-1.3-1.6-2.3-1.6h-0.4-0.3c-1 0-2 0.6-2.3 1.6l-1.5 3.9c-0.4 1.1 0 2.3 1 3z"/><path class="i" d="m274.8 116.5c1.9 1.1 3.5 4.9 4.5 7.8 0.7 2.3 0.8 4.6 0.4 6.9l-2.9 14.7c0 0-0.8-5.4-1-9.9-0.7-12.4-4.5-13.6-8.6-13.6-2 0-7.3 1.6-7.3 1.6 0 0-5.2-1.6-7.3-1.6-4 0-7.9 1.2-8.6 13.6-0.2 4.5-1 9.9-1 9.9l-2.8-14.6c-0.5-2.3-0.3-4.8 0.4-7 1-2.9 2.6-6.6 4.4-7.8 9.9-5.2 19-5.9 29.8 0z"/><path fill-rule="evenodd" class="a" d="m259.7 232.1c-39.7 0-71.9-32.2-71.9-71.9 0-39.8 32.2-71.9 71.9-71.9 39.8 0 71.9 32.1 71.9 71.9 0 39.7-32.1 71.9-71.9 71.9zm58.8-71.9c0-32.5-26.3-58.8-58.8-58.8-32.5 0-58.8 26.3-58.8 58.8 0 32.5 26.3 58.8 58.8 58.8 32.5 0 58.8-26.3 58.8-58.8z"/><path class="j" d="m638.7 226.1c-36.1 0-65.4-29.2-65.4-65.4 0-36.1 29.3-65.3 65.4-65.3 36.1 0 65.3 29.2 65.3 65.3 0 36.2-29.2 65.4-65.3 65.4z"/><path fill-rule="evenodd" class="a" d="m638.7 232.6c-39.8 0-71.9-32.1-71.9-71.9 0-39.7 32.1-71.9 71.9-71.9 39.7 0 71.9 32.2 71.9 71.9 0 39.8-32.2 71.9-71.9 71.9zm58.8-71.9c0-32.5-26.3-58.8-58.8-58.8-32.5 0-58.8 26.3-58.8 58.8 0 32.5 26.3 58.8 58.8 58.8 32.5 0 58.8-26.3 58.8-58.8z"/><path class="d" d="m638.3 186.7l10.4-8.3c0 0-1.5-2-2.1-8.3h-8.3-8.3c-0.6 6.3-2.1 8.3-2.1 8.3z"/><path class="f" d="m646.6 170.1h-8.3-8.3q-0.1 1-0.2 1.8c2.5 2 5.4 3.1 8.5 3.1 3.1 0 6-1.1 8.5-3.1q-0.1-0.8-0.2-1.8z"/><path class="d" d="m622.4 156.7c0 0-2.7 2.8-4-4-1.4-7.2-1.3-11.1 1.2-11.9 1.6-0.6 2 0.8 2 0.8z"/><path class="g" d="m638.3 173c9.8 0 17.3-10.2 17.3-27.2 0-21.1-6.2-26-17.3-26-11 0-17.2 4.9-17.2 26 0 17 7.5 27.2 17.2 27.2z"/><path class="d" d="m654.5 156.7c0 0 2.6 2.8 3.9-4 1.4-7.2 1.4-11.1-1.1-11.9-1.6-0.6-2.1 0.8-2.1 0.8z"/><path class="h" d="m638.5 119.8v53.2c9.7-0.2 17.1-10.4 17.1-27.2 0-20.9-6.2-25.9-17.1-26z"/><path class="k" d="m638.2 115.3c-19.7 0-21.2 19.3-20.3 26.3 0.4 3.5 3.2 6.8 3.2 6.8 0 0 0.7-9.4 6.8-12.1 6.1-2.7 15-1.2 19.3-7.7 5.1 7.7 7.3 10.9 8.3 19.8 5.6-5.9 10.1-32.9-17.3-33.1z"/><path class="k" d="m638.1 122c-6.1 0-11.1-3-11.1-6.7 0-3.7 5-6.7 11.1-6.7 6.2 0 11.2 3 11.2 6.7 0 3.7-5 6.7-11.2 6.7z"/><path class="l" d="m638.3 182.1l-13.9-1.8 13.9 24.2 13.9-24.2z"/><path class="e" d="m629.4 174l-1.5 0.7-3.5 5.6 10.3 13.2 3.6-11.4-9.1-7.1z"/><path class="e" d="m647.2 174l1.5 0.7 3.5 5.6-10.3 13.2-3.6-11.4 9.1-7.1z"/><path class="c" d="m624.4 180.3l-11.9 7.3c-1.4 0.8-2.5 2.2-2.8 3.8l-3.2 13.1h31.8z"/><path class="c" d="m652.2 180.3l11.9 7.3c1.5 0.8 2.5 2.2 2.9 3.8l3.1 13.1h-31.8z"/><path class="b" d="m640.7 606.5c-36.2 0-65.4-29.2-65.4-65.3 0-36.2 29.2-65.4 65.4-65.4 36.1 0 65.3 29.2 65.3 65.4 0 36.1-29.2 65.3-65.3 65.3z"/><path class="c" d="m605.6 580.4l4.5-17.3c0.4-1.6 1.4-2.9 2.8-3.8l14-8.7 1.3 11.8 9.7 18z"/><path class="c" d="m676.3 580.4l-4.6-17.3c-0.4-1.6-1.4-2.9-2.7-3.8l-14.1-8.7-1.2 11.8-9.8 18z"/><path class="d" d="m624.6 531.9c0 0-2.7 2.8-4-4-1.4-7.3-1.4-11.3 1.1-12.2 1.6-0.5 2.1 0.9 2.1 0.9z"/><path class="e" d="m654.9 550.3v8.5c0 2.4-0.7 4.6-1.9 6.6l-8.2 13.5v0.1l-0.9 1.4h-3.2v-32h0.1l10.7-2.5 1.8 1.4c1 0.7 1.6 1.8 1.6 3z"/><path class="e" d="m640.9 548.4v32h-3.2l-0.8-1.2-8.3-13.8c-1.2-2-1.9-4.2-1.9-6.5v-8.6c0-1.2 0.6-2.3 1.6-3l1.8-1.4 10.7 2.5z"/><path class="d" d="m630.1 542.2v5.2c0 1.8 0.8 3.6 2.3 4.8l4.5 3.7c2.3 1.9 5.6 1.9 7.9 0l4.6-3.7c1.5-1.2 2.3-3 2.3-4.9v-5.6z"/><path class="f" d="m630.1 546c2.9 3.2 6.5 5 10.6 5 4.2 0 8-1.9 11-5.5v-3.8l-21.6 0.5z"/><path class="g" d="m640.7 548.4c9.9 0 17.4-10.4 17.4-27.5 0-21.4-6.2-26.4-17.4-26.4-11.2 0-17.5 5-17.5 26.4 0 17.1 7.6 27.5 17.5 27.5z"/><path class="d" d="m657.1 531.9c0 0 2.7 2.8 4-4 1.4-7.3 1.3-11.3-1.2-12.2-1.6-0.5-2.1 0.9-2.1 0.9z"/><path class="h" d="m640.9 494.5v53.9c9.8-0.2 17.2-10.5 17.2-27.5 0-21.3-6.1-26.3-17.2-26.4z"/><path class="c" d="m644.8 578.9v0.1l-0.9 1.4h-6.2l-0.8-1.2 1.9-10.8h4.2z"/><path class="c" d="m640.9 569.9l3.2-2.1c1-0.6 1.4-1.9 0.9-3l-1.4-3.8c-0.4-1-1.3-1.6-2.4-1.6h-0.3-0.3c-1.1 0-2 0.6-2.4 1.6l-1.4 3.8c-0.4 1.1 0 2.4 0.9 3z"/><path class="i" d="m655.8 497.5c1.9 1.1 3.5 4.9 4.4 7.8 0.8 2.2 0.9 4.6 0.5 6.9l-2.9 14.6c0 0-0.8-5.4-1.1-9.8-0.7-12.5-4.5-13.6-8.5-13.6-2.1 0-7.3 1.5-7.3 1.5 0 0-5.3-1.5-7.3-1.5-4.1 0-7.9 1.1-8.6 13.6-0.2 4.4-1 9.8-1 9.8l-2.9-14.5c-0.4-2.4-0.3-4.8 0.5-7.1 1-2.8 2.5-6.5 4.4-7.7 9.9-5.2 19-5.9 29.8 0z"/><path fill-rule="evenodd" class="a" d="m640.7 613c-39.8 0-71.9-32.1-71.9-71.8 0-39.8 32.1-71.9 71.9-71.9 39.7 0 71.9 32.1 71.9 71.9 0 39.7-32.2 71.8-71.9 71.8zm58.8-71.8c0-32.6-26.3-58.8-58.8-58.8-32.5 0-58.8 26.2-58.8 58.8 0 32.5 26.3 58.8 58.8 58.8 32.5 0 58.8-26.3 58.8-58.8z"/><path class="j" d="m259 605.8c-36.2 0-65.4-29.2-65.4-65.4 0-36.1 29.2-65.3 65.4-65.3 36.1 0 65.3 29.2 65.3 65.3 0 36.2-29.2 65.4-65.3 65.4z"/><path fill-rule="evenodd" class="a" d="m259 612.3c-39.8 0-71.9-32.1-71.9-71.9 0-39.7 32.1-71.8 71.9-71.8 39.7 0 71.9 32.1 71.9 71.8 0 39.8-32.2 71.9-71.9 71.9zm58.8-71.9c0-32.5-26.3-58.8-58.8-58.8-32.5 0-58.8 26.3-58.8 58.8 0 32.6 26.3 58.8 58.8 58.8 32.5 0 58.8-26.2 58.8-58.8z"/><path class="d" d="m258.6 566.4l10.4-8.3c0 0-1.5-2-2.1-8.3h-8.3-8.3c-0.6 6.3-2.1 8.3-2.1 8.3z"/><path class="f" d="m266.9 549.8h-8.3-8.3q-0.1 1-0.2 1.8c2.5 2 5.4 3.1 8.5 3.1 3.1 0 6-1.1 8.5-3.1q-0.1-0.8-0.2-1.8z"/><path class="d" d="m242.7 536.4c0 0-2.7 2.8-4-3.9-1.4-7.3-1.3-11.2 1.2-12 1.5-0.5 2 0.8 2 0.8z"/><path class="g" d="m258.6 552.7c9.8 0 17.2-10.2 17.2-27.2 0-21.1-6.2-26-17.2-26-11.1 0-17.3 4.9-17.3 26 0 17 7.5 27.2 17.3 27.2z"/><path class="d" d="m274.8 536.4c0 0 2.6 2.8 3.9-3.9 1.4-7.3 1.3-11.2-1.1-12-1.6-0.5-2.1 0.8-2.1 0.8z"/><path class="h" d="m258.8 499.5v53.2c9.7-0.2 17-10.4 17-27.2 0-20.9-6.1-25.9-17-26z"/><path class="k" d="m258.4 495c-19.6 0-21.2 19.3-20.2 26.3 0.4 3.5 3.1 6.8 3.1 6.8 0 0 0.8-9.4 6.9-12.1 6.1-2.7 15-1.2 19.3-7.7 5 7.7 7.3 10.9 8.3 19.8 5.6-5.9 10.1-32.9-17.4-33.1z"/><path class="k" d="m258.4 501.8c-6.1 0-11.1-3-11.1-6.8 0-3.7 5-6.7 11.1-6.7 6.2 0 11.1 3 11.1 6.7 0 3.8-4.9 6.8-11.1 6.8z"/><path class="l" d="m258.6 561.9l-13.9-1.9 13.9 24.2 13.9-24.2z"/><path class="e" d="m249.7 553.7l-1.5 0.7-3.5 5.6 10.3 13.2 3.6-11.3-9.1-7.2z"/><path class="e" d="m267.5 553.7l1.5 0.7 3.5 5.6-10.3 13.2-3.6-11.3 9.1-7.2z"/><path class="c" d="m244.7 560l-12 7.3c-1.4 0.8-2.4 2.2-2.8 3.8l-3.1 13.1h31.8z"/><path class="c" d="m272.5 560l11.9 7.3c1.4 0.8 2.4 2.2 2.8 3.8l3.2 13.1h-31.8z"/><path class="m" d="m453.2 466.6c-63.3 0-114.4-51.1-114.4-114.3 0-63.3 51.1-114.4 114.4-114.4 63.2 0 114.3 51.1 114.3 114.4 0 63.2-51.1 114.3-114.3 114.3z"/><path class="c" d="m391.9 423.6l8-30.6c0.7-2.7 2.5-5 4.9-6.5l24.7-15.4 2.2 20.7 17.1 31.8z"/><path class="c" d="m516.3 423.6l-8-30.6c-0.7-2.7-2.4-5-4.8-6.5l-24.7-15.4-2.3 20.7-17.1 31.8z"/><path class="d" d="m425.4 338.1c0 0-4.8 5.1-7.1-7-2.5-12.9-2.4-19.9 2.1-21.3 2.8-1 3.6 1.4 3.6 1.4z"/><path class="e" d="m478.7 370.6v15c0 4.1-1.1 8.1-3.2 11.5l-14.6 23.9-1.6 2.6h-5.6v-56.4h0.3l18.8-4.3 3.2 2.3c1.7 1.3 2.7 3.3 2.7 5.4z"/><path class="e" d="m454.1 367.2v56.4h-5.6l-1.3-2.2-14.8-24.2c-2.1-3.5-3.2-7.5-3.2-11.6v-15c0-2.1 1-4.1 2.7-5.4l3.2-2.3 18.9 4.3z"/><path class="d" d="m435.1 356.3v9.1c0 3.3 1.5 6.5 4 8.6l8 6.5c4 3.3 9.8 3.3 13.9 0l8.1-6.5c2.6-2.1 4.1-5.3 4.1-8.6v-10z"/><path class="f" d="m435.1 363c5.1 5.7 11.5 8.8 18.6 8.8 7.5 0 14.2-3.4 19.5-9.6v-6.8l-38.1 0.9z"/><path class="g" d="m453.7 367.2c17.4 0 30.8-18.2 30.8-48.4 0-37.7-11.1-46.4-30.8-46.4-19.7 0-30.7 8.7-30.7 46.4 0 30.2 13.3 48.4 30.7 48.4z"/><path class="d" d="m482.5 338.1c0 0 4.8 5.1 7.1-7 2.5-12.9 2.4-19.9-2-21.3-2.9-1-3.7 1.4-3.7 1.4z"/><path class="h" d="m454.1 272.4v94.8c17.2-0.3 30.4-18.4 30.4-48.4 0-37.4-10.9-46.3-30.4-46.4z"/><path class="c" d="m460.9 421l-1.6 2.6h-10.8l-1.3-2.2 3.2-18.9h7.4z"/><path class="c" d="m454.1 405.1l5.6-3.7c1.7-1.1 2.4-3.3 1.7-5.2l-2.6-6.8c-0.6-1.8-2.3-2.9-4.1-2.9h-0.6-0.6c-1.8 0-3.4 1.1-4.1 2.9l-2.6 6.8c-0.7 1.9 0 4.1 1.8 5.2z"/><path class="i" d="m480.3 277.7c3.4 1.9 6.1 8.6 7.8 13.7 1.3 3.9 1.6 8.1 0.8 12.1l-5.1 25.8c0 0-1.4-9.5-1.8-17.3-1.2-22-7.9-23.9-15-23.9-3.7 0-12.9 2.7-12.9 2.7h-0.1c0 0-9.1-2.7-12.8-2.7-7.1 0-13.8 1.9-15 23.9-0.5 7.8-1.8 17.3-1.8 17.3l-5.1-25.6c-0.8-4.1-0.5-8.4 0.9-12.4 1.7-5.1 4.4-11.6 7.7-13.6 17.5-9.2 33.4-10.5 52.4 0z"/><path fill-rule="evenodd" class="a" d="m453.2 466.6c-63.3 0-114.4-51.1-114.4-114.3 0-63.3 51.1-114.4 114.4-114.4 63.2 0 114.3 51.1 114.3 114.4 0 63.2-51.1 114.3-114.3 114.3zm99-114.3c0-54.8-44.3-99-99-99-54.8 0-99 44.2-99 99 0 54.7 44.2 99 99 99 54.7 0 99-44.3 99-99z"/><path class="a" d="m453.2 185.7q-0.1 0-0.1 0 0 0 0 0-0.1 0-0.1 0 0 0 0 0-0.1 0-0.1 0 0 0 0 0-0.1 0-0.1 0-0.1 0-0.1 0 0 0 0 0-0.1 0-0.1 0 0 0-0.1 0 0 0 0 0 0 0-0.1 0 0 0 0 0 0 0-0.1 0 0 0 0 0 0 0-0.1 0 0 0 0 0 0 0-0.1 0 0 0 0 0 0 0-0.1 0 0 0 0 0 0 0-0.1 0 0 0 0 0 0 0-0.1 0 0 0 0 0-0.1 0-0.1 0 0 0 0 0-0.1 0-0.1 0 0 0 0 0-0.1 0-0.1 0 0 0 0 0-0.1 0-0.1 0 0 0 0 0-0.1 0-0.1 0 0 0-0.1 0 0 0 0 0 0 0 0 0-0.1 0-0.1 0 0 0-0.1 0 0 0 0 0-0.1 0-0.1 0 0 0 0 0-0.1 0-0.1 0 0 0 0 0-0.1 0-0.1 0 0 0 0 0-0.1 0-0.1 0 0 0-0.1 0 0 0 0 0 0 0-0.1 0 0 0 0 0 0 0-0.1 0 0 0 0 0 0 0-0.1 0 0 0 0 0 0 0-0.1 0 0 0 0 0-0.1 0-0.1 0.1 0 0 0 0-0.1 0-0.1 0 0 0-0.1 0 0 0 0 0 0 0 0 0-0.1 0-0.1 0 0 0-0.1 0 0 0 0 0 0 0 0 0-0.1 0-0.1 0 0 0-0.1 0 0 0 0 0-0.1 0-0.2 0 0 0 0 0-0.1 0-0.1 0 0 0 0 0-0.1 0-0.1 0 0 0 0 0-0.1 0-0.1 0 0 0 0 0-0.1 0-0.1 0 0 0 0 0-0.1 0-0.1 0 0 0 0 0-0.1 0-0.2 0 0 0 0 0-0.1 0-0.2 0-0.2 0-0.4 0 0 0 0 0-2.7 0.1-5.4 0.3 0 0 0 0-0.1 0-0.2 0 0 0 0 0-0.1 0-0.1 0 0 0-0.1 0 0 0 0 0 0 0 0 0-0.1 0-0.1 0 0 0-0.1 0 0 0 0 0 0 0-0.1 0 0 0 0 0 0 0-0.1 0 0 0 0 0 0 0-0.1 0 0 0 0 0-0.1 0-0.1 0 0 0 0 0-0.1 0-0.1 0 0 0 0 0-0.1 0-0.1 0-0.1 0-0.1 0 0 0 0 0-0.1 0-0.1 0.1-0.1 0-0.1 0-0.1 0-0.1 0-0.6 0-1.2 0.1c-1.5 0.1-2.6 1.4-2.4 2.9 0.1 1.4 1.2 2.4 2.6 2.4q0.1 0 0.3 0c4.3-0.3 8.6-0.5 13-0.5 1.5 0 2.7-1.2 2.7-2.7 0-1.5-1.2-2.7-2.7-2.7zm-26.4 2.1q-0.2 0-0.4 0.1-4.8 0.7-9.5 1.8 0 0 0 0-0.1 0-0.2 0 0 0 0 0-0.1 0-0.1 0.1 0 0 0 0-0.1 0-0.1 0 0 0 0 0-0.1 0-0.1 0 0 0 0 0-0.1 0-0.1 0 0 0-0.1 0 0 0 0 0 0 0 0 0-0.1 0.1-0.1 0.1 0 0-0.1 0 0 0 0 0 0 0-0.1 0 0 0 0 0 0 0-0.1 0 0 0 0 0 0 0-0.1 0 0 0 0 0.1 0 0-0.1 0 0 0 0 0 0 0-0.1 0 0 0-0.1 0 0 0 0 0-0.1 0-0.2 0.1 0 0 0 0-1 0.2-2 0.5c-1.5 0.3-2.4 1.8-2 3.2 0.3 1.2 1.4 2.1 2.6 2.1q0.3 0 0.7-0.1c4.2-1 8.4-1.9 12.7-2.6 1.5-0.3 2.5-1.6 2.2-3.1-0.2-1.3-1.3-2.3-2.6-2.3zm-25.7 6.4q-0.4 0-0.9 0.1-1.8 0.6-3.5 1.3-0.2 0-0.3 0.1-0.1 0-0.2 0-0.1 0.1-0.1 0.1 0 0 0 0-0.1 0-0.2 0-0.1 0.1-0.1 0.1 0 0 0 0-0.1 0-0.2 0 0 0.1 0 0.1-0.1 0-0.1 0 0 0 0 0-0.1 0-0.1 0 0 0 0 0-0.1 0-0.1 0.1 0 0 0 0-0.1 0-0.1 0 0 0 0 0-0.1 0-0.1 0 0 0 0 0-0.1 0-0.1 0.1 0 0 0 0-0.1 0-0.1 0 0 0 0 0-0.1 0-0.1 0 0 0 0 0.1-0.1 0-0.1 0 0 0 0 0-0.1 0-0.1 0 0 0 0 0-0.1 0-0.1 0 0 0.1 0 0.1-0.1 0-0.1 0 0 0 0 0-0.1 0-0.1 0 0 0 0 0-0.1 0.1-0.1 0.1 0 0 0 0-0.1 0-0.1 0 0 0 0 0-0.1 0-0.1 0 0 0 0 0.1-0.1 0-0.1 0 0 0 0 0-0.1 0-0.1 0 0 0 0 0-0.1 0-0.1 0 0 0.1 0 0.1-0.1 0-0.1 0 0 0 0 0-0.1 0-0.1 0 0 0 0 0 0 0-0.1 0.1 0 0 0 0-0.1 0-0.1 0 0 0 0 0-0.1 0-0.1 0 0 0 0 0.1 0 0-0.1 0 0 0 0 0-0.1 0-0.1 0 0 0 0 0-0.1 0-0.1 0.1 0 0 0 0 0 0 0 0-0.1 0-0.1 0 0 0-0.1 0 0 0.1-0.1 0.1 0 0 0 0-0.1 0-0.1 0 0 0-0.1 0 0 0.1-0.1 0.1 0 0 0 0-0.1 0-0.1 0 0 0 0 0.1-0.1 0-0.1 0 0 0 0 0-0.1 0-0.1 0 0 0 0 0-0.1 0-0.1 0.1 0 0 0 0-0.1 0-0.1 0-0.1 0-0.1 0 0 0 0 0-0.2 0.1-0.3 0.2 0 0 0 0-0.1 0-0.1 0 0 0 0 0-0.1 0-0.1 0 0 0 0 0 0 0-0.1 0.1 0 0 0 0-0.1 0-0.2 0 0 0.1-0.1 0.1-0.1 0-0.2 0.1 0 0-0.1 0 0 0 0 0-0.1 0-0.2 0.1 0 0-0.1 0 0 0 0 0-0.1 0.1-0.2 0.1 0 0 0 0 0 0-0.1 0v0.1q-0.1 0-0.1 0-0.1 0-0.1 0 0 0.1-0.1 0.1-0.1 0-0.1 0 0 0-0.1 0 0 0.1-0.1 0.1-0.1 0-0.1 0.1-0.1 0-0.2 0 0 0-0.1 0.1-0.1 0-0.2 0.1-0.1 0-0.1 0 0 0 0 0-0.1 0-0.2 0.1 0 0 0 0-0.1 0-0.1 0 0 0 0 0-0.1 0.1-0.2 0.1 0 0 0 0 0 0-0.1 0.1-0.1 0-0.2 0 0 0.1-0.1 0.1 0 0 0 0 0 0 0 0c-1.4 0.6-2 2.2-1.5 3.5 0.5 1.1 1.5 1.7 2.5 1.7q0.6 0 1.1-0.3c4-1.7 8.1-3.2 12.2-4.6 1.4-0.5 2.1-2 1.6-3.4-0.3-1.1-1.4-1.8-2.5-1.8zm-24.3 10.4q-0.7 0-1.3 0.3 0 0-0.1 0 0 0 0 0.1 0 0-0.1 0 0 0 0 0 0 0-0.1 0 0 0 0 0 0 0.1 0 0.1-0.1 0-0.1 0 0 0 0 0-0.1 0-0.1 0.1 0 0 0 0 0 0-0.1 0 0 0 0 0 0 0-0.1 0.1 0 0 0 0 0 0-0.1 0 0 0 0 0 0 0-0.1 0.1 0 0 0 0 0 0 0 0 0 0-0.1 0 0 0 0 0.1-0.1 0-0.1 0 0 0-0.1 0 0 0 0 0-5.3 2.9-10.4 6.2c-1.3 0.8-1.6 2.4-0.9 3.7 0.6 0.8 1.4 1.2 2.3 1.2 0.5 0 1-0.1 1.5-0.4 3.6-2.3 7.4-4.5 11.2-6.5 1.3-0.7 1.8-2.4 1.2-3.7-0.5-0.9-1.5-1.4-2.4-1.4zm-22.4 14.2c-0.5 0-1.1 0.2-1.6 0.5q0 0.1-0.1 0.1 0 0 0 0.1h-0.1q-3.6 2.8-7.2 5.8 0 0 0 0 0 0 0 0h-0.1q0 0.1 0 0.1 0 0 0 0-0.1 0-0.1 0.1 0 0 0 0 0 0-0.1 0 0 0 0 0 0 0.1-0.1 0.1 0 0 0 0 0 0 0 0.1 0 0-0.1 0 0 0 0 0 0 0 0 0.1-0.1 0-0.1 0 0 0 0 0 0 0-0.1 0.1-1.1 1-2.3 2c-1.1 1-1.2 2.7-0.2 3.8 0.5 0.6 1.3 0.9 2 0.9 0.6 0 1.3-0.2 1.8-0.7 3.2-2.9 6.6-5.7 10.1-8.3 1.2-0.9 1.4-2.5 0.5-3.7-0.5-0.7-1.3-1.1-2.2-1.1zm-19.7 17.6c-0.7 0-1.4 0.3-2 0.8q-2.2 2.4-4.4 4.8-0.1 0.2-0.2 0.3 0 0 0 0 0 0-0.1 0.1 0 0-0.1 0.1 0 0 0 0 0 0.1-0.1 0.1 0 0 0 0 0 0 0 0.1-0.1 0-0.1 0 0 0 0 0.1 0 0-0.1 0 0 0 0 0 0 0.1 0 0.1 0 0 0 0-0.1 0-0.1 0.1 0 0 0 0 0 0-0.1 0.1 0 0 0 0 0 0 0 0 0 0.1-0.1 0.1 0 0 0 0 0 0 0 0 0 0.1-0.1 0.1 0 0 0 0 0 0 0 0.1-0.1 0-0.1 0 0 0 0 0.1 0 0 0 0-0.1 0-0.1 0 0 0 0 0.1 0 0-0.1 0 0 0 0 0 0 0.1 0 0.1 0 0 0 0-0.1 0-0.1 0.1 0 0 0 0 0 0-0.1 0.1 0 0 0 0 0 0 0 0 0 0-0.1 0.1 0 0 0 0 0 0 0 0 0 0.1-0.1 0.1 0 0 0 0 0 0 0 0.1 0 0-0.1 0 0 0 0 0 0 0.1 0 0.1 0 0-0.1 0 0 0 0 0.1 0 0 0 0 0 0-0.1 0.1 0 0 0 0 0 0 0 0-0.1 0.1-0.1 0.1 0 0 0 0 0 0 0 0 0 0.1-0.1 0.1 0 0 0 0 0 0.1-0.1 0.1 0 0 0 0 0 0 0 0 0 0.1 0 0.1 0 0-0.1 0 0 0 0 0.1 0 0-0.1 0 0 0 0 0 0 0.1-0.1 0.2 0 0 0 0 0 0-0.1 0.1 0 0 0 0 0 0.1-0.1 0.1 0 0.1-0.1 0.1 0 0 0 0 0 0.1-0.1 0.2 0 0 0 0 0 0-0.1 0.1 0 0 0 0-0.2 0.2-0.4 0.4-0.4 0.6-0.9 1.1c-0.9 1.2-0.7 2.9 0.4 3.8 0.5 0.4 1.1 0.6 1.7 0.6 0.8 0 1.6-0.3 2.1-1 2.7-3.3 5.6-6.6 8.6-9.7 1.1-1.1 1-2.8-0.1-3.8-0.5-0.5-1.1-0.8-1.8-0.8zm-16.7 20.6c-0.9 0-1.7 0.4-2.2 1.1q0 0-0.1 0.1 0 0 0 0 0 0.1-0.1 0.1 0 0 0 0 0 0.1 0 0.1 0 0 0 0-0.1 0.1-0.1 0.2-2.1 2.9-3.9 6 0 0 0 0-0.1 0-0.1 0.1-0.1 0.1-0.1 0.1 0 0 0 0.1 0 0-0.1 0 0 0 0 0.1 0 0-0.1 0.1 0 0 0 0 0 0.1 0 0.1 0 0 0 0-0.1 0.1-0.1 0.1 0 0 0 0.1 0 0 0 0-0.1 0-0.1 0.1 0 0 0 0 0 0-0.1 0.1 0 0 0 0 0 0 0 0 0 0.1 0 0.1 0 0-0.1 0 0 0.1 0 0.1 0 0 0 0 0 0 0 0.1 0 0-0.1 0 0 0 0 0.1 0 0 0 0 0 0 0 0-0.1 0.1-0.1 0.1 0 0 0 0 0 0.1 0 0.1 0 0-0.1 0 0 0 0 0.1 0 0 0 0 0 0 0 0 0 0.1-0.1 0.1 0 0 0 0 0 0.1 0 0.1 0 0 0 0-0.1 0.1-0.1 0.1 0 0 0 0 0 0 0 0.1 0 0 0 0-0.1 0-0.1 0.1 0 0 0 0 0 0 0 0.1 0 0 0 0-0.1 0-0.1 0.1 0 0 0 0 0 0 0 0.1-0.1 0-0.1 0 0 0 0 0 0 0 0 0.1 0 0-0.1 0 0 0 0 0 0 0.1 0 0.1 0 0 0 0 0 0.1-0.1 0.1 0 0.1 0 0.1 0 0 0 0 0 0.1-0.1 0.1 0 0 0 0 0 0.1-0.1 0.2 0 0 0 0 0 0 0 0.1 0 0 0 0-0.1 0.1-0.1 0.1 0 0.1 0 0.1-0.1 0-0.1 0 0 0 0 0.1 0 0-0.1 0.1 0 0.1-0.1 0.1-0.3 0.6-0.6 1.1c-0.7 1.3-0.3 3 1 3.7q0.7 0.4 1.3 0.3c1 0 1.9-0.4 2.4-1.3 2.1-3.8 4.5-7.5 6.9-11 0.9-1.3 0.5-2.9-0.7-3.8-0.4-0.3-1-0.4-1.5-0.4zm-13.2 22.9c-1 0-1.9 0.6-2.4 1.6q-2.9 6-5.2 12.4c-0.6 1.3 0.1 2.9 1.5 3.4q0.5 0.2 1 0.2c1.1 0 2.1-0.7 2.5-1.8 1.5-4 3.2-8 5.1-12 0.6-1.3 0-2.9-1.3-3.5q-0.6-0.3-1.2-0.3zm-9.3 24.8c-1.1 0-2.2 0.8-2.5 1.9q-0.5 1.6-0.9 3.3 0 0-0.1 0.1 0 0 0 0.1 0 0 0 0.1 0 0 0 0 0 0 0 0.1 0 0-0.1 0.1 0 0 0 0 0 0 0 0.1 0 0 0 0 0 0 0 0.1 0 0 0 0 0 0 0 0.1 0 0 0 0-0.1 0-0.1 0.1 0 0 0 0 0 0 0 0.1 0 0 0 0 0 0 0 0.1 0 0 0 0 0 0 0 0.1 0 0-0.1 0 0 0 0 0.1 0 0 0 0 0 0 0 0.1 0 0 0 0 0 0 0 0.1 0 0 0 0 0 0.1 0 0.1 0 0-0.1 0 0 0 0 0.1 0 0 0 0 0 0.1 0 0.1 0 0 0 0.1 0 0 0 0 0 0 0 0 0 0.1 0 0.1 0 0-0.1 0.1 0 0 0 0 0 0.1 0 0.1 0 0.1 0 0.1 0 0 0 0.1 0 0 0 0-0.1 0.1-0.1 0.2 0 0 0 0 0 0 0 0.1 0 0 0 0.1 0 0-0.1 0.1-0.8 3.4-1.5 6.9c-0.3 1.5 0.7 2.9 2.1 3.2q0.3 0 0.5 0c1.3 0 2.4-0.8 2.7-2.1 0.8-4.3 1.9-8.5 3-12.7 0.4-1.4-0.4-2.9-1.8-3.3q-0.4-0.1-0.8-0.1zm-5.1 25.9c-1.3 0-2.5 1.1-2.7 2.4q-0.5 4.8-0.8 9.7 0 0.1 0 0.2 0 0 0 0 0 0.1 0 0.1 0 0 0 0 0 0.1 0 0.1 0 0 0 0 0 0.1 0 0.1 0 0 0 0.1 0 0 0 0 0 0 0 0.1 0 0 0 0 0 0 0 0.1 0 0 0 0-0.1 0-0.1 0.1 0 0 0 0 0 0.1 0 0.1 0 0 0 0 0 0.1 0 0.1 0 0 0 0 0 0.1 0 0.1 0 0 0 0 0 0.1 0 0.1 0 0 0 0 0 0.1 0 0.1 0 0 0 0 0 0.1 0 0.1 0 0 0 0 0 0.1 0 0.1 0 0 0 0 0 0.1 0 0.2 0 1-0.1 1.9c0 1.5 1.1 2.8 2.6 2.8q0.1 0 0.1 0c1.5 0 2.7-1.1 2.7-2.6 0.2-4.3 0.5-8.7 1-13 0.1-1.4-0.9-2.8-2.4-2.9q-0.1-0.1-0.3-0.1zm-0.9 26.5q-0.1 0-0.1 0c-1.5 0.1-2.7 1.3-2.6 2.8q0.1 3.1 0.4 6.2 0 0 0 0 0 0 0 0.1 0 0 0 0.1 0 0 0 0.1 0 0 0 0 0 0.1 0 0.2 0 0 0 0 0 0.1 0 0.1 0 0 0 0 0 0.1 0 0.1 0.1 0 0.1 0 0 0.1 0 0.1 0 0 0 0 0 0.1 0 0.1 0 0 0 0.1 0 0 0 0 0 0 0 0.1 0 0 0 0 0 0 0 0.1 0 0 0 0 0 0 0 0.1 0 0 0 0 0 0 0 0.1 0 0 0 0 0 0.1 0 0.1 0 0 0 0 0 0.1 0 0.1 0 0 0 0 0 0.1 0 0.1 0 0 0 0 0 0.1 0 0.1 0 0 0 0 0.1 0.1 0.1 0.1 0 0 0 0 0 0.1 0 0.1 0 0 0 0 0 0.1 0 0.1 0 0.1 0 0.1 0 0 0 0 0 0.1 0 0.2 0.2 2.5 0.5 4.8c0.2 1.4 1.4 2.4 2.7 2.4q0.2 0 0.4 0c1.4-0.2 2.5-1.6 2.3-3-0.6-4.3-0.9-8.7-1.1-13-0.1-1.5-1.3-2.6-2.7-2.6zm3.3 26.3q-0.3 0-0.5 0c-1.5 0.3-2.4 1.7-2.1 3.2q0 0.4 0.1 0.7 0 0.1 0 0.1 0.1 0.1 0.1 0.1 0 0.1 0 0.1 0 0 0 0.1 0 0 0 0 0 0 0 0.1 0 0 0 0 0 0 0 0.1 0 0 0.1 0 0 0.1 0 0.1 0 0 0 0 0 0.1 0 0.1 0 0 0 0 0 0.1 0 0.1 0 0 0 0 0 0.1 0 0.1 0 0 0 0 0 0.1 0.1 0.1 0 0 0 0 0 0.1 0 0.1 0 0 0 0 0 0.1 0 0.1 0 0 0 0 0.8 3.7 1.8 7.3 0 0.1 0 0.2 0.1 0 0.1 0.1 0 0 0 0 0 0.1 0 0.2 0 0 0 0 0 0 0.1 0.1 0 0 0 0 0 0 0 0.1 0 0 0 0 0 0 0 0.1 0 0 0 0 0 0 0 0 0 0.1 0.1 0.1 0 0 0 0.1 0 0 0 0 0 0 0 0.1 0 0 0 0 0 0 0 0.1 0 0 0 0v0.1q0.1 0 0.1 0 0 0 0 0 0 0.1 0 0.1 0.3 1.2 0.7 2.4c0.3 1.1 1.4 1.9 2.5 1.9q0.4 0 0.8-0.1c1.4-0.4 2.3-1.9 1.8-3.4-1.2-4.1-2.3-8.4-3.2-12.6-0.2-1.3-1.3-2.1-2.6-2.1zm7.5 25.3q-0.5 0-1 0.2c-1.3 0.6-2 2.1-1.5 3.5q2.4 6.2 5.3 12.2 0 0 0 0 0 0 0 0.1 0.1 0 0.1 0 0 0 0 0c0.4 1 1.4 1.6 2.4 1.6q0.6 0 1.2-0.3c1.3-0.7 1.9-2.3 1.2-3.6-1.9-3.9-3.6-7.9-5.2-11.9-0.4-1.1-1.4-1.8-2.5-1.8zm11.5 23.9q-0.7 0-1.3 0.3c-1.3 0.8-1.7 2.4-1 3.7q0.1 0.1 0.1 0.1 0 0.1 0.1 0.2 0 0 0 0 0 0 0 0.1 0.1 0.1 0.1 0.2 0.1 0 0.1 0 0 0 0 0 0 0.1 0 0.1 0.1 0 0.1 0.1 0 0 0 0 0 0.1 0.1 0.1 0 0 0 0 0 0.1 0.1 0.2 0 0 0 0 0 0.1 0 0.1 0 0 0 0 0.1 0 0.1 0.1 0 0 0 0.1 0 0 0 0 0.1 0 0.1 0.1 0 0 0 0 0 0 0 0.1 0 0 0.1 0 0 0 0 0 0 0 0 0 0 0.1 0.1 0.1 0 0.1 0 0.1 0 0 0 0 0 0.1 0.1 0.1 0 0.1 0 0.1 0 0 0 0 0 0.1 0.1 0.1 0 0 0 0 0 0 0 0.1 0 0 0 0 0.1 0 0.1 0.1 0 0 0 0 0 0 0 0.1 0 0 0 0 0.1 0 0.1 0v0.1q0 0 0 0 0 0 0.1 0.1 0 0 0 0 0 0.1 0.1 0.1 0 0.1 0 0.1 0 0 0 0 0 0.1 0.1 0.1 0 0.1 0.1 0.2 0 0 0 0 0 0 0 0.1 2.6 4.1 5.4 8.1c0.5 0.8 1.4 1.2 2.2 1.2 0.6 0 1.1-0.2 1.6-0.5 1.2-0.9 1.5-2.6 0.6-3.8-2.5-3.5-4.8-7.2-7-10.9-0.5-0.9-1.4-1.3-2.4-1.3zm15.3 21.6c-0.6 0-1.3 0.2-1.8 0.6-1.1 1-1.3 2.7-0.3 3.8q2.6 3.1 5.2 6.1h0.1q0.1 0.1 0.2 0.2 0 0 0 0 0 0 0 0.1 0 0 0 0 0.1 0 0.2 0.1 0 0 0 0 0 0.1 0 0.1 0 0 0.1 0 0 0.1 0.1 0.1 0 0.1 0.1 0.1 0 0 0 0 0 0.1 0 0.1 0.1 0 0.1 0.1 0 0 0.1 0v0.1q0 0 0 0h0.1q0 0.1 0 0.1 0 0 0 0 0.1 0 0.1 0.1 0 0 0 0 0 0 0.1 0.1 0 0 0 0 0 0 0 0 0.1 0.1 0.1 0.1 0 0 0 0 0 0.1 0.1 0.1 0 0 0 0 0 0 0 0.1 0.1 0 0.1 0 0 0 0 0 0 0 0 0.1 0.1 0 0.1 0 0 0 0 0 0 0.1 0.1 0.1 0 0 0 0 0 0 0 0.1 0 0 0 0 0.1 0 0.1 0 0 0.1 0 0.1 0 0 0.1 0 0 0 0 0 0 0.1 0 0.1 0.1 0 0.1 0 0 0 0 0.1 0 0 0 0 0.1 0 0.1 0 0 0.1 0 0.1 0 0 0.1 0 0 0 0 0 0 0.1 0 0.1 0 0 0.1 0 0 0.1 0 0.1 0 0 0 0 0.1 0 0.1 0 0 0.1 0 0.1 0 0 0.1 0 0 0 0 0.1 0 0 0 0 0 0 0.1 0 0 0.1 0 0.1 0 0 0 0 0 0 0.1 0.1 0 0 0 0 0 0 0 0 0.1 0 0.1 0.1 0 0 0 0 0 0 0 0 0.1 0.1 0.1 0.1 0 0 0 0 0 0 0.1 0.1 0 0 0 0 0 0 0 0 0 0 0.1 0.1 0 0 0 0 0 0 0 0 0.1 0.1 0.1 0.1 0 0 0 0 0 0 0 0.1 0.1 0 0.1 0 0 0 0 0 0 0 0.1 0.1 0 0 0 0 0 0 0 0 0 0.1 0.1 0.1 0 0 0 0 0 0 0 0 0.1 0.1 0.1 0.1 0 0 0 0 0 0 0.1 0.1 0 0 0 0 0 0 0 0c0.5 0.6 1.2 0.8 1.9 0.8 0.7 0 1.4-0.2 1.9-0.7 1.1-1.1 1.1-2.8 0.1-3.8-3.1-3.1-6-6.4-8.8-9.7-0.5-0.7-1.3-1-2-1zm18.5 18.9c-0.8 0-1.5 0.4-2.1 1-0.9 1.1-0.8 2.8 0.3 3.8q0.8 0.7 1.6 1.4 0.1 0 0.1 0 0 0 0 0.1 0 0 0.1 0 0 0 0 0 0 0 0 0.1 0.1 0 0.1 0 0 0 0 0 0 0 0.1 0.1 0 0 0 0 0 0 0.1 0 0 0 0 0.1 0 0 0 0 0 0 0.1 0 0 0 0 0.1 0 0 0 0 0.1 0 0.1 0 0 0 0 0.1 0 0 0.1 0 0 0 0 0 0.1 0.1 0.1 0.1 0 0.1 0.1 0.1 0 0 0 0 0 0 0 0 2.7 2.2 5.4 4.4 0.1 0 0.2 0.1 0.1 0 0.1 0v0.1q0 0 0.1 0 0 0 0.1 0.1 0 0 0 0 0 0 0 0 0 0 0.1 0 0 0.1 0 0.1 0 0 0.1 0 0 0 0 0.1 0 0 0 0 0.1 0 0.1 0 0 0 0 0 0 0.1 0.1 0.1 0 0 0 0 0 0 0 0 0.1 0.1 0.1 0.1 0 0 0 0 0.1 0.1 0.2 0.1 0.6 0.5 1.3 1c0.5 0.4 1 0.5 1.6 0.5 0.8 0 1.6-0.4 2.2-1.1 0.8-1.2 0.6-2.8-0.6-3.7-3.5-2.6-6.9-5.3-10.2-8.2-0.5-0.4-1.1-0.7-1.7-0.7zm21.2 15.8c-0.9 0-1.7 0.4-2.2 1.2-0.8 1.3-0.4 3 0.8 3.8q5.7 3.5 11.7 6.6 0.6 0.3 1.3 0.3c0.9 0 1.9-0.5 2.4-1.5 0.6-1.3 0.1-2.9-1.2-3.6-3.8-2-7.7-4.1-11.3-6.4-0.5-0.3-1-0.4-1.5-0.4zm23.6 12.1c-1.1 0-2.1 0.6-2.5 1.6-0.6 1.4 0.1 3 1.4 3.5q0.1 0.1 0.1 0.1 0 0 0 0 0 0 0.1 0 0 0 0 0 0 0 0.1 0 0 0.1 0 0.1 0 0 0.1 0 0 0 0 0 0 0 0 0 0.1 0 0.1 0 0 0.1 0 0.1 0.1 0 0.1 0 0 0 0 0 0.1 0 0.1 0 0 0 0 0 0.1 0 0.1 0.1 0 0 0 0 0.1 0 0.1 0 0 0 0 0 0.1 0 0.1 0v0.1q0.1 0 0.1 0 0 0 0 0 0.1 0 0.1 0 0.1 0.1 0.1 0.1 0.1 0 0.1 0 0 0 0 0 0.1 0 0.2 0.1 0 0 0 0 0.1 0 0.1 0 0.1 0.1 0.2 0.1 0 0 0 0 0 0 0.1 0 0.1 0.1 0.2 0.1 2.8 1.2 5.7 2.2 0 0 0 0 0.1 0 0.2 0 0 0.1 0.1 0.1 0 0 0 0 0.1 0 0.2 0.1 0 0 0 0 0 0 0.1 0 0 0 0 0 0 0 0.1 0 0 0 0.1 0.1 0 0 0 0 0 0 0.1 0 0 0 0 0 0 0 0.1 0 0 0 0 0 0 0 0.1 0.1 0 0 0 0 0 0 0.1 0 0 0 0 0 0 0 0.1 0 0 0 0 0 0 0 0.1 0.1 0 0 0 0 0 0 0.1 0 0 0 0 0 0 0 0.1 0 0 0 0 0 0 0 0.1 0.1 0 0 0 0 0 0 0 0 0.1 0 0.1 0 0 0 0 0 0.1 0 0.1 0.1 0 0 0.1 0 0 0 0 0 0 0 0 0 0.1 0 0.1 0 0 0 0 0 1.4 0.5 2.7 0.9 0.4 0.1 0.8 0.1c1.1 0 2.2-0.7 2.6-1.8 0.4-1.4-0.3-3-1.8-3.4-4.1-1.3-8.2-2.9-12.2-4.5q-0.5-0.2-1-0.2zm25.2 8.1c-1.3 0-2.4 0.8-2.7 2.1-0.3 1.4 0.6 2.9 2.1 3.2q6.5 1.5 13.2 2.6 0.2 0 0.4 0c1.3 0 2.4-1 2.6-2.3 0.3-1.5-0.8-2.8-2.2-3.1-4.3-0.6-8.6-1.4-12.8-2.4q-0.3-0.1-0.6-0.1zm26.1 3.9c-1.4 0-2.6 1.1-2.7 2.5-0.1 1.5 1.1 2.8 2.6 2.9q4.5 0.3 9.2 0.4 0.1 0 0.2 0 0 0 0 0 0 0 0.1 0 0.1 0 0.1 0h0.1q0 0 0 0 0.1 0 0.1 0 0.1 0 0.1 0 0 0 0 0 0.1 0 0.1 0 0 0 0 0 0.1 0 0.1 0 0 0 0 0 0.1 0 0.1 0 0 0 0 0 0.1 0 0.2 0 0 0 0 0 0 0 0.1 0 0 0 0 0 0 0 0.1 0 0 0 0 0 0.1 0 0.1 0 0 0 0 0 0 0 0.1 0 0 0 0 0 0 0 0.1 0 0 0 0 0 0 0 0 0 0.1 0 0.1 0 0 0 0 0 0.1 0 0.1 0 0 0 0 0 0.1 0 0.1 0 0 0 0 0 0.1 0 0.1 0 0 0 0 0 0 0 0.1 0 0 0 0 0 0 0 0.1 0 0 0 0 0 0 0 0.1 0 0 0 0 0 0 0 0.1 0 0 0 0 0 0 0 0 0 0 0 0.1 0 0 0 0 0 0 0 0 0 0 0 0 0 0.1 0 0.1 0 0 0 0 0 0 0 0.1 0 0 0 0 0 0 0 0 0 0.1 0 0.1 0 0 0 0 0 0 0 0 0 0.1 0 0.1 0 0 0 0 0 0 0 0 0 0 0 0.1 0 0.1 0 0.2 0 0 0 0 0 0 0 0.1 0 0 0 0 0 0.1 0 0.2 0 0.1 0 0.1 0 0 0 0 0 0 0 0 0 0.1 0 0.1 0 0 0 0 0 0.2 0 0.4 0c1.5 0 2.7-1.2 2.7-2.7 0-1.5-1.2-2.7-2.7-2.7h-1.8c-3.8 0-7.6-0.1-11.3-0.4q-0.1 0-0.2 0zm39.6-2q-0.2 0-0.4 0.1c-4.3 0.7-8.6 1.3-12.9 1.7-1.5 0.1-2.6 1.4-2.5 2.9 0.2 1.4 1.3 2.4 2.7 2.4q0.1 0 0.2 0 1.4-0.1 2.8-0.3 0.1 0 0.2 0 0.1 0 0.2 0 0.1 0 0.2 0 0 0 0 0 0.1 0 0.2 0 0 0 0 0 0 0 0.1 0 0 0 0 0 0-0.1 0.1-0.1 0 0 0 0 0 0 0.1 0 0 0 0 0 0 0 0.1 0 0 0 0 0 0 0 0.1 0 0 0 0 0 0.1 0 0.1 0 0 0 0 0 0.1 0 0.1 0 0 0 0.1 0 0 0 0 0 0 0 0.1 0 0 0 0 0 0 0 0.1 0 0 0 0-0.1 0 0 0.1 0 0 0 0.1 0 0 0 0.1 0 0 0 0.1 0 0 0 0.1 0 0 0 0 0 0.1 0 0.2 0 0.1 0 0.1 0 0.1-0.1 0.2-0.1 3.9-0.5 7.8-1.1c1.5-0.3 2.4-1.7 2.2-3.1-0.2-1.4-1.4-2.3-2.7-2.3zm25.7-6.6q-0.5 0-0.9 0.1c-4.1 1.5-8.3 2.7-12.5 3.8-1.4 0.4-2.3 1.9-1.9 3.3 0.3 1.2 1.4 2 2.6 2q0.3 0 0.7-0.1 2.4-0.6 4.8-1.3 0.2-0.1 0.3-0.1h0.1q0 0 0.1-0.1 0.1 0 0.1 0 0.2 0 0.2 0 0 0 0.1-0.1 0 0 0 0h0.1q0.1 0 0.1 0 0.1 0 0.1 0 0-0.1 0-0.1h0.1q0 0 0.1 0 0 0 0 0 0 0 0 0 0 0 0.1 0 0 0 0.1-0.1 0 0 0.1 0 0 0 0.1 0 0 0 0.1-0.1 0 0 0 0 0.1 0 0.1 0 0 0 0.1 0 0 0 0 0 0.1 0 0.1-0.1 0.1 0 0.1 0 0 0 0.1 0 0 0 0 0 0 0 0.1 0 0-0.1 0.1-0.1 0 0 0 0 0 0 0.1 0 0 0 0.1 0 0 0 0 0 0 0 0.1-0.1 0 0 0.1 0 0 0 0.1 0 0 0 0.1-0.1 0 0 0 0 0 0 0.1 0 0 0 0 0 0 0 0 0 0.1 0 0.1 0 0 0 0.1 0 0-0.1 0 0 0-0.1 0.1-0.1 0 0 0.1 0 0 0 0 0 0 0 0.1 0 0 0 0 0 0-0.1 0.1-0.1 0 0 0 0 0 0 0.1 0 0 0 0 0 0 0 0.1 0 0 0 0 0 0-0.1 0.1-0.1 0 0 0 0 0 0 0 0 0.1 0 0.1 0 0 0 0.1 0 0 0 0 0 0-0.1 0-0.1 0.1 0 0.1 0 0 0 0 0 0.1 0 0.1 0 0 0 0 0 0.1 0 0.1 0 0 0 0-0.1 0.1 0 0.1 0 0 0 0.1 0 0 0 0 0 0 0 0 0 0.1 0 0.1 0 0 0 0-0.1 0.1 0 0.1 0 0 0 0 0 0.1 0 0.1 0 0 0 0 0 0.1 0 0.1 0 0 0 0-0.1 0.1 0 0.1 0 0 0 0 0 0.1 0 0.1 0 0 0 0 0 0.1 0 0.1 0 0 0 0-0.1 0.1 0 0.1 0 0 0 0 0 0.1 0 0.1 0 0 0 0 0 0.1 0 0.1 0 0 0 0 0 0.1-0.1 0.1-0.1 0 0 0 0 0.1 0 0.1 0 0 0 0 0 0.1 0 0.2-0.1 0 0 0 0 0.1 0 0.1 0 0 0 0 0 0.1 0 0.2-0.1 0.7-0.2 1.5-0.5c1.4-0.5 2.1-2 1.6-3.4-0.4-1.1-1.4-1.8-2.5-1.8zm24.2-10.7q-0.7 0-1.3 0.3c-3.8 2.1-7.7 4-11.7 5.8-1.4 0.6-2 2.2-1.4 3.5 0.5 1 1.4 1.6 2.5 1.6q0.5 0 1.1-0.2 1.7-0.8 3.4-1.5 0 0 0-0.1 0.1 0 0.3-0.1 0 0 0 0 0.1 0 0.2-0.1 0 0 0 0 0.1 0 0.2-0.1 0 0 0.1-0.1 0 0 0 0 0.2 0 0.3-0.1 0 0 0 0 0.2-0.1 0.3-0.1 0 0 0 0 0.1-0.1 0.3-0.2 0 0 0 0 3.5-1.7 7-3.5c1.3-0.7 1.7-2.4 1-3.7-0.5-0.9-1.4-1.4-2.3-1.4zm22.1-14.4c-0.5 0-1.1 0.1-1.6 0.5-3.4 2.7-7 5.2-10.6 7.6-1.3 0.8-1.6 2.4-0.8 3.7 0.5 0.8 1.4 1.2 2.2 1.2 0.5 0 1.1-0.1 1.5-0.4q0.1-0.1 0.1-0.1 0 0 0 0 0.1 0 0.1-0.1 0.1 0 0.2-0.1 0 0 0 0 0.1 0 0.1 0 0 0 0 0 0.1-0.1 0.1-0.1 0 0 0 0 0 0 0.1 0 0-0.1 0-0.1 0 0 0.1 0 0 0 0 0 0 0 0-0.1 0.1 0 0.1 0 0 0 0 0 0 0 0.1 0 0-0.1 0-0.1 0 0 0 0 0.1 0 0.1 0 0-0.1 0-0.1 0.1 0 0.1 0 0 0 0 0 0 0 0.1 0 0-0.1 0-0.1 0 0 0 0 0.1 0 0.1 0 0 0 0-0.1 0.1 0 0.1 0 0 0 0 0 0.1 0 0.1-0.1 0 0 0 0 0 0 0.1 0 0 0 0 0 0-0.1 0.1-0.1 0 0 0 0 0 0 0 0 0.1 0 0.1 0 0-0.1 0-0.1 0 0 0.1 0 0 0 0-0.1 0 0 0 0 0.1 0 0.1 0 0 0 0 0 0.1 0 0.1-0.1 0 0 0 0 0.1 0 0.1 0 0 0 0 0 0-0.1 0.1-0.1 0 0 0.1 0 0-0.1 0-0.1 0 0 0.1 0 0 0 0 0 0 0 0-0.1 0 0 0 0 0.1 0 0.1 0 0.1-0.1 0.1-0.1 0.1 0 0.1-0.1 0 0.1 0 0 0 0 0.1 0 0 0 0 0 0 0 0.1-0.1 0 0 0 0 0 0 0.1 0 0 0 0 0 0-0.1 0-0.1h0.1q0 0 0 0 0 0 0 0 0.1-0.1 0.1-0.1 0 0 0 0 0.1 0 0.1-0.1 0 0 0 0 0.1 0 0.1 0 0-0.1 0.1-0.1 0 0 0.1 0 0 0 0 0 0-0.1 0.1-0.1 0 0 0 0 0 0 0-0.1 0.1 0 0.2-0.1 0 0 0 0 0.1 0 0.1 0 0 0 0-0.1 0.1 0 0.2-0.1 0 0 0 0 0 0 0.1 0 0 0 0 0 0.1-0.1 0.1-0.1 0 0 0-0.1 0.1 0 0.1 0 0 0 0 0 0.1-0.1 0.2-0.1 0-0.1 0.1-0.1 0 0 0 0 0.1-0.1 0.2-0.2 0.1 0 0.2-0.1 0 0 0.1-0.1 0.1 0 0.2-0.1h0.1q0.1-0.1 0.2-0.2 0.1-0.1 0.3-0.2 0 0 0 0 0.1-0.1 0.2-0.2 2.3-1.6 4.5-3.3c1.2-0.9 1.4-2.6 0.5-3.8-0.6-0.7-1.4-1-2.2-1zm19.6-17.9c-0.7 0-1.4 0.3-2 0.9-2.9 3.1-6 6.2-9.2 9.1-1.1 1-1.2 2.7-0.2 3.8 0.5 0.6 1.2 0.9 2 0.9 0.6 0 1.3-0.2 1.8-0.7q0 0 0.1 0v-0.1q0 0 0 0 0.1 0 0.1 0 0-0.1 0-0.1 0 0 0 0 0.1 0 0.1-0.1 0 0 0 0 0 0 0.1 0 0 0 0 0 0-0.1 0-0.1 0.1 0 0.1 0 0 0 0-0.1 0 0 0.1 0 0 0 0 0 0 0 0-0.1 0 0 0.1 0 0 0 0 0 0-0.1 0-0.1 0.1 0 0.1 0 0 0 0 0 0.1-0.1 0.1-0.1 0 0 0 0 0 0 0-0.1 0.1 0 0.1 0 0 0 0 0 0 0 0-0.1 0.1 0 0.1 0 0 0 0 0 0.1-0.1 0.1-0.1 0 0 0 0 0 0 0.1-0.1 0 0 0 0 0 0 0.1 0 0 0 0 0 0-0.1 0-0.1 0 0 0.1-0.1 0 0 0 0 0 0 0.1-0.1 0.1 0 0.1-0.1 0 0 0 0 0.2-0.1 0.3-0.3 0 0 0 0 0.4-0.3 0.7-0.6 0 0 0 0 0.1-0.1 0.2-0.2 0.1 0 0.1 0 0.1-0.2 0.2-0.3 0 0 0 0 0.1-0.1 0.2-0.2 0 0 0.1-0.1 0 0 0 0 0.1 0 0.1-0.1 0 0 0 0 0.1 0 0.1-0.1 0 0 0 0 0.1 0 0.1-0.1 0 0 0 0 0 0 0 0 0.1 0 0.1 0 0-0.1 0-0.1 0 0 0 0 0.1 0 0.1-0.1 0 0 0 0 0 0 0.1 0 0 0 0 0 0-0.1 0-0.1 0.1 0 0.1 0 0-0.1 0-0.1 0 0 0.1 0 0 0 0 0 0-0.1 0-0.1 0.1 0 0.1 0 0 0 0 0 0-0.1 0-0.1 0.1 0 0.1 0 0 0 0-0.1 0 0 0.1 0 0 0 0 0 0-0.1 0-0.1 0 0 0.1 0 0 0 0-0.1 0 0 0 0 0.1 0 0.1 0 0 0 0-0.1 0 0 0.1 0 0 0 0 0 0-0.1 0-0.1 0 0 0.1 0 0 0 0-0.1 0 0 0 0 0.1 0 0.1 0 0 0 0-0.1 0 0 0.1 0 0 0 0 0 0 0 0-0.1 0.1 0 0.1 0 0 0 0-0.1 0 0 0 0 0.1 0 0.1 0 0 0 0 0 0-0.1 0.1-0.1 0 0 0 0 0 0 0-0.1 0.1 0 0.1 0 0 0 0-0.1 0 0 0 0 0.1 0 0.1 0 0 0 0 0 0-0.1 0.1-0.1 0 0 0-0.1 0.1 0 0.1-0.1 0.1 0 0.1 0 0.1-0.1 0.1-0.2 0.1 0 0.1-0.1 0 0 0 0 1.7-1.7 3.4-3.4c1-1.1 0.9-2.8-0.2-3.9-0.5-0.4-1.1-0.7-1.8-0.7zm16.5-20.7c-0.9 0-1.8 0.4-2.3 1.2-2.4 3.6-5 7.1-7.7 10.5-0.9 1.2-0.7 2.9 0.5 3.8 0.5 0.4 1.1 0.6 1.7 0.6 0.7 0 1.5-0.4 2.1-1q2-2.6 3.9-5.2 0 0 0 0 0-0.1 0.1-0.1 0-0.1 0.1-0.2 0 0 0 0 0 0 0.1-0.1 0 0 0 0 0 0 0.1-0.1 0 0 0 0 0-0.1 0-0.1 0 0 0.1 0 0-0.1 0-0.1 0 0 0.1-0.1 0 0 0 0 0 0 0-0.1 0 0 0 0 0.1 0 0.1-0.1 0 0 0 0 0.1 0 0.1 0 0-0.1 0-0.1 0 0 0 0 0-0.1 0.1-0.1 0 0 0 0 0-0.1 0-0.1 0 0 0 0 0.1 0 0.1-0.1 0 0 0 0 0 0 0.1-0.1 0 0 0 0 0 0 0 0 0-0.1 0-0.1 0.1 0 0.1 0 0 0 0 0 0-0.1 0-0.1 0 0 0.1 0 0-0.1 0-0.1 0 0 0 0 0 0 0.1-0.1 0 0 0 0 0 0 0-0.1 0 0 0 0 0.1 0 0.1 0 0-0.1 0-0.1 0 0 0 0 0-0.1 0.1-0.1 0 0 0 0 0 0 0-0.1 0 0 0.1 0 0 0 0-0.1 0 0 0 0 0 0 0 0 0.1-0.1 0.1-0.1 0 0 0 0 0 0 0-0.1 0.1 0 0.1 0 0 0 0 0 0-0.1 0-0.1 0 0 0.1 0 0-0.1 0-0.1 0 0 0 0 0 0 0.1-0.1 0 0 0 0 0 0 0-0.1 0 0 0 0 0.1 0 0.1 0 0 0 0-0.1 0 0 0 0 0 0 0.1-0.1 0 0 0 0 0 0 0-0.1 0 0 0.1 0 0 0 0 0 0 0 0-0.1 0 0 0 0 0.1-0.1 0.1-0.1 0 0 0 0 0 0 0-0.1 0 0 0 0 0.1 0 0.1-0.1 0 0 0 0 0 0 0.1 0 0-0.1 0-0.1 0 0 0 0 0 0 0 0 0-0.1 0.1-0.1 0 0 0 0 0-0.1 0-0.1 0 0 0.1 0 0-0.1 0.1-0.2 0 0 0 0 0 0 0-0.1 0.1-0.1 0.1-0.1 0 0 0 0 0.1-0.1 0.1-0.1 0.1-0.1 0.1-0.2 0 0 0 0 0.1 0 0.1-0.1 0 0 0 0 0-0.1 0.1-0.2 0 0 0 0 0 0 0.1-0.1 0 0 0 0 0 0 0.1-0.1 0 0 0 0 0-0.1 0-0.1 0.1-0.1 0.2-0.3 0.1 0 0.1-0.1c0.8-1.2 0.5-2.9-0.7-3.7-0.5-0.4-1-0.5-1.5-0.5zm12.9-23.1c-1 0-2 0.6-2.5 1.6-1.8 3.9-3.8 7.8-5.9 11.6-0.7 1.3-0.2 2.9 1.1 3.7q0.6 0.3 1.3 0.3c0.9 0 1.8-0.5 2.3-1.4q2.1-3.6 4-7.4 0-0.1 0-0.1 0-0.1 0-0.1 0 0 0 0 0.1-0.1 0.1-0.1 0 0 0 0 0-0.1 0-0.1 0 0 0 0 0.1 0 0.1-0.1 0 0 0 0 0 0 0-0.1 0 0 0 0 0.1 0 0.1-0.1 0 0 0 0 0 0 0-0.1 0 0 0 0 0.1 0 0.1-0.1 0 0 0 0 0 0 0-0.1 0 0 0 0 0 0 0 0 0.1-0.1 0.1-0.1 0 0 0 0 0-0.1 0-0.1 0 0 0 0 0.1 0 0.1-0.1 0 0 0 0 0-0.1 0-0.1 0 0 0 0 0 0 0.1-0.1 0 0 0-0.1 0 0 0 0 0.7-1.5 1.4-3c0.6-1.4 0-2.9-1.3-3.6q-0.6-0.2-1.1-0.2zm9-24.9c-1.2 0-2.3 0.8-2.6 2-1.2 4.2-2.5 8.4-3.9 12.4-0.6 1.4 0.2 3 1.6 3.5q0.4 0.1 0.9 0.1c1.1 0 2.1-0.7 2.5-1.7q0-0.1 0.1-0.1 0-0.2 0.1-0.3 0 0 0 0 0-0.1 0-0.2 0 0 0 0 0-0.1 0.1-0.1 0-0.1 0-0.2 0 0 0 0 0.1-0.1 0.1-0.1 0-0.1 0-0.1 0 0 0 0 0-0.1 0-0.1 0 0 0 0 0.1-0.1 0.1-0.1 0 0 0 0 0-0.1 0-0.1 0-0.1 0-0.1 0 0 0 0 0.1-0.1 0.1-0.1 0 0 0 0 0-0.1 0-0.1 0 0 0 0 0-0.1 0-0.1 0 0 0.1 0 0-0.1 0-0.1 0 0 0 0 0-0.1 0-0.1 0 0 0 0 0-0.1 0.1-0.1 0 0 0 0 0-0.1 0-0.1 0 0 0 0 0-0.1 0-0.1 0 0 0 0 0-0.1 0.1-0.1 0 0 0 0 0-0.1 0-0.1 0 0 0 0 0-0.1 0-0.1 0 0 0 0 0-0.1 0.1-0.1 0 0 0 0 0-0.1 0-0.1 0 0 0 0 0-0.1 0-0.1 0 0 0 0 0-0.1 0-0.1 0.1 0 0.1 0 0-0.1 0-0.1 0 0 0 0 0-0.1 0-0.1 0 0 0 0 0-0.1 0.1-0.1 0 0 0 0 0-0.1 0-0.1 0 0 0 0 0-0.1 0-0.1 0 0 0 0 0-0.1 0.1-0.1 0 0 0 0 0-0.1 0-0.1 0 0 0 0 0-0.1 0-0.1 0 0 0 0 0-0.1 0.1-0.1 0 0 0-0.1 0 0 0 0 0 0 0 0 0-0.1 0-0.1 0 0 0 0 0-0.1 0.1-0.1 0 0 0 0 0-0.1 0-0.1 0 0 0 0 0 0 0-0.1 0 0 0 0 0-0.1 0-0.1 0.1 0 0.1-0.1 0 0 0 0 0 0 0 0 0-0.1 0-0.1 0 0 0-0.1 0 0 0 0 0.1-0.1 0.1-0.1 0-0.1 0-0.1 0 0 0-0.1 0 0 0 0 0.1-0.1 0.1-0.1 0-0.1 0-0.1 0 0 0-0.1 0 0 0 0 0.1-0.1 0.1-0.2 0 0 0 0 0 0 0-0.1 0.1 0 0.1 0 0 0 0 0 0-0.1 0-0.2 0 0 0 0 0-0.1 0.1-0.3 1.1-3.3 2-6.7c0.4-1.4-0.5-2.9-1.9-3.3q-0.4-0.1-0.7-0.1zm4.8-26c-1.3 0-2.5 1-2.6 2.4-0.5 4.3-1.1 8.7-1.9 12.9-0.3 1.5 0.7 2.9 2.1 3.1q0.3 0.1 0.5 0.1c1.3 0 2.4-0.9 2.7-2.2q0.4-2.4 0.8-4.8 0-0.1 0-0.3 0.1-0.1 0.1-0.2 0-0.1 0-0.3 0 0 0 0 0-0.1 0.1-0.2 0 0 0 0 0 0 0-0.1 0 0 0-0.1 0 0 0-0.1 0 0 0 0 0-0.1 0-0.2 0 0 0 0 0-0.1 0-0.1h0.1q0-0.1 0-0.1 0-0.1 0-0.1 0 0 0 0 0-0.1 0-0.1 0 0 0 0 0-0.1 0-0.1 0 0 0 0 0-0.1 0-0.1 0 0 0 0 0-0.1 0-0.1 0 0 0 0 0-0.1 0.1-0.1 0-0.1 0-0.1 0 0 0-0.1 0 0 0 0 0-0.1 0-0.1 0 0 0-0.1 0 0 0 0 0-0.1 0-0.2 0 0 0 0 0 0 0-0.1 0 0 0 0 0.1 0 0.1-0.1 0 0 0 0 0 0 0-0.1 0 0 0 0 0-0.1 0-0.2 0 0 0 0 0 0 0-0.1 0 0 0-0.1 0-0.1 0-0.1 0 0 0 0 0.1-0.1 0.1-0.2 0 0 0 0 0-0.1 0-0.1 0-0.1 0-0.1 0-0.1 0-0.1 0 0 0 0 0-0.1 0-0.2 0 0 0 0 0-0.1 0-0.1 0.1-0.1 0.1-0.2v-0.1q0.2-1.8 0.4-3.7c0.2-1.5-0.9-2.8-2.4-3q-0.1 0-0.3 0zm0.7-26.5q-0.1 0-0.2 0c-1.5 0.1-2.6 1.4-2.5 2.9 0.1 3 0.2 6.1 0.2 9.2q0 1.9 0 3.8c-0.1 1.5 1.1 2.7 2.6 2.8q0 0 0.1 0c1.4 0 2.6-1.2 2.7-2.6q0-0.4 0-0.7 0 0 0 0 0-0.1 0-0.1 0 0 0 0 0 0 0 0 0-1.1 0-2.2 0-0.2 0-0.3 0-0.1 0-0.1 0 0 0 0 0 0 0-0.1 0 0 0 0 0 0 0 0 0 0 0 0 0-0.1 0-0.1 0 0 0 0 0 0 0 0 0-0.1 0-0.1 0 0 0 0 0 0 0 0 0-0.1 0-0.1 0 0 0 0 0 0 0 0 0 0 0-0.1 0 0 0 0 0 0 0 0 0-0.1 0-0.1 0 0 0 0 0-0.1 0-0.1 0 0 0 0 0 0 0-0.1 0 0 0 0 0 0 0 0 0-0.1 0-0.1 0 0 0 0 0 0 0 0 0-0.1 0-0.1 0 0 0 0 0 0 0-0.1 0 0 0 0 0 0 0 0v-0.1q0 0 0 0 0 0 0 0 0-0.1 0-0.1 0 0 0 0 0 0 0-0.1 0 0 0 0 0 0 0 0 0-0.1 0-0.1 0 0 0 0 0 0 0 0 0-0.1 0-0.1 0 0 0 0 0 0 0-0.1 0 0 0 0 0 0 0 0 0 0 0-0.1 0 0 0 0 0 0 0 0 0 0 0-0.1 0 0 0 0 0 0 0-0.1 0 0 0 0 0 0 0 0v-0.1q0 0 0 0 0 0 0 0 0-0.1 0-0.1 0 0 0 0 0 0 0-0.1 0 0 0 0 0 0 0 0 0 0 0-0.1 0 0 0 0 0 0 0 0 0-0.1 0-0.1 0 0 0 0 0 0 0-0.1 0 0 0 0 0-0.1 0-0.2 0 0 0-0.1 0 0 0 0 0 0 0 0 0 0 0 0 0-0.1 0-0.1 0-0.1 0-0.1 0 0 0 0 0 0 0-0.1 0-0.1 0-0.3 0-0.1 0-0.1 0 0 0 0 0 0 0-0.1 0 0 0-0.1-0.1-3.2-0.2-6.3c-0.1-1.5-1.3-2.6-2.7-2.6zm-3.7-26.2q-0.2 0-0.5 0.1c-1.5 0.3-2.4 1.7-2.1 3.2 0.9 4.2 1.7 8.5 2.3 12.8 0.2 1.4 1.4 2.3 2.7 2.3q0.2 0 0.4 0c1.4-0.2 2.4-1.5 2.3-3q0 0-0.1-0.1 0 0 0 0 0 0 0-0.1 0 0 0 0 0 0 0-0.1 0 0 0 0 0 0 0-0.1 0 0 0 0 0 0 0-0.1 0 0 0 0 0 0 0-0.1 0 0 0 0 0 0 0-0.1 0 0-0.1 0 0-0.1 0-0.1 0 0 0 0 0-0.1 0-0.1 0 0 0 0 0-0.1 0-0.1 0 0 0-0.1 0 0 0 0 0 0 0-0.1 0 0 0 0 0 0 0-0.1 0 0 0 0 0 0 0-0.1 0 0 0 0 0 0-0.1-0.1 0 0 0 0 0 0 0-0.1 0 0 0 0 0 0 0-0.1 0 0 0 0 0 0 0-0.1 0 0 0 0 0-0.1 0-0.1 0 0 0 0 0-0.1 0-0.1 0-0.1 0-0.1 0 0-0.1 0 0-0.1 0-0.1 0 0 0 0 0-0.1 0-0.1 0 0 0 0 0-0.1 0-0.1 0 0 0 0 0-0.1 0-0.1 0 0 0 0 0-0.1 0-0.1 0 0 0 0 0-0.1-0.1-0.2 0-0.1 0-0.1 0 0 0 0v-0.1q0 0 0-0.1 0 0 0-0.1 0 0 0 0 0-0.1 0-0.2 0 0 0 0-0.1 0-0.1-0.1 0-0.1 0-0.2-0.5-3.1-1.1-6.2 0-0.1-0.1-0.2 0 0 0-0.1 0 0 0 0 0-0.1 0-0.2 0-0.1 0-0.1 0-0.1-0.1-0.1 0-0.1 0-0.1 0-0.1 0-0.1 0 0 0 0 0-0.1 0-0.1 0 0 0 0 0-0.1 0-0.1 0 0 0 0 0-0.1-0.1-0.1 0 0 0 0 0-0.1 0-0.1 0 0 0 0 0-0.1 0-0.1 0 0 0-0.1 0 0 0 0 0-0.1-0.1-0.2 0 0 0 0 0 0 0-0.1 0 0 0 0-0.1-0.8-0.3-1.6c-0.3-1.2-1.4-2.1-2.7-2.1zm-7.8-25.3q-0.5 0-1 0.2c-1.3 0.6-2 2.1-1.5 3.5 1.6 4 3.1 8.2 4.4 12.3 0.3 1.2 1.4 1.9 2.6 1.9q0.4 0 0.8-0.1c1.4-0.5 2.2-2 1.7-3.4q-1.1-3.6-2.3-7.1 0 0-0.1 0 0-0.1 0-0.1 0 0 0-0.1 0 0-0.1-0.1 0 0 0 0 0-0.1 0-0.2 0 0 0 0 0-0.1-0.1-0.1 0 0 0 0 0-0.1 0-0.1v-0.1q0 0 0 0 0 0 0 0 0-0.1-0.1-0.1 0 0 0 0 0-0.1 0-0.2 0 0 0 0-0.1-0.1-0.1-0.1 0 0 0 0 0-0.1-0.1-0.2 0 0 0 0 0-0.1 0-0.1 0 0 0 0 0-0.1-0.1-0.2 0 0 0 0 0-0.1 0-0.1 0 0 0 0 0-0.1-0.1-0.2 0 0 0 0 0-0.1-0.1-0.3-0.6-1.6-1.3-3.3c-0.4-1-1.4-1.7-2.5-1.7zm-11.8-23.7q-0.7 0-1.3 0.4c-1.3 0.8-1.7 2.5-1 3.7 2.3 3.7 4.4 7.6 6.3 11.4 0.5 1 1.4 1.5 2.4 1.5q0.6 0 1.2-0.3c1.4-0.6 1.9-2.2 1.2-3.6q-1.6-3.4-3.5-6.7-0.1-0.2-0.3-0.5-0.1-0.2-0.2-0.3-1.2-2.1-2.4-4.3c-0.6-0.8-1.4-1.3-2.4-1.3zm-15.4-21.4c-0.6 0-1.2 0.2-1.8 0.6-1.1 1-1.2 2.7-0.3 3.8 2.8 3.3 5.5 6.7 8.1 10.3 0.5 0.7 1.3 1.1 2.2 1.1 0.5 0 1.1-0.2 1.5-0.5 1.2-0.9 1.5-2.6 0.6-3.8q-0.4-0.6-0.8-1.2-0.1-0.1-0.2-0.2 0 0 0 0-0.1-0.2-0.2-0.3-0.1-0.1-0.2-0.2v-0.1q0 0 0 0h-0.1q0-0.1-0.1-0.2 0 0 0 0 0 0 0-0.1-0.1-0.1-0.2-0.2 0 0 0 0 0 0 0 0 0 0 0 0-0.1-0.1-0.1-0.2 0 0-0.1 0 0 0 0-0.1 0 0 0 0-0.1 0-0.1-0.1 0 0 0-0.1 0 0 0 0-0.1 0-0.1 0 0 0 0-0.1 0 0-0.1 0 0 0 0 0 0-0.1 0-0.1 0 0 0 0-0.1-0.1-0.1-0.1 0 0 0 0 0 0-0.1-0.1 0 0 0 0 0 0 0-0.1 0 0 0 0-0.1 0-0.1 0 0 0 0-0.1 0 0-0.1 0 0 0 0 0 0-0.1 0-0.1 0 0 0 0 0-0.1-0.1-0.1 0 0 0 0 0 0 0-0.1 0 0-0.1 0 0 0 0-0.1 0 0-0.1 0 0 0 0-0.1 0 0 0 0 0 0 0 0-0.1-0.1-0.1-0.1 0 0 0 0 0-0.1-0.1-0.1 0 0 0 0 0 0 0-0.1 0 0 0 0-0.1 0-0.1 0 0-0.1 0-0.1 0 0 0 0-0.1 0-0.1-0.1 0 0 0 0 0 0 0 0-0.1-0.1-0.1-0.1 0 0 0 0 0-0.1 0-0.1 0 0-0.1 0 0 0 0-0.1 0 0 0 0 0 0-0.1 0 0-0.1 0-0.1 0 0 0 0 0 0-0.1-0.1 0 0 0 0 0 0 0 0 0-0.1 0-0.1-0.1 0-0.1 0 0-0.1 0-0.1 0 0-0.1 0 0 0 0-0.1 0 0 0 0 0 0 0 0-0.1-0.1-0.1-0.1 0 0 0 0 0 0-0.1-0.1 0 0 0 0 0 0 0 0 0-0.1 0-0.1-0.1 0-0.1 0 0 0 0-0.1 0 0-0.1 0 0 0 0-0.1 0 0-0.1-0.1 0 0 0 0 0 0-0.1-0.1 0 0 0 0 0-0.1-0.1-0.1 0 0 0 0 0-0.1-0.1-0.1 0-0.1-0.1-0.2 0 0-0.1-0.1 0-0.1-0.1-0.2-1.6-1.9-3.2-3.8c-0.5-0.6-1.2-0.9-2-0.9zm-18.7-18.8c-0.8 0-1.5 0.3-2.1 1-0.9 1.1-0.8 2.8 0.3 3.8 3.3 2.8 6.6 5.7 9.6 8.8 0.5 0.5 1.2 0.8 1.9 0.8 0.7 0 1.4-0.3 1.9-0.8 1.1-1 1.1-2.7 0-3.8q0 0 0 0 0 0 0 0-0.1-0.1-0.1-0.1 0 0 0 0 0 0 0-0.1-0.1 0-0.1 0 0 0 0 0 0-0.1-0.1-0.1 0 0 0 0 0 0 0-0.1 0 0-0.1 0 0 0 0 0 0 0 0 0-0.1-0.1-0.1-0.1 0 0 0 0 0-0.1-0.1-0.1 0 0 0 0 0 0 0-0.1h-0.1q0 0 0 0 0 0 0 0-0.1-0.1-0.1-0.1 0 0 0 0-0.1-0.1-0.1-0.2 0 0 0 0-0.1 0-0.1 0-0.1-0.1-0.2-0.2 0 0 0-0.1-2.9-2.7-5.8-5.3 0-0.1-0.1-0.1-0.1-0.1-0.1-0.2-0.1 0-0.1 0 0 0 0 0-0.1-0.1-0.1-0.1 0 0 0 0 0 0-0.1-0.1 0 0 0 0 0 0 0 0-0.1 0-0.1 0 0-0.1 0-0.1 0 0-0.1 0 0 0 0-0.1 0 0 0 0-0.1 0-0.1 0 0 0 0-0.1 0 0-0.1 0 0 0 0 0 0 0 0-0.1-0.1 0-0.1 0 0 0 0 0-0.1-0.1-0.1-0.1 0 0 0-0.1-0.1 0-0.1 0-0.8-0.7-1.7-1.4c-0.5-0.5-1.1-0.7-1.7-0.7zm-21.5-15.5c-0.9 0-1.8 0.5-2.3 1.3-0.7 1.3-0.3 3 0.9 3.7 3.7 2.3 7.4 4.7 10.9 7.2 0.5 0.4 1 0.5 1.6 0.5 0.8 0 1.6-0.4 2.2-1.1 0.8-1.2 0.6-2.9-0.6-3.7q-0.5-0.4-1-0.7 0 0 0 0-0.3-0.2-0.5-0.4-0.1 0-0.1-0.1 0 0 0 0-0.1 0-0.2-0.1 0 0 0 0 0 0-0.1-0.1 0 0 0 0-0.1 0-0.1-0.1-0.1 0-0.1 0 0 0 0 0 0 0-0.1 0 0-0.1-0.1-0.1 0-0.1 0-0.1-0.1 0-0.1 0 0 0 0 0-0.1-0.1-0.1-0.1 0 0 0 0 0 0-0.1 0 0 0 0 0 0-0.1-0.1-0.1 0 0 0 0 0 0-0.1-0.1 0 0 0 0 0 0 0 0 0 0 0 0-0.1 0-0.1-0.1 0 0 0 0-0.1 0-0.1 0 0 0 0 0 0-0.1-0.1-0.1 0 0 0 0 0 0-0.1 0 0-0.1 0-0.1 0 0-0.1 0 0 0 0 0 0 0 0-0.1-0.1 0-0.1 0 0 0 0 0 0 0-0.1 0 0-0.1 0-0.1 0 0-0.1 0 0 0 0 0 0 0 0-0.1-0.1 0-0.1 0 0 0 0 0 0 0-0.1-0.1 0 0 0 0 0 0-0.1 0 0 0 0-0.1 0 0 0 0-0.1 0-0.1 0 0 0 0 0-0.1-0.1-0.1-0.1 0 0 0 0 0 0-0.1 0 0 0 0-0.1 0 0 0 0-0.1 0-0.1 0 0 0 0 0-0.1-0.1-0.1-0.1 0 0 0 0 0 0-0.1 0 0 0 0-0.1 0 0-0.1 0 0 0 0 0 0 0 0 0-0.1-0.1-0.1-0.1 0 0 0 0 0 0-0.1 0 0-0.1 0-0.1 0 0-0.1 0 0 0 0 0 0 0 0-0.1-0.1 0-0.1 0 0 0 0 0-0.1 0-0.1 0 0-0.1 0-0.1 0 0 0 0-0.1 0-0.1 0 0 0 0-0.1-0.1 0-0.1 0 0 0 0 0-0.1 0-0.1 0 0-0.1 0-0.1-0.1 0-0.1 0 0 0 0 0 0 0-0.1-0.1 0 0 0 0 0 0 0 0-0.1 0-0.1 0 0-0.1 0-0.1-0.1 0-0.1 0 0 0 0 0-0.1 0-0.1-0.1 0 0 0 0 0 0-0.1 0 0 0 0 0 0-0.1 0-0.1-0.1 0-0.1 0 0 0 0 0 0 0-0.1-0.1 0 0 0 0 0 0-0.1 0 0 0 0-0.1 0 0 0 0-0.1 0-0.1 0 0 0 0 0-0.1-0.1-0.1-0.1 0 0 0 0-0.1 0-0.2-0.1 0 0 0 0 0 0-0.1-0.1 0 0 0 0 0 0 0 0 0 0-0.1 0 0 0 0-0.1 0 0 0 0-0.1 0-0.1 0 0 0 0 0-0.1-0.1-0.2-0.1 0 0 0 0-0.1-0.1-0.1-0.1 0 0 0 0-0.1-0.1-0.2-0.1 0 0 0 0 0 0-0.1-0.1 0 0 0 0 0 0-0.1-0.1-0.1 0-0.1 0-0.2-0.1-0.3-0.2-1.6-1-3.2-2c-0.4-0.2-0.9-0.4-1.4-0.4zm-23.6-11.8c-1.1 0-2.1 0.6-2.5 1.7-0.6 1.4 0.1 2.9 1.5 3.5 4 1.6 8 3.4 11.8 5.3q0.6 0.3 1.2 0.3c1 0 2-0.5 2.4-1.5 0.7-1.3 0.2-2.9-1.1-3.6q-0.7-0.3-1.3-0.6 0 0 0 0-0.2-0.1-0.3-0.2-0.1 0-0.2 0 0 0 0 0 0-0.1-0.1-0.1 0 0 0 0 0 0-0.1 0 0 0 0 0 0-0.1-0.1-0.1 0 0 0 0 0 0-0.1 0 0 0 0 0 0-0.1-0.1-0.1 0 0 0 0 0 0 0 0 0 0-0.1 0 0 0 0-0.1-0.1 0-0.1 0 0 0-0.1 0 0 0 0 0 0 0 0 0 0-0.1-0.1-0.1 0 0 0 0 0 0-0.1 0 0 0 0 0 0-0.1-0.1-0.1 0 0 0 0 0 0 0 0-0.1 0-0.1 0 0 0 0 0-0.1-0.1-0.1-0.1 0 0-0.1 0 0 0 0 0 0 0 0 0-0.1 0-0.1-0.1 0 0 0 0-0.1 0-0.1 0 0 0 0 0-0.1 0-0.1 0 0-0.1 0-0.1 0 0-0.1 0 0 0 0 0 0 0-0.1 0 0-0.1 0-0.1 0 0-0.1 0 0 0 0 0 0 0-0.1 0 0 0 0 0 0-0.1 0-0.1-0.1 0-0.1 0 0 0 0 0-0.1 0-0.1 0 0-0.1-0.1-0.1 0 0 0 0 0 0 0 0-0.1 0-0.1 0 0 0 0 0-0.1-0.1-0.1-0.1 0 0 0 0-0.1 0-0.1 0 0 0 0 0 0 0-0.1-0.1 0 0 0 0 0 0-0.1 0 0 0 0 0 0 0-0.1 0 0-0.1 0-0.1 0 0-0.1 0 0 0 0 0 0 0-0.1 0 0 0 0-0.1 0 0 0 0-0.1 0-0.1 0 0 0 0 0-0.1 0-0.1 0 0-0.1 0-0.1-0.1 0-0.1 0 0 0 0 0-0.1 0-0.1 0 0 0 0-0.1-0.1 0-0.1 0 0 0 0 0 0 0-0.1 0 0 0 0 0 0-0.1-0.1-0.1 0 0 0 0 0 0-0.1 0 0 0 0 0 0 0-0.1 0 0-0.1 0-0.1 0 0 0 0-0.1 0-0.1 0 0 0-0.1 0 0 0 0-0.1 0 0-0.1 0 0 0 0 0 0 0 0 0-0.1 0-0.1 0 0-0.1 0-0.1-0.1 0-0.1 0 0 0 0 0-0.1 0-0.1 0 0 0 0 0-0.1-0.1-0.1-0.1 0 0 0 0 0 0-0.1 0 0 0 0 0-0.1 0-0.1-0.1 0 0 0 0 0 0-0.1 0 0 0 0 0 0 0-0.1 0 0-0.1 0-0.1 0 0-0.1 0 0 0 0 0 0 0-0.1 0 0 0 0-0.1 0 0-0.1 0 0 0 0 0 0 0-0.1 0 0 0 0 0 0 0-0.1-0.1 0 0 0 0 0 0-0.1 0 0 0 0 0 0 0 0 0-0.1-0.1-0.1-0.1 0 0 0 0-0.1 0-0.1 0 0 0 0 0 0 0-0.1 0 0-0.1 0-0.1-0.1 0-0.1 0 0 0 0 0-0.1 0-0.1 0 0 0 0-0.1 0 0-0.1 0 0 0 0 0 0 0-0.1 0 0 0 0 0 0-0.1-0.1-0.1 0 0 0 0 0 0 0 0-0.1 0-0.1 0 0 0 0 0-0.1-0.1-0.1-0.1 0 0 0 0-0.1 0-0.1 0 0 0 0 0-0.1 0-0.1-0.1 0 0 0 0-0.1 0-0.1 0-0.1 0-0.1 0 0 0 0 0-0.1-0.1-0.1-0.1 0 0 0 0-0.1 0-0.1 0-0.1 0-0.1-0.1-0.1 0-0.1 0-1.5-0.6-2.9-1.2-0.5-0.2-1-0.2zm-25.3-7.9c-1.2 0-2.4 0.9-2.6 2.2-0.4 1.4 0.6 2.8 2 3.2 4.2 0.9 8.5 2 12.6 3.3q0.4 0.1 0.8 0.1c1.1 0 2.2-0.7 2.6-1.9 0.4-1.4-0.4-2.9-1.8-3.3q-0.2-0.1-0.3-0.1-0.1 0-0.1 0-0.1-0.1-0.2-0.1-0.1 0-0.1 0 0 0 0 0-0.1-0.1-0.1-0.1-0.1 0-0.1 0 0 0 0 0-0.1 0-0.1 0-0.1 0-0.1-0.1 0 0 0 0-0.1 0-0.1 0 0 0 0 0-0.1 0-0.1 0 0 0 0 0-0.1 0-0.1 0 0-0.1 0-0.1-0.1 0-0.1 0 0 0 0 0-0.1 0-0.1 0 0 0 0 0-0.1 0-0.1 0 0 0 0 0-0.1-0.1-0.1-0.1 0 0 0 0-0.1 0-0.1 0 0 0 0 0-0.1 0-0.1 0 0 0 0 0-0.1 0-0.1-0.1 0 0 0 0-0.1 0-0.1 0 0 0 0 0-0.1 0-0.1 0 0 0 0 0-0.1 0-0.1 0 0-0.1 0-0.1-0.1 0-0.1 0 0 0 0 0-0.1 0-0.1 0 0 0 0 0-0.1 0-0.1 0 0 0 0 0-0.1-0.1-0.1-0.1 0 0 0 0-0.1 0-0.1 0 0 0 0 0-0.1 0-0.1 0 0 0 0 0-0.1 0-0.1-0.1 0 0 0 0-0.1 0-0.1 0 0 0 0 0-0.1 0-0.1 0 0 0 0 0-0.1 0-0.1 0 0 0 0 0-0.1-0.1-0.1-0.1 0 0 0 0-0.1 0-0.1 0 0 0 0 0-0.1 0-0.1 0-0.1 0-0.1-0.1-0.1 0-0.1 0 0 0 0 0-0.1 0-0.1 0-0.1 0-0.1 0 0 0 0 0-0.1-0.1-0.1-0.1-0.1 0-0.2 0 0 0 0 0-0.1 0-0.1-0.1-0.1 0-0.2 0-0.1 0-0.1 0-0.1-0.1-0.2-0.1-4-1.1-8-2-0.3-0.1-0.6-0.1zm-26.2-3.6c-1.4 0-2.6 1.1-2.7 2.5-0.1 1.5 1 2.8 2.5 2.9 4.4 0.2 8.7 0.7 13 1.3q0.2 0 0.4 0c1.3 0 2.4-1 2.6-2.3 0.2-1.5-0.8-2.9-2.3-3.1q-0.3 0-0.6-0.1-0.1 0-0.2 0 0 0 0 0 0 0-0.1 0 0 0 0 0-0.1 0-0.1 0 0 0 0 0 0 0-0.1 0 0 0 0 0-0.1 0-0.1-0.1 0 0 0 0-0.1 0-0.1 0 0 0 0 0-0.1 0-0.1 0 0 0 0 0-0.1 0-0.1 0 0 0 0 0-0.1 0-0.1 0 0 0 0 0-0.1 0-0.1 0 0 0 0 0-0.1 0-0.1 0 0 0-0.1 0 0 0 0 0 0 0-0.1 0 0 0 0-0.1 0 0-0.1 0 0 0 0 0 0 0-0.1 0 0 0 0 0 0 0-0.1 0 0 0 0 0-0.1 0-0.1 0 0 0 0 0-0.1 0-0.1 0 0 0 0 0-0.1 0-0.1 0 0 0 0 0-0.1 0-0.1 0 0 0 0 0-0.1 0-0.1-0.1 0 0 0 0-0.1 0-0.1 0 0 0 0 0-0.1 0-0.1 0 0 0 0 0-0.1 0-0.1 0 0 0-0.1 0 0 0 0 0 0 0 0 0-0.1 0-0.1 0 0 0-0.1 0 0 0 0 0 0 0-0.1 0 0 0 0 0 0 0-0.1 0 0 0 0-0.1 0 0-0.1 0 0 0 0 0-0.1 0-0.1 0 0 0 0 0-0.1 0-0.1 0 0 0 0 0-0.1 0-0.1 0 0 0 0 0-0.1 0-0.1 0 0 0 0 0-0.1 0-0.1 0 0 0 0 0-0.1 0-0.1 0 0 0 0 0-0.1 0-0.1 0 0 0 0 0-0.1 0-0.1-0.1 0 0-0.1 0 0 0 0 0 0 0-0.1 0 0 0 0 0 0 0-0.1 0 0 0 0 0 0 0 0 0-0.1 0-0.1 0 0 0-0.1 0 0 0-0.1 0 0 0 0 0 0 0 0 0-0.1 0-0.1 0 0 0-0.1 0 0 0 0 0 0 0-0.1 0 0 0-0.1-0.1 0 0 0 0-0.1 0-0.2 0 0 0 0 0 0 0-0.1 0-0.1 0-0.2 0-3.6-0.4-7.4-0.6 0 0-0.1 0z"/><path class="n" d="m477.1 28.1q0.6 0.9 1.1 2-0.5-1.1-1.1-2z"/><path class="n" d="m459.4 5.2q-2.1-0.3-4.2-0.3c-10 0-16.7 6-19.7 9.5 4.4-3.8 9.7-5.8 15.3-5.8 7.8 0 15.6 3.8 22 10.8 10.2 11.1 15.2 28.4 13.6 47.5q-0.1 1-0.3 2c1.6-4.4 2.8-10.1 3.2-17.5 1-19.7-10.7-43-29.9-46.2z"/><path class="n" d="m468.1 17.1q0.7 0.6 1.4 1.3-0.7-0.7-1.4-1.3z"/><path class="n" d="m473.3 22.5q-0.7-0.8-1.4-1.7 0.7 0.9 1.4 1.7z"/><path class="n" d="m473.8 23.1q0.6 0.8 1.2 1.7-0.6-0.9-1.2-1.7z"/><path class="n" d="m455 10.6q0.8 0.2 1.6 0.4-0.8-0.2-1.6-0.4z"/><path class="n" d="m469.9 18.8q0.9 0.8 1.8 1.8-0.9-1-1.8-1.8z"/><path class="n" d="m457.1 11.1q1.1 0.3 2.1 0.7-1-0.4-2.1-0.7z"/><path class="n" d="m465.8 15.4q0.9 0.6 1.7 1.3-0.8-0.7-1.7-1.3z"/><path class="n" d="m459.2 11.8q1 0.4 2 0.9-1-0.5-2-0.9z"/><path class="n" d="m461.7 12.9q0.8 0.4 1.5 0.8-0.7-0.4-1.5-0.8z"/><path class="n" d="m463.7 14q1 0.6 2 1.3-1-0.7-2-1.3z"/><path class="n" d="m475.4 25.3q0.8 1.1 1.5 2.3-0.7-1.2-1.5-2.3z"/><path class="n" d="m484.8 53.9q-0.1-1.5-0.3-3.1 0.2 1.6 0.3 3.1z"/><path class="n" d="m485 57.9q-0.1-1.8-0.2-3.6 0.1 1.8 0.2 3.6z"/><path class="n" d="m485 59q0 1.3 0 2.8 0-1.5 0-2.8z"/><path class="n" d="m435.4 16.7q0.3-0.3 0.6-0.5-0.3 0.2-0.6 0.5z"/><path class="n" d="m484.7 66.8q0.2-2 0.2-3.9 0 1.9-0.2 3.9z"/><path class="n" d="m481 36.2q-0.5-1.4-1.1-2.7 0.6 1.3 1.1 2.7z"/><path class="n" d="m483.8 46.4q-0.3-1.6-0.7-3.2 0.4 1.6 0.7 3.2z"/><path class="n" d="m479.6 32.9q-0.4-1-1-2.1 0.6 1.1 1 2.1z"/><path class="n" d="m483 42.7q-0.3-1.3-0.7-2.6 0.4 1.3 0.7 2.6z"/><path class="n" d="m481.2 36.9q0.4 1.1 0.8 2.3-0.4-1.2-0.8-2.3z"/><path class="n" d="m484.3 49.8q-0.1-1.3-0.3-2.6 0.2 1.3 0.3 2.6z"/><path class="n" d="m445.9 10.8q0.5-0.1 1.1-0.2-0.6 0.1-1.1 0.2z"/><path class="n" d="m452.4 10.3q1 0.1 2.1 0.2-1.1-0.1-2.1-0.2z"/><path class="n" d="m439.4 13.6q0.4-0.3 0.9-0.5-0.5 0.2-0.9 0.5z"/><path class="n" d="m443.7 11.5q0.5-0.2 1-0.3-0.5 0.1-1 0.3z"/><path class="n" d="m450.5 10.2q0.8 0 1.7 0.1-0.7-0.1-1.4-0.1-0.2 0-0.3 0z"/><path class="n" d="m448.2 10.4q0.5-0.1 1.1-0.1-0.6 0-1.1 0.1z"/><path class="n" d="m441.5 12.4q0.5-0.2 1-0.4-0.5 0.2-1 0.4z"/><path class="n" d="m437.3 15q0.4-0.3 0.8-0.6-0.4 0.3-0.8 0.6z"/><path fill-rule="evenodd" class="n" d="m481.5 78.9c-1.4 2.7-4.7 5.4-4.8 8.6-0.1 2.8 5.8 5.2 5.8 5.2h-44.8c0 0 2.8-1.4 3.9-2.7 1.9-2.6 0.8-3.6-1.2-5.6-9.5-9.6-6.1-19.6 4.5-30.8 2.9-3.2 7.2-7.6 7.2-12.2-9 6.6-14.8-0.4-24.4 7.9-3.2 2.7-6.8 1.5-8-0.1-0.6-0.8-0.4-2.2-0.4-2.2 0 0-5.7 0.1-7.2-3.5-3.2-7.5 7.5-8.4 13.3-15.4 2.5-3 5.3-6 7.8-9.1 3.6-4.3 7.8-6.9 12.2-8.1-2.4-2-1.3-10.9-1.3-10.9 0 0 8.2 3.6 7.6 10.2q0 0 0 0-0.1 0-0.2 0c17.7 0.6 36.1 22.5 33.2 56.6-0.3 4.1-1.4 8.3-3.2 12.1zm-30-68.7q0 0 0 0 0 0 0 0zm-6.1 0.7q0 0 0 0 0 0 0 0zm-27.9 28c-1.4-0.2-3.9 2.7-1.7 3 1.2 0.2 3.9-2.8 1.7-3zm23.3-14.9c-0.4-0.7-2-0.6-2.8-0.5-1 0.1-2 0.4-2.7 1.1-0.9 1-0.4 2.3 0.9 2.6 1.5 0.5 3.9-0.5 4.5-2 0.3-0.5 0.2-0.9 0.1-1.2z"/><path class="n" d="m485.5 94.4v11.5h-50.7v-11.5z"/><path class="n" d="m488.6 107.5v3h-56.8v-3z"/><path class="n" d="m180.8 290.5v11.6h-30v-11.6z"/><path fill-rule="evenodd" class="n" d="m153.9 305.5v14.6h-14.6v-14.6zm-12 2.6v9.3h9.3v-9.3z"/><path fill-rule="evenodd" class="n" d="m153.9 328.5v14.6h-14.6v-14.6zm-12 2.7v9.3h9.3v-9.3z"/><path fill-rule="evenodd" class="n" d="m153.9 351.5v14.6h-14.6v-14.6zm-12 2.7v9.3h9.3v-9.3z"/><path fill-rule="evenodd" class="n" d="m153.9 374.6v14.6h-14.6v-14.6zm-12 2.6v9.3h9.3v-9.3z"/><path class="n" d="m226.8 330.7l-16.1 16.1-32.4 32.5-1.5-1.4-2.3-2.3-1.4-1.5 32.5-32.5 16.1-16 1.4 1.4 2.3 2.3z"/><path class="n" d="m192.4 305.5v3.9h-32v-3.9z"/><path class="n" d="m192.4 316.1v4h-32v-4z"/><path class="n" d="m192.4 328.5v3.9h-32v-3.9z"/><path class="n" d="m192.4 339.2v3.9h-32v-3.9z"/><path class="n" d="m160.4 355.5h28.8l3.2-3.2v-0.8h-32z"/><path class="n" d="m192.4 355.5v-0.6l-0.6 0.6z"/><path class="n" d="m182.4 362.2h-22v3.9h18.1z"/><path class="n" d="m181.1 366.1h10.3l1-1v-2.9h-7.3z"/><path class="n" d="m181.6 378.5h10.8v-3.9h-6.8z"/><path class="n" d="m174.5 375.6l2.3 2.3 0.7 0.6h1.5l4-3.9h-9.4l0.9 1z"/><path class="n" d="m173.8 377.4l-0.6-0.5-1.4-1.5-0.8-0.8h-10.6v3.9h14.5z"/><path class="n" d="m168.4 385.5l-3.7 2.3-0.3 0.2 0.2-0.3 1.5-2.5h-5.7v4h32v-4h-24.3z"/><path class="n" d="m166.1 385.2l0.8-1.2-2.3 3.7z"/><path class="n" d="m175.5 379.2l-1.7-1.8-0.6-0.5-1.1-1.2-5.2 8.3 0.4 0.4 0.7 0.7 0.1 0.1 0.3 0.3 8.3-5.2z"/><path class="n" d="m203.6 343.7l-4 4v10.2l4-4z"/><path class="n" d="m199.6 360.5v36.5h-67.6v-98.9h67.6v47l4-4v-46.9h-75.6v106.8h75.6v-44.5z"/><path class="n" d="m732.7 357.2c0 3.1-2.4 5.5-5.4 5.5h-7.7c-3.1 0-5.5-2.4-5.5-5.5z"/><path class="n" d="m727.6 389.3c-1.7 0-2.9 0-4.2 0-1.2 0-2.4 0-4.1 0 0.4-2.1 0.6-4.1 0.9-5.8 0.2-1.8 0.3-3.5 0.4-5.1 0.1-1.6 0.1-3.2 0.2-4.8 0-1.6 0-3.3-0.1-5.1-0.1-1.8-0.2-3.7-0.3-5.8 1.2 0 2.1 0 3 0 0.9 0 1.9 0 3.1 0q-0.3 3.2-0.3 5.8c-0.1 1.8-0.1 3.5-0.1 5.1 0 1.6 0.1 3.2 0.2 4.8 0.1 1.6 0.2 3.3 0.4 5.1 0.2 1.7 0.5 3.7 0.9 5.8z"/><path class="n" d="m732.7 392.6h-18.6c0-1.8 1.5-3.3 3.3-3.3h12c1.8 0 3.3 1.5 3.3 3.3z"/><path class="n" d="m739.7 396h-32.6c0-1.9 1.5-3.4 3.4-3.4h25.9c1.8 0 3.3 1.5 3.3 3.4z"/><path class="n" d="m743.2 397.7v10.2h-39.5v-10.2z"/><path class="n" d="m696.9 328.6l-1.3-0.8c-12.2-7-20-16.2-21.4-25.2-0.8-4.8 0.4-9.2 3.3-12.3 4-4.5 10.5-2.9 13.5-0.9 2.3 1.6 4.2 3.7 5.7 5.6v8.3l-0.7-1.5c-0.1-0.2-2.8-6.1-7.2-8.9-1.6-1.1-5.9-2.5-8.3 0.1-2 2.2-2.8 5.4-2.3 9 1.2 7.5 7.9 15.4 18.5 21.7q0 2.5 0.2 4.9z"/><path class="n" d="m750 328.6l1.2-0.8c12.2-7 20-16.2 21.5-25.2 0.7-4.8-0.5-9.2-3.4-12.3-4-4.5-10.4-2.9-13.5-0.9-2.3 1.6-4.2 3.7-5.6 5.6v8.3l0.7-1.5c0-0.2 2.8-6.1 7.1-8.9 1.6-1.1 5.9-2.5 8.3 0.1 2 2.2 2.9 5.4 2.3 9-1.2 7.5-7.9 15.4-18.4 21.7q0 2.5-0.2 4.9z"/><path fill-rule="evenodd" class="n" d="m750.2 287.8c0 0 0 10.8 0 15.5 0 5.3 0 11.9 0 19.6q0 0.4 0 0.8 0 2.5-0.2 4.9c-2 22.6-15.7 30.6-26.6 30.6-10.8 0-24.6-8-26.5-30.6q-0.2-2.4-0.2-4.9-0.1-0.4 0-0.8c0-7.7 0-22.6 0-27.9 0-4.7 0-7.2 0-7.2 4.8-2.7 17.2-4.2 26.7-4.2 9.5 0 22 1.5 26.8 4.2zm-17.4 26c0-5.2-4.2-9.4-9.4-9.4-5.2 0-9.4 4.2-9.4 9.4 0 5.2 4.2 9.3 9.4 9.3 5.2 0 9.4-4.1 9.4-9.3z"/><path class="n" d="m720.4 362.7q0.1 1.8 0.2 3.4l5.5 5.5q0-1.5 0.1-3.1 0-2.6 0.3-5.8c-1.2 0-2.2 0-3.1 0-0.9 0-1.8 0-3 0z"/><path fill-rule="evenodd" class="n" d="m450.4 689.9c-26.1 0-47.2-21.1-47.2-47.2 0-26.1 21.1-47.2 47.2-47.2 26.1 0 47.2 21.1 47.2 47.2 0 26.1-21.1 47.2-47.2 47.2zm39.9-47.2c0-22-17.8-39.8-39.9-39.8-22 0-39.8 17.8-39.8 39.8 0 22 17.8 39.8 39.8 39.8 22.1 0 39.9-17.8 39.9-39.8z"/><path class="n" d="m443.7 596c-0.6-1.1-1-2.4-1-3.8 0-4.2 3.5-7.7 7.7-7.7 4.3 0 7.7 3.5 7.7 7.7 0 1.4-0.3 2.7-0.9 3.8q2.6 0.3 5.1 1c0.6-1.5 1-3.1 1-4.8 0-7-5.8-12.8-12.9-12.8-7 0-12.8 5.8-12.8 12.8 0 1.7 0.3 3.3 0.9 4.8q2.6-0.7 5.2-1z"/><path class="n" d="m450.3 647.6c-2.7 0-4.9-2.2-4.9-4.9 0-2.7 2.2-4.9 4.9-4.9 2.7 0 4.9 2.2 4.9 4.9 0 2.7-2.2 4.9-4.9 4.9z"/><path class="n" d="m450.3 649.2c-1.5 0-2.9-0.6-4-1.4l4 31.3 4.2-31.6c-1.1 1-2.6 1.7-4.2 1.7z"/><path class="n" d="m429.9 624.1l-6.2-6.2 1.8-1.8 6.2 6.2z"/><path class="n" d="m422.7 641.4v2.6h-8.7v-2.6z"/><path class="n" d="m425.5 669.3l-1.8-1.8 6.2-6.2 1.8 1.8z"/><path class="n" d="m475.1 669.3l-6.2-6.2 1.8-1.8 6.2 6.2z"/><path class="n" d="m486.6 641.4v2.6h-8.8v-2.6z"/><path class="n" d="m470.7 624.1l-1.8-1.8 6.2-6.2 1.8 1.8z"/><path class="n" d="m450.3 636.2c1.6 0 3.1 0.6 4.2 1.6l-4.2-31.6-4 31.4c1.1-0.9 2.5-1.4 4-1.4z"/><path class="o" d="m549.3 718.9q-1.1 2.1-2.2 4.5c-5.8 12.4-15 31.4-17.3 46.9-8.6 6.8-17 12.7-24.6 19.1-6.9 5.3-17.4 11.3-25.4 17.9h-90.1q2.3-0.7 4.5-1.2c9.7-2 19.8-4.3 29.5-6.2 13.4-2.4 28.6-7.5 42.8-9.2 6.3-4.4 13.1-8.2 19.7-11.8 7.8-4.3 14.1-10.2 20.8-15.7 3.3-10.8 5.8-22.8 11.8-31.6 6.7-9.1 19.1-12.3 30.5-12.7z"/><g style="opacity:.4;mix-blend-mode:multiply"><path class="p" d="m549.3 718.9q-1.1 2.1-2.2 4.5c-5.8 12.4-15 31.4-17.3 46.9-8.6 6.8-17 12.7-24.6 19.1-6.9 5.3-17.4 11.3-25.4 17.9h-90.1q2.3-0.7 4.5-1.2c9.7-2 19.8-4.3 29.5-6.2 13.4-2.4 28.6-7.5 42.8-9.2 6.3-4.4 13.1-8.2 19.7-11.8 7.8-4.3 14.1-10.2 20.8-15.7 3.3-10.8 5.8-22.8 11.8-31.6 6.7-9.1 19.1-12.3 30.5-12.7z"/></g><path class="q" d="m585.8 702.5c-1.2 17.7-4.3 33.8-6.1 48.1-2.3 14.8-4.6 39.5-7.7 44.3-5 7.4-31.9 34.9-47.4 51.9-6.9 7.8-11.6 20.2-19.4 27.2-10.1 10.1-25.6 8.5-38.8 10.9-28.7 5.4-57 15.1-86.5 15.1-25.6 0-58.6-4.3-84.2-11.2-47.1-13.3-87.2-32.6-135.6-40.6v-131.5c42.3-2.2 170.8 0.5 195.3 0.5 19 0 51.3 3.6 72.8 4.6 28.7 64.8-72.3 43.4-119.5 57.2 14.2 24.2 44.9 28.3 72.3 28.3h98.8c8-6.6 18.5-12.6 25.4-17.9 7.6-6.4 16-12.3 24.6-19.1 2.3-15.5 11.5-34.5 17.3-46.9q1.1-2.4 2.2-4.5c8.4-15.8 19.4-16.4 36.5-16.4z"/><g style="opacity:.7"><path class="r" d="m430.8 738.5l-22 4.4c-5.5 0-13.4 1.7-17.1-2.1-2.4-2.4-3.4-7.8-4.4-10.5-1.6-3.6-3.8-7.7-5-11.8 14.9 1.1 31 2.5 43.5 3.1 2.1 1.6 5.3 11 5 16.9z"/></g><path class="s" d="m209.1 860.2c-15.7-4.9-31.8-9.2-49-12v-131.5c4.9-0.3 10.8-0.5 17.5-0.6 1.5 20.9 4.3 41.6 8.4 62.6 5.2 25.2 10.7 56 23.1 81.5z"/></svg>