<svg version="1.2" xmlns="http://www.w3.org/2000/svg" viewBox="0 0 1000 1000" width="500" height="500"><defs><clipPath clipPathUnits="userSpaceOnUse" id="cp1"><path d="m297.52 797.18c0 4.49-21.88 8.13-48.87 8.13-26.99 0-48.87-3.64-48.87-8.13 0-1.29-53.83-52.11-50.53-57.27 8.19-12.8 106.84-28.86 126.08-28.86 26.99 0 22.19 81.65 22.19 86.13z"/></clipPath></defs><style>.a{fill:#e0dddc}.b{fill:#e2e2e2}.c{fill:#4c0919}.d{fill:#ffce00}.e{fill:#ffdc4a}.f{mix-blend-mode:multiply;fill:#e8d7a6}.g{fill:#fff}.h{fill:#f4f3f2}.i{fill:#ff7f00}.j{fill:#ffa04a}.k{mix-blend-mode:multiply;fill:#ddc0a6}.l{fill:#0dadb5}.m{fill:#1ec6c6}.n{fill:#fff9de}.o{fill:#f2ebd1}.p{opacity:.4;mix-blend-mode:multiply;fill:#ddc0a6}.q{fill:#dff4f3}.r{fill:#ddd}.s{fill:#c9c9c9}.t{fill:#eaeaea}.u{fill:#d6944c}.v{fill:#bf7030}.w{fill:#ea5f00}.x{fill:#c95100}.y{fill:#ed7966}.z{fill:#fd957a}.A{fill:#fc9500}.B{fill:#fa9}.C{fill:#e8e8e8}.D{fill:#ffb600}.E{fill:#29aaa7}.F{fill:#84d8d5}.G{fill:#69ccca}.H{fill:#d0fcfb}.I{fill:#6d3b19}.J{fill:#824c27}.K{fill:#0b8c99}.L{fill:#067587}.M{fill:#f4d79f}.N{fill:#d3d3d3}</style><path class="a" d="m327.3 889.7c-44.6 0-80.6-7.7-80.6-17.1 0-9.4 36-17.1 80.6-17.1 44.6 0 80.6 7.7 80.6 17.1 0 9.4-36 17.1-80.6 17.1z"/><path class="b" d="m268.8 797.4c0 0-14.1 16.9-14.6 29.3 0.1 7.4 2.9 8.2 2.9 8.2 0 0 2.3-12.2 16-27.1 0.2-4.7-4.3-10.4-4.3-10.4z"/><path fill-rule="evenodd" class="c" d="m257.7 835.9l-0.8-0.2c-0.4-0.1-3.4-1.2-3.5-8.9 0.5-12.7 14.2-29.2 14.8-29.9l0.6-0.8 0.6 0.8c0.2 0.2 4.7 6 4.5 10.9v0.3l-0.2 0.2c-13.4 14.6-15.8 26.7-15.8 26.8zm11.1-37.3c-2.8 3.5-13.5 17.6-13.9 28.1 0.1 4.1 1 6 1.7 6.8 0.9-3.4 4.5-13.7 15.7-26 0-3.3-2.4-7.2-3.5-8.9z"/><path class="d" d="m263.3 751.6v115c0 6 28.6 12.9 64 12.9 35.4 0 64-6.9 64-12.9v-115z"/><path class="e" d="m366.1 876.6c15.3-2.6 25.2-6.4 25.2-10v-115h-76.5c1.2 46.6 12.5 99.8 51.3 125z"/><path class="f" d="m352.1 777.9c0 0-22.8 52.8-47.8 69-25.1 16.2-42.6 8.6-42.6 8.6v-15.6c0 0 30 3.3 42.8-9.8 12.9-13.1 43.3-56.1 43.3-56.1z"/><path fill-rule="evenodd" class="c" d="m327.3 880.3c-33.9 0-64.8-6.5-64.8-13.7v-115.8h129.6v115.8c0 7.2-30.9 13.7-64.8 13.7zm-63.2-127.9v114.2c0 4.9 26.5 12.1 63.2 12.1 36.7 0 63.2-7.2 63.2-12.1v-114.2z"/><path class="g" d="m327.3 762.5c-35.4 0-64-4.9-64-10.9 0-6 28.6-10.9 64-10.9 35.4 0 64 4.9 64 10.9 0 6-28.6 10.9-64 10.9z"/><path class="b" d="m327.3 755.4c-25.6 0-46.3-2.4-46.3-5.4 0-3.1 20.7-5.5 46.3-5.5 25.6 0 46.3 2.4 46.3 5.5 0 3-20.7 5.4-46.3 5.4z"/><path fill-rule="evenodd" class="c" d="m327.3 763.3c-31.4 0-64.8-4.1-64.8-11.7 0-7.6 33.4-11.6 64.8-11.6 31.4 0 64.8 4 64.8 11.6 0 7.6-33.4 11.7-64.8 11.7zm0-21.8c-37.3 0-63.2 5.3-63.2 10.1 0 4.8 25.9 10.1 63.2 10.1 37.3 0 63.2-5.3 63.2-10.1 0-4.8-25.9-10.1-63.2-10.1z"/><path class="c" d="m327.3 778.9c-53.5 0-64.2-10.3-64.6-10.8l1.1-1.1c0.1 0.1 11 10.4 63.5 10.4 52.5 0 63.4-10.3 63.5-10.4l1.1 1.1c-0.4 0.5-11.1 10.8-64.6 10.8z"/><path class="h" d="m350.9 772.1c-2.4-1.6-5.6-0.9-7.1 1.5-7.3 12.2-28.7 45.6-48.1 56-23.9 12.8-39.3 4-41.5-2.9-0.7 7.4 1.4 17.1 20.2 17.7 18.7 0.5 39-15.1 49.8-25.5 8.5-8.1 22.6-30.7 28.2-40.1 1.4-2.3 0.8-5.2-1.5-6.7z"/><path fill-rule="evenodd" class="c" d="m275.4 845.1q-0.5 0-1.1 0c-8.3-0.2-14.2-2.3-17.6-6.2-2.7-3-3.8-7.1-3.3-12.2l0.4-3.7 1.1 3.5c0.7 2.2 3.2 5.2 8.1 7.1 5 2 16 4.1 32.3-4.7 19-10.2 39.8-42.3 47.9-55.7 0.8-1.3 2.1-2.3 3.7-2.6 1.5-0.4 3.1-0.1 4.5 0.8 2.5 1.8 3.3 5.2 1.7 7.8-5.7 9.4-19.8 32.1-28.4 40.3-8.1 7.8-29 25.6-49.3 25.6zm-20.6-15.5c0.1 3.4 1.1 6.1 3 8.3 3.1 3.5 8.7 5.4 16.6 5.7q0.5 0 1 0c19.7 0 40.2-17.6 48.2-25.3 8.4-8 22.5-30.6 28.2-39.9 1.1-1.9 0.6-4.4-1.3-5.7-1-0.6-2.2-0.9-3.3-0.6-1.1 0.2-2.1 0.9-2.7 1.9-8.1 13.5-29.1 45.9-48.4 56.3-16.9 9-28.4 6.8-33.7 4.7-3.3-1.3-5.9-3.2-7.6-5.4z"/><path class="a" d="m173.6 889.7c-44.6 0-80.6-7.7-80.6-17.1 0-9.4 36-17.1 80.6-17.1 44.6 0 80.6 7.7 80.6 17.1 0 9.4-36 17.1-80.6 17.1z"/><path class="b" d="m128.3 797.4c0 0-14.1 16.9-14.6 29.3 0.1 7.4 2.9 8.2 2.9 8.2 0 0 2.3-12.2 16-27.1 0.2-4.7-4.3-10.4-4.3-10.4z"/><path fill-rule="evenodd" class="c" d="m117.2 835.9l-0.8-0.2c-0.4-0.1-3.4-1.2-3.5-8.9 0.5-12.7 14.2-29.2 14.8-29.9l0.6-0.8 0.6 0.8c0.2 0.2 4.7 6 4.5 10.9v0.3l-0.2 0.2c-13.4 14.6-15.8 26.7-15.8 26.8zm11.1-37.3c-2.8 3.5-13.5 17.6-13.9 28.1 0.1 4.1 1 6 1.7 6.8 0.9-3.4 4.5-13.7 15.7-26 0-3.3-2.4-7.2-3.5-8.9z"/><path class="i" d="m122.8 751.6v115c0 6 28.6 12.9 64 12.9 35.4 0 64-6.9 64-12.9v-115z"/><path class="j" d="m225.6 876.6c15.3-2.6 25.2-6.4 25.2-10v-115h-76.5c1.2 46.6 12.5 99.8 51.3 125z"/><path class="k" d="m213.2 777.9c0 0-22.8 52.8-47.8 69-25.1 16.2-42.6 8.6-42.6 8.6v-15.6c0 0 30.1 3.3 42.9-9.8 12.8-13.1 43.2-56.1 43.2-56.1z"/><path fill-rule="evenodd" class="c" d="m186.8 880.3c-33.9 0-64.8-6.5-64.8-13.7v-115.8h129.6v115.8c0 7.2-30.9 13.7-64.8 13.7zm-63.2-127.9v114.2c0 4.9 26.5 12.1 63.2 12.1 36.7 0 63.2-7.2 63.2-12.1v-114.2z"/><path class="g" d="m186.8 762.5c-35.4 0-64-4.9-64-10.9 0-6 28.6-10.9 64-10.9 35.4 0 64 4.9 64 10.9 0 6-28.6 10.9-64 10.9z"/><path class="b" d="m186.8 755.4c-25.6 0-46.3-2.4-46.3-5.4 0-3.1 20.7-5.5 46.3-5.5 25.6 0 46.3 2.4 46.3 5.5 0 3-20.7 5.4-46.3 5.4z"/><path fill-rule="evenodd" class="c" d="m186.8 763.3c-31.4 0-64.8-4.1-64.8-11.7 0-7.6 33.4-11.6 64.8-11.6 31.4 0 64.8 4 64.8 11.6 0 7.6-33.4 11.7-64.8 11.7zm0-21.8c-37.3 0-63.2 5.3-63.2 10.1 0 4.8 25.9 10.1 63.2 10.1 37.3 0 63.2-5.3 63.2-10.1 0-4.8-25.9-10.1-63.2-10.1z"/><path class="c" d="m186.8 778.9c-53.5 0-64.2-10.3-64.6-10.8l1.1-1.1c0.1 0.1 11 10.4 63.5 10.4 52.5 0 63.4-10.3 63.5-10.4l1.1 1.1c-0.4 0.5-11.1 10.8-64.6 10.8z"/><path class="h" d="m210.4 772.1c-2.4-1.6-5.6-0.9-7.1 1.5-7.3 12.2-28.7 45.6-48.1 56-23.9 12.8-39.3 4-41.5-2.9-0.7 7.4 1.4 17.1 20.2 17.7 18.7 0.5 39-15.1 49.8-25.5 8.5-8.1 22.6-30.7 28.2-40.1 1.4-2.3 0.8-5.2-1.5-6.7z"/><path fill-rule="evenodd" class="c" d="m134.9 845.1q-0.5 0-1.1 0c-8.3-0.2-14.2-2.3-17.6-6.2-2.7-3-3.8-7.1-3.3-12.2l0.4-3.7 1.1 3.5c0.7 2.2 3.2 5.2 8.1 7.1 5 2 16 4.1 32.3-4.7 19-10.2 39.8-42.3 47.9-55.7 0.8-1.3 2.1-2.3 3.7-2.6 1.5-0.4 3.1-0.1 4.5 0.8 2.5 1.8 3.3 5.2 1.7 7.8-5.7 9.4-19.8 32.1-28.4 40.3-8.1 7.8-29 25.6-49.3 25.6zm-20.6-15.5c0.1 3.4 1.1 6.1 3 8.3 3.1 3.5 8.7 5.4 16.6 5.7q0.5 0 1 0c19.7 0 40.2-17.6 48.2-25.3 8.4-8 22.5-30.6 28.2-39.9 1.1-1.9 0.6-4.4-1.3-5.7-1-0.6-2.2-0.9-3.3-0.6-1.1 0.2-2.1 0.9-2.7 1.9-8.1 13.5-29.1 45.9-48.4 56.3-16.9 9-28.4 6.8-33.7 4.7-3.3-1.3-5.9-3.2-7.6-5.4z"/><path class="a" d="m826.6 871.9c-45 0-81.4-9.4-81.4-21 0-11.7 36.4-21.1 81.4-21.1 45 0 81.3 9.4 81.3 21.1 0 11.6-36.3 21-81.3 21z"/><path class="b" d="m778.1 776.2c0 0-14.2 16.9-14.7 29.4 0.1 7.3 2.9 8.1 2.9 8.1 0 0 2.4-12.2 16-27.1 0.3-4.7-4.2-10.4-4.2-10.4z"/><path fill-rule="evenodd" class="c" d="m766.9 814.7l-0.8-0.2c-0.3-0.1-3.3-1.2-3.5-8.9 0.5-12.6 14.3-29.2 14.9-29.9l0.6-0.8 0.6 0.8c0.2 0.3 4.6 6.1 4.4 11v0.2l-0.2 0.3c-13.3 14.5-15.8 26.6-15.8 26.7zm11.1-37.3c-2.7 3.5-13.4 17.6-13.8 28.2 0 4 1 5.9 1.6 6.7 1-3.4 4.5-13.7 15.7-26 0-3.3-2.4-7.2-3.5-8.9z"/><path class="l" d="m772.5 730.4v115c0 6.1 28.7 12.9 64.1 12.9 35.3 0 64-6.8 64-12.9v-115z"/><path class="m" d="m875.3 855.4c15.4-2.6 25.3-6.4 25.3-10v-115h-76.6c1.2 46.6 12.5 99.8 51.3 125z"/><path fill-rule="evenodd" class="c" d="m836.6 859.1c-34 0-64.9-6.5-64.9-13.7v-115.7h129.7v115.7c0 7.2-30.9 13.7-64.8 13.7zm-63.3-127.9v114.2c0 4.9 26.6 12.2 63.3 12.2 36.6 0 63.2-7.3 63.2-12.2v-114.2z"/><path class="g" d="m836.6 741.3c-35.5 0-64.1-4.8-64.1-10.9 0-6 28.6-10.8 64.1-10.8 35.4 0 64 4.8 64 10.8 0 6.1-28.6 10.9-64 10.9z"/><path class="b" d="m836.6 734.3c-25.7 0-46.4-2.5-46.4-5.5 0-3 20.7-5.5 46.4-5.5 25.6 0 46.3 2.5 46.3 5.5 0 3-20.7 5.5-46.3 5.5z"/><path fill-rule="evenodd" class="c" d="m836.6 742.1c-31.5 0-64.9-4.1-64.9-11.7 0-7.5 33.4-11.6 64.9-11.6 31.4 0 64.8 4.1 64.8 11.6 0 7.6-33.4 11.7-64.8 11.7zm0-21.8c-37.3 0-63.3 5.4-63.3 10.1 0 4.8 26 10.1 63.3 10.1 37.2 0 63.2-5.3 63.2-10.1 0-4.7-26-10.1-63.2-10.1z"/><path class="c" d="m836.6 757.8c-53.5 0-64.2-10.4-64.6-10.9l1.1-1.1c0.1 0.1 10.9 10.4 63.5 10.4 52.5 0 63.3-10.3 63.4-10.4l1.1 1.1c-0.4 0.5-11.1 10.9-64.5 10.9z"/><path class="h" d="m860.2 750.9c-2.4-1.6-5.6-0.9-7.1 1.6-7.4 12.2-28.7 45.5-48.1 55.9-23.9 12.8-39.3 4-41.6-2.8-0.7 7.3 1.4 17 20.2 17.6 18.8 0.5 39-15.1 49.8-25.5 8.5-8.1 22.6-30.7 28.3-40 1.4-2.3 0.7-5.3-1.5-6.8z"/><path fill-rule="evenodd" class="c" d="m784.6 824q-0.5 0-1-0.1c-8.3-0.2-14.3-2.3-17.7-6.1-2.7-3.1-3.8-7.2-3.3-12.3l0.4-3.7 1.2 3.5c0.7 2.2 3.2 5.2 8 7.1 5.1 2 16 4.1 32.4-4.7 19-10.2 39.8-42.3 47.8-55.7 0.8-1.3 2.2-2.3 3.7-2.6 1.6-0.4 3.2-0.1 4.5 0.8 2.6 1.8 3.4 5.2 1.7 7.9-5.6 9.3-19.8 32-28.3 40.2-8.2 7.8-29 25.7-49.4 25.7zm-20.5-15.6c0.1 3.4 1.1 6.2 3 8.3 3.1 3.5 8.7 5.4 16.5 5.7q0.5 0 1 0c19.8 0 40.3-17.6 48.3-25.2 8.4-8.1 22.5-30.6 28.1-39.9 1.2-2 0.6-4.5-1.3-5.8-0.9-0.6-2.1-0.8-3.3-0.6-1.1 0.3-2 1-2.7 2-8.1 13.4-29 45.8-48.4 56.2-16.9 9.1-28.3 6.9-33.7 4.7-3.2-1.3-5.9-3.2-7.5-5.4z"/><path class="a" d="m687.4 887.7c-42 0-76-7.5-76-16.7 0-9.2 34-16.7 76-16.7 42 0 76 7.5 76 16.7 0 9.2-34 16.7-76 16.7z"/><path class="b" d="m649 805.1c0 0-12.4 14.8-12.8 25.8 0.1 6.4 2.5 7.1 2.5 7.1 0 0 2.1-10.7 14-23.7 0.2-4.1-3.7-9.2-3.7-9.2z"/><path fill-rule="evenodd" class="c" d="m639.2 838.9l-0.7-0.2c-0.3-0.1-2.9-1.1-3-7.8 0.4-11.1 12.5-25.6 13-26.2l0.5-0.7 0.5 0.7c0.2 0.2 4.1 5.3 3.9 9.6v0.2l-0.1 0.2c-11.8 12.8-13.9 23.3-13.9 23.5zm9.7-32.7c-2.4 3-11.7 15.4-12.1 24.6 0 3.6 0.9 5.3 1.4 6 0.9-3 4-12.1 13.8-22.9 0-2.8-2.1-6.3-3.1-7.7z"/><path class="i" d="m644.1 765v100.8c0 5.3 25.2 11.3 56.2 11.3 31 0 56.1-6 56.1-11.3v-100.8z"/><path class="j" d="m734.3 874.5c13.4-2.2 22.1-5.6 22.1-8.7v-100.8h-67.1c1 40.8 11 87.5 45 109.5z"/><path class="k" d="m723.3 788.2c0 0-20 45.9-41.9 60-21.9 14.1-37.3 7.6-37.3 7.6v-13.6c0 0 26.3 2.8 37.5-8.6 11.3-11.4 37.9-48.8 37.9-48.8z"/><path fill-rule="evenodd" class="c" d="m700.3 877.8c-29.8 0-56.8-5.7-56.8-12v-101.5h113.6v101.5c0 6.3-27.1 12-56.8 12zm-55.5-112.1v100.1c0 4.3 23.3 10.6 55.5 10.6 32.1 0 55.4-6.3 55.4-10.6v-100.1z"/><path class="n" d="m700.3 774.5c-31.1 0-56.2-4.2-56.2-9.5 0-5.3 25.1-9.5 56.2-9.5 31 0 56.1 4.2 56.1 9.5 0 5.3-25.1 9.5-56.1 9.5z"/><path class="o" d="m700.3 768.3c-22.5 0-40.6-2.1-40.6-4.7 0-2.7 18.1-4.8 40.6-4.8 22.4 0 40.5 2.1 40.5 4.8 0 2.6-18.1 4.7-40.5 4.7z"/><path fill-rule="evenodd" class="c" d="m700.3 775.2c-27.6 0-56.8-3.6-56.8-10.2 0-6.6 29.2-10.2 56.8-10.2 27.5 0 56.8 3.6 56.8 10.2 0 6.6-29.3 10.2-56.8 10.2zm0-19.1c-32.7 0-55.5 4.7-55.5 8.9 0 4.2 22.8 8.9 55.5 8.9 32.6 0 55.4-4.7 55.4-8.9 0-4.2-22.8-8.9-55.4-8.9z"/><path class="c" d="m700.3 788.9c-46.9 0-56.3-9.1-56.6-9.4l0.9-1c0.1 0.1 9.6 9.1 55.7 9.1 46 0 55.5-9 55.6-9.1l1 1c-0.4 0.3-9.8 9.4-56.6 9.4z"/><path class="h" d="m721 782.9c-2.1-1.4-4.9-0.8-6.2 1.4-6.5 10.7-25.2 39.9-42.2 49-21 11.3-34.4 3.5-36.4-2.4-0.7 6.4 1.2 14.9 17.7 15.4 16.4 0.5 34.1-13.2 43.6-22.3 7.5-7.2 19.8-27 24.8-35.1 1.2-2 0.6-4.7-1.3-6z"/><path fill-rule="evenodd" class="c" d="m654.8 847q-0.5 0-1 0c-7.3-0.3-12.5-2.1-15.5-5.5-2.3-2.6-3.3-6.2-2.8-10.7l0.3-3.2 1 3c0.6 1.9 2.8 4.6 7.1 6.2 4.4 1.8 14 3.6 28.3-4.1 16.7-8.9 34.9-37.1 42-48.8 0.7-1.2 1.8-2 3.2-2.3 1.4-0.3 2.8 0 3.9 0.8 2.3 1.5 3 4.5 1.6 6.8-5 8.2-17.4 28.1-24.9 35.3-7.1 6.8-25.4 22.5-43.2 22.5zm-18-13.6c0 3 0.9 5.3 2.6 7.2 2.7 3.1 7.6 4.8 14.5 5q0.4 0 0.9 0c17.3 0 35.2-15.4 42.2-22.1 7.4-7.1 19.7-26.8 24.7-35 1-1.7 0.5-3.9-1.1-5-0.9-0.6-1.9-0.8-2.9-0.5-1 0.2-1.8 0.8-2.4 1.7-7.1 11.7-25.5 40.2-42.4 49.2-14.8 8-24.9 6.1-29.5 4.2-2.9-1.1-5.2-2.8-6.6-4.7z"/><path class="a" d="m814.9 871.8c0 8.3-30.5 15-68.2 15-37.7 0-68.2-6.7-68.2-15 0-8.3 30.5-15 68.2-15 37.7 0 68.2 6.7 68.2 15z"/><path class="b" d="m757.3 834.4c0 0-12.4 14.9-12.8 25.8 0.1 6.4 2.6 7.1 2.6 7.1 0 0 2-10.6 14-23.7 0.2-4.1-3.8-9.2-3.8-9.2z"/><path fill-rule="evenodd" class="c" d="m747.6 868.2l-0.7-0.2c-0.3-0.1-3-1-3.1-7.8 0.5-11.1 12.5-25.6 13-26.2l0.6-0.7 0.5 0.7c0.1 0.2 4.1 5.3 3.9 9.6v0.3l-0.2 0.1c-11.7 12.8-13.9 23.4-13.9 23.5zm9.8-32.7c-2.5 3-11.8 15.4-12.2 24.7 0.1 3.5 0.9 5.2 1.5 5.9 0.8-3 3.9-12.1 13.7-22.8 0.1-2.9-2.1-6.3-3-7.8z"/><path class="d" d="m752.5 794.3v100.8c0 5.3 25.1 11.3 56.1 11.3 31 0 56.1-6 56.1-11.3v-100.8z"/><path class="e" d="m842.6 903.8c13.4-2.2 22.1-5.6 22.1-8.7v-100.8h-67.1c1.1 40.8 11 87.5 45 109.5z"/><path class="p" d="m805.2 830.6c0 0-30.3 4.2-52.1 23.1 0-21 0-37.9 0-37.9z"/><path class="p" d="m831 818.1c0 0-20 45.9-41.9 60-21.9 14.1-37.3 7.5-37.3 7.5v-13.6c0 0 26.3 2.9 37.6-8.5 11.2-11.4 37.9-48.9 37.9-48.9z"/><path fill-rule="evenodd" class="c" d="m808.6 907.1c-29.7 0-56.8-5.7-56.8-12v-101.5h113.6v101.5c0 6.3-27.1 12-56.8 12zm-55.4-112.1v100.1c0 4.3 23.2 10.7 55.4 10.7 32.2 0 55.4-6.4 55.4-10.7v-100.1z"/><path class="n" d="m808.6 803.9c-31 0-56.1-4.3-56.1-9.6 0-5.2 25.1-9.5 56.1-9.5 31 0 56.1 4.3 56.1 9.5 0 5.3-25.1 9.6-56.1 9.6z"/><path class="o" d="m808.6 797.7c-22.4 0-40.6-2.2-40.6-4.8 0-2.7 18.2-4.8 40.6-4.8 22.4 0 40.6 2.1 40.6 4.8 0 2.6-18.2 4.8-40.6 4.8z"/><path fill-rule="evenodd" class="c" d="m808.6 804.5c-27.5 0-56.8-3.5-56.8-10.2 0-6.6 29.3-10.2 56.8-10.2 27.5 0 56.8 3.6 56.8 10.2 0 6.7-29.3 10.2-56.8 10.2zm0-19c-32.7 0-55.4 4.6-55.4 8.8 0 4.2 22.7 8.9 55.4 8.9 32.7 0 55.4-4.7 55.4-8.9 0-4.2-22.7-8.8-55.4-8.8z"/><path class="c" d="m808.6 818.3c-46.9 0-56.2-9.1-56.6-9.5l1-1c0.1 0.1 9.6 9.1 55.6 9.1 46 0 55.5-9 55.6-9.1l1 1c-0.4 0.4-9.7 9.5-56.6 9.5z"/><path class="h" d="m829.3 812.3c-2.1-1.4-4.9-0.8-6.2 1.3-6.5 10.7-25.2 39.9-42.2 49.1-20.9 11.2-34.4 3.5-36.4-2.5-0.6 6.4 1.2 14.9 17.7 15.4 16.5 0.5 34.2-13.2 43.6-22.3 7.5-7.1 19.9-26.9 24.8-35.1 1.2-2 0.7-4.6-1.3-5.9z"/><path fill-rule="evenodd" class="c" d="m763.1 876.3q-0.5 0-0.9 0c-7.3-0.2-12.5-2.1-15.5-5.4-2.4-2.7-3.3-6.3-2.9-10.8l0.3-3.2 1 3.1c0.7 1.9 2.9 4.5 7.1 6.2 4.5 1.7 14 3.5 28.4-4.1 16.6-9 34.8-37.1 41.9-48.8 0.7-1.2 1.9-2.1 3.2-2.4 1.4-0.3 2.8 0 4 0.8 2.2 1.5 2.9 4.5 1.5 6.8-5 8.2-17.4 28.1-24.9 35.3-7.1 6.8-25.4 22.5-43.2 22.5zm-18-13.6c0.1 3 0.9 5.4 2.6 7.3 2.7 3 7.6 4.7 14.5 4.9q0.5 0 0.9 0c17.3 0 35.3-15.4 42.3-22.1 7.3-7.1 19.7-26.8 24.6-35 1.1-1.7 0.6-3.9-1.1-5-0.8-0.6-1.9-0.7-2.9-0.5-1 0.2-1.8 0.8-2.3 1.7-7.1 11.8-25.5 40.2-42.5 49.3-14.8 7.9-24.8 6-29.5 4.1-2.9-1.1-5.2-2.8-6.6-4.7z"/><path class="a" d="m661.3 896.8c0 0 36.6-5.5 39.9-5.3 3.3 0.2 12.2 3.8 0 7.3-12.3 3.4-31 4.8-31 4.8z"/><path fill-rule="evenodd" class="a" d="m722.3 937.7c-9.3 5.8-190.3 21.1-190.3 21.1l-67.4 14.6c0 0-1 5.5 0.7 11.6 1.7 6-18.7 13.1-34.5 14.8-15.8 1.7-23.4-8.5-21.7-15.8 0.6-2.8 6.5-8.8 13.5-15.1l-60.1-37.1c-5.3 1.1-10.6 2.3-15.7 3.6-29.9 7.5-35.5 7-39.9 4.7-8.8-4.6-11-14.6-5.8-15.9 0 0 233.9-60.1 251-59 17 1 26.4 11.3 26.4 11.3l-22.5 8.4 108.4 43.3 35.7-2.1 18.9 4.2c0 0 12.7 1.6 3.3 7.4zm-274.9 10.5l-35.5-25.2c0 0-8.2 1.1-20 3.2l42.4 32.6c7.2-6 13.1-10.6 13.1-10.6zm99.1-13.1l95.7-5.6-99-39.8-49.7 18.6z"/><path class="q" d="m859.3 59.9c-10.8 1.7-14.2-10.3-19.3-29.1-5.1-18.7-15.8-18.5-15.8-18.5 0 0-37.8-1.7-41.2-0.5-3.4 1.1-10.3 7.4-26.5 3.9-16.2-3.4-24.7-2.8-26.2 8.6-1.4 11.4-8.2 23.9-12.6 19.9-4.4-4-11.6-1.1-19.5 15.4-8 16.5-17.7-4.6-22-7.4-4.3-2.9-17.9 21-20.1 9.1-2.3-12 0-20.5-9.1-27.3-9.1-6.9-20 0-21.7-14.8-1.4-12.6-13.8-27.6-17.5-13.5 0 0-9.3 22.6-16.4 23.1-7 0.6-19.2 4-24.8 11.4-5.6 7.4-19.2 17.1-34 9.1-14.8-7.9-34.6-7.9-37.5-4-2.9 4-10.1 4-17.9-2.2-7.8-6.3-18-16-31.1-8-13.1 8-14.8 2.8-24.5 0-9.7-2.8-19.7-9.1-26 0-6.4 9.1-34-5.4-60.5-18.1-26.4-12.6-50.3 10.4-52 15.5-1.8 5.2-13.7 0.9-29.1 5.2-15.3 4.2-19.6 6.8-20.5 16.2-0.8 9.4-10.2 13.8-11.9 24.8-1.7 11 0 94.2 0 139.1 0 44.9 5.1 56.9 11.1 50.1 6-6.9 9.4 1.5 17.1 5.9 7.6 4.3 30.7-5.2 32.4-16.2 1.7-11.1 5.1-35.1 13.7-28.2 8.5 6.9 0 52.9 0 108 0 55.1 0 90.2 0 120.9 0 30.6 14.5 17.4 23.9 20.6 9.3 3.2 5.9 9.6 12.8 15.4 6.8 5.7 18.5-0.2 23.6-10.4 5.1-10.3 11.9-0.7 11.4 23.8-0.6 24.5-2.9 50.8 2.8 57.6 5.7 6.7 9.4-5 14.2 4 4.9 9 5.4 26.8 22.9 15.3 17.5-11.4 10.5-20.9 24.3-15.3 13.7 5.6 27.5 16.8 40.2 10.3 12.8-6.4 13.2-23.9 50-45.3 36.8-21.5 40.2-21.9 49.7-19.8 9.6 2.1 0.8-52 17.8-52.4 17.1-0.5 12.5-18.3 19-47.8 6.6-29.6 6.4-171.2 6.4-171.2l-1-41.7c5.6 0.1 5.5-15.7 14-17.2 9.8-1.6 2.6 13.7 11.1 20.8 8.5 7.1 20.9 1 30.1 9 9.2 7.9 9.6 14.2 15.6 12.5 5.9-1.7 8.1-8.1 15 2.9 6.9 11 13.2 4.2 14.8-11.8 1.7-16 5.4-59.9 5.4-86.8 0-27 3.7-42.3 8.9-41.7 5.2 0.5 4.1 0.8 8.8-0.9 4.7-1.7 5.5 0 10.7 4.1 5.1 4.1 11.7 13 17.7 14.2 6 1.3 6.6 15.4 5.3 33.7-1.2 18.4 6.8 20.5 10.2 18.7 3.5-1.9 8.2-0.3 9 6.6 0.9 6.9 4.7 21.3 11.4 18.7 6.8-2.5 6.1-7.7 11.7 0 3.5 5 6.8 3.2 8.8-13.6 4.1 8.3 10.7 17.4 16.5 6 9.1-18.2 24.4-74.6 30.7-91.7 6.2-17.1 0.6-26.7-10.3-25z"/><path class="r" d="m310.5 479.7v115.3c0 3.1 24.5 9.3 54.7 9.3 30.2 0 54.7-6.2 54.7-9.3v-115.3z"/><path class="s" d="m347.2 479.7q7.5 62 2 124c5.1 0.4 10.4 0.6 16 0.6 30.2 0 54.7-6.2 54.7-9.3v-115.3z"/><path fill-rule="evenodd" class="c" d="m365.2 605.1c-28.6 0-55.6-5.7-55.6-10.1v-115.3l111.1-0.8v116.1c0 4.4-26.9 10.1-55.5 10.1zm-53.9-124.5v114.4c0.7 2.1 22.9 8.5 53.9 8.5 31 0 53.1-6.4 53.9-8.6v-114.3z"/><path class="t" d="m365.2 485.5c-30.3 0-54.7-2.6-54.7-5.8 0-3.1 24.4-5.7 54.7-5.7 30.2 0 54.7 2.6 54.7 5.7 0 3.2-24.5 5.8-54.7 5.8z"/><path fill-rule="evenodd" class="c" d="m365.2 486.3c-19.2 0-55.6-1.4-55.6-6.6 0-5.1 36.4-6.5 55.6-6.5 19.2 0 55.5 1.4 55.5 6.5 0 5.2-36.3 6.6-55.5 6.6zm0-11.4c-33.2 0-52.9 2.9-53.9 4.9 1 1.9 20.7 4.8 53.9 4.8 32.8 0 52.5-2.8 53.8-4.9-1.3-2-21-4.8-53.8-4.8z"/><path class="c" d="m418 490.3c-4.4 1.9-23.3 4.2-52.8 4.2-30.1 0-50.5-1.9-54-5.3l-1.3 1.1c2.8 4.6 36.9 5.9 55.3 5.9 18.4 0 52.5-1.3 55.3-5.9z"/><path class="g" d="m332.1 494.3c0 0 0-57.4 41.4-56.9 41.4 0.5 40.6 39.7 40.6 39.7l-10.8-2c0 0-0.8-22.9-21.9-33.8-21.2-10.8-38.9-1.5-48.3 14.9-6.6 11.5-9.4 27.8-8.7 36.6 3 1.7 7.7 1.5 7.7 1.5z"/><path fill-rule="evenodd" class="c" d="m330.7 494.5c-1.4 0-4.2 0.4-6.7-1.1l-0.4-0.2v-0.4c-0.7-9.4 2.4-25.8 8.8-37 7.3-12.7 20.8-23.1 38.5-19.2q1.3 0 2.6 0c12.8 0.2 22.9 4 30.1 11.4 11.5 11.9 11.3 28.4 11.3 29.1v0.9l-12.3-2.3v-0.6c-0.1-0.2-1.1-22.5-21.6-33.1-3.6-1.8-7-3-10.3-3.8-8.5 0.5-15.8 3.6-21.7 9.4-16 15.8-16.2 46.3-16.2 46.7v0.3l-0.6 0.1c0 0.1-1.2-0.2-1.5-0.2zm-5.6-1.7c2 1 4.9 0.7 6.2 0.7 0.1-5 1.6-32.2 16.6-47 4.8-4.7 10.4-7.7 16.8-9.1-14.1-0.6-24.8 8.5-30.9 19.2-6.2 10.7-9.3 27-8.7 36.2zm79-18.4l9.2 1.7c-0.1-3.6-1.3-17.2-10.8-27-6.3-6.5-15.1-10.2-26.1-10.8q2.6 0.9 5.3 2.3c19.3 10 22 30 22.4 33.8z"/><path class="u" d="m481.8 425.5l-134.2 501.1-22.9 3.6-9.8-7.3 146.9-525.5 39.1 0.1 59.5 481.4-15.5 3.6-7.7-2.5z"/><path class="v" d="m477.2 404.2v-6.8h-15.4l-146.9 525.5 9.8 7.3 0.4-0.1-0.6-0.4 146.8-525.5z"/><path class="v" d="m489.3 422.2h-7.9l55.8 457.8 7.7 2.5 0.4-0.3z"/><path fill-rule="evenodd" class="c" d="m324.5 931l-10.4-7.8 0.1-0.6 147-526 40.4 0.1 0.1 0.7 59.6 482.1-16.5 3.8-8.3-2.7v-0.5l-55-450.6-133.2 497.8zm-8.7-8.5l9.1 6.9 22.1-3.5 135.1-504.6 55.8 458.1 7 2.3 14.7-3.4-59.4-480-37.9-0.2z"/><path class="u" d="m540.5 846.2l149.4 50.7 11.4-20.1-146.5-43.5-15.6 2.1z"/><path fill-rule="evenodd" class="c" d="m690.2 897.8l-0.6-0.2-149.8-50.8-1.5-12.1 16.6-2.2 0.1 0.1 147.4 43.8zm-149-52.2l148.3 50.3 10.6-18.7-145.4-43.2-14.7 2z"/><path class="c" d="m701 887.7l-162.1-51.6 0.5-1.5 162.1 51.6z"/><path class="c" d="m325.4 930.4l-1.5-0.4 147.9-532.8 1.5 0.4z"/><path class="c" d="m544.1 882.6l-55.7-460.2-6.3-0.1v-1.5h7.7l55.8 461.6z"/><path class="u" d="m535.6 496.4l-83-12.4v-9.8l26.6-2.7 58.9 5.9z"/><path fill-rule="evenodd" class="c" d="m536.2 497.2l-84.4-12.6v-11.1l27.3-2.8 59.8 6zm-82.8-14l81.5 12.2 2.3-17.4-58.1-5.8-25.7 2.6z"/><path class="c" d="m537.1 484.7l-84.6-9.7 0.2-1.6 84.6 9.7z"/><path class="u" d="m518.3 586.1l-86.9-21v-9.8l26.6-2.7 63.7 12.7z"/><path fill-rule="evenodd" class="c" d="m518.9 587.1l-0.8-0.2-87.4-21.2v-11.1l27.4-2.8 0.1 0.1 64.3 12.7zm-86.7-22.6l85.5 20.7 3.1-19.3-62.8-12.5-25.8 2.7z"/><path class="c" d="m519.6 575.9l-88.3-19.8 0.3-1.5 88.3 19.8z"/><path class="u" d="m503.8 664.3l-93.9-21.9v-9.8l26.5-2.7 72.4 12.9z"/><path fill-rule="evenodd" class="c" d="m504.4 665.2l-95.3-22.2v-11.1l27.4-2.8h0.1l73.2 13.1zm-93.8-23.4l92.6 21.5 4.6-19.9-71.4-12.7-25.8 2.6z"/><path class="c" d="m505.3 652.6l-95.6-19.2 0.3-1.5 95.6 19.2z"/><path class="u" d="m484 752.4l-95.3-32.7v-9.8l26.6-2.7 71.9 20.9z"/><path fill-rule="evenodd" class="c" d="m484.6 753.5l-96.7-33.3v-11l27.5-2.8h0.1l72.5 21.1zm-95.1-34.3l93.8 32.2 3-22.7-71-20.7-25.8 2.7z"/><path class="c" d="m485.4 740.7l-96.9-30 0.4-1.5 96.9 30z"/><path class="u" d="m469.9 843.3l-104-39.1v-9.8l26.6-2.7 84 25.8z"/><path fill-rule="evenodd" class="c" d="m470.4 844.4l-0.8-0.3-104.5-39.4v-11l27.5-2.8h0.1l84.7 26.1zm-103.7-40.8l102.6 38.7 6.2-24.3-83.1-25.5-25.7 2.6z"/><path class="c" d="m471.2 831.6l-105.5-36.5 0.5-1.4 105.6 36.5z"/><path class="u" d="m454.7 920l-108.7-46.7v-9.8l26.6-2.7 88.3 30.7z"/><path fill-rule="evenodd" class="c" d="m455.3 921.1l-110.1-47.3v-11l27.5-2.8h0.1l89 31zm-108.6-48.3l107.5 46.1 5.8-26.8-87.5-30.5-25.8 2.6z"/><path class="c" d="m456.1 908.3l-110.4-44.1 0.6-1.4 110.4 44z"/><path class="v" d="m626.7 384v16.8h-183.2v-16.8z"/><path fill-rule="evenodd" class="c" d="m627.5 383.2v18.4h-184.8v-18.4zm-183.2 1.5v15.3h181.7v-15.3z"/><path class="w" d="m397.2 216.9c0 0-40.1 8.4-59.6 54.2-19.4 45.9-24.9 66.3-22 84.3 4.2 25.9 11.1 78 33.5 85.3 17.7 5.7 24.4-6.1 27.7-19.9 3.3-13.9-7.1-47.2-8.3-61.2-1.2-14.1 28.6-62.1 33.7-84.6 5.1-22.5-5-58.1-5-58.1z"/><path class="x" d="m357 257.6c0 0-7.3 16.6-8.1 32.8-0.9 16.2-0.4 35.7 0 39-5.8-12.9-9.4-39-9.4-39-0.2 24.3 5.5 42.5 7 47-8.7-9.4-13.2-22.9-13.2-22.9 4.1 18.4 5.3 23.7 9.6 31.8 4.3 8.1 2.6 29.3 3.7 36.4-9.5-10.1-16.3-26.3-17.8-33 1.9 21.2 4.9 26.9 10 38.5 5.2 11.5 5.4 20.2 1.1 26.9-2.4 3.9-7.9 0.4-12.2-3.4 4.9 14.2 11.7 25.8 21.4 29 17.7 5.7 24.4-6.1 27.7-19.9 3.3-13.9-7.1-47.2-8.3-61.2-0.7-8 8.7-27 17.8-46-7-16.3-29.3-56-29.3-56z"/><path fill-rule="evenodd" class="c" d="m357.5 442.9q-4 0-8.6-1.5c-21.6-7-28.9-53.4-33.3-81.1l-0.7-4.7c-2.9-18 2.4-38.6 22-84.8 19.4-45.7 59.7-54.6 60.1-54.7l0.8-0.2 0.2 0.7c0.1 0.4 10 36.2 4.9 58.6-2.3 10.4-9.9 26.2-17.2 41.5-8.4 17.4-17 35.4-16.4 42.8 0.4 4.8 2 12.2 3.6 20 3.2 15.1 6.8 32.3 4.7 41.5-2.5 10.3-6.3 16.8-11.8 19.9q-3.6 2-8.3 2zm39.2-225.1c-5.5 1.4-40.7 12.1-58.3 53.6-19.5 45.9-24.8 66.3-22 83.9l0.8 4.7c4.3 27.4 11.5 73.2 32.2 79.9 6.3 2.1 11.5 1.9 15.7-0.4 5-2.8 8.6-9 11-18.9 2-8.9-1.6-25.8-4.7-40.8-1.7-7.8-3.2-15.2-3.7-20.2-0.6-7.8 7.7-25.2 16.6-43.6 7.3-15.2 14.8-30.9 17.1-41.2 4.6-20.2-3.4-51.8-4.7-57z"/><path class="y" d="m421.4 185.3c0 0 0.3 17.3-9.7 35.1-0.9 16.1 25.7 20.3 36.3 21 10.6 0.7 22.5-1.2 22.5-1.2-3.6-9.2 6.8-16.8 6.8-16.8l-41-46.5z"/><path class="z" d="m469.9 240.2q0.6 0 0.6 0c-3.6-9.2 6.8-16.8 6.8-16.8l-40-45.5c-7.3 27.5 9.2 50.7 32.6 62.3z"/><path fill-rule="evenodd" class="c" d="m453 242.3q-2.5 0-5-0.1c-6.4-0.5-38.1-3.6-37.1-21.9l0.1-0.3c9.8-17.4 9.6-34.5 9.6-34.7v-0.4l15.9-9 42 47.6-0.7 0.5c-0.1 0.1-9.9 7.4-6.6 15.9l0.4 0.9-1 0.1c-0.1 0-8.6 1.4-17.6 1.4zm-40.5-21.7c-0.7 17 31.8 19.7 35.6 20 8.7 0.6 18.4-0.6 21.3-1.1-2.3-7.8 4.6-14.3 6.8-16.2l-40-45.4-14 7.9c0 2.9-0.7 18.7-9.7 34.8z"/><path class="A" d="m495.2 140.2c1.5-0.8 32.9-2.1 33.4-4.9 0.6-3.1-37.9-5-37.9-5z"/><path class="c" d="m527.3 134.2c-2.3 2.5-28.4 3.8-32.8 4.6l0.7 1.4c1.5-0.8 32.9-2.1 33.4-4.9 0.1-0.4-0.4-0.8-1.3-1.1z"/><path class="z" d="m489.5 123.4c0 0 5.3 6.7 6.5 16.8 1.2 10 5.7 11.2 6 16.2 0.2 5.1-2.9 9.1-1.9 13.2 0.9 4.1 3.1 8.6 3.6 15.8 0.4 7.2-1.5 12-3.9 22.1-2.4 10-1.7 17.9-12.7 20.3-11 2.4-26.6-3.6-37.6-8.8-11-5.3-16-20.1-17-24.5-1-4.3-2.6-22.9-9.3-25-6.7-2.2-14.2-13.3-14.2-25 0-11.8 56.3-35.7 80.5-21.1z"/><path class="y" d="m460 155.4c0 0 7.4-2.8 12.8 2.1 5.4 5 4.8 10.1 4.8 10.1 0 0 1.2-5.8 0.8-9.5-0.4-3.6-12.6-7.3-18.4-2.7z"/><path class="y" d="m458 220.1c-17.8-17.8-17.8-51.3 2.2-66.9 8.3-8.2 24.1-3.2 37-7.6-0.5-1.5-0.9-3.2-1.2-5.4-1.2-10.1-6.5-16.8-6.5-16.8-24.2-14.6-80.5 9.3-80.5 21.1 0 11.7 7.5 22.8 14.2 25 6.7 2.1 8.3 20.7 9.3 25 1 4.4 6 19.2 17 24.5 3.7 1.7 7.8 3.6 12.2 5.1-1.5-1.4-2.8-3.1-3.7-4z"/><path class="c" d="m504.4 185.4c-0.3-5.2-1.5-8.9-2.5-12.2-0.4-1.3-0.8-2.6-1.1-3.8-0.4-1.9 0.2-4 0.8-6.2 0.6-2.1 1.3-4.3 1.2-6.8-0.2-2.4-1.1-3.9-2.2-5.7-1.4-2.3-3.2-5.1-3.8-10.6-1.2-10.2-6.4-16.9-6.7-17.2l-0.2-0.2c-14.1-8.5-38.8-4-56.9 3.2h4.3c10.2-3.7 21.9-6.3 32.4-6.3 7.3 0 14.1 1.3 19.3 4.4 0.7 0.9 5.1 7.2 6.2 16.2 0.7 5.9 2.6 8.9 4 11.3 1.1 1.7 1.9 3 2 5 0.1 2.2-0.5 4.3-1.1 6.3-0.7 2.4-1.3 4.6-0.8 7 0.3 1.2 0.7 2.5 1.1 3.8 1 3.3 2.1 6.9 2.5 11.9 0.3 5.4-0.7 9.5-2.3 15.7-0.5 1.8-1 3.8-1.5 6.1-0.5 1.8-0.8 3.5-1.1 5.1-1.4 7.4-2.4 12.8-11 14.7-8.5 1.8-21.3-1.2-37.2-8.8-6.6-3.2-11.1-10.2-13.8-16 0 0 2.6 12.6 13.2 17.4 13.3 6 24 9.5 32.4 9.5q3.1 0 5.7-0.6c9.6-2.1 10.8-8.2 12.2-15.9 0.3-1.6 0.7-3.3 1.1-5 0.5-2.3 1-4.3 1.5-6.1 1.6-6.4 2.7-10.5 2.3-16.2z"/><path class="y" d="m430.1 173.6c0 0-12.5-10.9-17.2 0-4.8 10.9 6.2 24.1 13.6 21.2 7.4-2.9 7.7-7 7-11-0.8-4.1-3.4-10.2-3.4-10.2z"/><path class="c" d="m432.8 184.3c0.5 3.5 0.3 7.1-6.6 9.8-2.6 1-6-0.3-8.9-3.4-3.8-3.9-6.4-10.7-3.7-16.8q1.5-3.6 4.5-4.2 0.6-0.2 1.4-0.2c4.1 0 8.6 3.4 9.8 4.4 0 0-5.8-7-11.6-5.7-2.4 0.5-4.3 2.2-5.6 5.1-2.9 6.8-0.1 14.2 4 18.5 2.6 2.7 5.6 4.2 8.3 4.2q1.2 0 2.4-0.5c1.8-0.7 3.1-1.8 4.2-2.7 4-3.3 1.8-8.5 1.8-8.5z"/><path fill-rule="evenodd" class="c" d="m415.2 178.7c0-3.3 1.3-4.9 2.6-5.6 2-1.2 4.6-1.1 6.8 0.1 3.5 2 5.3 6.2 5.5 9.5 0.2 2.2-0.4 4-1.6 4.9-0.8 0.6-1.8 0.7-2.8 0.3-2.3-0.8-3.7-3.5-3.3-6.1 0.3-1.7 1.6-3 2.6-3.6 0.7-0.4 1.3-0.6 1.9-0.6-0.8-1.4-1.9-2.6-3.2-3.3-1.4-0.8-3.7-1.1-5.4-0.1-1.4 0.9-2.1 2.4-2.1 4.5 0.1 5.6 3.4 8.7 3.5 8.7 0 0-4.3-2.3-4.5-8.7zm8.4 3.3c-0.5 1.7 1.1 3.9 2.6 4.4q0.8 0.3 1.3-0.1c0.6-0.4 1.2-1.6 1-3.5-0.1-1.4-0.5-3.1-1.3-4.6 0 0-2.4 0.1-3.6 3.8z"/><path class="c" d="m422.1 176.3c2.9-1.5 5.2 1.4 5.3 1.5l-1.1 0.4c-0.1-0.4-2.1-1.8-3.8-0.9-1.9 1-1.5 4.3-1.5 4.3 0 0-1.7-3.8 1.1-5.3z"/><path class="c" d="m501.9 158.9c0 0-1.6-5.4-5.9-4.6-4.3 0.8-6.6 2.9-6.6 2.9-0.7-3 0.6-8.6 6.8-7.8 6.2 0.9 7.2 6.6 5.7 9.5z"/><path class="c" d="m478.4 158.1c0 0-10.3-5.8-18.1-2.9-7.8 3-7.3 8.8-7.3 8.8-1-6.8 0.8-14.3 13.2-15.3 12.3-1 14.5 6.4 12.2 9.4z"/><path class="g" d="m465.6 175.6c-2.9 0-5.3-3.3-5.3-7.3 0-4 2.4-7.2 5.3-7.2 2.9 0 5.2 3.2 5.2 7.2 0 4-2.3 7.3-5.2 7.3z"/><path fill-rule="evenodd" class="c" d="m465.8 176.1c-1.4 0-2.8-0.7-3.9-2.1-1.2-1.3-1.9-3.2-2-5.3-0.2-2 0.3-3.9 1.2-5.5 1-1.5 2.4-2.5 3.9-2.6 3.1-0.2 6 3.1 6.3 7.3 0.1 2.1-0.3 4-1.3 5.5-0.9 1.6-2.3 2.5-3.9 2.7q-0.1 0-0.3 0zm-0.5-14.5q-0.1 0-0.2 0c-1.2 0.1-2.4 0.8-3.2 2.1-0.8 1.4-1.2 3.1-1.1 5 0.2 1.8 0.8 3.5 1.8 4.7 1 1.2 2.2 1.8 3.4 1.7 1.3-0.1 2.4-0.9 3.2-2.2 0.8-1.3 1.2-3.1 1.1-4.9-0.3-3.6-2.5-6.4-5-6.4z"/><path class="c" d="m467.2 168.9c-0.3-2.2-2.3-3.7-4.5-3.4-0.9 0.1-1.7 0.7-2.3 1.3q-0.1 0.9 0 1.9c0.1 1.9 0.7 3.5 1.7 4.7 0.5 0.3 1.2 0.3 1.8 0.2 2.1-0.3 3.6-2.4 3.3-4.7z"/><path class="g" d="m461.7 170c-0.7 0-1.2-0.5-1.2-1.2 0-0.6 0.5-1.1 1.2-1.1 0.6 0 1.1 0.5 1.1 1.1 0 0.7-0.5 1.2-1.1 1.2z"/><path class="g" d="m465.3 171.2c0 0.3-0.3 0.5-0.6 0.5-0.3 0-0.6-0.2-0.6-0.5 0-0.4 0.3-0.6 0.6-0.6 0.3 0 0.6 0.2 0.6 0.6z"/><path class="g" d="m493.4 173.9c-2.4 0-4.4-2.8-4.4-6.2 0-3.4 2-6.2 4.4-6.2 2.4 0 4.4 2.8 4.4 6.2 0 3.4-2 6.2-4.4 6.2z"/><path fill-rule="evenodd" class="c" d="m493.6 174.3c-1.2 0-2.4-0.6-3.3-1.7-0.9-1.2-1.5-2.8-1.6-4.6-0.2-1.7 0.2-3.4 1-4.7 0.8-1.3 1.9-2.1 3.2-2.2 2.6-0.2 5 2.6 5.2 6.3 0.2 1.7-0.2 3.4-1 4.7-0.8 1.3-1.9 2.1-3.2 2.2q-0.2 0-0.3 0zm-0.4-12.4q-0.1 0-0.2 0c-1 0.1-2 0.8-2.6 1.9-0.7 1.1-1.1 2.6-0.9 4.2 0.1 1.6 0.6 3 1.4 4 0.9 1 1.9 1.5 2.9 1.5 1-0.1 2-0.8 2.6-1.9 0.7-1.1 1.1-2.6 0.9-4.2-0.2-3.1-2-5.5-4.1-5.5z"/><path class="c" d="m494.5 168.3c-0.2-1.9-1.9-3.2-3.7-2.9-0.6 0.1-1.2 0.4-1.7 0.8q-0.1 0.9 0 1.8c0.1 1.7 0.7 3.2 1.5 4.3q0.6 0.1 1.2 0c1.8-0.3 3-2.1 2.7-4z"/><path class="g" d="m490.9 168.2c0 0.6-0.4 1-1 1-0.5 0-0.9-0.4-0.9-1 0-0.5 0.4-1 0.9-1 0.6 0 1 0.5 1 1z"/><path class="g" d="m492.9 170.2c0 0.3-0.2 0.5-0.4 0.5-0.3 0-0.5-0.2-0.5-0.5 0-0.3 0.2-0.5 0.5-0.5 0.2 0 0.4 0.2 0.4 0.5z"/><path class="z" d="m498.8 178.8c-6-1.5-8.9-5.9-10.6-9.8-1.3-2.9-0.7-7.1-0.3-9l-4.9 21.2c0 0-3.3 0.9-3 4.7 0.3 3.8 15.4 4.4 19.8 1.5 4.5-2.9 5-7.1-1-8.6z"/><path class="B" d="m488.9 159.1c0 0-3.8 6.3-1.4 13.8 2.3 7.6 7.8 8.7 4.7 10.8-3.1 2.2-5.9 1.3-6.5 1.3 6.5 2.7 14.5 1.9 16.8-0.1 2.4-2 0.3-5.1-4.8-6.8-5-1.6-8.7-7.2-9.5-9.8-0.8-2.7 0-8.1 0.7-9.2z"/><path class="z" d="m487.9 160l0.3-1.1c0 0-0.1 0.4-0.3 1.1z"/><path class="y" d="m499.8 188.3c0 0 2.2 3.6-5.7 6.4-7.9 2.8-18.6-3.3-14.5-10.5 0.1 3 2.1 4.1 4.8 4.5 2.8 0.4 11.3 1 15.4-0.4z"/><path class="c" d="m490.4 190c-3.7 0-7.3-0.5-9.3-1.7q-1.7-0.9-1.8-2.3c-0.3-3.5 3.9-4.1 3.9-4.1-0.1 0.1-3.9 1.2-2.8 4.3 0.1 0.3 0.3 0.7 1 1 3.7 2.2 14.9 2.1 18.3-0.1 2-1.3 3.4-3.4 3.2-4.8-0.2-1.2-1.7-2.6-4-3.2-6.6-1.7-9.2-6.3-10.8-9.9-1.8-4.1 0.8-10.1 0.8-10.1 0 0-1.6 6-0.1 9.5 1.5 3.3 4.2 7.9 10.2 9.4 3.9 1 4.8 3.1 4.9 4.2 0.3 2-1 4.2-3.7 5.9-2 1.3-5.9 1.9-9.8 1.9z"/><path class="g" d="m496.1 198.6c0 0-2.7 2-13 2.3-12.5 0.3-17.5-4-17.5-4 11 14.2 14 17.6 24.4 15.8 0.4-5.1 6.1-14.1 6.1-14.1z"/><path class="C" d="m496.1 199c0 0-0.8 2.8-5.7 3.9-4.9 1-14.8 0.6-16.5-0.2 6.1 5.4 17.7 3 17.7 3-5.6 2.4-14 3.3-20-0.6-5.1-6.7-6-8.2-6-8.2 0 0 5.4 3.8 13.7 3.9 8.2 0.2 16.8-1.8 16.8-1.8z"/><path fill-rule="evenodd" class="c" d="m485.6 214c-7.8 0-11.5-4.8-20.7-16.6l-4.4-5.7 5.6 4.6c0 0.1 5 4.1 16.9 3.8 9.8-0.2 12.6-2.1 12.7-2.1l1.5-1.1-0.2 1.1c0 0.1-5.9 9.9-6.2 14.8l-0.1 0.6-0.6 0.1q-2.5 0.5-4.5 0.5zm-18.3-15.4c8.7 12 13.5 15.3 22.2 14 0.5-3.8 4.4-10.6 6.1-13.4-2.8 1.5-6.9 2-12.6 2.1-7 0.2-12.8-1.5-15.7-2.7z"/><path class="c" d="m492.2 128.4c0 0-30 15.3-46.3 5.3-0.2 13.2-2.4 13.6-6.7 18.7-4.3 5 1.9 33.8 1.9 33.8h-6c0 0-1.1-10.1-3.5-13.3-2.5-3.1-15.3-6.2-19.3 0.2-1.9-8.5-3.3-20-3.3-32.5 0-12.4 5.5-21.1 7-21.8 4.5-17.7 41.8-19.1 51.4-17.7 9.7 1.4 5.8 5.8 5.8 5.8 13-2.4 19 21.5 19 21.5z"/><path class="c" d="m492.1 200.2v-1c0.3 0 5.2-0.3 5.6-5.4 0 0 0.2 3.7-1.1 4.8-1.5 1.2-3.3 1.5-4.5 1.6z"/><path class="c" d="m486.6 217.7c-8.1-0.5-12.3-6.2-12.3-6.2 4.4 4.2 10.9 5.2 15.1 4.4 2-0.4 2.9-1.1 3.2-1.6 1-2.3-1.6-4-1.8-4.1 0 0 4.5 1.9 3.2 4.8-0.6 1.1-2.1 2-4.3 2.4q-1.5 0.3-3.1 0.3z"/><path class="d" d="m462.8 94.2c0 0-26 0-40.4 14-14.9 14.4-21.5 29.6-10.9 58.6 11.5-9.9 24.5-14.2 24.5-14.2z"/><path class="D" d="m419.7 110.9c-12.9 13.7-18.1 28.7-8.2 55.9 4-3.4 8.2-6.2 12-8.3-5.6-14.7-9.5-32.9-3.8-47.6z"/><path fill-rule="evenodd" class="c" d="m411.2 168.2l-0.4-1.1c-10.9-29.9-3.5-45.4 11-59.5 14.5-14 39.9-14.2 41-14.2l1 0.8-27.3 59.1-0.3 0.1c-0.1 0-12.9 4.3-24.2 14zm50.4-73.1c-5.3 0.2-26.4 1.8-38.6 13.7-14.3 13.9-21.2 28.3-11.1 56.8 10.3-8.6 21.5-12.8 23.6-13.5z"/><path class="g" d="m496.9 129.2c0 0-0.7-13.2-7-20.8-8.9-10.8-27.1-14.2-27.1-14.2 0 0-29.4 14.4-28.2 33.8 0.8 13.8 1.4 24.6 1.4 24.6 0 0 19.6-15.5 36.4-20.5 6-1.8 24.5-2.9 24.5-2.9z"/><path class="C" d="m496.4 125c-18.6-4.2-39.3 1.2-56.4 9.4-1.5-7-2.8-13.2-1.6-19.7-2.6 4-4.1 8.5-3.8 13.3 0.8 13.8 1.4 24.6 1.4 24.6 0 0 19.6-15.5 36.4-20.5 6-1.8 24.5-2.9 24.5-2.9 0 0-0.1-1.7-0.5-4.2z"/><path class="c" d="m497.7 129.1c-0.1-0.5-0.8-13.4-7.2-21.2-9-10.9-26.8-14.3-27.5-14.5h-0.3l-0.2 0.1c-0.2 0.1-1.3 0.6-2.8 1.5 1-0.1 0.5 0 1.5 0 0.4 0 3.2 0.1 3.5 0.3 3.9 0.8 17.1 4.5 24.6 13.6 5.2 6.3 6.5 16.7 6.8 19.6-3.7 0.2-18.6 1.2-24 2.8-14.3 4.3-30.9 16.4-35.4 19.8-0.2-3.4-0.7-12.5-1.3-23.2-0.5-7.9 3.9-15.7 9.7-21.3-6.1 5.1-11.8 12.7-11.3 21.4 0.9 13.7 1.4 24.6 1.4 24.7l0.1 1.5 1.2-1c0.1-0.1 19.7-15.5 36.1-20.4 5.9-1.8 24.2-2.8 24.3-2.8l0.8-0.1z"/><path class="D" d="m436 152.6c0 0 18.3-2.6 39.6-13 21.3-10.4 39.5-5.7 49.2-4.3 9.7 1.4-4.4-7.7-27.9-9.2-23.5-1.6-49.7 7.3-60.9 26.5z"/><path class="d" d="m496.9 126.1c-12.4-0.8-25.5 1.3-36.8 6.2 8-1.9 16.3-2.6 24.4-2.1 6.8 0.5 12.8 1.6 17.7 2.9 9.5-0.3 17.3 1.4 22.6 2.2 9.7 1.4-4.4-7.7-27.9-9.2z"/><path fill-rule="evenodd" class="c" d="m434.5 153.6l0.8-1.4c12-20.6 39.6-28.4 61.6-26.9 17.6 1.2 30.5 6.5 31.7 9.1 0.2 0.4 0.1 0.9-0.1 1.2-0.5 0.7-1.6 0.8-3.8 0.5q-1.5-0.3-3.3-0.6c-9.9-1.6-26.6-4.4-45.5 4.8-21.1 10.4-39.6 13.1-39.8 13.1zm57.2-26.9c-20 0-43 7.4-54.2 24.9 5-1 20.5-4.3 37.7-12.7 19.4-9.5 36.3-6.6 46.5-4.9q1.7 0.3 3.2 0.5c1 0.1 1.6 0.2 2 0.1-2-1.9-13.5-6.7-30.1-7.8q-2.5-0.1-5.1-0.1z"/><path class="c" d="m671.2 152.6l-3.1-1.1 3.3-9.7c0.7-2 0.2-4.2-1.3-5.8l-27.5-29c-2.3-2.4-3.1-5.9-2-9.1l5.1-15.1c1.1-3.1 4.5-4.8 7.7-3.8l12.2 4.2-1 3.2-12.3-4.2c-1.4-0.5-3 0.3-3.4 1.7l-5.2 15c-0.7 2.1-0.2 4.3 1.3 5.8l27.5 29c2.3 2.5 3.1 6 2 9.2z"/><path class="E" d="m649.5 88.2l78.6 26.8 5.4-15.9-78.6-26.8z"/><path fill-rule="evenodd" class="c" d="m728.5 116l-80-27.3 5.9-17.3 80.1 27.2zm-78.1-28.2l77.1 26.3 4.9-14.4-77.1-26.3z"/><path class="F" d="m658.8 68.5c0 0-0.2-0.1-0.4-0.2-2.2-0.7-5.9 4.4-8.3 11.4-2.4 7-2.5 13.3-0.3 14 0.1 0.1 0.4 0.2 0.4 0.2l73.7 25.9 8.9-26.9z"/><path class="G" d="m651.2 80.6c0 0-0.3-0.1-0.5-0.1q-0.4-0.2-0.7-0.6c-2.3 6.9-2.4 13.1-0.2 13.8 0.1 0.1 0.4 0.2 0.4 0.2l73.7 25.9 4-12.2z"/><path fill-rule="evenodd" class="c" d="m724.3 120.8l-74.8-26.3c-1.4-0.5-2.1-2.4-2-5.5 0-2.7 0.7-6.1 1.9-9.6 1.2-3.4 2.7-6.5 4.3-8.7 1.8-2.5 3.5-3.6 5-3.1l0.4 0.2 74.6 24.6zm-66.4-51.7c-0.5 0-1.6 0.6-3 2.5-1.5 2.1-3 5.1-4.1 8.4-1.1 3.3-1.8 6.5-1.9 9.1 0 2.7 0.6 3.8 1.1 4l0.4 0.1 73 25.7 8.4-25.4-73.7-24.4q0 0-0.2 0z"/><path class="H" d="m732.9 107.9c-2.5 7.4-6.4 12.8-8.6 12.1-2.2-0.8-1.9-7.4 0.6-14.8 2.6-7.4 6.4-12.8 8.6-12.1 2.2 0.8 1.9 7.4-0.6 14.8z"/><path fill-rule="evenodd" class="c" d="m724.8 120.8q-0.4 0-0.7-0.1c-1.4-0.5-2.1-2.4-2-5.6 0.1-2.9 0.9-6.5 2.1-10.2 2.4-7 6.5-13.6 9.5-12.5 3.1 1 2.3 8.7-0.1 15.7-1.2 3.7-2.8 7-4.5 9.3-1.6 2.3-3 3.4-4.3 3.4zm8.2-27c-1.4 0-4.8 4.2-7.3 11.6-1.2 3.6-2 7-2.1 9.7-0.1 2.8 0.5 4 1 4.2 0.5 0.2 1.7-0.5 3.3-2.7 1.5-2.3 3.1-5.4 4.3-8.9 2.6-7.8 2.4-13.4 1.1-13.9q-0.1 0-0.3 0z"/><path class="E" d="m652 205.5c3.2 1.1 6.7-0.6 7.8-3.9l15.7-46c1.1-3.3-0.6-6.8-3.8-7.9-3.3-1.1-6.8 0.6-7.9 3.8l-15.7 46.1c-1.1 3.2 0.6 6.8 3.9 7.9z"/><path fill-rule="evenodd" class="c" d="m654 206.6q-1.2 0-2.3-0.4c-3.6-1.2-5.6-5.2-4.4-8.8l15.7-46.1c1.3-3.6 5.3-5.6 8.9-4.4 3.7 1.3 5.6 5.3 4.4 8.9l-15.7 46.1c-0.6 1.7-1.9 3.2-3.6 4-0.9 0.5-2 0.7-3 0.7zm-1.8-1.8c2.8 0.9 5.9-0.6 6.9-3.4l15.7-46.1c1-2.8-0.6-5.9-3.4-6.9-2.8-1-5.9 0.6-6.9 3.4l-15.7 46.1c-0.9 2.8 0.6 5.9 3.4 6.9z"/><path class="i" d="m414.6 213c0 0-1.3 4.6 8.1 8.3 6.9 2.7 17.2 3 31.4 7.5 14.2 4.5 28 2.7 41.4 4.5 13.4 1.9 22 13.1 22 13.1 0 0 2.6 51.1 0.4 72.7-2.2 21.7-40.6 97.4-40.6 112.9 0 15.4 3.5 1.9 2.7 23.3-0.7 21.5-4.7 14.7-40.4 15.5-35.8 0.7-59.2 0.3-75.5-6.4-9.5-3.8 0.1-1.5-4.7-26.9-5.4-28.6-7.8-134.2-8.3-155.1-0.5-20.9 23.9-69.7 63.5-69.4z"/><path class="w" d="m480 388.2c0 0-40.6-21.6-42.3-71.3-5.6 27.3 13.9 69.1 42.3 71.3z"/><path class="w" d="m472.3 408.7c0 0-40.7-21.6-42.4-71.3-5.6 27.3 13.9 69.1 42.4 71.3z"/><path class="w" d="m388.9 275.8c-1.8-20.1 0.8-40.1 6.8-59-28.3 11.8-45 48.2-44.6 65.6 0.5 20.9 2.9 126.5 8.3 155.1 4.8 25.4-4.8 23.1 4.7 26.9 5.1 2.1 10.9 3.6 17.6 4.6-1.2-63.9 16.7-126.9 7.2-193.2z"/><path class="w" d="m410.3 212.4c0 0-5.8 18.4-3.8 29.9 2 11.6 5.9 17.7 5.9 17.7l-11.9 13.8c0 0-9.7-22.1-7.8-35.9 1.8-13.8 17.6-25.5 17.6-25.5z"/><path class="w" d="m494.1 233.5c0 0-38.6 5.8-60.7 37.1-22.2 31.3-21.5 96.5-19.3 114.1 2.2 17.7 41.9 30.8 57.1 14.9 2.9 17-16.6 26.5-16.6 26.5l-58.5-10.1c0 0-7.1-44.1-4.8-60.3 2.3-16.2 7.6-60.3 21.1-81.9 13.6-21.6 67.6-45.8 81.7-40.3z"/><path class="w" d="m493.2 242.3c0 0-23.5 24.2-19.9 46 3.6 21.8-7.9 38-4.1 61 3.9 23.1 13.2 23.9 13.5 26.9-4.9 12.8-19.9 38.1-19.9 38.1h21.5c0 0 35.3-81.6 34.9-105.1-0.5-23.5-26-66.9-26-66.9z"/><path fill-rule="evenodd" class="c" d="m467.3 472c-2.1 0-4.6 0-7.4-0.2-5.3-0.1-11.9-0.4-20.3-0.2-37.9 0.8-60 0-75.8-6.4-5.1-2-5.3-2.8-4.6-6.4 0.6-3.1 1.7-8.8-0.6-21.2-2.4-12.8-5.8-49.8-8.3-153.7v-1.5c-0.3-13.1 8.7-36.1 24.4-52 11.7-11.9 25.4-18.2 39.5-18.2q0.2 0 0.4 0h1.1l-0.3 1c0 0.2-0.7 4 7.6 7.3 3.2 1.2 7.2 2 11.8 2.8 5.3 1 11.9 2.3 19.6 4.7 8.8 2.8 17.6 3.1 26.1 3.5 4.9 0.1 10.1 0.3 15.1 1 13.6 1.9 22.2 12.9 22.5 13.4l0.2 0.2v0.2c0 0.5 2.6 51.5 0.4 72.9-1.1 11.1-11.5 36-21.6 60-9.7 23.3-19 45.3-19 52.8 0 6.7 0.7 7.6 1.3 8.6 1 1.4 1.9 2.8 1.5 14.8-0.3 7.4-0.9 11.8-3.5 14.2-2.1 2-5.2 2.4-10.1 2.4zm-21.9-2.1c5.8 0 10.6 0.1 14.6 0.3 8.9 0.3 13.8 0.5 16.3-1.8 2.1-2 2.7-6.3 2.9-13.1 0.4-11.5-0.4-12.7-1.2-13.8-0.8-1.2-1.5-2.3-1.5-9.5 0-7.8 9.3-30 19.1-53.5 10-23.9 20.4-48.6 21.5-59.5 2.1-20.5-0.2-68.3-0.4-72.3-1.3-1.5-9.4-10.9-21.3-12.6-5-0.6-9.8-0.8-15-1-8.6-0.3-17.5-0.6-26.5-3.5-7.6-2.4-13.9-3.6-19.4-4.6-4.7-0.9-8.8-1.7-12.1-3-7.4-2.9-8.6-6.4-8.7-8.1-13.5 0.1-26.6 6.2-37.8 17.6-15.4 15.7-24.3 38.1-24 50.8l0.1 1.5c2.4 103.8 5.8 140.8 8.2 153.5 2.4 12.8 1.3 18.6 0.6 21.8-0.6 2.9-0.6 2.9 3.6 4.6 15.5 6.3 37.5 7 75.1 6.2q3.1 0 5.9 0z"/><path class="z" d="m637.8 209.2c0 0 0.6-1.6 1.4-5.3 0.8-3.8-1.3-6.8 0-13.6 1.4-6.8 3.7-10.2 5.1-14.2 1.4-3.9 7.8-7.5 9.1-11.4 1.3-3.8 1.2-10.1 3.8-9.8 2.7 0.2 4.5 2.2 3.9 9-0.5 6.8-4.3 10.6-8.4 13.2 8.3-4.6 15.1-9.5 18.3-11.3 3.2-1.8 6-2.3 8.5 1.2 2.6 3.5-5.9 8.9-6 9.6-0.1 0.7 3.5 0.3 4.4 3.3 1 3-1.4 5.6 0.5 7 1.9 1.4 2.9 2.7 2.3 6.2-0.6 3.4 1.6 3.4 0.6 7.6-1.1 4.2-4.8 9.3-10.3 13.1-5.5 3.8-7.8 7.8-8.2 8.6-0.3 0.9-25-13.2-25-13.2z"/><path class="B" d="m680.7 193.1c0.6-3.5-0.4-4.8-2.3-6.2-1.9-1.4 0.5-4-0.5-7-0.9-3-4.5-2.6-4.4-3.3 0.1-0.7 8.6-6.1 6-9.6-2.5-3.5-5.3-3-8.5-1.2-2 1.1-5.2 3.3-9.2 5.9q0 0 0 0c0 0 7-1.5 8.6 4.9 1.6 6.4 5.2 3 4.6 10.3 3.5 3.8 2.9 6.5 3.1 9.2 0.1 2.7 3.4 2.5 1.3 8.9 0.9-1.5 1.5-2.9 1.9-4.3 1-4.2-1.2-4.2-0.6-7.6z"/><path class="y" d="m667.5 211.2c-17.2-13.4-26.1-21.8-21.4-38-0.8 1-1.5 2-1.8 2.9-1.4 4-3.7 7.4-5.1 14.2-1.3 6.8 0.8 9.8 0 13.6-0.8 3.7-1.4 5.3-1.4 5.3 0 0 24.7 14.1 25 13.2 0.3-0.6 1.9-3.3 5.3-6.3 0.5-2.7 0.5-4.9-0.6-4.9z"/><path fill-rule="evenodd" class="c" d="m662.9 223.2c-0.7 0-4-1.1-25.5-13.3l-0.5-0.3 0.2-0.6c0 0 0.6-1.7 1.4-5.3 0.3-1.5 0.1-2.9-0.2-4.5-0.3-2.2-0.6-5 0.2-9.1 0.9-4.7 2.3-7.8 3.5-10.6 0.6-1.2 1.1-2.4 1.6-3.6 0.7-2.2 2.8-4.2 4.8-6.1 1.8-1.7 3.7-3.6 4.3-5.3 0.4-1.2 0.7-2.7 0.9-4.1 0.6-3.2 1.2-6.3 3.5-6.3q0.1 0 0.2 0c3.7 0.4 5.1 3.5 4.6 9.9-0.3 3.7-1.5 6.5-3.1 8.6 2.6-1.6 5-3.1 6.9-4.4 2.1-1.3 3.7-2.4 4.9-3.1 2.8-1.5 6.4-2.8 9.5 1.5 2.4 3.2-2.3 7.2-4.8 9.3q-0.3 0.3-0.5 0.5c1.1 0.3 3.2 0.9 3.9 3.2 0.5 1.6 0.2 3-0.1 4.2-0.2 1.4-0.3 2 0.3 2.4 2.1 1.6 3.2 3.2 2.6 7-0.3 1.4 0 2.1 0.3 2.9 0.4 1.1 0.8 2.3 0.2 4.8-1.1 4.6-5.2 9.8-10.6 13.5-6 4.2-7.8 8.3-7.8 8.3l-0.2 0.4-0.3 0.1q-0.1 0-0.2 0zm-24.1-14.3c8.2 4.7 20.9 11.7 23.6 12.7 0.9-1.6 3.4-5.1 8.1-8.4 5.1-3.6 9-8.5 10-12.6 0.5-2.1 0.2-2.9-0.2-3.9-0.3-0.9-0.7-2-0.4-3.8 0.5-3-0.2-4.1-1.9-5.4-1.5-1-1.2-2.6-0.9-4 0.2-1.1 0.4-2.2 0.1-3.4-0.5-1.6-1.9-1.9-3-2.2-0.7-0.2-1.6-0.5-1.5-1.4 0.1-0.5 0.5-0.8 1.6-1.8 2-1.7 6.1-5.2 4.6-7.2-2-2.7-4-3-7.6-1-1.1 0.6-2.7 1.7-4.7 3-3.5 2.3-8.2 5.3-13.5 8.2l-0.8-1.3c5.1-3.2 7.6-7.1 8.1-12.6 0.6-7.8-2.1-8-3.2-8.1-1-0.1-1.6 2.6-2 5-0.3 1.5-0.6 3-1.1 4.3-0.7 2.1-2.7 4-4.7 5.9-1.8 1.8-3.7 3.7-4.4 5.5-0.4 1.3-1 2.5-1.5 3.7-1.3 2.7-2.6 5.7-3.5 10.3-0.8 3.8-0.4 6.4-0.1 8.6 0.2 1.8 0.4 3.3 0.1 5-0.5 2.5-1 4.1-1.2 4.9z"/><path class="i" d="m502.4 235.3c0 0 4.7 2 18.4 9.5 13.7 7.5 20.2 6.7 29.5 7.3 9.2 0.6 28.1-0.1 35.1 0.6 7 0.7 22.9-9.6 26.8-15.8 3.9-6.2 18.2-18.2 18.2-18.2l8.2-15.2c0 0 10.3-1 19.3 6.6 8.9 7.7 7.5 14.9 7.5 14.9l-5.9 13.7c0 0-1.1 13.4-3.8 23.5-2.8 10-24.2 31.4-27.8 38.4-3.6 6.9-13.9 10.5-27.5 13-13.6 2.5-34.6 6.1-47.2 5.4-12.5-0.7-30.1 3.7-37.4 3.6-7.4 0-26.8-3.8-33.9-33.6-7.1-29.7 7.3-60.5 20.5-53.7z"/><path class="w" d="m549.5 307.9c-26.9-10.7-22.5-12.6-35.6-22.1-13.1-9.5-17.8-33.4-17.8-33.4-1.7 17.1 16.7 47 30.3 55.1-16.5-3.1-29.6-15.5-35.6-22 20.9 24.9 14.7 26.2 36.6 35.8 8-1.2 17.9-2.7 25.8-2.3 9.1 0.5 22.6-1.2 34.5-3.2 1-0.6 1.5-1 1.5-1 0 0-12.8 3.8-39.7-6.9z"/><path class="w" d="m490.8 285.5c-1.1-1.3-2.2-2.6-3.4-4 0 0 1.2 1.6 3.4 4z"/><path class="w" d="m644 219.9c3.4-4.4 9.4-8.4 12.9-10.5-8.7-6.8-18.3-5.9-18.3-5.9l-8.2 15.2c0 0-14.3 12-18.2 18.2-3.9 6.2-19.8 16.5-26.8 15.8-7-0.7-25.9 0-35.1-0.6-5.7-0.4-10.3-0.2-16.1-1.7 13.6 9.1 30.9 17 36.2 15.1 6.8-2.6 14.7 5.5 15.8 24.9 0 0 8.1-11.5 4.2-29-0.4-0.6 7.3 5.3 10.3 16.4 5.7-11.9-3.4-17.5 3.4-17.7 6.8-0.2 12.5-10.5 18.8-13.5 6.2-3 6.5-9.1 12.1-15.5 5.5-6.4 15.1-3.6 21.9 2.7-1.8-4.7-7.1-9.9-12.9-13.9z"/><path class="c" d="m630.2 217.9c3.1-0.5 6-0.3 8.9 0.3 2.9 0.7 5.7 1.9 8.1 3.6 2.4 1.7 4.5 3.7 6.2 6 1 1.2 1.6 2.5 2.4 3.7 0.7 1.3 1.3 2.6 1.9 3.9-0.7-1.3-1.3-2.6-2.1-3.8-0.8-1.2-1.5-2.4-2.5-3.5-1.8-2.2-4-4.1-6.4-5.6-2.4-1.5-5.1-2.5-7.8-3-2.8-0.5-5.7-0.5-8.3 0z"/><path class="c" d="m658.4 209.5c-9.1-7.8-19.5-6.8-19.9-6.8l-0.4 0.1-8.3 15.4c-1.5 1.3-14.5 12.3-18.2 18.3-3.9 6.1-19.6 16.1-26.1 15.4-3.6-0.3-10.3-0.3-17.4-0.3h-0.2c-6.5 0.1-13.2 0-17.6-0.3q-1.9-0.1-3.7-0.2c-7.4-0.3-13.8-0.6-25.4-7-13.3-7.2-18.1-9.4-18.5-9.5-3.5-1.8-7.1-1.3-10.7 1.5-1.6 1.3-3.2 3.1-4.6 5.2 0 0 5.4-6.2 11.2-6.2q1.7 0 3.4 0.9h0.1c0 0 4.8 2.1 18.3 9.5 12 6.6 18.6 6.9 26.2 7.2q1.7 0.1 3.6 0.2c4.5 0.3 11.2 0.3 17.7 0.3 7.1-0.1 13.9 0 17.5 0.3 7.5 0.7 23.7-10.2 27.5-16.2 3.8-6 17.9-17.9 18-18l8.2-15.1c1.9 0 10.7 0 18.3 6.5 8.4 7.2 7.3 13.8 7.3 14l-6 13.6v0.3c0 0.1-1.1 13.5-3.8 23.4-1.6 6-10.5 16.6-17.6 25.1-4.6 5.6-8.6 10.4-10.1 13.1-3 5.9-11.3 9.8-26.9 12.7-14.3 2.6-34.7 6-47 5.3-7.6-0.4-17.3 1-25 2.2-5.2 0.8-9.6 1.5-12.5 1.5-5.1-0.1-20.1-1.8-29-21 0 0 5.6 21.7 29 22.5h0.1c2.9 0 7.5-0.7 12.7-1.4 7.6-1.2 17.1-2.6 24.6-2.2 12.5 0.7 33-2.8 47.4-5.4 16.1-3 24.7-7.1 28-13.5 1.4-2.6 5.3-7.3 9.9-12.8 7.6-9.1 16.2-19.4 17.9-25.7 2.6-9.5 3.7-22.1 3.8-23.6l6-13.7c0-0.3 1.4-7.7-7.8-15.6z"/><path class="I" d="m354.4 760.9c0 0-4.7 27.4-2.1 39.9 14.8 6.7 28.7 2.9 33.7 0 0-4.5 0.5-6.1 0.5-6.1 0 0 13.7 5.4 26.1 4.1 12.5-1.2 24.3-4.1 29.1-11.1 4.7-7-4.5-14.1-14.1-13.3-9.5 0.9-15.3 1.5-22.3-3-7-4.4-9.6-12.1-9.6-12.1z"/><path class="J" d="m441.8 787.4c4.3-6.9-4.7-13.8-14.2-13-9.5 0.9-15.3 1.5-22.3-3-5.6-3.5-8.3-9.1-9.2-11.2 4.5 22.1 25 28.1 45.7 27.2z"/><path class="c" d="m442.8 782.4c-2.7 3.6-11.3 13.2-24.6 13.1-16.4 0-29.8-3.8-33.4-4.6-3.6-0.8-8.7 0.1-18.1 0.8-7.2 0.5-12.2-1.6-15.1-3.9-0.1 4.9 0 9.5 0.7 13 14.8 6.7 28.7 2.9 33.7 0 0-4.5 0.5-6.1 0.5-6.1 0 0 13.7 5.4 26.1 4.1 12.5-1.2 24.3-4.1 29.1-11.1 1.2-1.8 1.5-3.6 1.1-5.3z"/><path fill-rule="evenodd" class="c" d="m369.5 805.3c-5.2 0-11.2-1-17.5-3.8l-0.3-0.2-0.1-0.4c-2.6-12.4 1.9-39 2.1-40.1l0.1-0.6 42.5-1.7 0.2 0.6c0 0 2.5 7.4 9.2 11.7 6.6 4.2 12.1 3.7 21.1 2.9h0.8c6.2-0.6 12.6 2.1 15.1 6.4 1.5 2.6 1.4 5.4-0.4 8-4.2 6.2-13.9 9.9-29.6 11.5-10.8 1.1-22.4-2.7-25.6-3.8-0.2 0.8-0.4 2.4-0.3 5v0.4l-0.4 0.2c-2.6 1.5-8.8 3.9-16.9 3.9zm-16.5-5.1c13.2 5.9 26.5 3.3 32.2 0.1 0-4.2 0.5-5.8 0.5-5.8l0.3-0.8 0.8 0.3c0.1 0 13.7 5.3 25.8 4.1 15.2-1.6 24.5-5.1 28.4-10.8 1.4-2.1 1.6-4.4 0.3-6.4-2.1-3.7-8-6.2-13.6-5.7l-0.8 0.1c-9 0.8-15 1.3-22-3.2-6.2-3.9-8.9-10.1-9.7-12l-40.1 1.6c-0.7 4.1-4.2 27.2-2.1 38.5z"/><path class="K" d="m352 415.1c0 0-10 46.9-0.8 77.2 5.1 16.9 16.4 37.5 21.9 58.5 1.7 6.6-2.6 15-1.6 21.9 0.8 5.6 5.6 8.2 5.7 14 0.1 5-4.7 8.5-5.3 13.7-0.5 4.4 4.6 11.2 3.5 16.4-1.1 6.1-7.7 10.6-9.5 18-3.7 15.1-8.9 35.5-9.9 54.9-2.4 44.3-7 64.9-6.6 74.3 6.9 10.1 42.7 12.5 53.5 4 12-74 33.1-150.3 34.9-181.2 1.8-30.9 3.9-158.8 3.9-158.8z"/><path class="L" d="m363.4 498.1c0 0-10.8-4.3-10.3-29.1 0.6-24.8-0.2-32.1 25.1-32.2 25.3 0 61.3 7.7 87.1 0.6-53-5.1-113.6-18.9-113.6-18.9 0 0-4.6 27.5-4.2 44.8 0.4 17.3 2.6 27.4 5.1 31 2.5 3.5 10.8 3.8 10.8 3.8z"/><path class="L" d="m383.4 596.2c5.6 0.6 18.1-1.7 23.7-6.6-7.7 3.9-15.8 2.8-20.8 1.6-1.3-0.3-4.2-6.5-4.4-16.2-0.3-9.7-0.2-24.3 12.9-27.5 0 0-13.4-1.1-19.7-10.7 0 0 9.7 0.5 21.6-4.4-2.2 0.4-13.3 1.2-20.9-1.8-8.8-3.6-12.5-15.3-10.5-18.5 2-3.3 23.6 1.2 34.3-12.5-37.8 9.5-48.9-12.2-50.3-15.4 0.5 2.8 1.1 5.5 1.9 8.1 5.1 16.9 16.4 37.5 21.9 58.5 1.7 6.6-2.6 15-1.6 21.9 0.8 5.6 5.6 8.2 5.7 14 0.1 5-4.7 8.5-5.3 13.7-0.5 4.4 4.6 11.2 3.5 16.4-1.1 6.1-7.7 10.6-9.5 18-3.7 15.1-8.9 35.5-9.9 54.9-2.4 44.3-7 64.9-6.6 74.3 2.6 3.8 9.2 6.5 17.1 7.9 2.4-24.9 8.1-82.5 12.4-105.5 5.4-29.8 7-41.4 16.1-47.5-10.1 3.7-16.7-5.7-17.1-9.4-0.4-3.6-0.1-14 5.5-13.3z"/><path class="l" d="m430.5 445.3c-0.6 32.1-2.3 122.2-3.7 147.5-1.8 30.6-27.1 80.9-34.6 179.4 4.5-0.9 8.3-2.2 10.7-4.2 12-74 33.1-150.3 34.9-181.2 1.4-23.8 3-105.4 3.6-141.5z"/><path class="c" d="m377.7 584.6c1.5 1.8 3.6 3.3 5.7 4.5 2.2 1.2 4.5 2.1 7 2.5 2.4 0.5 4.9 0.7 7.4 0.5 1.3-0.1 2.5-0.4 3.8-0.6 1.2-0.2 2.4-0.6 3.6-0.9-1.2 0.3-2.4 0.8-3.6 1.1-1.2 0.3-2.5 0.7-3.7 0.8-2.5 0.4-5.1 0.3-7.7 0-2.5-0.4-5-1.2-7.3-2.3-2.4-1.1-4.5-2.5-6.5-4.5z"/><path class="c" d="m376.2 614.2c0.9 1.2 2.3 2.3 3.6 3.1q2.2 1.4 4.6 2.1c1.6 0.4 3.3 0.7 5 0.7 1.7 0.1 3.4-0.1 5.1-0.3-1.7 0.4-3.4 0.7-5.1 0.7-1.7 0.2-3.5 0-5.2-0.3-1.7-0.4-3.4-0.9-5-1.8-1.6-0.8-3-1.8-4.3-3.2z"/><path fill-rule="evenodd" class="c" d="m380.4 774c-4.1 0-8.2-0.4-11.9-0.9-9.8-1.5-17-4.7-19.7-8.6l-0.1-0.2v-0.2c-0.2-4.1 0.5-10.1 1.6-19.2 1.4-11.9 3.5-29.8 4.9-55.3 1-18.8 5.9-38.9 9.6-53.5l0.3-1.5c1-3.9 3.2-7 5.3-9.9 1.9-2.7 3.7-5.2 4.3-8 0.5-2.6-0.7-5.8-1.8-8.8-1.1-2.8-2-5.4-1.8-7.6 0.3-2.6 1.6-4.8 2.8-6.9 1.3-2.2 2.6-4.3 2.5-6.7 0-2.9-1.3-4.9-2.7-7.1-1.3-2-2.6-4-3-6.8-0.4-3.3 0.3-7 1-10.6 0.7-4 1.5-7.9 0.6-11.2-3.1-11.7-7.9-23.3-12.6-34.4-3.6-8.6-7-16.7-9.3-24.1-9.1-30.1 0.7-77.1 0.8-77.5l0.2-0.7 91.1 13v0.7c0 1.3-2.1 128.3-3.9 158.8-1 16.2-7.3 45.3-14.6 78.9-6.8 31.5-14.6 67.1-20.3 102.4v0.3l-0.3 0.2c-4.7 3.8-13.8 5.4-23 5.4zm-30.2-10.2c2.6 3.5 9.3 6.3 18.5 7.7 11.7 1.8 26.9 1 33.5-3.9 5.7-35.3 13.5-70.8 20.3-102.2 7.3-33.6 13.6-62.6 14.5-78.6 1.7-29.4 3.7-148 3.9-158.2l-88.3-12.6c-1.2 6-9.1 48.4-0.7 76.1 2.3 7.3 5.7 15.4 9.2 23.9 4.7 11.2 9.6 22.8 12.7 34.6 1 3.7 0.2 7.9-0.6 11.9-0.7 3.4-1.4 7-0.9 10.1 0.3 2.4 1.5 4.3 2.7 6.2 1.4 2.2 2.9 4.6 3 7.9 0 2.8-1.4 5.2-2.7 7.5-1.2 2-2.4 4-2.6 6.2-0.2 1.9 0.7 4.3 1.6 6.9 1.2 3.3 2.5 6.6 1.9 9.7-0.6 3.1-2.5 5.7-4.5 8.6-2 2.8-4.1 5.7-5 9.4l-0.4 1.5c-3.6 14.6-8.6 34.5-9.6 53.2-1.3 25.5-3.5 43.5-4.9 55.4-1 8.8-1.7 14.7-1.6 18.7z"/><path class="c" d="m387.7 772.8c0-0.4-0.1-37.2 6.3-69.4 1.3-6.4 2.5-12.9 3.7-19.3 5-26.2 9.2-48.9 14.6-56.8 6.4-9.6 6-47.3 6-47.7h1.1c0.1 1.6 0.4 38.5-6.2 48.3-5.2 7.8-9.7 31.4-14.4 56.4-1.2 6.4-2.5 12.9-3.7 19.4-6.4 32-6.3 68.7-6.3 69.1z"/><path class="I" d="m415.7 774.1c0 0-4.8 28-2.2 40.7 15 6.8 29.3 2.9 34.3 0 0-4.6 0.5-6.2 0.5-6.2 0 0 14 5.5 26.7 4.2 12.7-1.3 24.7-4.2 29.6-11.4 4.9-7.1-4.5-14.3-14.3-13.5-9.7 0.8-15.6 1.5-22.7-3.1-7.2-4.5-9.8-12.3-9.8-12.3z"/><path class="I" d="m415.7 774.1c0 0-4.8 28-2.2 40.7 15 6.8 29.3 2.9 34.3 0 0-4.6 0.5-6.2 0.5-6.2 0 0 14 5.5 26.7 4.2 12.7-1.3 24.7-4.2 29.6-11.4 4.9-7.1-4.5-14.3-14.3-13.5-9.7 0.8-15.6 1.5-22.7-3.1-7.2-4.5-9.8-12.3-9.8-12.3z"/><path class="J" d="m490.3 787.9c-9.7 0.8-15.6 1.5-22.7-3.1-7.2-4.5-9.8-12.3-9.8-12.3l-8.6 0.3c2.4 17 21.9 22.8 37.8 26.8 3.2 1.1 4.9 4.8 5.8 9.7 5.2-1.8 9.4-4.3 11.8-7.9 4.9-7.1-4.5-14.3-14.3-13.5z"/><path class="c" d="m475 812.8c12.7-1.3 24.7-4.2 29.6-11.4 1.3-1.8 1.6-3.6 1.2-5.3-1.2 3.1-4.1 6.5-11 9.2-9.7 3.9-35.1 0.5-42.4-1.6-7.2-2.2-14.1 1.1-28.8-0.8-6-0.8-8.3-4-10.6-5.2-0.4 6.3-0.4 12.6 0.5 17.1 15 6.8 29.3 2.9 34.3 0 0-4.6 0.5-6.2 0.5-6.2 0 0 14 5.5 26.7 4.2z"/><path fill-rule="evenodd" class="c" d="m431 819.4c-5.3 0-11.4-1-17.8-3.9l-0.4-0.2v-0.4c-2.7-12.7 1.9-39.8 2.1-40.9l0.1-0.6 43.4-1.7 0.1 0.5c0.1 0.1 2.6 7.6 9.5 12 6.7 4.3 12.3 3.8 21.5 3l0.8-0.1c6.4-0.5 12.8 2.2 15.4 6.6 1.5 2.6 1.4 5.5-0.4 8.2-4.3 6.2-14.2 10-30.2 11.7-11.1 1.1-22.9-2.8-26.2-4-0.1 0.9-0.3 2.5-0.3 5.2v0.4l-0.4 0.2c-2.5 1.6-8.9 4-17.2 4zm-16.8-5.2c13.5 6 27 3.3 32.9 0.1 0-4.3 0.5-5.9 0.5-6l0.3-0.7 0.7 0.3c0.2 0 14 5.4 26.3 4.1 15.6-1.6 25.1-5.2 29.1-11 1.4-2.2 1.6-4.4 0.3-6.5-2.2-3.8-8.2-6.3-13.9-5.8l-0.8 0.1c-9.2 0.8-15.3 1.3-22.5-3.3-6.2-4-9.1-10.3-9.8-12.2l-41 1.6c-0.6 4.1-4.3 27.8-2.1 39.3z"/><path class="K" d="m391.8 426.3c0 0-9.1 43.4 1.8 73.1 6.2 16.6 18.6 36.6 25.3 57.2 2.1 6.4-1.7 15.1-0.3 21.9 1.1 5.6 6 7.9 6.5 13.7 0.4 5-4.3 8.7-4.5 13.9-0.2 4.4 5.2 11 4.5 16.2-0.8 6.1-2.5 9.7-3.9 17.2-2.9 15.3-6.2 34.6-6.4 56.7-0.5 44.3-1.2 69.8-0.2 79.2 7.5 9.7 40.8 8 51.2 3.3 7.7-74.6 25.3-153.6 25.3-184.5 0-31-9-161.2-9-161.2z"/><path class="L" d="m391.7 426.6c-0.2 1.1-0.9 5-1.7 10.7 23.9 1.5 53.3 6.1 75.3 0.1-25.3-2.5-52.3-6.9-73.6-10.8z"/><path class="L" d="m442.5 534.1q-0.2 0.1-0.4 0.2c0.4-0.1 0.6-0.2 0.4-0.2z"/><path class="L" d="m433.8 598.9c5.6 0.2 17.9-3.1 23.2-8.4-7.5 4.5-18.5 4.9-19.8 4.8-1.4-0.2-5.5-7.7-6.5-17.4-1-9.6-2.2-24.1 10.7-28.4 0 0-13.4 0-20.5-9.1 0 0 9.7-0.3 21.2-6.1-2.2 0.5-13.2 2.2-21-0.2-9.1-2.8-13.6-14.2-11.9-17.6 1.7-3.4 23.6-0.6 33.3-15.1-39.3 13.2-51.3-11-51.7-11.8 0.8 3.4 1.7 6.7 2.8 9.8 6.2 16.6 18.6 36.6 25.3 57.2 2.1 6.4-1.7 15.1-0.3 21.9 1.1 5.6 6 7.9 6.5 13.7 0.4 5-4.3 8.7-4.5 13.9-0.2 4.4 5.2 11 4.5 16.2-0.8 6.1-2.5 9.7-3.9 17.2-2.9 15.3-6.2 34.6-6.4 56.7-0.5 44.3-1.2 69.8-0.2 79.2 2.7 3.5 8.8 5.5 16 6.4 0.3-19.7 1.5-86.9 4.2-112.5 3.1-30.2 3.8-41.9 12.4-48.6-9.8 4.5-17.2-4.4-17.8-8-0.6-3.7-1.2-14 4.4-13.8z"/><path class="l" d="m491.1 594.2c0-31-9-161.2-9-161.2l-12.8-1c0.8 4.6 1.6 11.7 1.1 20.7-1.1 16.3-2.3 48.4 0.2 65.5 2.4 17 5.9 52.4 5.6 61.5-0.4 9-2.7 32.7-7.4 53.6-4.7 20.9-8.8 51.4-11.1 69.8-2.4 18.5-6.5 69-6 78.7 5.9-0.6 11-1.7 14.1-3.1 7.7-74.6 25.3-153.6 25.3-184.5z"/><path class="c" d="m425.2 589.6c2.3 1.6 5.1 2.9 8 3.7 2.8 0.8 5.8 1.3 8.8 1.2 2.9-0.1 5.9-0.5 8.8-1.4 1.4-0.4 2.8-1.1 4.2-1.7 1.4-0.6 2.7-1.4 4-2.1-1.3 0.8-2.6 1.6-3.9 2.3-1.4 0.6-2.7 1.4-4.2 1.8-2.8 1.2-5.9 1.7-8.9 1.9-3.1 0.3-6.2-0.1-9.2-0.8-3-0.7-5.9-1.8-8.6-3.5z"/><path class="c" d="m424.8 616.3c1.4 1.5 3.2 2.8 5 3.8 1.9 1 3.9 1.7 6 2 2.1 0.3 4.3 0.3 6.5-0.1 1-0.1 2.1-0.5 3.1-0.8 1.1-0.3 2-0.8 3.1-1.2-1 0.5-2 1-3 1.4-1.1 0.4-2.1 0.8-3.2 1-2.1 0.6-4.3 0.7-6.6 0.5-2.2-0.2-4.4-0.8-6.4-1.7-2.1-0.9-4-2.1-5.7-3.8z"/><path class="c" d="m482.9 432.9v-0.7l-7.4-0.5v1.6l5.9 0.4c0.7 10.2 8.9 131.1 8.9 160.5 0 15.8-4.7 44.9-10.2 78.6-5.3 32.5-11.3 69.3-15 105.3-11 4.6-42.6 5.8-49.7-3-0.7-7.1-0.5-23.2-0.2-49.6q0.2-13 0.4-29.3c0.2-20.9 3.2-39.5 6.3-56.5 0.7-3.5 1.4-6 2-8.5 0.8-2.8 1.5-5.4 2-8.8 0.4-3-1.1-6.3-2.5-9.5-1.1-2.5-2.1-4.9-2-6.8 0.1-2.2 1.2-4.3 2.2-6.3 1.2-2.4 2.5-4.8 2.3-7.7-0.3-3.3-1.9-5.5-3.5-7.7-1.3-1.9-2.6-3.6-3-6.1-0.7-3-0.2-6.6 0.3-10.1 0.5-4 1.1-8.3-0.1-11.8-3.8-11.7-9.3-23-14.7-33.9-4-8.3-7.9-16.1-10.5-23.4-7.1-19.1-5.7-44.3-3.9-59.4 0 0-8 30 2.4 60 2.6 7.3 6.6 15.2 10.6 23.5 5.4 10.8 10.9 22.1 14.6 33.6 1.1 3.3 0.6 7.1 0 11.2-0.5 3.6-1 7.4-0.3 10.7 0.6 2.7 2 4.7 3.4 6.6 1.5 2.1 2.9 4 3.1 6.9 0.2 2.4-0.9 4.6-2.1 6.9-1.1 2.1-2.3 4.3-2.4 7-0.1 2.2 1 4.7 2.2 7.4 1.3 3 2.7 6.1 2.3 8.7-0.4 3.3-1.1 5.7-1.9 8.6-0.6 2.4-1.3 5.1-2 8.6-3.2 17.1-6.2 35.8-6.4 56.8q-0.2 16.3-0.3 29.3c-0.4 26.7-0.6 42.9 0.2 50v0.2l0.1 0.2c4.1 5.3 15.4 7.3 26.6 7.3 10.4 0 20.7-1.7 25.5-3.8l0.5-0.2v-0.4c3.7-36.2 9.7-73.1 15-105.7 5.5-33.8 10.3-63 10.3-78.9 0-30.6-8.9-160-9-161.3z"/><path class="K" d="m459.5 225.8c-15.3 1-47.3 20.3-56.2 41.4-6.6-36.7 5.7-54.3 5.7-54.3 0 0-18.3-5.2-23.5 9.5-5.2 14.6-1.1 65.3-1.1 65.3-6.1 29.3-12.8 131.5-12.8 131.5 0 0 10.2 7.1 37.4 7.1-11.9-16.9 2.7-128.3 2.7-128.3 21.8-62.1 79.4-65.2 79.4-65.2 0 0-16.2-8.1-31.6-7z"/><path class="l" d="m406.6 212.4c-3.3 4.7-14.5 24.5-6.3 62.4 4.3-10.2 13.3-22.1 23.2-31.8-8.8 7-16.5 15.4-20.2 24.2-6.6-36.7 5.7-54.3 5.7-54.3 0 0-0.9-0.3-2.4-0.5z"/><path class="l" d="m482.5 229.4c-14.7 2.9-58.7 15.7-76.8 67.1 0 0-14.6 111.4-2.7 128.3-9.8 0-17.4-1-23.1-2.2 5.9 1.8 15.3 3.7 29.1 3.7-11.9-16.9 2.7-128.3 2.7-128.3 21.8-62.1 79.4-65.2 79.4-65.2 0 0-3.4-1.7-8.6-3.4z"/><path fill-rule="evenodd" class="c" d="m410.5 427h-1.5c-27.1 0-37.5-6.9-37.9-7.2l-0.3-0.2v-0.5c0.1-1 6.8-102.2 12.9-131.4-0.3-3.3-4-51.2 1.1-65.6 5.3-15.2 24.2-10 24.4-10l1.1 0.3-0.6 0.9c-0.2 0.2-11.6 17.1-6.1 51.3 10.3-20.4 40.9-38.6 55.9-39.6 15.4-1 31.3 6.8 31.9 7.1l2.7 1.4-3 0.1c-0.5 0.1-57.3 3.8-78.7 64.6-0.1 1-14.4 111.2-2.7 127.6zm-38.2-8.3c2 1.2 12.4 6.5 35.3 6.7-10.7-20.3 2.6-123.1 3.2-127.6 19-54 65.3-63.8 77.3-65.4-5.2-2.2-17.2-6.7-28.6-5.9-15.2 1-46.8 20.2-55.6 41l-1 2.4-0.5-2.6c-5.8-32.3 2.9-49.8 5.3-53.9-3.9-0.9-17.3-2.8-21.5 9.2-5.1 14.3-1.1 64.5-1.1 65l0.1 0.1-0.1 0.1c-5.8 28-12.3 123.4-12.8 130.9z"/><path class="l" d="m512.9 337.4c0 0-27.8 74.1-60.3 88.9 16.1 6.5 31.1-6.3 31.1-6.3 0 0 24.2-47.1 29.2-82.6z"/><path class="K" d="m512.9 337.4c0 0-27.8 74.1-60.3 88.9 16.1 6.5 20.7-6.3 20.7-6.3 0 0 34.6-47.1 39.6-82.6z"/><path fill-rule="evenodd" class="c" d="m462.1 428.9c-3.2 0-6.5-0.6-9.8-1.9l-1.7-0.7 1.7-0.8c31.8-14.4 59.6-87.7 59.9-88.4l2.5-6.7-1 7.1c-5 35.2-29 82.4-29.3 82.8l-0.1 0.3c-0.2 0.1-10 8.3-22.2 8.3zm-7.5-2.8c14.1 4.6 27.2-5.5 28.5-6.6 1.4-2.7 21.1-42 27.8-74.8-7.7 18.5-30.2 68-56.3 81.4z"/><path class="K" d="m354.2 392.4c0 0 8.3 6 48.7 12.1 40.5 6.1 85.5 5.8 85.5 5.8l-5.7 26.5c0 0-82.2 5.8-131.6-17.7-3.7-8.5 3.1-26.7 3.1-26.7z"/><path class="L" d="m360.8 404.5c1.3-7.1 10.8-6 10.8-6-13.9-3.5-17.4-6.1-17.4-6.1 0 0-6.8 18.2-3.1 26.7 3.7 1.8 7.6 3.3 11.6 4.8-1.4-3.3 0.3-9 24.7-2.9 27.4 6.8 65.6 7.3 82.3 1.2-45.1 5.1-110.2-10.6-108.9-17.7z"/><path class="l" d="m402.9 404.5c47.7 14.7 74.3 10.6 74.3 10.6l-1.7 18.2c0 0-75 9.3-124.4-14.2 49.4 23.5 131.6 17.7 131.6 17.7l5.7-26.5c0 0-45 0.3-85.5-5.8z"/><path fill-rule="evenodd" class="c" d="m460.5 438.2c-28 0-76.5-2.6-109.7-18.4l-0.3-0.1-0.1-0.3c-3.8-8.7 2.8-26.5 3-27.3l0.4-1 0.8 0.6c0.2 0.1 9 6.1 48.5 12 39.9 6 84.8 5.8 85.2 5.8h1l-6 28.1h-0.5c-0.3 0-9 0.6-22.3 0.6zm-108.8-19.7c46.5 22 122.9 18 130.4 17.6l5.3-25c-6.8 0-47.8-0.3-84.6-5.8-33.8-5.1-45.2-10.1-48.2-11.8-1.3 3.7-5.8 17.8-2.9 25z"/><path class="u" d="m600.7 400.7h-51.1l-124.5 580.2 12.6 8.2 27.6-4.1 113.2-560.7 113.2 507.9 9.6 2.8 18.6-4.1z"/><path class="v" d="m437.5 980.9l124.5-580.2h-12.4l-124.5 580.2 12.6 8.2 10.1-1.5z"/><path class="v" d="m701.2 934l-114.1-514-8.6 0.6 113.2 511.6 9.6 2.8z"/><path fill-rule="evenodd" class="c" d="m437.5 989.9l-13.3-8.7 0.1-0.5 124.7-580.8h52.3l0.1 0.6 119.4 531-19.6 4.3-10.1-3-0.1-0.4-112.5-504.3-112.5 557.5zm-11.6-9.3l11.9 7.7 26.8-4 113.8-563.6 0.8 3.6 113.1 507.4 8.9 2.5 17.7-3.9-118.9-528.8h-49.8z"/><path class="c" d="m438.5 989.2l-1.6-0.3c22.5-102.7 44.3-206.6 65.4-307.1 19.2-91.2 39-185.5 59.2-278.7 0 0-38.5 187.8-57.7 279-21.1 100.5-42.9 204.4-65.3 307.1z"/><path class="c" d="m700.5 935.1l-114.1-514.3h-7.9l9.2-1.6 0.1 0.6 114.2 515z"/><path class="u" d="m626.7 384v16.8h-81.8v-16.8z"/><path fill-rule="evenodd" class="c" d="m627.5 383.2v18.4h-83.4v-18.4zm-81.9 1.5v15.3h80.3v-15.3z"/><path class="q" d="m813.7 202.7c0 0 8.2 201.9 3 286.9-2.5 42-12.6 26.1-12.6 1.5 0-24.7 9.6-288.4 9.6-288.4z"/><path class="q" d="m780.4 163.8c0 0 2.8 82.8 2.8 117.6 0 23.7-9.8 15.6-9.8 5.5 0-10.1 7-123.1 7-123.1z"/><path class="q" d="m264.8 286c0 0 2.8 82.7 2.8 117.6 0 23.7-9.8 15.6-9.8 5.5 0-10.1 7-123.1 7-123.1z"/><path class="q" d="m240.7 280.8c0 0 2.7 44.9 2.7 63.8 0 12.9-9.7 8.5-9.7 3 0-5.5 7-66.8 7-66.8z"/><path class="c" d="m756.1 870l-3.2-0.7 2.1-10c0.5-2.1-0.3-4.3-1.9-5.6l-30.8-25.6c-2.6-2.2-3.7-5.6-3-8.9l3.3-15.6c0.7-3.2 3.9-5.3 7.2-4.6l12.6 2.7-0.7 3.3-12.6-2.7c-1.5-0.3-2.9 0.6-3.2 2l-3.4 15.6c-0.4 2.1 0.3 4.3 2 5.6l30.7 25.6c2.6 2.2 3.8 5.6 3.1 8.9z"/><path class="E" d="m727 808.6l81.2 17.4 3.5-16.4-81.2-17.4z"/><path fill-rule="evenodd" class="c" d="m808.8 826.9l-82.7-17.7 3.8-17.9 82.7 17.7zm-80.8-18.9l79.6 17 3.2-14.8-79.6-17.1z"/><path class="F" d="m734 787.9c0 0-0.3-0.1-0.5-0.1-2.2-0.5-5.3 5-6.9 12.2-1.5 7.3-1 13.6 1.3 14 0.2 0.1 0.5 0.1 0.5 0.1l76.2 17.2 5.6-27.8z"/><path class="G" d="m727.8 800.8c0 0-0.3 0-0.5-0.1q-0.4-0.1-0.7-0.4c-1.5 7.1-0.9 13.3 1.3 13.7 0.2 0.1 0.5 0.1 0.5 0.1l76.2 17.2 2.5-12.6z"/><path fill-rule="evenodd" class="c" d="m805.1 832.2l-77.4-17.4c-1.4-0.3-2.3-2.1-2.6-5.2-0.3-2.7 0-6.1 0.8-9.7 0.7-3.6 1.9-6.9 3.2-9.2 1.5-2.7 3.1-4 4.6-3.6l0.4 0.1 77 15.7zm-71.9-43.6c-0.6 0.1-1.6 0.8-2.7 2.8-1.3 2.3-2.4 5.4-3.2 8.8-0.7 3.5-1 6.8-0.7 9.4 0.2 2.6 0.9 3.6 1.5 3.7l0.4 0.1 75.5 17 5.3-26.2-75.9-15.6q-0.1 0-0.2 0z"/><path class="H" d="m812.1 818.4c-1.6 7.6-4.8 13.5-7 13-2.3-0.5-2.8-7.1-1.2-14.8 1.7-7.7 4.8-13.5 7.1-13 2.3 0.5 2.8 7.1 1.1 14.8z"/><path fill-rule="evenodd" class="c" d="m805.6 832.2q-0.4 0-0.7-0.1c-1.5-0.3-2.4-2.1-2.6-5.3-0.3-2.9 0.1-6.6 0.9-10.3 1.5-7.3 4.8-14.3 8-13.6 3.1 0.7 3.2 8.4 1.7 15.6-0.8 3.8-2 7.3-3.4 9.8-1.3 2.4-2.7 3.7-3.9 3.9zm5-27.9c-1.4 0.2-4.3 4.8-5.9 12.5-0.8 3.6-1.1 7.1-0.9 9.8 0.2 2.8 0.9 3.9 1.4 4 0.6 0.2 1.6-0.6 3-3 1.3-2.4 2.4-5.7 3.2-9.4 1.7-8 0.8-13.6-0.6-13.8q-0.1-0.1-0.2-0.1z"/><path class="E" d="m743.2 924.8c3.3 0.7 6.6-1.5 7.3-4.8l10.2-47.6c0.8-3.3-1.4-6.6-4.7-7.4-3.4-0.7-6.7 1.5-7.4 4.8l-10.2 47.6c-0.7 3.3 1.4 6.7 4.8 7.4z"/><path fill-rule="evenodd" class="c" d="m745.3 925.6q-1.1 0.2-2.3-0.1c-3.8-0.8-6.2-4.5-5.4-8.3l10.2-47.5c0.8-3.8 4.6-6.2 8.3-5.4 3.8 0.8 6.2 4.5 5.4 8.3l-10.2 47.6c-0.4 1.8-1.5 3.3-3 4.4-1 0.6-2 0.9-3 1zm-2-1.6c3 0.6 5.9-1.2 6.5-4.2l10.2-47.5c0.6-3-1.3-5.9-4.2-6.5-2.9-0.6-5.8 1.2-6.4 4.2l-10.2 47.6c-0.7 2.9 1.2 5.8 4.1 6.4z"/><path class="a" d="m306.3 891.7c0 8.5-30 15.3-67.1 15.3-37.1 0-67.1-6.8-67.1-15.3 0-8.5 30-15.3 67.1-15.3 37.1 0 67.1 6.8 67.1 15.3z"/><path class="d" d="m186.5 814.9v100.8c0 5.2 25.1 11.3 56.1 11.3 31 0 56.1-6.1 56.1-11.3v-100.8z"/><path class="e" d="m276.6 924.4c13.4-2.3 22.1-5.6 22.1-8.7v-100.8h-67.1c1.1 40.8 11 87.5 45 109.5z"/><path fill-rule="evenodd" class="c" d="m242.6 927.7c-29.7 0-56.8-5.7-56.8-12v-101.5h113.6v101.5c0 6.3-27.1 12-56.8 12zm-55.4-112.1v100.1c0 4.3 23.2 10.6 55.4 10.6 32.1 0 55.4-6.3 55.4-10.6v-100.1z"/><path class="g" d="m242.6 824.4c-31 0-56.1-4.3-56.1-9.5 0-5.3 25.1-9.6 56.1-9.6 31 0 56.1 4.3 56.1 9.6 0 5.2-25.1 9.5-56.1 9.5z"/><path fill-rule="evenodd" class="c" d="m242.6 825.1c-27.5 0-56.8-3.6-56.8-10.2 0-6.7 29.3-10.3 56.8-10.3 27.5 0 56.8 3.6 56.8 10.3 0 6.6-29.3 10.2-56.8 10.2zm0-19.1c-32.7 0-55.4 4.7-55.4 8.9 0 4.2 22.7 8.8 55.4 8.8 32.7 0 55.4-4.6 55.4-8.8 0-4.2-22.7-8.9-55.4-8.9z"/><path class="c" d="m242.6 838.8c-46.9 0-56.2-9.1-56.6-9.5l1-0.9c0 0.1 9.6 9 55.6 9 46 0 55.5-8.9 55.6-9l1 0.9c-0.4 0.4-9.7 9.5-56.6 9.5z"/><g clip-path="url(#cp1)"><path class="c" d="m210.7 813.1l3.2-0.8-2.7-9.9c-0.5-2.1 0.1-4.3 1.7-5.7l29.4-27.1c2.4-2.3 3.4-5.8 2.6-9l-4.2-15.4c-0.8-3.2-4.1-5.1-7.3-4.3l-12.6 3.4 0.9 3.2 12.5-3.4c1.5-0.3 3 0.5 3.3 1.9l4.2 15.4c0.5 2.1-0.1 4.3-1.7 5.7l-29.4 27.1c-2.5 2.3-3.5 5.8-2.6 9z"/><path class="E" d="m236.6 750.4l-80.1 21.5-4.4-16.2 80.2-21.5z"/><path fill-rule="evenodd" class="c" d="m151.2 755.1l81.6-21.9 4.8 17.7-81.7 21.9zm80.6-20l-78.7 21.1 4 14.7 78.6-21.1z"/><path class="g" d="m228.6 730c0 0 0.3 0 0.4-0.1 2.3-0.6 5.6 4.7 7.6 11.9 1.9 7.1 1.6 13.4-0.6 14-0.2 0.1-0.5 0.2-0.5 0.2l-75.2 21-7.1-27.5z"/><path class="b" d="m235.4 742.6c0 0 0.3 0 0.5-0.1q0.4-0.1 0.7-0.5c1.9 7.1 1.6 13.2-0.6 13.8-0.2 0.1-0.5 0.2-0.5 0.2l-75.2 21-3.2-12.5z"/><path fill-rule="evenodd" class="c" d="m152.3 749l76.1-19.7 0.4-0.1c1.5-0.4 3.1 0.8 4.8 3.3 1.4 2.3 2.8 5.6 3.7 9.1 0.9 3.5 1.4 7 1.3 9.7-0.1 3.1-1 4.9-2.4 5.3l-76.4 21.3zm76.9-18.3l-75.1 19.4 6.7 25.9 74.5-20.8 0.5-0.1c0.5-0.1 1.1-1.2 1.3-3.8 0.1-2.6-0.4-5.9-1.3-9.3-0.9-3.4-2.2-6.5-3.5-8.6-1.3-2-2.3-2.7-2.9-2.7q-0.1-0.1-0.2 0z"/><path class="h" d="m152.1 764.5c2 7.5 5.5 13.2 7.7 12.6 2.3-0.6 2.4-7.2 0.4-14.8-2-7.6-5.5-13.2-7.7-12.6-2.3 0.6-2.4 7.2-0.4 14.8z"/><path fill-rule="evenodd" class="c" d="m155.2 774.2c-1.5-2.4-2.8-5.8-3.8-9.5-2-7.2-2.3-14.9 0.9-15.8 3.1-0.8 6.7 6 8.6 13.2 1 3.7 1.5 7.4 1.5 10.2-0.1 3.2-0.9 5.1-2.4 5.5q-0.3 0.1-0.7 0.1c-1.2-0.1-2.6-1.3-4.1-3.7zm-2.5-23.8c-1.4 0.4-2 5.9 0.1 13.9 1 3.6 2.3 6.8 3.7 9.1 1.5 2.4 2.6 3.1 3.1 3 0.6-0.2 1.2-1.3 1.3-4.1 0-2.7-0.5-6.2-1.4-9.8-2.1-7.6-5.2-12-6.6-12.1q-0.1 0-0.2 0z"/><path class="E" d="m226.4 867.2c-3.3 0.9-6.7-1.1-7.6-4.4l-12.6-47c-0.9-3.3 1.1-6.7 4.4-7.6 3.3-0.9 6.7 1.1 7.6 4.4l12.6 47c0.9 3.3-1.1 6.7-4.4 7.6z"/><path fill-rule="evenodd" class="c" d="m221.3 867.3c-1.6-1-2.8-2.5-3.3-4.3l-12.6-47c-1-3.7 1.2-7.5 5-8.5 3.7-1 7.5 1.2 8.5 4.9l12.6 47c1 3.7-1.2 7.6-4.9 8.6q-1.1 0.3-2.3 0.2c-1-0.1-2.1-0.4-3-0.9zm4.9-0.8c2.9-0.8 4.6-3.8 3.8-6.7l-12.6-47c-0.8-2.9-3.8-4.6-6.6-3.8-2.9 0.7-4.7 3.7-3.9 6.6l12.6 47c0.8 2.9 3.8 4.6 6.7 3.9z"/><path class="L" d="m237.5 797.4h-0.2-20.3v9.4c0 2.6 2.2 4.8 4.8 4.8h4.7c2.3 0 4.1 2 3.9 4.3-0.7 9-2.2 29.4-2.4 34.1-0.2 6 4.3 9.4 9.4 9.3 5.1 0.1 9.6-3.3 9.4-9.3-0.2-4.7-1.7-25.1-2.4-34.1-0.2-2.3 1.6-4.3 3.9-4.3h4.7c2.6 0 4.8-2.2 4.8-4.8v-9.4z"/><path fill-rule="evenodd" class="c" d="m237 860c-2.7 0-5.3-1-7.1-2.7-1.8-1.9-2.8-4.4-2.7-7.3 0.2-4.7 1.8-25.5 2.5-34.2 0-0.9-0.3-1.7-0.9-2.4-0.6-0.7-1.4-1-2.3-1h-4.7c-3 0-5.5-2.5-5.5-5.6v-10.2h42.2v10.2c0 3.1-2.5 5.6-5.5 5.6h-4.7c-0.9 0-1.7 0.3-2.3 1-0.6 0.7-0.9 1.5-0.9 2.4 0.7 8.7 2.3 29.5 2.5 34.2 0.1 2.9-0.9 5.4-2.7 7.3-1.9 1.8-4.6 2.9-7.5 2.7q-0.2 0-0.4 0zm-19.2-61.9v8.7c0 2.2 1.8 4 4 4h4.7c1.3 0 2.6 0.6 3.5 1.5 0.9 1 1.3 2.3 1.2 3.6-0.7 8.7-2.3 29.5-2.4 34.1-0.1 2.5 0.7 4.6 2.2 6.2 1.6 1.5 3.9 2.4 6.4 2.3 2.5 0.1 4.8-0.8 6.4-2.3 1.5-1.6 2.3-3.7 2.2-6.2-0.1-4.6-1.7-25.4-2.4-34.1-0.1-1.3 0.3-2.6 1.2-3.6 0.9-0.9 2.2-1.5 3.5-1.5h4.7c2.2 0 4-1.8 4-4v-8.7z"/><path class="M" d="m217 786.5l-0.8-25.5h4.4c0 0 2.1 12.6 1.9 16.9 1.2-8 0.8-16.9 0.8-16.9h9.2v17.2l2.8-17.2h9.8v14.9l2-14.9h5.1l-0.8 14.3 2.7-14.3h4.9l-1.2 26.3z"/><path fill-rule="evenodd" class="c" d="m258.5 788.1l-42.2-0.9-0.9-27h5.9l0.1 0.7c0 0.2 0.6 3.8 1.1 7.7 0.2-4.3 0-7.5 0-7.6v-0.8h10.7v8.4l1.4-8.4h11.2v4.4l0.7-4.4h6.5l-0.2 3.4 0.7-3.4h6.3zm-40.7-2.3l39.2 0.7 1.2-24.7h-3.4l-2.6 13.7-1.5-0.2 0.7-13.5h-3.6l-2 14.2-1.5-0.1v-14.1h-8.3l-2.8 16.6-1.5-0.1v-16.5h-7.6c0.1 2.4 0.2 9.7-0.8 16.3l-1.5-0.1c0.1-3.7-1.4-13.6-1.9-16.2h-2.9z"/><path class="N" d="m257.8 785.3v14.4h-40.8v-14.4z"/><path class="t" d="m217 785.3v2.8h31.7v11.6h9.1v-14.4z"/><path fill-rule="evenodd" class="c" d="m258.5 784.6v15.9h-42.2v-15.9zm-40.7 1.5v12.8h39.1v-12.8z"/><path class="l" d="m267.7 797.6h-0.2l-15.9-4.8-2.3 7.4c-0.6 2.1 0.6 4.3 2.7 4.9l3.6 1.1c1.8 0.6 2.8 2.6 2.1 4.4-2.7 6.9-8.8 22.6-10 26.2-1.6 4.7 1.1 8.4 5.2 9.5 4 1.4 8.3-0.3 9.6-5 1-3.8 4.6-20.2 6.2-27.4 0.4-1.9 2.3-3 4.1-2.5l3.6 1.1c2.1 0.6 4.3-0.5 4.9-2.6l2.3-7.4z"/><path fill-rule="evenodd" class="c" d="m252.4 846.8c-2.2-0.6-3.9-2-4.9-3.8-1-1.9-1.2-4.1-0.4-6.4 1.2-3.7 7.4-19.6 10-26.3 0.3-0.7 0.2-1.4-0.1-2.1-0.3-0.7-0.9-1.1-1.6-1.4l-3.6-1.1c-2.4-0.7-3.8-3.2-3.1-5.7l2.4-8 33.3 10-2.4 8.1c-0.8 2.4-3.3 3.8-5.7 3l-3.7-1.1c-0.7-0.2-1.4-0.1-2.1 0.3-0.6 0.4-1.1 1-1.2 1.7-1.6 7-5.2 23.7-6.2 27.4-0.6 2.3-2 4.1-3.8 5.1-2 1-4.4 1.2-6.6 0.4q-0.2 0-0.3-0.1zm-0.4-53.2l-2.1 6.8c-0.5 1.7 0.5 3.6 2.2 4.1l3.7 1.1c1 0.3 1.9 1.1 2.4 2 0.4 1 0.5 2.2 0.1 3.2-2.6 6.7-8.8 22.6-10 26.2-0.6 1.9-0.5 3.8 0.3 5.4 0.9 1.6 2.5 2.8 4.5 3.3 1.9 0.7 3.9 0.5 5.5-0.3 1.6-0.8 2.7-2.3 3.3-4.3 0.9-3.7 4.6-20.4 6.1-27.4 0.3-1 0.9-2 1.9-2.5 0.9-0.6 2-0.7 3.1-0.4l3.6 1.1c1.8 0.5 3.6-0.5 4.1-2.2l2.1-6.8z"/><path class="M" d="m254.1 784.2l5.4-20.2 3.5 1c0 0-1.4 10.5-2.5 13.8 2.8-6 4.6-13.1 4.6-13.1l7.2 2.2-4.1 13.5 6.3-12.9 7.7 2.3-3.5 11.7 5.2-11.2 3.9 1.2-4 11.1 5.5-10.6 3.9 1.1-7.2 20.4z"/><path fill-rule="evenodd" class="c" d="m286.4 795.3l-33-10.6 5.6-21.5 4.7 1.4-0.1 0.5c0 0.3-0.4 3.2-0.9 6.4 1.1-3.3 1.8-5.9 1.8-6l0.1-0.6 8.5 2.5-2 6.6 3.1-6.2 8.8 2.6-1 3.5 1.5-3.3 5.1 1.5-0.9 2.6 1.3-2.5 5 1.5zm-31.4-11.5l30.6 9.9 6.8-19.1-2.7-0.8-5.2 10.1-1.2-0.5 3.7-10.5-2.8-0.8-4.9 10.7-1.2-0.4 3.4-11.1-6.6-2-6.1 12.4-1.2-0.5 3.9-12.9-5.9-1.8c-0.5 1.9-2.2 7.7-4.5 12.6l-1.2-0.5c1-2.8 2.1-10.9 2.4-13.1l-2.3-0.7z"/><path class="N" d="m254.4 783.4l32 9.6-3.4 11.3-32-9.6z"/><path class="t" d="m254.4 783.4l-0.6 2.1 24.9 7.5-2.8 9.2 7.1 2.1 3.4-11.3z"/><path fill-rule="evenodd" class="c" d="m283.5 805.1l-33.3-10 3.8-12.5 33.2 10zm-31.6-10.9l30.8 9.3 3-10.1-30.8-9.3z"/></g></svg>