<svg version="1.2" xmlns="http://www.w3.org/2000/svg" viewBox="0 0 1000 1000" width="500" height="500"><style>.a{fill:#fb0}.b{fill:#df5162}.c{fill:#153959}.d{fill:#486f8c}.e{fill:#d3e9ff}.f{fill:#51ae80}.g{fill:#fff}.h{fill:#3977bb}</style><path class="a" d="m635.8 318.3l-30.3-8.3-30.3-8.4c-23.2 84-50.9 216.5-99.7 361.9l30.3 8.3 30.2 8.3c32.5-149.9 76.6-277.8 99.8-361.8z"/><path class="b" d="m580 383.8l33.8 9.3c8.4-27.7 15.9-52.8 22-74.8l-30.3-8.3-30.3-8.4c-6.1 22-12.5 47.4-19.5 75.5z"/><path class="c" d="m592.6 208.2l-9.6 3.5c-6.7 2.4-14 2.7-20.9 0.8l-28.5-7.8 1.1-4c0.3-1.3-0.4-2.6-1.7-3l-25-6.9c-1.3-0.3-2.6 0.4-2.9 1.7l-11.7 42.3c-0.4 1.4 0.4 2.8 1.8 3.1l24.9 6.9c1.2 0.3 2.6-0.4 2.9-1.7l1.1-4 35.8 9.9c13.6 3.7 21.5 17.7 17.8 31.3l-5.4 19.4c-0.4 1.6 0.5 3.2 2.1 3.7l61.6 17c1.6 0.4 3.2-0.5 3.7-2.1l8.1-29.3c1.9-7 9-11.2 15.9-9.4 10.9 2.9 20.7 9.2 28 17.8 15.2 18.2 28.6 39.5 40.2 64 12.8-118-86.1-142.9-86.1-142.9l-39.5-10.9c-4.5-1.2-9.3-1-13.7 0.6z"/><path class="d" d="m524.9 239.4l-1.6-0.5 9.5-34.4 1.6 0.4z"/><path class="c" d="m613.5 394.3l-58.1-16 0.6-2.4 58.1 16z"/><path class="c" d="m608.3 411.3l-57.3-15.8 0.6-2.3 57.3 15.8z"/><path class="a" d="m840.5 497.9l-144-96.5 37.2-55.5c3.3-4.8 9.8-6.1 14.6-2.8l126.6 84.8c4.8 3.2 6.1 9.7 2.8 14.5z"/><path fill-rule="evenodd" class="b" d="m809.4 546.9l-17.5 26.2c-2.1 3.2-6.5 4-9.6 1.9l-10.1-6.7c-25.8-17.3-52.5-3.3-60.8 13.2l-69.9 119.2c-9.4 18.7-33.1 25-50.5 13.3-17.4-11.6-20.7-35.9-7-51.7l83.7-110.1c15.1-19.1 12.8-45.8-10.9-61.2l-10-6.7c-3.2-2.2-4-6.5-1.9-9.8l17.5-26.1 73.5 49.3zm-181.8 149.6c6.4-9.5 3.8-22.4-5.7-28.7-9.5-6.4-22.3-3.9-28.7 5.6-6.4 9.5-3.8 22.4 5.7 28.7 9.5 6.4 22.3 3.9 28.7-5.6z"/><path class="e" d="m811.6 549.2l-152.1-101.9 32.7-48.8 152.1 101.9z"/><path class="d" d="m840.4 506.2l-152.1-101.9 0.9-1.3 152.1 101.9z"/><path class="d" d="m814.6 544.8l-152.2-101.9 0.9-1.4 152.2 101.9z"/><path class="c" d="m718.8 416.3l-2.1-1.3 36.6-54.6 2 1.4z"/><path class="c" d="m808.7 476.6l-2-1.4 43-64.2 2 1.4z"/><path class="c" d="m748.5 408.7l-2.1-1.3 30.4-45.3 2 1.4z"/><path class="c" d="m834.6 466.5l-2-1.4 30.3-45.2 2.1 1.3z"/><path class="c" d="m791.9 450.7l-2-1.3 36.3-54.2 2 1.4z"/><path class="c" d="m777.5 455.7l-2.1-1.4 36-53.8 2.1 1.4z"/><path class="c" d="m794.1 406.5l-2.1-1.3 15.2-22.7 2 1.4z"/><path class="c" d="m747.1 424.1l-2.1-1.3 37.9-56.6 2 1.4z"/><path class="f" d="m705.3 405.1l3.7-7.6c1.3-2.4 0.3-5.4-2.2-6.7l-48.6-24.2c-2.5-1.3-5.5-0.3-6.8 2.2l-3.7 7.6c-1.3 2.5-0.3 5.5 2.2 6.7 1.9 1 2 3.8 0 4.7-6.4 2.9-11.9 8-15.3 14.8l-52.7 105.6c-7.9 15.9-1.4 35.3 14.5 43.2 15.9 7.9 35.2 1.5 43.1-14.4l52.7-105.7c3.4-6.8 4.1-14.2 2.6-21.1-0.4-2.1 1.8-3.8 3.7-2.9 2.5 1.3 5.5 0.3 6.8-2.2z"/><path class="c" d="m697.6 408.2l-48.2-24 1.1-2.2 48.2 24.1z"/><path fill-rule="evenodd" class="c" d="m609.6 534.3c-1.4 0-2.9-0.4-4.2-1-4.7-2.4-6.6-8.1-4.2-12.7l52.2-104.8c2.3-4.6 8-6.6 12.7-4.2 2.2 1.1 3.9 3.1 4.7 5.5 0.8 2.4 0.7 4.9-0.5 7.2l-52.2 104.7c-1.1 2.3-3 4-5.4 4.8q-1.5 0.5-3.1 0.5zm52.3-121.3c-2.6 0-5.1 1.5-6.4 3.9l-52.2 104.7c-1.7 3.5-0.3 7.8 3.2 9.5 1.7 0.8 3.6 1 5.4 0.4 1.8-0.6 3.2-1.9 4-3.6l52.2-104.7c0.9-1.7 1-3.6 0.4-5.4-0.6-1.8-1.8-3.2-3.5-4-1-0.5-2.1-0.8-3.1-0.8z"/><path class="c" d="m631 546c-4.2-2-5.3-8.1-2.6-13.6l50.8-102c2.7-5.4 8.3-8.1 12.5-6.1l-1.1 2.2c-3-1.5-7.1 0.8-9.2 5l-50.8 102c-2.2 4.2-1.5 8.9 1.5 10.3z"/><path class="c" d="m584 521.8q-1.5 0-2.9-0.7l1.1-2.1c1.3 0.6 2.9 0.5 4.6-0.4 1.8-0.9 3.3-2.6 4.4-4.7l50.9-102c2.1-4.2 1.4-8.8-1.4-10.3l1.1-2.1c4 2 5.2 8 2.5 13.5l-50.9 102c-1.3 2.6-3.2 4.6-5.5 5.8-1.3 0.7-2.6 1-3.9 1z"/><path class="e" d="m762.4 237.3l-15.2-7.6-13.6 22.3-4.5 14.2-54.2 108.7 15.2 7.6 54.1-108.7 8.7-12.2z"/><path class="d" d="m743.9 274.5l-15.2-7.5 0.7-1.5 15.2 7.6z"/><path class="d" d="m752.4 262.4l-19.2-9.5 0.7-1.5 19.3 9.6z"/><path class="e" d="m156.1 350.3l51.8 24 43.1-25.8c0 0-7.8-17.4-8.7-30-3-20.4 2.3-50.6-12-65.3-6.7-7.3-32.7-28-66.3-14.6-2.6 1-2.9 4.5-0.7 6.1l30.9 21.3c4.8 3.3 6 9.9 2.6 14.6l-43 61.1c-2.1 3-1 7.1 2.3 8.6z"/><path class="e" d="m140.6 271.3l41.8 29.8-22.9 32.6c-19.6-17.7-28.1-37.7-24.5-60.2 0.4-2.5 3.5-3.8 5.6-2.2z"/><path fill-rule="evenodd" class="d" d="m210.2 354c-0.9 0-1.8-0.3-2.5-0.8l-21.1-15.1c-1.9-1.4-2.4-4.2-1-6.1l15.4-21.5c0.7-1 1.7-1.6 2.9-1.8 1.1-0.2 2.3 0.1 3.2 0.8l21.1 15.1c0.9 0.6 1.5 1.6 1.7 2.8 0.2 1.1 0 2.3-0.7 3.2l-15.4 21.5c-0.7 1-1.7 1.6-2.9 1.8q-0.3 0.1-0.7 0.1zm-5.6-43.7q-0.2 0-0.5 0c-0.7 0.2-1.3 0.5-1.8 1.1l-15.3 21.5c-0.9 1.3-0.6 3 0.6 3.9l21 15c0.6 0.5 1.4 0.6 2.1 0.5 0.7-0.1 1.3-0.5 1.8-1.1l15.4-21.5c0.4-0.6 0.5-1.3 0.4-2-0.1-0.8-0.5-1.4-1.1-1.8l-21-15.1c-0.5-0.3-1.1-0.5-1.6-0.5z"/><path class="d" d="m225.2 323.4l-19.5 27.3-16.1-11.5 19.5-27.3z"/><path fill-rule="evenodd" class="d" d="m205.8 351.8l-17.3-12.4 20.5-28.6 17.3 12.4zm-15.1-12.8l14.8 10.6 18.5-26-14.7-10.5z"/><path class="f" d="m257.5 350.6c-1.5-2.4-4.7-3.1-7.2-1.7l-20.2 12.1-2.2 1.3-20.2 12.1c-2.5 1.5-3.3 4.6-1.9 7.1l158.4 278.6c8.1 14.4 26.5 19.2 40.6 10.7l13.2-7.9c14.2-8.4 18.6-26.9 9.9-40.8z"/><path class="d" d="m160.2 334.1l-1.4-0.9 22.9-32.5 1.3 0.9z"/><path fill-rule="evenodd" class="c" d="m383.4 636.7q-2 0-4.1-0.5c-4.3-1.1-8-3.8-10.2-7.7l-138-230.7c-2.2-3.8-2.9-8.3-1.8-12.7 1.1-4.3 3.8-7.9 7.6-10.2 7.9-4.7 18.2-2.2 22.9 5.7l137.9 230.8c2.3 3.8 3 8.3 1.9 12.6-1.1 4.4-3.8 8-7.6 10.3-2.7 1.6-5.6 2.4-8.6 2.4zm-138-261.7c-2.5 0-5 0.6-7.2 2-3.3 1.9-5.6 5-6.6 8.7-0.9 3.7-0.3 7.6 1.6 10.8l138 230.8c1.9 3.2 5 5.6 8.7 6.5 3.7 0.9 7.5 0.3 10.8-1.6 3.3-2 5.6-5.1 6.5-8.8 0.9-3.7 0.4-7.5-1.6-10.8l-137.9-230.7c-1.9-3.3-5.1-5.6-8.7-6.5q-1.8-0.4-3.6-0.4z"/><path class="c" d="m550.6 525c-0.3-3.2 2-6 5.1-6.4l25.6-6.1c6.9-0.7 13 4.3 13.8 11.2l1.6 15.3z"/><path class="b" d="m446.2 277.5l3.2 29.9c0.1 1.2-0.8 2.3-2 2.5l-68.6 7.3c-1.2 0.1-2.3-0.8-2.5-2l-3.1-29.9c-0.2-1.2 0.7-2.3 1.9-2.4l68.7-7.4c1.2-0.1 2.3 0.8 2.4 2z"/><path class="b" d="m446.6 613.6l-16 15-18.2-4.9c-3.8-1.1-6.6-4.4-7-8.3l-16.7-157-8-7.7c-3.6-3.5-5.9-8.1-6.4-13.1l-9.1-85.7c-1.1-10.3 6.2-20.9 16.5-22l-1.4-12.9 65.6-7 1.4 12.9 0.8 0.4c39.1 17 66.1 53.8 70.6 96.2l8.2 77.4c1.4 12.5 10.1 23 22.1 26.5l54.5 16.8c5.1 1.5 8.9 6 9.4 11.4l1.6 14.6 70 12.5 13.9-20.8c3.7-5.5 9.7-9.2 16.4-9.9l9.8-1 10.7 100.5c-98.3 24.1-187.6 14.6-288.7-33.9z"/><path class="c" d="m429.4 628.7l-17-159.4c-0.8-7.6 2.2-15.1 8.1-20 5.9-4.9 13.7-6.6 21.1-4.4l63.1 18.5-0.7 2.3-63.1-18.5c-6.6-1.9-13.6-0.4-18.9 4-5.2 4.4-7.9 11-7.2 17.8l17 159.5z"/><path class="c" d="m381.8 331.1l-0.3-2.4 65.6-7 0.3 2.4z"/><path class="c" d="m380.4 318.2l-0.2-2.4 65.6-7 0.2 2.4z"/><path fill-rule="evenodd" class="c" d="m709.6 587.8c-2 0-4-0.7-5.6-2-1.8-1.4-3-3.6-3.2-5.9-0.5-4.9 3-9.3 7.9-9.8 2.3-0.3 4.7 0.4 6.5 1.9 1.9 1.5 3 3.6 3.3 6 0.5 4.9-3.1 9.3-7.9 9.8q-0.5 0-1 0zm0-15.3q-0.3 0-0.7 0c-3.5 0.4-6.1 3.6-5.7 7.1 0.2 1.7 1 3.3 2.4 4.3 1.3 1.1 3 1.6 4.7 1.4 3.5-0.3 6.1-3.5 5.7-7.1-0.1-1.7-1-3.2-2.3-4.3-1.2-0.9-2.6-1.4-4.1-1.4z"/><path class="c" d="m620.7 635.7l-7.4-69.4 2.4-0.2 7.4 69.3z"/><path class="c" d="m651.3 659.4l-0.8-7.4c-0.5-5-4.2-9.3-9.1-10.6l-182.2-48.3c-3.2-0.9-6.5-0.1-9 2-2.5 2.2-3.7 5.3-3.4 8.6l1.1 9.7-2.5 0.3-1-9.8c-0.4-4 1.1-8 4.2-10.6 3.1-2.7 7.3-3.6 11.2-2.6l182.2 48.3c5.9 1.6 10.3 6.7 10.9 12.8l0.8 7.4z"/><path class="c" d="m387.5 458.5l-8.9-83.1 2.4-0.2 8.9 83z"/><path fill-rule="evenodd" class="c" d="m473.1 429.1q-0.9 0-1.7-0.2l-57-16c-2.5-0.7-4.3-2.8-4.6-5.4-0.2-2.1 0.6-4.1 2.2-5.5 1.6-1.3 3.8-1.8 5.8-1.2l57 15.9c2.5 0.7 4.3 2.8 4.5 5.4 0.3 2.1-0.6 4.2-2.2 5.5-1.1 1-2.6 1.5-4 1.5zm-57-26.1c-0.9 0-1.8 0.3-2.5 0.9-1 0.8-1.5 2.1-1.3 3.4 0.1 1.5 1.2 2.8 2.8 3.3l56.9 15.9c1.3 0.4 2.6 0.1 3.6-0.8 1-0.8 1.4-2 1.3-3.3-0.2-1.6-1.3-2.9-2.8-3.3l-56.9-16q-0.6-0.1-1.1-0.1z"/><path fill-rule="evenodd" class="c" d="m470.4 403.8q-0.9 0.1-1.7-0.2l-57-15.9c-2.5-0.7-4.3-2.8-4.5-5.4-0.3-2.1 0.6-4.2 2.2-5.5 1.6-1.4 3.7-1.8 5.7-1.3l57 16c2.5 0.7 4.3 2.8 4.5 5.4 0.3 2.1-0.6 4.1-2.2 5.5-1.1 0.9-2.6 1.4-4 1.4zm-57-26.1c-0.9 0-1.8 0.4-2.5 1-1 0.8-1.4 2-1.3 3.3 0.2 1.6 1.3 2.9 2.8 3.3l56.9 16c1.3 0.3 2.6 0 3.6-0.8 1-0.8 1.5-2.1 1.3-3.4-0.2-1.6-1.2-2.9-2.8-3.3l-56.9-15.9q-0.6-0.2-1.1-0.2z"/><path fill-rule="evenodd" class="c" d="m467.7 378.6q-0.9 0-1.7-0.2l-57-16c-2.5-0.7-4.3-2.8-4.5-5.4-0.3-2.1 0.6-4.1 2.2-5.5 1.6-1.3 3.7-1.8 5.7-1.2l57 15.9c2.5 0.7 4.3 2.8 4.6 5.4 0.2 2.1-0.6 4.2-2.2 5.5-1.2 1-2.6 1.5-4.1 1.5zm-57-26.1c-0.9 0-1.7 0.3-2.5 0.9-0.9 0.8-1.4 2.1-1.3 3.4 0.2 1.5 1.3 2.8 2.8 3.3l56.9 15.9c1.3 0.4 2.6 0.1 3.6-0.8 1-0.8 1.5-2 1.3-3.3-0.1-1.6-1.2-2.9-2.8-3.3l-56.9-16q-0.5-0.1-1.1-0.1z"/><path fill-rule="evenodd" class="c" d="m465.4 573.1c-13.7 0-25.4-10.3-26.9-24.2-0.7-7.1 1.3-14.2 5.9-19.8 4.5-5.6 11-9.1 18.1-9.9 7.2-0.7 14.2 1.3 19.8 5.9 5.7 4.5 9.2 11 9.9 18.1 0.8 7.2-1.3 14.2-5.8 19.8-4.5 5.7-11 9.2-18.2 9.9q-1.4 0.2-2.8 0.2zm0-51.6q-1.3 0-2.6 0.2c-6.5 0.7-12.4 3.9-16.5 9-4.2 5.1-6 11.5-5.3 18 1.4 13.5 13.5 23.3 27 21.8 6.5-0.7 12.4-3.9 16.5-9 4.1-5.1 6-11.5 5.3-18-0.7-6.5-3.9-12.4-9-16.5-4.4-3.6-9.8-5.5-15.4-5.5z"/><path class="c" d="m378.1 275.9l7 5.9 48.7-5.2 5.6-7.2c1.2-1.5 1.8-3.5 1.6-5.5l-5.9-54.8c-0.1-1.7-1.6-2.9-3.3-2.8l-59.5 6.4c-1.7 0.2-2.9 1.7-2.8 3.4l5.9 54.8c0.2 2 1.2 3.8 2.7 5z"/><path class="c" d="m431.6 175.9l2.9 26.7c0.2 1.9-1.2 3.6-3.1 3.8l-58.8 6.2c-1.9 0.2-3.5-1.1-3.7-3l-2.9-26.7z"/><path class="d" d="m372.7 213.5l-0.2-1.7 58.8-6.2 0.2 1.6z"/><path class="e" d="m372.1 162.2l1.3 12.3-8.2 0.9 0.8 7.5 8.2-0.8 49.3-5.3 8.1-0.9-0.8-7.5-8.1 0.9-1.4-12.4-15.7-13.5-21.1 2.2z"/><path class="d" d="m373.5 175.3l-0.2-1.6 49.3-5.2 0.1 1.6z"/><path class="d" d="m372.1 162.9l-0.1-1.7 49.2-5.2 0.2 1.6z"/><path class="c" d="m386.4 9.2l14.3 134.7-11.2 1.2-14.4-134.7 2.7-10 4-0.4z"/><path class="c" d="m401.8 131.7l-13.9 8.9-1.5-2.4 13.9-8.9z"/><path class="c" d="m401 123.6l-14 8.9-1.5-2.4 13.9-8.9z"/><path class="c" d="m400.2 116.8l-13.9 8.8-1.5-2.4 13.9-8.8z"/><path class="c" d="m399.4 108.7l-14 8.8-1.5-2.4 14-8.8z"/><path class="c" d="m398.6 101.4l-13.9 8.8-1.6-2.3 14-8.9z"/><path class="c" d="m397.7 93.3l-13.9 8.8-1.5-2.4 13.9-8.8z"/><path class="c" d="m397 86.5l-13.9 8.8-1.6-2.4 14-8.8z"/><path class="c" d="m396.1 78.4l-13.9 8.8-1.5-2.4 13.9-8.8z"/><path class="c" d="m395.1 68.8l-13.9 8.8-1.5-2.3 13.9-8.9z"/><path class="c" d="m394.3 60.7l-14 8.8-1.5-2.3 14-8.9z"/><path class="c" d="m393.5 53.9l-13.9 8.8-1.5-2.4 13.9-8.8z"/><path class="c" d="m392.7 45.8l-14 8.8-1.5-2.4 14-8.8z"/><path class="c" d="m391.9 38.5l-13.9 8.8-1.6-2.4 14-8.8z"/><path class="c" d="m391 30.4l-13.9 8.8-1.5-2.4 13.9-8.8z"/><path class="c" d="m390.3 23.6l-13.9 8.8-1.6-2.4 14-8.8z"/><path class="c" d="m389.4 15.5l-13.9 8.8-1.5-2.4 13.9-8.8z"/><path class="c" d="m168.1 568.2l234.8-161.8c2.7-1.8 3.4-5.5 1.6-8.2l-38.8-56.4c-1.9-2.7-5.6-3.3-8.3-1.5l-234.8 161.8c-2.7 1.8-3.4 5.5-1.6 8.2l38.8 56.3c1.9 2.7 5.6 3.4 8.3 1.6z"/><path class="a" d="m192.8 575l207.7-143.1c4.8-3.3 6-9.9 2.7-14.7l-55.8-81c-3.3-4.8-9.9-6-14.7-2.7l-207.7 143c-4.8 3.4-6 10-2.7 14.8l55.8 80.9c3.3 4.9 9.9 6.1 14.7 2.8z"/><path class="g" d="m327.6 337l32 123.1-9.8 6.7-32-123z"/><path class="g" d="m277 371.9l31.9 123.1-9.7 6.7-32-123.1z"/><path class="g" d="m226.3 406.8l32 123-9.7 6.8-32-123.1z"/><path class="g" d="m175.7 441.6l32 123.1-9.8 6.7-32-123z"/><path class="c" d="m396.3 644.9l-46.5-67.6c-4.3-6.2-12-9.3-19.4-7.7l-151.4 32.6c-3.3 0.7-6.6-0.6-8.5-3.3l-33.9-49.3c-1.3-1.8-1.7-4-1.3-6.1 0.4-2.2 1.6-4 3.4-5.3l3.9-2.7 1.3 2.1-3.8 2.6c-1.3 0.9-2.2 2.2-2.4 3.7-0.3 1.5 0 3.1 0.9 4.3l33.9 49.3c1.3 1.9 3.7 2.8 5.9 2.3l151.4-32.6c8.5-1.8 17.1 1.6 22 8.8l46.6 67.5z"/><path class="a" d="m429.5 718.3l25.6-17.6c3.8-2.6 4.8-7.8 2.2-11.6l-75.9-110.2c-2.6-3.8-7.8-4.7-11.6-2.1l-25.6 17.7c-3.8 2.6-4.8 7.8-2.2 11.6l75.9 110.1c2.6 3.8 7.8 4.7 11.6 2.1z"/><path class="h" d="m709.4 1000h-441.5c-13.5 0-24.4-10.9-24.4-24.4v-377.4c0-8.2 4-15.7 10.7-20.3l220.8-149c8.3-5.6 19.1-5.6 27.3 0l220.8 149c6.7 4.6 10.7 12.1 10.7 20.3v377.4c0 13.5-10.9 24.4-24.4 24.4z"/><path class="h" d="m488.7 600.3c-25.5 0-46.1-20.6-46.1-46v-225.6c0-25.5 20.6-46.1 46.1-46.1 25.4 0 46 20.6 46 46.1v225.6c0 25.4-20.6 46-46 46z"/><path class="c" d="m488.7 414.1l-290.2 195.8 24.7 37.8 265.5-179.2 265.4 179.1 24.7-37.7z"/><path class="g" d="m488.7 358.7c-15.8 0-28.6-12.8-28.6-28.6 0-15.8 12.8-28.6 28.6-28.6 15.8 0 28.6 12.8 28.6 28.6 0 15.8-12.8 28.6-28.6 28.6z"/><path class="g" d="m474.9 737.4h-43.6c-4.5 0-8.1-3.7-8.1-8.1v-43.7c0-4.4 3.6-8 8.1-8h43.6c4.5 0 8.1 3.6 8.1 8v43.7c0 4.4-3.6 8.1-8.1 8.1z"/><path class="g" d="m546 737.4h-43.6c-4.5 0-8.1-3.7-8.1-8.1v-43.7c0-4.4 3.6-8 8.1-8h43.6c4.5 0 8.1 3.6 8.1 8v43.7c0 4.4-3.6 8.1-8.1 8.1z"/><path class="g" d="m474.9 807.8h-43.6c-4.5 0-8.1-3.6-8.1-8v-43.7c0-4.4 3.6-8.1 8.1-8.1h43.6c4.5 0 8.1 3.7 8.1 8.1v43.7c0 4.4-3.6 8-8.1 8z"/><path class="g" d="m546 807.8h-43.6c-4.5 0-8.1-3.6-8.1-8v-43.7c0-4.4 3.6-8.1 8.1-8.1h43.6c4.5 0 8.1 3.7 8.1 8.1v43.7c0 4.4-3.6 8-8.1 8z"/></svg>