<svg version="1.2" xmlns="http://www.w3.org/2000/svg" viewBox="0 0 1000 1000" width="500" height="500"><defs><clipPath clipPathUnits="userSpaceOnUse" id="cp1"><path d="m196.82 342.37c2.09 12.98 3.73 29.16 2.28 43.43 3.9-12.66 6.54-22.99 8.3-31.37 36.27 42.44 68.8 92.25 83.55 145.42-2.23 10.02-6.14 23.15-12.8 34.46 7.56-8.84 12.82-14.99 16.48-19.26 9.08 43.42 5.74 88.77-17.54 133.93-36.8-15.1-66.39-26.42-90.21-54.51l36.75 5.63-51.96-27.4c-11.24-19.36-20.96-44.65-29.37-78.99 11.62 1.97 28.64 4.57 53.55 7.92-27.24-15.32-48.54-30.98-60.6-40.5-0.59-3.06-1.18-6.1-1.75-9.28-4.17-23.09-8.82-44.45-13.73-64.14 9.33 2.39 21.13 5.41 36.13 9.26-16.04-9.26-30.27-19.75-41.17-28.58-1.58-5.8-3.17-11.48-4.77-16.94l29.92 24.07-34.7-39.77c-24.04-76.42-48.39-115.49-48.39-115.49 0 0 73.84 48.51 140.03 122.11z"/></clipPath></defs><style>tspan{white-space:pre}.a{fill:#1b2942}.b{fill:#edb95f}.c{fill:#84512b}.d{fill:none;stroke:#edb95f;stroke-miterlimit:10;stroke-width:2}.e{mix-blend-mode:multiply;fill:#a87d1d}.f{fill:none;stroke:#edb95f;stroke-miterlimit:10;stroke-width:1.9}.g{fill:#af1018}.h{fill:#f9f3e9}.i{fill:#d6c7b4}.j{fill:#8e0606}.k{fill:none;stroke:#d3cabe;stroke-miterlimit:10;stroke-width:2.1}.l{fill:#d6293a}.m{opacity:.2;mix-blend-mode:multiply;fill:#560410}.n{fill:#4b72b7}.o{fill:#bacde8}.p{fill:#89a3d1}.q{fill:none;stroke:#1b2942;stroke-miterlimit:10;stroke-width:2}.r{opacity:.3;fill:#1b2942}.s{font-size: 28px;line-height: 34px;fill: #f9f3e9;font-weight: 700;font-family: "BerkshireSwash-Regular", "Berkshire Swash"}.t{opacity:.5;mix-blend-mode:multiply;fill:#1b2942}.u{opacity:.2;mix-blend-mode:multiply;fill:#1b2942}.v{fill:none;stroke:#d3cabe;stroke-miterlimit:10;stroke-width:1.3}.w{fill:#bc8d2f}.x{fill:none;stroke:#d3cabe;stroke-miterlimit:10;stroke-width:1.6}.y{opacity:.2;mix-blend-mode:overlay;fill:#fefefe}.z{fill:none;stroke:#fefefe;stroke-miterlimit:10;stroke-width:2}.A{mix-blend-mode:multiply;fill:#af0808}.B{fill:#dae5e5}.C{fill:#b9cece}.D{mix-blend-mode:overlay;fill:#fff}.E{opacity:.5;mix-blend-mode:overlay;fill:#fff}.F{fill:#8faaa9}.G{mix-blend-mode:multiply;fill:#b9cece}.H{opacity:.4;fill:none;stroke:#f9f3e9;stroke-miterlimit:10;stroke-width:2}.I{opacity:.4;fill:none;stroke:#f9f3e9;stroke-miterlimit:10;stroke-width:2.9}.J{opacity:.4;fill:none;stroke:#f9f3e9;stroke-miterlimit:10;stroke-width:1.7}</style><path class="a" d="m601.6 835.7c0 3.4 62.9 6.2 140.5 6.2 77.6 0 140.5-2.8 140.5-6.2 0-3.4-62.9-6.2-140.5-6.2-77.6 0-140.5 2.8-140.5 6.2z"/><path class="b" d="m856.6 833.3h-120.2v-432.8h120.2z"/><path class="c" d="m735.3 479h121.3v-34.9h-121.3z"/><path class="c" d="m735.3 627.9h121.3v-34.9h-121.3z"/><path class="c" d="m844 537.9c0 15.6-12.6 28.2-28.1 28.2-15.6 0-28.2-12.6-28.2-28.2 0-15.5 12.6-28.1 28.2-28.1 15.5 0 28.1 12.6 28.1 28.1z"/><path class="d" d="m856.6 461.5h-125.7"/><path class="d" d="m856.6 610.4h-125.7"/><path class="e" d="m775.8 833.3h-39.4v-432.8h39.4z"/><path class="f" d="m838.5 537.8c0 12.4-10 22.4-22.4 22.4-12.3 0-22.4-10-22.4-22.4 0-12.4 10.1-22.4 22.4-22.4 12.4 0 22.4 10 22.4 22.4z"/><path class="a" d="m801.5 873.9c0 5.3-132.7 9.6-296.5 9.6-163.8 0-296.6-4.3-296.6-9.6 0-5.3 132.8-9.6 296.6-9.6 163.8 0 296.5 4.3 296.5 9.6z"/><path class="g" d="m480.9 871.6h-206.9c-32.6 0-59-26.4-59-59 0-32.6 26.4-59 59-59h206.9z"/><path class="g" d="m480.9 871.6h-206.9c-32.6 0-59-26.4-59-59 0-32.6 26.4-59 59-59h206.9z"/><path class="h" d="m477.3 861.9h259.1v-93.7h-259.1c-24.6 0-44.5 19.9-44.5 44.5v4.8c0 24.5 19.9 44.4 44.5 44.4z"/><path class="i" d="m477.3 768.2c-24.5 0-44.4 19.9-44.5 44.4 4.3-20.1 22.1-35.1 43.4-35.1h260.2v-9.3z"/><path class="j" d="m318.7 812.6c0-32.6 26.4-59 59-59h-39c-32.6 0-59 26.4-59 59 0 32.6 26.4 59 59 59h39c-32.6 0-59-26.4-59-59z"/><path class="k" d="m736.4 790.4h-291.5"/><path class="k" d="m736.4 808.2h-298.2"/><path class="k" d="m736.4 826.1h-298.2"/><path class="k" d="m736.4 843.9h-291.5"/><path class="l" d="m485.5 857c-24.5 0-44.4-19.9-44.4-44.4 0-24.5 19.9-44.4 44.4-44.4h260.6v-14.6h-261.8c-32.6 0-59 26.4-59 59 0 32.6 26.4 59 59 59h261.8v-14.6z"/><path class="m" d="m390.7 753.6h-116.7c-32.6 0-59 26.4-59 59 0 32.6 26.4 59 59 59 0-109.6 116.7-118 116.7-118z"/><path class="n" d="m730.9 315.4h-344.8v438.6h344.8z"/><path class="o" d="m730.9 315.4h16.5v438.6h-16.5z"/><path class="h" d="m730.9 331.5h-344.8v422.5h344.8z"/><path class="p" d="m664.8 315.4h-322c-12.6 0-22.8 10.2-22.8 22.8v393.1c0 12.5 10.2 22.7 22.8 22.7h322z"/><path class="q" d="m357 315.4v428.9"/><path class="o" d="m664.8 315.4h16.6v438.6h-16.6z"/><path class="r" d="m357 315.4h-14.2c-12.6 0-22.8 10.2-22.8 22.8v393.1c0 12.5 10.2 22.7 22.8 22.7h14.2z"/><text style="transform:matrix(2.373,.017,-0.017,2.373,360.758,374.84)" ><tspan x="23.7" y="23.1" class="s">M</tspan><tspan  y="23.1" class="s">a</tspan><tspan  y="23.1" class="s">y</tspan><tspan  y="23.1" class="s">u</tspan><tspan  y="23.1" class="s">r</tspan><tspan  y="23.1" class="s"> </tspan><tspan  y="23.1" class="s">
</tspan><tspan x="6" y="57.4" class="s">M</tspan><tspan  y="57.4" class="s">a</tspan><tspan  y="57.4" class="s">g</tspan><tspan  y="57.4" class="s">a</tspan><tspan  y="57.4" class="s">z</tspan><tspan  y="57.4" class="s">i</tspan><tspan  y="57.4" class="s">n</tspan><tspan  y="57.4" class="s">e
</tspan></text><path class="t" d="m320 605.2v67q2.5 3.9 5.5 7.9c135.2 9.1 296.6 14.3 296.6 14.3l2.9-91.4v-10h-274.5c-11.2 0-22.2 4.1-30.2 12q-0.2 0.1-0.3 0.2z"/><path class="k" d="m692.6 331.5v422.1"/><path class="k" d="m706.1 331.5v422.1"/><path class="k" d="m719.7 331.5v422.1"/><path class="n" d="m878 211.5c0-2.8-10.2-5.1-24.1-5.9-2.2-0.1-3.9-1.8-4-4-0.8-13.9-3.1-24.1-5.9-24.1-2.7 0-5.1 10.2-5.8 24.1-0.1 2.2-1.9 3.9-4 4-14 0.8-24.1 3.1-24.1 5.9 0 2.7 10.1 5.1 24.1 5.8 2.1 0.1 3.9 1.9 4 4 0.7 14 3.1 24.1 5.8 24.1 2.8 0 5.1-10.1 5.9-24.1 0.1-2.1 1.8-3.9 4-4 13.9-0.7 24.1-3.1 24.1-5.8z"/><path class="h" d="m436.5 169.1c0-1.8-6.5-3.3-15.5-3.8-1.4 0-2.5-1.1-2.6-2.5-0.5-9-2-15.6-3.8-15.6-1.7 0-3.2 6.6-3.7 15.6-0.1 1.4-1.2 2.5-2.6 2.5-9 0.5-15.6 2-15.6 3.8 0 1.8 6.6 3.3 15.6 3.8 1.4 0.1 2.5 1.2 2.6 2.6 0.5 9 2 15.5 3.7 15.5 1.8 0 3.3-6.5 3.8-15.5 0.1-1.4 1.2-2.5 2.6-2.6 9-0.5 15.5-2 15.5-3.8z"/><path class="b" d="m712.8 194.5c0-2-7.4-3.7-17.6-4.2-1.6-0.1-2.8-1.4-2.9-3-0.6-10.1-2.3-17.5-4.3-17.5-2 0-3.7 7.4-4.3 17.5 0 1.6-1.3 2.9-2.9 3-10.2 0.5-17.6 2.2-17.6 4.2 0 2.1 7.4 3.8 17.6 4.3 1.6 0.1 2.9 1.4 2.9 2.9 0.6 10.2 2.3 17.6 4.3 17.6 2 0 3.7-7.4 4.3-17.6 0.1-1.5 1.3-2.8 2.9-2.9 10.2-0.5 17.6-2.2 17.6-4.3z"/><path class="g" d="m192.2 211.5c0-2.2-8.2-4.1-19.4-4.7-1.7-0.1-3.1-1.5-3.2-3.3-0.6-11.2-2.5-19.3-4.7-19.3-2.2 0-4.1 8.1-4.7 19.3-0.1 1.8-1.5 3.2-3.2 3.3-11.2 0.6-19.4 2.5-19.4 4.7 0 2.2 8.2 4.1 19.4 4.7 1.7 0.1 3.1 1.5 3.2 3.2 0.6 11.2 2.5 19.4 4.7 19.4 2.2 0 4.1-8.2 4.7-19.4 0.1-1.7 1.5-3.1 3.2-3.2 11.2-0.6 19.4-2.5 19.4-4.7z"/><path class="u" d="m650.8 753.6h-166.5q-1.7 0-3.4 0.1v-0.1h-90.2-13-39-64.7c-32.6 0-59 26.4-59 59 0 32.6 26.4 59 59 59h64.7q0 0 0 0h39q0 0 0 0h103.2v-0.1q1.7 0.1 3.4 0.1l188.2-116z"/><path class="g" d="m487.5 664.9h-126c-19.9 0-36-16.1-36-36 0-19.8 16.1-35.9 36-35.9h126z"/><path class="a" d="m487.5 664.9h-126c-19.9 0-36-16.1-36-36 0-19.8 16.1-35.9 36-35.9h126z"/><path class="h" d="m485.4 659h157.8v-57.1h-157.8c-15 0-27.1 12.1-27.1 27.1v2.9c0 14.9 12.1 27.1 27.1 27.1z"/><path class="i" d="m485.4 601.9c-15 0-27.1 12.1-27.1 27 2.6-12.2 13.4-21.4 26.4-21.4h158.5v-5.6z"/><path class="n" d="m388.7 628.9c0-19.8 16.1-35.9 36-35.9h-23.8c-19.8 0-35.9 16.1-35.9 35.9 0 19.9 16.1 36 35.9 36h23.8c-19.9 0-36-16.1-36-36z"/><path class="v" d="m643.2 615.4h-177.6"/><path class="v" d="m643.2 626.2h-181.6"/><path class="v" d="m643.2 637.1h-181.6"/><path class="v" d="m643.2 648h-177.6"/><path class="n" d="m490.4 655.9c-15 0-27.1-12.1-27.1-27 0-14.9 12.1-27 27.1-27h158.7v-8.9h-159.5c-19.8 0-35.9 16.1-35.9 35.9 0 19.9 16.1 36 35.9 36h159.5v-9z"/><path class="t" d="m432.6 593h-71.1c-19.9 0-36 16.1-36 35.9 0 19.9 16.1 36 36 36 0-66.8 71.1-71.9 71.1-71.9z"/><path class="g" d="m513.5 755.6h159c25.1 0 45.4-20.3 45.4-45.4 0-25-20.3-45.3-45.4-45.3h-159z"/><path class="b" d="m513.5 755.6h159c25.1 0 45.4-20.3 45.4-45.4 0-25-20.3-45.3-45.4-45.3h-159z"/><path class="h" d="m516.2 748.1h-199.1v-72h199.1c18.9 0 34.2 15.3 34.2 34.2v3.7c0 18.8-15.3 34.1-34.2 34.1z"/><path class="i" d="m516.2 676.1c18.9 0 34.2 15.3 34.2 34.1-3.3-15.4-17-27-33.4-27h-199.9v-7.1z"/><path class="w" d="m595 710.2c0-25-20.3-45.3-45.4-45.3h30c25.1 0 45.4 20.3 45.4 45.3 0 25.1-20.3 45.4-45.4 45.4h-30c25.1 0 45.4-20.3 45.4-45.4z"/><path class="w" d="m658 710.2c0-25-20.3-45.3-45.3-45.3h30c25 0 45.3 20.3 45.3 45.3 0 25.1-20.3 45.4-45.3 45.4h-30c25 0 45.3-20.3 45.3-45.4z"/><path class="x" d="m317.1 693.2h224"/><path class="x" d="m317.1 706.9h229.1"/><path class="x" d="m317.1 720.6h229.1"/><path class="x" d="m317.1 734.2h224"/><path class="w" d="m509.9 744.3c18.9 0 34.1-15.2 34.1-34.1 0-18.8-15.2-34.1-34.1-34.1h-200.3v-11.2h201.3c25 0 45.3 20.3 45.3 45.3 0 25.1-20.3 45.4-45.3 45.4h-201.3v-11.3z"/><path class="y" d="m582.8 664.9h89.7c25.1 0 45.4 20.3 45.4 45.3 0 25.1-20.3 45.4-45.4 45.4 0-84.3-89.7-90.7-89.7-90.7z"/><path class="u" d="m309.6 664.9v11.2h7.5v7.1 61.1h-7.5v11.3h30.2l149.8-90.7z"/><path class="b" d="m196.8 342.4c2.1 13 3.7 29.1 2.3 43.4 3.9-12.7 6.5-23 8.3-31.4 36.3 42.5 68.8 92.3 83.5 145.5-2.2 10-6.1 23.1-12.8 34.4 7.6-8.8 12.9-15 16.5-19.3 9.1 43.5 5.8 88.8-17.5 134-36.8-15.1-66.4-26.4-90.2-54.5l36.7 5.6-51.9-27.4c-11.3-19.4-21-44.7-29.4-79 11.6 2 28.6 4.6 53.5 7.9-27.2-15.3-48.5-31-60.5-40.5-0.6-3-1.2-6.1-1.8-9.3-4.2-23-8.8-44.4-13.7-64.1 9.3 2.4 21.1 5.4 36.1 9.3-16-9.3-30.3-19.8-41.2-28.6-1.5-5.8-3.1-11.5-4.7-17l29.9 24.1-34.7-39.7c-24.1-76.5-48.4-115.5-48.4-115.5 0 0 73.8 48.5 140 122.1z"/><g clip-path="url(#cp1)"><path class="z" d="m262 581.8c0 0-43-18.1-117.7-35.5"/><path class="z" d="m258.8 559.9c0 0-80.9-25.6-125.7-29"/><path class="z" d="m237 487.1c0 0-60.3-31.8-130.1-38.6"/><path class="z" d="m224.6 459.9c0 0-54.2-23.2-117.7-33.8"/><path class="z" d="m248 521.8l34.5-79.2"/><path class="z" d="m257.4 538.8l35.9-76"/><path class="z" d="m208.4 427.5l19.3-82.8"/></g><path class="j" d="m179.7 379.8c0 0 102.3 163.1 100.4 399.8 19.7 10.1 21.7-1.5 21.7-1.5 0 0-8.7-242-122.1-398.3z"/><path class="A" d="m280.1 779.6c19.7 10.1 21.7-1.5 21.7-1.5 0 0-1.4-37.1-9.8-91.5-4.7 2.8-10.4 4.4-15.9 5.4 2.7 27.8 4.2 57.1 4 87.6z"/><path class="a" d="m414.6 913.1c0 4.4-54.3 7.9-121.3 7.9-66.9 0-121.2-3.5-121.2-7.9 0-4.5 54.3-8 121.2-8 67 0 121.3 3.5 121.3 8z"/><path class="B" d="m373.8 913.4h-98.5c-15.1 0-27.3-12.2-27.3-27.3v-109.1c0-15.1 12.2-27.4 27.3-27.4h98.5c15.1 0 27.3 12.3 27.3 27.4v109.1c0 15.1-12.2 27.3-27.3 27.3z"/><path class="C" d="m312.6 913.4h-98.5c-15.1 0-27.3-12.2-27.3-27.3v-109.1c0-15.1 12.2-27.4 27.3-27.4h98.5c15.1 0 27.3 12.3 27.3 27.4v109.1c0 15.1-12.2 27.3-27.3 27.3z"/><path class="a" d="m326.7 833.3h-129.4v54.9c0 6.1 5 11.1 11.2 11.1h118.2z"/><path class="n" d="m390.1 833.3h-42.5v66h27.3c8.4 0 15.2-6.8 15.2-15.1z"/><path class="D" d="m375.8 883.5c-3.8 0-7-3.1-7-7v-101.4c0-3.8 3.2-7 7-7 3.9 0 7 3.2 7 7v101.4c0 3.9-3.1 7-7 7z"/><path class="E" d="m316.2 776.9h-59c-3.4 0-6.1-2.7-6.1-6.1 0-3.4 2.7-6.2 6.1-6.2h59c3.4 0 6.2 2.8 6.2 6.2 0 3.4-2.8 6.1-6.2 6.1z"/><path class="E" d="m230.8 776.9c3.4 0 6.2-2.7 6.2-6.1 0-3.4-2.8-6.2-6.2-6.2-3.4 0-6.2 2.8-6.2 6.2 0 3.4 2.8 6.1 6.2 6.1z"/><path class="D" d="m212.3 860.6v17.4c0 5.5 4.4 9.9 9.9 9.9h34.1c3.2 0 5.7-2.6 5.7-5.7 0-3.2-2.5-5.7-5.7-5.7h-31.7v-15.9c0-3.4-2.7-6.2-6.1-6.2-3.4 0-6.2 2.8-6.2 6.2z"/><path class="F" d="m351.6 730.2h-114.1v19.4h114.1z"/><path class="G" d="m351.6 730.2h-114.1v9.7h114.1z"/><path class="C" d="m358.7 702.1h-128.3c-7.8 0-14.1 6.3-14.1 14.1 0 7.7 6.3 14 14.1 14h128.3c7.8 0 14.1-6.3 14.1-14 0-7.8-6.3-14.1-14.1-14.1z"/><path class="D" d="m291.1 716.2h63.9c2.4 0 4.4-2 4.4-4.4 0-2.5-2-4.5-4.4-4.5h-63.9c-2.4 0-4.4 2-4.4 4.5 0 2.4 2 4.4 4.4 4.4z"/><path class="h" d="m804.3 294.3h-136l23.8-6.6c0 0-13.3-18.5 15.1-13.2-1.3-19.2 16.6-20.9 24.5-6.5 5.9-31.9 44.9-30.7 33.7 8.4 19.8-19.8 23.1-8.6 19.1 4.7 19.8 13.2 19.8 13.2 19.8 13.2z"/><path class="h" d="m208.3 289.3h202.7l-35.4-9.9c0 0 19.7-27.5-22.7-19.7 2-28.5-24.6-31.1-36.4-9.6-8.8-47.5-66.9-45.7-50.2 12.5-29.5-29.4-34.4-12.7-28.5 7-29.5 19.7-29.5 19.7-29.5 19.7z"/><path class="H" d="m500.7 138.1c0 6.2-5.1 11.3-11.3 11.3-6.3 0-11.3-5.1-11.3-11.3 0-6.3 5-11.3 11.3-11.3 6.2 0 11.3 5 11.3 11.3z"/><path class="I" d="m291 368.8c0 8.9-7.2 16.2-16.1 16.2-8.9 0-16.1-7.3-16.1-16.2 0-8.9 7.2-16.1 16.1-16.1 8.9 0 16.1 7.2 16.1 16.1z"/><path class="J" d="m814.7 353.7c0 5.3-4.3 9.6-9.6 9.6-5.4 0-9.7-4.3-9.7-9.6 0-5.3 4.3-9.6 9.7-9.6 5.3 0 9.6 4.3 9.6 9.6z"/></svg>