<svg version="1.2" xmlns="http://www.w3.org/2000/svg" viewBox="0 0 1122 1122" width="500" height="500"><style>.a{fill:#fed100}.b{fill:#97512c}.c{fill:#7c3e25}.d{fill:#ffdb31}.e{fill:#ffdf5a}.f{fill:#8d492b}.g{fill:#fcc200}</style><path class="a" d="m561.5 791.6c-52.4 0-101.3 14.5-143 39.8v13.6h286v-13.6c-41.8-25.3-90.7-39.8-143-39.8z"/><path class="b" d="m742.3 845v226.1h-361.7v-226.1z"/><path class="c" d="m767.3 1071.1v34.2h-411.7v-34.2z"/><path class="a" d="m590 569.5c-8.9 3.3-18.5 5.1-28.5 5.1-10.1 0-19.7-1.8-28.6-5.1v-0.1c0-16.7-8-34.2-24.1-46.4l-0.3-0.2c-56.1-37.7-101.4-90.4-130.2-152.3-50.3-107.3-78.4-227.1-78.4-353.5h523.1c0 126.4-28.1 246.2-78.4 353.5-28.8 61.9-74.1 114.6-130.2 152.3l-0.3 0.2c-16.1 12.2-24.1 29.7-24.1 46.4z"/><path class="a" d="m585.8 570.9c0 15.9 6.9 29.1 18 38.8 3.9 3.5 6.3 8.5 6.3 14.1 0 10.7-8.7 19.3-19.3 19.3q-0.3 0-0.6 0h-57.5q-0.3 0-0.6 0c-10.6 0-19.2-8.6-19.2-19.3 0-5.6 2.4-10.6 6.2-14.1 11.1-9.7 18-22.9 18-38.8z"/><path class="d" d="m610.2 808c-15.5 4.5-31.8 7-48.7 7-17 0-33.3-2.5-48.8-7l0.2-0.5v-31.9c12.1-28.6 18.7-60 18.7-93 0-13.6-1.1-26.9-3.3-39.9h66.3c-2.2 13-3.3 26.3-3.3 39.9 0 33 6.7 64.4 18.8 93v31.9z"/><path fill-rule="evenodd" class="a" d="m376.7 516.4c-13.3 0-26.2-4.8-36.3-13.5-8.2-7-9.1-19.3-2.1-27.5 7-8.1 19.3-9.1 27.4-2.1 2.2 1.9 5.8 4.1 11 4.1 9.3 0 16.8-7.6 16.8-16.9q0-2-0.4-3.9c-2.6-9.3-7.7-17.8-14.6-24.6-1.9-1.5-3.2-3-4.1-3.9l-170.5-160.1c-56.5-53-97.9-136-63.1-201.9 14.9-28.2 44.5-46.7 76.2-47.7q0.7-0.1 1.4-0.1h1.6q0.7 0 1.4 0.1c47.1 1.5 85 40.3 85 87.9 0 22.1-8.2 43.2-23.2 59.5-7.3 7.9-19.6 8.4-27.5 1.2-7.9-7.3-8.5-19.7-1.2-27.6 8.3-9 12.9-20.8 12.9-33.1 0-26.8-21.5-48.6-48.2-49-18.2 0.3-35.4 10.8-44 27-25.1 47.5 11.1 113.8 55.3 155.3l171.1 160.6q0.7 0.7 1.2 1.2 0.7 0.6 1.3 1.1c12.8 12 22 27.2 26.6 44q0.1 0.2 0.1 0.4c1.1 4.5 1.7 9 1.7 13.6 0 30.8-25 55.9-55.8 55.9zm-1.8-87.9q0 0.1 0.1 0.1zm15.9-31.3q0 0 0.1 0-0.1 0-0.1 0zm0 0q0 0 0 0 0 0 0 0z"/><path fill-rule="evenodd" class="a" d="m690.4 460.5c0-4.6 0.6-9.1 1.7-13.6q0-0.2 0.1-0.4c4.7-16.8 13.8-32 26.6-44q0.6-0.5 1.3-1.1 0.5-0.5 1.2-1.2l171.1-160.6c44.2-41.5 80.4-107.8 55.3-155.3-8.6-16.2-25.8-26.7-44-27-26.7 0.4-48.2 22.2-48.2 49 0 12.3 4.6 24.1 12.9 33.1 7.3 7.9 6.8 20.3-1.2 27.6-7.9 7.2-20.2 6.7-27.5-1.2-15-16.3-23.2-37.4-23.2-59.5 0-47.6 37.9-86.4 85.1-87.9q0.6-0.1 1.3-0.1h1.6q0.7 0 1.4 0.1c31.7 1 61.4 19.5 76.2 47.7 34.9 65.9-6.6 148.9-63.1 201.9l-170.5 160.1c-0.8 0.9-2.2 2.4-4.1 3.9-6.9 6.8-11.9 15.3-14.6 24.6q-0.4 1.9-0.4 3.9c0 9.3 7.5 16.9 16.8 16.9 5.2 0 8.8-2.2 11-4.1 8.1-7 20.4-6 27.4 2.1 7 8.2 6.1 20.5-2.1 27.5-10.1 8.7-23 13.5-36.3 13.5-30.8 0-55.8-25.1-55.8-55.9zm57.6-31.9q0 0 0-0.1zm-15.9-31.3q0 0 0 0 0 0 0 0zm0.1 0q0 0 0 0 0 0 0 0z"/><path class="e" d="m411 40.8h-88.6c0 90.2 17.7 176.3 49.7 255-4.8-24-7.4-48.9-7.4-74.3 0-65.5 16.8-127.1 46.3-180.7z"/><path class="f" d="m380.6 1071.1h361.7v-226.1c0 0-120.9 226.1-361.7 226.1z"/><path class="a" d="m693.3 897.2v129.2h-263.7v-129.2z"/><path class="e" d="m155.6 91.8c15.8-29.9 47.3-49.5 80.9-50.7q0.8 0 1.5 0h1.7q0.7 0 1.4 0c10.3 0.4 20 2.4 29.2 5.7-13.5-12.4-31.3-20.2-50.9-20.9q-0.6 0-1.2 0h-1.4q-0.6 0-1.2 0c-28.4 1-55 17.5-68.3 42.7-14.3 27.1-14.3 57.5-5.1 86.9-1.2-21.9 2.7-43.6 13.4-63.7z"/><path class="g" d="m432.5 454.9c22.1 26 47.7 48.8 76 67.9l0.3 0.2c16.1 12.2 24.1 29.7 24.1 46.4v0.1c8.9 3.3 18.5 5.1 28.6 5.1 10 0 19.6-1.8 28.5-5.1v-0.1c0-16.7 8-34.2 24.1-46.4l0.3-0.2c56.1-37.7 101.4-90.4 130.2-152.3 50.3-107.3 78.4-227.1 78.4-353.5-115.6 457.8-389.2 437.9-390.5 437.9z"/></svg>