<svg version="1.2" xmlns="http://www.w3.org/2000/svg" viewBox="0 0 500 500" width="500" height="500"><style>.a{fill:#ebeade}.b{fill:#dbd9c4}.c{fill:#b5d67c}.d{fill:#a4c372}.e{fill:#97b469}.f{fill:#799355}.g{fill:#fff}.h{fill:#395a3a}.i{fill:#fff26b}.j{fill:#ffd64c}.k{fill:#c877b0}.l{fill:#a86495}.m{fill:#8f537f}.n{fill:#6a395d}.o{fill:#6b2a5a}.p{fill:#fbb54c}.q{fill:#f89c3e}.r{fill:#f38073}.s{fill:#f06457}.t{fill:#ee453f}.u{fill:#c83a34}.v{fill:#73171f}.w{fill:#ffcf6d}.x{fill:#fcb74e}.y{fill:#90d2cf}.z{fill:#c0e6ee}.A{fill:#65c6c2}.B{fill:#008a77}.C{fill:#005a4c}.D{fill:#9cd7d8}.E{fill:#44ae97}.F{fill:#f89e1c}.G{fill:#f58820}.H{fill:#f16722}.I{fill:#b34c15}.J{fill:#ffc335}.K{fill:#faaf36}.L{fill:#793000}.M{fill:#ffda76}.N{fill:#faaf44}.O{fill:#faceca}</style><path class="a" d="m268.6 500c-141.9 0-256.6-20.8-256.6-46.5 0-25.7 114.7-46.5 256.6-46.5 141.9 0 256.6 20.8 256.6 46.5 0 25.7-114.7 46.5-256.6 46.5z"/><path class="b" d="m435.8 471.8c4.9-0.6 9.8-1.2 14.7-1.8 10.2-1.4 39.7-3.5 38.2-22.1-0.7-8.8-16.8-9.6-21.7-12.3-10.4-5.8-22.7-5.7-34.4-5.4q-28.6 0.7-57.2 1.4c-26.2 0.6-52.4 1.2-78.5 3.5-45.8 3.9-91.3 12.9-137.1 12.2-10.1-0.1-20.2-0.7-30 1.2-6.8 1.3-13.3 3.8-20.1 4.2-8.2 0.6-16.2-1.8-23.9-4.8-8.2-3.2-16.3-7.3-25-7.6-5.3-0.3-12.3 1.7-16.5 5.3-3.7 3.1-5.8 9.1-3.4 13.5 2.6 4.7 8.6 5.1 13.6 4.9 12-0.4 25.2 0.7 37.2 0.7 20.7 0 34.3 0.4 51.6 6 10.5 3.4 20.9 6 30.9 10.3 10.9 4.6 22.8 7.2 34.1 9.7 48 10.7 96.7 7.1 145.1 2.4 9.7-1 19.6-2 28.3-6.8 8.1-4.4 14.3-7.1 23.3-9.3 10.2-2.5 20.5-3.9 30.8-5.2z"/><path class="c" d="m236.6 107.3l-12.6 5.8-13.2-3.8-13.9 251.9 24.8 5.1 20.1 8.3c0 0 139.2 0.1 158.4-0.9 19.1-0.9 28.9-2.5 28.9-2.5 0 0-11.4-147.7-13.3-169.7-1.8-22-7.5-80.5-7.3-84 0.2-3.5-2.6-14.2-2.6-14.2 0 0-74.8 0-91 0.6-16.3 0.5-74.2 2.5-78.3 3.4z"/><path fill-rule="evenodd" class="d" d="m426.2 333.6c1.7 22.1 2.9 38 2.9 38 0 0-9.8 1.6-28.9 2.6-19.2 0.9-158.4 0.9-158.4 0.9l-20.1-8.4-24.8-5 13.9-252 13.2 3.8 12.6-5.7c1.6-0.4 11.8-0.9 24.5-1.5-4.8 13.2-5.7 27.8-6.5 42-2.5 44.6-4.9 90 4.9 133.6 4.9 21.6 13.6 43.8 31.5 56.8 5.9 4.3 12.5 7.4 19.3 10.1 20.8 8 43.2 11.7 65.4 10.9 8.4-0.3 16.8-1.3 24.6-4.4 10.9-4.3 19.2-12.1 25.9-21.7zm-18.9 8.3c-17.2 8.9-38.1 11.8-56.4 5.4 9.4-3.2 19.8-2.5 29-6.1 4.3-1.7 8.2-4.2 12.1-6.8 11.4-7.6 23-15.6 32.3-25.6 0.5 7.1 1 14 1.5 20.4-5.6 4.9-11.8 9.2-18.5 12.7zm-136-46.7c-6.4-12.7-9.5-27.3-7.7-41.4 5.5 27 17.6 52.5 34.9 73.9-11.1-8.9-20.8-19.8-27.2-32.5z"/><path class="d" d="m238.9 325.8c0.2-23.2-2.3-218-2.3-218l-12.6 5.7-13.2-3.8-13.9 252 24.8 5 20.1 8.4c0 0-3.1-26.1-2.9-49.3z"/><path class="e" d="m241.8 375.1c0 0-0.8-7.4-1.6-17.8q-0.7-0.3-1.3-0.3c-7.4-0.3-8.4-8.6-9-38.1-0.5-27.4 0.7-184.9 0.9-208.5l-6.8 3.1-5.7-1.6c2.2 38.2 1 223.2-5.3 234.7-3.9 7.1-10.7 8.3-15.7 8.1l-0.4 7 24.8 5z"/><path class="f" d="m288.1 127.3c-2.9 0-5.2-2.5-5.2-5.5 0-3.1 2.3-5.6 5.2-5.6 2.9 0 5.2 2.5 5.2 5.6 0 3-2.3 5.5-5.2 5.5z"/><path class="f" d="m360.4 126.1c-2.3 0-4.2-2.5-4.2-5.5 0-3.1 1.9-5.5 4.2-5.5 2.3 0 4.2 2.4 4.2 5.5 0 3-1.9 5.5-4.2 5.5z"/><path class="g" d="m415.8 201.9c-1.8-22-7.5-80.5-7.3-84 0.2-3.4-2.6-14.1-2.6-14.1 0 0-74.8-0.1-91 0.5-8.5 0.3-28.5 1-46.2 1.7l-1.8 0.3c0 0 129.7 2.4 132.3 3.3 2.6 0.8 17.8 162.3 22.3 170.5l0.2-4.7c-2.6-33.2-5.1-64.3-5.9-73.5z"/><path fill-rule="evenodd" class="h" d="m288.1 128.1c-4 0-5.8-3.3-5.9-6.4 0-3 1.8-6.1 5.2-6.2h0.1c4.1 0 6.3 3.3 6.3 6.6 0 2.8-1.7 6-5.6 6zm-0.6-11.2h-0.1c-2.6 0-3.8 2.5-3.7 4.8 0 2.4 1.4 5 4.4 5h0.1c3 0 4.2-2.3 4.2-4.6 0-2.6-1.7-5.2-4.9-5.2z"/><path fill-rule="evenodd" class="h" d="m360.6 126.8c-3.6 0-5.3-3.3-5.3-6.5 0-3 1.5-6.1 4.6-6.1h0.2c3.7 0 5.7 3.3 5.7 6.5 0 2.9-1.6 6-5.1 6.1zm-0.5-11.2h-0.1c-2.3 0-3.3 2.5-3.3 4.7 0 2.5 1.3 5.1 3.9 5.1h0.1c2.6 0 3.7-2.4 3.7-4.7 0-2.5-1.5-5.1-4.3-5.1z"/><path fill-rule="evenodd" class="h" d="m282.6 376.6q0 0 0 0c-23.8 0-41.2-0.1-41.3-0.2-0.5 0-0.9-0.2-1-0.7-3.7-11-4.3-257.8-4.3-268.3 0-0.6 0.4-1 0.9-1.1 17-2.3 162.7-3.7 168.9-3.8q0 0 0 0c0.5 0 0.9 0.3 1 0.8 5.2 19.1 22.2 258.4 22.9 268.6 0.1 0.5-0.3 1-0.8 1.1-14.7 3.1-98 3.6-146.3 3.6zm-40.5-2.2c3.7 0 19.6 0.1 40.5 0.1 47.3 0 128.3-0.5 145-3.4-1.2-16.5-17.4-243.2-22.6-266.5-11.9 0.1-147 1.5-166.9 3.7 0.2 87.3 1.3 251.5 4 266.1z"/><path class="h" d="m241.3 376.4q-0.2 0-0.5 0l-19.3-8.6-24.8-5c-0.6-0.1-0.9-0.7-0.8-1.2 2.4-14.3 13.8-249.4 13.9-251.7 0-0.4 0.2-0.6 0.5-0.8 0.2-0.2 0.5-0.3 0.8-0.2l12.9 3.2 12.6-5.7c0.5-0.2 1.1 0 1.4 0.5 0.2 0.6 0 1.2-0.5 1.4l-12.9 5.8q-0.4 0.2-0.7 0.1l-12-3c-1 20.3-11.2 228.6-13.8 249.7l23.9 4.9q0.1 0 0.2 0l19.5 8.6c0.5 0.3 0.8 0.9 0.5 1.4-0.1 0.4-0.5 0.6-0.9 0.6z"/><path class="h" d="m221.8 367.8q0 0 0 0c-0.6 0-1.1-0.5-1-1 0-2 6.7-196.2 2.3-252 0-0.5 0.4-1.1 1-1.1 0.5 0 1 0.4 1.1 1 4.4 55.8-2.3 250.2-2.3 252.1-0.1 0.6-0.5 1-1.1 1z"/><path fill-rule="evenodd" class="i" d="m267.3 143.1c-2.6 3-5.4 5.9-7.7 9.2-1.5 2-4.8 0.1-3.4-2 2.5-3.8 5.2-7.3 8.9-10 1.7-1.3 3.4 1.3 2.2 2.8zm41.4-16.8c-3.6 3.7-7.5 7-11.4 10.4-1.7 1.4-4.1-1-2.5-2.5 4-3.5 7.8-7 12.1-10.2 1.4-1 2.9 1.1 1.8 2.3zm-22.2 37.7c-1.1 1.4-2.1 3.1-3.4 4.3q-2.1 1.8-4.1 3.5c-1.7 1.5-4-0.7-2.5-2.4 1.2-1.4 2.4-2.8 3.6-4.1 1.2-1.3 2.8-2.3 4.2-3.4 1.6-1.2 3.4 0.6 2.2 2.1zm-14.5 43.5c-2.4 4.3-5.8 7.6-9.1 11.1-1.7 1.8-4.8-0.6-3.4-2.6 2.7-4 5.3-8 9-11.2 1.9-1.6 4.7 0.4 3.5 2.7zm60.7-59.2c-3.1 4.3-6.6 8-10.6 11.4-2.7 2.4-6.3-1.2-4-4 3.3-3.8 6.8-7.3 10.8-10.4 2-1.5 5.7 0.6 3.8 3zm34.1-11c-2.9 3.7-5.8 7.1-9.1 10.4-2.1 2.1-5.1-1-3.2-3.2 2.9-3.4 5.9-6.5 9.3-9.5 1.5-1.3 4.3 0.5 3 2.3zm-50.9 68.4c-1.2 1.6-2.4 3.3-3.9 4.7-1.3 1.4-2.7 2.6-4.1 3.9-1.9 1.7-4.2-0.8-2.7-2.7 2.3-3.1 4.7-5.8 7.6-8.3 1.6-1.4 4.6 0.5 3.1 2.4zm42.8-13.5c-3.6 4.1-7.6 8.6-12.3 11.5-1.9 1.1-4.4-1.2-3.1-3.2 3.1-4.5 7.8-8.2 12.1-11.6 2.3-1.9 5.3 1 3.3 3.3zm33.4-41.8c-3.3 5.1-6.8 9.9-10.6 14.7-1.5 1.9-4.9-0.7-3.4-2.6 3.6-4.9 7.3-9.6 11.4-14.1 1.3-1.4 3.6 0.4 2.6 2zm-44.5 87.6c-3.2 4.4-7.1 8.6-12 11-1.8 0.9-3.5-1.2-2.1-2.7 3.4-3.8 7.4-7.1 11.1-10.6 1.5-1.5 4.3 0.5 3 2.3zm-44.1 39c-3.5 5.8-7.6 11.8-13.2 15.9-1 0.8-2.5-0.7-1.8-1.8 4-5.3 8.8-10 12.8-15.4 1-1.3 3.1-0.1 2.2 1.3zm39-1.9c-3.2 5-6.9 9.5-10.9 14-2.5 2.9-6.5-1.3-4.1-4.2 3.5-4.5 7.1-8.8 11.2-12.7 2-1.9 5.4 0.5 3.8 2.9zm43.5-62.3c-3 4.2-6.2 8-9.6 11.7-1.8 1.9-5.3-0.6-3.7-2.8 3.1-4 6.2-7.9 9.8-11.6 1.7-1.7 5 0.6 3.5 2.7zm-0.2 39.4c-2.3 2.8-4.4 5.9-6.9 8.5-2.3 2.4-4.5 5.5-7.4 7.2-1.2 0.8-3.2-0.5-2.6-2 1.4-3.3 4.2-6 6.5-8.7 2.3-2.7 5.2-5.1 7.9-7.5 1.7-1.5 3.9 0.8 2.5 2.5zm-36.7 60.8c-5.6 4.6-10.3 10.2-15.9 14.7-1.8 1.5-4.4-0.3-3.3-2.5 3.7-6.8 10.3-11.5 16.8-15.3 1.9-1.1 4.2 1.7 2.4 3.1zm-51.4 28.5c-1.6 2-3.2 3.9-4.9 5.7-1.7 1.9-4.5-0.9-2.8-2.8 1.8-1.8 3.5-3.5 5.4-5.2 1.6-1.5 3.6 0.7 2.3 2.3zm90.8-41.3c-4.1 2.9-8.4 5.6-12.5 8.6-1.4 1.1-3.1-1.3-1.9-2.5 3.9-3.7 7.8-6.8 12.6-9.2 2.1-1 3.6 1.8 1.8 3.1zm-10 28.7c-5.4 4.6-10.9 8.9-16.8 12.7-2 1.2-4.2-1.6-2.5-3.2 5.3-4.7 10.8-8.9 16.7-12.8 2-1.4 4.4 1.7 2.6 3.3zm-51 30.1c-4 3.3-7.9 6.8-12.4 9.4-1.8 1-3.8-1.5-2.2-2.9 3.8-3.5 8.4-6.1 12.8-8.9 1.4-0.9 3.2 1.3 1.8 2.4zm-58.1-23.4c-4.2 4.6-8.9 8.3-14.4 11.4-1.7 1-3-1.5-1.5-2.6 4.8-3.4 9.4-7.1 13.7-11 1.5-1.3 3.6 0.7 2.2 2.2zm-13.7-69.5c-4.1 4.2-8.7 7.7-13.4 11.2-1.6 1.2-3.3-1.3-2-2.6 4.1-4.2 8.2-8.3 12.9-11.8 2-1.5 4.1 1.5 2.5 3.2zm-5-81.4c-2.5 2.1-5 4.1-7.8 5.7-1.7 0.9-3.7-1.4-2.2-2.8 2.5-2.2 5.2-3.8 8-5.5 1.6-1 3.5 1.4 2 2.6zm137.2-63.2c-1.2 2.6-3 4.6-5.5 5.9-2.5 1.4-4.5-2.1-2.2-3.7 1.8-1.2 3.5-2.7 4.9-4.4 0.6-0.7 1.9-0.6 2.5 0 0.6 0.7 0.6 1.5 0.3 2.2zm-127.8-2.6c-4.6 4.1-9.3 7.8-14.6 11.1-1.1 0.7-2.1-1-1-1.8 4.8-3.4 9.7-6.9 14.4-10.6 0.8-0.6 2 0.5 1.2 1.3zm149.8 146.2c-2.6 2.4-5.3 4.6-8.3 6.5-1.9 1.3-4.2-1.6-2.5-3.1 2.8-2.3 5.6-4.3 8.7-6.1 1.7-1 3.6 1.4 2.1 2.7zm-4.5-85.5c-3.8 4-8.1 7.6-12.4 11.1-1.8 1.5-4.3-0.9-2.6-2.6 4.1-4 8.2-7.9 12.8-11.4 1.7-1.3 3.6 1.4 2.2 2.9zm13.2 152.9c-4.1 5.8-8.8 11.2-13.8 16.2-1.3 1.3-3.7-0.4-2.6-2 4.1-5.8 8.5-11.4 13.5-16.5 1.4-1.4 4.2 0.5 2.9 2.3zm-44.7 30.2c-3.6 1.8-7.2 4-11 5.5-2 0.9-3.3-2.1-2-3.4 2.9-3 7.5-4.9 11.5-5.7 2.1-0.4 3.6 2.5 1.5 3.6zm-110.8-57.6c-4.3 2.4-8.4 5.3-12.2 8.4-1.1 0.9-2.4-0.5-1.5-1.5 3.5-4 7.6-7 12.5-9.1 1.4-0.7 2.7 1.3 1.2 2.2zm-12.5-68.3c-1.2 1.2-2.4 2.1-3.9 2.9-0.6 0.4-1.3 0.8-2 1.2-0.3 0.2-0.8 0.4-1.1 0.4q-0.2 0-0.3-0.1-0.1 0.1-0.2 0.1 0 0 0 0c-0.4 0.1-0.7-0.3-0.8-0.6-0.1-0.2 0-0.5 0.1-0.7 0.4-0.5 0 0 0 0.1q0-0.4 0.2-0.6c0.5-0.8 1.1-1.3 1.8-1.9 1.4-1.2 2.9-2.1 4.4-3 1.4-0.9 3 1.1 1.8 2.2zm-8.2 3.3q0 0 0 0 0 0 0 0zm54.3-3c-2.1 2.4-4.3 4.6-6.9 6.4-2.2 1.5-4.5 3.5-7.1 4.2-1.2 0.3-2.4-1.1-1.7-2.3 1.7-2.4 4.6-4.2 6.8-6.1 2.2-1.8 4.3-3.5 6.6-5.2 1.8-1.4 3.7 1.5 2.3 3zm44.7-122.2c-3.4 2.5-6.9 4.5-10.5 6.7-1.9 1.1-3.7-1.8-1.7-3.1 3.5-2.2 6.9-4.4 10.6-6.3 1.8-0.9 3.2 1.5 1.6 2.7z"/><path class="j" d="m362.9 368.2c3.8-1.5 7.4-3.7 11-5.5 1.3-0.7 1.2-2.1 0.4-3q-2.3 0.1-4.7 0.1c-3.2 1-6.5 2.7-8.7 5-1.3 1.3 0 4.3 2 3.4z"/><path class="j" d="m325.7 356.6c-4.4 2.8-9 5.4-12.8 8.9-1.6 1.4 0.4 3.9 2.2 2.9 4.5-2.6 8.4-6.1 12.4-9.4 1.4-1.1-0.4-3.3-1.8-2.4z"/><path class="j" d="m255.7 266.1c1.6-1.7-0.5-4.7-2.5-3.2-4.7 3.5-8.8 7.6-12.9 11.8-1.3 1.3 0.4 3.8 2 2.6 4.7-3.5 9.3-7 13.4-11.2z"/><path class="j" d="m415.7 330.2c-4 4-7.6 8.4-11 13q1.3-0.6 2.6-1.3 3.9-2 7.6-4.4 1.9-2.4 3.7-5c1.3-1.8-1.5-3.7-2.9-2.3z"/><path class="j" d="m267.2 333.4c-4.3 3.9-8.9 7.6-13.7 11-1.5 1.1-0.2 3.6 1.5 2.6 5.5-3.1 10.2-6.8 14.4-11.4 1.4-1.5-0.7-3.5-2.2-2.2z"/><path class="j" d="m248.7 182.1c-2.8 1.7-5.5 3.3-8 5.5-1.5 1.4 0.5 3.7 2.2 2.8 2.8-1.6 5.3-3.6 7.8-5.7 1.5-1.2-0.4-3.6-2-2.6z"/><path class="j" d="m250.9 313.5c3.8-3.1 7.9-6 12.2-8.4 1.5-0.9 0.2-2.9-1.2-2.2-4.9 2.1-9 5.1-12.5 9.1-0.9 1 0.4 2.4 1.5 1.5z"/><path class="j" d="m245.5 130c4.2-2.6 8-5.5 11.7-8.6q0.2-1.4 0.5-2.9c-4.3 3.4-8.8 6.6-13.2 9.7-1.1 0.8-0.1 2.5 1 1.8z"/><path class="j" d="m242.3 240.7c0.1 0.3 0.4 0.7 0.8 0.6q0 0 0 0 0.1 0 0.2-0.1 0.1 0.1 0.3 0.1c0.3 0 0.8-0.2 1.1-0.4 0.7-0.4 1.4-0.8 2-1.2 1.5-0.8 2.7-1.7 3.9-2.9 1.2-1.1-0.4-3.1-1.8-2.2-1.5 0.9-3 1.8-4.4 3-0.7 0.6-1.3 1.1-1.8 1.9q-0.2 0.2-0.2 0.6c0-0.1 0.4-0.6 0-0.1-0.1 0.2-0.2 0.5-0.1 0.7z"/><path class="j" d="m292.8 347.2q2.1-2.3 4.1-4.7-1.6-0.9-3.1-1.8-1.9 1.8-3.8 3.7c-1.7 1.9 1.1 4.7 2.8 2.8z"/><path class="d" d="m320.2 196.9c-6.2 0.1-11.6-1.9-16.2-6.1-19-17.4-17.1-65.7-17-67.7 0-0.8 0.7-1.3 1.4-1.3 0.7 0.1 1.2 0.7 1.2 1.4 0 0.5-1.9 49.1 16.2 65.6 4.8 4.4 10.6 6.2 17.4 5.3 36.9-5 36.2-72 36.2-72.7 0-0.7 0.6-1.3 1.3-1.3q0 0 0 0c0.7-0.1 1.3 0.5 1.3 1.2 0 0.2 0.3 17.6-4.3 35.4-6 23.9-17.9 37.7-34.2 39.9q-1.6 0.3-3.3 0.3z"/><path class="g" d="m324.1 192.8c-6.1 0-11.6-2.1-16.4-6.2-19.6-16.9-20.4-62.4-20.4-64.3-0.1-0.6 0.4-1.1 1-1.1 0.6 0 1 0.5 1 1 0.1 0.5 0.9 46.6 19.8 62.9 5.3 4.5 11.5 6.3 18.6 5.4 15.5-2.1 25.5-14.4 29.9-36.6 3.4-16.7 2-33.1 2-33.2 0-0.6 0.4-1.1 1-1.2 0.5 0 1 0.4 1.1 1 0 0.2 1.4 16.8-2 33.8-4.5 22.8-15.5 36-31.7 38.2q-2 0.3-3.9 0.3z"/><path class="k" d="m291.9 151.1l12.6 5.9 13.1-3.7 11 252.2-24.8 4.7-20.3 8.1c0 0-139.2-1.6-158.3-2.7-19.1-1.2-28.9-2.9-28.9-2.9 0 0 13.2-147.6 15.3-169.6 2.1-22 8.5-80.4 8.3-83.8-0.2-3.5 2.8-14.2 2.8-14.2 0 0 74.8 0.8 91 1.6 16.2 0.8 74.2 3.4 78.2 4.4z"/><path fill-rule="evenodd" class="l" d="m125.3 397.1c7.7 3.2 16.2 4.3 24.5 4.7 22.3 1.1 44.7-2.4 65.5-10.2 6.9-2.5 13.6-5.5 19.5-9.7 18.1-12.8 27.1-34.9 32.1-56.5 10.3-43.5 8.5-88.9 6.5-133.6-0.6-14.1-1.3-28.7-6-42 12.7 0.7 22.9 1.3 24.5 1.7l12.6 5.9 13.1-3.6 11 252.1-24.8 4.8-20.3 8.1c0 0-139.2-1.6-158.3-2.8-19.1-1.1-28.9-2.9-28.9-2.9 0 0 1.4-15.9 3.4-37.9 6.5 9.6 14.8 17.5 25.6 21.9zm-25.2-26.4c0.5-6.4 1.2-13.3 1.8-20.3 9.2 10.1 20.6 18.2 32 25.9 3.8 2.6 7.7 5.2 11.9 7 9.2 3.7 19.7 3.1 29 6.4-18.4 6.2-39.2 3.1-56.4-6-6.6-3.6-12.7-8-18.3-13zm127.3 0c17.6-21.1 30-46.6 35.8-73.5 1.6 14.2-1.6 28.7-8.2 41.3-6.6 12.7-16.4 23.5-27.6 32.2z"/><path class="l" d="m287 369.6c0.2-23.3 4.9-218.1 4.9-218.1l12.6 5.9 13.1-3.6 11 252.1-24.8 4.8-20.3 8.1c0 0 3.4-26 3.5-49.2z"/><path class="m" d="m283.5 418.8c0 0 1-7.4 1.9-17.7q0.6-0.3 1.3-0.4c7.4-0.2 8.5-8.4 9.4-38 0.8-27.3 1.5-184.8 1.6-208.4l6.8 3.1 5.7-1.6c-2.7 38.2-3.7 223.3 2.5 234.8 3.8 7.2 10.6 8.5 15.6 8.3l0.3 7-24.8 4.8z"/><path class="n" d="m240.3 170.4c-2.9 0-5.2-2.4-5.2-5.5 0-3 2.3-5.5 5.2-5.5 2.9 0 5.2 2.5 5.2 5.5 0 3.1-2.3 5.5-5.2 5.5z"/><path class="n" d="m168 168.4c-2.4 0-4.2-2.5-4.2-5.5 0-3.1 1.8-5.5 4.2-5.5 2.3 0 4.2 2.4 4.2 5.5 0 3-1.9 5.5-4.2 5.5z"/><path fill-rule="evenodd" class="o" d="m240.3 171.3h-0.3c-3.8-0.1-5.5-3.2-5.4-6.1 0-3.2 2.2-6.5 6.2-6.5h0.3c3.3 0.1 5.1 3.2 5 6.2 0 3.1-1.9 6.4-5.8 6.4zm0.5-11.2c-3.1 0-4.8 2.6-4.8 5.1-0.1 2.3 1.2 4.6 4.1 4.7h0.2c3 0 4.4-2.6 4.4-5 0-2.3-1.1-4.8-3.7-4.8z"/><path fill-rule="evenodd" class="o" d="m167.7 169.1h-0.1c-3.5-0.1-5.1-3.2-5-6.1 0-3.2 2-6.5 5.7-6.5h0.2c3.2 0.1 4.6 3.3 4.6 6.2-0.1 3.1-1.8 6.4-5.4 6.4zm0.6-11.2c-2.8 0-4.3 2.6-4.3 5.2-0.1 2.2 1 4.5 3.6 4.6h0.1c2.7 0 4-2.6 4-5.1 0-2.2-1-4.7-3.2-4.7z"/><path class="p" d="m125.2 415.6q1.7 0.1 4.5 0.2c0.8-9 1.4-18 1.9-27 1.1-19.2 1.6-38.4 2.9-57.5 2.5-38.5 6.8-76.9 12.3-115.1q2.8-19.4 6.2-38.7c1.9-10.7 3.8-21.4 6.7-31.9q-4.2-0.1-8.2-0.1c-2.2 5.6-3.8 11.4-5.2 17.3-2.2 9.3-4.1 18.6-6 28-3.8 19-7.1 38.1-9.9 57.3-5.6 38.3-9 76.7-10.9 115.2-0.6 13.4-1 26.8-1.8 40.2q-0.4 5.7-0.8 11.5 3.8 0.3 8.3 0.6z"/><path class="p" d="m260.9 149c-2.9-0.1-6-0.3-9-0.4-4.3 34.1-6.3 68.5-6.7 102.9-0.4 38.5 1.2 76.9 4.8 115.2 1.5 14.8 3.4 29.5 5.4 44.2q0.5 3.5 1 7.1c5.2 0.1 9.8 0.1 13.7 0.2-0.9-7.2-1.9-14.3-2.7-21.4-2.2-19.1-3.9-38.3-5.3-57.5-2.8-38.4-4.1-76.8-3.8-115.3 0.2-25 1.3-50 2.6-75z"/><path class="p" d="m178.3 384.5c0-19.4-0.5-38.8-0.7-58.2-0.6-38.6 0.1-77.1 3-115.5 1-12.7 2.3-25.4 3.5-38.1 0.9-8.8 2.3-17.8 3.2-26.7-3.1 0-6.3-0.1-9.6-0.1-1 5.3-1.8 10.8-2.7 16.2q-2.3 14.4-4.1 28.9c-2.3 19.2-4.2 38.4-5.3 57.7-2.3 38.6-1.8 77.1-1.2 115.7 0.2 17.4 0.8 34.8 1.4 52.2q6.1 0.2 12.6 0.3-0.1-16.2-0.1-32.4z"/><path class="p" d="m207.6 252.3c-0.5 38.6 0.6 77.3 3.1 115.9 0.8 11.6 1.7 23.2 2.8 34.8 0.5 4.8 0.9 9.6 1.4 14.4q6.9 0.1 13.6 0.2-0.5-4.3-0.8-8.6c-0.7-9.7-1.4-19.3-2.1-29q-2.1-28.9-3.1-57.9c-1.5-38.7-1.5-77.3-0.8-116q0.3-16.9 0.9-33.7c0.4-8.4 0.8-16.8 1-25.2-4-0.2-7.4-0.4-9.9-0.5q-0.2 0-0.4 0c-2.1 15.8-2.8 31.7-3.7 47.6-1.2 19.3-1.8 38.6-2 58z"/><path class="q" d="m129.6 416.2q0.8-8.5 1.4-17.1-2.9-0.8-5.7-2-3.8-1.5-7.1-3.6-0.2 5-0.5 10-0.4 5.9-0.9 11.9 3.9 0.3 8.4 0.6 1.7 0.1 4.4 0.2z"/><path class="q" d="m178.4 400.7q-6.5 0.8-13.1 1.1 0.3 7.7 0.5 15.3 6.1 0.1 12.6 0.2 0-8.3 0-16.6z"/><path class="q" d="m118.6 383.8c4.2 2.1 8.5 4 13 5.4q0-0.2 0-0.4 0.4-6.8 0.7-13.6c-4.4-2.9-8.7-6-12.9-9.2q-0.4 8.9-0.8 17.8z"/><path class="q" d="m164.9 387.3q0 2.4 0.1 4.8 5-0.8 9.8-2.4c-3.2-1.1-6.5-1.8-9.9-2.4z"/><path class="q" d="m212.6 392.6q0.4 5.2 0.9 10.4c0.5 4.9 0.9 9.9 1.4 14.9q6.9 0.1 13.6 0.2-0.4-4.6-0.8-9.1c-0.6-7.3-1.1-14.7-1.6-22-3.5 1.8-7.1 3.3-10.8 4.6q-1.3 0.6-2.7 1z"/><path class="q" d="m267.4 396.8c-2.1-18.3-3.8-36.7-5.1-55.1-3.1 8.8-7.1 17.2-12.3 24.7q0 0.1 0 0.3c1.5 14.8 3.4 29.5 5.4 44.2q0.5 3.8 1.1 7.5c5.1 0.1 9.7 0.2 13.6 0.2-0.9-7.3-1.9-14.5-2.7-21.8z"/><path class="q" d="m248.5 349.1q3.6-5.1 6.5-10.6c2.5-4.8 4.6-10 6-15.3q-0.4-7.2-0.8-14.3c-3.1 10.7-7.3 21.1-12.4 31q0.3 4.6 0.7 9.2z"/><path class="g" d="m111.6 243.6c2.1-22 8.5-80.4 8.3-83.9-0.2-3.5 2.7-14.1 2.7-14.1 0 0 74.9 0.8 91.1 1.5 8.5 0.5 28.4 1.4 46.1 2.3l1.8 0.4c0 0-129.7 0.8-132.3 1.6-2.6 0.8-19.7 162.2-24.3 170.3l-0.1-4.7c3-33.1 5.8-64.2 6.7-73.4z"/><path fill-rule="evenodd" class="o" d="m284.1 420.2q0 0 0 0c-6.8-0.1-166.5-1-187.6-5.7-0.5-0.1-0.9-0.6-0.8-1.1 0.8-10.2 20.7-249.3 26-268.3 0.2-0.5 0.6-0.8 1.1-0.8 6.2 0.1 151.8 3.2 168.8 5.8 0.6 0.1 0.9 0.5 0.9 1-0.1 10.5-3.6 257.4-7.4 268.3-0.2 0.5-0.6 0.8-1 0.8zm-186.3-7.6c23.4 4.4 173 5.4 185.5 5.5 2.9-14.6 5.9-178.8 7.1-266.1-19.9-2.4-154.9-5.3-166.8-5.6-5.5 23.2-24.4 249.7-25.8 266.2z"/><path class="o" d="m284.1 420.2c-0.4 0-0.8-0.3-1-0.7-0.2-0.5 0-1.1 0.6-1.4l19.5-8.3q0.1-0.1 0.2-0.1l24-4.6c-2.4-21.1-10-229.5-10.8-249.8l-12 2.8q-0.4 0.1-0.7 0l-12.9-6c-0.5-0.3-0.7-0.9-0.5-1.4 0.3-0.5 0.9-0.8 1.4-0.5l12.5 5.8 13-3c0.3-0.1 0.6 0 0.8 0.2 0.3 0.1 0.4 0.4 0.5 0.7 0 2.4 8.7 237.6 10.9 251.9 0.1 0.6-0.2 1.1-0.8 1.2l-24.9 4.7-19.4 8.4q-0.2 0.1-0.4 0.1z"/><path class="o" d="m303.6 411.8c-0.5 0-1-0.5-1-1 0-2-4.5-196.4 0.6-252.2 0.1-0.6 0.6-1 1.2-1 0.5 0.1 1 0.6 0.9 1.2-5.1 55.6-0.7 250-0.6 251.9 0 0.6-0.5 1.1-1 1.1q0 0-0.1 0z"/><path class="l" d="m207.2 239.7c6.2 0.2 11.7-1.8 16.3-6 19.2-17.1 17.9-65.4 17.8-67.4 0-0.8-0.6-1.3-1.3-1.3-0.7 0-1.3 0.6-1.3 1.3 0 0.5 1.4 49.1-16.9 65.5-4.9 4.3-10.7 6-17.5 5-36.8-5.4-35.4-72.4-35.4-73.1 0.1-0.7-0.5-1.3-1.2-1.3q0 0 0 0c-0.7-0.1-1.3 0.5-1.4 1.2 0 0.2-0.4 17.6 3.9 35.5 5.8 24 17.4 37.9 33.7 40.3q1.7 0.2 3.3 0.3z"/><path class="g" d="m203.8 235.5q-2.1 0-4.3-0.3c-16.2-2.4-27-15.7-31.2-38.6-3.2-17-1.6-33.6-1.6-33.8 0-0.6 0.5-1 1.1-0.9 0.6 0 1 0.5 1 1.1-0.1 0.2-1.6 16.5 1.5 33.3 4.2 22.2 14.1 34.6 29.5 36.9 7.1 1 13.4-0.7 18.7-5.2 19.1-16.1 20.5-62.1 20.5-62.6 0-0.6 0.5-1 1-1q0.1 0 0.1 0c0.5 0 1 0.5 1 1.1-0.1 1.9-1.5 47.4-21.3 64.1-4.7 3.9-10.1 5.9-16 5.9z"/><path class="r" d="m275.9 196.3l-12.5 5.9-13.2-3.7-11 252.2 24.8 4.7 20.3 8.1c0 0 139.2-1.6 158.3-2.7 19.1-1.2 28.9-2.9 28.9-2.9 0 0-13.1-147.6-15.2-169.6-2.2-21.9-8.6-80.4-8.4-83.8 0.2-3.5-2.7-14.2-2.7-14.2 0 0-74.8 0.8-91.1 1.6-16.2 0.8-74.1 3.4-78.2 4.4z"/><path fill-rule="evenodd" class="s" d="m468.2 420.4c1.9 22.1 3.3 37.9 3.3 37.9 0 0-9.8 1.8-28.9 2.9-19.1 1.2-158.3 2.8-158.3 2.8l-20.2-8.1-24.8-4.8 10.9-252.1 13.2 3.6 12.6-5.9c1.6-0.3 11.7-1 24.4-1.7-4.7 13.3-5.4 27.9-6 42.1-1.9 44.6-3.8 90 6.5 133.5 5.1 21.6 14.1 43.7 32.1 56.5 6 4.2 12.7 7.2 19.5 9.8 20.8 7.7 43.3 11.2 65.5 10.1 8.4-0.4 16.8-1.5 24.6-4.7 10.8-4.4 19-12.3 25.6-21.9zm-18.8 8.5c-17.1 9.1-37.9 12.2-56.4 6 9.4-3.3 19.8-2.7 29-6.4 4.3-1.8 8.1-4.4 11.9-7 11.4-7.7 22.9-15.8 32-25.9 0.7 7.1 1.3 13.9 1.9 20.3-5.6 5-11.8 9.4-18.4 13zm-136.6-45.2c-6.5-12.6-9.8-27.1-8.1-41.3 5.8 26.9 18.2 52.4 35.7 73.5-11.2-8.7-21-19.5-27.6-32.2z"/><path class="s" d="m280.8 414.8c-0.1-23.2-4.8-218.1-4.8-218.1l-12.6 5.9-13.2-3.6-10.9 252.1 24.8 4.8 20.2 8.1c0 0-3.4-26-3.5-49.2z"/><path class="t" d="m284.3 464c0 0-0.9-7.4-1.9-17.7q-0.6-0.3-1.2-0.4c-7.4-0.2-8.6-8.4-9.5-38-0.8-27.3-1.5-184.8-1.5-208.4l-6.8 3.1-5.7-1.5c2.6 38.1 3.6 223.2-2.5 234.7-3.8 7.2-10.6 8.5-15.6 8.3l-0.3 7 24.8 4.8z"/><path class="u" d="m327.6 215.6c-2.9 0-5.3-2.4-5.3-5.5 0-3 2.4-5.5 5.3-5.5 2.8 0 5.2 2.5 5.2 5.5 0 3.1-2.4 5.5-5.2 5.5z"/><path class="u" d="m399.9 213.6c-2.3 0-4.2-2.5-4.2-5.5 0-3.1 1.9-5.5 4.2-5.5 2.3 0 4.2 2.4 4.2 5.5 0 3-1.9 5.5-4.2 5.5z"/><path class="g" d="m456.3 288.8c-2.1-22-8.5-80.4-8.4-83.9 0.2-3.5-2.7-14.1-2.7-14.1 0 0-74.8 0.8-91.1 1.6-8.5 0.4-28.4 1.3-46 2.2l-1.9 0.4c0 0 129.7 0.8 132.3 1.6 2.7 0.8 19.7 162.2 24.3 170.3l0.1-4.7c-2.9-33.1-5.7-64.2-6.6-73.4z"/><path fill-rule="evenodd" class="v" d="m327.6 216.5c-4 0-5.8-3.3-5.9-6.4 0-3 1.7-6.1 5.1-6.2h0.2c4.1 0 6.2 3.3 6.3 6.5 0 2.9-1.7 6-5.5 6.1zm-0.6-11.2h-0.2c-2.6 0-3.7 2.5-3.7 4.8 0.1 2.4 1.5 5 4.5 5h0.2c2.9-0.1 4.1-2.4 4.1-4.7 0-2.5-1.7-5.1-4.9-5.1z"/><path class="s" d="m360.6 284.9c-6.2 0.2-11.7-1.8-16.3-6-19.2-17.1-17.9-65.4-17.8-67.4 0-0.8 0.6-1.3 1.4-1.3 0.7 0 1.2 0.6 1.2 1.3 0 0.5-1.4 49.1 17 65.5 4.8 4.3 10.7 6 17.4 5 36.9-5.4 35.4-72.4 35.4-73.1 0-0.7 0.5-1.3 1.3-1.3q0 0 0 0c0.7 0 1.3 0.5 1.3 1.2 0 0.2 0.4 17.6-3.9 35.5-5.7 24-17.4 37.9-33.7 40.3q-1.7 0.2-3.3 0.3z"/><path fill-rule="evenodd" class="v" d="m400.1 214.3c-3.6 0-5.3-3.3-5.4-6.4 0-2.9 1.4-6.1 4.6-6.2h0.2c3.7 0 5.7 3.3 5.8 6.5 0 2.9-1.5 6-5 6.1zm-0.6-11.2h-0.1c-2.3 0-3.3 2.5-3.3 4.8 0 2.4 1.3 5 4 5h0.1c2.6-0.1 3.7-2.4 3.6-4.6 0-2.6-1.5-5.2-4.3-5.2z"/><path class="g" d="m364.1 280.7c-6 0-11.4-1.9-16.1-5.9-19.8-16.7-21.2-62.2-21.2-64.1-0.1-0.6 0.4-1.1 1-1.1q0 0 0 0c0.6 0 1 0.4 1 1 0.1 0.5 1.5 46.5 20.5 62.6 5.3 4.5 11.6 6.2 18.7 5.2 37-5.5 31.1-69.5 31.1-70.2-0.1-0.6 0.3-1.1 0.9-1.1 0.6-0.1 1.1 0.3 1.2 0.9 0 0.2 1.5 16.8-1.6 33.8-4.3 22.9-15.1 36.3-31.3 38.6q-2.2 0.3-4.2 0.3z"/><path fill-rule="evenodd" class="v" d="m283.8 465.4c-0.5 0-0.9-0.3-1-0.7-3.8-11-7.4-257.8-7.5-268.4 0-0.5 0.4-0.9 0.9-1 17-2.6 162.7-5.7 168.9-5.8q0 0 0 0c0.5 0 0.9 0.3 1 0.8 5.4 19 25.2 258.1 26.1 268.3 0 0.5-0.3 1-0.9 1.1-21.1 4.7-180.8 5.6-187.5 5.7q0 0 0 0zm-6.4-268.2c1.2 87.4 4.3 251.5 7.2 266.1 12.4-0.1 162-1.1 185.4-5.5-1.4-16.4-20.3-243-25.7-266.2-11.9 0.3-147 3.2-166.9 5.6z"/><path class="v" d="m283.8 465.4q-0.3 0-0.5-0.1l-19.4-8.4-24.9-4.7c-0.5-0.1-0.9-0.6-0.8-1.2 2.3-14.3 10.9-249.5 11-251.8 0-0.4 0.1-0.7 0.4-0.8 0.2-0.2 0.6-0.3 0.9-0.2l12.9 3 12.5-5.8c0.5-0.3 1.1 0 1.4 0.5 0.2 0.5 0 1.1-0.5 1.4l-12.8 6q-0.4 0.1-0.7 0l-12.1-2.8c-0.7 20.3-8.4 228.7-10.8 249.8l24 4.6q0.1 0 0.2 0.1l19.6 8.4c0.5 0.2 0.7 0.8 0.5 1.3-0.2 0.4-0.5 0.7-0.9 0.7z"/><path class="v" d="m264.2 457q0 0 0 0c-0.6 0-1.1-0.5-1.1-1.1 0.1-1.9 4.5-196.3-0.6-251.9 0-0.6 0.4-1.1 1-1.2 0.5 0 1 0.4 1.1 1 5.1 55.8 0.7 250.2 0.6 252.2 0 0.5-0.4 1-1 1z"/><path class="w" d="m312.3 229.6q0-1.5-0.7-2.9-0.5-0.5-0.9-1.1-1.1-1.1-2.6-1.5c-1.1-0.2-2-0.3-3.1 0-1.1 0.3-1.9 0.8-2.7 1.6-0.9 0.7-1.1 1.5-1.5 2.5-0.2 0.6-0.3 1.2-0.3 1.8q0 1.5 0.8 2.8c0.7 1.2 1.9 2.1 3.3 2.5 1.1 0.3 2.4 0.2 3.4-0.2q0.1 0 0.1 0 1.5-0.4 2.6-1.5 0 0 0 0-0.1 0.1-0.2 0.2c0.8-0.7 1.4-1.6 1.6-2.6 0.1-0.5 0.3-1.1 0.2-1.6z"/><path class="w" d="m334 269q0-1.6-0.8-2.9-0.4-0.6-0.9-1.2-1-1-2.5-1.4c-1.2-0.3-2-0.4-3.2 0-1.1 0.3-1.8 0.8-2.6 1.5-0.9 0.8-1.1 1.5-1.6 2.6-0.2 0.5-0.3 1.1-0.2 1.7q0 1.5 0.8 2.8c0.7 1.2 1.9 2.2 3.3 2.5 1.1 0.4 2.3 0.3 3.4-0.1q0.1 0 0.1 0 1.5-0.5 2.5-1.5 0.1 0 0.1-0.1-0.1 0.1-0.2 0.2c0.7-0.7 1.4-1.5 1.6-2.6 0.1-0.5 0.3-1 0.2-1.5z"/><path class="w" d="m364 220.8q0-1.6-0.8-2.9-0.4-0.6-0.9-1.1-1.1-1.1-2.5-1.5c-1.2-0.2-2-0.3-3.2 0-1.1 0.3-1.8 0.8-2.6 1.5-0.9 0.8-1.2 1.6-1.6 2.6-0.2 0.5-0.3 1.2-0.2 1.7q0 1.5 0.7 2.8c0.8 1.3 2 2.2 3.3 2.6 1.2 0.3 2.4 0.2 3.5-0.2q0 0 0.1 0 1.4-0.4 2.5-1.5 0 0 0.1 0-0.2 0-0.3 0.1c0.8-0.7 1.4-1.5 1.7-2.6 0.1-0.5 0.2-1 0.2-1.5z"/><path class="w" d="m387.5 247.8q0-1.5-0.8-2.9-0.4-0.5-0.9-1.1-1.1-1.1-2.5-1.5c-1.2-0.2-2-0.3-3.2 0-1.1 0.3-1.8 0.8-2.6 1.6-0.9 0.7-1.2 1.5-1.6 2.5-0.2 0.6-0.3 1.2-0.2 1.8q0 1.5 0.7 2.7c0.8 1.3 2 2.2 3.3 2.6 1.2 0.3 2.4 0.2 3.5-0.2q0 0 0.1 0 1.4-0.4 2.5-1.5 0 0 0.1 0-0.2 0.1-0.3 0.2c0.8-0.7 1.4-1.6 1.7-2.6 0.1-0.5 0.2-1.1 0.2-1.6z"/><path class="w" d="m430.9 222.5q0-1.5-0.7-2.8-0.5-0.6-0.9-1.2-1.1-1-2.5-1.5c-1.2-0.2-2-0.3-3.2 0.1-1.1 0.3-1.8 0.7-2.7 1.5-0.9 0.8-1.1 1.5-1.5 2.6-0.2 0.5-0.3 1.1-0.2 1.7q0 1.5 0.7 2.8c0.7 1.2 1.9 2.2 3.3 2.5 1.2 0.3 2.4 0.3 3.5-0.1q0 0 0.1-0.1 1.4-0.4 2.5-1.4 0-0.1 0-0.1-0.1 0.1-0.2 0.2c0.8-0.7 1.4-1.5 1.6-2.6 0.2-0.5 0.3-1 0.2-1.6z"/><path class="w" d="m440.3 281.9q0-1.6-0.7-2.9-0.5-0.6-0.9-1.2-1.1-1-2.5-1.4c-1.2-0.2-2-0.3-3.2 0-1.1 0.3-1.8 0.8-2.7 1.5-0.9 0.8-1.1 1.6-1.5 2.6-0.2 0.5-0.3 1.2-0.2 1.7q0 1.5 0.7 2.8c0.7 1.3 1.9 2.2 3.3 2.6 1.2 0.3 2.4 0.2 3.5-0.2q0 0 0.1 0 1.4-0.4 2.5-1.5 0 0 0 0-0.1 0-0.2 0.1c0.8-0.7 1.4-1.5 1.6-2.6 0.2-0.5 0.3-1 0.2-1.5z"/><path class="w" d="m392.8 365.3q0-1.5-0.8-2.9-0.5-0.5-0.9-1.1-1.1-1.1-2.5-1.5c-1.2-0.2-2-0.3-3.2 0-1.1 0.3-1.8 0.8-2.7 1.5-0.8 0.8-1.1 1.6-1.5 2.6-0.2 0.6-0.3 1.2-0.2 1.8q0 1.5 0.7 2.7c0.7 1.3 2 2.2 3.3 2.6 1.2 0.3 2.4 0.2 3.5-0.2q0 0 0.1 0 1.4-0.4 2.5-1.5 0 0 0 0-0.1 0.1-0.2 0.2c0.8-0.7 1.4-1.6 1.7-2.6 0.1-0.5 0.2-1.1 0.2-1.6z"/><path class="w" d="m453.3 366.5q0-1.6-0.8-2.9-0.5-0.6-0.9-1.2-1.1-1-2.5-1.4c-1.2-0.2-2-0.3-3.2 0-1.1 0.3-1.8 0.8-2.7 1.5-0.8 0.8-1.1 1.6-1.5 2.6-0.2 0.5-0.3 1.2-0.2 1.7q0 1.5 0.7 2.8c0.8 1.3 2 2.2 3.3 2.6 1.2 0.3 2.4 0.2 3.5-0.2q0 0 0.1 0 1.4-0.4 2.5-1.5 0 0 0 0-0.1 0-0.2 0.1c0.8-0.7 1.4-1.5 1.7-2.6 0.1-0.5 0.2-1 0.2-1.5z"/><path class="w" d="m429.8 405.8q0-1.6-0.8-2.9-0.4-0.6-0.8-1.1-1.1-1.1-2.6-1.5c-1.2-0.2-2-0.3-3.2 0-1.1 0.3-1.8 0.8-2.6 1.5-0.9 0.8-1.1 1.6-1.5 2.6-0.3 0.6-0.3 1.2-0.3 1.7q0 1.5 0.8 2.8c0.7 1.3 1.9 2.2 3.3 2.6 1.1 0.3 2.3 0.2 3.4-0.2q0.1 0 0.1 0 1.5-0.4 2.6-1.5 0 0 0 0-0.1 0.1-0.2 0.1c0.8-0.7 1.4-1.5 1.6-2.6 0.1-0.5 0.3-1 0.2-1.5z"/><path class="w" d="m353.4 401.1q0-1.5-0.8-2.8-0.4-0.6-0.9-1.2-1-1.1-2.5-1.5c-1.2-0.2-2-0.3-3.2 0.1-1.1 0.3-1.8 0.7-2.6 1.5-0.9 0.8-1.1 1.5-1.6 2.6-0.2 0.5-0.3 1.1-0.2 1.7q0 1.5 0.8 2.8c0.7 1.2 1.9 2.1 3.3 2.5 1.1 0.3 2.3 0.3 3.4-0.1q0.1 0 0.1-0.1 1.5-0.4 2.5-1.4 0.1-0.1 0.1-0.1-0.1 0.1-0.2 0.2c0.7-0.7 1.4-1.6 1.6-2.6 0.1-0.5 0.3-1 0.2-1.6z"/><path class="w" d="m387.5 430.5q0-1.5-0.8-2.9-0.4-0.5-0.9-1.1-1.1-1.1-2.5-1.5c-1.2-0.2-2-0.3-3.2 0-1.1 0.3-1.8 0.8-2.6 1.6-0.9 0.7-1.2 1.5-1.6 2.6-0.2 0.5-0.3 1.1-0.2 1.7q0 1.5 0.7 2.8c0.8 1.2 2 2.1 3.3 2.5 1.2 0.3 2.4 0.2 3.5-0.2q0 0 0.1 0 1.4-0.4 2.5-1.5 0 0 0.1 0-0.2 0.1-0.3 0.2c0.8-0.7 1.4-1.6 1.7-2.6 0.1-0.5 0.2-1.1 0.2-1.6z"/><path class="w" d="m376.3 299.5q0-1.5-0.8-2.9-0.4-0.5-0.9-1.1-1-1.1-2.5-1.5c-1.2-0.2-2-0.3-3.2 0-1.1 0.3-1.8 0.8-2.6 1.6-0.9 0.7-1.1 1.5-1.6 2.5-0.2 0.6-0.3 1.2-0.2 1.8q0 1.5 0.8 2.7c0.7 1.3 1.9 2.2 3.3 2.6 1.1 0.3 2.3 0.2 3.4-0.2q0.1 0 0.1 0 1.5-0.4 2.5-1.5 0.1 0 0.1 0-0.1 0.1-0.2 0.2c0.7-0.7 1.4-1.6 1.6-2.6 0.1-0.5 0.3-1.1 0.2-1.6z"/><path class="w" d="m307.6 303.6q0-1.5-0.8-2.9-0.4-0.5-0.9-1.1-1.1-1.1-2.5-1.5c-1.2-0.2-2-0.3-3.2 0-1.1 0.3-1.8 0.8-2.6 1.6-0.9 0.8-1.2 1.5-1.6 2.6-0.2 0.5-0.3 1.1-0.2 1.7q0 1.5 0.7 2.8c0.8 1.2 2 2.1 3.3 2.5 1.2 0.3 2.4 0.3 3.5-0.2q0 0 0.1 0 1.4-0.4 2.5-1.4 0-0.1 0.1-0.1-0.2 0.1-0.3 0.2c0.8-0.7 1.4-1.6 1.7-2.6 0.1-0.5 0.2-1.1 0.2-1.6z"/><path class="w" d="m343.4 350.7q0-1.6-0.8-2.9-0.5-0.6-0.9-1.2-1.1-1-2.5-1.4c-1.2-0.3-2-0.3-3.2 0-1.1 0.3-1.8 0.8-2.7 1.5-0.8 0.8-1.1 1.6-1.5 2.6-0.2 0.5-0.3 1.2-0.2 1.7q0 1.5 0.7 2.8c0.8 1.3 2 2.2 3.3 2.6 1.2 0.3 2.4 0.2 3.5-0.2q0 0 0.1 0 1.4-0.4 2.5-1.5 0 0 0 0-0.1 0-0.2 0.1c0.8-0.7 1.4-1.5 1.7-2.6 0.1-0.5 0.2-1 0.2-1.5z"/><path class="x" d="m302.9 384.1q0-1.5-0.8-2.9-0.4-0.6-0.9-1.1-1.1-1.1-2.5-1.5c-1.2-0.2-2-0.3-3.2 0-1.1 0.3-1.8 0.8-2.6 1.5-0.9 0.8-1.2 1.6-1.6 2.6-0.2 0.6-0.3 1.2-0.2 1.8q0 1.5 0.7 2.7c0.8 1.3 2 2.2 3.3 2.6 1.2 0.3 2.4 0.2 3.5-0.2q0 0 0.1 0 1.4-0.4 2.5-1.5 0 0 0.1 0-0.2 0.1-0.3 0.2c0.8-0.7 1.4-1.6 1.7-2.6 0.1-0.5 0.2-1.1 0.2-1.6z"/><path class="x" d="m309.3 455.2q0-1.6-0.7-2.9-0.5-0.6-0.9-1.1-1.1-1.1-2.5-1.5c-1.2-0.2-2.1-0.3-3.2 0-1.1 0.3-1.9 0.8-2.7 1.5-0.9 0.8-1.1 1.6-1.5 2.6-0.2 0.6-0.3 1.2-0.3 1.7q0 1.5 0.8 2.8c0.7 1.3 1.9 2.2 3.3 2.6 1.1 0.3 2.4 0.2 3.4-0.2q0.1 0 0.2 0 1.4-0.4 2.5-1.5 0 0 0 0-0.1 0.1-0.2 0.1c0.8-0.7 1.4-1.5 1.6-2.6 0.1-0.5 0.3-1 0.2-1.5z"/><path class="x" d="m351.6 444.4q0-1.6-0.8-2.9-0.4-0.6-0.9-1.2-1-1-2.5-1.4c-1.2-0.2-2-0.3-3.2 0-1.1 0.3-1.8 0.8-2.6 1.5-0.9 0.8-1.1 1.6-1.6 2.6-0.2 0.5-0.3 1.2-0.2 1.7q0 1.5 0.8 2.8c0.7 1.3 1.9 2.2 3.3 2.6 1.1 0.3 2.3 0.2 3.4-0.2q0.1 0 0.1 0 1.5-0.4 2.5-1.5 0 0 0.1 0-0.1 0-0.2 0.1c0.7-0.7 1.4-1.5 1.6-2.6 0.1-0.5 0.3-1 0.2-1.5z"/><path class="x" d="m460.9 450.3q0-1.6-0.8-2.9-0.5-0.6-0.9-1.2-1.1-1-2.5-1.4c-1.2-0.3-2-0.4-3.2 0-1.1 0.3-1.8 0.7-2.7 1.5-0.8 0.8-1.1 1.5-1.5 2.6-0.2 0.5-0.3 1.1-0.2 1.7q0 1.5 0.7 2.8c0.8 1.2 2 2.2 3.3 2.5 1.2 0.3 2.4 0.3 3.5-0.1q0 0 0.1-0.1 1.4-0.4 2.5-1.4 0 0 0-0.1-0.1 0.1-0.2 0.2c0.8-0.7 1.4-1.5 1.7-2.6 0.1-0.5 0.2-1 0.2-1.5z"/><path class="w" d="m421.5 320.1q0-1.6-0.7-2.9-0.5-0.6-0.9-1.2-1.1-1-2.5-1.4c-1.2-0.3-2-0.3-3.2 0-1.1 0.3-1.8 0.8-2.7 1.5-0.9 0.8-1.1 1.6-1.5 2.6-0.2 0.5-0.3 1.2-0.2 1.7q0 1.5 0.7 2.8c0.7 1.2 1.9 2.2 3.3 2.6 1.2 0.3 2.4 0.2 3.5-0.2q0 0 0.1 0 1.4-0.4 2.5-1.5 0 0 0 0-0.1 0-0.2 0.1c0.8-0.7 1.4-1.5 1.6-2.6 0.2-0.5 0.3-1 0.2-1.5z"/><path class="y" d="m208.7 245.4l10.1 4.7 10.5-2.9 8.8 201.6-19.9 3.8-16.2 6.4c0 0-111.2-1.2-126.5-2.2-15.3-0.9-23.1-2.3-23.1-2.3 0 0 10.5-117.9 12.2-135.5 1.7-17.6 6.8-64.3 6.6-67.1-0.1-2.7 2.2-11.3 2.2-11.3 0 0 59.9 0.7 72.8 1.3 13 0.6 59.3 2.7 62.5 3.5z"/><path class="z" d="m131 340.8c5.4-14 9-28.7 16.9-41.7 4.2-7 9.9-12.7 16.1-18.1 6.6-5.9 13.3-11.7 19.3-18.2 5.3-5.7 10.2-11.9 14.6-18.3-3-0.2-6.5-0.3-10.3-0.5-4.8 6.6-10.2 12.8-16 18.6-6 6-12.7 11.3-18.9 17.3-5.7 5.5-10.4 11.9-14.2 18.9-7.2 13.4-10.9 28.3-16.1 42.5-5.1 13.9-12.7 25.6-23.9 35.4-12.8 11.3-28.1 19.7-41.8 29.9q-0.4 3.7-0.7 7.3c16.9-12.5 36.4-21.6 51.9-36.1 10.9-10.2 17.8-23 23.1-37z"/><path class="z" d="m71.4 293c5.4-7.8 7-17.5 12.8-25 5.5-7.2 13.7-11.9 19.7-18.6 2.3-2.6 4.3-5.5 6.5-8.3q-4.1 0-8.1-0.1c-5.4 7.2-12.5 12.2-18.9 18.4-6.7 6.4-9.7 14.6-13 23-0.8 1.9-1.6 3.9-2.7 5.8-0.3 3.4-0.7 6.9-1 10.3 1.8-1.7 3.3-3.6 4.7-5.5z"/><path class="z" d="m145.5 258.3c-11.1 12.8-25.6 21.8-36.8 34.3-5.5 6.1-9.9 13.1-13.2 20.6-3.4 8-5.4 16.6-8.5 24.8-5.4 14-16.1 25.3-27.3 34.9q-0.3 3-0.6 6c7.9-5.6 15.2-12 21.5-19.1 5.1-5.8 9.3-12.2 12.5-19.2 3.6-8 5.5-16.6 9.2-24.6 3.4-7.5 8.2-14.3 13.9-20.2 6-6.2 12.9-11.3 19.5-16.8 12.3-10.2 22.7-22.4 30.8-36.1-3.3-0.2-6.5-0.3-9.3-0.5-3.5 5.6-7.4 10.9-11.7 15.9z"/><path class="z" d="m234.9 375.7q-4.1 2.6-7.9 5.4c-11.2 8.4-20.9 18.5-28.6 30.2-3.9 5.8-7 12.1-9.8 18.5-3.2 7.2-6.4 14.4-11.6 20.5-2.6 3-5.5 5.7-8.4 8.3q5.2 0.1 10 0.2c1.6-1.6 3.2-3.2 4.7-4.9 4.9-5.4 8.1-11.8 11.2-18.4 3-6.4 6.2-12.6 10.1-18.6 7.2-10.8 16.3-20.5 26.8-28.3q1.9-1.4 3.9-2.8z"/><path class="z" d="m94.7 412.9c7.3-3.4 14.9-6.3 22-10.1 15.1-8.2 24.1-22.3 33.2-36.4 4.8-7.5 9.3-15.1 12.9-23.3 3.6-8.1 6-16.6 9.3-24.8 7.3-18.1 22.6-31.7 36.2-45.2 7-6.8 13.7-13.8 19.6-21.6q0.8-0.9 1.5-1.9l-0.1-2.4-10.5 2.9-0.7-0.3q-2.9 3.4-5.9 6.7c-9.2 9.9-19.3 18.9-28.4 28.9-9.9 10.8-17.5 22.6-22.4 36.5-3 8.4-5.6 16.7-9.6 24.6-4.1 8-8.9 15.5-13.6 23-6.2 9.9-12.6 19.3-22.6 25.7-9.4 6.1-20.2 10-30 15.3-11.5 6.3-22.1 14.2-31.4 23.3q-0.3 3.7-0.6 6.8c6.3-5.9 13.1-11.4 20.3-16.2 6.6-4.5 13.6-8.2 20.8-11.5z"/><path class="z" d="m145 447.4c12-9.2 25.8-16.2 35.8-27.7 10.9-12.5 13.6-28.7 19.9-43.5 6.1-14.5 17.2-26.1 29.9-35.1q1.3-1 2.7-1.9l-0.4-10.1q-5.9 3.7-11.4 7.9c-12.7 9.9-22.8 22-28.9 36.9-6.1 14.6-8.6 30.8-19.7 42.9-10.3 11.2-24.3 18.1-35.6 28.1-4.4 3.9-8.6 8.3-12.4 13.1q4.2 0.1 8.4 0.1c3.6-3.9 7.6-7.5 11.7-10.7z"/><path class="z" d="m141.5 416.6c12.7-8.9 23.6-19.7 30.6-33.6 6.7-13.5 10.2-28.2 16.2-41.9 3.1-7 6.8-13.6 11.9-19.3 5.1-5.8 11.4-10.4 17.8-14.7 4.5-3 9-5.9 13.5-8.9l-0.4-11c-5.6 3.9-11.4 7.5-17.1 11.3-12.6 8.3-23.4 18-30.5 31.5-7 13.4-10.4 28.3-15.9 42.3-2.7 7-6.1 13.6-10.5 19.6-4.5 6.1-10.4 11.4-16.3 16.1-20.5 16.3-48 27.6-63.6 48.9 1.7 0.1 3.9 0.2 6.6 0.3 15.4-17.4 39-27.6 57.7-40.6z"/><path class="z" d="m119.1 255c-10.2 8.1-22.2 13.8-30.1 24.4-4.6 6-6.5 13.2-9.1 20.2-2.4 6.7-5.8 13.1-9.6 19.1q-3 4.7-6.5 9.1c-0.3 3.4-0.7 7.4-1.1 12 4.3-4.1 8.2-8.7 11.8-13.5 4.3-5.7 7.9-12 10.8-18.6 3.2-7.1 4.7-15 8.9-21.6 6.8-10.7 19.4-16.6 29.2-24.2 5.7-4.4 10.4-9.4 14.5-15.2q1.8-2.5 3.5-5c-2.7 0-6.1-0.1-9.8-0.2-3.6 5-7.6 9.5-12.5 13.5z"/><path fill-rule="evenodd" class="A" d="m75.5 442.1c6.2 2.6 13 3.4 19.7 3.7 17.7 0.9 35.7-1.9 52.3-8.1 5.5-2 10.9-4.4 15.6-7.8 14.4-10.2 21.6-27.9 25.7-45.1 8.2-34.8 6.7-71.1 5.2-106.8-0.5-11.4-1.1-23-4.8-33.6 10.1 0.5 18.2 1.1 19.5 1.4l10.1 4.7 10.5-2.9 8.8 201.5-19.9 3.8-16.2 6.5c0 0-111.2-1.3-126.5-2.2-15.3-0.9-23.1-2.3-23.1-2.3 0 0 1.1-12.7 2.7-30.4 5.2 7.7 11.8 14 20.4 17.6zm-20.1-21.1c0.4-5.2 0.9-10.6 1.4-16.3 7.4 8.1 16.5 14.6 25.6 20.8 3.1 2.1 6.1 4.1 9.6 5.5 7.3 3 15.7 2.5 23.1 5.2-14.7 4.9-31.3 2.4-45-4.9-5.3-2.8-10.2-6.3-14.7-10.3zm101.8 0c14-16.9 23.9-37.3 28.6-58.8 1.3 11.4-1.3 23-6.6 33.1-5.2 10.1-13 18.7-22 25.7z"/><path class="B" d="m167.5 260.9c-2.3 0-4.2-2-4.2-4.4 0-2.5 1.9-4.4 4.2-4.4 2.3 0 4.1 1.9 4.1 4.4 0 2.4-1.8 4.4-4.1 4.4z"/><path class="B" d="m109.7 259.2c-1.9 0-3.4-1.9-3.4-4.4 0-2.4 1.5-4.4 3.4-4.4 1.8 0 3.3 2 3.3 4.4 0 2.5-1.5 4.4-3.3 4.4z"/><path class="g" d="m64.6 319.3c1.7-17.5 6.8-64.2 6.6-67-0.1-2.8 2.2-11.3 2.2-11.3 0 0 59.8 0.6 72.8 1.3 6.8 0.3 22.8 1 36.9 1.8l1.4 0.2c0 0-103.7 0.7-105.8 1.4-2.1 0.6-15.7 129.6-19.4 136.1l-0.1-3.8c2.4-26.4 4.7-51.3 5.4-58.7z"/><path fill-rule="evenodd" class="C" d="m167.4 261.7h-0.1c-3.2-0.1-4.6-2.7-4.5-5 0-2.7 1.8-5.4 5.1-5.4h0.2c2.8 0.1 4.2 2.7 4.2 5.1-0.1 2.6-1.6 5.3-4.9 5.3zm0.5-9c-2.5 0-3.7 2.1-3.8 4 0 1.8 1 3.5 3.2 3.6h0.1c2.4 0 3.4-1.9 3.5-3.9 0-1.7-0.9-3.6-2.9-3.7z"/><path class="A" d="m141 316.2c5 0.2 9.4-1.4 13.1-4.7 15.3-13.7 14.3-52.3 14.2-54 0-0.5-0.5-1-1.1-1-0.6 0-1 0.5-1 1.1 0 0.4 1.1 39.3-13.5 52.3-3.9 3.5-8.6 4.8-14 4-29.4-4.3-28.3-57.9-28.3-58.4 0.1-0.6-0.4-1.1-1-1.1q0 0 0 0c-0.5 0-1 0.5-1 1 0 0.2-0.4 14.1 3 28.4 4.7 19.1 14 30.3 27 32.2q1.4 0.2 2.6 0.2z"/><path fill-rule="evenodd" class="C" d="m109.5 260h-0.2c-2.9-0.1-4.1-2.7-4.1-5 0.1-2.7 1.7-5.4 4.7-5.4h0.2c2.7 0.1 3.8 2.7 3.8 5.1 0 2.5-1.4 5.3-4.4 5.3zm0.4-9c-2.1 0-3.3 2-3.3 4 0 1.7 0.8 3.5 2.8 3.6h0.1c2 0 3-2.1 3-3.9 0-1.8-0.7-3.7-2.5-3.7z"/><path class="g" d="m138.3 313.1q-1.7 0-3.4-0.2c-13.1-1.9-21.8-12.7-25.2-31.1-2.6-13.6-1.3-26.9-1.3-27 0.1-0.6 0.6-1 1.2-1 0.5 0.1 1 0.6 0.9 1.2 0 0.5-4.7 51.5 24.7 55.8 5.6 0.8 10.5-0.5 14.7-4.1 15.2-12.8 16.3-49.5 16.3-49.8 0-0.6 0.5-1.1 1.1-1.1q0 0 0 0c0.6 0 1 0.5 1 1.1 0 1.6-1.1 38-17 51.4-3.8 3.2-8.2 4.8-13 4.8z"/><path class="D" d="m73.9 424.4q1.8-1.2 3.6-2.3-2.5-1.7-4.9-3.5-5.3 3.7-10.3 7.9 2.2 1.6 4.5 3 3.5-2.7 7.1-5.1z"/><path class="D" d="m200.2 321.8c5.1-5.8 11.4-10.4 17.8-14.7 4.5-3 9-5.9 13.5-8.9l-0.5-11c-5.5 3.9-11.3 7.5-17 11.3-6.9 4.6-13.3 9.6-18.9 15.4q0.1 7.3 0 14.5 2.3-3.5 5.1-6.6z"/><path class="D" d="m57.8 405.7q-0.6 0.4-1.1 0.9-0.4 3.7-0.7 7.3 2.9-2.1 5.9-4.1-2.1-2-4.1-4.1z"/><path class="D" d="m234.9 375.7q-4.1 2.6-7.9 5.4c-11.2 8.4-20.9 18.5-28.6 30.2-3.9 5.8-7 12.1-9.8 18.5-3.2 7.2-6.4 14.4-11.6 20.5-2.7 3.1-5.7 5.9-8.8 8.7q5.3 0 10 0.1c1.8-1.6 3.5-3.4 5.1-5.2 4.9-5.4 8.1-11.8 11.2-18.4 3-6.4 6.2-12.6 10.1-18.6 7.2-10.8 16.3-20.5 26.8-28.3q1.9-1.4 3.9-2.8z"/><path class="D" d="m102.7 433.6q-3.6 2.4-7 5c3.8 0.2 7.5 0.1 11.2-0.5q2.3-1.5 4.7-3c-2.9-0.7-5.9-1.1-8.9-1.5z"/><path class="D" d="m145 447.4c12-9.2 25.8-16.2 35.8-27.7 10.9-12.5 13.6-28.7 19.9-43.5 6.1-14.5 17.2-26.1 29.9-35.1q1.3-1 2.7-1.9l-0.5-10q-5.8 3.6-11.3 7.8c-12.7 9.9-22.8 22-28.9 36.9-1.3 2.9-2.3 5.9-3.4 8.9q-0.2 1-0.4 2c-4.1 17.2-11.3 34.9-25.7 45.1-4.7 3.4-10.1 5.8-15.6 7.8q-1.1 0.4-2.2 0.8c-2.7 2-5.5 4.2-8 6.4-4.5 4-8.8 8.5-12.7 13.4q4.2 0.1 8.4 0.2c3.7-4.1 7.7-7.8 12-11.1z"/><path class="D" d="m218.8 250.5l-0.9-0.4q-2.8 3.2-5.7 6.4c-5.9 6.4-12.2 12.4-18.4 18.5q0.1 1.5 0.2 3 0.2 4.5 0.4 8.9c4.5-4.7 9.3-9.2 13.9-13.8 7-6.8 13.7-13.8 19.6-21.6q0.8-0.9 1.5-1.9l-0.1-2z"/><path class="D" d="m96 445.9q-0.4 0-0.8-0.1-3.7-0.1-7.4-0.6c-4 3.7-7.7 7.7-10.9 12.1 1.7 0 3.9 0.1 6.6 0.2 3.8-4.3 8-8.1 12.5-11.6z"/><path class="D" d="m58.8 429.5q-2.3 2.1-4.6 4.3-0.3 3.7-0.6 6.8 4.2-3.9 8.6-7.5-1.8-1.7-3.4-3.6z"/><path class="D" d="m191.5 253.1q3.2-4 6.2-8.2c-2.6-0.2-5.5-0.4-8.5-0.5 1 2.8 1.7 5.7 2.3 8.7z"/><path class="A" d="m204.8 420.1c0.1-18.6 3.9-174.3 3.9-174.3l10.1 4.7 10.5-2.9 8.8 201.5-19.9 3.8-16.2 6.5c0 0 2.7-20.8 2.8-39.3z"/><path class="E" d="m202 459.4c0 0 0.8-5.9 1.5-14.2q0.5-0.2 1.1-0.2c5.9-0.2 6.8-6.8 7.5-30.4 0.6-21.9 1.2-147.8 1.3-166.7l5.4 2.6 4.5-1.3c-2.1 30.5-2.9 178.5 2 187.7 3.1 5.7 8.5 6.8 12.5 6.6l0.3 5.6-19.9 3.8z"/><path fill-rule="evenodd" class="C" d="m202.5 460.7q0 0 0 0c-5.4 0-133.1-0.7-150-4.5-0.5-0.2-0.9-0.6-0.8-1.1 0.6-8.2 16.5-199.3 20.8-214.6 0.1-0.4 0.6-0.7 1-0.7 5 0.1 121.4 2.6 135.1 4.6 0.5 0.1 0.9 0.5 0.9 1.1-0.2 8.4-3 205.7-6 214.5-0.2 0.4-0.6 0.7-1 0.7zm-148.7-6.4c19.1 3.4 136.8 4.2 147.9 4.3 2.3-12.5 4.7-142.7 5.6-212.2-16.4-2-122.4-4.3-133-4.5-4.3 19.3-19.3 197.8-20.5 212.4z"/><path class="C" d="m202.5 460.7c-0.4 0-0.8-0.2-1-0.6-0.2-0.6 0-1.2 0.6-1.4l15.6-6.7q0.1 0 0.2-0.1l19-3.6c-1.9-17.9-8-181.7-8.6-199.3l-9.4 2.2q-0.3 0.1-0.7 0l-10.2-4.8c-0.6-0.3-0.8-0.9-0.5-1.4 0.2-0.5 0.8-0.7 1.3-0.5l10 4.6 10.2-2.4c0.3-0.1 0.7 0 0.9 0.2 0.3 0.2 0.4 0.5 0.4 0.8 0.1 1.9 7 189.9 8.8 201.3 0.1 0.6-0.3 1.1-0.8 1.2l-19.9 3.8-15.5 6.6q-0.2 0.1-0.4 0.1z"/><path class="C" d="m218.1 454c-0.5 0-1-0.4-1-1-0.1-1.6-3.6-157 0.5-201.6 0-0.6 0.5-1 1.1-1 0.6 0.1 1 0.6 1 1.2-4.1 44.5-0.6 199.8-0.5 201.3 0 0.6-0.5 1.1-1.1 1.1q0 0 0 0z"/><path class="F" d="m206.8 271.7l-9.9 4.5-10.3-3-11.1 197.6 19.4 3.9 15.8 6.6c0 0 109.2 0.1 124.2-0.6 15-0.7 22.7-2 22.7-2 0 0-8.9-115.8-10.3-133.1-1.5-17.2-5.9-63.1-5.7-65.8 0.2-2.7-2-11.1-2-11.1 0 0-58.7-0.1-71.4 0.3-12.7 0.5-58.2 2-61.4 2.7z"/><path fill-rule="evenodd" class="G" d="m355.3 449.3c1.3 17.3 2.3 29.8 2.3 29.8 0 0-7.7 1.2-22.7 1.9-15 0.8-124.2 0.6-124.2 0.6l-15.8-6.5-19.4-4 11.1-197.6 10.3 3 9.9-4.5c1.3-0.3 9.3-0.7 19.2-1.1-3.8 10.4-4.5 21.8-5.1 32.9-2 35-3.9 70.6 3.7 104.8 3.8 17 10.6 34.4 24.7 44.6 4.6 3.3 9.8 5.8 15.1 7.8 16.3 6.4 33.9 9.3 51.3 8.7 6.6-0.3 13.2-1 19.3-3.5 8.5-3.4 15.1-9.5 20.3-16.9zm-14.8 6.4c-13.5 7-29.9 9.2-44.2 4.2 7.3-2.5 15.5-1.9 22.7-4.7 3.4-1.3 6.4-3.3 9.5-5.3 8.9-6 18-12.3 25.3-20.1 0.4 5.6 0.8 10.9 1.2 16-4.4 3.9-9.3 7.2-14.5 9.9zm-106.6-36.7c-5-10-7.4-21.4-6-32.4 4.3 21.1 13.7 41.2 27.3 57.9-8.7-6.9-16.3-15.5-21.3-25.5z"/><path class="G" d="m208.5 443c0.1-18.2-1.7-171-1.7-171l-9.9 4.5-10.3-3-11.1 197.6 19.4 4 15.8 6.5c0 0-2.4-20.4-2.2-38.6z"/><path class="H" d="m210.7 481.6c0 0-0.7-5.7-1.3-13.9q-0.5-0.2-1-0.3c-5.8-0.2-6.6-6.7-7-29.8-0.3-21.5 0.7-145 0.9-163.5l-5.4 2.4-4.4-1.3c1.7 30 0.6 175.1-4.3 184.1-3.1 5.6-8.4 6.5-12.4 6.3l-0.3 5.5 19.4 4z"/><path class="I" d="m247.2 287.4c-2.3 0-4.1-2-4.1-4.4 0-2.3 1.8-4.3 4.1-4.3 2.2 0 4.1 2 4.1 4.3 0 2.4-1.9 4.4-4.1 4.4z"/><path class="I" d="m303.9 286.5c-1.8 0-3.3-1.9-3.3-4.3 0-2.4 1.5-4.3 3.3-4.3 1.8 0 3.3 1.9 3.3 4.3 0 2.4-1.5 4.3-3.3 4.3z"/><path class="g" d="m347.3 346c-1.5-17.3-5.9-63.1-5.7-65.9 0.2-2.7-2-11.1-2-11.1 0 0-58.7-0.1-71.4 0.4-6.7 0.2-22.3 0.7-36.2 1.3l-1.4 0.2c0 0 101.7 2 103.7 2.7 2.1 0.6 13.8 127.3 17.4 133.7l0.1-3.7c-2-26-3.9-50.4-4.5-57.6z"/><path fill-rule="evenodd" class="J" d="m239.3 304.8c-0.4 3.9-2.1 7.6-4.9 10.8-2 2.4-6.5 5.3-10.4 3.6-4.1-1.7-5.4-5.8-6-9.2q-0.4-2.8-0.4-5.5c-1-5.8 1.2-17.2 9.9-16.5 9.9 0.8 12.5 10.4 11.8 16.8zm-6.1-7.9c-0.8-1.8-4.1-7.5-7.6-4.4-3 2.6-3.7 6.3-4.3 9.8 0.3 3.5 0.8 7.1 2.3 10.4q0.4 1.2 1.2 2.3 3.9 1.4 5.6-1.1c0.6-0.9 1.3-1.7 1.8-2.6 1.3-2.3 2.2-4.8 2.2-7.3 0.1-2.4-0.2-4.8-1.2-7.1z"/><path class="K" d="m218 310c0.4 2 1 4.2 2.2 6.1q0.3-6.2 0.7-12.3c0.3-4.7 0.5-9.5 1.1-14.2-4.1 3.3-5.1 10.6-4.4 14.9q0 2.7 0.4 5.5z"/><path fill-rule="evenodd" class="J" d="m285.1 321.7c-1.6 3.5-4.4 6.5-8 8.7-2.7 1.6-7.9 3-11 0.2-3.4-2.9-3.4-7.2-2.8-10.7q0.4-2.7 1.2-5.4c1-5.7 6.5-15.9 14.6-12.5 9.2 3.8 8.6 13.8 6 19.7zm-3.3-9.4c-0.2-2-1.6-8.5-5.9-6.6-3.7 1.5-5.5 4.8-7.1 8-0.8 3.4-1.5 6.9-1.1 10.6q0 1.2 0.4 2.5 3.3 2.5 5.7 0.7c0.8-0.6 1.7-1.2 2.5-1.9 1.9-1.7 3.6-3.9 4.4-6.3 0.8-2.2 1.3-4.6 1.1-7z"/><path fill-rule="evenodd" class="J" d="m260.1 352.3c1.6 4.2 1.7 9.1 0.5 13.9-0.8 3.5-4 8.9-8.9 9.3-5.2 0.3-8.8-3.3-11.2-6.5q-1.9-2.7-3.4-5.6c-4-5.5-7.8-18.5 1.7-22.4 10.7-4.4 18.6 4.2 21.3 11.3zm-10.6-5c-1.8-1.5-8.3-5.7-10.4-0.6-1.7 4.3-0.5 8.5 0.8 12.5 2.2 3.5 4.6 7 7.9 9.7q1.1 1 2.4 1.7 4.8-0.6 5.3-4.1c0.2-1.2 0.5-2.4 0.5-3.6 0.2-3.1-0.2-6.2-1.5-8.9-1.2-2.5-2.8-4.9-5-6.7z"/><path fill-rule="evenodd" class="J" d="m327.2 350.3c0.1 3.6-1.1 7.2-3.3 10.6-1.5 2.4-5.3 5.7-9.1 4.7-4.1-1.1-5.8-4.8-6.7-7.9q-0.8-2.5-1.2-5c-1.6-5.3-1-16.1 7.2-16.6 9.2-0.5 12.9 8.1 13.1 14.2zm-6.7-6.6c-1-1.6-4.8-6.5-7.7-3.1-2.4 2.8-2.6 6.3-2.7 9.6 0.8 3.2 1.7 6.4 3.5 9.4q0.5 1 1.4 1.9 3.7 0.8 5-1.7c0.5-0.9 1-1.7 1.3-2.6 1-2.3 1.5-4.8 1.2-7.1-0.3-2.2-0.8-4.4-2-6.4z"/><path fill-rule="evenodd" class="J" d="m300.7 394c-1.6 3.8-4.7 7-8.5 9.4-2.8 1.7-8.4 3.2-11.8 0.2-3.6-3.1-3.6-7.7-3.1-11.4q0.5-2.9 1.4-5.7c0.9-6.2 6.9-17.1 15.6-13.5 9.7 4 9.2 14.7 6.4 21zm-3.6-10.1c-0.2-2.1-1.7-9-6.3-7-3.9 1.7-5.8 5.2-7.6 8.6-0.8 3.7-1.5 7.4-1.1 11.3q0.1 1.4 0.5 2.7 3.5 2.7 6 0.7c1-0.6 1.9-1.2 2.7-1.9 2.1-1.9 3.9-4.2 4.7-6.8 0.8-2.4 1.4-4.9 1.1-7.6z"/><path fill-rule="evenodd" class="J" d="m343.1 418.2c-1.7 3.8-4.7 6.9-8.6 9.3-2.8 1.7-8.4 3.2-11.7 0.3-3.7-3.1-3.7-7.8-3.1-11.4q0.5-3 1.4-5.8c0.9-6.2 6.8-17.1 15.5-13.5 9.8 4.1 9.3 14.7 6.5 21.1zm-3.6-10.1c-0.2-2.1-1.7-9.1-6.4-7.1-3.9 1.8-5.8 5.3-7.5 8.7-0.9 3.7-1.5 7.4-1.1 11.3q0 1.3 0.5 2.7 3.5 2.7 6 0.7c0.9-0.6 1.9-1.2 2.7-2 2.1-1.9 3.8-4.2 4.7-6.7 0.8-2.4 1.4-5 1.1-7.6z"/><path fill-rule="evenodd" class="J" d="m244.3 417.5c1.3 3.9 1.2 8.3 0 12.7-0.9 3.2-4 8-8.5 8.2-4.7 0.1-7.9-3.3-9.9-6.3q-1.7-2.5-2.9-5.2c-3.5-5.2-6.6-17.2 2.3-20.5 9.9-3.6 16.7 4.6 19 11.1zm-9.5-4.9c-1.6-1.4-7.4-5.5-9.4-0.9-1.8 3.9-0.8 7.7 0.2 11.4 1.9 3.3 4 6.5 6.9 9.1q1 1 2.2 1.7 4.4-0.4 4.9-3.6c0.3-1.1 0.6-2.2 0.6-3.3 0.3-2.8 0-5.7-1.1-8.2-1-2.3-2.3-4.5-4.3-6.2z"/><path class="K" d="m240.2 427q0 0.9-0.2 1.8 1.5 2.1 3.2 4.1c0.5-0.9 0.9-1.9 1.1-2.7q0.1-0.5 0.2-0.9-2.5-4.3-4.8-8.7c0.6 2 0.7 4.3 0.5 6.4z"/><path class="K" d="m225.9 432.1c2 3 5.2 6.4 9.9 6.3q0.1 0 0.1 0-1.8-3-3.4-6.2 0 0 0 0c-2.9-2.6-5-5.8-6.9-9.1-1-3.7-2-7.5-0.2-11.4q0 0 0 0-0.4-1.6-0.8-3.1-0.1-0.9-0.3-1.7c-7.6 3.7-4.7 15-1.3 20q1.2 2.7 2.9 5.2z"/><path class="K" d="m229 405.6q0.5 2.1 1.2 4.2c1.9 0.6 3.8 2.1 4.6 2.8 1 0.8 1.8 1.8 2.5 2.8q-2.2-4.6-3.9-9.4c-1.4-0.4-2.8-0.6-4.4-0.4z"/><path fill-rule="evenodd" class="J" d="m277.1 461.7c-2.1 3.6-5.4 6.4-9.5 8.4-3 1.4-8.7 2.3-11.7-1-3.3-3.5-2.8-8.1-1.9-11.7q0.8-2.9 2-5.6c1.6-6 8.7-16.2 16.9-11.7 9.3 5.1 7.7 15.6 4.2 21.6zm-2.5-10.4c0-2.1-0.7-9.2-5.5-7.7-4.1 1.3-6.4 4.6-8.5 7.8-1.2 3.6-2.3 7.2-2.3 11.1q-0.1 1.4 0.2 2.8 3.2 3 5.9 1.3c1-0.5 2-1 2.9-1.7 2.3-1.6 4.3-3.7 5.4-6.2 1.1-2.3 1.9-4.8 1.9-7.4z"/><path class="K" d="m258.7 458.6q-2.2-1-4.4-2.2-0.1 0.5-0.3 1c-0.9 3.6-1.4 8.2 1.9 11.7 3 3.3 8.7 2.4 11.7 1 2.9-1.4 5.4-3.3 7.4-5.5q-2.7-0.8-5.4-1.7-1.1 1.1-2.3 2c-0.9 0.7-1.9 1.2-2.9 1.7q-2.7 1.7-5.9-1.3-0.3-1.4-0.2-2.8 0-2 0.4-3.9z"/><path fill-rule="evenodd" class="J" d="m327.3 448.8c2.2 3.6 3.1 7.9 2.8 12.4-0.2 3.3-2.1 8.7-6.5 9.8-4.6 1.2-8.4-1.4-11.1-3.9q-2.1-2.1-4-4.4c-4.5-4.4-10.1-15.4-2.2-20.5 8.9-5.7 17.4 0.7 21 6.6zm-10.3-2.7c-1.9-1-8.4-3.8-9.4 1.2-0.8 4.2 0.9 7.7 2.7 11.1 2.6 2.8 5.3 5.5 8.7 7.4q1.2 0.7 2.5 1.1 4.2-1.3 4-4.6c0.1-1.1 0.1-2.2 0-3.3-0.4-2.8-1.3-5.5-2.9-7.7-1.5-2.1-3.3-4-5.6-5.2z"/><path class="K" d="m323.6 452.9c1 1.9 1.6 4 1.9 6.1q0.1 1.1 0.1 2.2 2.3-0.5 4.5-1.2c0.1-3.6-0.6-6.9-2.1-9.9-1.4 1-2.9 2-4.4 2.8z"/><path class="K" d="m315.9 469.7c2.2 1.3 4.8 2.1 7.7 1.3 1.6-0.4 2.9-1.3 3.9-2.6-3.8 0.8-7.8 1.1-11.6 1.3z"/><path class="K" d="m308.3 462.5q3.2 0.2 6.3 0.1c-1.5-1.3-2.9-2.7-4.3-4.2q-0.2-0.5-0.5-1-2.4 0.3-4.8 0.6c1 1.8 2.2 3.3 3.3 4.5z"/><path fill-rule="evenodd" class="J" d="m330.8 295.5c1.3 3.1 1.5 6.7 0.8 10.2-0.6 2.6-2.8 6.7-6.4 7.1-3.8 0.4-6.5-2.2-8.3-4.5q-1.5-1.9-2.7-4c-3.1-4-6.2-13.5 0.7-16.6 7.8-3.5 13.8 2.7 15.9 7.8zm-7.9-3.4c-1.3-1-6.2-4-7.6-0.2-1.2 3.2-0.2 6.3 0.8 9.2 1.8 2.5 3.6 5 6.1 6.9q0.8 0.7 1.8 1.2 3.6-0.5 3.8-3.1c0.2-0.9 0.3-1.8 0.3-2.7 0.1-2.3-0.3-4.6-1.3-6.5-1-1.8-2.2-3.5-3.9-4.8z"/><path class="J" d="m257.5 299.4c-0.4-0.2-0.8-0.3-1.3-0.2-0.6-0.1-1.2 0.2-1.6 0.8-0.3 0.6-0.2 1.4 0.3 1.9 0.1 0.3 0.4 0.7 0.8 0.8 0.9 0.6 2.1 0.2 2.6-0.7 0.5-0.9 0.2-2.1-0.8-2.6z"/><path class="J" d="m281.9 280.2c-0.3-0.3-0.9-0.6-1.3-0.6-0.5-0.1-0.9 0-1.3 0.3-0.5 0.3-0.9 0.9-0.9 1.6q0 0.1 0 0.2c-0.1 1.1 1 2.1 2.1 2q0 0 0 0c1.1 0 2.1-0.9 2-2.1 0-0.5-0.2-1-0.6-1.4z"/><path class="J" d="m312.9 319c-3.8 0.1-3.7 6.1 0.1 6 3.9 0 3.8-6-0.1-6z"/><path class="J" d="m334.7 339.9c-1.2 0-2.2-1-2.2-2.2 0-1.2 1-2.2 2.2-2.2 1.3 0 2.3 1 2.3 2.2 0 1.2-1 2.2-2.3 2.2z"/><path class="J" d="m285.5 347.8q0 0 0 0c-1.8-1-4.1 0-4.6 1.9-0.5 2 1.1 4 3.1 3.9q0 0 0.1 0c1.4 0 2.6-1 2.9-2.3 0.4-1.4-0.2-2.8-1.5-3.5z"/><path class="J" d="m270.6 372.4c-2.9 0.1-2.8 4.4 0 4.4 2.8-0.1 2.8-4.4 0-4.4z"/><path class="J" d="m238.1 328.2c-0.1-0.6-0.5-1.2-0.9-1.6-0.9-0.8-2.1-1.1-3.3-0.7-0.9 0.2-1.6 0.8-2 1.6-0.3 0.5-0.3 0.9-0.4 1.4-0.1 0.5 0.2 1 0.4 1.4q0.1 0.3 0.5 0.6 0.1 0.2 0.2 0.4c0.5 0.4 1.1 0.7 1.8 0.7q0.4 0.2 0.9 0.2c0.8-0.1 1.6-0.4 2.1-0.9 0.8-0.9 1.1-2 0.7-3.1z"/><path class="J" d="m230.8 283.5c-0.9 0-1.5-0.7-1.5-1.5 0-0.9 0.6-1.5 1.5-1.5 0.8 0 1.5 0.6 1.5 1.5 0 0.8-0.7 1.5-1.5 1.5z"/><path class="J" d="m230.4 376.6c-3.2 0.1-3.1 5 0.1 4.9 3.1 0 3-4.9-0.1-4.9z"/><path class="J" d="m252.3 405.5c-1.9 0-3.4-1.5-3.4-3.4 0-1.9 1.5-3.4 3.4-3.4 1.9 0 3.4 1.5 3.4 3.4 0 1.9-1.5 3.4-3.4 3.4z"/><path class="J" d="m278.4 420.2c-0.5-0.6-1.3-0.6-2-0.4-1.4 0.5-1.3 2.4 0.1 2.9 0.7 0.2 1.5 0.1 1.9-0.5 0.6-0.6 0.6-1.4 0-2z"/><path class="J" d="m292.3 450.4c-1.9 0-3.5-1.6-3.5-3.5 0-1.9 1.6-3.5 3.5-3.5 1.9 0 3.5 1.6 3.5 3.5 0 1.9-1.6 3.5-3.5 3.5z"/><path class="J" d="m316.7 389.3c-0.7-0.8-1.9-1-2.9-0.7q-0.8 0.2-1.4 0.8-0.5 0.6-0.7 1.3 0 0.1 0 0.1-0.2 0.8 0 1.6 0.2 0.8 0.8 1.3 0.5 0.6 1.3 0.8 0.8 0.2 1.6-0.1 0 0 0.1 0 0.8-0.2 1.3-0.8 0.6-0.6 0.8-1.3c0.3-1.1-0.1-2.2-0.9-3z"/><path class="J" d="m336.1 376.6c-1 0-1.8-0.8-1.8-1.8 0-1 0.8-1.8 1.8-1.8 1 0 1.8 0.8 1.8 1.8 0 1-0.8 1.8-1.8 1.8z"/><path class="J" d="m340.5 431.8c-2.9 0.1-2.9 4.6 0.1 4.6 2.9-0.1 2.8-4.6-0.1-4.6z"/><path class="K" d="m233 454.8c-1.4 0-2.6-1.2-2.6-2.6 0-1.4 1.2-2.5 2.6-2.5 1.4 0 2.5 1.1 2.5 2.5 0 1.4-1.1 2.6-2.5 2.6z"/><path class="K" d="m222.2 472.9c-1.9 0-1.9 3 0 2.9 1.9 0 1.9-2.9 0-2.9z"/><path class="K" d="m282.7 472.5c-1.1-0.3-2.3 0.3-2.8 1.3-0.6 0.8-0.6 1.8 0 2.5 0.4 0.8 1.3 1.3 2.2 1.3 1.4 0 2.6-1.2 2.6-2.6-0.1-1.2-0.9-2.2-2-2.5z"/><path class="K" d="m335.7 454.4c-0.8 0-1.5-0.7-1.5-1.6 0-0.8 0.7-1.5 1.5-1.5 0.9 0 1.6 0.7 1.6 1.5 0 0.9-0.7 1.6-1.6 1.6z"/><path class="K" d="m345.4 468.5c-1.1-0.2-2.1 0.3-2.7 1.2l-0.1 0.1c-0.3 0.6-0.3 1.6 0.1 2.2q0 0.1 0.1 0.1c0.5 0.9 1.6 1.4 2.7 1.1 1-0.3 1.7-1.3 1.7-2.4 0-1-0.8-2-1.8-2.3z"/><path class="K" d="m213.9 391.9c-3.1 0.1-3 4.9 0.1 4.9 3.1-0.1 3.1-4.9-0.1-4.9z"/><path class="K" d="m215.8 325.3q0 0-0.1-0.1c-0.8-0.6-1.7-0.6-2.5 0.1q0 0-0.1 0.1c-0.5 0.4-0.6 1.2-0.5 1.9 0.3 0.8 1.1 1.4 1.9 1.3 0.7 0 1.4-0.4 1.7-0.9 0.4-0.8 0.3-1.8-0.4-2.4z"/><path class="K" d="m216.3 280.5c-0.2-0.2-0.3-0.4-0.4-0.7-0.2-0.5-1-0.8-1.6-0.8-0.5 0-1.3 0.3-1.5 0.9-0.1 0.2-0.2 0.5-0.3 0.7-0.5 0.6-0.4 1.6 0 2.2 0.4 0.7 1.2 1.1 1.9 1.1 0.8-0.1 1.5-0.5 1.9-1.2 0.4-0.6 0.4-1.6 0-2.2z"/><path class="J" d="m330.9 279.9c-0.4-0.3-0.6-0.5-1.1-0.6q-0.1-0.1-0.3-0.2c-0.9-0.3-2 0.3-2.4 1.1-0.6 1-0.2 2.2 0.8 2.9 0.3 0.2 0.6 0.3 1 0.5 0.9 0.2 1.9-0.3 2.4-1.1 0.5-0.8 0.4-2-0.4-2.6z"/><path class="J" d="m294.7 302.9c-1 0-1.7-0.8-1.7-1.7 0-0.9 0.7-1.6 1.7-1.6 0.9 0 1.6 0.7 1.6 1.6 0 0.9-0.7 1.7-1.6 1.7z"/><path fill-rule="evenodd" class="L" d="m248.4 483.1q0 0 0 0c-21.6 0-38-0.2-38.1-0.2-0.5 0-0.9-0.3-1-0.7-2.9-8.6-3.2-202.2-3.2-210.5 0-0.5 0.4-0.9 0.9-1 13.4-1.9 127.6-2.8 132.5-2.9q0 0 0 0c0.5 0 0.9 0.3 1 0.8 4 15 17.2 202.7 17.8 210.6 0 0.6-0.3 1-0.9 1.1-10.5 2.3-65.1 2.8-109 2.8zm-37.3-2.3c3.6 0.1 18.5 0.2 37.3 0.2q0 0 0 0c59.9 0 97.9-0.9 107.7-2.5-1-14.5-13.4-189.5-17.4-208.6-10.4 0.1-114.3 1.1-130.5 2.7 0.1 68.2 0.8 195.9 2.9 208.2z"/><path class="L" d="m210.3 482.9q-0.2 0-0.4-0.1l-15.2-6.7-19.4-3.9c-0.6-0.1-0.9-0.7-0.8-1.2 1.9-11.2 11-195.5 11.1-197.4 0-0.3 0.2-0.6 0.4-0.7 0.3-0.2 0.6-0.3 0.9-0.2l10 2.5 9.8-4.4c0.5-0.3 1.2 0 1.4 0.5 0.2 0.5 0 1.1-0.5 1.4l-10.1 4.5q-0.4 0.2-0.7 0.1l-9.2-2.3c-0.8 17.4-8.8 177.7-10.9 195.3l18.5 3.8q0.1 0 0.3 0.1l15.2 6.7c0.5 0.3 0.8 0.9 0.5 1.4-0.1 0.4-0.5 0.6-0.9 0.6z"/><path class="L" d="m195 476.2q0 0 0 0c-0.6 0-1-0.5-1-1.1 0-1.5 5.4-153.8 2-197.5 0-0.6 0.4-1.1 1-1.1 0.5-0.1 1 0.3 1.1 0.9 3.4 43.8-2 196.2-2 197.8 0 0.5-0.5 1-1.1 1z"/><path fill-rule="evenodd" class="L" d="m247.2 288.2c-3.2 0-4.7-2.7-4.8-5.2 0-2.5 1.4-5 4.2-5h0.1c3.3 0 5.1 2.6 5.1 5.3 0 2.3-1.4 4.8-4.5 4.9zm-0.5-8.8h-0.1c-1.9 0-2.8 1.9-2.8 3.6 0 1.9 1.1 3.8 3.4 3.8h0.1c2.1 0 3.1-1.8 3.1-3.5 0-1.9-1.2-3.9-3.7-3.9z"/><path class="G" d="m272.3 342c-4.8 0.1-9.1-1.5-12.7-4.8-14.9-13.7-13.3-51.5-13.3-53.1 0.1-0.6 0.5-1 1.1-1 0.6 0 1 0.5 1 1.1 0 0.4-1.6 38.4 12.6 51.5 3.7 3.4 8.3 4.8 13.6 4.1 29-3.9 28.5-56.5 28.5-57 0-0.6 0.4-1 1-1q0 0 0 0c0.6 0 1 0.4 1 1 0 0.1 0.2 13.8-3.3 27.7-4.8 18.8-14.1 29.6-26.9 31.3q-1.3 0.2-2.6 0.2z"/><path fill-rule="evenodd" class="L" d="m304.1 287.2c-3 0-4.4-2.7-4.4-5.2 0-2.5 1.3-5 3.8-5h0.1c3 0 4.6 2.7 4.6 5.3 0.1 2.3-1.2 4.9-4.1 4.9 0 0 0 0 0 0zm-0.5-8.8c-1.8 0-2.5 1.9-2.5 3.6 0 1.8 0.9 3.8 3 3.8v0.7-0.7c1.9 0 2.8-1.8 2.8-3.5-0.1-1.9-1.2-3.9-3.3-3.9z"/><path class="g" d="m275.4 339c-4.9 0-9.3-1.6-13-4.9-15.4-13.3-16.1-49.1-16.1-50.6 0-0.6 0.5-1.1 1-1.1q0 0 0 0c0.6 0 1.1 0.5 1.1 1 0 0.4 0.6 36.4 15.4 49.1 4 3.5 8.9 5 14.3 4.2 28.9-3.8 25-53.9 24.9-54.4 0-0.6 0.4-1.1 1-1.2 0.6 0 1.1 0.4 1.1 1 0 0.1 1.1 13.2-1.6 26.6-3.6 18-12.2 28.4-25.1 30.1q-1.5 0.2-3 0.2z"/><path class="M" d="m65.8 84.7c-3.3 0.5-2 11.1-2 11.1 0 0-9.5 4.6-7.4 6.7 2 2.2 9 3.4 9 3.4 0 0-1.1 10.9 1.4 10.4 2.6-0.5 7.2-8.4 7.2-8.4 0 0 9.8 2.6 11.7 0.4 1.8-2.2-7-8.3-7-8.3 0 0 6.9-7.6 5.6-9.7-1.3-2.1-10.6 0.8-10.6 0.8 0 0-4.3-6.9-7.9-6.4z"/><path fill-rule="evenodd" class="N" d="m65.5 121.5q-0.7 0-1.3-0.6c-1.8-2.1-1.2-10.3-1-12.7-2.1-0.4-8.9-1.9-11.2-4.3-0.5-0.5-0.6-1.1-0.5-1.7 0.5-2.9 7.7-6.7 9.7-7.7-0.3-2.6-1.2-13.7 3.2-14.3 4.2-0.6 9.1 6.2 10.3 8 1.6-0.5 6.6-1.8 10-1.8 2 0 3.1 0.4 3.7 1.2 1.7 2.7-4.5 10-6.7 12.5 2.1 1.5 8.4 6.3 8.8 9.4 0.1 0.6-0.1 1.2-0.4 1.7-0.8 0.9-2.3 1.3-4.7 1.3-3.8 0-8.7-1.2-10.3-1.5-1.2 2-6.1 9.9-9.3 10.5q-0.2 0-0.3 0zm-0.6-40q-0.2 0-0.4 0c-2.6 0.3-2.6 8.4-2 13.3 0 0.3-0.1 0.6-0.4 0.7-3.4 1.7-9 5-9.4 6.9q0 0.3 0.2 0.6c2.5 2.5 11 4 11.1 4.1 0.3 0 0.6 0.3 0.5 0.7-0.4 4-0.6 10.8 0.7 12.2 0.1 0.2 0.2 0.2 0.3 0.2q0 0 0.1 0c2.1-0.4 6.5-6.5 8.7-10.3 0.1-0.3 0.4-0.4 0.7-0.3 0.1 0 6.1 1.6 10.4 1.6 2.6 0 3.4-0.5 3.7-0.9 0.1-0.1 0.2-0.3 0.1-0.6-0.3-2.6-6.5-7.4-8.9-9q-0.2-0.2-0.2-0.4 0-0.3 0.1-0.5c4.1-4.5 8-10.1 7.1-11.5-0.3-0.4-1.2-0.7-2.6-0.7-3.8 0-10 1.9-10.1 1.9-0.2 0.1-0.5 0-0.7-0.2-1.4-2.2-5.7-7.8-9-7.8z"/><path fill-rule="evenodd" class="N" d="m-119.4-70.8q-0.7-0.3-1-1.2c-1-3.2 3.6-11.8 5.1-14.3-2-1.5-8.7-6.5-10-10.2-0.3-0.8-0.2-1.5 0.2-2.1 2-2.9 11.7-3.5 14.3-3.6 1.1-3 5.5-15.4 10.6-13.9 4.9 1.4 6.9 11.2 7.3 13.7 1.9 0.3 8 1.3 11.8 3 2 0.9 3.1 2 3.3 3.1 0.5 3.8-9.8 8.7-13.5 10.3 1.6 2.6 6.1 10.9 5 14.5-0.2 0.7-0.7 1.3-1.3 1.6-1.3 0.6-3.1 0.4-5.7-0.8-4.1-1.9-8.9-5.6-10.4-6.8-2.4 1.7-11.6 7.8-15.3 6.8q-0.2 0-0.4-0.1zm19.2-43.7q-0.3-0.1-0.5-0.2c-3-0.9-7 7.8-8.8 13.5-0.1 0.3-0.4 0.5-0.7 0.5-4.6 0.2-12.3 1.1-13.6 2.9-0.2 0.3-0.2 0.5-0.1 0.7 1.4 4 9.9 9.9 10 9.9 0.4 0.2 0.5 0.7 0.2 1-2.4 4.2-6 11.5-5.3 13.7 0.1 0.3 0.2 0.3 0.3 0.3q0 0.1 0.1 0.1c2.5 0.6 10.2-3.9 14.5-6.9 0.3-0.2 0.6-0.2 0.9 0 0.1 0 5.9 4.8 10.5 6.9 2.8 1.3 4 1.1 4.4 0.8 0.2 0 0.4-0.2 0.5-0.6 0.9-2.9-3.5-11.2-5.2-14.1q-0.2-0.3-0.1-0.6 0.1-0.4 0.5-0.5c6.6-2.8 13.5-7 13.3-8.9-0.1-0.6-1-1.4-2.5-2-4.2-1.9-11.8-3-11.9-3-0.3 0-0.6-0.3-0.6-0.6-0.5-3.1-2.4-11.3-5.9-12.9z"/><path class="M" d="m-100.8-110.6c-3.9-1.1-7.7 11.1-7.7 11.1 0 0-12.6 0.3-11.4 3.6 1.2 3.4 8.1 8.1 8.1 8.1 0 0-6.6 11.3-3.6 12 3.1 0.8 12-5.5 12-5.5 0 0 9.4 7.7 12.4 6.2 3.1-1.5-3.4-12.5-3.4-12.5 0 0 11.2-4.8 10.8-7.7-0.4-2.9-11.8-4.4-11.8-4.4 0 0-1.4-9.7-5.4-10.9z"/><path fill-rule="evenodd" class="N" d="m-119.4-70.8q-0.7-0.3-1-1.2c-1-3.2 3.6-11.8 5.1-14.3-2-1.5-8.7-6.5-10-10.2-0.3-0.8-0.2-1.5 0.2-2.1 2-2.9 11.7-3.5 14.3-3.6 1.1-3 5.5-15.4 10.6-13.9 4.9 1.4 6.9 11.2 7.3 13.7 1.9 0.3 8 1.3 11.8 3 2 0.9 3.1 2 3.3 3.1 0.5 3.8-9.8 8.7-13.5 10.3 1.6 2.6 6.1 10.9 5 14.5-0.2 0.7-0.7 1.3-1.3 1.6-1.3 0.6-3.1 0.4-5.7-0.8-4.1-1.9-8.9-5.6-10.4-6.8-2.4 1.7-11.6 7.8-15.3 6.8q-0.2 0-0.4-0.1zm19.2-43.7q-0.3-0.1-0.5-0.2c-3-0.9-7 7.8-8.8 13.5-0.1 0.3-0.4 0.5-0.7 0.5-4.6 0.2-12.3 1.1-13.6 2.9-0.2 0.3-0.2 0.5-0.1 0.7 1.4 4 9.9 9.9 10 9.9 0.4 0.2 0.5 0.7 0.2 1-2.4 4.2-6 11.5-5.3 13.7 0.1 0.3 0.2 0.3 0.3 0.3q0 0.1 0.1 0.1c2.5 0.6 10.2-3.9 14.5-6.9 0.3-0.2 0.6-0.2 0.9 0 0.1 0 5.9 4.8 10.5 6.9 2.8 1.3 4 1.1 4.4 0.8 0.2 0 0.4-0.2 0.5-0.6 0.9-2.9-3.5-11.2-5.2-14.1q-0.2-0.3-0.1-0.6 0.1-0.4 0.5-0.5c6.6-2.8 13.5-7 13.3-8.9-0.1-0.6-1-1.4-2.5-2-4.2-1.9-11.8-3-11.9-3-0.3 0-0.6-0.3-0.6-0.6-0.5-3.1-2.4-11.3-5.9-12.9z"/><path fill-rule="evenodd" class="N" d="m11.9 211.9q-0.5-0.2-0.7-0.7c-0.6-1.8 1.8-6.9 2.6-8.5-1.3-0.8-5.3-3.4-6.2-5.6q-0.3-0.6 0.1-1.2c1-1.8 6.7-2.4 8.2-2.6 0.5-1.8 2.7-9.1 5.7-8.4 2.9 0.6 4.4 6.3 4.7 7.7 1.1 0.1 4.7 0.5 7 1.4q1.8 0.7 2 1.7c0.4 2.2-5.4 5.4-7.5 6.4 1 1.5 3.9 6.2 3.4 8.3q-0.2 0.7-0.8 1-1 0.6-3.3-0.3c-2.5-0.9-5.4-2.9-6.3-3.6-1.3 1.1-6.5 4.9-8.7 4.5q-0.1 0-0.2-0.1zm9.7-26.1q-0.1 0-0.2-0.1c-1.8-0.4-3.9 4.8-4.7 8.2-0.1 0.2-0.2 0.3-0.4 0.3-2.7 0.2-7.2 1-7.9 2.1q-0.1 0.2 0 0.5c1 2.2 6.1 5.4 6.2 5.4 0.2 0.1 0.2 0.4 0.1 0.6-1.2 2.5-3.1 6.9-2.6 8.1 0 0.2 0.1 0.2 0.1 0.2q0.1 0 0.1 0c1.5 0.3 5.8-2.6 8.2-4.5 0.2-0.1 0.4-0.1 0.6 0 0 0 3.5 2.6 6.3 3.7 1.7 0.6 2.4 0.5 2.6 0.3 0.1 0 0.2-0.1 0.3-0.4 0.4-1.7-2.4-6.4-3.5-8q-0.1-0.2-0.1-0.4 0.1-0.2 0.3-0.3c3.7-1.8 7.6-4.5 7.4-5.6 0-0.4-0.6-0.8-1.5-1.1-2.5-1-7-1.3-7-1.3-0.2 0-0.4-0.2-0.4-0.4-0.4-1.7-1.7-6.5-3.9-7.3z"/><path class="M" d="m21.4 188.1c-2.3-0.5-4.1 6.7-4.1 6.7 0 0-7.4 0.6-6.5 2.5 0.8 1.9 5 4.5 5 4.5 0 0-3.5 6.7-1.7 7.1 1.8 0.3 6.8-3.6 6.8-3.6 0 0 5.7 4.2 7.4 3.2 1.8-1-2.4-7.2-2.4-7.2 0 0 6.4-3.2 6.1-4.9-0.3-1.6-7.1-2.1-7.1-2.1 0 0-1.1-5.6-3.5-6.2z"/><path fill-rule="evenodd" class="N" d="m11.9 211.9q-0.5-0.2-0.7-0.7c-0.6-1.8 1.8-6.9 2.6-8.5-1.3-0.8-5.3-3.4-6.2-5.6q-0.3-0.6 0.1-1.2c1-1.8 6.7-2.4 8.2-2.6 0.5-1.8 2.7-9.1 5.7-8.4 2.9 0.6 4.4 6.3 4.7 7.7 1.1 0.1 4.7 0.5 7 1.4q1.8 0.7 2 1.7c0.4 2.2-5.4 5.4-7.5 6.4 1 1.5 3.9 6.2 3.4 8.3q-0.2 0.7-0.8 1-1 0.6-3.3-0.3c-2.5-0.9-5.4-2.9-6.3-3.6-1.3 1.1-6.5 4.9-8.7 4.5q-0.1 0-0.2-0.1zm9.7-26.1q-0.1 0-0.2-0.1c-1.8-0.4-3.9 4.8-4.7 8.2-0.1 0.2-0.2 0.3-0.4 0.3-2.7 0.2-7.2 1-7.9 2.1q-0.1 0.2 0 0.5c1 2.2 6.1 5.4 6.2 5.4 0.2 0.1 0.2 0.4 0.1 0.6-1.2 2.5-3.1 6.9-2.6 8.1 0 0.2 0.1 0.2 0.1 0.2q0.1 0 0.1 0c1.5 0.3 5.8-2.6 8.2-4.5 0.2-0.1 0.4-0.1 0.6 0 0 0 3.5 2.6 6.3 3.7 1.7 0.6 2.4 0.5 2.6 0.3 0.1 0 0.2-0.1 0.3-0.4 0.4-1.7-2.4-6.4-3.5-8q-0.1-0.2-0.1-0.4 0.1-0.2 0.3-0.3c3.7-1.8 7.6-4.5 7.4-5.6 0-0.4-0.6-0.8-1.5-1.1-2.5-1-7-1.3-7-1.3-0.2 0-0.4-0.2-0.4-0.4-0.4-1.7-1.7-6.5-3.9-7.3z"/><path fill-rule="evenodd" class="N" d="m13.5 351.6q-0.6 0-1.1-0.4c-1.8-1.6-2-8.4-2.1-10.5-1.7-0.1-7.5-0.7-9.7-2.5q-0.6-0.5-0.6-1.4c0.2-2.4 5.8-6.2 7.3-7.2-0.4-2.2-2.2-11.3 1.4-12.3 3.4-0.9 8.2 4.3 9.3 5.7 1.3-0.5 5.3-2.1 8.2-2.5q2.3-0.2 3.1 0.7c1.7 2.1-2.8 8.8-4.4 11 1.9 1.1 7.6 4.5 8.2 7q0.2 0.8-0.2 1.5c-0.5 0.8-1.7 1.3-3.7 1.5-3.2 0.4-7.4-0.1-8.7-0.3-0.9 1.9-4.2 8.8-6.8 9.6q-0.1 0.1-0.2 0.1zm-4.3-33.3q-0.1 0-0.3 0.1c-2.1 0.5-1.4 7.2-0.4 11.3 0 0.2-0.1 0.4-0.3 0.6-2.7 1.7-7 5-7.1 6.6q0 0.3 0.2 0.5c2.2 1.8 9.5 2.3 9.6 2.3 0.2 0 0.5 0.3 0.5 0.5 0 3.4 0.5 9.1 1.7 10.2 0.1 0.1 0.2 0.1 0.3 0.1q0 0 0 0c1.8-0.5 4.8-6.1 6.3-9.4 0.1-0.2 0.3-0.4 0.6-0.3 0 0 5.2 0.8 8.8 0.4 2.1-0.3 2.7-0.8 2.9-1.1 0.1-0.1 0.2-0.3 0.1-0.6-0.5-2.1-6.1-5.5-8.2-6.6q-0.2-0.1-0.3-0.4 0-0.2 0.1-0.4c3-4.1 5.6-9.1 4.8-10.2-0.3-0.3-1.1-0.4-2.2-0.3-3.2 0.4-8.2 2.5-8.2 2.5-0.2 0.1-0.5 0.1-0.7-0.1-1.3-1.7-5.4-6-8.2-5.7z"/><path class="M" d="m10.3 320.9c-2.7 0.7-0.7 9.5-0.7 9.5 0 0-7.4 4.7-5.5 6.3 1.9 1.5 7.8 1.9 7.8 1.9 0 0 0.1 9.1 2.2 8.5 2.1-0.6 5.2-7.6 5.2-7.6 0 0 8.4 1.2 9.7-0.8 1.3-2-6.6-6.3-6.6-6.3 0 0 5.1-6.9 3.8-8.5-1.3-1.6-8.7 1.6-8.7 1.6 0 0-4.3-5.3-7.2-4.6z"/><path fill-rule="evenodd" class="N" d="m13.5 351.6q-0.6 0-1.1-0.4c-1.8-1.6-2-8.4-2.1-10.5-1.7-0.1-7.5-0.7-9.7-2.5q-0.6-0.5-0.6-1.4c0.2-2.4 5.8-6.2 7.3-7.2-0.4-2.2-2.2-11.3 1.4-12.3 3.4-0.9 8.2 4.3 9.3 5.7 1.3-0.5 5.3-2.1 8.2-2.5q2.3-0.2 3.1 0.7c1.7 2.1-2.8 8.8-4.4 11 1.9 1.1 7.6 4.5 8.2 7q0.2 0.8-0.2 1.5c-0.5 0.8-1.7 1.3-3.7 1.5-3.2 0.4-7.4-0.1-8.7-0.3-0.9 1.9-4.2 8.8-6.8 9.6q-0.1 0.1-0.2 0.1zm-4.3-33.3q-0.1 0-0.3 0.1c-2.1 0.5-1.4 7.2-0.4 11.3 0 0.2-0.1 0.4-0.3 0.6-2.7 1.7-7 5-7.1 6.6q0 0.3 0.2 0.5c2.2 1.8 9.5 2.3 9.6 2.3 0.2 0 0.5 0.3 0.5 0.5 0 3.4 0.5 9.1 1.7 10.2 0.1 0.1 0.2 0.1 0.3 0.1q0 0 0 0c1.8-0.5 4.8-6.1 6.3-9.4 0.1-0.2 0.3-0.4 0.6-0.3 0 0 5.2 0.8 8.8 0.4 2.1-0.3 2.7-0.8 2.9-1.1 0.1-0.1 0.2-0.3 0.1-0.6-0.5-2.1-6.1-5.5-8.2-6.6q-0.2-0.1-0.3-0.4 0-0.2 0.1-0.4c3-4.1 5.6-9.1 4.8-10.2-0.3-0.3-1.1-0.4-2.2-0.3-3.2 0.4-8.2 2.5-8.2 2.5-0.2 0.1-0.5 0.1-0.7-0.1-1.3-1.7-5.4-6-8.2-5.7z"/><path fill-rule="evenodd" class="N" d="m466.8 159.8c-3.1-0.6-8-8.4-9.3-10.5-1.5 0.4-6.5 1.6-10.3 1.6-2.3 0-3.8-0.5-4.6-1.4-0.4-0.5-0.5-1-0.4-1.7 0.4-3.1 6.7-7.9 8.8-9.4-2.2-2.4-8.4-9.8-6.7-12.4 0.5-0.9 1.7-1.3 3.6-1.3 3.5 0 8.5 1.4 10 1.8 1.2-1.8 6.1-8.5 10.4-7.9 4.3 0.6 3.5 11.6 3.2 14.3 2 1 9.2 4.8 9.7 7.7 0.1 0.6-0.1 1.2-0.5 1.6-2.4 2.4-9.2 3.9-11.2 4.4 0.2 2.4 0.8 10.6-1.1 12.6q-0.5 0.6-1.2 0.6-0.2 0-0.4 0zm-8.1-32.2c-0.1 0.2-0.4 0.4-0.7 0.3-0.1-0.1-6.2-1.9-10.1-1.9-1.3 0-2.3 0.2-2.6 0.7-0.8 1.3 3 7 7.1 11.4q0.2 0.2 0.2 0.5-0.1 0.3-0.3 0.5c-2.3 1.6-8.5 6.4-8.9 8.9 0 0.4 0.1 0.6 0.2 0.7 0.3 0.3 1.1 0.9 3.6 0.9 4.3 0 10.4-1.6 10.5-1.7 0.2 0 0.5 0.1 0.7 0.3 2.2 3.8 6.5 10 8.7 10.3q0 0.1 0.1 0.1c0 0 0.1 0 0.3-0.2 1.2-1.4 1.1-8.3 0.6-12.3 0-0.3 0.2-0.6 0.6-0.7 0 0 8.6-1.6 11-4.1q0.3-0.2 0.2-0.5c-0.3-1.9-5.9-5.3-9.4-7-0.2-0.1-0.4-0.3-0.3-0.6 0.5-5 0.5-13-2.1-13.4q-0.2 0-0.4 0c-3.3 0-7.6 5.6-9 7.8z"/><path class="M" d="m466.8 123c3.3 0.5 2.1 11.1 2.1 11.1 0 0 9.5 4.7 7.4 6.8-2.1 2.1-9 3.3-9 3.3 0 0 1.1 10.9-1.5 10.4-2.5-0.4-7.2-8.4-7.2-8.4 0 0-9.8 2.7-11.6 0.5-1.9-2.3 7-8.4 7-8.4 0 0-7-7.6-5.7-9.6 1.3-2.1 10.6 0.7 10.6 0.7 0 0 4.4-6.9 7.9-6.4z"/><path fill-rule="evenodd" class="N" d="m466.8 159.8c-3.1-0.6-8-8.4-9.3-10.5-1.5 0.4-6.5 1.6-10.3 1.6-2.3 0-3.8-0.5-4.6-1.4-0.4-0.5-0.5-1-0.4-1.7 0.4-3.1 6.7-7.9 8.8-9.4-2.2-2.4-8.4-9.8-6.7-12.4 0.5-0.9 1.7-1.3 3.6-1.3 3.5 0 8.5 1.4 10 1.8 1.2-1.8 6.1-8.5 10.4-7.9 4.3 0.6 3.5 11.6 3.2 14.3 2 1 9.2 4.8 9.7 7.7 0.1 0.6-0.1 1.2-0.5 1.6-2.4 2.4-9.2 3.9-11.2 4.4 0.2 2.4 0.8 10.6-1.1 12.6q-0.5 0.6-1.2 0.6-0.2 0-0.4 0zm-8.1-32.2c-0.1 0.2-0.4 0.4-0.7 0.3-0.1-0.1-6.2-1.9-10.1-1.9-1.3 0-2.3 0.2-2.6 0.7-0.8 1.3 3 7 7.1 11.4q0.2 0.2 0.2 0.5-0.1 0.3-0.3 0.5c-2.3 1.6-8.5 6.4-8.9 8.9 0 0.4 0.1 0.6 0.2 0.7 0.3 0.3 1.1 0.9 3.6 0.9 4.3 0 10.4-1.6 10.5-1.7 0.2 0 0.5 0.1 0.7 0.3 2.2 3.8 6.5 10 8.7 10.3q0 0.1 0.1 0.1c0 0 0.1 0 0.3-0.2 1.2-1.4 1.1-8.3 0.6-12.3 0-0.3 0.2-0.6 0.6-0.7 0 0 8.6-1.6 11-4.1q0.3-0.2 0.2-0.5c-0.3-1.9-5.9-5.3-9.4-7-0.2-0.1-0.4-0.3-0.3-0.6 0.5-5 0.5-13-2.1-13.4q-0.2 0-0.4 0c-3.3 0-7.6 5.6-9 7.8z"/><path fill-rule="evenodd" class="N" d="m503 28.5c-2.4 1.1-9.6-1.6-11.5-2.4-0.8 1-3.5 4.3-6 6.2-1.6 1.1-2.8 1.6-3.8 1.3q-0.7-0.1-1.1-0.9c-1.3-2.3 0.5-8.5 1.2-10.6-2.7-0.5-10.5-2.4-10.7-5q-0.1-1.2 1.8-2.6c2.3-1.8 6.3-3.3 7.6-3.8-0.1-1.8-0.2-8.7 2.9-10.4 3.2-1.8 8.1 6 9.3 7.9 1.8-0.3 8.5-1.4 10.3 0.3q0.5 0.6 0.4 1.4c-0.3 2.8-4.1 7.1-5.3 8.4 1.4 1.5 5.9 6.7 5.6 9q0 0.7-0.5 1-0.1 0.1-0.2 0.2zm-21.4-17.5c0 0.3-0.2 0.5-0.4 0.6 0 0-5.1 1.8-7.6 3.7-1 0.7-1.5 1.3-1.4 1.7 0.1 1.4 5.5 3.2 10.4 4.2q0.2 0 0.3 0.2 0.2 0.2 0.1 0.5c-0.8 2.2-2.5 8.5-1.5 10.3 0.2 0.3 0.3 0.4 0.5 0.4 0.3 0.1 1.1 0.1 2.8-1.2 2.9-2.1 6.1-6.2 6.2-6.3 0.1-0.2 0.4-0.2 0.6-0.1 3.3 1.4 9.3 3.3 10.9 2.5q0 0 0.1 0c0-0.1 0.1-0.1 0.1-0.3 0.1-1.6-3.4-6.1-5.7-8.5-0.2-0.2-0.2-0.5 0-0.7 0.1-0.1 5-5.4 5.4-8.3q0-0.2-0.2-0.4c-1.1-1.1-6.5-0.6-9.7 0-0.2 0.1-0.4 0-0.5-0.2-2.1-3.6-6.1-9-8-7.9q-0.2 0.1-0.3 0.2c-2.2 1.6-2.3 7.5-2.1 9.6z"/><path class="M" d="m484.7 4c2.4-1.4 6.9 6.4 6.9 6.4 0 0 8.6-1.7 8.3 0.8-0.3 2.4-4.4 6.7-4.4 6.7 0 0 6.2 6.7 4.2 7.6-1.9 1-8.9-2-8.9-2 0 0-5.3 6.7-7.6 6.1-2.3-0.6 0.5-9.1 0.5-9.1 0 0-8.4-1.6-8.5-3.6-0.2-2 7.4-4.8 7.4-4.8 0 0-0.5-6.7 2.1-8.1z"/><path fill-rule="evenodd" class="N" d="m503 28.5c-2.4 1.1-9.6-1.6-11.5-2.4-0.8 1-3.5 4.3-6 6.2-1.6 1.1-2.8 1.6-3.8 1.3q-0.7-0.1-1.1-0.9c-1.3-2.3 0.5-8.5 1.2-10.6-2.7-0.5-10.5-2.4-10.7-5q-0.1-1.2 1.8-2.6c2.3-1.8 6.3-3.3 7.6-3.8-0.1-1.8-0.2-8.7 2.9-10.4 3.2-1.8 8.1 6 9.3 7.9 1.8-0.3 8.5-1.4 10.3 0.3q0.5 0.6 0.4 1.4c-0.3 2.8-4.1 7.1-5.3 8.4 1.4 1.5 5.9 6.7 5.6 9q0 0.7-0.5 1-0.1 0.1-0.2 0.2zm-21.4-17.5c0 0.3-0.2 0.5-0.4 0.6 0 0-5.1 1.8-7.6 3.7-1 0.7-1.5 1.3-1.4 1.7 0.1 1.4 5.5 3.2 10.4 4.2q0.2 0 0.3 0.2 0.2 0.2 0.1 0.5c-0.8 2.2-2.5 8.5-1.5 10.3 0.2 0.3 0.3 0.4 0.5 0.4 0.3 0.1 1.1 0.1 2.8-1.2 2.9-2.1 6.1-6.2 6.2-6.3 0.1-0.2 0.4-0.2 0.6-0.1 3.3 1.4 9.3 3.3 10.9 2.5q0 0 0.1 0c0-0.1 0.1-0.1 0.1-0.3 0.1-1.6-3.4-6.1-5.7-8.5-0.2-0.2-0.2-0.5 0-0.7 0.1-0.1 5-5.4 5.4-8.3q0-0.2-0.2-0.4c-1.1-1.1-6.5-0.6-9.7 0-0.2 0.1-0.4 0-0.5-0.2-2.1-3.6-6.1-9-8-7.9q-0.2 0.1-0.3 0.2c-2.2 1.6-2.3 7.5-2.1 9.6z"/><path fill-rule="evenodd" class="N" d="m619.3 262.6c-3.1 0.6-10.5-4.9-12.4-6.4-1.3 0.9-5.5 3.8-9.1 5.2-2.2 0.8-3.7 0.9-4.8 0.4-0.5-0.3-0.8-0.8-1-1.4-0.7-3.1 3.4-9.8 4.8-12-2.9-1.5-11.3-6.1-10.7-9.2 0.2-0.9 1.1-1.8 2.9-2.4 3.3-1.3 8.4-1.8 10-2 0.5-2.1 2.6-10.2 6.8-11.1 4.2-1 7.4 9.6 8.1 12.2 2.2 0.2 10.3 1.1 11.8 3.6 0.3 0.5 0.4 1.1 0.1 1.7-1.3 3.1-7.1 7-8.8 8.1 1.1 2.2 4.6 9.6 3.6 12.2q-0.3 0.7-1 1-0.1 0.1-0.3 0.1zm-19.2-27.1c0 0.3-0.2 0.5-0.5 0.6-0.1 0-6.5 0.4-10.1 1.8-1.3 0.5-2.1 1.1-2.2 1.6-0.3 1.6 5.4 5.4 10.8 8.1q0.2 0.1 0.3 0.4 0.1 0.3-0.1 0.5c-1.6 2.4-5.6 9.1-5 11.6 0.1 0.3 0.2 0.5 0.4 0.5 0.3 0.3 1.3 0.5 3.7-0.4 4-1.6 9-5.3 9.1-5.3 0.2-0.2 0.5-0.2 0.8 0 3.4 2.7 9.6 6.8 11.8 6.4q0 0 0.1 0c0 0 0.1 0 0.2-0.2 0.7-1.8-2-8.2-3.8-11.7-0.2-0.3-0.1-0.7 0.2-0.9 0.1 0 7.5-4.6 8.9-7.8q0.1-0.3-0.1-0.5c-1-1.7-7.4-2.8-11.2-3.1-0.3 0-0.5-0.2-0.6-0.5-1.3-4.8-4.2-12.3-6.7-11.7q-0.2 0.1-0.4 0.1c-3.1 1.2-5.1 8-5.6 10.5z"/><path class="M" d="m606 228.4c3.3-0.8 5.9 9.6 5.9 9.6 0 0 10.5 0.8 9.4 3.6-1.2 2.7-7.2 6.4-7.2 6.4 0 0 5 9.7 2.4 10.1-2.5 0.5-9.7-5.2-9.7-5.2 0 0-8.2 6.1-10.7 4.6-2.5-1.4 3.5-10.3 3.5-10.3 0 0-9.2-4.5-8.8-6.9 0.5-2.4 10.2-3.1 10.2-3.1 0 0 1.5-8 5-8.8z"/><path fill-rule="evenodd" class="N" d="m619.3 262.6c-3.1 0.6-10.5-4.9-12.4-6.4-1.3 0.9-5.5 3.8-9.1 5.2-2.2 0.8-3.7 0.9-4.8 0.4-0.5-0.3-0.8-0.8-1-1.4-0.7-3.1 3.4-9.8 4.8-12-2.9-1.5-11.3-6.1-10.7-9.2 0.2-0.9 1.1-1.8 2.9-2.4 3.3-1.3 8.4-1.8 10-2 0.5-2.1 2.6-10.2 6.8-11.1 4.2-1 7.4 9.6 8.1 12.2 2.2 0.2 10.3 1.1 11.8 3.6 0.3 0.5 0.4 1.1 0.1 1.7-1.3 3.1-7.1 7-8.8 8.1 1.1 2.2 4.6 9.6 3.6 12.2q-0.3 0.7-1 1-0.1 0.1-0.3 0.1zm-19.2-27.1c0 0.3-0.2 0.5-0.5 0.6-0.1 0-6.5 0.4-10.1 1.8-1.3 0.5-2.1 1.1-2.2 1.6-0.3 1.6 5.4 5.4 10.8 8.1q0.2 0.1 0.3 0.4 0.1 0.3-0.1 0.5c-1.6 2.4-5.6 9.1-5 11.6 0.1 0.3 0.2 0.5 0.4 0.5 0.3 0.3 1.3 0.5 3.7-0.4 4-1.6 9-5.3 9.1-5.3 0.2-0.2 0.5-0.2 0.8 0 3.4 2.7 9.6 6.8 11.8 6.4q0 0 0.1 0c0 0 0.1 0 0.2-0.2 0.7-1.8-2-8.2-3.8-11.7-0.2-0.3-0.1-0.7 0.2-0.9 0.1 0 7.5-4.6 8.9-7.8q0.1-0.3-0.1-0.5c-1-1.7-7.4-2.8-11.2-3.1-0.3 0-0.5-0.2-0.6-0.5-1.3-4.8-4.2-12.3-6.7-11.7q-0.2 0.1-0.4 0.1c-3.1 1.2-5.1 8-5.6 10.5z"/><path fill-rule="evenodd" class="N" d="m604 433.7c-3.7-1.1-8.5-11.1-9.7-13.8-1.9 0.3-7.9 1-12.5 0.5-2.8-0.3-4.5-1.1-5.3-2.3-0.4-0.6-0.5-1.3-0.3-2 0.9-3.7 9.1-8.5 11.8-10-2.3-3.3-8.7-12.9-6.3-15.8 0.7-0.9 2.2-1.3 4.5-1 4.1 0.4 9.9 2.7 11.7 3.5 1.6-2 8.4-9.4 13.4-8.1 5.1 1.3 2.6 14.4 1.9 17.5 2.2 1.5 10.3 7 10.5 10.5 0.1 0.7-0.2 1.4-0.8 1.9-3.2 2.6-11.5 3.4-14 3.6 0 3-0.4 12.8-2.9 15q-0.7 0.7-1.6 0.6-0.2 0-0.4-0.1zm-5.3-39.5c-0.2 0.3-0.6 0.4-0.9 0.2-0.1 0-7.2-3.1-11.8-3.6-1.6-0.2-2.8 0-3.1 0.5-1.3 1.5 2.6 8.7 6.8 14.6q0.2 0.3 0.2 0.6-0.1 0.3-0.4 0.5c-3 1.6-11.1 6.5-11.8 9.5-0.1 0.4 0 0.7 0.1 0.8 0.3 0.4 1.2 1.2 4.2 1.6 5.1 0.5 12.6-0.6 12.7-0.6 0.3 0 0.6 0.1 0.8 0.5 2.1 4.8 6.4 12.7 9 13.4q0 0 0.1 0.1c0 0 0.1 0 0.3-0.2 1.8-1.5 2.5-9.7 2.5-14.6 0-0.4 0.3-0.7 0.7-0.7 0.1 0 10.5-0.7 13.8-3.4 0.2-0.2 0.3-0.4 0.3-0.6-0.2-2.3-6.4-7.1-10.3-9.6-0.3-0.2-0.4-0.5-0.3-0.8 1.3-5.9 2.4-15.4-0.7-16.2q-0.2-0.1-0.4-0.1c-4-0.4-9.9 5.7-11.8 8.1z"/><path class="M" d="m608.9 389.8c3.9 1 1 13.6 1 13.6 0 0 10.7 6.8 7.9 9-2.7 2.3-11.2 2.8-11.2 2.8 0 0-0.1 13.1-3.1 12.2-3-0.9-7.5-11-7.5-11 0 0-12 1.9-13.9-1.1-1.9-2.9 9.5-9 9.5-9 0 0-7.3-9.9-5.5-12.2 1.9-2.4 12.6 2.3 12.6 2.3 0 0 6.1-7.6 10.2-6.6z"/><path fill-rule="evenodd" class="N" d="m604 433.7c-3.7-1.1-8.5-11.1-9.7-13.8-1.9 0.3-7.9 1-12.5 0.5-2.8-0.3-4.5-1.1-5.3-2.3-0.4-0.6-0.5-1.3-0.3-2 0.9-3.7 9.1-8.5 11.8-10-2.3-3.3-8.7-12.9-6.3-15.8 0.7-0.9 2.2-1.3 4.5-1 4.1 0.4 9.9 2.7 11.7 3.5 1.6-2 8.4-9.4 13.4-8.1 5.1 1.3 2.6 14.4 1.9 17.5 2.2 1.5 10.3 7 10.5 10.5 0.1 0.7-0.2 1.4-0.8 1.9-3.2 2.6-11.5 3.4-14 3.6 0 3-0.4 12.8-2.9 15q-0.7 0.7-1.6 0.6-0.2 0-0.4-0.1zm-5.3-39.5c-0.2 0.3-0.6 0.4-0.9 0.2-0.1 0-7.2-3.1-11.8-3.6-1.6-0.2-2.8 0-3.1 0.5-1.3 1.5 2.6 8.7 6.8 14.6q0.2 0.3 0.2 0.6-0.1 0.3-0.4 0.5c-3 1.6-11.1 6.5-11.8 9.5-0.1 0.4 0 0.7 0.1 0.8 0.3 0.4 1.2 1.2 4.2 1.6 5.1 0.5 12.6-0.6 12.7-0.6 0.3 0 0.6 0.1 0.8 0.5 2.1 4.8 6.4 12.7 9 13.4q0 0 0.1 0.1c0 0 0.1 0 0.3-0.2 1.8-1.5 2.5-9.7 2.5-14.6 0-0.4 0.3-0.7 0.7-0.7 0.1 0 10.5-0.7 13.8-3.4 0.2-0.2 0.3-0.4 0.3-0.6-0.2-2.3-6.4-7.1-10.3-9.6-0.3-0.2-0.4-0.5-0.3-0.8 1.3-5.9 2.4-15.4-0.7-16.2q-0.2-0.1-0.4-0.1c-4-0.4-9.9 5.7-11.8 8.1z"/><path class="M" d="m464.1 24c-8.7 6.3-16.8 13.5-22.8 22.5-0.5 0.8 0.7 1.7 1.3 1 6.9-7.9 14.1-15.5 22.5-21.8 1-0.7 0.1-2.4-1-1.7z"/><path class="M" d="m473.7 34.2c-18 11.5-31.7 27.5-39.9 47.2-0.3 0.9 1.2 1.6 1.6 0.7 8.9-18.3 22.6-34.7 39.3-46.1 1.1-0.8 0.1-2.5-1-1.8z"/><path class="M" d="m434.6 162.5c-1.9 2.2-3 5.1-4.7 7.5-2.2 3-4.9 5.7-7.8 7.9-0.8 0.6-0.1 2 0.9 1.4 3.1-1.9 5.9-4.2 8.2-7.1 2-2.5 4.5-5.9 4.8-9.2 0-0.6-1-1-1.4-0.5z"/><path class="M" d="m447.5 159.7c-3.7 4-7.3 8-10.8 12.2-0.8 0.9 0.4 2.2 1.4 1.4 3.9-3.8 7.6-7.7 11.4-11.6 1.2-1.4-0.8-3.4-2-2z"/><path class="M" d="m485 240.2c-8.2 4.1-16.1 9.7-21.5 17.3-0.4 0.6 0.6 1.3 1.1 0.8 6.6-6.3 13.1-12.3 21.2-16.8 0.9-0.5 0.1-1.8-0.8-1.3z"/><path class="M" d="m489.9 249.9q-4.3 3-8.4 6.2c-0.9 0.6-0.1 2.1 0.8 1.5q4.3-3.2 8.5-6.5c0.6-0.6-0.2-1.6-0.9-1.2z"/><path class="M" d="m502.2 319.6c-8.2-8-19.2-14-30.6-15.4-0.6-0.1-0.7 0.8-0.2 1 11 3.5 20.7 8.1 29.5 15.7 0.9 0.8 2.2-0.4 1.3-1.3z"/><path class="M" d="m496.4 327.8c-4.1-3-8-6.4-12.1-9.5-1.1-0.9-2.4 0.9-1.5 1.9 3.6 3.9 8 6.8 12.6 9.3 1.2 0.7 2-0.9 1-1.7z"/><path class="M" d="m54.2 279.2c-11.6 8.2-21.5 18-29.8 29.5-0.6 0.8 0.8 1.9 1.5 1.1 8.4-10.9 18.3-20.9 29.2-29.4 0.7-0.5-0.2-1.7-0.9-1.2z"/><path class="M" d="m42.3 301.6c-3.1 2.1-5.9 4.9-7.7 8.3-0.6 1.1 1 2 1.7 1 2.1-3 4.3-5.7 7-8 0.8-0.6-0.2-1.9-1-1.3z"/><path class="M" d="m85.4 229.5c-5.1-5.1-11.7-8.9-18.1-12.1-6.9-3.6-14.1-6.2-21.6-8.1-1.1-0.2-1.5 1.4-0.4 1.7 7.1 2.2 14 5.1 20.6 8.7 6.4 3.4 12 7.9 18 11.8 1.2 0.7 2.5-1 1.5-2z"/><path class="M" d="m68.5 206.7c-4.9-3.8-11.1-6.5-17.4-6.2-1.3 0-1.7 2-0.3 2.3 5.7 1.4 11.1 2.8 16.4 5.6 1 0.5 2.2-0.9 1.3-1.7z"/><path class="M" d="m136.2 133.7c-7.6-12.9-21.7-22.9-36.7-25.1-1.3-0.2-1.9 1.6-0.6 2 14.5 4.3 26.4 12.1 35.4 24.3 0.8 1.1 2.7 0.1 1.9-1.2z"/><path class="M" d="m124 109.8c-6.1-4.5-12.6-8.1-19.5-11.3-1.1-0.5-2 1.1-0.9 1.6 6.8 3.2 13.3 7 19.7 10.9 0.7 0.5 1.3-0.6 0.7-1.2z"/><path class="M" d="m79.7 28.4c-10.5-7.3-22.3-11.6-35-13.1-1.4-0.2-1.5 1.9-0.1 2.1 12.1 1.6 23.8 6 34.2 12.4 0.9 0.6 1.7-0.8 0.9-1.4z"/><path class="M" d="m-32.5-78.3q-13.2-4.6-26.4-8.8c-1.4-0.4-2.1 1.7-0.7 2.2q13.2 4.3 26.5 8.3c1.1 0.3 1.7-1.4 0.6-1.7z"/><path class="r" d="m247.2-107c0.1-2.7-3.4-2.7-3.5 0-0.4 9.3 0.1 18.2 1.7 27.3 0.3 1.7 2.6 1.3 2.5-0.4-0.7-8.9-1-17.9-0.7-26.9z"/><path class="r" d="m230-81.7c-1.8-2.2-3.9-3.8-6.4-5.3-2.3-1.4-4.6-3-7.1-4-1.4-0.5-2.3 1.4-1.4 2.3 1.9 2 4.3 3.5 6.5 5.2 2.3 1.6 4.6 3 7.3 3.7 1.2 0.4 1.8-1.1 1.1-1.9z"/><path class="r" d="m206.1-75.1c-11.2-3.5-22.4-7.5-33.8-10.7-0.9-0.3-1.5 1.1-0.6 1.5 10.4 5.7 22.2 9.3 33.8 11.5 1.5 0.3 2.2-1.9 0.6-2.3z"/><path class="r" d="m263.3-81.7c1.7-2.2 3.9-3.8 6.3-5.3 2.4-1.4 4.7-3 7.2-4 1.4-0.5 2.2 1.4 1.3 2.3-1.9 2-4.3 3.5-6.5 5.2-2.2 1.6-4.5 3-7.2 3.7-1.2 0.4-1.8-1.1-1.1-1.9z"/><path class="r" d="m287.1-75.1c11.3-3.5 22.5-7.5 33.9-10.7 0.9-0.3 1.5 1.1 0.6 1.5-10.4 5.7-22.2 9.3-33.8 11.5-1.6 0.3-2.2-1.9-0.7-2.3z"/><path class="r" d="m263.1 93.2c-0.1 1.9 2.3 1.9 2.4 0 0.3-6.5 0-12.6-1.2-19-0.2-1.1-1.8-0.9-1.7 0.3 0.5 6.2 0.7 12.5 0.5 18.7z"/><path class="r" d="m275.1 75.6c1.2 1.5 2.7 2.7 4.4 3.7 1.6 1 3.2 2.1 5 2.8 0.9 0.3 1.6-1 0.9-1.6-1.3-1.4-3-2.5-4.5-3.6-1.6-1.2-3.2-2.1-5-2.6-0.9-0.3-1.3 0.7-0.8 1.3z"/><path class="r" d="m291.7 71c7.9 2.5 15.7 5.3 23.6 7.5 0.6 0.1 1-0.8 0.4-1.1-7.2-4-15.5-6.4-23.5-8-1.1-0.2-1.6 1.3-0.5 1.6z"/><path class="r" d="m251.9 75.6c-1.3 1.5-2.8 2.7-4.5 3.7-1.6 1-3.2 2.1-5 2.8-0.9 0.3-1.5-1-0.9-1.6 1.3-1.4 3-2.5 4.5-3.6 1.6-1.2 3.2-2.1 5.1-2.6 0.8-0.3 1.2 0.7 0.8 1.3z"/><path class="r" d="m235.2 71c-7.8 2.5-15.6 5.3-23.6 7.5-0.6 0.1-1-0.8-0.4-1.1 7.2-4 15.5-6.4 23.6-8 1.1-0.2 1.5 1.3 0.4 1.6z"/><path class="O" d="m54.4 161c-1.2-0.8-4.6-10.4 0.6-14.3 5.7-4.1 6.2 4.4 6.2 4.4 0 0 5.5-1.9 6.8 1.5 2.8 6.7-12 9.6-13.6 8.4z"/><path class="O" d="m28.6 51c-1.4 0.3-10.9-3.5-10.4-9.9 0.6-7 7.3-1.8 7.3-1.8 0 0 2.3-5.4 5.7-4.2 6.9 2.4-0.7 15.4-2.6 15.9z"/><path class="O" d="m34.4-96.1c-2.3-1-10.8-15.8-3.5-23.8 8.1-8.7 11.5 5.2 11.5 5.2 0 0 8.6-4.8 11.9 0.3 6.6 10.3-16.9 19.7-19.9 18.3z"/><path class="O" d="m24.4 275.7c-1.6 1.1-15.2 0.6-17.5-7.7-2.5-9.1 8.3-5.6 8.3-5.6 0 0 0.4-7.7 5.2-7.8 9.7-0.3 6.2 19.6 4 21.1z"/><path class="O" d="m33.6 394.4c-1.2-0.6-5.7-9.2-1.3-13.6 4.8-4.7 6.4 3.3 6.4 3.3 0 0 4.9-2.5 6.6 0.5 3.5 5.9-10 10.7-11.7 9.8z"/><path class="O" d="m491.2 195.7c1.2-0.9 4.6-10.5-0.7-14.3-5.6-4.2-6.1 4.3-6.1 4.3 0 0-5.5-1.8-6.9 1.5-2.7 6.7 12.1 9.6 13.7 8.5z"/><path class="O" d="m597.6 39.8c2.1 0.5 15.6-5 14.9-14.2-0.9-10.1-10.5-2.6-10.5-2.6 0 0-3.2-7.7-8.1-6-9.9 3.4 1 22.1 3.7 22.8z"/><path class="O" d="m179.3 129.7c1.2-0.8 4.8-10.3-0.3-14.3-5.6-4.3-6.3 4.2-6.3 4.2 0 0-5.4-2-6.9 1.3-2.9 6.7 11.9 9.9 13.5 8.8z"/><path class="O" d="m485.6-79.4c2.3-1 10.8-15.8 3.5-23.8-8.1-8.7-11.5 5.2-11.5 5.2 0 0-8.5-4.8-11.9 0.3-6.6 10.2 16.9 19.7 19.9 18.3z"/><path class="O" d="m603.2 323.6c2.3 1.6 21.9 0.9 25.2-11 3.6-13-12-8-12-8 0 0-0.5-11.1-7.4-11.3-13.9-0.3-8.9 28.2-5.8 30.3z"/><path class="O" d="m597 495.9c1.8-0.9 8.2-13.3 1.9-19.5-6.8-6.7-9.1 4.7-9.1 4.7 0 0-7.1-3.6-9.6 0.7-5 8.5 14.4 15.3 16.8 14.1z"/></svg>