<svg version="1.2" xmlns="http://www.w3.org/2000/svg" viewBox="0 0 1000 1000" width="500" height="500"><style>.a{fill:none;stroke:#bd64ac;stroke-miterlimit:10;stroke-width:4}.b{fill:none;stroke:#232f63;stroke-miterlimit:10;stroke-width:4}.c{fill:none;stroke:#232f63;stroke-miterlimit:10;stroke-width:2}.d{fill:none;stroke:#bd64ac;stroke-miterlimit:10;stroke-width:2}.e{fill:#232f63}.f{fill:#bd64ac}.g{fill:#ecf7fc}.h{fill:#fff}.i{fill:#f9af55}.j{fill:none;stroke:#232f63;stroke-miterlimit:10;stroke-width:1.5}.k{fill:none;stroke:#232f63;stroke-miterlimit:10}.l{opacity:.7;fill:#fff}.m{fill:none;stroke:#fff;stroke-miterlimit:10;stroke-width:2}</style><path class="a" d="m641.9 213.5c-63.8 63.8-159.7-32.1-223.5 31.7-63.8 63.7 32.2 159.6-31.6 223.4-63.8 63.8-159.7-32.1-223.5 31.6-63.7 63.8 32.2 159.7-31.6 223.5"/><path class="b" d="m35.8 627.8c63.7-63.8 159.7 32.1 223.4-31.6 63.8-63.8-32.1-159.7 31.6-223.5 63.8-63.8 159.7 32.2 223.5-31.6 63.8-63.8-32.1-159.7 31.6-223.5"/><path class="c" d="m235.8 497.3l25.4 25.4"/><path class="d" d="m159.7 573.5l25.4 25.4"/><path class="c" d="m163 544.3l52.2 52.2"/><path class="d" d="m207.4 499.9l52.2 52.2"/><path class="c" d="m187.9 509.3l67.9 67.9"/><path class="d" d="m172.9 524.3l67.9 67.9"/><path class="c" d="m363.7 369.4l25.4 25.4"/><path class="d" d="m287.6 445.6l25.4 25.4"/><path class="c" d="m290.9 416.4l52.2 52.2"/><path class="d" d="m335.3 372l52.2 52.2"/><path class="c" d="m315.8 381.4l67.9 67.9"/><path class="d" d="m300.8 396.4l67.9 67.9"/><path class="c" d="m491.6 241.5l25.4 25.4"/><path class="d" d="m415.5 317.7l25.4 25.4"/><path class="c" d="m418.8 288.5l52.1 52.2"/><path class="d" d="m463.2 244.1l52.2 52.2"/><path class="c" d="m443.7 253.5l67.9 67.9"/><path class="d" d="m428.7 268.5l67.9 67.9"/><path class="d" d="m541.8 191.4l25.4 25.4"/><path class="c" d="m545.1 162.2l52.1 52.2"/><path class="c" d=""/><path class="c" d=""/><path class="c" d="m136.3 649.5l-25.3-25.4"/><path class="d" d="m133.1 678.6l-52.2-52.2"/><path class="c" d=""/><path class="c" d=""/><path class="e" d="m774.1 878.7v-27c36.8 0 70.5-18.6 90.1-49.7l62.4-98.4c21.9-34.9 11.4-81.2-23.4-103.2l-99.6-62.9 14.5-22.8 99.5 62.9c47.4 29.9 61.7 92.9 31.8 140.4l-62.4 98.4c-24.5 39-66.7 62.3-112.9 62.3z"/><path class="e" d="m613.2 829.5l65.3 24.7 2.3-6.1-65.3-24.8z"/><path class="f" d="m639.9 840.5l0.3-0.8 52.9 20.4c4 1.6 8.4-1.4 8.4-5.8 0-3.4 2.8-6.2 6.2-6.2h66.4v64.1h-72.6v-4c0-7.7-4.7-14.6-11.9-17.4l-33-12.7c-15-5.8-22.4-22.7-16.7-37.6z"/><path class="e" d="m849.6 484.5l26.9-45.4-50.4-29.9-26.9 45.4z"/><path class="e" d="m681.5 763.8l26.9-45.4-50.3-29.8-27 45.3z"/><path class="e" d="m865.8 437.3l9.8-16.5c5.4-9.1 2.4-20.9-6.7-26.3-9.1-5.4-20.9-2.4-26.3 6.7l-9.8 16.5z"/><path class="f" d="m711.3 748.8l158.9-267.8c4.1-6.9 1.8-15.8-5.1-20l-54.7-32.4c-6.9-4.1-15.8-1.8-20 5.1l-158.9 267.8c-3.2 5.5-1.4 12.6 4.1 15.8l59.8 35.6c5.5 3.2 12.7 1.4 15.9-4.1z"/><path class="g" d="m737.8 895.1c-8.3 0-14.9-6.6-14.9-14.9 0-8.3 6.6-15 14.9-15 8.3 0 15 6.7 15 15 0 8.3-6.7 14.9-15 14.9z"/><path class="e" d="m616.8 942.1h242.1v-10.1c0-10.9-8.9-19.8-19.8-19.8h-202.5c-10.9 0-19.8 8.9-19.8 19.8z"/><path class="h" d="m381.5 757.9h-15.6c-6 0-10.9-4.9-10.9-10.9v-155.2h37.4v155.2c0 6-4.9 10.9-10.9 10.9z"/><path class="f" d="m362.1 610.4v126.1c0 6.4 5.2 11.6 11.6 11.6 6.4 0 11.6-5.2 11.6-11.6v-126.1z"/><path class="h" d="m400.8 591.8v8.5h-54.2v-8.5z"/><path class="g" d="m369.8 707.3c-0.9 0-1.6-0.7-1.6-1.6 0-0.9 0.7-1.7 1.6-1.7 1 0 1.7 0.8 1.7 1.7 0 0.9-0.7 1.6-1.7 1.6z"/><path class="g" d="m372.3 622.4c-0.9 0-1.6-0.7-1.6-1.6 0-0.9 0.7-1.7 1.6-1.7 1 0 1.7 0.8 1.7 1.7 0 0.9-0.7 1.6-1.7 1.6z"/><path class="g" d="m376.2 625.2c0 0.4-0.4 0.8-0.8 0.8-0.5 0-0.9-0.4-0.9-0.8 0-0.5 0.4-0.9 0.9-0.9 0.4 0 0.8 0.4 0.8 0.9z"/><path class="g" d="m371.5 731.3c0 0.5-0.4 0.9-0.8 0.9-0.5 0-0.9-0.4-0.9-0.9 0-0.4 0.4-0.8 0.9-0.8 0.4 0 0.8 0.4 0.8 0.8z"/><path class="g" d="m378.7 668.2c0 0.5-0.4 0.9-0.8 0.9-0.5 0-0.9-0.4-0.9-0.9 0-0.4 0.4-0.8 0.9-0.8 0.4 0 0.8 0.4 0.8 0.8z"/><path class="g" d="m375.9 730.5c-1.5 0-2.7-1.2-2.7-2.7 0-1.5 1.2-2.7 2.7-2.7 1.5 0 2.7 1.2 2.7 2.7 0 1.5-1.2 2.7-2.7 2.7z"/><path class="g" d="m374.5 702.6c-2.6 0-4.7-2.1-4.7-4.7 0-2.6 2.1-4.7 4.7-4.7 2.6 0 4.7 2.1 4.7 4.7 0 2.6-2.1 4.7-4.7 4.7z"/><path class="h" d="m447.4 757.9h-15.6c-6 0-10.9-4.9-10.9-10.9v-155.2h37.4v155.2c0 6-4.9 10.9-10.9 10.9z"/><path class="i" d="m427.9 610.4v126.1c0 6.4 5.2 11.6 11.7 11.6 6.4 0 11.6-5.2 11.6-11.6v-126.1z"/><path class="h" d="m466.7 591.8v8.5h-54.3v-8.5z"/><path class="g" d="m435.7 707.3c-0.9 0-1.6-0.7-1.6-1.6 0-0.9 0.7-1.7 1.6-1.7 0.9 0 1.7 0.8 1.7 1.7 0 0.9-0.8 1.6-1.7 1.6z"/><path class="g" d="m438.2 622.4c-0.9 0-1.6-0.7-1.6-1.6 0-0.9 0.7-1.7 1.6-1.7 0.9 0 1.7 0.8 1.7 1.7 0 0.9-0.8 1.6-1.7 1.6z"/><path class="g" d="m442.1 625.2c0 0.4-0.4 0.8-0.8 0.8-0.5 0-0.9-0.4-0.9-0.8 0-0.5 0.4-0.9 0.9-0.9 0.4 0 0.8 0.4 0.8 0.9z"/><path class="g" d="m437.4 731.3c0 0.5-0.4 0.9-0.8 0.9-0.5 0-0.9-0.4-0.9-0.9 0-0.4 0.4-0.8 0.9-0.8 0.4 0 0.8 0.4 0.8 0.8z"/><path class="g" d="m444.6 668.2c0 0.5-0.4 0.9-0.9 0.9-0.4 0-0.8-0.4-0.8-0.9 0-0.4 0.4-0.8 0.8-0.8 0.5 0 0.9 0.4 0.9 0.8z"/><path class="g" d="m441.8 730.5c-1.5 0-2.7-1.2-2.7-2.7 0-1.5 1.2-2.7 2.7-2.7 1.5 0 2.7 1.2 2.7 2.7 0 1.5-1.2 2.7-2.7 2.7z"/><path class="g" d="m440.4 702.6c-2.6 0-4.7-2.1-4.7-4.7 0-2.6 2.1-4.7 4.7-4.7 2.6 0 4.7 2.1 4.7 4.7 0 2.6-2.1 4.7-4.7 4.7z"/><path class="h" d="m513.3 757.9h-15.6c-6 0-10.9-4.9-10.9-10.9v-155.2h37.4v155.2c0 6-4.9 10.9-10.9 10.9z"/><path class="e" d="m493.8 610.4v126.1c0 6.4 5.2 11.6 11.7 11.6 6.4 0 11.6-5.2 11.6-11.6v-126.1z"/><path class="h" d="m532.6 591.8v8.5h-54.3v-8.5z"/><path class="g" d="m501.6 707.3c-0.9 0-1.7-0.7-1.7-1.6 0-0.9 0.8-1.7 1.7-1.7 0.9 0 1.7 0.8 1.7 1.7 0 0.9-0.8 1.6-1.7 1.6z"/><path class="g" d="m504.1 622.4c-0.9 0-1.7-0.7-1.7-1.6 0-0.9 0.8-1.7 1.7-1.7 0.9 0 1.7 0.8 1.7 1.7 0 0.9-0.8 1.6-1.7 1.6z"/><path class="g" d="m508 625.2c0 0.4-0.4 0.8-0.9 0.8-0.4 0-0.8-0.4-0.8-0.8 0-0.5 0.4-0.9 0.8-0.9 0.5 0 0.9 0.4 0.9 0.9z"/><path class="g" d="m503.3 731.3c0 0.5-0.4 0.9-0.9 0.9-0.4 0-0.8-0.4-0.8-0.9 0-0.4 0.4-0.8 0.8-0.8 0.5 0 0.9 0.4 0.9 0.8z"/><path class="g" d="m510.5 668.2c0 0.5-0.4 0.9-0.9 0.9-0.4 0-0.8-0.4-0.8-0.9 0-0.4 0.4-0.8 0.8-0.8 0.5 0 0.9 0.4 0.9 0.8z"/><path class="g" d="m507.7 730.5c-1.5 0-2.7-1.2-2.7-2.7 0-1.5 1.2-2.7 2.7-2.7 1.5 0 2.7 1.2 2.7 2.7 0 1.5-1.2 2.7-2.7 2.7z"/><path class="g" d="m506.3 702.6c-2.6 0-4.7-2.1-4.7-4.7 0-2.6 2.1-4.7 4.7-4.7 2.6 0 4.7 2.1 4.7 4.7 0 2.6-2.1 4.7-4.7 4.7z"/><path class="j" d="m193.9 6.8h-51.9l-25.9 44.9 25.9 45h51.9l25.9-45z"/><path class="e" d="m142 13.6c-3.8 0-6.8-3-6.8-6.8 0-3.8 3-6.8 6.8-6.8 3.8 0 6.8 3 6.8 6.8 0 3.8-3 6.8-6.8 6.8z"/><path class="e" d="m193.9 13.6c-3.8 0-6.8-3-6.8-6.8 0-3.8 3-6.8 6.8-6.8 3.8 0 6.8 3 6.8 6.8 0 3.8-3 6.8-6.8 6.8z"/><path class="e" d="m142 103.5c-3.8 0-6.8-3.1-6.8-6.8 0-3.8 3-6.8 6.8-6.8 3.8 0 6.8 3 6.8 6.8 0 3.7-3 6.8-6.8 6.8z"/><path class="e" d="m193.9 103.5c-3.8 0-6.8-3.1-6.8-6.8 0-3.8 3-6.8 6.8-6.8 3.8 0 6.8 3 6.8 6.8 0 3.7-3 6.8-6.8 6.8z"/><path class="e" d="m219.8 58.5c-3.7 0-6.8-3-6.8-6.8 0-3.7 3.1-6.8 6.8-6.8 3.8 0 6.8 3.1 6.8 6.8 0 3.8-3 6.8-6.8 6.8z"/><path class="e" d="m116.1 58.5c-3.8 0-6.8-3-6.8-6.8 0-3.7 3-6.8 6.8-6.8 3.7 0 6.8 3.1 6.8 6.8 0 3.8-3.1 6.8-6.8 6.8z"/><path class="j" d="m116.1 141.6l25.9 45h51.9l25.9-45-25.9-44.9h-51.9"/><path class="e" d="m142 103.5c-3.8 0-6.8-3.1-6.8-6.8 0-3.8 3-6.8 6.8-6.8 3.8 0 6.8 3 6.8 6.8 0 3.7-3 6.8-6.8 6.8z"/><path class="e" d="m193.9 103.5c-3.8 0-6.8-3.1-6.8-6.8 0-3.8 3-6.8 6.8-6.8 3.8 0 6.8 3 6.8 6.8 0 3.7-3 6.8-6.8 6.8z"/><path class="j" d="m271.7 51.7h-51.9l-25.9 45 25.9 44.9h51.9l26-44.9"/><path class="e" d="m219.8 58.5c-3.7 0-6.8-3-6.8-6.8 0-3.7 3.1-6.8 6.8-6.8 3.8 0 6.8 3.1 6.8 6.8 0 3.8-3 6.8-6.8 6.8z"/><path class="e" d="m271.7 58.5c-3.7 0-6.8-3-6.8-6.8 0-3.7 3.1-6.8 6.8-6.8 3.8 0 6.8 3.1 6.8 6.8 0 3.8-3 6.8-6.8 6.8z"/><path class="e" d="m219.8 148.4c-3.7 0-6.8-3-6.8-6.8 0-3.7 3.1-6.8 6.8-6.8 3.8 0 6.8 3.1 6.8 6.8 0 3.8-3 6.8-6.8 6.8z"/><path class="e" d="m271.7 148.4c-3.7 0-6.8-3-6.8-6.8 0-3.7 3.1-6.8 6.8-6.8 3.8 0 6.8 3.1 6.8 6.8 0 3.8-3 6.8-6.8 6.8z"/><path class="e" d="m297.7 103.5c-3.8 0-6.8-3.1-6.8-6.8 0-3.8 3-6.8 6.8-6.8 3.7 0 6.8 3 6.8 6.8 0 3.7-3.1 6.8-6.8 6.8z"/><path class="e" d="m193.9 103.5c-3.8 0-6.8-3.1-6.8-6.8 0-3.8 3-6.8 6.8-6.8 3.8 0 6.8 3 6.8 6.8 0 3.7-3 6.8-6.8 6.8z"/><path class="e" d="m219.8 148.4c-3.7 0-6.8-3-6.8-6.8 0-3.7 3.1-6.8 6.8-6.8 3.8 0 6.8 3.1 6.8 6.8 0 3.8-3 6.8-6.8 6.8z"/><path class="e" d="m271.7 148.4c-3.7 0-6.8-3-6.8-6.8 0-3.7 3.1-6.8 6.8-6.8 3.8 0 6.8 3.1 6.8 6.8 0 3.8-3 6.8-6.8 6.8z"/><path class="e" d="m142 193.4c-3.8 0-6.8-3.1-6.8-6.8 0-3.8 3-6.8 6.8-6.8 3.8 0 6.8 3 6.8 6.8 0 3.7-3 6.8-6.8 6.8z"/><path class="e" d="m193.9 193.4c-3.8 0-6.8-3.1-6.8-6.8 0-3.8 3-6.8 6.8-6.8 3.8 0 6.8 3 6.8 6.8 0 3.7-3 6.8-6.8 6.8z"/><path class="e" d="m219.8 148.4c-3.7 0-6.8-3-6.8-6.8 0-3.7 3.1-6.8 6.8-6.8 3.8 0 6.8 3.1 6.8 6.8 0 3.8-3 6.8-6.8 6.8z"/><path class="e" d="m116.1 148.4c-3.8 0-6.8-3-6.8-6.8 0-3.7 3-6.8 6.8-6.8 3.7 0 6.8 3.1 6.8 6.8 0 3.8-3.1 6.8-6.8 6.8z"/><path class="c" d="m405.5 993.6h41.7l20.9-36.1-20.9-36.2h-41.7l-20.8 36.2z"/><path class="e" d="m447.2 999.1c-3 0-5.4-2.5-5.4-5.5 0-3 2.4-5.5 5.4-5.5 3.1 0 5.5 2.5 5.5 5.5 0 3-2.4 5.5-5.5 5.5z"/><path class="e" d="m405.5 999.1c-3 0-5.5-2.5-5.5-5.5 0-3 2.5-5.5 5.5-5.5 3 0 5.5 2.5 5.5 5.5 0 3-2.5 5.5-5.5 5.5z"/><path class="e" d="m447.2 926.8c-3 0-5.4-2.5-5.4-5.5 0-3 2.4-5.5 5.4-5.5 3.1 0 5.5 2.5 5.5 5.5 0 3-2.4 5.5-5.5 5.5z"/><path class="e" d="m405.5 926.8c-3 0-5.5-2.5-5.5-5.5 0-3 2.5-5.5 5.5-5.5 3 0 5.5 2.5 5.5 5.5 0 3-2.5 5.5-5.5 5.5z"/><path class="e" d="m384.7 962.9c-3.1 0-5.5-2.4-5.5-5.4 0-3.1 2.4-5.5 5.5-5.5 3 0 5.4 2.4 5.4 5.5 0 3-2.4 5.4-5.4 5.4z"/><path class="e" d="m468.1 962.9c-3 0-5.5-2.4-5.5-5.4 0-3.1 2.5-5.5 5.5-5.5 3 0 5.5 2.4 5.5 5.5 0 3-2.5 5.4-5.5 5.4z"/><path class="c" d="m468.1 885.2l-20.9-36.2h-41.7l-20.8 36.2 20.8 36.1h41.7"/><path class="e" d="m447.2 926.8c-3 0-5.4-2.5-5.4-5.5 0-3 2.4-5.5 5.4-5.5 3.1 0 5.5 2.5 5.5 5.5 0 3-2.4 5.5-5.5 5.5z"/><path class="e" d="m405.5 926.8c-3 0-5.5-2.5-5.5-5.5 0-3 2.5-5.5 5.5-5.5 3 0 5.5 2.5 5.5 5.5 0 3-2.5 5.5-5.5 5.5z"/><path class="c" d="m342.9 957.5h41.8l20.8-36.2-20.8-36.1h-41.8l-20.8 36.1"/><path class="e" d="m384.7 962.9c-3.1 0-5.5-2.4-5.5-5.4 0-3.1 2.4-5.5 5.5-5.5 3 0 5.4 2.4 5.4 5.5 0 3-2.4 5.4-5.4 5.4z"/><path class="e" d="m342.9 962.9c-3 0-5.4-2.4-5.4-5.4 0-3.1 2.4-5.5 5.4-5.5 3.1 0 5.5 2.4 5.5 5.5 0 3-2.4 5.4-5.5 5.4z"/><path class="e" d="m384.7 890.6c-3.1 0-5.5-2.4-5.5-5.4 0-3 2.4-5.5 5.5-5.5 3 0 5.4 2.5 5.4 5.5 0 3-2.4 5.4-5.4 5.4z"/><path class="e" d="m342.9 890.6c-3 0-5.4-2.4-5.4-5.4 0-3 2.4-5.5 5.4-5.5 3.1 0 5.5 2.5 5.5 5.5 0 3-2.4 5.4-5.5 5.4z"/><path class="e" d="m322.1 926.8c-3.1 0-5.5-2.5-5.5-5.5 0-3 2.4-5.5 5.5-5.5 3 0 5.4 2.5 5.4 5.5 0 3-2.4 5.5-5.4 5.5z"/><path class="e" d="m405.5 926.8c-3 0-5.5-2.5-5.5-5.5 0-3 2.5-5.5 5.5-5.5 3 0 5.5 2.5 5.5 5.5 0 3-2.5 5.5-5.5 5.5z"/><path class="e" d="m384.7 890.6c-3.1 0-5.5-2.4-5.5-5.4 0-3 2.4-5.5 5.5-5.5 3 0 5.4 2.5 5.4 5.5 0 3-2.4 5.4-5.4 5.4z"/><path class="e" d="m342.9 890.6c-3 0-5.4-2.4-5.4-5.4 0-3 2.4-5.5 5.4-5.5 3.1 0 5.5 2.5 5.5 5.5 0 3-2.4 5.4-5.5 5.4z"/><path class="e" d="m447.2 854.5c-3 0-5.4-2.4-5.4-5.5 0-3 2.4-5.4 5.4-5.4 3.1 0 5.5 2.4 5.5 5.4 0 3.1-2.4 5.5-5.5 5.5z"/><path class="e" d="m405.5 854.5c-3 0-5.5-2.4-5.5-5.5 0-3 2.5-5.4 5.5-5.4 3 0 5.5 2.4 5.5 5.4 0 3.1-2.5 5.5-5.5 5.5z"/><path class="e" d="m384.7 890.6c-3.1 0-5.5-2.4-5.5-5.4 0-3 2.4-5.5 5.5-5.5 3 0 5.4 2.5 5.4 5.5 0 3-2.4 5.4-5.4 5.4z"/><path class="e" d="m468.1 890.6c-3 0-5.5-2.4-5.5-5.4 0-3 2.5-5.5 5.5-5.5 3 0 5.5 2.5 5.5 5.5 0 3-2.5 5.4-5.5 5.4z"/><path class="k" d="m690.9 126.5v38.8l33.6 19.4 33.6-19.4v-38.8l-33.6-19.4z"/><path class="e" d="m690.9 170.4c-2.8 0-5.1-2.3-5.1-5.1 0-2.8 2.3-5.1 5.1-5.1 2.8 0 5.1 2.3 5.1 5.1 0 2.8-2.3 5.1-5.1 5.1z"/><path class="e" d="m690.9 131.6c-2.8 0-5.1-2.3-5.1-5.1 0-2.8 2.3-5.1 5.1-5.1 2.8 0 5.1 2.3 5.1 5.1 0 2.8-2.3 5.1-5.1 5.1z"/><path class="e" d="m758.1 170.4c-2.8 0-5.1-2.3-5.1-5.1 0-2.8 2.3-5.1 5.1-5.1 2.8 0 5.1 2.3 5.1 5.1 0 2.8-2.3 5.1-5.1 5.1z"/><path class="e" d="m758.1 131.6c-2.8 0-5.1-2.3-5.1-5.1 0-2.8 2.3-5.1 5.1-5.1 2.8 0 5.1 2.3 5.1 5.1 0 2.8-2.3 5.1-5.1 5.1z"/><path class="e" d="m724.5 112.2c-2.8 0-5.1-2.3-5.1-5.1 0-2.8 2.3-5.1 5.1-5.1 2.8 0 5.1 2.3 5.1 5.1 0 2.8-2.3 5.1-5.1 5.1z"/><path class="e" d="m724.5 189.8c-2.8 0-5.1-2.3-5.1-5.1 0-2.8 2.3-5.1 5.1-5.1 2.8 0 5.1 2.3 5.1 5.1 0 2.8-2.3 5.1-5.1 5.1z"/><path class="k" d="m791.7 184.7l33.6-19.4v-38.8l-33.6-19.4-33.6 19.4v38.8"/><path class="e" d="m758.1 170.4c-2.8 0-5.1-2.3-5.1-5.1 0-2.8 2.3-5.1 5.1-5.1 2.8 0 5.1 2.3 5.1 5.1 0 2.8-2.3 5.1-5.1 5.1z"/><path class="e" d="m758.1 131.6c-2.8 0-5.1-2.3-5.1-5.1 0-2.8 2.3-5.1 5.1-5.1 2.8 0 5.1 2.3 5.1 5.1 0 2.8-2.3 5.1-5.1 5.1z"/><path class="k" d="m724.5 68.3v38.8l33.6 19.4 33.6-19.4v-38.8l-33.6-19.4"/><path class="e" d="m724.5 112.2c-2.8 0-5.1-2.3-5.1-5.1 0-2.8 2.3-5.1 5.1-5.1 2.8 0 5.1 2.3 5.1 5.1 0 2.8-2.3 5.1-5.1 5.1z"/><path class="e" d="m724.5 73.4c-2.8 0-5.1-2.3-5.1-5.1 0-2.8 2.3-5.1 5.1-5.1 2.8 0 5.1 2.3 5.1 5.1 0 2.8-2.3 5.1-5.1 5.1z"/><path class="e" d="m791.7 112.2c-2.8 0-5.1-2.3-5.1-5.1 0-2.8 2.3-5.1 5.1-5.1 2.8 0 5.1 2.3 5.1 5.1 0 2.8-2.3 5.1-5.1 5.1z"/><path class="e" d="m791.7 73.4c-2.8 0-5.1-2.3-5.1-5.1 0-2.8 2.3-5.1 5.1-5.1 2.8 0 5.1 2.3 5.1 5.1 0 2.8-2.3 5.1-5.1 5.1z"/><path class="e" d="m758.1 54c-2.8 0-5.1-2.3-5.1-5.1 0-2.8 2.3-5.1 5.1-5.1 2.8 0 5.1 2.3 5.1 5.1 0 2.8-2.3 5.1-5.1 5.1z"/><path class="e" d="m758.1 131.6c-2.8 0-5.1-2.3-5.1-5.1 0-2.8 2.3-5.1 5.1-5.1 2.8 0 5.1 2.3 5.1 5.1 0 2.8-2.3 5.1-5.1 5.1z"/><path class="e" d="m791.7 112.2c-2.8 0-5.1-2.3-5.1-5.1 0-2.8 2.3-5.1 5.1-5.1 2.8 0 5.1 2.3 5.1 5.1 0 2.8-2.3 5.1-5.1 5.1z"/><path class="e" d="m791.7 73.4c-2.8 0-5.1-2.3-5.1-5.1 0-2.8 2.3-5.1 5.1-5.1 2.8 0 5.1 2.3 5.1 5.1 0 2.8-2.3 5.1-5.1 5.1z"/><path class="e" d="m825.3 170.4c-2.8 0-5.1-2.3-5.1-5.1 0-2.8 2.3-5.1 5.1-5.1 2.8 0 5.1 2.3 5.1 5.1 0 2.8-2.3 5.1-5.1 5.1z"/><path class="e" d="m825.3 131.6c-2.8 0-5.1-2.3-5.1-5.1 0-2.8 2.3-5.1 5.1-5.1 2.8 0 5.1 2.3 5.1 5.1 0 2.8-2.3 5.1-5.1 5.1z"/><path class="e" d="m791.7 112.2c-2.8 0-5.1-2.3-5.1-5.1 0-2.8 2.3-5.1 5.1-5.1 2.8 0 5.1 2.3 5.1 5.1 0 2.8-2.3 5.1-5.1 5.1z"/><path class="e" d="m791.7 189.8c-2.8 0-5.1-2.3-5.1-5.1 0-2.8 2.3-5.1 5.1-5.1 2.8 0 5.1 2.3 5.1 5.1 0 2.8-2.3 5.1-5.1 5.1z"/><path fill-rule="evenodd" class="l" d="m44.4 374.2c1-3.8 2.5-7.3 4.4-10.6l-5.7-9 12.5-12.5 9 5.7c3.3-1.9 6.9-3.4 10.6-4.4l2.4-10.4h17.6l2.3 10.4c3.8 1 7.4 2.5 10.6 4.4l9.1-5.6 12.4 12.4-5.7 9c1.9 3.3 3.4 6.9 4.4 10.6l10.4 2.4v17.6l-10.4 2.4c-1 3.7-2.5 7.3-4.4 10.6l5.7 9-12.5 12.4-9-5.7c-3.3 2-6.9 3.4-10.6 4.4l-2.4 10.4h-17.6l-2.3-10.4c-3.8-1-7.4-2.5-10.7-4.4l-9 5.7-12.4-12.5 5.7-9c-1.9-3.3-3.4-6.8-4.4-10.6l-10.4-2.4v-17.6zm60.9 10.4c0-10.4-8.5-18.9-18.9-18.9-10.5 0-18.9 8.5-18.9 18.9 0 10.5 8.4 18.9 18.9 18.9 10.4 0 18.9-8.4 18.9-18.9z"/><path fill-rule="evenodd" class="f" d="m151.9 314.7q0.8-2.8 2.2-5.3l-2.8-4.5 6.2-6.2 4.5 2.8q2.5-1.4 5.3-2.2l1.2-5.1h8.8l1.2 5.2q2.8 0.7 5.3 2.2l4.5-2.9 6.2 6.3-2.8 4.5q1.4 2.4 2.2 5.3l5.2 1.1v8.9l-5.2 1.1q-0.8 2.9-2.2 5.3l2.8 4.5-6.2 6.3-4.5-2.9q-2.5 1.5-5.3 2.2l-1.2 5.2h-8.8l-1.2-5.2q-2.8-0.8-5.3-2.2l-4.5 2.8-6.2-6.2 2.8-4.5q-1.4-2.5-2.2-5.3l-5.2-1.2v-8.8zm30.4 5.2c0-5.2-4.2-9.4-9.4-9.4-5.2 0-9.5 4.2-9.5 9.4 0 5.2 4.3 9.5 9.5 9.5 5.2 0 9.4-4.3 9.4-9.5z"/><path fill-rule="evenodd" class="e" d="m779.6 281.5q0.8-2.8 2.2-5.3l-2.8-4.5 6.2-6.2 4.5 2.8q2.5-1.4 5.3-2.2l1.2-5.2h8.8l1.2 5.2q2.8 0.8 5.3 2.2l4.5-2.8 6.2 6.2-2.8 4.5q1.4 2.5 2.1 5.3l5.2 1.2v8.8l-5.2 1.2q-0.7 2.8-2.2 5.3l2.9 4.5-6.3 6.2-4.5-2.8q-2.4 1.4-5.3 2.2l-1.1 5.2h-8.9l-1.1-5.2q-2.9-0.8-5.3-2.2l-4.5 2.8-6.3-6.2 2.9-4.5q-1.5-2.5-2.2-5.3l-5.2-1.2v-8.8zm30.4 5.2c0-5.2-4.2-9.5-9.4-9.5-5.3 0-9.5 4.3-9.5 9.5 0 5.2 4.2 9.4 9.5 9.4 5.2 0 9.4-4.2 9.4-9.4z"/><path fill-rule="evenodd" class="f" d="m227.6 810.2q0.6-2.3 1.8-4.2l-2.3-3.6 5-4.9 3.6 2.2q1.9-1.1 4.2-1.7l0.9-4.2 7 0.1 0.9 4.1q2.3 0.6 4.3 1.7l3.5-2.2 5 4.9-2.3 3.6q1.2 2 1.8 4.2l4.1 0.9v7l-4.1 1q-0.7 2.2-1.8 4.2l2.3 3.6-5 4.9-3.6-2.3q-1.9 1.2-4.2 1.8l-0.9 4.1h-7l-0.9-4.1q-2.3-0.6-4.3-1.8l-3.5 2.3-5-5 2.3-3.5q-1.2-2-1.8-4.3l-4.1-0.9v-7zm24.2 4.1c0-4.1-3.4-7.5-7.5-7.5-4.2 0-7.5 3.4-7.5 7.5 0 4.2 3.3 7.5 7.5 7.5 4.1 0 7.5-3.3 7.5-7.5z"/><path class="f" d="m537 438.7l25.6 31.1-8.9 7.3-25.6-31.1z"/><path class="e" d="m569.4 462.5l66.2 80.5-24.5 20.2-66.2-80.5z"/><path fill-rule="evenodd" class="e" d="m568.6 380.5c-2.3 24-13.5 45-30 60.1q-2 1.8-4 3.5-2.4 1.9-5 3.7c-17.8 12.7-40 19.2-63.4 17-51.6-5.1-89.4-50.9-84.3-102.5 2.4-25.7 15-47.9 33.4-63.1 18.6-15.4 43.1-23.7 69-21.2 51.6 5 89.3 50.9 84.3 102.5zm-86.5-80c-19.7-2-38.3 4.3-52.4 16.1-14 11.6-23.5 28.4-25.4 47.9-3.8 39.1 24.9 74 64 77.8 19.5 1.9 37.9-4.2 51.9-15.7 14.3-11.6 24-28.6 26-48.3 3.8-39.2-24.9-74-64.1-77.8z"/><path class="e" d="m312.4 240.6c-14-14-33.1-19.9-51.3-17.7-2.2 18.3 3.6 37.4 17.6 51.4 14.1 14 33.1 19.9 51.4 17.7 2.2-18.3-3.6-37.4-17.7-51.4z"/><path class="m" d="m298.3 260.4l36.5 38"/><path class="i" d="m466.4 97.8c9.6-9.6 13.6-22.7 12.1-35.3-12.5-1.5-25.7 2.5-35.3 12.2-9.7 9.6-13.7 22.7-12.2 35.3 12.6 1.5 25.7-2.5 35.4-12.2z"/><path class="m" d="m452.8 88.1l-26.2 25.1"/><path class="i" d="m268.4 687.3c-9.6-9.7-22.7-13.7-35.3-12.2-1.5 12.6 2.5 25.7 12.2 35.4 9.6 9.6 22.7 13.6 35.3 12.1 1.5-12.5-2.5-25.7-12.2-35.3z"/><path class="m" d="m258.7 700.9l25.1 26.2"/><path class="e" d="m689.4 385c13.9-13.9 19.7-32.8 17.5-50.8-18-2.2-36.9 3.6-50.8 17.5-13.8 13.8-19.6 32.7-17.5 50.8 18.1 2.2 37-3.6 50.8-17.5z"/><path class="m" d="m669.9 371l-37.6 36.1"/><path class="f" d="m372.9 176.7c-3.5 0-6.4-2.8-6.4-6.3 0-3.6 2.9-6.4 6.4-6.4 3.5 0 6.3 2.8 6.3 6.4 0 3.5-2.8 6.3-6.3 6.3z"/><path class="f" d="m590.2 658.9c-3.5 0-6.3-2.9-6.3-6.4 0-3.5 2.8-6.3 6.3-6.3 3.6 0 6.4 2.8 6.4 6.3 0 3.5-2.8 6.4-6.4 6.4z"/><path class="e" d="m54.2 516.4c-3.5 0-6.3-2.9-6.3-6.4 0-3.5 2.8-6.4 6.3-6.4 3.5 0 6.4 2.9 6.4 6.4 0 3.5-2.9 6.4-6.4 6.4z"/></svg>