<svg version="1.2" xmlns="http://www.w3.org/2000/svg" viewBox="0 0 3006 2000" width="752" height="500"><style>.a{fill:#e2b897}.b{fill:#f8bd8c}.c{fill:#31185e}.d{fill:#2a1656}.e{fill:#1d1647}.f{fill:#eab186}.g{fill:#1a1a1a}.h{fill:#fcfcfc}.i{fill:#666b6d}.j{fill:#c5a2fd}.k{fill:#f2b588}.l{fill:#1b191b}.m{fill:#9e4aff}.n{fill:#0b0635}.o{fill:#ff7c90}.p{fill:#ccdde7}.q{fill:#dc4070}.r{fill:#ababab}.s{fill:#d1d1d3}.t{fill:#999}.u{fill:#333}</style><path class="a" d="m1018.4 1951.6h-646.8l11.4-317.3 0.4-9.6 0.1-2 531.8-24.3 76.4-3.5 2.2 29.6 9.7 130.3 0.1 0.2 3.5 47.3q0 0 0 0l1.5 20.6z"/><path class="a" d="m710.1 1951.6h-338.7l6-322.5 0.2-6.4 5.8 2 62 21.3 153.9 52.9q0 0 0.3 0.1l102 35z"/><path class="b" d="m776.5 786.2l-185.9 21.8-4.5-125.2-0.3-8.6-0.6-16.4 152-17.9 9.9-1.1 8.4 41.7z"/><path class="c" d="m562 767c0 0-216.6 90.2-222.6 108.3-6 18-30.1 69.2-30.1 69.2 0 0 105.3 255.7 78.2 342.9-27 87.2-9 231.6-9 276.8 0 45.1-18 63.1 15.1 75.2 33.1 12 141.3 6 201.5 0 60.2-6.1 183.5 1.8 210.6 6.9 27.1 5.1 189.5-22 189.5-22 0 0 21.1-114.3 15-171.4-6-57.2 2.2-192.6 1.1-213.6-1.1-21.1 10.3-30.1 0.1-81.3-10.2-51.1 41-330.9 41-330.9l-249.7-90.9z"/><path class="d" d="m675.1 756.4l-31.2 104.5-137.4-69.4 33.3-35.1z"/><path fill-rule="evenodd" class="e" d="m645.4 864.4l-143-72.2 36.3-38.2h139.7zm-134.9-73.6l131.9 66.5 29.5-98.5h-131z"/><path class="d" d="m648.3 756.4l42.2 104.5 156.7-110.4-37.4-40.4z"/><path fill-rule="evenodd" class="e" d="m689.3 864.7l-44.3-109.9 165.6-47.5 40.4 43.6zm-37.7-106.7l39.9 99.1 151.9-107-34.4-37.2z"/><path class="c" d="m416.5 830.8c0 0 92.6 35.9 84.1 398.8l337.1-77.4 41.3 170.8c0 0-369.9 160.1-466 157.4-96-2.6-158.1-440.3-138.3-488.3 19.7-48 25.2-116.4 138.1-159.1z"/><path class="b" d="m855.5 1160.9l86.9-32.5-21.5 131.1-67.9 3.4-14.9-92.9z"/><path class="b" d="m584.7 1215.3l-70.9 16.3-2.9-17.2-4.7-28.5 4.9 1.8z"/><path class="c" d="m973.6 849.7l-55.6 395.9-353.2-47.5-41.8 174.1c0 0 478.4 116.2 572.9 84.5 94.6-31.7 50.1-467.1 25.1-522.5-25.1-55.5-42-98.8-75.3-109.4-33.4-10.5-72.1 24.9-72.1 24.9z"/><path class="f" d="m755.5 680.5c-7.5 17.1-20.4 32.9-40.5 40.1-44.2 15.9-99.4-17.3-128.9-37.8l-0.3-8.6q3.8 0.6 8.6 1c19.5 1.7 48.6 1.1 85.1-8 26.1-6.5 44.8-17.1 57.7-27.3l9.9-1.1z"/><path class="b" d="m777 477.2c8.1 102.6-40.4 190.2-115.7 196.2-75.2 6-142.8-72.3-151-174.9-8.1-102.5 46.4-190.5 121.7-196.4 75.3-6 136.9 72.6 145 175.1z"/><path class="g" d="m674 702.1c-72 10.7-142.7-63.7-157.8-166.1-1.5-9.9-2.3-19.7-2.8-29.3 16.9 99.5 86.4 171.1 157.2 160.7 64.9-9.7 108.7-85.2 105.6-175.1 0.4 1.7 0.6 3.3 0.8 5 15.2 102.4-30.9 194.1-103 204.8z"/><path class="g" d="m567 250.6c0 0-0.8 76.2 18.2 87.2 18.9 11.1 40.6-9 57.9-12 17.2-3 52.1-6 76.5 15.3 24.4 21.3 45.4 83.4 45.4 83.4l5.3 20.8c0 0 14.3 3.6 15.8-16 1.5-19.5-2.5-101.5 0-109.5 2.5-8.1 1.5-16.1-7.5-25.1-9-9-20.5-23.1-17-29.1 3.5-6 18.5-21.5 4-35.1-14.6-13.5-84.8-22-97.8-10-13 12-61.7-34.1-100.8 30.1z"/><path class="g" d="m553.7 256.3c0 0-68.4 7.6-69.9 67.7 0 0-8.3 13.6-24.8 35.4-16.6 21.8 3 58.6 7.5 80.4 4.5 21.9 13.8 39.9 13.3 46.4-0.5 6.5 12 19.1 23.3 14.1 11.3-5.1 13.8-18.4 13.8-18.4 0 0 1-84.9 13.5-100 12.6-15 33.9-29.8 46.2-36.1 12.2-6.2 15-18 15-19.5 0-1.5-15.5-83.7-15.5-83.7z"/><path class="b" d="m538.7 514.1c9.4 19.4 6 40.5-7.7 47.2-13.7 6.6-32.5-3.7-41.9-23.1-9.4-19.4-6-40.5 7.7-47.1 13.7-6.7 32.5 3.6 41.9 23z"/><path class="b" d="m804.4 487.6c-2.5 21.4-16.7 37.4-31.9 35.6-15.1-1.7-25.4-20.5-22.9-41.9 2.5-21.4 16.7-37.4 31.8-35.6 15.2 1.7 25.4 20.5 23 41.9z"/><path class="g" d="m597.9 448.8c-9.3 0.6-19.2 1.8-28.5 3.8-9.3 1.9-18.6 4.7-25.6 9l-0.3 0.2c-3.7 2.3-8.5 1.2-10.8-2.5-2.2-3.6-1.2-8.3 2.4-10.6 10-6.6 20.4-9.7 30.6-12.3 10.3-2.4 20.4-4 31.1-5 4.8-0.5 9.1 3.1 9.5 7.9 0.5 4.8-3.1 9-7.9 9.5q-0.1 0-0.2 0z"/><path class="g" d="m590 486.1c1.1 7.4-3.1 14.2-9.4 15.2-6.3 0.9-12.3-4.4-13.4-11.9-1.2-7.4 3.1-14.3 9.4-15.2 6.3-0.9 12.3 4.4 13.4 11.9z"/><path class="g" d="m677.4 439.3c9.3-1.5 19.2-2.6 28.7-2.8 9.5-0.2 19.2 0.4 26.9 3l0.4 0.2c4.1 1.3 8.5-0.9 9.9-4.9 1.4-4.1-0.7-8.4-4.7-9.9-11.3-4.1-22.1-4.8-32.6-4.9-10.6-0.1-20.8 0.6-31.4 2.1-4.8 0.6-8.2 5-7.5 9.8 0.6 4.8 5 8.1 9.8 7.5q0.1 0 0.2 0z"/><path class="g" d="m693.6 473.8c0.6 7.5 6.3 13.2 12.6 12.7 6.4-0.6 11-7.1 10.4-14.6-0.6-7.5-6.3-13.2-12.6-12.7-6.4 0.5-11 7-10.4 14.6z"/><path class="g" d="m607.1 655.3c4 2.7 17.8-0.6 22.2-1.6 7.6-1.6 16.3-4.5 21-11 5.5-7.5 2.9-18.9 2.3-27.4-0.2-2.5 0.2-9.2-1.8-11.3 0 0 19.8-2.9 20-3-1.8 0.3 3.6 28.3 4.4 30.6 2.3 6.1 8.4 9.5 14.4 11.1 6.3 1.6 13.2 1.7 19.6 1.3 1.6-0.1 17.2-1.5 17.3-3.1-0.1 1.4-1.1 2.5-2.1 3.5-10.1 10.3-21.3 19.6-32.5 28.8 0 0-53.2 4.5-54.7 3-1.5-1.5-30-20.8-30.1-20.9z"/><path class="h" d="m706.1 581.5c-7 12.4-21.8 22.7-40.4 26.3-24.8 4.8-47.9-3.6-56.8-19.2 0-0.3 0.2-0.5 0.5-0.7 3.1-2.7 6.3-5 9.8-6.9l72.8-8.7c5.7 1.2 10.7 3.4 14.1 9.2z"/><path class="g" d="m602.4 665.2c-1.5-15.1-5.9-63.6 0.5-78.1v-1l2.1-2.4c4-3.4 7.6-5.9 11.3-8 11.8-6.9 26.5-10.9 42.4-11.4 8.8-0.4 17.4-0.1 25.6 0.9l2.1 0.2c2.3 0.3 4.6 0.6 6.9 1.1 5.9 1.2 13.2 3.7 18 11.9 5 8.6 7.1 17.8 9.2 26.7q0.8 3.5 1.7 6.9c3.4 13.9 4.5 25.6 3.4 37l-12-1.2c1-10 0-20.4-3.1-32.9-0.6-2.3-1.1-4.7-1.7-7-2-8.5-3.8-16.4-7.9-23.4-2-3.4-4.8-5.2-10.1-6.3-2-0.4-3.9-0.6-5.8-0.9l-2.1-0.2c-7.6-0.9-15.6-1.2-23.7-0.8-13.9 0.5-26.7 3.9-36.9 9.9-3 1.6-5.7 3.5-8.4 5.7l-0.1 0.1c-3.5 5.4-2.5 41.6 0.6 72z"/><path class="g" d="m636.8 538.6c-0.6 0-1.1-0.3-1.4-0.9-0.5-0.8-0.2-1.8 0.6-2.2l13-6.9c4.1-2.2 6.4-6.1 5.8-10.1l-6.6-45.6c-0.1-0.9 0.5-1.7 1.4-1.8 0.9-0.1 1.8 0.5 1.9 1.4l6.6 45.5c0.7 5.4-2.2 10.7-7.6 13.5l-12.9 6.9q-0.4 0.2-0.8 0.2z"/><path class="i" d="m710.7 1891.7c-1.8 0-3.2-1.4-3.3-3.2-1.3-54.4-4.6-142.7-8.2-152.1-11.9-7.1-70.8-25.5-100.8-34.4-1.7-0.5-2.7-2.3-2.2-4 0.5-1.8 2.3-2.8 4.1-2.3 3.6 1.1 89.2 26.5 103.1 35.6 2.2 1.4 4.9 3.1 8.1 81.1 1.6 37.8 2.5 75.6 2.5 75.9 0 1.8-1.4 3.3-3.2 3.4q-0.1 0-0.1 0z"/><path class="e" d="m509.5 1234.9c-0.7 0-1.3-0.2-1.9-0.6-0.8-0.6-1.3-1.5-1.3-2.5-0.5-9.8-13.7-165.7-13.8-167.3-0.2-1.8 1.2-3.4 3-3.5 1.8-0.2 3.4 1.2 3.5 3 0.5 6 11.6 137.2 13.5 163.4 18.4-4.9 97.5-25.9 129.1-32.2 1.8-0.3 3.5 0.8 3.8 2.6 0.4 1.8-0.8 3.5-2.6 3.9-35.4 7-131.4 32.8-132.4 33.1q-0.4 0.1-0.9 0.1z"/><path class="e" d="m423.5 1477.1c-10.4 0-19.9-1.1-27.7-3.6-47.1-15.5-79.3-142-80.7-147.4-0.4-1.8 0.7-3.5 2.4-4 1.8-0.4 3.6 0.6 4 2.4 0.3 1.3 32.7 128.4 76.3 142.7 44.4 14.6 151.2-23.3 152.3-23.7 1.7-0.6 3.6 0.3 4.2 2 0.6 1.7-0.3 3.6-2 4.2-3.7 1.3-77.4 27.4-128.8 27.4z"/><path class="e" d="m680.8 1402.8c-1.2 0-2.3-0.6-2.9-1.8-0.8-1.6-0.1-3.6 1.5-4.4l99.9-50c1.6-0.8 3.6-0.2 4.4 1.4 0.8 1.7 0.1 3.6-1.5 4.4l-99.9 50.1q-0.7 0.3-1.5 0.3z"/><path class="e" d="m914.8 1247.2q-0.3 0-0.5 0c-1.8-0.3-3-2-2.7-3.8l27.6-172.2c0.2-1.8 1.9-3 3.7-2.7 1.8 0.2 3 1.9 2.7 3.7l-27.6 172.3c-0.2 1.6-1.6 2.7-3.2 2.7z"/><path class="e" d="m963.3 1459.8q-0.2 0-0.5-0.1l-165.5-25.7c-1.8-0.2-3-1.9-2.7-3.7 0.3-1.8 1.9-3 3.7-2.7l165.5 25.6c1.8 0.3 3 2 2.7 3.8-0.2 1.6-1.6 2.8-3.2 2.8z"/><path class="b" d="m1791.6 449.8l-29.9 108.9 64.3 75.3 91.9-46-3.8-114.8z"/><path class="c" d="m2119.9 1411.3v540.3h-274v-526.6l256-12.8z"/><path class="c" d="m1934.9 1436.4l-9.3 26-9.3 25.6-31 85.9-39.4 109.1-63.3 268.6h-247.9q0.2 1.2 0.2 1.2l-34.1 0.8 0.3-2 13.6-110 2-16.1 5.4-43.2 5-40.3 3.8-30.6 17.7-142.9 4.8-38.8 11.6-93.3z"/><path class="j" d="m1768.7 538.7c0 0-134.7 82.3-194.1 111.2-59.3 28.9-98.1 71.1-111.8 95.5-13.7 24.5-45.7 46.7-43.4 62.3 2.2 15.5-52.6 82.2-64 137.8-11.4 55.6-31.9 240.1-31.9 246.7 0 6.7 36.5 160.1 36.5 160.1 0 0 107.3 106.7 130.2 131.2 22.8 24.4 91.3 64.4 100.4 64.4 9.2 0 66.3-37.8 64-75.6-2.3-37.8-18.3-146.7-34.3-164.5-12.5-13.9-27.8-26.4-39.3-45-3.2-5.2-6.1-10.9-8.6-17.2-11.5-28.9 20.5-97.8 20.5-97.8 0 0 102.8-244.5 98.2-277.9-4.6-33.3 29.7-151.1 20.6-182.3-9.2-31.1 57-148.9 57-148.9z"/><path class="j" d="m2131.8 838.7c0 0 22.9 313.5 20.6 366.9-2.3 53.3-13.4 84.5 0.1 144.5 13.6 60 7.1 77.8 0 100-7 22.2-93.7 20-93.7 20l-406.7-23.7-152.8-220.8 198.7-618 70.7-68.9c0 0 81.1 68.9 148.5 27.8 0 0 187.2 105.6 213.5 125.6 26.3 20 1.1 146.6 1.1 146.6z"/><path class="j" d="m2133.4 700.2c0 0 65.4 65.2 63.9 108.2-1.5 43 16.7 203.1 13.7 249-3 45.9 4.6 47.4 10.7 81.5 6 34.1 31.2 102.3 33.4 177.8 2.3 75.6 35.4 130.1 12.6 167.9-22.8 37.8-40 48.9-40 48.9 0 0-5.7-57.7-15.9-63.3-10.3-5.6-59.3-20.1-59.3-20.1l-54.2-598.7z"/><path class="f" d="m1776.8 464.9c-6.5-15.3 43.8 84.8 95.2 79.2 44.1-4.8 45.9-86.3 45.9-86.3 0 0-15.6 25.7-62.1 25.8-51.9 0-79-18.7-79-18.7z"/><path class="k" d="m2009.2 335.3c-1.2 22-15.8 39.1-32.6 38.2-16.8-0.9-29.4-19.5-28.3-41.5 1.2-22 15.8-39.1 32.6-38.1 16.8 0.9 29.5 19.4 28.3 41.4z"/><path class="k" d="m1765.8 321.9c-1.2 22-15.7 39-32.5 38.1-16.8-0.9-29.5-19.4-28.3-41.4 1.2-22 15.8-39.1 32.6-38.2 16.8 0.9 29.4 19.5 28.2 41.5z"/><path class="b" d="m1995.5 334.3c-16 93.6-70.3 174-145.1 170-74.8-4-114.1-73.7-125.9-184.7-10.4-97.3 70.2-174.1 145.1-170 74.8 4 142.3 88.1 125.9 184.7z"/><path class="c" d="m1823.7 186.4c0.2 6.2-0.7 16.2-0.1 19.2 1.7 8.2 6 16.3 13 20.1 4.9 2.7 10.5 3.1 16 3.2 19.9 0.5 40.6-8 59.7-7.2 8.8 0.4 15.4 6.8 22.9 11.8 13.8 9.2 39.1 7 39.1 7 13 18.2 14.3 45.3 27.5 62.1 3.2-2 6.1-4.6 9.1-7.1 17.8-15 18.9-17.8 13.1-41.3-4.6-18.8 8-26.9 14.5-42 8.8-20.7 24.1-39.9 8.5-56-20.3-21-35-37.8-47.9-65.3-7.3-15.3-16.9-32-32.7-35-25.5-4.7-44.9 23.3-70.6 6.2-9.3-6.2-18.3-14.3-29.2-15.7-11.4-1.4-22.5 4.6-31.7 11.9-11.6 9.1-22 19.8-35.5 25.7-22.2 9.6-47.7 13.5-66 31.5-12.2 12.1-18.9 28.4-25 44.5-5.2 13.7-14.5 29.4-15.8 44.1-1.5 16.5 8.1 51.9 21.2 62.4 6.3 5 11 17.1 11 17.1 0 0 20.1-37 23.4-45.5 3.4-8.4 20-30.3 31.4-38.3 11.4-8 15.2-10.9 24.2-15.2 6-2.7 19.5-9.3 19.9 1.8z"/><path class="l" d="m1787.1 326.8c-6.5 0-11.8-5.3-11.8-11.8 0-6.5 5.3-11.8 11.8-11.8 6.5 0 11.8 5.3 11.8 11.8 0 6.5-5.3 11.8-11.8 11.8z"/><path class="l" d="m1927.8 334.4c-6.6 0-11.8-5.3-11.8-11.8 0-6.5 5.2-11.8 11.8-11.8 6.5 0 11.8 5.3 11.8 11.8 0 6.5-5.3 11.8-11.8 11.8z"/><path class="c" d="m1758.8 281.7c-3.1 0-6-1.8-7.3-4.8-1.6-4.1 0.3-8.7 4.3-10.4 38-15.8 66.8-0.7 68 0 3.8 2.1 5.2 6.9 3.2 10.7-2.1 3.8-6.9 5.3-10.7 3.2-1.1-0.6-23.7-12.1-54.4 0.7q-1.6 0.6-3.1 0.6z"/><path class="c" d="m1901.9 286.7c-3.1-0.2-5.9-2.2-6.9-5.3-1.5-4.1 0.7-8.6 4.9-10 38.9-13.4 66.6 3.5 67.8 4.2 3.7 2.4 4.8 7.2 2.5 10.9-2.3 3.7-7.1 4.9-10.8 2.6-1.1-0.7-22.9-13.6-54.4-2.8-1 0.4-2.1 0.5-3.1 0.4z"/><path fill-rule="evenodd" class="l" d="m2000.1 301.2q0 0.3-0.1 0.5 0 1.1-0.4 2.1c-0.3 1.1-0.9 2.1-1.6 2.9-0.9 1-2.1 1.8-3.4 2.3-1 0.3-2.2 1.1-3.4 2.3-3.3 3.5-4.1 6.8-7.7 8-0.2 0.1-0.3 0.2-0.3 0.4-0.3 7.7-1.7 20.7-5.8 30.2-3.5 8.2-8.5 13.9-15.7 17.5-3 1.5-6.5 2.7-10.3 3.5-6.2 1.3-13.3 1.8-20.2 1.4-7.3-0.4-14.5-1.7-20.4-3.8-12.9-4.7-22-15.2-25.5-29.6-3.1-12.8-3.9-25.1-3-32.4 0.1-0.3-0.2-0.5-0.5-0.5-1 0-2-0.4-2.7-1.1h0.3c-0.2-0.2 0-0.4-0.2-0.6-1.4-1.6-6-5.9-16.1-6.4-10-0.6-15.1 3.2-16.7 4.6-0.1 0.2-0.4 0.4-0.6 0.6h-0.1c-1 0.8-1.9 1-3 0.7 0.4 7.3-1.5 19.8-6.1 32.5-5 13.9-15.1 23.4-28.4 26.6-6.2 1.5-13.4 2-20.7 1.6-6.9-0.3-13.9-1.5-19.9-3.5-6.2-2-11.1-4.9-14.9-8.6-4-3.9-6.9-8.9-8.8-15.1-3-9.9-3.1-23-2.5-30.6 0-0.2-0.1-0.4-0.3-0.5-3.5-1.6-4.2-4.9-7.1-8.8-1.1-1.5-2.4-2.3-3.6-2.8-2.9-1.2-4.6-4.2-4.6-7.3q0-0.3 0-0.5c0.1-1.8 0.8-3.5 2-4.9 1-1.1 2.3-2 3.9-2.4 3-0.8 7.2-1.6 12.7-2.2 1.8-0.2 4.2-0.4 7-0.6 7.6-0.6 18.4-1.1 30.1-1 8 0.1 16.3 0.4 24.3 1.1 6.8 0.6 13.4 1.5 19.2 2.8q0.7 0.1 1.4 0.3c22.9 5.3 23.4 10.5 22.9 13.3-0.1 0.4 0.3 0.6 0.7 0.5 4.2-2 9-2.6 13.5-2.3 4.6 0.2 9.2 1.3 13.2 3.7 0.3 0.2 0.7 0 0.7-0.4-0.1-2.6 0.7-7.2 19.6-10.1q2.1-0.4 4.6-0.7c5-0.6 10.5-0.8 16.2-0.9 10.5 0 21.7 0.8 31.9 2h0.1c7.2 0.8 13.9 1.7 19.5 2.6 6 1 10.7 1.9 13.7 2.6 5.1 1.1 9 2.3 11.7 3.3q1.1 0.5 2.1 1.2 0 0 0 0 0.5 0.4 0.9 0.8c1.2 1.2 2 2.8 2.3 4.5q0 0 0 0 0.1 0.6 0.1 1.2zm-160.4-0.4q-0.2-0.3-0.4-0.6c-3-6.1-10.7-11.5-31.4-16.1-20.6-4.5-41.6-2.4-51.6 2q-1.4 0.7-2.6 1.6c-5.5 4.2-8.1 12.3-9.1 16.5v0.1c-0.8 6.7-1.2 21.5 2.1 32.2 1.8 5.8 4.3 10.3 7.9 13.9 3.5 3.5 8.1 6.1 13.9 8 11.9 3.9 27.5 4.7 38.9 1.9 12.4-3 21.8-11.8 26.5-24.9 5.3-14.5 7-29 5.8-34.6zm140.7 16.2c-0.6-5-2.7-15.2-9.7-19.3q-1-0.6-2.2-1.1c-10.2-5-29.4-8.5-48.9-6.4-21 2.2-29.3 6.8-33 12.5q-0.1 0.3-0.4 0.6c-1.8 5.4-1.6 20 2 35 3.3 13.5 11.7 23.3 23.7 27.6 11 4 26.7 4.9 38.9 2.3q4.9-1 8.8-2.8c7-3.3 11.8-8.6 15.2-16.6 4.4-10.3 5.6-25 5.6-31.8z"/><path  d="m1851.5 439.1c-14.7 0-24.8-6.7-25-6.8-0.5-0.4-0.7-1.2-0.3-1.8 0.4-0.5 1.2-0.7 1.7-0.3 1 0.7 24.8 16.6 52.8-3.6 0.6-0.4 1.3-0.3 1.7 0.3 0.4 0.6 0.3 1.3-0.3 1.7-11.1 8-21.7 10.5-30.6 10.5z"/><path  d="m1854.4 393.8q-0.3 0-0.6-0.2c-0.3-0.2-6-3.9-6.4-8.4-0.5-4.1 1.2-24.7 1.3-25.6 0.1-0.7 0.7-1.2 1.3-1.1 0.7 0.1 1.2 0.6 1.2 1.3-0.6 7.4-1.7 22.1-1.4 25.2 0.3 2.8 3.9 5.6 5.3 6.5 0.6 0.4 0.7 1.1 0.4 1.7-0.3 0.4-0.7 0.6-1.1 0.6z"/><path class="m" d="m1559.5 1006.6q-0.7 0-1.4-0.3c-1.6-0.8-2.3-2.7-1.5-4.4 3.5-7.5 33.4-97.1 34-104 0.1-1.8 1.7-3.2 3.5-3 1.8 0.1 3.1 1.7 3 3.5-0.6 8.2-31.4 99.6-34.6 106.3-0.6 1.2-1.7 1.9-3 1.9z"/><path class="m" d="m1872.4 583.8c-12.8 0-28.2-2.4-46.4-9-2.4-0.9-35.8-17.9-42.4-21.3-1.7-0.9-2.3-2.8-1.5-4.5 0.8-1.6 2.8-2.2 4.4-1.4 15.1 7.7 39.8 20.2 41.8 21 58.4 21.3 86.3-4.2 86.6-4.5 1.3-1.2 3.4-1.2 4.7 0.1 1.2 1.3 1.2 3.4-0.1 4.7-0.9 0.8-16.1 14.9-47.1 14.9z"/><path class="m" d="m1845.9 1686.3q-0.6 0-1.1-0.2c-1.7-0.6-2.6-2.5-2-4.2l39.4-109.1c0.6-1.7 2.5-2.6 4.2-2 1.7 0.6 2.6 2.5 2 4.2l-39.4 109.2c-0.5 1.3-1.8 2.1-3.1 2.1z"/><path class="n" d="m1296.7 508.9c0 0 40.6-15 77.4 3.8 39.1 20 59 40 68 208 9 168.1 8 252.1 9 265.1 1 13-320.1 9-320.1 9v-418.1z"/><path class="h" d="m1134.6 987.4c0 0-163.5 17.8-160.4 299.5 3.1 281.6-57 262-7.9 462.6 0 0 111.1 22.4 174.7-23l-6.4-554z"/><path class="o" d="m1533 1953.6l0.2-2h-524.3c5.3-31.3 17.3-77.6 32-128.7q2-7.1 4.1-14.3l0.1-0.3c5.2-17.7 10.7-35.9 16.3-54.1l0.3-0.8c25.4-82.8 53.2-165.8 68.4-210.6q0-0.1 0-0.1c3.6-10.5 6.5-18.9 8.5-24.7v-0.1c2-5.7 3.1-8.9 3.1-8.9h341.1c1 2.8 2.7 10.2 5.1 21.1q0.9 4 1.8 8.7c6.8 32.5 17.2 86.8 28.1 145.5q0.1 0 0 0c0.9 4.6 1.7 9.1 2.6 13.7 4.9 26.4 9.9 53.3 14.7 79.4q0.8 4.6 1.6 9.1 1.9 9.8 3.6 19.3 0.2 0.9 0.3 1.7 1.7 9 3.2 17.7 1.6 8.4 3.1 16.4c10.5 58.1 18.5 102.5 19.9 110q0.2 1.2 0.2 1.2z"/><path class="h" d="m1142 993.9c0 0-74.1 21.6-64.1 177.4 10 155.8-74.1 349 47 371.5l333.5-4.2c31.5-0.4 56.8-26 56.8-57.5v-490.6l-69.9-12.2z"/><path class="b" d="m1346.1 937.8l-120.7 3.6 4.1-103.7h110.6z"/><path class="h" d="m1214.9 922.5h154.1c9.9 0 18.5 7.3 20.6 17.6l8.7 44.6-212 8.2 7.9-51.8c1.6-10.7 10.4-18.6 20.7-18.6z"/><path class="f" d="m1342.3 875.2c-6.8 14.6-19.4 29-37.3 31-30.7 3.5-60.7-30.6-75.5-49.5-3-3.8-4.4-6.9-6-9.1 2.5 1.6 6.5 4.2 13.6 6.8 11.8 4.5 30 9.1 54.1 9 17.5 0 30.8-4.1 40.5-9l9.3-0.1z"/><path class="b" d="m1394.2 716c2.6 83.3-47.1 152.5-110.9 154.5-63.9 2-117.8-63.9-120.4-147.2-2.6-83.3 47-152.5 110.9-154.5 63.9-2 117.7 63.9 120.4 147.2z"/><path class="b" d="m1420.5 725.1c0 17.3-15 33.9-27.3 33.9-12.3 0-22.3-14-22.3-31.2 0-17.3 16.4-31.2 28.7-31.2 12.3 0 20.9 11.3 20.9 28.5z"/><path  d="m1351.6 671.2q-1.4 0-2.8-0.4c-24.8-8.2-41.2-0.8-41.9-0.5-4.4 2.1-9.8 0.2-11.9-4.2-2.1-4.5-0.3-9.8 4.1-12 1-0.4 23.2-10.9 55.3-0.4 4.7 1.5 7.3 6.6 5.7 11.3-1.2 3.8-4.7 6.2-8.5 6.2z"/><path  d="m1179.1 685.5c-2.9 0-5.7-1.4-7.5-4-2.7-4-1.7-9.6 2.3-12.4 0.9-0.6 21.3-14.4 54.6-8.8 4.9 0.8 8.2 5.4 7.4 10.3-0.8 4.9-5.5 8.2-10.4 7.4-25.7-4.2-40.8 5.5-41.4 6-1.5 1-3.3 1.5-5 1.5z"/><path  d="m1278.1 756.5h-9c-0.9 0-1.5-0.7-1.5-1.5v-33.8c0-0.8 0.6-1.5 1.5-1.5 0.8 0 1.5 0.7 1.5 1.5v32.3h7.5c0.8 0 1.5 0.7 1.5 1.5 0 0.8-0.7 1.5-1.5 1.5z"/><path  d="m1211.1 726.5c-5.6 0-10-5.6-10-12.6 0-6.9 4.4-12.6 10-12.6 5.5 0 10 5.7 10 12.6 0 7-4.5 12.6-10 12.6z"/><path  d="m1327.3 713.9c-5.5 0-10-5.6-10-12.6 0-6.9 4.5-12.5 10-12.5 5.6 0 10 5.6 10 12.5 0 7-4.4 12.6-10 12.6z"/><path class="h" d="m1242.1 798.2c3.4 15.5 21.5 25.5 41.6 22.6 17.5-2.5 30.8-13.9 33.3-27.2z"/><path class="n" d="m1293.6 505.7c31.4 62.9-44.4 85.5-73.1 119.6-31.3 37.2-53 110.7-51.3 159.7 4.6 133.6 49.7 240.6-38.3 362.8 18.2-74.2-9.5-130.9-32.7-198.3-25.4-74.1-25-150-16.2-227 6.6-58 8.8-151.8 52.4-195.6 25-25.1 139.2-61.3 159.2-21.2z"/><path class="n" d="m1286.3 569.3c0 0 14.1 24.7 45.5 39.8 44.5 21.5 54.1 92.2 54.1 92.2l18-9.8-34.9-131.6z"/><path class="b" d="m1544.1 1807.1l-22.2-7.3c0 0-2.7-3.9 0.3-8.9 3.1-5 10.3-4.9 13.9-4.5 3.5 0.4 10.8 3.1 10.8 3.1 0 0 8.7-9.9 17.6-14.4 0 0-2.3-12.2 1.8-20.2 0 0-9.1-9.3-8.1-23 0 0-0.9-1.6-2.3-4.2-1.2 0.6-3.4 1.6-4.9 2.4-2 1.2-2.2 7.8-1.4 11.7 0.8 4 1.7 16.6 0.5 23.8-1.3 7.2-6.8 12.1-15 11.8-8.2-0.3-8.4-8.3-10-15.5-1.6-7.1-0.9-13.8-0.4-26.6 0.6-12.8-2.7-19.2-5.2-31.3-2.4-12.1-1.5-21.9-1.5-21.9 1-10.1 5.1-22.3 6.1-25.4-1.1-7.3-1.1-14.2 1.3-19.3 4.1-9.2-9.4-76.2-9.4-76.2l68.5 7.8-6.4 75.7c0 0 21.4 44.9 28.5 65.1 7.1 20.1 12.3 30.8 11.3 40.8 0 0-10.4 40.3-21.1 49.2-11 9.1-35.3 25.1-42.4 25.7-7.7 0.6-28.1-2.2-28.1-2.2 0 0-4.5-0.2-7.9-2 0 0-3.3 0-0.8-6.8 2.6-6.9 9.6-5.2 26.5-7.4z"/><path class="h" d="m1477.5 983.4c0 0 95.8-6.9 129.5 127.5 33.8 134.4 30.2 184.8 28.4 270.3-1.7 85.6 98.1 254.6 7.5 363.5 0 0-76.7-38.2-147.8-52.7 0 0-12.4-13.5-5.3-154.8 7.1-141.2-12.3-553.8-12.3-553.8z"/><path class="f" d="m1061.6 1753.4c0 0-28.4 1.7-33.9 1.6 0 0 0.4 39.7 17 53.2l0.4 0.3z"/><path class="p" d="m1108.3 1469c-1.6 0-3.1-1.3-3.2-3-0.2-1.3-3.3-32.8 3.8-65.8 3.7-16.9 1.2-26.6-2.6-41.4-3.4-13.1-7.6-29.4-9.3-57-3.7-59.4 18.4-92.9 19.3-94.3 1-1.5 3.1-1.9 4.6-0.9 1.5 1 1.9 3.1 0.9 4.6-0.4 0.5-21.8 33.3-18.3 90.2 1.7 27 5.8 43 9.1 55.8 3.9 15.1 6.7 26 2.7 44.4-6.9 31.9-3.7 63.5-3.7 63.8 0.2 1.8-1.1 3.4-2.9 3.6q-0.2 0-0.4 0z"/><path class="p" d="m1480.1 1519.5q-0.1 0.1-0.3 0c-1.8-0.2-3.1-1.8-2.9-3.6 2.7-25.9 4.7-49.2 2.3-72.2-1.2-12.1-2.7-24.2-4.2-36-3.2-26-6.5-52.9-7.2-80.2-0.1-1.9 1.4-3.4 3.2-3.4 1.8-0.1 3.3 1.4 3.3 3.2 0.7 27 3.9 52.6 7.2 79.6 1.5 11.8 3 23.9 4.2 36.1 2.5 23.7 0.4 47.3-2.3 73.6-0.2 1.7-1.6 2.9-3.3 2.9z"/><path class="q" d="m1322.9 1546h-198c-1.8 0-3.3-1.4-3.3-3.2 0-1.9 1.5-3.3 3.3-3.3h198c1.8 0 3.3 1.4 3.3 3.3 0 1.8-1.5 3.2-3.3 3.2z"/><path class="f" d="m2601.6 1706.3c0 0 34.4 10.3 41.2 11.7 0 0-11.8 48.6-36 60.5l-0.6 0.3z"/><path class="g" d="m2571.8 929.7c0 0 9-6.9 20.5 3.3 61.4 53.9 55.4 147.7 54.6 171.8-0.8 24.1 21.2 111.9 32.8 144.9 11.6 32.9 25.6 52.4 34.2 109.8 8.5 57.3-0.1 170.7 0.9 184.7 1 14 12.2 81.9 18.1 100.5 4.4 13.9-0.7 56.2-16 63-15.2 6.8-25.2 15.6-81.4 8.7-56.2-7-41.8-25.7-42.7-51.6-1-26-9.1-49.1-9.4-60.7-0.2-11.6-2.5-33.4-2.3-62.4 0.1-29 2.1-17.7-3.6-45.8-5.7-28.1-46.5-170.3-31.7-205.3 14.8-34.9-40.5-152.3-39.6-161.1 0.9-8.9-13.4-89.2-13.4-89.2 0 0 12.1-37.9 31.4-64.9 19.3-27 44.9-42 47.6-45.7z"/><path class="r" d="m2361.2 1422.2v106.9l-2.3 108.1-0.4 16.5q0.1 0 0 0l-6.3 297.9h-257.4l25.1-303 2.8-33.6 0.8-9.3 1.3-16.5q0 0 0 0l5.4-64.6 5.1-62.1 3.4-40.3z"/><path class="r" d="m2623 1951.6h-257.4l-6.5-303.3q0 0 0 0l-0.2-11.1-2.3-108.1v-106.9h222.5l13.1 157.5 1.8 22.1 0.2 2.4v0.1l1.2 14.3 7.3 88 0.1 1.1 5.8 69.9z"/><path class="s" d="m2107.3 810.1c0 0-14.6-91.2 21-138 35.6-46.8 24.2-86.9 24.2-108.7 0-21.7 6.5-90.3 37.2-115.4 30.7-25 43.7-80.2 143.9-60.2 0 0 25.8-15 92.1-6.6 66.3 8.3 93.8 95.3 97 113.7 3.2 18.4 9.7 56.8 25.9 75.2 16.1 18.4 32.3 60.2 21 102-11.3 41.8-11.9 50.2 3.8 88.6 15.6 38.5 7.5 49.4 7.5 49.4 0 0-189.1 77.7-473.6 0z"/><path class="b" d="m2433 880.3h-157.8l16.1-110.1 1-7.4 2.3-15.4h119l2.5 17.3 4.7 31.8z"/><path class="f" d="m2420.8 796.5c-9 11.8-22.3 21.7-39.6 23.4-35.9 3.5-71-29.3-89.9-49.7l1-7.4q2.5 1 5.5 2c14.6 4.7 36.8 9.6 66.5 9.6 21.4-0.1 37.8-4.5 49.7-9.6l2.1-0.1z"/><path class="b" d="m2348.7 787.5c-74.4 0-134.6-81.4-134.6-182.1 0-100.7 60.2-182.1 134.6-182.1 74.5 0 134.6 81.4 134.6 182.1 0 100.7-60.1 182.1-134.6 182.1z"/><path class="b" d="m2255.4 637.3c6.9 18.8 0.9 38.7-13.5 44.4-14.4 5.7-31.7-5-38.6-23.9-7-18.9-1-38.8 13.4-44.4 14.4-5.7 31.7 5 38.7 23.9z"/><path class="b" d="m2460.2 637.3c-7 18.9-0.9 38.8 13.5 44.4 14.4 5.7 31.7-5 38.6-23.9 7-18.9 0.9-38.8-13.5-44.4-14.4-5.7-31.7 5-38.6 23.9z"/><path class="g" d="m2255.8 569.8c-2.8 0-5.5-1.7-6.7-4.6-1.5-3.8 0.2-8.2 3.9-9.8 34.9-15.4 61.5-1.1 62.6-0.5 3.6 2 4.9 6.6 3 10.2-1.9 3.7-6.2 5.1-9.8 3.1-1-0.5-21.9-11.3-50.1 1q-1.4 0.6-2.9 0.6z"/><path class="g" d="m2385 569.8c-2.8 0-5.5-1.7-6.7-4.6-1.6-3.8 0.2-8.2 3.9-9.8 34.9-15.4 61.5-1.1 62.6-0.5 3.5 2 4.9 6.6 3 10.2-1.9 3.7-6.2 5.1-9.8 3.1-1-0.5-21.9-11.3-50.2 1q-1.4 0.6-2.8 0.6z"/><path class="g" d="m2282.7 624.5c-6.5 0-11.9-7-11.9-15.6 0-8.5 5.4-15.5 11.9-15.5 6.6 0 11.9 7 11.9 15.5 0 8.6-5.3 15.6-11.9 15.6z"/><path class="g" d="m2413.6 624.5c-6.6 0-11.9-7-11.9-15.6 0-8.5 5.3-15.5 11.9-15.5 6.5 0 11.9 7 11.9 15.5 0 8.6-5.4 15.6-11.9 15.6z"/><path class="s" d="m2333.6 439.7c0 0-79.2 113.1-90.5 171.9-11.4 58.8-76 40.4-82.5 42.1-6.4 1.7 38.8-187.3 38.8-187.3l134.2-58.5z"/><path class="s" d="m2333.6 400.6v7.3 31.8c17.7 37.1 40 71.9 66.6 102.8 28.3 32.7 63.5 61.3 98 86.6 5.9 4.3 14.5 9 19.9 13.8-4.8-28.6-13.7-57.1-19.1-85.6-4.9-25.7-8-52.9-15.9-78.3-2.4-3.8-149.5-78.4-149.5-78.4z"/><path class="g" d="m2266 803.5c0 0-7.3 14.4-7.3 28 0 13.7 11.7 50-19 51.5-30.8 1.6-131.7 68.2-158.1 87.9-26.4 19.7-19 62.1-19 62.1 0 0 54.1 548.6 62.9 557.7 8.8 9 135.1-121.6 182.3-115.9 47.2 5.7 32.2 16.3 51.2 14.8 19-1.5 26.4-16.7 32.2-15.9 5.9 0.7 25.6 4.5 35.1 11.3 9.6 6.8 46.2-3.8 71 19 24.9 22.7 124.5 98.4 124.5 98.4 0 0 13.2-107.5-8.8-140.8-22-33.4 8.8-327.2 0-337.8-8.8-10.6-16.1-187.8-16.1-187.8 0 0-92.6-49.6-122.2-50.7-29.7-1.1-22-72.7-22-72.7z"/><path class="g" d="m2348.7 731c-6.9 0-14-1.2-21-3.8-0.8-0.3-1.2-1.2-0.9-2.1 0.3-0.8 1.2-1.3 2.1-0.9 20.6 7.5 42.6 2.8 53.5-11.4 0.5-0.7 1.6-0.9 2.3-0.3 0.7 0.5 0.9 1.5 0.3 2.3-8 10.5-21.5 16.2-36.3 16.2z"/><path class="g" d="m2476.1 729.6q-0.5 0-1-0.1c-8.4-0.3-15.6-4.6-19.7-11.7-0.4-0.6-0.2-1.4 0.4-1.7 0.6-0.4 1.4-0.2 1.7 0.4 3.7 6.4 10.2 10.3 17.7 10.6 7.9 0.3 15.5-3.4 19.8-9.8 6.7-9.6 7.7-23.8 2.5-33.8-3.6-6.9-9.7-10.7-17.2-10.7-0.6 0-1.2-0.5-1.2-1.2 0-0.7 0.6-1.3 1.2-1.3q0 0 0 0c8.4 0 15.3 4.3 19.3 12 5.7 10.8 4.6 26.1-2.5 36.4-4.7 6.8-12.7 10.9-21 10.9z"/><path class="g" d="m2220.9 729.6c-8.3 0-16.2-4.1-20.9-10.9-6.2-9-6.7-21.5-1.3-31.9 4.8-9.3 13.5-14.8 23.2-14.8q0 0 0 0c0.6 0 1.2 0.6 1.2 1.2 0 0.7-0.6 1.3-1.2 1.3-8.9 0-16.5 4.9-21 13.4-5 9.6-4.6 21.2 1.1 29.4 4.4 6.4 12 10.1 19.8 9.8 7.6-0.3 14-4.2 17.7-10.6 0.4-0.6 1.1-0.8 1.7-0.4 0.6 0.3 0.8 1.1 0.5 1.7-4.2 7.1-11.4 11.4-19.8 11.7q-0.5 0.1-1 0.1z"/><path class="g" d="m2349.6 663.4h-2c-6.5 0-11.8-5.4-11.8-12.2v-35.7c0-1.1 0.9-2 2-2 1 0 1.9 0.9 1.9 2v33.7c0 5.6 4.4 10.2 9.9 10.2 1.1 0 1.9 0.9 1.9 2 0 1.1-0.8 2-1.9 2z"/><path class="b" d="m2287.6 1561.1l-70.8-43.1 5-14.5c3.5-5 7.5-10.9 2.9-15.2-4.7-4.5-12.3-5.5-18.3-2.4l-79.2 40.2-56 45.9c36.4 35.8 63.3 38.6 79.6 34.4 1.7 0.7 3.4 1.5 5.2 2.2l60.8 23.4c5.4 2.9 12.6 1.5 16.2-3.1 2.6-3.4 4.2-9.2-7.1-16l11.3 6.8c5.8 3.1 13.4 1.6 17.1-3.5 3.4-4.4 1-11.1-5.5-16l8.8 4.3c6.4 3.4 14.7 1.4 18.2-4.6 3-5.2 0.7-11.6-4.8-14.9l-12.5-7.6 14.5 1.6c7 3.2 16.6 4.3 20.1-2.2 2.9-5.6 0.3-12.2-5.5-15.7z"/><path class="g" d="m2081.6 970.9c0 0-154.5 146.3-168.9 168.4-13.6 20.8-22.7 25.8-32.1 33.2-9.5 7.4-6.6 13.4-38.7 66.7-24.1 39.8-38.4 105.7-21.9 151.2 17.1 47.1 62.6 79.3 104.8 102.2 45.7 24.9 54.4 33 90.9 55.2 36.5 22.2 46 26.4 65.9 47.7 11.9 12.7 40.2 18.8 57.3 24.3 7.5 2.4 16.7-6 18.9-13.8l33-112.2c0 0-28.5-70.6-85.7-99.3-32.6-16.3-70.7-33.4-89.4-49.9-15.1-13.3 39.7-41.7 51-51.5 9.4-8 45.5-40.6 52-42.8 6.4-2.2 25.7-94.9 25.7-96.3 0-1.4-62.8-183.1-62.8-183.1z"/><path class="t" d="m2350.4 1847.2q0 0-0.1 0c-1.8-0.1-3.2-1.6-3.1-3.4 0.2-7.4 4.9-180.7 9.5-200.9 5.2-22.9 46.8-66.2 48.5-68 1.3-1.3 3.4-1.3 4.7-0.1 1.3 1.3 1.3 3.4 0 4.7-0.4 0.4-42 43.7-46.8 64.9-4.5 19.5-9.3 197.8-9.4 199.6 0 1.7-1.5 3.2-3.3 3.2z"/><path class="u" d="m2090.4 1277.4c-1 0-1.9-0.4-2.6-1.2-1.1-1.5-0.9-3.5 0.6-4.7 19.3-15.2 36.5-33.9 51.1-55.3 2.5-3.7 4.9-8.1 7.4-12.7 6-10.8 12.2-22 21.3-27.6 1.5-1 3.6-0.5 4.5 1.1 1 1.5 0.5 3.5-1 4.5-7.7 4.7-13.4 15.1-19 25.2-2.6 4.7-5.1 9.2-7.8 13.2-15 22-32.6 41.1-52.5 56.8-0.6 0.5-1.3 0.7-2 0.7z"/><path class="u" d="m2190.2 1454.8c-1.2 0-2.4-0.7-2.9-1.8-0.1-0.2-10.1-20.3-31.9-29.6-23.5-10.1-30.3-16.7-30.6-17-1.3-1.3-1.3-3.4 0-4.7 1.3-1.2 3.3-1.2 4.6 0 0.1 0.1 6.6 6.2 28.6 15.7 24.1 10.3 34.7 31.8 35.2 32.7 0.8 1.6 0.1 3.6-1.6 4.4q-0.6 0.3-1.4 0.3z"/><path class="u" d="m2596.8 1529.2q-0.3 0-0.7-0.1c-1.8-0.4-2.9-2.2-2.4-3.9 0-0.2 4-17.3-1.4-48.6l-1.2-6.6c-2.9-16.8-3-17.5-1.1-26.3 0.7-3.5 1.8-8.3 3-16.4 4.6-29.1-21.7-131-22-132-0.5-1.7 0.6-3.5 2.4-4 1.7-0.4 3.5 0.6 4 2.4 1.1 4.2 26.9 104.2 22.1 134.6-1.3 8.3-2.3 13.2-3.1 16.8-1.6 7.6-1.6 7.6 1.2 23.7l1.1 6.7c5.7 32.8 1.5 50.5 1.3 51.2-0.3 1.5-1.7 2.5-3.2 2.5z"/></svg>