<svg version="1.2" xmlns="http://www.w3.org/2000/svg" viewBox="0 0 1000 1000" width="500" height="500"><style>.a{fill:#bad3c6}.b{fill:#9bc6b1}.c{fill:#6b2f84}.d{fill:#55216d}.e{fill:#a59942}.f{fill:#0d0f11}.g{fill:#e6956a}.h{fill:#dd835b}.i{fill:#fff}.j{fill:#db8058}.k{fill:#592517}.l{fill:#381a0f}.m{fill:#ea9e7d}.n{fill:#ea4b3b}.o{fill:#d8322a}.p{fill:#ffd400}.q{fill:#ffb600}.r{fill:#ffee71}.s{fill:#ffe600}.t{fill:#ef8054}.u{fill:#181c20}.v{fill:#213a4f}.w{fill:#152a38}.x{fill:#301710}.y{fill:#ff4818}.z{fill:#ff7c1a}.A{fill:#9c74af}.B{fill:#8e67a5}.C{fill:#cc5e12}.D{fill:#22272b}.E{fill:#8c44ad}.F{fill:#ed670c}.G{fill:#ff931d}</style><path fill-rule="evenodd" class="a" d="m481.5 328.6c9.1-1.1 60.3 4.2 60 14.9-0.4 11.4-0.5 10.1-2.4 20.7-2 10.5-10.3 11-9.3 22.9 0.9 11.9-32 26.2-33.2 12.3-1.1-14-9.4-43.1-27.9-52.2 13.8 20.9 6.8 59.6-0.8 67-7.5 7.4-13.4 1.4-24.2 2.9-10.8 1.6-20.3 0-27.8-4.6-7.4-4.7-16.3-2.4-23.4-15.5-7.2-13.2 13.2-18 23.9-26.8 10.8-8.7 25.3-26.7 25.3-26.7 0 0-14.7 0.3-34 12-19.3 11.7-35.4 15.5-37.5 10.4-2.1-5 0.6-16.7-5.2-21.5-5.8-4.8-0.9-20.4 1.6-26.8 2.4-6.3-0.7-9.6 2.8-17.5 3.5-7.8 35.6-4.6 61.2 14.9-5.1-26.9-36.9-33.9-34.5-47.6 2.3-13.7 19.2-12.7 25.1-19 5.9-6.3 11.7 0.6 24.2-2 12.4-2.7 17-7 26.5 9.8 2.6 4.5 4.6 35.4-1.6 52.3 7.4-18.4 25.1-55 28.7-56.5 6.2-2.6 14.4 10.9 24 16.7 9.6 5.7 1.2 22.4 13.8 27 12.6 4.7 13.9 26.3 4.3 28.6-9.5 2.3-26.5-13.2-59.6 4.3zm-7.3-1.7c0-9.1-7.4-16.5-16.5-16.5-9.1 0-16.5 7.4-16.5 16.5 0 9.1 7.4 16.5 16.5 16.5 9.1 0 16.5-7.4 16.5-16.5z"/><path fill-rule="evenodd" class="a" d="m127 613.5c9-1.1 60.2 4.2 59.9 14.9-0.3 11.4-0.4 10.1-2.4 20.7-2 10.5-10.2 11-9.3 22.9 0.9 11.9-32 26.2-33.1 12.2-1.2-13.9-9.5-43-28-52.1 13.9 20.9 6.8 59.6-0.7 67-7.5 7.4-13.5 1.4-24.3 2.9-10.8 1.6-20.3 0-27.8-4.6-7.4-4.7-16.2-2.4-23.4-15.6-7.2-13.1 13.2-17.9 24-26.7 10.7-8.7 25.2-26.7 25.2-26.7 0 0-14.7 0.3-34 12-19.2 11.7-35.4 15.5-37.5 10.4-2.1-5 0.7-16.7-5.2-21.5-5.8-4.8-0.8-20.4 1.6-26.8 2.4-6.3-0.7-9.6 2.9-17.5 3.5-7.8 35.6-4.6 61.1 14.9-5.1-26.9-36.9-33.9-34.5-47.6 2.3-13.7 19.3-12.7 25.1-19 5.9-6.3 11.8 0.6 24.2-2 12.5-2.7 17-7 26.5 9.8 2.6 4.5 4.7 35.4-1.6 52.3 7.4-18.4 25.2-55 28.8-56.5 6.1-2.6 14.3 10.9 23.9 16.7 9.6 5.7 1.3 22.4 13.8 27 12.6 4.7 14 26.3 4.3 28.6-9.5 2.3-26.5-13.2-59.5 4.3zm-7.4-1.7c0-9.1-7.4-16.5-16.5-16.5-9.1 0-16.5 7.4-16.5 16.5 0 9.1 7.4 16.5 16.5 16.5 9.1 0 16.5-7.4 16.5-16.5z"/><path fill-rule="evenodd" class="b" d="m319.5 492.4c-2.8-10.6-6.6-23.4-11.4-37.6 36.4-20.5 35.7-87.3 35.7-90.1h-3.2c0 0.7 0.7 67.1-33.6 87.1-6.3-18.2-14.5-38.5-24.8-59.5-3.1-6.2-6.4-12.5-9.9-19 36.8-37.4 29.9-90.3 29.9-90.9l-3.2 0.5c0.1 0.5 6.7 51.3-28.3 87.6-17.8-31.8-42-66.2-74.1-96.1 3-40.8-9.4-59-9.9-59.7l-2.6 1.8c0.1 0.2 11.8 17.4 9.5 55.1-28.4-25.8-62.9-48-104.4-62l-1.1 3c59.3 20 104 56.9 137.2 96.8-52.4-0.7-78.2-16.1-78.5-16.3l-1.6 2.7c1.1 0.7 27.6 16.6 82.7 16.8 22.1 27.2 38.9 55.6 51.4 81q4.3 8.7 8.1 17.3c-54.3 2.7-95.8-17.4-96.3-17.6l-1.4 2.8c0.4 0.2 37.5 18.2 87.6 18.2q5.6 0 11.5-0.3c13.6 31.1 22.5 59.6 27.9 79.9-4 2-6.6 2.6-6.6 2.6-80.5 10.9-138.9-62.4-168.9-158.3-29.9-96-48.9-113.9-85.2-135.7 168.9-16.9 287.2 70.7 300.5 175 9.8 77.8-20.7 105.7-37 114.9zm-93.5-41.8c14.6 7.7 50.7 19 59.4 3.9 8.7-15.1-12.8-18.4-34.5-19-21.8-0.7-44.7 4.6-24.9 15.1zm-31.4-71.4c14.6 7.7 50.7 19 59.4 3.9 8.7-15.1-12.8-18.4-34.5-19-21.8-0.7-25.7-7.4-25.7-7.4-14-7.8-19 12 0.8 22.5zm-57.3-107.3c9 7.5 32.4 20.8 40.7 11.6 8.4-9.1-6.1-14.7-21.1-18.4-15-3.7-31.7-3.5-19.6 6.8zm142.8 10.8c-5-21.9-31-39-27.1-23.5 0 0 11 22.4 6 43.6-4.9 21.1-7.3 42.7 9.5 38.2 16.8-4.4 15.3-42.3 11.6-58.3z"/><path class="b" d="m750.4 155.9c-20.9 11.3-30.8 34.3-33.7 42.3-11.8 9.7-22.6 19.8-32.6 30.1q-0.1-4.4 0.2-9c5.7-8.7 21.3-34 24-54 3.3-24.6-20-29.4-29.8-2.2-8 22-0.4 45.4 2.8 53.6-0.4 5.1-0.5 10.1-0.2 14.7-12.7 13.5-23.9 27.1-33.8 40.6q-1.1-4.6-1.8-9.5c3.9-9.6 14.3-37.5 13-57.6-1.5-24.8-25.3-25-29.6 3.6-3.6 23.2 8.4 44.7 13.2 52.1 0.6 5.1 1.5 10.1 2.8 14.7-12.3 17-22.4 33.6-30.7 48.9q-0.7-4.3-1.1-8.8c4.5-9.4 16.4-36.7 16.2-56.9-0.2-24.8-23.9-26.3-29.8 2-4.8 22.9 6 45.1 10.3 52.7 0.4 5.4 1 10.6 2.1 15.4-8.8 16.6-15.3 31.4-20 43.1q-1.3-4-2.4-8.3c2.8-10 10.1-38.8 6.6-58.7-4.2-24.5-27.8-22-29.1 6.9-0.9 23.3 13.3 43.4 18.8 50.3 1.3 5 2.7 9.8 4.4 14.2-5.3 13.8-7.6 22.2-7.6 22.5l3 0.8c0.1-0.2 0.9-3 2.5-8.1q4.9-1.2 10-3 2-0.8 4-1.5c8.8 0.5 33.4 0.7 52-13.5 22.9-17.7 11.4-38.4-11.1-27.8-18.3 8.6-37.7 31.1-44.3 39.2q-4.7 1.8-9.4 3.1c3.7-10.8 10.4-28.3 21-49.4 4.6-0.9 9.4-2.1 14.3-3.7 8.7 1.1 33.3 2.7 52.6-10.4 24-16.2 13.7-37.5-9.3-28.4-18.8 7.5-39.5 28.8-46.6 36.5q-4.6 1.4-9.2 2.4c7.8-15 17.4-31.8 29.4-49.2 4.6-0.6 9.4-1.6 14.3-3 8.7 1.6 33.2 4.5 53.2-7.6 24.7-15 15.5-36.9-8-28.9-19.1 6.5-40.9 26.8-48.3 34.1q-4.5 1.1-8.8 1.9c9.3-13.2 19.8-26.7 31.7-40.1 4.7-0.2 9.5-0.8 14.4-1.6 8.5 2.3 32.6 7.3 53.7-2.9 26-12.7 18.8-35.3-5.3-29.4-19.7 4.7-43.2 22.9-51.2 29.5q-4.4 0.7-8.5 1.1c11.5-12.7 24.4-25.1 38.6-37 10.1-2.7 38.6-11.1 53.9-24.3 18.8-16.2 4.7-35.2-20.8-21.5z"/><path class="b" d="m39.1 377c15.3 8.2 22.6 25.2 24.8 31 8.6 7.1 16.6 14.5 23.9 22.1q0-3.2-0.1-6.6c-4.2-6.4-15.7-24.9-17.7-39.6-2.4-18.1 14.7-21.6 21.9-1.6 5.9 16.1 0.3 33.3-2 39.3 0.2 3.7 0.3 7.4 0.1 10.8 9.3 9.9 17.5 19.9 24.8 29.8q0.8-3.3 1.3-7c-2.9-7-10.5-27.5-9.6-42.3 1.2-18.2 18.6-18.3 21.8 2.7 2.6 17-6.2 32.8-9.7 38.2-0.4 3.8-1.1 7.5-2 10.8 9 12.5 16.4 24.7 22.5 35.9q0.5-3.1 0.8-6.5c-3.3-6.9-12-26.9-11.9-41.7 0.2-18.2 17.5-19.3 21.9 1.5 3.5 16.8-4.4 33-7.6 38.7-0.3 3.9-0.7 7.7-1.5 11.2 6.5 12.2 11.2 23.1 14.6 31.6q1-2.9 1.8-6c-2-7.3-7.4-28.5-4.8-43.1 3.1-18 20.4-16.2 21.3 5 0.7 17.2-9.7 31.9-13.8 37-0.9 3.6-1.9 7.2-3.2 10.4 3.9 10.1 5.6 16.3 5.6 16.6l-2.2 0.6c-0.1-0.2-0.6-2.3-1.9-6q-3.6-0.9-7.3-2.3-1.5-0.5-2.9-1.1c-6.5 0.5-24.5 0.6-38.2-9.9-16.8-12.9-8.3-28.1 8.2-20.4 13.4 6.3 27.6 22.9 32.4 28.8q3.6 1.3 7 2.3c-2.8-7.9-7.7-20.8-15.5-36.3-3.3-0.6-6.9-1.5-10.4-2.7-6.4 0.8-24.5 2-38.7-7.6-17.6-11.9-10-27.6 6.9-20.8 13.8 5.4 29 21.1 34.2 26.7q3.4 1.1 6.7 1.8c-5.7-11-12.8-23.3-21.5-36.1-3.4-0.5-7-1.2-10.6-2.2-6.3 1.1-24.3 3.2-39-5.6-18.2-11-11.4-27.1 5.9-21.2 14 4.8 30 19.7 35.4 25q3.3 0.8 6.5 1.4c-6.8-9.7-14.5-19.6-23.3-29.4-3.4-0.2-7-0.6-10.6-1.2-6.2 1.7-23.9 5.4-39.3-2.1-19.1-9.3-13.9-25.9 3.8-21.6 14.5 3.5 31.7 16.8 37.6 21.7q3.2 0.5 6.3 0.7c-8.5-9.2-18-18.4-28.4-27.1-7.4-2-28.3-8.2-39.6-17.9-13.8-11.9-3.4-25.8 15.3-15.7z"/><path class="b" d="m384 378.4c-19.8-25-30.6-56.1-36.6-83.7 4.9-0.2 22.7-2.9 30-32.3-23.3 5.4-29.2 21.4-30.8 28.6-2.6-13-4.2-25.2-5.1-35.5 4.3 0.6 19.8 1 23.5-25.7-16.9 4.7-22.2 15.2-23.9 21.1-0.6-7.9-0.8-14.4-0.8-18.9 12.2-5 23-19.9 23-19.9 0 0-1.4 0-3.5 0.2 16.6-19.2 25.4-44.9 22.4-45.9-3.9-1.2 0.4-6.9-6.3-9.7-3.4-1.4-6.4 0.6-8.5 2.9-1.7-6.7-5.2-5.9-8.9-4.9-0.3-1.5-1.1-3.7-2.8-5.3 1.2-3.6 2.5-7.3 4-10.2 0.6 0.1 1.4 0.1 2.1-0.1 2.2-0.6 3.5-2.9 2.9-5.1-0.6-2.2-2.9-3.5-5.2-2.9-2.2 0.6-3.5 2.9-2.9 5.1 0.3 1 0.9 1.8 1.6 2.3-1.4 2.9-2.7 6.4-3.9 9.9-1.1-0.6-2.5-1-4.4-0.9-6 0.5-6.4-0.8-8.5-1.1 0.6-3.5 1.4-7.1 2.3-10.1 0.7 0.1 1.4 0 2.1-0.3 2.1-0.9 3.1-3.4 2.2-5.5-1-2.1-3.4-3.1-5.5-2.1-2.1 0.9-3.1 3.4-2.2 5.5 0.4 0.9 1.1 1.5 1.9 2-1 3.1-1.8 6.8-2.4 10.5q-0.7 0.1-1.6 0.3c-5.5 1.1-4.5 2.6-7.9 2.6-0.3-3.2-0.5-6.3-0.4-9.1 0.7-0.2 1.3-0.4 1.9-0.9 1.8-1.5 2-4.1 0.5-5.9-1.5-1.8-4.1-2-5.9-0.5-1.7 1.5-2 4.1-0.5 5.9 0.7 0.7 1.5 1.2 2.4 1.4-0.1 2.7 0.1 5.9 0.4 9-3-0.3-6.7-1.1-9.5 1.9-0.5-3.9-0.8-7.9-0.7-11.3 0.7-0.1 1.4-0.4 1.9-0.9 1.8-1.5 2-4.1 0.6-5.9-1.5-1.7-4.2-2-5.9-0.5-1.8 1.5-2 4.1-0.5 5.9 0.6 0.8 1.5 1.2 2.4 1.4-0.1 4 0.3 8.8 0.8 13.3q-0.5 1.1-0.7 2.5c-1.2-1.3-2.5-1.5-3.9-0.4-1.2-0.8-2.9-1.5-4.8-1.4-2-4.7-4.4-9.8-6.9-13.7 0.7-0.6 1.2-1.5 1.4-2.4 0.3-2.3-1.2-4.5-3.5-4.8-2.3-0.4-4.4 1.2-4.8 3.4-0.3 2.3 1.2 4.5 3.5 4.8 0.7 0.1 1.4 0 2.1-0.2 2.3 3.7 4.7 8.6 6.6 13.1q-0.1 0-0.1 0.1c-4.8 1.4-4 0.4-7.4 2.3-2.7 1.4-9.8 5.7-10.2 11.6-1.7 0.6-3.3 1.8-3.6 5.5-0.6 6.4 11.9 25.8 25.8 39.6-2.4-0.5-4.1-0.8-4.1-0.8 0 0 14.2 15.5 31 19.9 0 5.2 0.3 12.7 1.1 21.8-2.4-6.1-8.3-15.3-23.1-19.6 3.2 27.4 19.5 26.4 23.6 25.7 0.9 8.5 2.2 18.2 4.2 28.4-4-8.4-11.9-18.4-27.4-20.1 4.6 27.7 24.9 31.7 30 32.3 6.3 26.4 17.1 55.4 35.7 79z"/><path class="b" d="m993 592.8c2.5-29 3.5-60.1 7-93.3 0 0-17 20.2-91.3 30.9-6.1 11.6-13.5 34.9-17.2 56.6-6.3-28.6-0.1-46.7 4.2-54.9-6.9 0.8-14.1 1.5-21.9 2.1-13.6 1.1-26.4 3-38.5 5.7-10.5 10.9-12.6 25.5-11 40.6 2.1 20 17.4 43.7 4.8 51-12.6 7.4-23.7-15.7-22.6-45.2 0.7-19.7 10.5-35.4 17-43.6-28.7 7.6-52.6 19.3-71 33.7-2.4 14.2-4 42.2 12.4 68.9 17.8 26.1-2 28-11.4 19.4-9-8.3-21.3-49.5-8.1-82.4-24 21.5-36.7 47.9-35.7 75 2.1 58.9 50.5 62.1 50.5 62.1q0.1 0.2 0.1 0.5c13.1-10.9 30.3-23.8 51.4-36.8-41-47.3-31.6-104.4-31.5-105l3.1 0.6c-0.1 0.5-9.3 56.5 31.1 102.7 8.9-5.4 18.4-10.9 28.7-16.2 10.8-5.6 21-11.7 30.5-18.1-21.9-36.8-14.1-95.1-13.7-97.5l3.1 0.4c-0.1 0.6-8 59.4 13.2 95.3 21.2-14.7 39.1-31.1 54.2-47.3-5.2-46.3 3.2-60.8 3.6-61.4l2.7 1.6c-0.1 0.1-7.9 13.9-3.5 56.7 29.3-32.2 47.3-63.6 56.6-79.8l0.9-1.6 2.8 1.5-1 1.7c-13 22.8-43 75-97.2 118.3 6.6 3.8 32.1 15.4 77.5 4.5l0.7 3c-14.3 3.5-26.6 4.8-37.1 4.8-25.8 0-40.1-7.9-43.8-10.2-14.3 11.2-30.3 21.7-48.1 30.9q-10.3 5.4-19.7 10.8c4.5 8 30.3 50 77.1 50q0.4 0 0.8 0v3.2q-0.4 0-0.8 0c-48.3 0-74.9-43-79.8-51.6-25.6 15.2-46.1 30.5-60.9 42.9 12.7 46.6 57.9 65.4 111.1 46.8-24.2-4.2-37.4-17.5-42.5-32.3 18.7 23.1 46.4 24.5 64 22.8 10.8-5.6 21.7-12.6 32.6-21.3 18-14.2 30.9-29.7 40.5-46.3-43.4 18.9-95.3 2.4-95.7-9.9-0.6-13.2 15.2-7.4 51.5 0.5 25 5.4 43.2-1.6 52.2-6.5 8.2-19 12.7-39.4 15.6-61.2-11 6.2-28.5 9.7-53.1 5.1 27-0.3 46.1-17.2 55.6-28.2z"/><path class="b" d="m860.7 253.8c29.2 0.1 60.2 1.9 93.6 1.3 0 0-21.6 15.1-38.8 88.2-12.1 5-36 10.4-57.9 12.1 27.9 8.9 46.5 4.3 55.1 0.7-1.4 6.8-2.8 14-4.1 21.7-2.3 13.4-5.4 26-9 37.8-11.9 9.5-26.5 10.3-41.5 7.3-19.7-3.8-41.9-21.1-50.4-9.2-8.4 11.9 13.6 25 43.1 26.5 19.7 1.1 36.1-7.4 44.9-13.1-10.1 27.9-23.9 50.7-39.8 67.7-14.4 1.2-42.5 0.3-67.6-18.4-24.4-20-28.1-0.5-20.3 9.7 7.5 9.7 47.4 25.5 81.4 15.3-23.5 22-51 32.3-77.9 29-58.5-7.3-57.4-55.8-57.4-55.8q-0.2-0.1-0.5-0.2c12-12.1 26.4-28 41.2-47.9 43.5 45 101.2 40.7 101.8 40.6l-0.3-3.1c-0.6 0-57.1 4.2-99.6-40.1 6.2-8.3 12.5-17.4 18.7-27.1 6.5-10.3 13.5-19.9 20.8-28.8 34.6 25 93.4 22.4 95.9 22.3l-0.2-3.2c-0.6 0.1-59.9 2.7-93.7-21.5 16.5-19.8 34.3-36.3 51.8-49.8 45.7 9.2 60.9 2.1 61.5 1.8l-1.3-2.8c-0.2 0-14.6 6.5-56.9-1.6 34.8-26.3 67.6-41.5 84.5-49.3l1.8-0.8-1.3-2.9-1.8 0.8c-23.8 11-78.5 36.3-126.4 86.5-3.2-7-12.5-33.4 2.4-77.7l-3-1c-4.7 14-7.1 26.2-8 36.6-2.3 25.7 4.3 40.6 6.3 44.6-12.4 13.2-24.4 28.2-35.1 45.1q-6.2 9.8-12.5 18.7c-7.5-5.2-47.1-34.6-43-81.3q0.1-0.3 0.1-0.7l-3.1-0.3q-0.1 0.4-0.1 0.8c-4.3 48.2 36.1 78.4 44.3 84-17.4 24.3-34.4 43.2-48.1 56.9-45.3-16.7-60-63.4-36.8-114.7 2 24.4 14.2 38.8 28.4 45.2-21.4-20.8-20.3-48.4-17.1-65.9 6.6-10.2 14.5-20.4 24.1-30.5 15.8-16.7 32.3-28.2 49.7-36.3-22.6 41.5-10.8 94.7 1.5 96.3 13 1.6 8.7-14.6 4-51.4-3.2-25.4 5.4-43 11.1-51.4 19.7-6.5 40.4-9.3 62.3-10.2-7.1 10.4-12.2 27.5-9.8 52.4 2.8-26.8 21.3-44.3 33-52.9z"/><path class="c" d="m995.8 871.9c-1.6-28.1-7.4-114-19.1-154-14.1-48.2-97.4-53.7-111.6-59.1-14.2-5.4-91-11.9-91-11.9 0 0-49.3 16.3-77.6 25.1-28.2 8.8-38.9 32-48.9 88.4-10 56.5-11.9 99.8-11.9 99.8l-2.7 11.7z"/><path class="c" d="m780.6 546.9c0 0 10.8 45.2 0 83.5-6.9 22.6-29.2 39.9-29.2 39.9 0 0 29.5 54.9 92.6 61.2 33.4 3.3 52.2-12.8 60.3-25.7 6.3-10-1.4-29.5-12.5-33.2-7.5-2.6-15.8-6.8-21.7-14-13.6-16.3-6.9-48.9-6.9-48.9z"/><path class="d" d="m945 839.7c-4 13.5-10.6 24.3-16.8 32.2h16.8c13.4-23 16.6-44.7 6.9-71.7-11.9-33.3-4.4-57.8-4.4-57.8-22.2 39 6.9 65.7-2.5 97.3z"/><path class="e" d="m715.6 783c-1.1 20.4-7.7 61.9-12.3 88.9h9c4.7-25.1 10.8-63 10.8-88 0-40.2-24.3-65.3-24.3-65.3 0 0 18.5 32.6 16.8 64.4z"/><path class="f" d="m734.5 479.6c0 0 2.1 48.8 29.1 83 18.5 23.3 35.4 23.5 35.4 23.5l-27.4-95.2z"/><path class="g" d="m780.6 546.9c0 0 10.8 45.2 0 83.5-6.9 22.6-29.2 39.9-29.2 39.9 0 0 29 45.4 92.1 51.7 33.4 3.3 49.9-9.7 58.1-22.6 6.2-10 1.3-23.1-9.8-26.8-7.5-2.6-15.8-6.8-21.7-14-13.6-16.3-6.9-48.9-6.9-48.9z"/><path class="h" d="m861.9 635.4c-1.3-13.3 1.3-25.7 1.3-25.7l-82.6-62.8c0 0 8.8 36.9 2.6 72.3 18.7 22.5 53 28.9 78.7 16.2z"/><path class="g" d="m919.4 438.2c0 0 13.1 34.9 7.5 65-2.4 22.5 3.8 49.8-11.8 75.2-15.5 25.4-24.4 40-38.1 45.2-13.6 5.2-80-8.5-95-66.8-15.1-58.3-3.3-112.4 6.1-125.1 9.4-12.7 124.1-21.8 131.3 6.5z"/><path class="g" d="m785 510.2c0 0-14.6-24.4-27.6-15-12.9 9.3-2.5 42.6 8.4 56.6 10.9 14 19.2-5.7 19.2-5.7z"/><path class="i" d="m775.9 552.3c-3 0-5.5-2.4-5.5-5.5 0-3.1 2.5-5.5 5.5-5.5 3.1 0 5.6 2.4 5.6 5.5 0 3.1-2.5 5.5-5.6 5.5z"/><path class="j" d="m762.7 537.2c0 0-6.7-18.6-6.7-26.4 0-7.9 3.6-14.2 12.2-9.5 8.6 4.7 11.8 16.2 11.5 20.8-0.2 4.6 0.8 11.5-2.9 11.4-3.7-0.2-7.9-3.2-4.5-7 3.3-3.7 3.8-8.8 3-11.2-0.8-2.5-9.2 2.3-9 9.6-2.8-5.4 4.4-13.9 6.1-14.1-4.1-6.2-11.7-10.3-12.5-3.1-0.9 7.2 1.4 27.1 2.8 29.5z"/><path class="i" d="m825.9 514.8c0 0 10.6-8 21.6-8.8 8.2-0.3 11.5 8.8 11.5 8.8 0 0-8.8 3.1-18 2.4-9.2-0.7-15.1-2.4-15.1-2.4z"/><path class="k" d="m846.4 517.3c3.3 0 6-2.7 6-6 0-1-0.3-2-0.8-2.8-1.2-0.5-2.5-0.8-4.1-0.8-2.2 0.2-4.5 0.7-6.6 1.3q-0.5 1.1-0.5 2.3c0 3.3 2.7 6 6 6z"/><path class="l" d="m846.8 514.6c-1.8 0-3.3-1.5-3.3-3.3 0-1.8 1.5-3.3 3.3-3.3 1.9 0 3.4 1.5 3.4 3.3 0 1.8-1.5 3.3-3.4 3.3z"/><path class="i" d="m889.4 514.8c0 0 6.3-8 17.4-8.8 8.2-0.3 11.5 8 11.5 8 0 0-5.1 4.4-18 3.2-9.2-0.9-10.9-2.4-10.9-2.4z"/><path class="k" d="m905.7 516.5c3.3 0 6-2.7 6-6 0-1-0.3-2-0.8-2.8-1.2-0.5-2.5-0.8-4.1-0.8-2.3 0.2-4.5 0.7-6.7 1.3q-0.4 1.1-0.4 2.3c0 3.3 2.7 6 6 6z"/><path class="l" d="m906.1 513.8c-1.8 0-3.3-1.5-3.3-3.3 0-1.8 1.5-3.3 3.3-3.3 1.9 0 3.4 1.5 3.4 3.3 0 1.8-1.5 3.3-3.4 3.3z"/><path class="f" d="m859 514.8c0 0 0.1-8.7-12.2-9.7-12.2-1-25.5 9.6-34.2 6.5 8 4.4 12.1 4.5 17.7 2 5.6-2.5 23.4-11.4 28.7 1.2z"/><path class="f" d="m889.4 514.8q0 0 0.3-0.3c1.1-1.4 6.7-8.1 14.2-9.2 8.3-1.3 12.2 1.4 15.2 3.9 3.9 3.4 7.9 2.5 8.8 1.8-2.5 2.8-6 5.7-10.1 2.7-4-2.9-6.7-7.2-15-5.6-8.3 1.6-13.4 6.7-13.4 6.7z"/><path class="j" d="m817.4 509.7c0 0 10.5-7.5 21.6-10 11-2.4 18.3 4.2 20 8.3-4.9-4.5-12.7-14.4-41.6 1.7z"/><path class="j" d="m889.4 510.5c0 0 6.8-13.2 22.3-10.8 8.8 2.2 11.1 10 11.1 10 0 0-4-8.3-15.4-8.5-11.3-0.1-18 9.3-18 9.3z"/><path class="m" d="m889.7 496.1c0 0-8 11.8-8 18.9 0 7 8.6 34.1 9.9 37.5 1.3 3.5-9.1 1-10.7-0.6-1.6-1.6-4.5-19.1-4.5-29.8 0-10.8 11.5-25 13.3-26z"/><path class="j" d="m870.1 556.8c-0.7 0.1 10.6-12.4 18.3-9.5 5 2.7 6.6 7.8 6.1 9-0.6 1.3-7.4-2-24.4 0.5z"/><path class="i" d="m860.8 575.1c0 0 9.1 8.4 19.2 7.8 10.1-0.6 13.6-0.6 14.2-2.5 0.6-1.9 1.9-3.8 1.9-5 0-1.3-35.3-0.3-35.3-0.3z"/><path class="n" d="m854.8 575.4c0 0 2 4.7 5.2 7.9 4.9 5.1 12 8.8 26.5 6.5 14.5-2.4 9.5-13.3 9.5-13.3 0 0-6.9 1.7-15.7 1.6-12.2 0-25.5-2.7-25.5-2.7z"/><path class="o" d="m846.4 567.7c0 0 4.9 6.2 14.2 3.5 9.3-2.7 16.2-6.7 18-6.3 1.9 0.3 7 3.5 7 3.5 0 0 3.9-3.9 6-3.5 2.2 0.3 4.2 1.2 6.7 5.5 2.5 4.3 7.2-1.1 7.2-1.1-5.9 6.4-8 7.9-12.1 7-4.1-0.9-6.1 0.3-8.9 0.2-2.9-0.1-5.6-2.4-12.7 0-7.2 2.4-19.1 1.4-25.4-8.8z"/><path class="f" d="m862.9 496.1c0 0 2.2-7.3-6.4-10.2-8.5-2.9-28-5.1-48 10.2 19.7-7.5 47.8-5.5 54.4 0z"/><path class="f" d="m889.4 498.1c0 0 6.1-8.4 12.1-10.7 5.9-2.3 13.7-3.4 25.1 10.7-12.2-8.9-32.2-5-37.2 0z"/><path class="f" d="m815.1 441.9c0 0-10.7 32.1-31.1 44.1 2.2 7.1 1.1 39.2 1.1 39.2 0 0-12.8-28.2-29.3-28.8-16.5-0.6-18.6-0.3-18.6-0.3 0 0-12.1-53.8 6.7-80.9 5.9-8.5 16.3-17.6 36.5-19.7 9.1-27.3 48.8-43.3 98.1-28.9 49.3 14.4 69.6 56.5 70.6 76.6 1.1 20.1-22.5 54.9-22.5 54.9 0 0 5.4-46.3-40.2-56.7 18.7 10.9 23.1 26.8 23.1 26.8-28.2-20.4-61-21.5-61-21.5 17.1 5.6 20.3 17.9 20.3 17.9 0 0-29.1-18.7-53.7-22.7z"/><path class="p" d="m764.3 475.6c0 0-5.6-8.1-1.6-14.1 4-6 18.8-4.4 17.1 10.9 9.3-15.7 29.7 2 12.6 14 11.9 8.9 5.2 22.6-7.8 17.5-5 16.3-22.4 9.9-19.6-1.3-14.8 3-17.7-11.9-9.8-15.4-10.4-9-1.5-19.5 9.1-11.6z"/><path class="q" d="m791.2 473.4c-1.6-1.5 1.8-4.8-2.8-3.6-4.5 1.2-6.5 5-6.5 5-1.5 1-2.1 2.2-2 3.4 2.2-2.6 5.1-4.8 8.7-6-1 1.4-2.4 2.4-3.4 3.9 1-1 2.4-1 3.4-1.5-1 1.5-1.9 2.4-3.4 3.4 2.4-1.5 4.4-2.4 7.3-1.9-2 0.4-4 1.4-5.3 2.5 1.6 0.1 2.9-0.6 4.3-0.1-2.7 1.3-5.5 2.9-8.5 3.6q1 0.5 2.1 0.7c4.3 0.8 7.2-0.4 8.2-2.1 0.9-1.7-1-1.2-0.7-2.9 0.3-1.7 3.2-1.3 3.5-3 0.3-1.8-3.3 0.1-4.9-1.4z"/><path class="q" d="m793.6 494.6c0.1-2.2 4.8-1.8 0.9-4.4-3.9-2.7-8-1.7-8-1.7-1.8-0.4-3.1-0.1-4 0.6 3.5 0.1 7.1 0.8 10.3 2.8-1.7 0.2-3.4-0.3-5.1-0.1 1.3 0.1 2.3 1.2 3.3 1.6-1.8 0.3-3.1 0.2-4.8-0.3 2.7 0.9 4.7 1.7 6.2 4.2-1.6-1.1-3.7-2-5.4-2.3 1 1.3 2.4 1.7 2.9 3.2-2.7-1.2-5.8-2.3-8.3-4.1q0.3 1.1 0.8 2c2.3 3.8 5.1 5.2 7 4.9 1.9-0.4 0.3-1.6 1.8-2.4 1.4-0.9 3 1.5 4.5 0.6 1.6-0.9-2.2-2.4-2.1-4.6z"/><path class="q" d="m776.6 506.1c2.2-0.6 3.2 4.1 4.5-0.4 1.4-4.6-0.7-8.2-0.7-8.2-0.2-1.8-0.9-3-1.8-3.6 1 3.3 1.3 7 0.4 10.6-0.7-1.6-0.8-3.3-1.5-4.9 0.3 1.4-0.4 2.6-0.5 3.7-0.8-1.6-1.1-3-1.1-4.7-0.1 2.8-0.3 5-2.2 7.2 0.6-1.9 0.8-4.2 0.6-5.9-1 1.4-1 2.8-2.1 3.8 0.2-3 0.3-6.3 1.3-9.2q-0.9 0.6-1.6 1.4c-3 3.3-3.5 6.4-2.6 8.1 0.9 1.7 1.5-0.2 2.8 1 1.3 1.1-0.6 3.3 0.8 4.5 1.3 1.2 1.6-2.9 3.7-3.4z"/><path class="q" d="m760.8 497.2c1.8 1.3-1.2 5 3.2 3.2 4.4-1.8 5.8-5.8 5.8-5.8 1.4-1.2 1.8-2.5 1.7-3.6-2 2.8-4.6 5.4-7.9 7 0.7-1.5 2-2.7 2.8-4.2-0.8 1-2.3 1.2-3.2 1.8 0.8-1.5 1.6-2.6 2.9-3.8-2.2 1.8-3.9 3-6.9 2.9 1.9-0.7 3.8-2 4.9-3.3-1.6 0.2-2.7 1.1-4.2 0.8 2.4-1.7 5-3.7 7.9-4.8q-1-0.3-2.1-0.4c-4.4-0.2-7.1 1.4-7.9 3.2-0.7 1.8 1.1 1 1 2.8 0 1.7-2.9 1.6-3 3.4-0.1 1.8 3.2-0.5 5 0.8z"/><path class="q" d="m768.6 466.9c-1.8 1.3-4.5-2.6-4.1 2.1 0.5 4.7 3.9 7.3 3.9 7.3 0.8 1.6 1.8 2.4 3 2.6-2.2-2.7-3.9-5.9-4.5-9.6 1.3 1.1 2 2.7 3.3 3.9-0.8-1.1-0.6-2.5-0.9-3.5 1.3 1.1 2.1 2.3 2.8 3.8-1-2.6-1.7-4.6-0.7-7.4 0.1 2 0.8 4.2 1.7 5.6 0.3-1.6-0.2-2.9 0.5-4.3 0.9 2.9 2 6 2.2 9q0.6-0.8 1-1.9c1.5-4.1 0.8-7.2-0.7-8.4-1.5-1.3-1.3 0.7-2.9 0.1-1.7-0.6-0.8-3.3-2.5-3.9-1.7-0.6-0.4 3.3-2.1 4.6z"/><path class="q" d="m757.3 481.2c0.2 1.8-3.7 2.1-0.1 3.6 3.5 1.6 6.6 0.2 6.6 0.2 1.5 0.1 2.5-0.4 3-1.1-2.7 0.5-5.7 0.4-8.5-0.7 1.3-0.4 2.7-0.3 4.1-0.7-1.1 0.1-2-0.6-2.9-0.8 1.3-0.4 2.4-0.5 3.8-0.4-2.2-0.3-3.9-0.7-5.5-2.5 1.5 0.7 3.3 1.1 4.6 1.1-1-0.9-2.1-1.1-2.8-2.1 2.4 0.5 5 0.9 7.2 2q-0.3-0.8-0.9-1.5c-2.4-2.7-4.8-3.4-6.3-2.8-1.4 0.6 0 1.2-1 2.1-1.1 1-2.7-0.7-3.8 0.2-1.1 1 2.2 1.6 2.5 3.4z"/><path class="r" d="m765 485.5c0 0-6.3-1.6-7-6.3-0.7-4.7 7.4-10.5 13.3-2.1-2.4-11.9 15.5-12.1 12.4 1.3 9.8-0.8 12.5 8.9 3.8 12.1 4.7 10.3-6.7 14.8-10.3 8-5.9 8-13.9 1.9-11.6-3.3-9.1 0.2-9.3-9-0.6-9.7z"/><path class="s" d="m765 485.5c0 0-4.3-0.9-5-5.7-0.7-4.7 5.4-11.1 11.3-2.7-2.4-11.9 13.9-10.4 10.7 3 9.9-0.8 14.2 7.2 5.5 10.4 4.7 10.3-6.9 12.1-10.3 8-5.9 8-12.3 0.5-9.9-4.7-9.1 0.2-11-7.6-2.3-8.3z"/><path class="p" d="m787.8 484.2c-0.5-1.3 2.4-2.1-0.5-2.8-2.9-0.7-5.1 0.9-5.1 0.9-1.2 0.1-1.9 0.6-2.2 1.3 2.1-0.8 4.3-1.2 6.7-0.8-1 0.5-2.1 0.6-3 1.2 0.8-0.3 1.6 0.1 2.3 0.2-1 0.5-1.8 0.7-2.9 0.9 1.8-0.1 3.1-0.1 4.6 1-1.2-0.3-2.7-0.3-3.7-0.1 0.9 0.5 1.8 0.5 2.5 1.2-1.9-0.1-4 0-5.9-0.5q0.4 0.6 1 1c2.2 1.8 4.1 1.9 5.2 1.3 1-0.7-0.2-1 0.5-1.9 0.6-0.8 2.1 0.3 2.8-0.6 0.7-0.9-1.9-0.9-2.3-2.3z"/><path class="p" d="m782.9 496.8c0.7-1.2 3.2 0.5 1.8-2.2-1.4-2.6-4-3.3-4-3.3-0.9-0.7-1.7-0.9-2.4-0.8 1.9 1.1 3.7 2.5 4.9 4.6-1-0.4-1.8-1.2-2.8-1.6 0.7 0.5 0.9 1.4 1.3 1.9-1-0.4-1.7-0.8-2.5-1.6 1.2 1.3 2.1 2.4 2.2 4.2-0.6-1.1-1.5-2.2-2.4-2.9 0.2 1.1 0.9 1.7 0.8 2.7-1.2-1.5-2.7-3-3.5-4.7q-0.2 0.6-0.1 1.3c0.1 2.8 1.3 4.4 2.4 4.8 1.2 0.3 0.7-0.8 1.7-0.8 1.1-0.1 1.3 1.7 2.4 1.7 1.2-0.1-0.6-2 0.2-3.3z"/><path class="p" d="m770 498.3c1.3 0.3 0.5 3.2 2.6 1.1 2.1-2.1 2-4.8 2-4.8 0.5-1.1 0.4-1.9 0-2.5-0.4 2.1-1.3 4.2-2.8 6 0-1.1 0.5-2.1 0.6-3.2-0.2 0.9-1 1.3-1.4 1.9 0.1-1.1 0.3-1.9 0.8-2.9-0.9 1.5-1.6 2.7-3.4 3.4 0.9-0.9 1.7-2.1 2.1-3.2-1 0.5-1.4 1.3-2.3 1.5 1-1.6 2-3.4 3.4-4.7q-0.6 0-1.3 0.3c-2.6 0.9-3.8 2.5-3.8 3.8 0 1.2 0.9 0.3 1.3 1.3 0.3 1.1-1.3 1.7-0.9 2.8 0.3 1.1 1.7-1.1 3.1-0.8z"/><path class="p" d="m763.7 488.6c0.7 1.3-2.1 2.5 0.9 2.8 3 0.3 4.9-1.6 4.9-1.6 1.2-0.3 1.8-0.8 2-1.5-1.9 1-4.1 1.7-6.5 1.6 0.9-0.6 2-0.9 2.9-1.5-0.8 0.3-1.7 0-2.4 0.1 0.9-0.7 1.7-1 2.8-1.3-1.8 0.3-3.1 0.5-4.7-0.4 1.2 0.1 2.7 0 3.7-0.4-1-0.4-1.9-0.2-2.6-0.8 1.9-0.3 3.9-0.6 5.8-0.4q-0.5-0.5-1.1-0.8c-2.4-1.5-4.3-1.4-5.3-0.6-0.9 0.8 0.3 1-0.2 1.9-0.6 0.9-2.2 0.1-2.8 1-0.6 1 2 0.7 2.6 1.9z"/><path class="p" d="m777 473.9c-1.4 0.3-1.7-2.7-2.9 0-1.1 2.8 0 5.2 0 5.2 0 1.2 0.4 2 0.9 2.4-0.4-2.2-0.4-4.5 0.4-6.7 0.3 1 0.3 2.1 0.6 3.2-0.1-0.9 0.5-1.6 0.6-2.3 0.4 1 0.5 1.9 0.4 3 0.2-1.8 0.5-3.1 1.8-4.4-0.5 1.2-0.8 2.6-0.7 3.7 0.7-0.8 0.8-1.7 1.6-2.3-0.4 1.9-0.6 3.9-1.4 5.7q0.6-0.3 1.1-0.8c2.1-1.9 2.6-3.8 2.1-4.9-0.5-1.1-1 0-1.7-0.8-0.8-0.8 0.5-2.1-0.2-2.9-0.8-0.9-1.2 1.7-2.6 1.9z"/><path class="p" d="m766.4 478.6c-0.3 1.1-2.6 0.1-1.1 2 1.5 1.9 3.7 2.1 3.7 2.1 0.8 0.5 1.5 0.5 2 0.3-1.7-0.6-3.3-1.5-4.6-2.9 0.9 0.1 1.6 0.6 2.5 0.8-0.6-0.3-0.9-1-1.4-1.3 0.9 0.1 1.6 0.4 2.3 0.9-1.2-0.9-2-1.6-2.4-3 0.7 0.8 1.5 1.5 2.3 1.9-0.3-0.8-0.9-1.2-0.9-2 1.1 1 2.5 2 3.4 3.2q0.1-0.5-0.1-1.1c-0.5-2.2-1.7-3.3-2.6-3.4-1-0.1-0.4 0.7-1.3 0.9-0.8 0.2-1.2-1.2-2.1-1-0.9 0.2 0.7 1.5 0.3 2.6z"/><path class="i" d="m775.7 491.4c-2.9 0-5.3-2.4-5.3-5.3 0-2.9 2.4-5.3 5.3-5.3 3 0 5.3 2.4 5.3 5.3 0 2.9-2.3 5.3-5.3 5.3z"/><path class="t" d="m651.4 532q-0.6 0-1.1 0c-9.1 0-16.5 7.3-16.5 16.4 0 7.9 5.6 14.5 13 16 3.6-10.8 4.4-21.8 4.6-32.4z"/><path class="g" d="m800.3 871.9c-8.3-37-25.7-113.5-36.2-149.4-14.1-48.2-97.4-53.7-111.6-59.1-14.2-5.4-91-11.9-91-11.9 0 0-49.3 16.3-77.5 25.1-28.3 8.8-56.1 32.1-66.1 88.5-10.1 56.5-17.2 106.7-17.2 106.7v0.1z"/><path class="u" d="m752.6 590.5c0-12.5-8-24.7-9.1-37-0.8-8.6 4.7-16.5 8.5-24.4 3.8-7.8 5.7-18-0.8-24.3-2.8-2.7-6.8-4.2-9.7-6.9-4.9-4.7-5.3-11.8-4.6-18.2 1.5-13.2 6.9-25.8 8.8-39 1.9-13.2-0.7-28.2-11.9-36.7-4.9-3.6-11.1-5.8-15.8-9.8-5.5-4.6-8.3-11.3-11.9-17.4-3.5-6-8.6-12.1-15.9-13.7-7-1.5-14.1 1.4-21.3 1.2-9.1-0.2-17.2-5.4-25.6-8.6-26.9-10.3-59.5-3.2-72.9 20.3 0 0-13.7-7.2-30.5-0.4-11.1 4.6-20.8 14.9-22.6 25.9-0.6 3.7 0.1 7.5-0.1 11.2-0.7 11.4-10.1 20.5-18.5 29-8.5 8.5-16.9 18.9-14.9 30.2 1.6 9.1 10 17.3 8 26.4-0.9 4.1-3.8 7.6-6.7 10.8-7.1 7.7-27.4 35.7 1.5 65.6-2.4 11.8-5.4 29 0.9 39.6 12.1 20.1 23.4 22.6 27.2 24 13.9 5.3 30.9 6.6 47.2 6.3 59.3-1.2 27.5-2.3 86.5 2.3 40.7 3.1 55.7-3.6 59.3-4.8 28.2-9.8 44.9-17.5 44.9-51.6z"/><path fill-rule="evenodd" class="i" d="m708.1 594.2c-13.9 0-25.1-11.2-25.1-25.1 0-13.9 11.2-25.1 25.1-25.1 13.9 0 25.1 11.2 25.1 25.1 0 13.9-11.2 25.1-25.1 25.1zm22.6-25.1c0-12.5-10.1-22.6-22.6-22.6-12.5 0-22.6 10.1-22.6 22.6 0 12.5 10.1 22.6 22.6 22.6 12.5 0 22.6-10.1 22.6-22.6z"/><path class="u" d="m523.9 479.6c0 0 2.1 48.8 29.1 83 18.5 23.3 35.4 23.5 35.4 23.5l-27.4-95.2z"/><path class="g" d="m570 546.9c0 0 10.8 45.2 0 83.5-6.9 22.6-29.2 39.9-29.2 39.9 0 0 29 45.4 92.1 51.7 33.4 3.3 49.9-9.7 58-22.6 6.3-10 1.4-23.1-9.7-26.8-7.5-2.6-15.8-6.8-21.7-14-13.6-16.3-7-48.9-7-48.9z"/><path class="h" d="m605 634.5c15.8 5.3 31.6 5 46.1-0.3-0.9-12.9 1.4-24.5 1.4-24.5l-82.5-62.8c0 0 7.3 30.8 3.8 63 7.5 10.9 17.5 19.8 31.2 24.6z"/><path class="g" d="m708.7 438.2c0 0 13.2 34.9 7.6 65-2.4 22.5 3.7 49.8-11.8 75.2-15.5 25.4-24.4 40-38.1 45.2-13.6 5.2-80-8.5-95-66.8-15.1-58.3-3.3-112.4 6.1-125.1 9.4-12.7 124.1-21.8 131.2 6.5z"/><path class="g" d="m574.4 510.2c0 0-14.6-24.4-27.6-15-13 9.3-2.6 42.6 8.3 56.6 11 14 19.3-5.7 19.3-5.7z"/><path class="j" d="m552 537.2c0 0-6.6-18.6-6.6-26.4 0-7.9 3.6-14.2 12.2-9.5 8.6 4.7 11.8 16.2 11.5 20.8-0.2 4.6 0.8 11.5-2.9 11.4-3.8-0.2-7.9-3.2-4.6-7 3.4-3.7 3.9-8.8 3.1-11.2-0.8-2.5-9.2 2.3-9.1 9.6-2.8-5.4 4.4-13.9 6.2-14.1-4.2-6.2-11.8-10.3-12.6-3.1-0.8 7.2 1.5 27.1 2.8 29.5z"/><path class="i" d="m615.3 513.5c0 0 10.5-6.7 21.6-7.5 8.2-0.3 11.5 8.8 11.5 8.8 0 0-8.8 3.1-18 2.4-9.2-0.7-15.1-3.7-15.1-3.7z"/><path class="v" d="m635.8 515.6c3.3 0 6-2.7 6-6 0-1.1-0.3-2-0.8-2.9-1.2-0.5-2.5-0.8-4.1-0.7-2.3 0.2-4.5 0.6-6.7 1.3q-0.4 1-0.4 2.3c0 3.3 2.7 6 6 6z"/><path class="w" d="m636.2 512.9c-1.8 0-3.3-1.5-3.3-3.3 0-1.9 1.5-3.3 3.3-3.3 1.9 0 3.4 1.4 3.4 3.3 0 1.8-1.5 3.3-3.4 3.3z"/><path class="i" d="m678.8 514.8c0 0 6.4-8.7 17.5-9.5 8.2-0.2 11.8 6.7 11.8 6.7 0 0-5.5 6.4-18.4 5.2-9.2-0.9-10.9-2.4-10.9-2.4z"/><path class="v" d="m695.5 515.3c3.3 0 6-2.7 6-6 0-1-0.3-2-0.7-2.8-1.2-0.5-2.6-0.8-4.2-0.8-2.2 0.2-4.5 0.7-6.6 1.3q-0.5 1.1-0.5 2.3c0 3.3 2.7 6 6 6z"/><path class="w" d="m696 512.6c-1.9 0-3.4-1.5-3.4-3.3 0-1.8 1.5-3.3 3.4-3.3 1.8 0 3.3 1.5 3.3 3.3 0 1.8-1.5 3.3-3.3 3.3z"/><path class="u" d="m648.4 514.8c0 0-0.9-11-13.1-12-12.3-1-24.6 10-33.3 6.9 8 4.3 11 5.5 16.6 3 5.6-2.4 22.3-14.1 29.8 2.1z"/><path class="u" d="m678.8 514.8q0 0 0.2-0.3c1.2-1.4 7.8-9.9 15.2-11 8.4-1.3 11.4 1.8 14.3 4.4 4 3.3 7.8 3.8 8.8 3.1-2.6 2.8-5.6 3.6-9.6 0.7-4.1-2.9-5.7-7-14-5.4-8.4 1.6-14.9 8.5-14.9 8.5z"/><path class="j" d="m606.8 509.7c0 0 10.5-7.5 21.5-10 11.1-2.4 18.4 4.2 20.1 8.3-4.9-4.5-12.8-14.4-41.6 1.7z"/><path class="j" d="m678.8 510.5c0 0 6.8-13.2 22.2-10.8 8.9 2.2 11.2 10 11.2 10 0 0-4.1-8.3-15.4-8.5-11.4-0.1-18 9.3-18 9.3z"/><path class="m" d="m679.1 496.1c0 0-8 11.8-8 18.9 0 7 8.5 34.1 9.9 37.5 1.3 3.5-9.1 1-10.7-0.6-1.7-1.6-4.5-19.1-4.5-29.8 0-10.8 11.4-25 13.3-26z"/><path class="j" d="m659.5 556.8c-0.7 0.1 10.6-12.4 18.3-9.5 5 2.7 6.6 7.8 6 9-0.5 1.3-7.4-2-24.3 0.5z"/><path class="x" d="m643.7 574.3c0 0 4.6 6.8 12.5 10 7.9 3.3 23.8 1.5 26.2-1.5 2.3-3.1 3.5-7.4 3.5-9.2-0.1-1.8-16.6-1.8-20.6-1.9-4-0.1-21.6 2.6-21.6 2.6z"/><path class="i" d="m653.7 572c0 0 4.6 5.4 14.6 4.9 10.1-0.6 13.7-0.6 14.3-2.5 0.6-2 1.9-3.8 1.9-5 0-1.3-30.8 2.6-30.8 2.6z"/><path class="n" d="m644.2 575.4c0 0 2 4.7 5.2 7.9 4.9 5.1 9.5 11.3 24 8.9 14.5-2.3 12.3-17.5 12.3-17.5 0 0-3.7 9.7-16.6 9-12.3-0.6-24.9-8.3-24.9-8.3z"/><path class="o" d="m635.8 567.7c0 0 4.9 6.2 14.2 3.5 9.2-2.7 16.2-6.7 18-6.3 1.8 0.3 7 3.5 7 3.5 0 0 3.8-3.9 6-3.5 2.2 0.3 4.2 1.2 6.7 5.5 2.5 4.3 7.2-1.1 7.2-1.1-4.5 7.2-8 5.9-12.2 5-4.1-0.9-5.8 0.5-8.6 0.4-2.9 0-6.8-2.8-14-0.4-7.1 2.4-18 3.6-24.3-6.6z"/><path class="u" d="m652.3 496.1c0 0 2.1-7.3-6.4-10.2-8.5-2.9-28-5.1-48 10.2 19.7-7.5 47.7-5.5 54.4 0z"/><path class="u" d="m678.8 498.1c0 0 6.1-8.4 12-10.7 6-2.3 13.8-3.4 25.1 10.7-12.1-8.9-32.1-5-37.1 0z"/><path class="u" d="m604.5 441.9c0 0-10.7 32.1-31.1 44.1 2.2 7.1 1.1 39.2 1.1 39.2 0 0-12.8-28.2-29.3-28.8-16.5-0.6-20.2 30.9-20.2 30.9 0 0-10.5-85 8.3-112.1 5.9-8.5 16.2-17.6 36.5-19.7 9.1-27.3 48.8-43.3 98.1-28.9 49.2 14.4 69.5 56.5 70.6 76.6 1.1 20.1-21.4 54.9-21.4 54.9 0 0 4.3-46.3-41.3-56.7 18.7 10.9-37.9 5.3-37.9 5.3 17 5.6-8.8-0.8-33.4-4.8z"/><path class="u" d="m726.3 459.3c-4.4-7.3-10.5-13.4-16.5-19.5-5.3-5.3-10.8-10.8-17.8-13.8-7.8-3.5-16.7-3.3-25.3-3.2-12.3 0.3-24.5 0.6-36.6 2.6-12 2.1-23.9 6.1-33.9 13.3l-8 16.1c4.4 6.9 9.5 14.2 17.3 16.4 3.1 0.8 6.4 0.8 9.6 0.7 5.1-0.1 10.4-0.2 14.6-2.9 1.4-0.9 2.6-1.9 4-2.8 4.9-2.9 11.9-1.7 15.5 2.8 1.1 1.3 1.9 2.8 3.2 3.9 2.2 1.8 5.2 2 7.9 2.1 3.2 0.1 6.3 0.1 9.3-0.8 3.6-1.1 6.6-3.6 9.9-5.3 3.3-1.8 7.5-2.8 10.8-0.9 2.9 1.7 4.6 5.5 8 6.2 1.5 0.3 3-0.2 4.6-0.3 4.6-0.6 9.3 1.2 12.9 4.2 3.7 2.9 6.3 6.9 8.4 11.1 1.1 2.1 2.6 4.6 5 4.4 1.4-0.1 2.6-1.4 3.2-2.7 1.5-2.9 1.5-6.4 1.2-9.6-0.8-7.8-3.3-15.3-7.3-22z"/><path fill-rule="evenodd" class="i" d="m570.6 593.5c-13.9 0-25.1-11.2-25.1-25 0-13.9 11.2-25.1 25.1-25.1 13.9 0 25.1 11.2 25.1 25.1 0 13.8-11.2 25-25.1 25zm22.6-25c0-12.5-10.1-22.6-22.6-22.6-12.5 0-22.6 10.1-22.6 22.6 0 12.4 10.1 22.5 22.6 22.5 12.5 0 22.6-10.1 22.6-22.5z"/><path class="u" d="m597.9 448.5l-30.7 25.1c-23.5 7.9-41.3 28.3-50.4 51.3-9.1 23.1-10.4 48.5-8.5 73.2 0.7 8.1 1.7 16.4 5.2 23.7 3.5 7.4 9.9 13.8 17.9 15.3 7.7 1.4 15.8-2 21.1-7.7 5.2-5.8 7.8-13.7 8.2-21.5 0.4-9.7-2.4-20 1.4-28.9 5.1-12 19.9-17.1 26.2-28.4 6.4-11.5 2.4-26.1-4.4-37.3-1-1.7-2.1-3.6-1.7-5.5 0.3-1.4 1.4-2.4 2.4-3.4 6-5.8 12.6-11.3 16.7-18.5 4.1-7.3 1.7-30.8-3.4-37.4z"/><path class="y" d="m564.2 462.9c0 0 23.3-38 66.4-51.5 43.1-13.5 78.3 7.6 95 28.4-4.9-33.1-44.5-72.1-112.1-54.4-55.1 14.3-69.3 72.7-75.6 133.1 9.5-37.2 26.3-55.6 26.3-55.6z"/><path class="t" d="m617.2 562.2c-9 0-16.4-7.3-16.4-16.4 0-9.1 7.4-16.5 16.4-16.5 9.1 0 16.5 7.4 16.5 16.5 0 9.1-7.4 16.4-16.5 16.4z"/><path class="t" d="m715.6 530.5q-0.5 0-1.1 0c-9.1 0-16.4 7.3-16.4 16.4 0 8 5.7 14.7 13.4 16.1 3.4-10.9 4-21.9 4.1-32.5z"/><path class="h" d="m564.2 750c0 0 76 33.9 83.5 70.9 20.1-53.4 46-65.3 46-65.3-15.9 6.9-38.2 22-44.1 43.9-24.5-27.3-74.5-49.5-85.4-49.5z"/><path class="h" d="m723 726.1c-0.4-1.2 6.6 31.8 18 59 8.7-1.1 7.7-8.4 7.7-8.4 0 0-19-28.4-25.7-50.6z"/><path class="y" d="m744.2 871.9q2-5.9 3.9-11.9c10-33.2 0-86.8 0-86.8 0 0-4.2 14-85.4 23.2-81.1 9.2-168.7-22.2-168.7-22.2-3.4 20.9-6.8 64.5-9.2 97.7z"/><path class="z" d="m662.7 836c60.9-6.9 82.6-16.5 89.7-20.8-0.7-22.6-4.3-42-4.3-42 0 0-4.2 14-85.4 23.2-81.1 9.2-168.1-23.2-168.1-23.2-1.6 10-5.8 26.3-6.7 43.2 27.2 7.4 107.8 27.2 174.8 19.6z"/><path class="h" d="m489.6 792.2c-3.4 25.1-8.3 56.2-12.2 79.7h12.2c4.6-31.9 10.8-77.2 11.3-98.7 0.8-34.9-29.4-54.6-29.4-54.6 0 0 24.4 26.9 18.1 73.6z"/><path class="h" d="m649.3 696.6c0 0 13.4-10.9 46.4-13.8-14.1-3.7-34.5-0.3-46.4 13.8z"/><path class="h" d="m595.3 703.3c0 0-18.1-14.6-62.2-18.3 18.9-5 46.2-0.4 62.2 18.3z"/><path class="A" d="m614.5 871.9c-4.2-35.8-13.7-108.5-24.1-144.1-14.1-48.2-111.7-59-125.9-64.4-14.2-5.4-91-11.9-91-11.9 0 0-49.3 16.3-77.6 25.1-28.2 8.8-63.1 31.9-73.2 88.3-10 56.5-10 106.9-10 106.9v0.1z"/><path class="B" d="m550.8 842.4c-1.3 8.9-6 19.5-11.7 29.5h13q1.5-2 3.2-4.1c19.8-25.3 3.5-59.7-13.9-89.9-17.4-30.3 0-55.4 0-55.4-7.3 5.7-22.4 31.2-10.3 58.4 12.1 27.2 23.2 36.3 19.7 61.5z"/><path class="f" d="m335.9 479.6c0 0 2.1 48.8 29.1 83 18.5 23.3 35.4 23.5 35.4 23.5l-27.4-95.2z"/><path class="C" d="m380.8 593.5c0 0 7.1-9.4 24.2-0.9 17.1 8.6 50 8.8 59.5 15.4 9.6 6.5 15.9 9.1 13.9 15.6-2.1 6.6-35.6 20.9-59.5 19.2-24-1.8-49-33.3-38.1-49.3z"/><path class="g" d="m484 668.6c-4.6-2.5-9-5.7-12.6-10-13.6-16.3-6.9-48.9-6.9-48.9l-82.5-62.8c0 0 10.7 45.2 0 83.5-5.7 18.4-21.5 33.3-27.2 38.2z"/><path class="h" d="m417 634.5c15.8 5.3 31.6 5 46.1-0.3-1-12.9 1.4-24.5 1.4-24.5l-82.5-62.8c0 0 7.3 30.8 3.8 63 7.5 10.9 17.5 19.8 31.2 24.6z"/><path class="c" d="m531.9 439.9c0 0-0.2-15.1 4 10.3 4.3 25.4-3.2 98.2-22.4 147.3-19.2 49 64.1 95.3 72.3 121.1-20.1 36-95.4 98.4-114.4 76.8-18.9-21.6-19.9-176.8-19.9-176.8z"/><path class="g" d="m520.7 438.2c0 0 13.2 34.9 7.6 65-2.4 22.5 3.7 49.8-11.8 75.2-15.5 25.4-24.5 40-38.1 45.2-13.7 5.2-80-8.5-95.1-66.8-15-58.3-3.2-112.4 6.2-125.1 9.4-12.7 124-21.8 131.2 6.5z"/><path class="g" d="m386.3 510.2c0 0-14.5-24.4-27.5-15-13 9.3-2.6 42.6 8.3 56.6 10.9 14 19.2-5.7 19.2-5.7z"/><path class="j" d="m364 537.2c0 0-6.7-18.6-6.7-26.4 0-7.9 3.6-14.2 12.3-9.5 8.6 4.7 11.8 16.2 11.5 20.8-0.3 4.6 0.8 11.5-2.9 11.4-3.8-0.2-7.9-3.2-4.6-7 3.4-3.7 3.9-8.8 3.1-11.2-0.8-2.5-9.2 2.3-9.1 9.6-2.8-5.4 4.4-13.9 6.2-14.1-4.2-6.2-11.8-10.3-12.6-3.1-0.8 7.2 1.5 27.1 2.8 29.5z"/><path class="i" d="m427.3 513.5c0 0 10.5-6.7 21.6-7.5 8.1-0.3 11.5 8.8 11.5 8.8 0 0-8.8 3.1-18 2.4-9.3-0.7-15.1-3.7-15.1-3.7z"/><path class="D" d="m447.7 515.6c3.3 0 6-2.7 6-6 0-1.1-0.2-2-0.7-2.9-1.2-0.5-2.6-0.8-4.1-0.7-2.3 0.2-4.5 0.6-6.7 1.3q-0.4 1-0.4 2.3c0 3.3 2.6 6 5.9 6z"/><path class="f" d="m448.2 512.9c-1.8 0-3.3-1.5-3.3-3.3 0-1.9 1.5-3.3 3.3-3.3 1.8 0 3.3 1.4 3.3 3.3 0 1.8-1.5 3.3-3.3 3.3z"/><path class="i" d="m490.8 514.8c0 0 6.4-8.7 17.5-9.5 8.1-0.2 11.8 6.7 11.8 6.7 0 0-5.6 6.4-18.5 5.2-9.2-0.9-10.8-2.4-10.8-2.4z"/><path class="D" d="m507.5 515.3c3.3 0 6-2.7 6-6 0-1-0.3-2-0.8-2.8-1.2-0.5-2.5-0.8-4.1-0.8-2.3 0.2-4.5 0.7-6.7 1.3q-0.4 1.1-0.4 2.3c0 3.3 2.7 6 6 6z"/><path class="f" d="m507.9 512.6c-1.8 0-3.3-1.5-3.3-3.3 0-1.8 1.5-3.3 3.3-3.3 1.9 0 3.4 1.5 3.4 3.3 0 1.8-1.5 3.3-3.4 3.3z"/><path class="f" d="m460.4 514.8c0 0-0.9-11-13.2-12-12.2-1-24.5 10-33.2 6.9 8 4.3 11 5.5 16.6 3 5.6-2.4 22.3-14.1 29.8 2.1z"/><path class="f" d="m490.8 514.8q0 0 0.2-0.3c1.2-1.4 7.8-9.9 15.2-11 8.4-1.3 11.3 1.8 14.3 4.4 3.9 3.3 7.8 3.8 8.8 3.1-2.6 2.8-5.6 3.6-9.6 0.7-4.1-2.9-5.7-7-14.1-5.4-8.3 1.6-14.8 8.5-14.8 8.5z"/><path class="j" d="m418.8 509.7c0 0 10.5-7.5 21.5-10 11.1-2.4 18.4 4.2 20.1 8.3-5-4.5-12.8-14.4-41.6 1.7z"/><path class="j" d="m490.8 510.5c0 0 6.8-13.2 22.2-10.8 8.8 2.2 11.1 10 11.1 10 0 0-4-8.3-15.3-8.5-11.4-0.1-18 9.3-18 9.3z"/><path class="m" d="m491.1 496.1c0 0-8 11.8-8 18.9 0 7 8.5 34.1 9.9 37.5 1.3 3.5-9.2 1-10.8-0.6-1.6-1.6-4.5-19.1-4.5-29.8 0-10.8 11.5-25 13.4-26z"/><path class="j" d="m471.5 556.8c-0.7 0.1 10.6-12.4 18.2-9.5 5.1 2.7 6.7 7.8 6.1 9-0.5 1.3-7.4-2-24.3 0.5z"/><path class="n" d="m454.9 573.7c0 0-0.4 0.3 2.7 3.6 5 5 13.1 8.1 27.8 8.1 15.1 0 15.7-9.6 15.7-9.6 0 0-4.5-1.4-17.4-2-12.3-0.7-28.8-0.1-28.8-0.1z"/><path class="o" d="m446.8 566.5c0 0 6.1 6.6 15.6 5.4 10-1.2 15.7-2.8 17.6-2.5 1.8 0.4 7 3.5 7 3.5 0 0 3.8-3.9 6-3.5 2.2 0.4 3.3 1.6 7.3 2.2 4 0.6 6.5-1.7 6.5-1.7-4.5 7.2-7.9 6.6-12.2 6.6-3.6 0-5.6 1.3-8.5 1.3-2.8-0.1-6.6-1.5-14.7-1-7.5 0.5-18.3-0.1-24.6-10.3z"/><path class="f" d="m464.3 492.1c0 0 2.1-7.2-6.4-10.1-8.6-3-28.1-5.1-48.1 10.1 19.8-7.5 47.8-5.5 54.5 0z"/><path class="f" d="m490.8 495.5c0 0 6.1-8.4 12-10.7 6-2.3 13.7-3.4 25.1 10.7-12.2-8.9-32.1-5-37.1 0z"/><path class="f" d="m416.5 441.9c0 0-10.7 32.1-31.2 44.1 2.3 7.1 1.2 39.2 1.2 39.2 0 0-12.8-28.2-29.3-28.8-16.5-0.6-18.7-0.3-18.7-0.3 0 0-12-53.8 6.8-80.9 5.9-8.5 13.8-18.9 30.8-27.5 12.8-6.7 35-16.6 80.1-10.6 50.9 6.8 72 46 73.1 66.1 1 20.1-0.3 54.9-0.3 54.9 0 0 4.4-38.1-17.7-53.7-24 7.1-70.3 1.5-94.8-2.5z"/><path class="t" d="m429.2 562.2c-9.1 0-16.4-7.3-16.4-16.4 0-9.1 7.3-16.5 16.4-16.5 9.1 0 16.5 7.4 16.5 16.5 0 9.1-7.4 16.4-16.5 16.4z"/><path class="t" d="m527.6 529.4q-0.6 0-1.1-0.1c-9.1 0-16.5 7.4-16.5 16.5 0 8.1 6 14.9 13.8 16.2 3.2-11 3.7-22 3.8-32.6z"/><path class="B" d="m311.2 800.4c-3 22.2-7.2 49.3-10.8 71.5h12c4.4-31 9.6-70.8 10.1-90.5 0.8-35-29.4-54.6-29.4-54.6 0 0 24.4 26.8 18.1 73.6z"/><path class="z" d="m463.9 641c0 0-10.9 6.8-51.7-2.7-19.7-4.5-30.3-12.5-36.1-19.7q0.1 0.8 0 1.5c-0.2 3.4-3.5 5.2-7.2 7.4 5.4 4.8 14.5 10.4 29.6 15.9 40.1 14.4 65.4-2.4 65.4-2.4z"/><path class="z" d="m379.9 668.1c40 14.4 65.4-2.4 65.4-2.4 0 0-11 6.8-51.8-2.7-16.6-3.8-26.8-10.2-33.1-16.4-0.2 0.8-0.5 1.7-1 2.6-1.2 2.1-3.6 3.7-6.4 5.3 5.6 4.2 14 8.9 26.9 13.6z"/><path class="E" d="m488.2 414.5c0 0-42.6 13.1-64.9 38.5-22.4 25.5-27.1 46.6-28.6 79.8-1.5 33.2 24 89 76.7 91.8-6.5 67.8 44.3 144.4 12.3 174.1-46.7 43.1-213.1-55.4-239.6-85.7 43.6-48.9 62.2-93.7 61.2-120.4-1.1-26.7-0.7-123.6 14.4-169.8 22.1-67.6 101-72.5 151.7-52.3 45.8 18.1 72.1 51.8 62.6 102.2q-1.5 8.1-4.3 16.8c-5-39.6-41.5-75-41.5-75z"/><path class="c" d="m490.8 396.6c0 0-54.4 26.3-76.8 51.7-22.4 25.5-26.1 55.7-27.7 88.9-1.5 33.2 32.4 84.6 85.1 87.4-6.5 67.8 44.3 144.4 12.3 174.1-46.7 43.1-213.1-55.4-239.6-85.7 43.6-48.9 62.2-93.7 61.2-120.4-1.1-26.7-0.7-123.6 14.4-169.8 22.1-67.6 101-72.5 151.7-52.3 45.8 18.1 72.1 51.8 62.6 102.2q-1.5 8.1-4.3 16.8c-5-39.6-38.9-92.9-38.9-92.9z"/><path class="d" d="m493.1 622.2c0.1-1-20.2 17.2-65.8 2.4-45.7-14.8-66.2-37.8-74.5-62.4 2.7 54.5 69.7 82.8 76.4 89.3 6.8 6.5-20.1 39.7-60 22.4-39.8-17.3-46.7-32-46.7-32 0 0 5.5 45.3 50.2 54.7 44.7 9.5 114.2-13.9 120.4-74.4z"/><path class="d" d="m527.6 679.6c0 0-54.5 136.6-209.3 34.4 86.7 67.1 172.2 89.5 209.3-34.4z"/><path class="d" d="m378.2 564.8c0 0-36.9-98 11.8-158.6-37.9 29.6-46.3 95-11.8 158.6z"/><path class="z" d="m399.7 871.9c-8.3-37-25.7-113.5-36.2-149.4-14.2-48.2-97.4-53.7-111.6-59.1-14.2-5.4-91-11.9-91-11.9 0 0-49.3 16.3-77.6 25.1-28.2 8.8-56 32.1-66.1 88.5-10 56.5-17.1 106.7-17.1 106.7v0.1z"/><path class="F" d="m338.2 842.4c-1.3 8.9-6 19.5-11.7 29.5h13q1.5-2 3.2-4.1c19.8-25.3 3.5-59.7-13.9-89.9-17.4-30.3 0-55.4 0-55.4-7.3 5.7-22.4 31.2-10.3 58.4 12.1 27.2 23.2 36.3 19.7 61.5z"/><path class="f" d="m123.3 479.6c0 0 2.1 48.8 29.1 83 18.5 23.3 35.4 23.5 35.4 23.5l-27.4-95.2z"/><path class="C" d="m168.2 593.5c0 0 7.1-9.4 24.2-0.9 17.1 8.6 50 8.8 59.5 15.4 9.6 6.5 15.9 9.1 13.9 15.6-2.1 6.6-35.6 20.9-59.5 19.2-24-1.8-49-33.3-38.1-49.3z"/><path class="g" d="m271.4 668.6c-4.6-2.5-9-5.7-12.6-10-13.5-16.3-6.9-48.9-6.9-48.9l-82.5-62.8c0 0 10.7 45.2 0 83.5-5.7 18.4-21.5 33.3-27.2 38.2z"/><path class="h" d="m204.4 634.5c15.8 5.3 31.6 5 46.1-0.3-0.9-12.9 1.4-24.5 1.4-24.5l-82.5-62.8c0 0 7.3 30.8 3.8 63 7.5 10.9 17.5 19.8 31.2 24.6z"/><path class="g" d="m308.1 438.2c0 0 13.2 34.9 7.6 65-2.4 22.5 3.7 49.8-11.8 75.2-15.5 25.4-24.5 40-38.1 45.2-13.7 5.2-80-8.5-95-66.8-15.1-58.3-3.3-112.4 6.1-125.1 9.4-12.7 124-21.8 131.2 6.5z"/><path class="g" d="m173.7 510.2c0 0-14.5-24.4-27.5-15-13 9.3-2.6 42.6 8.3 56.6 10.9 14 19.2-5.7 19.2-5.7z"/><path class="j" d="m151.4 537.2c0 0-6.7-18.6-6.7-26.4 0-7.9 3.7-14.2 12.3-9.5 8.6 4.7 11.8 16.2 11.5 20.8-0.3 4.6 0.8 11.5-2.9 11.4-3.8-0.2-7.9-3.2-4.6-7 3.4-3.7 3.9-8.8 3.1-11.2-0.8-2.5-9.2 2.3-9.1 9.6-2.8-5.4 4.4-13.9 6.2-14.1-4.2-6.2-11.8-10.3-12.6-3.1-0.8 7.2 1.5 27.1 2.8 29.5z"/><path class="i" d="m214.7 513.5c0 0 10.5-6.7 21.6-7.5 8.1-0.3 11.5 8.8 11.5 8.8 0 0-8.8 3.1-18 2.4-9.3-0.7-15.1-3.7-15.1-3.7z"/><path class="D" d="m235.1 515.6c3.4 0 6-2.7 6-6 0-1.1-0.2-2-0.7-2.9-1.2-0.5-2.6-0.8-4.1-0.7-2.3 0.2-4.5 0.6-6.7 1.3q-0.4 1-0.4 2.3c0 3.3 2.6 6 5.9 6z"/><path class="f" d="m235.6 512.9c-1.8 0-3.3-1.5-3.3-3.3 0-1.9 1.5-3.3 3.3-3.3 1.8 0 3.3 1.4 3.3 3.3 0 1.8-1.5 3.3-3.3 3.3z"/><path class="i" d="m278.2 514.8c0 0 6.4-8.7 17.5-9.5 8.1-0.2 11.8 6.7 11.8 6.7 0 0-5.6 6.4-18.5 5.2-9.2-0.9-10.8-2.4-10.8-2.4z"/><path class="D" d="m294.9 515.3c3.3 0 6-2.7 6-6 0-1-0.3-2-0.8-2.8-1.2-0.5-2.5-0.8-4.1-0.8-2.3 0.2-4.5 0.7-6.7 1.3q-0.4 1.1-0.4 2.3c0 3.3 2.7 6 6 6z"/><path class="f" d="m295.3 512.6c-1.8 0-3.3-1.5-3.3-3.3 0-1.8 1.5-3.3 3.3-3.3 1.9 0 3.4 1.5 3.4 3.3 0 1.8-1.5 3.3-3.4 3.3z"/><path class="f" d="m247.8 514.8c0 0-0.9-11-13.2-12-12.2-1-24.5 10-33.2 6.9 8 4.3 11 5.5 16.6 3 5.6-2.4 22.3-14.1 29.8 2.1z"/><path class="f" d="m278.2 514.8q0 0 0.2-0.3c1.2-1.4 7.8-9.9 15.2-11 8.4-1.3 11.3 1.8 14.3 4.4 3.9 3.3 7.8 3.8 8.8 3.1-2.6 2.8-5.6 3.6-9.6 0.7-4.1-2.9-5.7-7-14.1-5.4-8.3 1.6-14.8 8.5-14.8 8.5z"/><path class="j" d="m206.2 509.7c0 0 10.5-7.5 21.5-10 11.1-2.4 18.4 4.2 20.1 8.3-4.9-4.5-12.8-14.4-41.6 1.7z"/><path class="j" d="m278.2 510.5c0 0 6.8-13.2 22.2-10.8 8.8 2.2 11.1 10 11.1 10 0 0-4-8.3-15.3-8.5-11.4-0.1-18 9.3-18 9.3z"/><path class="m" d="m278.5 496.1c0 0-8 11.8-8 18.9 0 7 8.5 34.1 9.9 37.5 1.3 3.5-9.2 1-10.8-0.6-1.6-1.6-4.5-19.1-4.5-29.8 0-10.8 11.5-25 13.4-26z"/><path class="j" d="m258.9 556.8c-0.7 0.1 10.6-12.4 18.3-9.5 5 2.7 6.6 7.8 6 9-0.5 1.3-7.4-2-24.3 0.5z"/><path class="n" d="m242.3 573.7c0 0-0.4 0.3 2.7 3.6 5 5 13.1 8.1 27.8 8.1 15.1 0 15.7-9.6 15.7-9.6 0 0-4.5-1.4-17.4-2-12.3-0.7-28.8-0.1-28.8-0.1z"/><path class="o" d="m234.2 566.5c0 0 6.1 6.6 15.6 5.4 10-1.2 15.7-2.8 17.6-2.5 1.8 0.4 7 3.5 7 3.5 0 0 3.8-3.9 6-3.5 2.2 0.4 3.3 1.6 7.3 2.2 4 0.6 6.5-1.7 6.5-1.7-4.5 7.2-7.9 6.6-12.1 6.6-3.7 0-5.7 1.3-8.6 1.3-2.8-0.1-6.6-1.5-14.7-1-7.5 0.5-18.3-0.1-24.6-10.3z"/><path class="f" d="m251.7 492.1c0 0 2.1-7.2-6.4-10.1-8.6-3-28-5.1-48.1 10.1 19.8-7.5 47.8-5.5 54.5 0z"/><path class="f" d="m278.2 495.5c0 0 6.1-8.4 12-10.7 6-2.3 13.7-3.4 25.1 10.7-12.2-8.9-32.1-5-37.1 0z"/><path class="f" d="m197.2 381c0 0 5.2-42.5-33.7-53-38.8-10.6-82.4 33.2-63.2 71 19.1 37.8 56.3 40.9 56.3 40.9z"/><path class="G" d="m131 439.9c0 0-6.5 0.6-10.8-16-4.3-16.5 13.8-46.3 36.8-55.9 22.9-9.5 43-10.1 49.8 15.1 6.9 25.3-75.8 56.8-75.8 56.8z"/><path class="f" d="m203.9 441.9c0 0-10.7 32.1-31.2 44.1 2.3 7.1 1.2 39.2 1.2 39.2 0 0-12.8-28.2-29.3-28.8-16.5-0.6-18.7-0.3-18.7-0.3 0 0-12-53.8 6.8-80.9 5.9-8.5 13.8-18.9 30.8-27.5 12.9-6.7 35-16.6 80.1-10.6 50.9 6.8 72 46 73.1 66.1 1 20.1-0.3 54.9-0.3 54.9 0 0 4.4-38.1-17.7-53.7-24 7.1-70.3 1.5-94.8-2.5z"/><path class="t" d="m216.6 562.2c-9.1 0-16.4-7.3-16.4-16.4 0-9.1 7.3-16.5 16.4-16.5 9.1 0 16.5 7.4 16.5 16.5 0 9.1-7.4 16.4-16.5 16.4z"/><path class="t" d="m315 529.4q-0.6 0-1.1-0.1c-9.1 0-16.5 7.4-16.5 16.5 0 8.1 6 14.9 13.8 16.2 3.2-11 3.7-22 3.8-32.6z"/><path class="F" d="m89 792.2c-3.4 25.1-8.3 56.2-12.2 79.7h12.2c4.6-31.9 10.7-77.2 11.3-98.7 0.8-34.9-29.4-54.6-29.4-54.6 0 0 24.3 26.9 18.1 73.6z"/><path class="G" d="m168.2 593.5c0 0-7.5 17.3 19.6 31.1 27 13.9 70.2 3.3 78-1-1.6 14.1 2.2 12.6 1.7 19.9-0.5 7.3-4.6 4.3-1.7 10.3 3 6.1 8.1 6.6 11.5 8.1 3.5 1.5 10.9 7.1 14.4 10.4-30 18.3-34.5 41-93.8 29.4-59.2-11.6-69.5-21.4-71-32.7-1.5-11.4 16.1-12.8 19.9-19.8 3.8-6.9-1.8-9.5 2.5-15.8 4.3-6.3 13.9-7.5 14.2-13.3 0.4-5.8-7.9-16.8 4.7-26.6z"/><path class="z" d="m251.3 641c0 0-10.9 6.8-51.7-2.7-19.6-4.5-30.3-12.5-36.1-19.7q0.1 0.8 0 1.5c-0.2 3.4-3.5 5.2-7.2 7.4 5.4 4.8 14.5 10.4 29.6 15.9 40.1 14.4 65.4-2.4 65.4-2.4z"/><path class="z" d="m167.3 668.1c40.1 14.4 65.4-2.4 65.4-2.4 0 0-11 6.8-51.8-2.7-16.6-3.8-26.8-10.2-33.1-16.4-0.2 0.8-0.5 1.7-1 2.6-1.2 2.1-3.6 3.7-6.4 5.3 5.6 4.2 14 8.9 26.9 13.6z"/></svg>